<?xml version="1.0" encoding="UTF-8" standalone="no"?><svg xmlns="http://www.w3.org/2000/svg" xmlns:xlink="http://www.w3.org/1999/xlink" contentScriptType="application/ecmascript" contentStyleType="text/css" height="960px" preserveAspectRatio="none" style="width:2737px;height:960px;background:#FAFAFA;" version="1.1" viewBox="0 0 2737 960" width="2737px" zoomAndPan="magnify"><defs/><g><text fill="#000000" font-family="Helvetica" font-size="18" lengthAdjust="spacingAndGlyphs" textLength="447" x="1148" y="16.708">LiveSpec — contract + reference implementations</text><text fill="#000000" font-family="Helvetica" font-size="18" lengthAdjust="spacingAndGlyphs" textLength="597" x="1073" y="37.6611">(architecture decided 2026-06-09; supersedes orchestration-layers)</text><!--MD5=[ad1ccc8de92f1bc58f780b3d3b678fdb]
cluster driver--><polygon fill="#EEF4FB" points="467,263.9063,799,263.9063,806,300.1719,809,300.1719,809,462.9063,467,462.9063,467,263.9063" style="stroke: #444444; stroke-width: 1.5;"/><line style="stroke: #444444; stroke-width: 1.5;" x1="467" x2="806" y1="300.1719" y2="300.1719"/><text fill="#111111" font-family="Helvetica" font-size="13" font-weight="bold" lengthAdjust="spacingAndGlyphs" textLength="238" x="515" y="277.9731">DRIVER (one per agent runtime)</text><text fill="#111111" font-family="Helvetica" font-size="13" font-weight="bold" lengthAdjust="spacingAndGlyphs" textLength="326" x="471" y="293.106">livespec-driver-{claude,codex,opencode,pi}</text><!--MD5=[01435ace8273dc3cae88e7f376e4d373]
cluster core--><polygon fill="#FDE8EC" points="376,563.9063,700,563.9063,707,600.1719,1328,600.1719,1328,762.9063,376,762.9063,376,563.9063" style="stroke: #444444; stroke-width: 1.5;"/><line style="stroke: #444444; stroke-width: 1.5;" x1="376" x2="707" y1="600.1719" y2="600.1719"/><text fill="#111111" font-family="Helvetica" font-size="13" font-weight="bold" lengthAdjust="spacingAndGlyphs" textLength="123" x="477.5" y="577.9731">CORE — livespec</text><text fill="#111111" font-family="Helvetica" font-size="13" font-weight="bold" lengthAdjust="spacingAndGlyphs" textLength="318" x="380" y="593.106">(agnostic to BOTH Driver and orchestrator)</text><!--MD5=[ec4cacd8524fa0c331160b8dd384db33]
cluster orch--><polygon fill="#E3F0E3" points="1368,191.9063,1796,191.9063,1803,243.3047,2309,243.3047,2309,948.9063,1368,948.9063,1368,191.9063" style="stroke: #444444; stroke-width: 1.5;"/><line style="stroke: #444444; stroke-width: 1.5;" x1="1368" x2="1803" y1="243.3047" y2="243.3047"/><text fill="#111111" font-family="Helvetica" font-size="13" font-weight="bold" lengthAdjust="spacingAndGlyphs" textLength="312" x="1427" y="205.9731">ORCHESTRATOR (one of N; self-contained)</text><text fill="#111111" font-family="Helvetica" font-size="13" font-weight="bold" lengthAdjust="spacingAndGlyphs" textLength="422" x="1372" y="221.106">reference assemblies: git-jsonl (serial; homegrown logic)</text><text fill="#111111" font-family="Helvetica" font-size="13" font-weight="bold" lengthAdjust="spacingAndGlyphs" textLength="387" x="1389.5" y="236.2388">· Beads/Dolt + Fabro (parallel; the dogfood default)</text><!--MD5=[26040960bc1639044c7e240f9fb5dd50]
cluster internals--><polygon fill="#F0F0E8" points="1764,301.9063,2067,301.9063,2074,323.0391,2277,323.0391,2277,754.9063,1764,754.9063,1764,301.9063" style="stroke: #444444; stroke-width: 1.5;"/><line style="stroke: #444444; stroke-width: 1.5;" x1="1764" x2="2074" y1="323.0391" y2="323.0391"/><text fill="#111111" font-family="Helvetica" font-size="13" font-weight="bold" lengthAdjust="spacingAndGlyphs" textLength="297" x="1768" y="315.9731">INTERNAL — invisible to core AND Driver</text><!--MD5=[212fbc2f00e2ef50dcc5380c5e254eb3]
entity drv--><rect fill="#D6E6F5" height="85.1875" rx="4" ry="4" style="stroke: #1F4768; stroke-width: 1.5;" width="248" x="537" y="353.9063"/><text fill="#111111" font-family="Helvetica" font-size="14" lengthAdjust="spacingAndGlyphs" textLength="113" x="547" y="376.9014">interactive driver</text><text fill="#111111" font-family="Helvetica" font-size="14" lengthAdjust="spacingAndGlyphs" textLength="228" x="547" y="393.1982">(thin: binds core's spec-side CLIs</text><text fill="#111111" font-family="Helvetica" font-size="14" lengthAdjust="spacingAndGlyphs" textLength="221" x="547" y="409.4951">+ harness-neutral prose to ONE</text><text fill="#111111" font-family="Helvetica" font-size="14" lengthAdjust="spacingAndGlyphs" textLength="88" x="547" y="425.792">tool runtime)</text><!--MD5=[e1cc7f8be10205d51d3ab67704036bde]
entity spec--><rect fill="#FEFECE" height="36.2969" rx="4" ry="4" style="stroke: #1F4768; stroke-width: 1.5;" width="160" x="1144" y="678.4063"/><text fill="#111111" font-family="Helvetica" font-size="14" lengthAdjust="spacingAndGlyphs" textLength="140" x="1154" y="701.4014">SPECIFICATION/ tree</text><!--MD5=[55f5bdf2a4cc3ad572fc67b2ad19fbd9]
entity scli--><rect fill="#FEFECE" height="85.1875" rx="4" ry="4" style="stroke: #1F4768; stroke-width: 1.5;" width="247" x="880.5" y="653.9063"/><text fill="#111111" font-family="Helvetica" font-size="14" lengthAdjust="spacingAndGlyphs" textLength="171" x="890.5" y="676.9014">spec-side reference CLIs</text><text fill="#111111" font-family="Helvetica" font-size="14" lengthAdjust="spacingAndGlyphs" textLength="226" x="890.5" y="693.1982">seed / propose-change / revise /</text><text fill="#111111" font-family="Helvetica" font-size="14" lengthAdjust="spacingAndGlyphs" textLength="214" x="890.5" y="709.4951">critique / doctor / prune-history</text><text fill="#111111" font-family="Helvetica" font-size="14" lengthAdjust="spacingAndGlyphs" textLength="227" x="890.5" y="725.792">(config-named, each overridable)</text><!--MD5=[a490db30932ce62c97916d0a4ddff24a]
entity prose--><rect fill="#FEFECE" height="36.2969" rx="4" ry="4" style="stroke: #1F4768; stroke-width: 1.5;" width="173" x="408.5" y="678.4063"/><text fill="#111111" font-family="Helvetica" font-size="14" lengthAdjust="spacingAndGlyphs" textLength="153" x="418.5" y="701.4014">harness-neutral prose</text><!--MD5=[6a88aea038141ee488e61f39bf1ca119]
entity cfg--><rect fill="#FFE9C9" height="68.8906" rx="4" ry="4" style="stroke: #1F4768; stroke-width: 1.5;" width="266" x="598" y="661.9063"/><text fill="#111111" font-family="Helvetica" font-size="14" lengthAdjust="spacingAndGlyphs" textLength="246" x="608" y="684.9014">.livespec.jsonc — single wiring table</text><text fill="#111111" font-family="Helvetica" font-size="14" lengthAdjust="spacingAndGlyphs" textLength="230" x="608" y="701.1982">names spec-side CLIs (defaulted)</text><text fill="#111111" font-family="Helvetica" font-size="14" lengthAdjust="spacingAndGlyphs" textLength="173" x="608" y="717.4951">+ the 3 orchestrator CLIs</text><!--MD5=[d00da99cad44037fa807a79f8fdb5527]
entity rdr--><rect fill="#CCDDEE" height="85.1875" rx="4" ry="4" style="stroke: #1F4768; stroke-width: 1.5;" width="228" x="1400" y="839.9063"/><text fill="#111111" font-family="Helvetica" font-size="14" lengthAdjust="spacingAndGlyphs" textLength="108" x="1410" y="862.9014">spec-reader CLI</text><text fill="#111111" font-family="Helvetica" font-size="14" lengthAdjust="spacingAndGlyphs" textLength="206" x="1410" y="879.1982">(API undefined; exposes spec</text><text fill="#111111" font-family="Helvetica" font-size="14" lengthAdjust="spacingAndGlyphs" textLength="208" x="1410" y="895.4951">BY CATEGORY — categorizes,</text><text fill="#111111" font-family="Helvetica" font-size="14" lengthAdjust="spacingAndGlyphs" textLength="110" x="1410" y="911.792">never conceals)</text><!--MD5=[506e556762ff60bfb48959c465d61d38]
entity gap--><rect fill="#CCDDEE" height="68.8906" rx="4" ry="4" style="stroke: #1F4768; stroke-width: 1.5;" width="204" x="1400" y="661.9063"/><text fill="#111111" font-family="Helvetica" font-size="14" lengthAdjust="spacingAndGlyphs" textLength="108" x="1410" y="684.9014">gap-capture CLI</text><text fill="#111111" font-family="Helvetica" font-size="14" lengthAdjust="spacingAndGlyphs" textLength="184" x="1410" y="701.1982">(detection method private:</text><text fill="#111111" font-family="Helvetica" font-size="14" lengthAdjust="spacingAndGlyphs" textLength="183" x="1410" y="717.4951">mechanical / LLM / human)</text><!--MD5=[db7d60ea5f452e865b0767004d13ae5c]
entity drift--><rect fill="#CCDDEE" height="36.2969" rx="4" ry="4" style="stroke: #1F4768; stroke-width: 1.5;" width="128" x="1620" y="678.4063"/><text fill="#111111" font-family="Helvetica" font-size="14" lengthAdjust="spacingAndGlyphs" textLength="108" x="1630" y="701.4014">drift-capture CLI</text><!--MD5=[2b5b80f7068c6a16f141d16022e08ad4]
entity dispatcher--><rect fill="#FEFECE" height="85.1875" rx="4" ry="4" style="stroke: #1F4768; stroke-width: 1.5;" width="207" x="2053.5" y="353.9063"/><text fill="#111111" font-family="Helvetica" font-size="14" lengthAdjust="spacingAndGlyphs" textLength="89" x="2063.5" y="376.9014">DISPATCHER</text><text fill="#111111" font-family="Helvetica" font-size="14" lengthAdjust="spacingAndGlyphs" textLength="187" x="2063.5" y="393.1982">polls Ledger, invokes Loop,</text><text fill="#111111" font-family="Helvetica" font-size="14" lengthAdjust="spacingAndGlyphs" textLength="130" x="2063.5" y="409.4951">writes status back;</text><text fill="#111111" font-family="Helvetica" font-size="14" lengthAdjust="spacingAndGlyphs" textLength="138" x="2063.5" y="425.792">OWNS PARALLELISM</text><!--MD5=[43d0eb486ab8276ac19d3a17de2ccef6]
entity ledger--><rect fill="#FEFECE" height="85.1875" rx="4" ry="4" style="stroke: #1F4768; stroke-width: 1.5;" width="254" x="1780" y="653.9063"/><text fill="#111111" font-family="Helvetica" font-size="14" lengthAdjust="spacingAndGlyphs" textLength="57" x="1790" y="676.9014">LEDGER</text><text fill="#111111" font-family="Helvetica" font-size="14" lengthAdjust="spacingAndGlyphs" textLength="232" x="1790" y="693.1982">work-items + depends_on graph;</text><text fill="#111111" font-family="Helvetica" font-size="14" lengthAdjust="spacingAndGlyphs" textLength="234" x="1790" y="709.4951">concurrent-write system of record</text><text fill="#111111" font-family="Helvetica" font-size="14" lengthAdjust="spacingAndGlyphs" textLength="154" x="1790" y="725.792">(Beads/Dolt | git-jsonl)</text><!--MD5=[35b71152e07676ad975ef23ad1bf5735]
entity loop--><rect fill="#FEFECE" height="68.8906" rx="4" ry="4" style="stroke: #1F4768; stroke-width: 1.5;" width="183" x="2074.5" y="661.9063"/><text fill="#111111" font-family="Helvetica" font-size="14" lengthAdjust="spacingAndGlyphs" textLength="38" x="2084.5" y="684.9014">LOOP</text><text fill="#111111" font-family="Helvetica" font-size="14" lengthAdjust="spacingAndGlyphs" textLength="163" x="2084.5" y="701.1982">per-work-item producer</text><text fill="#111111" font-family="Helvetica" font-size="14" lengthAdjust="spacingAndGlyphs" textLength="145" x="2084.5" y="717.4951">(homegrown | Fabro)</text><!--MD5=[be60907b59ed04184062e1a17576ee39]
entity oskills--><rect fill="#D6E6F5" height="85.1875" rx="4" ry="4" style="stroke: #1F4768; stroke-width: 1.5;" width="257" x="1780.5" y="353.9063"/><text fill="#111111" font-family="Helvetica" font-size="14" lengthAdjust="spacingAndGlyphs" textLength="211" x="1790.5" y="376.9014">orchestrator-shipped SKILL.md</text><text fill="#111111" font-family="Helvetica" font-size="14" lengthAdjust="spacingAndGlyphs" textLength="213" x="1790.5" y="393.1982">front-ends (interactive gap/drift</text><text fill="#111111" font-family="Helvetica" font-size="14" lengthAdjust="spacingAndGlyphs" textLength="237" x="1790.5" y="409.4951">consent dialogue; in-repo for now,</text><text fill="#111111" font-family="Helvetica" font-size="14" lengthAdjust="spacingAndGlyphs" textLength="189" x="1790.5" y="425.792">plugin publication deferred)</text><!--MD5=[576713d34b70cd01e0fe64aa18bc23e4]
entity human--><ellipse cx="1285" cy="59.4063" fill="#FEFECE" rx="8" ry="8" style="stroke: #A80036; stroke-width: 1.5;"/><path d="M1285,67.4063 L1285,94.4063 M1272,75.4063 L1298,75.4063 M1285,94.4063 L1272,109.4063 M1285,94.4063 L1298,109.4063 " fill="none" style="stroke: #A80036; stroke-width: 1.5;"/><text fill="#000000" font-family="Helvetica" font-size="14" lengthAdjust="spacingAndGlyphs" textLength="51" x="1259.5" y="124.9014">HUMAN</text><!--MD5=[b293dbcf8322f0c8be3bc58d5bcbebea]
entity impl--><path d="M2344.2898,851.6294 C2350.2624,840.9222 2357.4466,840.7003 2364.9728,850.0253 C2373.3183,837.157 2381.0542,836.4414 2389.9202,849.525 C2397.783,837.9692 2406.0399,835.2682 2415.0635,848.3399 C2421.4071,837.9826 2430.7202,836.0008 2437.8289,847.5446 C2445.2876,838.3288 2454.228,839.9669 2459.7259,849.7988 C2464.4937,837.7257 2472.9321,837.5879 2480.7531,846.7798 C2487.9311,833.0879 2498.0739,835.1949 2506.4537,845.4923 C2512.8007,836.7669 2521.6172,836.5978 2527.8101,845.6771 C2537.7142,832.3483 2546.6621,836.0637 2554.7671,847.6256 C2559.8018,838.8095 2569.5471,837.0565 2574.9232,847.2639 C2584.1035,836.6573 2593.7674,835.6436 2600.6224,849.6881 C2607.652,839.8314 2617.0858,843.7124 2620.926,853.06 C2627.149,843.2857 2638.4307,841.4245 2644.3677,853.3686 C2650.8791,843.0375 2661.0588,842.305 2668.9103,851.7014 C2688.3452,854.6031 2689.4362,870.0091 2678.8563,882.579 C2693.0125,898.8966 2688.4729,911.243 2667.3158,914.9844 C2660.9675,926.2726 2651.3349,925.4974 2644.7447,915.2378 C2640.9742,926.103 2631.2991,927.7408 2624.2112,918.6514 C2618.867,931.3719 2607.7892,928.9206 2601.1826,919.9944 C2594.6493,933.6975 2581.5523,931.8941 2574.3849,920.6763 C2566.7154,929.5043 2556.4803,928.1367 2551.0304,917.95 C2547.1939,931.1642 2535.8954,932.9443 2527.9298,921.8786 C2520.7587,931.349 2514.5078,932.7005 2507.2509,921.9664 C2500.1833,935.26 2487.9946,933.4189 2481.1448,921.7388 C2473.5188,930.7139 2467.0932,929.5272 2460.4291,920.6243 C2451.5812,929.5793 2443.5111,930.6048 2437.2884,917.8287 C2429.9012,927.94 2418.537,928.4124 2411.7431,917.1206 C2405.1748,928.9274 2393.4967,927.6082 2387.7789,916.2411 C2381.7935,928.8846 2371.2298,928.7872 2364.4349,917.0151 C2355.9667,924.8716 2349.4991,925.2827 2343.9872,913.877 C2327.951,910.53 2323.6278,896.9452 2336.1805,885.6824 C2322.1581,870.8485 2324.9516,858.5189 2344.2898,851.6294 " fill="#FEFECE" style="stroke: #000000; stroke-width: 1.5;"/><text fill="#000000" font-family="Helvetica" font-size="14" lengthAdjust="spacingAndGlyphs" textLength="122" x="2348" y="870.9014">IMPLEMENTATION</text><text fill="#000000" font-family="Helvetica" font-size="14" lengthAdjust="spacingAndGlyphs" textLength="312" x="2348" y="887.1982">(the work product: code / tests / config / infra</text><text fill="#000000" font-family="Helvetica" font-size="14" lengthAdjust="spacingAndGlyphs" textLength="114" x="2348" y="903.4951">the spec is FOR)</text><path d="M6,660.9063 L6,731.4375 L352,731.4375 L352,670.9063 L342,660.9063 L6,660.9063 " fill="#FBFB77" style="stroke: #A80036; stroke-width: 1.0;"/><path d="M342,660.9063 L342,670.9063 L352,670.9063 L342,660.9063 " fill="#FBFB77" style="stroke: #A80036; stroke-width: 1.0;"/><text fill="#000000" font-family="Helvetica" font-size="13" lengthAdjust="spacingAndGlyphs" textLength="325" x="12" y="677.9731">ZERO direct Driver &lt;-&gt; orchestrator dependencies</text><text fill="#000000" font-family="Helvetica" font-size="13" lengthAdjust="spacingAndGlyphs" textLength="292" x="12" y="693.106">(load-bearing invariant). Forbidden both ways:</text><text fill="#000000" font-family="Helvetica" font-size="13" lengthAdjust="spacingAndGlyphs" textLength="270" x="12" y="708.2388">the Driver never reads orchestrator prose;</text><text fill="#000000" font-family="Helvetica" font-size="13" lengthAdjust="spacingAndGlyphs" textLength="309" x="12" y="723.3716">the orchestrator never calls back into the Driver.</text><path d="M2333,638.4063 L2333,754.3359 L2725,754.3359 L2725,648.4063 L2715,638.4063 L2333,638.4063 " fill="#FBFB77" style="stroke: #A80036; stroke-width: 1.0;"/><path d="M2715,638.4063 L2715,648.4063 L2725,648.4063 L2715,638.4063 " fill="#FBFB77" style="stroke: #A80036; stroke-width: 1.0;"/><text fill="#000000" font-family="Helvetica" font-size="13" lengthAdjust="spacingAndGlyphs" textLength="346" x="2339" y="655.4731">Self-contained: prose / prompts / store / loop PRIVATE.</text><text fill="#000000" font-family="Helvetica" font-size="13" lengthAdjust="spacingAndGlyphs" textLength="338" x="2339" y="670.606">Interactive dialogue is orchestrator-owned via its own</text><text fill="#000000" font-family="Helvetica" font-size="13" lengthAdjust="spacingAndGlyphs" textLength="326" x="2339" y="685.7388">in-repo SKILL.md front-ends (decision 2026-06-09).</text><text fill="#000000" font-family="Helvetica" font-size="13" lengthAdjust="spacingAndGlyphs" textLength="344" x="2339" y="700.8716">If LLM-driven without its own runtime, it shells a model</text><text fill="#000000" font-family="Helvetica" font-size="13" lengthAdjust="spacingAndGlyphs" textLength="371" x="2339" y="716.0044">CLI as a subprocess — depends on "a model is invokable",</text><text fill="#000000" font-family="Helvetica" font-size="13" lengthAdjust="spacingAndGlyphs" textLength="340" x="2339" y="731.1372">NOT on the Driver. Ledger/Loop/Dispatcher is internal</text><text fill="#000000" font-family="Helvetica" font-size="13" lengthAdjust="spacingAndGlyphs" textLength="344" x="2339" y="746.27">decomposition guidance, never core contract surface.</text><path d="M197.5,846.9063 L197.5,917.4375 L570.5,917.4375 L570.5,856.9063 L560.5,846.9063 L197.5,846.9063 " fill="#FBFB77" style="stroke: #A80036; stroke-width: 1.0;"/><path d="M560.5,846.9063 L560.5,856.9063 L570.5,856.9063 L560.5,846.9063 " fill="#FBFB77" style="stroke: #A80036; stroke-width: 1.0;"/><text fill="#000000" font-family="Helvetica" font-size="13" lengthAdjust="spacingAndGlyphs" textLength="352" x="203.5" y="863.9731">Doctor is NOT privileged: config-named and overridable</text><text fill="#000000" font-family="Helvetica" font-size="13" lengthAdjust="spacingAndGlyphs" textLength="341" x="203.5" y="879.106">like any other spec-side CLI. Its entire cross-boundary</text><text fill="#000000" font-family="Helvetica" font-size="13" lengthAdjust="spacingAndGlyphs" textLength="308" x="203.5" y="894.2388">job is CLI callability. Core never sees work-items,</text><text fill="#000000" font-family="Helvetica" font-size="13" lengthAdjust="spacingAndGlyphs" textLength="234" x="203.5" y="909.3716">gaps, stores, or dependency graphs.</text><!--MD5=[d713ed95b29bfe08db34cbcf82f3f0b6]
link human to drv--><path d="M1259.38,102.4562 C1173.84,144.3262 895.42,280.6363 750.5,351.5862 " fill="none" id="human-&gt;drv" style="stroke: #000000; stroke-width: 1.3;"/><polygon fill="#000000" points="745.83,353.8763,755.6718,353.5045,750.3192,351.6746,752.1491,346.3219,745.83,353.8763" style="stroke: #000000; stroke-width: 1.3;"/><text fill="#000000" font-family="Helvetica" font-size="11" lengthAdjust="spacingAndGlyphs" textLength="88" x="1195.5" y="152.1167">drives the spec</text><text fill="#000000" font-family="Helvetica" font-size="11" lengthAdjust="spacingAndGlyphs" textLength="117" x="1181" y="164.9214">lifecycle interactively</text><!--MD5=[892413667af5c26a3d621901d026165c]
link human to oskills--><path d="M1310.68,91.6063 C1400.54,97.9562 1699.5,122.7463 1777,175.9063 C1837.92,217.6962 1875.37,297.6962 1894.15,348.7062 " fill="none" id="human-&gt;oskills" style="stroke: #000000; stroke-width: 1.3;"/><polygon fill="#000000" points="1895.91,353.5463,1896.6103,343.7223,1894.2093,348.8444,1889.0873,346.4434,1895.91,353.5463" style="stroke: #000000; stroke-width: 1.3;"/><text fill="#000000" font-family="Helvetica" font-size="11" lengthAdjust="spacingAndGlyphs" textLength="111" x="1787" y="152.1167">interactive gap/drift</text><text fill="#000000" font-family="Helvetica" font-size="11" lengthAdjust="spacingAndGlyphs" textLength="169" x="1758" y="164.9214">consent (orchestrator-owned)</text><!--MD5=[027071903555e497dd0694de13438977]
link drv to prose--><path d="M602.98,439.0063 C581.68,453.0063 556.92,467.8563 533,478.9063 C522.02,483.9763 514.46,477.3963 507,486.9063 C463.99,541.7663 478.82,631.8363 488.87,673.2763 " fill="none" id="drv-&gt;prose" style="stroke: #000000; stroke-width: 1.3; stroke-dasharray: 7.0,7.0;"/><polygon fill="#000000" points="490.12,678.3263,491.811,668.6236,488.904,673.4764,484.0512,670.5693,490.12,678.3263" style="stroke: #000000; stroke-width: 1.3;"/><text fill="#000000" font-family="Helvetica" font-size="11" lengthAdjust="spacingAndGlyphs" textLength="143" x="508" y="511.1167">[D1] vendors core, reads</text><text fill="#000000" font-family="Helvetica" font-size="11" lengthAdjust="spacingAndGlyphs" textLength="125" x="517" y="523.9214">prose by relative path</text><!--MD5=[bf2ecc54881c4a3724dcce41772283b7]
link drv to scli--><path d="M785.31,415.3063 C868.5,430.0563 967.43,453.9263 994,486.9063 C1030.41,532.1063 1025.18,602.3663 1016.15,648.6263 " fill="none" id="drv-&gt;scli" style="stroke: #000000; stroke-width: 1.3;"/><polygon fill="#000000" points="1015.15,653.5863,1020.8689,645.5679,1016.1498,648.6872,1013.0304,643.9682,1015.15,653.5863" style="stroke: #000000; stroke-width: 1.3;"/><text fill="#000000" font-family="Helvetica" font-size="11" lengthAdjust="spacingAndGlyphs" textLength="122" x="1018" y="511.1167">[D2] wraps + invokes</text><text fill="#000000" font-family="Helvetica" font-size="11" lengthAdjust="spacingAndGlyphs" textLength="83" x="1037.5" y="523.9214">spec-side CLIs</text><!--MD5=[298a83d046a9778a314f6c2951ce8164]
link cfg to drv--><path d="M711.27,661.8963 C694.46,631.3063 671.55,584.2262 662,539.9063 C655.23,508.4863 655.07,472.2563 656.56,444.1962 " fill="none" id="cfg-&gt;drv" style="stroke: #000000; stroke-width: 1.3; stroke-dasharray: 7.0,7.0;"/><polygon fill="#000000" points="656.86,439.0463,652.3531,447.8034,656.5748,444.0381,660.34,448.2598,656.86,439.0463" style="stroke: #000000; stroke-width: 1.3;"/><text fill="#000000" font-family="Helvetica" font-size="11" lengthAdjust="spacingAndGlyphs" textLength="88" x="663" y="511.1167">[D3] names the</text><text fill="#000000" font-family="Helvetica" font-size="11" lengthAdjust="spacingAndGlyphs" textLength="83" x="665.5" y="523.9214">spec-side CLIs</text><!--MD5=[599a68cd2dd30e33aa1671255306d616]
link cfg to orch--><path d="M734.99,661.6363 C741.9,605.7362 756.57,498.9263 769,486.9063 C775.08,481.0313 924.515,458.9588 1073.5738,438.205 C1148.1031,427.8281 1222.5384,417.7809 1278.9133,410.253 C1307.1007,406.489 1330.773,403.3548 1347.6844,401.1241 C1356.1401,400.0088 1362.9056,399.1193 1367.7001,398.4899 " fill="none" id="cfg-&gt;orch" style="stroke: #000000; stroke-width: 1.3; stroke-dasharray: 7.0,7.0;"/><polygon fill="#000000" points="1367.7001,398.4899,1358.256,395.6953,1362.7426,399.1407,1359.2972,403.6273,1367.7001,398.4899" style="stroke: #000000; stroke-width: 1.3;"/><text fill="#000000" font-family="Helvetica" font-size="11" lengthAdjust="spacingAndGlyphs" textLength="203" x="778" y="511.1167">[O1] names the 3 orchestrator CLIs</text><text fill="#000000" font-family="Helvetica" font-size="11" lengthAdjust="spacingAndGlyphs" textLength="219" x="770" y="523.9214">(core knows names + callability ONLY)</text><!--MD5=[ef28514aa6d387230cc3fa1152d486fa]
link rdr to spec--><path d="M1399.77,848.4463 C1384.91,842.2463 1370.26,835.0863 1357,826.9063 C1308.65,797.0563 1263.8,746.8863 1240.58,718.5563 " fill="none" id="rdr-&gt;spec" style="stroke: #000000; stroke-width: 1.3;"/><polygon fill="#000000" points="1237.31,714.5363,1239.898,724.039,1240.47,718.4111,1246.0978,718.9831,1237.31,714.5363" style="stroke: #000000; stroke-width: 1.3;"/><text fill="#000000" font-family="Helvetica" font-size="11" lengthAdjust="spacingAndGlyphs" textLength="145" x="1358" y="811.1167">[O2] reads BY CATEGORY</text><!--MD5=[b7d3ac3d8848ec14de95a60d4a093ff3]
link drift to scli--><path d="M1679.29,678.2063 C1670.61,647.7963 1649.46,586.2163 1612,547.9063 C1544.29,478.6563 1491.78,524.1763 1395,527.9063 C1279.63,532.3563 1239.42,496.5863 1136,547.9063 C1091.35,570.0663 1055.04,614.5263 1031.89,649.0463 " fill="none" id="drift-&gt;scli" style="stroke: #000000; stroke-width: 1.3;"/><polygon fill="#000000" points="1028.85,653.6363,1037.1579,648.3468,1031.6136,649.4694,1030.491,643.9251,1028.85,653.6363" style="stroke: #000000; stroke-width: 1.3;"/><text fill="#000000" font-family="Helvetica" font-size="11" lengthAdjust="spacingAndGlyphs" textLength="141" x="1413.5" y="498.1167">[O3] invokes the injected</text><text fill="#000000" font-family="Helvetica" font-size="11" lengthAdjust="spacingAndGlyphs" textLength="113" x="1427.5" y="510.9214">propose-change CLI</text><text fill="#000000" font-family="Helvetica" font-size="11" lengthAdjust="spacingAndGlyphs" textLength="142" x="1413" y="523.7261">(files proposed-changes;</text><text fill="#000000" font-family="Helvetica" font-size="11" lengthAdjust="spacingAndGlyphs" textLength="176" x="1396" y="536.5308">machine files, HUMAN accepts)</text><!--MD5=[6e420ea321379058742e544ce25f564e]
link scli to orch--><path d="M1038.93,653.8763 C1064.86,623.6763 1101.56,582.2362 1136,547.9063 C1139.79,544.1263 1141.04,543.5063 1145,539.9063 C1170.6,516.6363 1173.69,506.7863 1202,486.9063 C1237.03,462.3113 1279.7275,440.2463 1314.06,424.1788 C1331.2263,416.145 1346.3013,409.6106 1357.2809,405.0091 C1360.0259,403.8587 1362.5148,402.8291 1364.7165,401.9271 C1365.8174,401.4761 1366.8464,401.0569 1367.7997,400.6706 " fill="none" id="scli-&gt;orch" style="stroke: #000000; stroke-width: 1.3; stroke-dasharray: 7.0,7.0;"/><polygon fill="#000000" points="1367.7997,400.6706,1357.9562,400.3441,1363.1658,402.5487,1360.9612,407.7583,1367.7997,400.6706" style="stroke: #000000; stroke-width: 1.3;"/><text fill="#000000" font-family="Helvetica" font-size="11" lengthAdjust="spacingAndGlyphs" textLength="184" x="1203" y="504.6167">[O4] doctor: every config-named</text><text fill="#000000" font-family="Helvetica" font-size="11" lengthAdjust="spacingAndGlyphs" textLength="144" x="1223" y="517.4214">CLI resolves + is callable</text><text fill="#000000" font-family="Helvetica" font-size="11" lengthAdjust="spacingAndGlyphs" textLength="144" x="1223" y="530.2261">(callability, nothing more)</text><!--MD5=[064580966354bc6c3cad042e43205884]
reverse link gap to rdr--><path d="M1504.54,736.3063 C1506.52,766.6663 1509.26,808.7763 1511.29,839.8063 " fill="none" id="gap&lt;-rdr" style="stroke: #000000; stroke-width: 1.3; stroke-dasharray: 7.0,7.0;"/><polygon fill="#000000" points="1504.2,731.1563,1500.8005,740.3998,1504.5288,736.1454,1508.7832,739.8737,1504.2,731.1563" style="stroke: #000000; stroke-width: 1.3;"/><text fill="#000000" font-family="Helvetica" font-size="11" lengthAdjust="spacingAndGlyphs" textLength="117" x="1511" y="811.1167">spec-reader injected</text><!--MD5=[e93b8c37bb4bd435e6fa7a20dc1f447f]
reverse link drift to rdr--><path d="M1680.48,719.7363 C1674.96,747.9663 1661.78,796.5163 1633,826.9063 C1628.62,831.5263 1623.78,835.7863 1618.63,839.7163 " fill="none" id="drift&lt;-rdr" style="stroke: #000000; stroke-width: 1.3; stroke-dasharray: 7.0,7.0;"/><polygon fill="#000000" points="1681.42,714.7163,1675.8185,722.8171,1680.4917,719.6293,1683.6794,724.3024,1681.42,714.7163" style="stroke: #000000; stroke-width: 1.3;"/><text fill="#000000" font-family="Helvetica" font-size="11" lengthAdjust="spacingAndGlyphs" textLength="117" x="1659" y="811.1167">spec-reader injected</text><!--MD5=[b1edbf914c5d266971b93ce057be07c6]
link gap to ledger--><path d="M1520.58,661.6563 C1539.73,628.6363 1572.33,579.4663 1612,547.9063 C1662.65,507.6163 1695.34,514.7262 1757,534.4063 C1813.72,552.5063 1856.84,608.2863 1881.97,649.3563 " fill="none" id="gap-&gt;ledger" style="stroke: #000000; stroke-width: 1.3;"/><polygon fill="#000000" points="1884.65,653.7863,1883.4111,644.0156,1882.0607,649.5089,1876.5674,648.1585,1884.65,653.7863" style="stroke: #000000; stroke-width: 1.3;"/><text fill="#000000" font-family="Helvetica" font-size="11" lengthAdjust="spacingAndGlyphs" textLength="67" x="1666.5" y="504.6167">writes gaps</text><text fill="#000000" font-family="Helvetica" font-size="11" lengthAdjust="spacingAndGlyphs" textLength="112" x="1644" y="517.4214">(gap CORRECTS the</text><text fill="#000000" font-family="Helvetica" font-size="11" lengthAdjust="spacingAndGlyphs" textLength="92" x="1654" y="530.2261">implementation)</text><!--MD5=[ee8c1b7031ef022148c57303fdf4e3ad]
link oskills to gap--><path d="M1855.52,439.0263 C1832.63,454.4763 1804.79,470.3263 1777,478.9063 C1758.51,484.6163 1619.16,476.2563 1603,486.9063 C1602.51,487.2263 1549.61,596.7462 1520.57,656.9063 " fill="none" id="oskills-&gt;gap" style="stroke: #000000; stroke-width: 1.3; stroke-dasharray: 7.0,7.0;"/><polygon fill="#000000" points="1518.35,661.5063,1525.8638,655.1389,1520.5229,657.0031,1518.6588,651.6622,1518.35,661.5063" style="stroke: #000000; stroke-width: 1.3;"/><text fill="#000000" font-family="Helvetica" font-size="11" lengthAdjust="spacingAndGlyphs" textLength="34" x="1604" y="517.6167">fronts</text><!--MD5=[c0d52a24996db811ab6e92f7a1d84841]
link oskills to drift--><path d="M1864.79,439.1363 C1835.44,468.0963 1797.11,508.4263 1768,547.9063 C1737.13,589.7863 1708.88,644.0563 1694.33,673.7063 " fill="none" id="oskills-&gt;drift" style="stroke: #000000; stroke-width: 1.3; stroke-dasharray: 7.0,7.0;"/><polygon fill="#000000" points="1692.11,678.2462,1699.6564,671.9176,1694.3061,673.7543,1692.4694,668.404,1692.11,678.2462" style="stroke: #000000; stroke-width: 1.3;"/><text fill="#000000" font-family="Helvetica" font-size="11" lengthAdjust="spacingAndGlyphs" textLength="34" x="1819" y="517.6167">fronts</text><!--MD5=[2d2de18619e31d1e06d68ae9bb5a844b]
link dispatcher to ledger--><path d="M2103.74,442.4863 C2088.68,456.1663 2072.67,471.6363 2059,486.9063 C2012.2,539.1763 1965.77,605.5263 1936.77,649.1663 " fill="none" id="dispatcher-ledger" style="stroke: #000000; stroke-width: 1.3;"/><polygon fill="#000000" points="1933.85,653.5863,1942.1622,648.3034,1936.6169,649.4216,1935.4987,643.8764,1933.85,653.5863" style="stroke: #000000; stroke-width: 1.3;"/><polygon fill="#000000" points="2107.55,439.0563,2098.1845,442.1038,2103.8335,442.4011,2103.5362,448.0501,2107.55,439.0563" style="stroke: #000000; stroke-width: 1.3;"/><text fill="#000000" font-family="Helvetica" font-size="11" lengthAdjust="spacingAndGlyphs" textLength="76" x="2069" y="511.1167">ready items /</text><text fill="#000000" font-family="Helvetica" font-size="11" lengthAdjust="spacingAndGlyphs" textLength="94" x="2060" y="523.9214">status writeback</text><!--MD5=[0f19da36733c5eaadf9401393e1be367]
link dispatcher to loop--><path d="M2158.26,439.1563 C2160,496.8863 2163.13,600.2963 2164.82,656.4862 " fill="none" id="dispatcher-&gt;loop" style="stroke: #000000; stroke-width: 1.3;"/><polygon fill="#000000" points="2164.98,661.7763,2168.6953,652.655,2164.8229,656.7787,2160.6993,652.9063,2164.98,661.7763" style="stroke: #000000; stroke-width: 1.3;"/><text fill="#000000" font-family="Helvetica" font-size="11" lengthAdjust="spacingAndGlyphs" textLength="66" x="2162" y="511.1167">invokes per</text><text fill="#000000" font-family="Helvetica" font-size="11" lengthAdjust="spacingAndGlyphs" textLength="56" x="2167" y="523.9214">work-item</text><!--MD5=[185632daf73999369083ed8c2ea68ef6]
link loop to impl--><path d="M2227.6,730.9363 C2284.11,761.7063 2367.97,807.3563 2428.49,840.2963 " fill="none" id="loop-&gt;impl" style="stroke: #000000; stroke-width: 1.3;"/><polygon fill="#000000" points="2433.17,842.8463,2427.1754,835.0318,2428.7778,840.457,2423.3526,842.0594,2433.17,842.8463" style="stroke: #000000; stroke-width: 1.3;"/><text fill="#000000" font-family="Helvetica" font-size="11" lengthAdjust="spacingAndGlyphs" textLength="53" x="2395" y="811.1167">produces</text><!--MD5=[c74ba22db750b8c0f6565fdc546801ce]
link impl to drift--><path d="M2332.8,845.8763 C2320.7,843.7363 2308.68,841.7262 2297,839.9063 C2063.14,803.5463 1981.81,880.3863 1768,778.9063 C1739.33,765.2963 1714.38,737.9563 1699.28,718.7063 " fill="none" id="impl-&gt;drift" style="stroke: #000000; stroke-width: 1.3; stroke-dasharray: 7.0,7.0;"/><polygon fill="#000000" points="1696.02,714.4862,1698.3569,724.0538,1699.0768,718.443,1704.6877,719.1629,1696.02,714.4862" style="stroke: #000000; stroke-width: 1.3;"/><text fill="#000000" font-family="Helvetica" font-size="11" lengthAdjust="spacingAndGlyphs" textLength="88" x="1933.5" y="798.1167">realized artifact</text><text fill="#000000" font-family="Helvetica" font-size="11" lengthAdjust="spacingAndGlyphs" textLength="75" x="1940" y="810.9214">teaches back</text><text fill="#000000" font-family="Helvetica" font-size="11" lengthAdjust="spacingAndGlyphs" textLength="149" x="1903" y="823.7261">(drift CORRECTS the spec)</text><!--MD5=[1955cd9c2e56f5bdee343dc8ec9a25e4]
link driver to GMN38--><path d="M466.8402,405.6226 C466.5178,405.9472 466.1866,406.2807 465.8467,406.6229 C460.4082,412.0987 452.7485,419.8105 443.4164,429.2059 C424.7522,447.9969 399.3981,473.5225 371.7438,501.3638 C316.435,557.0463 251.925,621.9913 213.33,660.8463 " fill="none" id="driver-GMN38" style="stroke: #000000; stroke-width: 1.3; stroke-dasharray: 7.0,7.0;"/><!--MD5=[6c8204e71b5726aa377fce9380a3ab17]
link orch to GMN41--><path d="M2309.7371,502.9432 C2310.3707,503.2639 2311.0036,503.5865 2311.6358,503.9109 C2314.1648,505.2087 2316.6833,506.5362 2319.1906,507.8917 C2324.2053,510.6027 2329.1754,513.4256 2334.0955,516.3458 C2353.7759,528.0266 2372.6569,541.2644 2390.3938,555.1275 C2425.8675,582.8538 2456.765,613.0813 2480.33,638.3563 " fill="none" id="orch-GMN41" style="stroke: #000000; stroke-width: 1.3; stroke-dasharray: 7.0,7.0;"/><!--MD5=[9a35b7d986d901cdcd0da08089350e05]
link core to GMN44--><path d="M384,763.585 C384,763.8301 384,764.0755 384,764.3212 C384,764.8125 384,765.3049 384,765.7983 C384,769.745 384,773.754 384,777.7933 C384,785.8719 384,794.0719 384,802.1388 C384,818.2725 384,833.8738 384,846.9063 " fill="none" id="core-GMN44" style="stroke: #000000; stroke-width: 1.3; stroke-dasharray: 7.0,7.0;"/><!--MD5=[ea6b90bf92935f4411a046c3104a2191]
@startuml contract-and-reference-implementations
title LiveSpec — contract + reference implementations\n(architecture decided 2026-06-09; supersedes orchestration-layers)

skinparam defaultFontName Helvetica
skinparam shadowing false
skinparam BackgroundColor #fafafa
skinparam ArrowColor #000000
skinparam ArrowFontColor #000000
skinparam ArrowFontSize 11
skinparam ArrowThickness 1.3
skinparam nodesep 16
skinparam ranksep 26
hide stereotype
skinparam componentStyle rectangle

skinparam package {
  FontColor #111
  FontSize 13
  FontStyle bold
  BorderColor #444
  BorderThickness 2
}

skinparam rectangle {
  BorderColor #1f4768
  FontColor #111
  RoundCorner 8
}

actor "HUMAN" as human


package "DRIVER (one per agent runtime)\nlivespec-driver-{claude,codex,opencode,pi}" as driver #eef4fb {
  rectangle "interactive driver\n(thin: binds core's spec-side CLIs\n+ harness-neutral prose to ONE\ntool runtime)" as drv #d6e6f5
}


package "CORE — livespec\n(agnostic to BOTH Driver and orchestrator)" as core #fde8ec {
  rectangle "SPECIFICATION/ tree" as spec
  rectangle "spec-side reference CLIs\nseed / propose-change / revise /\ncritique / doctor / prune-history\n(config-named, each overridable)" as scli
  rectangle "harness-neutral prose" as prose
  rectangle ".livespec.jsonc — single wiring table\nnames spec-side CLIs (defaulted)\n+ the 3 orchestrator CLIs" as cfg #ffe9c9
}


package "ORCHESTRATOR (one of N; self-contained)\nreference assemblies: git-jsonl (serial; homegrown logic)\n· Beads/Dolt + Fabro (parallel; the dogfood default)" as orch #e3f0e3 {

  rectangle "spec-reader CLI\n(API undefined; exposes spec\nBY CATEGORY — categorizes,\nnever conceals)" as rdr #ccddee
  rectangle "gap-capture CLI\n(detection method private:\nmechanical / LLM / human)" as gap #ccddee
  rectangle "drift-capture CLI" as drift #ccddee

  package "INTERNAL — invisible to core AND Driver" as internals #f0f0e8 {
    rectangle "DISPATCHER\npolls Ledger, invokes Loop,\nwrites status back;\nOWNS PARALLELISM" as dispatcher
    rectangle "LEDGER\nwork-items + depends_on graph;\nconcurrent-write system of record\n(Beads/Dolt | git-jsonl)" as ledger
    rectangle "LOOP\nper-work-item producer\n(homegrown | Fabro)" as loop
    rectangle "orchestrator-shipped SKILL.md\nfront-ends (interactive gap/drift\nconsent dialogue; in-repo for now,\nplugin publication deferred)" as oskills #d6e6f5
  }
}

cloud "IMPLEMENTATION\n(the work product: code / tests / config / infra\nthe spec is FOR)" as impl


human - -> drv : drives the spec\nlifecycle interactively
human - -> oskills : interactive gap/drift\nconsent (orchestrator-owned)

drv ..> prose : [D1] vendors core, reads\nprose by relative path
drv - -> scli : [D2] wraps + invokes\nspec-side CLIs
cfg ..> drv : [D3] names the\nspec-side CLIs


cfg ..> orch : [O1] names the 3 orchestrator CLIs\n(core knows names + callability ONLY)
rdr - -> spec : [O2] reads BY CATEGORY
drift - -> scli : [O3] invokes the injected\npropose-change CLI\n(files proposed-changes;\nmachine files, HUMAN accepts)
scli ..> orch : [O4] doctor: every config-named\nCLI resolves + is callable\n(callability, nothing more)


gap <.. rdr : spec-reader injected
drift <.. rdr : spec-reader injected
gap - -> ledger : writes gaps\n(gap CORRECTS the\nimplementation)
oskills ..> gap : fronts
oskills ..> drift : fronts
dispatcher <- -> ledger : ready items /\nstatus writeback
dispatcher - -> loop : invokes per\nwork-item
loop - -> impl : produces
impl ..> drift : realized artifact\nteaches back\n(drift CORRECTS the spec)


note bottom of driver
  ZERO direct Driver <-> orchestrator dependencies
  (load-bearing invariant). Forbidden both ways:
  the Driver never reads orchestrator prose;
  the orchestrator never calls back into the Driver.
end note

note bottom of orch
  Self-contained: prose / prompts / store / loop PRIVATE.
  Interactive dialogue is orchestrator-owned via its own
  in-repo SKILL.md front-ends (decision 2026-06-09).
  If LLM-driven without its own runtime, it shells a model
  CLI as a subprocess — depends on "a model is invokable",
  NOT on the Driver. Ledger/Loop/Dispatcher is internal
  decomposition guidance, never core contract surface.
end note

note bottom of core
  Doctor is NOT privileged: config-named and overridable
  like any other spec-side CLI. Its entire cross-boundary
  job is CLI callability. Core never sees work-items,
  gaps, stores, or dependency graphs.
end note

@enduml

PlantUML version 1.2020.02(Sun Mar 01 11:22:07 CET 2020)
(GPL source distribution)
Java Runtime: OpenJDK Runtime Environment
JVM: OpenJDK 64-Bit Server VM
Java Version: 21.0.11+10-1-25.10.2-Ubuntu
Operating System: Linux
Default Encoding: UTF-8
Language: en
Country: null
--></g></svg>