<?xml version="1.0" encoding="UTF-8" standalone="no"?><svg xmlns="http://www.w3.org/2000/svg" xmlns:xlink="http://www.w3.org/1999/xlink" contentScriptType="application/ecmascript" contentStyleType="text/css" height="866px" preserveAspectRatio="none" style="width:663px;height:866px;background:#FAFAFA;" version="1.1" viewBox="0 0 663 866" width="663px" zoomAndPan="magnify"><defs/><g><text fill="#000000" font-family="Helvetica" font-size="18" lengthAdjust="spacingAndGlyphs" textLength="634" x="17.5" y="16.708">Tool-Agnostic Workflow — Spec / Implementation Lifecycle (DRAFT v8)</text><!--MD5=[781fc4211f0f0711d3811412dad38fe1]
cluster SpecPkg--><polygon fill="#FDE8EC" points="22,112.4531,104,112.4531,111,133.5859,258,133.5859,258,755.9531,22,755.9531,22,112.4531" style="stroke: #444444; stroke-width: 1.5;"/><line style="stroke: #444444; stroke-width: 1.5;" x1="22" x2="111" y1="133.5859" y2="133.5859"/><text fill="#111111" font-family="Helvetica" font-size="13" font-weight="bold" lengthAdjust="spacingAndGlyphs" textLength="76" x="26" y="126.52">SPEC SIDE</text><!--MD5=[4d90c78b95395404f4d0684d2e298718]
cluster ImplPkg--><polygon fill="#E3F0E3" points="282,212.4531,455,212.4531,462,233.5859,635,233.5859,635,854.9531,282,854.9531,282,212.4531" style="stroke: #444444; stroke-width: 1.5;"/><line style="stroke: #444444; stroke-width: 1.5;" x1="282" x2="462" y1="233.5859" y2="233.5859"/><text fill="#111111" font-family="Helvetica" font-size="13" font-weight="bold" lengthAdjust="spacingAndGlyphs" textLength="167" x="286" y="226.52">IMPLEMENTATION SIDE</text><!--MD5=[9a5cf7b5ccfe99a8a50c4f56868c7fc8]
entity Seed--><rect fill="#D6E6F5" height="36.2969" rx="4" ry="4" style="stroke: #1F4768; stroke-width: 1.5;" width="56" x="160" y="146.4531"/><text fill="#111111" font-family="Helvetica" font-size="14" lengthAdjust="spacingAndGlyphs" textLength="36" x="170" y="169.4482">Seed</text><!--MD5=[b162903c3f5aa45441033ef018a482dd]
entity Propose--><rect fill="#D6E6F5" height="52.5938" rx="4" ry="4" style="stroke: #1F4768; stroke-width: 1.5;" width="78" x="56" y="326.4531"/><text fill="#111111" font-family="Helvetica" font-size="14" lengthAdjust="spacingAndGlyphs" textLength="58" x="66" y="349.4482">Propose</text><text fill="#111111" font-family="Helvetica" font-size="14" lengthAdjust="spacingAndGlyphs" textLength="54" x="66" y="365.7451">Change</text><!--MD5=[5bd62c65b3bf6048be3cb32942b001e5]
entity Critique--><rect fill="#D6E6F5" height="36.2969" rx="4" ry="4" style="stroke: #1F4768; stroke-width: 1.5;" width="73" x="150.5" y="334.9531"/><text fill="#111111" font-family="Helvetica" font-size="14" lengthAdjust="spacingAndGlyphs" textLength="53" x="160.5" y="357.9482">Critique</text><!--MD5=[e9c1fb24a4cd81b1c7322b8f0a98f11d]
entity Revise--><rect fill="#D6E6F5" height="36.2969" rx="4" ry="4" style="stroke: #1F4768; stroke-width: 1.5;" width="66" x="94" y="534.4531"/><text fill="#111111" font-family="Helvetica" font-size="14" lengthAdjust="spacingAndGlyphs" textLength="46" x="104" y="557.4482">Revise</text><!--MD5=[5a5d35bcfc46556bdff8e646cc6c81c2]
entity Doctor--><rect fill="#D6E6F5" height="36.2969" rx="4" ry="4" style="stroke: #1F4768; stroke-width: 1.5;" width="67" x="72.5" y="703.9531"/><text fill="#111111" font-family="Helvetica" font-size="14" lengthAdjust="spacingAndGlyphs" textLength="47" x="82.5" y="726.9482">Doctor</text><!--MD5=[5b0af1a53dfe6ce9d6337a803daa3faf]
entity Spec--><path d="M134.5,260.4531 C134.5,250.4531 188,250.4531 188,250.4531 C188,250.4531 241.5,250.4531 241.5,260.4531 L241.5,285.75 C241.5,295.75 188,295.75 188,295.75 C188,295.75 134.5,295.75 134.5,285.75 L134.5,260.4531 " fill="#F5D76E" style="stroke: #5A4319; stroke-width: 1.5;"/><path d="M134.5,260.4531 C134.5,270.4531 188,270.4531 188,270.4531 C188,270.4531 241.5,270.4531 241.5,260.4531 " fill="none" style="stroke: #5A4319; stroke-width: 1.5;"/><text fill="#111111" font-family="Helvetica" font-size="14" lengthAdjust="spacingAndGlyphs" textLength="87" x="144.5" y="287.4482">Specification</text><!--MD5=[4cc95f85745661d7fbe872bf21a1bbc7]
entity PCQueue--><path d="M69.5,429.4531 C69.5,419.4531 113,419.4531 113,419.4531 C113,419.4531 156.5,419.4531 156.5,429.4531 L156.5,471.0469 C156.5,481.0469 113,481.0469 113,481.0469 C113,481.0469 69.5,481.0469 69.5,471.0469 L69.5,429.4531 " fill="#F5EAD5" style="stroke: #5A4319; stroke-width: 1.5;"/><path d="M69.5,429.4531 C69.5,439.4531 113,439.4531 113,439.4531 C113,439.4531 156.5,439.4531 156.5,429.4531 " fill="none" style="stroke: #5A4319; stroke-width: 1.5;"/><text fill="#111111" font-family="Helvetica" font-size="14" lengthAdjust="spacingAndGlyphs" textLength="67" x="79.5" y="456.4482">Proposed</text><text fill="#111111" font-family="Helvetica" font-size="14" lengthAdjust="spacingAndGlyphs" textLength="62" x="79.5" y="472.7451">Changes</text><!--MD5=[99a8f7b7d62222417991320410ebdaf2]
entity History--><path d="M123.5,620.4531 C123.5,610.4531 177,610.4531 177,610.4531 C177,610.4531 230.5,610.4531 230.5,620.4531 L230.5,662.0469 C230.5,672.0469 177,672.0469 177,672.0469 C177,672.0469 123.5,672.0469 123.5,662.0469 L123.5,620.4531 " fill="#F5EAD5" style="stroke: #5A4319; stroke-width: 1.5;"/><path d="M123.5,620.4531 C123.5,630.4531 177,630.4531 177,630.4531 C177,630.4531 230.5,630.4531 230.5,620.4531 " fill="none" style="stroke: #5A4319; stroke-width: 1.5;"/><text fill="#111111" font-family="Helvetica" font-size="14" lengthAdjust="spacingAndGlyphs" textLength="87" x="133.5" y="647.4482">Specification</text><text fill="#111111" font-family="Helvetica" font-size="14" lengthAdjust="spacingAndGlyphs" textLength="47" x="133.5" y="663.7451">History</text><!--MD5=[6a9f75428dc2b6ef837c0907c1779616]
entity CaptureImplGaps--><rect fill="#D6E6F5" height="52.5938" rx="4" ry="4" style="stroke: #1F4768; stroke-width: 1.5;" width="88" x="495" y="423.9531"/><text fill="#111111" font-family="Helvetica" font-size="14" lengthAdjust="spacingAndGlyphs" textLength="55" x="505" y="446.9482">Capture</text><text fill="#111111" font-family="Helvetica" font-size="14" lengthAdjust="spacingAndGlyphs" textLength="68" x="505" y="463.2451">Impl Gaps</text><!--MD5=[e9a3c193e574dfa8de98f101b71d6a61]
entity CaptureWorkItem--><rect fill="#D6E6F5" height="52.5938" rx="4" ry="4" style="stroke: #1F4768; stroke-width: 1.5;" width="89" x="390.5" y="423.9531"/><text fill="#111111" font-family="Helvetica" font-size="14" lengthAdjust="spacingAndGlyphs" textLength="55" x="400.5" y="446.9482">Capture</text><text fill="#111111" font-family="Helvetica" font-size="14" lengthAdjust="spacingAndGlyphs" textLength="69" x="400.5" y="463.2451">Work Item</text><!--MD5=[74a2a13639c756e3324faac020ef6e7d]
entity Implement--><rect fill="#D6E6F5" height="36.2969" rx="4" ry="4" style="stroke: #1F4768; stroke-width: 1.5;" width="93" x="460.5" y="623.4531"/><text fill="#111111" font-family="Helvetica" font-size="14" lengthAdjust="spacingAndGlyphs" textLength="73" x="470.5" y="646.4482">Implement</text><!--MD5=[c1efa0f0c0c85b9a5e73fcadb364593e]
entity CaptureSpecDrift--><rect fill="#D6E6F5" height="52.5938" rx="4" ry="4" style="stroke: #1F4768; stroke-width: 1.5;" width="87" x="485.5" y="785.9531"/><text fill="#111111" font-family="Helvetica" font-size="14" lengthAdjust="spacingAndGlyphs" textLength="55" x="495.5" y="808.9482">Capture</text><text fill="#111111" font-family="Helvetica" font-size="14" lengthAdjust="spacingAndGlyphs" textLength="67" x="495.5" y="825.2451">Spec Drift</text><!--MD5=[4d8b149103de154d2d36dbc14fb1ec50]
entity CaptureMemo--><rect fill="#D6E6F5" height="52.5938" rx="4" ry="4" style="stroke: #1F4768; stroke-width: 1.5;" width="75" x="297.5" y="246.4531"/><text fill="#111111" font-family="Helvetica" font-size="14" lengthAdjust="spacingAndGlyphs" textLength="55" x="307.5" y="269.4482">Capture</text><text fill="#111111" font-family="Helvetica" font-size="14" lengthAdjust="spacingAndGlyphs" textLength="43" x="307.5" y="285.7451">Memo</text><!--MD5=[38c3dd3a596b244014464f502c88eff1]
entity ProcessMemos--><rect fill="#D6E6F5" height="52.5938" rx="4" ry="4" style="stroke: #1F4768; stroke-width: 1.5;" width="76" x="298" y="423.9531"/><text fill="#111111" font-family="Helvetica" font-size="14" lengthAdjust="spacingAndGlyphs" textLength="56" x="308" y="446.9482">Process</text><text fill="#111111" font-family="Helvetica" font-size="14" lengthAdjust="spacingAndGlyphs" textLength="51" x="308" y="463.2451">Memos</text><!--MD5=[77c2cd5fbd0db322139e34716aca4f0c]
entity SpecReader--><rect fill="#E0D4EC" height="52.5938" style="stroke: #5A3A72; stroke-width: 1.5;" width="70" x="417" y="326.4531"/><rect fill="#E0D4EC" height="5" style="stroke: #5A3A72; stroke-width: 1.5;" width="10" x="412" y="331.4531"/><rect fill="#E0D4EC" height="5" style="stroke: #5A3A72; stroke-width: 1.5;" width="10" x="412" y="369.0469"/><text fill="#111111" font-family="Helvetica" font-size="14" lengthAdjust="spacingAndGlyphs" textLength="35" x="427" y="349.4482">Spec</text><text fill="#111111" font-family="Helvetica" font-size="14" lengthAdjust="spacingAndGlyphs" textLength="50" x="427" y="365.7451">Reader</text><!--MD5=[d4fd7068178ba922b82960301783db7d]
entity Impl--><path d="M465.5,709.4531 C465.5,699.4531 529,699.4531 529,699.4531 C529,699.4531 592.5,699.4531 592.5,709.4531 L592.5,734.75 C592.5,744.75 529,744.75 529,744.75 C529,744.75 465.5,744.75 465.5,734.75 L465.5,709.4531 " fill="#F5D76E" style="stroke: #5A4319; stroke-width: 1.5;"/><path d="M465.5,709.4531 C465.5,719.4531 529,719.4531 529,719.4531 C529,719.4531 592.5,719.4531 592.5,709.4531 " fill="none" style="stroke: #5A4319; stroke-width: 1.5;"/><text fill="#111111" font-family="Helvetica" font-size="14" lengthAdjust="spacingAndGlyphs" textLength="107" x="475.5" y="736.4482">Implementation</text><!--MD5=[fa81577849114cbf168f391a566a9b63]
entity WorkItems--><path d="M456.5,539.9531 C456.5,529.9531 505,529.9531 505,529.9531 C505,529.9531 553.5,529.9531 553.5,539.9531 L553.5,565.25 C553.5,575.25 505,575.25 505,575.25 C505,575.25 456.5,575.25 456.5,565.25 L456.5,539.9531 " fill="#F5EAD5" style="stroke: #5A4319; stroke-width: 1.5;"/><path d="M456.5,539.9531 C456.5,549.9531 505,549.9531 505,549.9531 C505,549.9531 553.5,549.9531 553.5,539.9531 " fill="none" style="stroke: #5A4319; stroke-width: 1.5;"/><text fill="#111111" font-family="Helvetica" font-size="14" lengthAdjust="spacingAndGlyphs" textLength="77" x="466.5" y="566.9482">Work Items</text><!--MD5=[1c5e44e491cf6497969a38cc571a845e]
entity Memos--><path d="M299.5,340.4531 C299.5,330.4531 335,330.4531 335,330.4531 C335,330.4531 370.5,330.4531 370.5,340.4531 L370.5,365.75 C370.5,375.75 335,375.75 335,375.75 C335,375.75 299.5,375.75 299.5,365.75 L299.5,340.4531 " fill="#F5EAD5" style="stroke: #5A4319; stroke-width: 1.5;"/><path d="M299.5,340.4531 C299.5,350.4531 335,350.4531 335,350.4531 C335,350.4531 370.5,350.4531 370.5,340.4531 " fill="none" style="stroke: #5A4319; stroke-width: 1.5;"/><text fill="#111111" font-family="Helvetica" font-size="14" lengthAdjust="spacingAndGlyphs" textLength="51" x="309.5" y="367.4482">Memos</text><!--MD5=[cd20a034834c6e5d1841e96140da69e2]
entity AgentKnowledge--><path d="M298,531.4531 C298,521.4531 369,521.4531 369,521.4531 C369,521.4531 440,521.4531 440,531.4531 L440,573.0469 C440,583.0469 369,583.0469 369,583.0469 C369,583.0469 298,583.0469 298,573.0469 L298,531.4531 " fill="#F5D76E" style="stroke: #5A4319; stroke-width: 1.5;"/><path d="M298,531.4531 C298,541.4531 369,541.4531 369,541.4531 C369,541.4531 440,541.4531 440,531.4531 " fill="none" style="stroke: #5A4319; stroke-width: 1.5;"/><text fill="#111111" font-family="Helvetica" font-size="14" lengthAdjust="spacingAndGlyphs" textLength="70" x="308" y="558.4482">Persistent</text><text fill="#111111" font-family="Helvetica" font-size="14" lengthAdjust="spacingAndGlyphs" textLength="122" x="308" y="574.7451">Agent Knowledge</text><!--MD5=[1e9204083aa66e691856924869ece9f5]
entity Input--><rect fill="#FFFACC" height="52.5938" rx="4" ry="4" style="stroke: #1F4768; stroke-width: 1.5;" width="204" x="86" y="29.4531"/><text fill="#111111" font-family="Helvetica" font-size="14" lengthAdjust="spacingAndGlyphs" textLength="87" x="96" y="52.4482">initial intent /</text><text fill="#111111" font-family="Helvetica" font-size="14" lengthAdjust="spacingAndGlyphs" textLength="184" x="96" y="68.7451">prompt / instruction / seed</text><!--MD5=[e38a78e35415c081adbe3d821d0b148b]
link Input to Seed--><path d="M188,82.4631 C188,100.3131 188,123.9231 188,141.0431 " fill="none" id="Input-&gt;Seed" style="stroke: #000000; stroke-width: 1.3;"/><polygon fill="#000000" points="188,146.1331,192,137.1331,188,141.1331,184,137.1331,188,146.1331" style="stroke: #000000; stroke-width: 1.3;"/><!--MD5=[79b56c54669e1e209294348a48d118fe]
link Seed to Spec--><path d="M188,182.5631 C188,199.4031 188,225.3731 188,244.9931 " fill="none" id="Seed-&gt;Spec" style="stroke: #000000; stroke-width: 1.3;"/><polygon fill="#000000" points="188,250.0831,192,241.0831,188,245.0831,184,241.0831,188,250.0831" style="stroke: #000000; stroke-width: 1.3;"/><!--MD5=[6aed50f60f52d38e3c9589f0bac08744]
link Propose to PCQueue--><path d="M99.82,379.5431 C101.83,390.1831 104.19,402.7031 106.35,414.1931 " fill="none" id="Propose-&gt;PCQueue" style="stroke: #000000; stroke-width: 1.3;"/><polygon fill="#000000" points="107.33,419.3831,109.5894,409.7969,106.4017,414.4701,101.7285,411.2823,107.33,419.3831" style="stroke: #000000; stroke-width: 1.3;"/><!--MD5=[a69e2db2c58186bdfbdd2106032d7638]
link PCQueue to Revise--><path d="M117.2,481.4531 C119.35,496.8231 121.93,515.2231 123.9,529.2931 " fill="none" id="PCQueue-&gt;Revise" style="stroke: #000000; stroke-width: 1.3;"/><polygon fill="#000000" points="124.59,534.2631,127.3153,524.7989,123.9029,529.3106,119.3912,525.8981,124.59,534.2631" style="stroke: #000000; stroke-width: 1.3;"/><!--MD5=[f8978627cb19ac31d7c0ec0d2ea4869c]
link Revise to Spec--><path d="M137.98,534.2131 C146.37,520.3931 157.7,500.2731 165,481.4531 C179.73,443.4631 158.75,421.8231 187,392.4531 C201.43,377.4531 219.49,396.0931 232,379.4531 C246.16,360.6231 240.05,348.5931 232,326.4531 C228.4,316.5631 222.03,307.2331 215.24,299.2631 " fill="none" id="Revise-&gt;Spec" style="stroke: #000000; stroke-width: 1.3;"/><polygon fill="#000000" points="211.88,295.4631,214.8518,304.8529,215.1947,299.2065,220.8412,299.5494,211.88,295.4631" style="stroke: #000000; stroke-width: 1.3;"/><!--MD5=[07bc2658038b75836dd6c06689447504]
link Revise to History--><path d="M136.88,570.6431 C142.66,580.6931 150.16,593.7531 157.12,605.8531 " fill="none" id="Revise-&gt;History" style="stroke: #000000; stroke-width: 1.3;"/><polygon fill="#000000" points="159.65,610.2631,158.6265,600.4676,157.1555,605.9298,151.6933,604.4588,159.65,610.2631" style="stroke: #000000; stroke-width: 1.3;"/><!--MD5=[2c995db2faed80d07edb84013ad27120]
link Spec to Critique--><path d="M187.72,295.6831 C187.59,306.2131 187.42,318.8631 187.29,329.4931 " fill="none" id="Spec-&gt;Critique" style="stroke: #000000; stroke-width: 1.3;"/><polygon fill="#000000" points="187.22,334.5331,191.3226,325.5794,187.2771,329.5335,183.3231,325.488,187.22,334.5331" style="stroke: #000000; stroke-width: 1.3;"/><!--MD5=[18d5bc04b48706048bc504d5ed50186f]
link Critique to PCQueue--><path d="M173.77,371.0231 C164.27,383.2831 151.14,400.2231 139.52,415.2231 " fill="none" id="Critique-&gt;PCQueue" style="stroke: #000000; stroke-width: 1.3;"/><polygon fill="#000000" points="136.29,419.3931,144.9659,414.7316,139.3538,415.4417,138.6436,409.8296,136.29,419.3931" style="stroke: #000000; stroke-width: 1.3;"/><!--MD5=[29c2b6ec2f05da293fae6f93ae2f3ebb]
link Spec to Doctor--><path d="M134.31,279.2931 C103.58,285.4131 67.37,298.5031 48,326.4531 C5.55,387.7131 75.55,625.0331 98.86,698.8831 " fill="none" id="Spec-&gt;Doctor" style="stroke: #000000; stroke-width: 1.3;"/><polygon fill="#000000" points="100.46,703.9131,101.5417,694.1238,98.9434,699.1487,93.9186,696.5504,100.46,703.9131" style="stroke: #000000; stroke-width: 1.3;"/><!--MD5=[f0a82dc77730f883730a6bf29f010c28]
link History to Doctor--><path d="M149.75,672.5831 C141.55,681.6431 132.73,691.4031 125.17,699.7531 " fill="none" id="History-&gt;Doctor" style="stroke: #000000; stroke-width: 1.3;"/><polygon fill="#000000" points="121.57,703.7331,130.58,699.7557,124.9298,700.0302,124.6553,694.38,121.57,703.7331" style="stroke: #000000; stroke-width: 1.3;"/><!--MD5=[91940960ab9a8ef2543312077fc81051]
link Spec to SpecReader--><path d="M241.8,287.6931 C280.22,297.7631 333.04,312.1231 379,326.4531 C389.78,329.8131 401.36,333.7231 412.05,337.4431 " fill="none" id="Spec-&gt;SpecReader" style="stroke: #A02020; stroke-width: 2.0;"/><polygon fill="#A02020" points="416.89,339.1431,409.7258,332.3849,412.1729,337.485,407.0728,339.9322,416.89,339.1431" style="stroke: #A02020; stroke-width: 2.0;"/><!--MD5=[cc6e026262854799f1999c4ed6df1d11]
link History to SpecReader--><path d="M226.85,610.3931 C236.38,602.6631 245.43,593.6131 252,583.4531 C292.65,520.6331 241.39,476.3331 290,419.4531 C298.37,409.6631 366.91,384.0431 412.12,367.8931 " fill="none" id="History-&gt;SpecReader" style="stroke: #A02020; stroke-width: 2.0;"/><polygon fill="#A02020" points="416.97,366.1731,407.15,365.4199,412.259,367.8485,409.8305,372.9575,416.97,366.1731" style="stroke: #A02020; stroke-width: 2.0;"/><!--MD5=[87c5647e103f71076a1ac8e6026068d6]
link SpecReader to CaptureImplGaps--><path d="M475.31,379.5431 C486.63,391.9631 500.28,406.9531 512.04,419.8531 " fill="none" id="SpecReader-&gt;CaptureImplGaps" style="stroke: #000000; stroke-width: 1.3;"/><polygon fill="#000000" points="515.62,423.7931,512.5149,414.4465,512.2524,420.0973,506.6016,419.8347,515.62,423.7931" style="stroke: #000000; stroke-width: 1.3;"/><!--MD5=[1c9f500e8600a7e577be480fe54b4696]
link SpecReader to CaptureSpecDrift--><path d="M487.2,358.3831 C535.93,366.7031 618,389.6031 618,449.4531 C618,449.4531 618,449.4531 618,722.9531 C618,749.4031 597.98,770.6731 576.94,785.7231 " fill="none" id="SpecReader-&gt;CaptureSpecDrift" style="stroke: #000000; stroke-width: 1.3;"/><polygon fill="#000000" points="572.72,788.6531,582.3982,786.8277,576.8335,785.8108,577.8505,780.2461,572.72,788.6531" style="stroke: #000000; stroke-width: 1.3;"/><!--MD5=[01b2663ddf8e9bf2d401aac47d4bd1b0]
link SpecReader to Implement--><path d="M487.27,359.6831 C520.47,367.1431 568.35,383.7431 591,419.4531 C630.64,481.9631 598.92,519.3031 562,583.4531 C554.18,597.0431 542.42,609.8331 531.78,619.8331 " fill="none" id="SpecReader-&gt;Implement" style="stroke: #000000; stroke-width: 1.3;"/><polygon fill="#000000" points="527.91,623.3931,537.2379,620.2323,531.5857,620.0035,531.8145,614.3513,527.91,623.3931" style="stroke: #000000; stroke-width: 1.3;"/><!--MD5=[bc5513d052cd97296c1e6cf2270d66af]
link SpecReader to ProcessMemos--><path d="M420.91,379.5431 C405.57,392.1731 387,407.4631 371.14,420.5231 " fill="none" id="SpecReader-&gt;ProcessMemos" style="stroke: #000000; stroke-width: 1.3;"/><polygon fill="#000000" points="367.17,423.7931,376.6623,421.1669,371.0321,420.6176,371.5814,414.9875,367.17,423.7931" style="stroke: #000000; stroke-width: 1.3;"/><!--MD5=[5960638c29276b056e2fb13f5f21c00f]
link Impl to CaptureImplGaps--><path d="M547.84,699.2331 C553.54,691.3331 559.06,681.9931 562,672.4531 C581.75,608.3131 572.61,587.7231 562,521.4531 C559.89,508.3031 555.7,494.2631 551.46,482.2431 " fill="none" id="Impl-&gt;CaptureImplGaps" style="stroke: #000000; stroke-width: 1.3;"/><polygon fill="#000000" points="549.64,477.2231,548.9397,487.0471,551.3407,481.925,556.4627,484.326,549.64,477.2231" style="stroke: #000000; stroke-width: 1.3;"/><!--MD5=[3d15f5400bfec243f8ab65edd28a9dbb]
link CaptureImplGaps to WorkItems--><path d="M530.24,477.2031 C525.26,491.8631 519.03,510.2031 514,524.9831 " fill="none" id="CaptureImplGaps-&gt;WorkItems" style="stroke: #000000; stroke-width: 1.3;"/><polygon fill="#000000" points="512.35,529.8431,519.0432,522.6181,513.9654,525.1113,511.4722,520.0335,512.35,529.8431" style="stroke: #000000; stroke-width: 1.3;"/><!--MD5=[2aab1c731a56da689dc18e63568dc023]
link WorkItems to Implement--><path d="M500.24,574.9631 C499.57,588.1031 499.94,604.8931 501.17,618.1831 " fill="none" id="WorkItems-&gt;Implement" style="stroke: #000000; stroke-width: 1.3;"/><polygon fill="#000000" points="501.71,623.2731,504.736,613.9007,501.1814,618.3011,496.7809,614.7465,501.71,623.2731" style="stroke: #000000; stroke-width: 1.3;"/><!--MD5=[c017db10e1d74bf134a477058a6c34f9]
link Implement to WorkItems--><path d="M511.5,623.2731 C512.41,610.9331 512.25,594.0631 511.19,580.0031 " fill="none" id="Implement-&gt;WorkItems" style="stroke: #000000; stroke-width: 1.3;"/><polygon fill="#000000" points="510.75,574.9631,507.5378,584.2734,511.1794,579.9446,515.5082,583.5863,510.75,574.9631" style="stroke: #000000; stroke-width: 1.3;"/><!--MD5=[b2585690133698ee634fbdabdb866ddf]
link Implement to Impl--><path d="M511.77,659.4831 C514.63,669.6631 518.31,682.8231 521.54,694.3431 " fill="none" id="Implement-&gt;Impl" style="stroke: #000000; stroke-width: 1.3;"/><polygon fill="#000000" points="522.9,699.1731,524.3348,689.4293,521.5566,694.357,516.629,691.5788,522.9,699.1731" style="stroke: #000000; stroke-width: 1.3;"/><!--MD5=[de0551c742578638eead7a66382e9846]
link CaptureWorkItem to WorkItems--><path d="M477.51,477.0931 C483.42,482.2031 488.87,488.0131 493,494.4531 C498.72,503.3731 501.77,514.5331 503.37,524.6131 " fill="none" id="CaptureWorkItem-&gt;WorkItems" style="stroke: #000000; stroke-width: 1.3;"/><polygon fill="#000000" points="504.09,529.7631,506.8191,520.2999,503.4049,524.8103,498.8945,521.3961,504.09,529.7631" style="stroke: #000000; stroke-width: 1.3;"/><!--MD5=[b5d618f00e26d8a6affcaa8f88949f81]
link Impl to CaptureSpecDrift--><path d="M529,744.8331 C529,755.5731 529,768.7031 529,780.4531 " fill="none" id="Impl-&gt;CaptureSpecDrift" style="stroke: #000000; stroke-width: 1.3;"/><polygon fill="#000000" points="529,785.7431,533,776.7431,529,780.7431,525,776.7431,529,785.7431" style="stroke: #000000; stroke-width: 1.3;"/><!--MD5=[9529e34aeb4698c65548104dd048aaa7]
link CaptureSpecDrift to Propose--><path d="M485.45,810.8831 C384.46,808.9531 137.35,800.5331 64,763.9531 C41.77,752.8631 26,747.8031 26,722.9531 C26,449.4531 26,449.4531 26,449.4531 C26,423.9731 42.34,400.6731 59.12,383.4731 " fill="none" id="CaptureSpecDrift-&gt;Propose" style="stroke: #A02020; stroke-width: 2.0;"/><polygon fill="#A02020" points="62.92,379.6731,53.7205,383.1901,59.3773,383.2015,59.3659,388.8584,62.92,379.6731" style="stroke: #A02020; stroke-width: 2.0;"/><!--MD5=[6de597d6f2c3b5db7bb29adef1fe1ed9]
link CaptureMemo to Memos--><path d="M335,299.4931 C335,307.7331 335,316.8931 335,325.2131 " fill="none" id="CaptureMemo-&gt;Memos" style="stroke: #000000; stroke-width: 1.3;"/><polygon fill="#000000" points="335,330.2731,339,321.2731,335,325.2731,331,321.2731,335,330.2731" style="stroke: #000000; stroke-width: 1.3;"/><!--MD5=[436c56898a2138351dd1a7842b69aa77]
link Memos to ProcessMemos--><path d="M335.23,375.6231 C335.36,388.3631 335.53,404.6831 335.68,418.7331 " fill="none" id="Memos-&gt;ProcessMemos" style="stroke: #000000; stroke-width: 1.3;"/><polygon fill="#000000" points="335.73,423.8031,339.6269,414.758,335.6729,418.8035,331.6274,414.8494,335.73,423.8031" style="stroke: #000000; stroke-width: 1.3;"/><!--MD5=[f356670c5009cefe28fd37f9494e61d8]
link ProcessMemos to WorkItems--><path d="M374.19,475.8931 C377.17,477.7831 380.13,479.6531 383,481.4531 C392.29,487.2931 394.83,488.4131 404,494.4531 C413.06,500.4231 414.75,502.7831 424,508.4531 C425.92,509.6331 442.04,518.2031 459.39,527.3831 " fill="none" id="ProcessMemos-&gt;WorkItems" style="stroke: #000000; stroke-width: 1.3;"/><polygon fill="#000000" points="463.82,529.7331,457.7455,521.9807,459.4035,527.3891,453.9951,529.0471,463.82,529.7331" style="stroke: #000000; stroke-width: 1.3;"/><text fill="#000000" font-family="Helvetica" font-size="11" lengthAdjust="spacingAndGlyphs" textLength="63" x="425" y="505.6636">impl-bound</text><!--MD5=[e81cbb5d45e320851ca1117dd08a4ab5]
link ProcessMemos to AgentKnowledge--><path d="M337.49,477.2031 C338.61,487.1631 340.57,498.5331 344,508.4531 C344.92,511.1031 346,513.7731 347.2,516.4231 " fill="none" id="ProcessMemos-&gt;AgentKnowledge" style="stroke: #000000; stroke-width: 1.3;"/><polygon fill="#000000" points="349.47,521.1431,349.1612,511.2991,347.2971,516.64,341.9562,514.7758,349.47,521.1431" style="stroke: #000000; stroke-width: 1.3;"/><text fill="#000000" font-family="Helvetica" font-size="11" lengthAdjust="spacingAndGlyphs" textLength="58" x="345" y="505.6636">persistent</text><!--MD5=[bcae832c572b10c0086a5dbd5f75426b]
link ProcessMemos to Propose--><path d="M297.63,435.3731 C283.88,430.3331 268.25,424.6231 254,419.4531 C204.71,401.5531 190.94,400.6931 143,379.4531 C141.63,378.8431 140.24,378.2131 138.84,377.5631 " fill="none" id="ProcessMemos-&gt;Propose" style="stroke: #A02020; stroke-width: 2.0;"/><polygon fill="#A02020" points="134.07,375.2931,140.4852,382.7661,138.5869,377.4372,143.9158,375.539,134.07,375.2931" style="stroke: #A02020; stroke-width: 2.0;"/><text fill="#000000" font-family="Helvetica" font-size="11" lengthAdjust="spacingAndGlyphs" textLength="66" x="216" y="403.6636">spec-bound</text><!--MD5=[4bd81d533c6cf9321431b9aefcac2dfd]
link Memos to Doctor--><path d="M299.42,365.1531 C263.44,376.4831 213.1,392.3531 213,392.4531 C153.66,456.3731 221.58,514.6431 168,583.4531 C152,604.0031 130.51,588.8331 116,610.4531 C98.44,636.6231 99.24,674.4831 102.11,698.3931 " fill="none" id="Memos-&gt;Doctor" style="stroke: #A02020; stroke-width: 2.0;"/><polygon fill="#A02020" points="102.78,703.5731,105.5626,694.1255,102.1229,698.6165,97.632,695.1768,102.78,703.5731" style="stroke: #A02020; stroke-width: 2.0;"/><text fill="#000000" font-family="Helvetica" font-size="11" lengthAdjust="spacingAndGlyphs" textLength="54" x="191" y="556.6636">untriaged</text><!--MD5=[37eacbc589ac489eae9a15bcc858e1d2]
@startuml draft-tool-agnostic-workflow
title Tool-Agnostic Workflow — Spec / Implementation Lifecycle (DRAFT v8)


skinparam defaultFontName Helvetica
skinparam shadowing false
skinparam BackgroundColor #fafafa
skinparam ArrowColor #000000
skinparam ArrowFontColor #000000
skinparam ArrowFontSize 11
skinparam ArrowThickness 1.3
skinparam nodesep 16
skinparam ranksep 26
hide stereotype

skinparam package {
  FontColor #111
  FontSize 13
  FontStyle bold
  BorderColor #444
  BorderThickness 2
}

skinparam rectangle {
  BackgroundColor #d6e6f5
  BorderColor #1f4768
  FontColor #111
  RoundCorner 8
}

skinparam database {
  BackgroundColor #f5ead5
  BorderColor #5a4319
  FontColor #111
}

skinparam component {
  BackgroundColor #e0d4ec
  BorderColor #5a3a72
  FontColor #111
}


rectangle "initial intent /\nprompt / instruction / seed" as Input #fffacc


package "SPEC SIDE" as SpecPkg #fde8ec {
  rectangle "Seed" as Seed
  rectangle "Propose\nChange" as Propose
  rectangle "Critique" as Critique
  rectangle "Revise" as Revise
  rectangle "Doctor" as Doctor

  database "Specification" as Spec #f5d76e
  database "Proposed\nChanges" as PCQueue
  database "Specification\nHistory" as History
}


package "IMPLEMENTATION SIDE" as ImplPkg #e3f0e3 {
  rectangle "Capture\nImpl Gaps" as CaptureImplGaps
  rectangle "Capture\nWork Item" as CaptureWorkItem
  rectangle "Implement" as Implement
  rectangle "Capture\nSpec Drift" as CaptureSpecDrift
  rectangle "Capture\nMemo" as CaptureMemo
  rectangle "Process\nMemos" as ProcessMemos

  component "Spec\nReader" as SpecReader

  database "Implementation" as Impl #f5d76e
  database "Work Items" as WorkItems
  database "Memos" as Memos
  database "Persistent\nAgent Knowledge" as AgentKnowledge #f5d76e
}


Input - -> Seed

Seed - -> Spec
Propose - -> PCQueue
PCQueue - -> Revise
Revise - -> Spec
Revise - -> History
Spec - -> Critique
Critique - -> PCQueue
Spec - -> Doctor
History - -> Doctor

Spec -[#a02020,thickness=2]-> SpecReader
History -[#a02020,thickness=2]-> SpecReader

SpecReader - -> CaptureImplGaps
SpecReader - -> CaptureSpecDrift
SpecReader - -> Implement
SpecReader - -> ProcessMemos

Impl - -> CaptureImplGaps
CaptureImplGaps - -> WorkItems
WorkItems - -> Implement
Implement - -> Impl
Implement - -> WorkItems

CaptureWorkItem - -> WorkItems

Impl - -> CaptureSpecDrift

CaptureSpecDrift -[#a02020,thickness=2]-> Propose

CaptureMemo - -> Memos
Memos - -> ProcessMemos
ProcessMemos - -> WorkItems : impl-bound
ProcessMemos - -> AgentKnowledge : persistent

ProcessMemos -[#a02020,thickness=2]-> Propose : spec-bound

Memos -[#a02020,thickness=2]-> Doctor : untriaged

@enduml

PlantUML version 1.2020.02(Sun Mar 01 11:22:07 CET 2020)
(GPL source distribution)
Java Runtime: OpenJDK Runtime Environment
JVM: OpenJDK 64-Bit Server VM
Java Version: 21.0.10+7-Ubuntu-125.10
Operating System: Linux
Default Encoding: UTF-8
Language: en
Country: null
--></g></svg>