<?xml version="1.0" encoding="UTF-8" standalone="no"?><svg xmlns="http://www.w3.org/2000/svg" xmlns:xlink="http://www.w3.org/1999/xlink" contentScriptType="application/ecmascript" contentStyleType="text/css" height="646px" preserveAspectRatio="none" style="width:2053px;height:646px;background:#FAFAFA;" version="1.1" viewBox="0 0 2053 646" width="2053px" zoomAndPan="magnify"><defs/><g><text fill="#000000" font-family="Helvetica" font-size="18" lengthAdjust="spacingAndGlyphs" textLength="606" x="729.5" y="16.708">Tool-Agnostic Workflow — Spec / Implementation Lifecycle (DRAFT)</text><!--MD5=[781fc4211f0f0711d3811412dad38fe1]
cluster SpecPkg--><polygon fill="#FDE8EC" points="525,44.9531,715,44.9531,722,66.0859,2031,66.0859,2031,293.9531,525,293.9531,525,44.9531" style="stroke: #555555; stroke-width: 1.5;"/><line style="stroke: #555555; stroke-width: 1.5;" x1="525" x2="722" y1="66.0859" y2="66.0859"/><text fill="#111111" font-family="Helvetica" font-size="13" font-weight="bold" lengthAdjust="spacingAndGlyphs" textLength="184" x="529" y="59.02">SPEC SIDE  ▏prescriptive</text><!--MD5=[4d90c78b95395404f4d0684d2e298718]
cluster ImplPkg--><polygon fill="#E3F0E3" points="170,317.9531,445,317.9531,452,339.0859,1654,339.0859,1654,597.9531,170,597.9531,170,317.9531" style="stroke: #555555; stroke-width: 1.5;"/><line style="stroke: #555555; stroke-width: 1.5;" x1="170" x2="452" y1="339.0859" y2="339.0859"/><text fill="#111111" font-family="Helvetica" font-size="13" font-weight="bold" lengthAdjust="spacingAndGlyphs" textLength="269" x="174" y="332.02">IMPLEMENTATION SIDE  ▏descriptive</text><!--MD5=[9a5cf7b5ccfe99a8a50c4f56868c7fc8]
entity Seed--><rect fill="#D6E6F5" height="36.2969" rx="2" ry="2" style="stroke: #3A6A9A; stroke-width: 1.5;" width="56" x="541" y="129.9531"/><text fill="#111111" font-family="Helvetica" font-size="14" lengthAdjust="spacingAndGlyphs" textLength="36" x="551" y="152.9482">Seed</text><!--MD5=[b162903c3f5aa45441033ef018a482dd]
entity Propose--><rect fill="#D6E6F5" height="52.5938" rx="2" ry="2" style="stroke: #3A6A9A; stroke-width: 1.5;" width="78" x="1033.5" y="79.4531"/><text fill="#111111" font-family="Helvetica" font-size="14" lengthAdjust="spacingAndGlyphs" textLength="58" x="1043.5" y="102.4482">Propose</text><text fill="#111111" font-family="Helvetica" font-size="14" lengthAdjust="spacingAndGlyphs" textLength="54" x="1043.5" y="118.7451">Change</text><!--MD5=[5bd62c65b3bf6048be3cb32942b001e5]
entity Critique--><rect fill="#D6E6F5" height="36.2969" rx="2" ry="2" style="stroke: #3A6A9A; stroke-width: 1.5;" width="73" x="1036" y="167.9531"/><text fill="#111111" font-family="Helvetica" font-size="14" lengthAdjust="spacingAndGlyphs" textLength="53" x="1046" y="190.9482">Critique</text><!--MD5=[e9c1fb24a4cd81b1c7322b8f0a98f11d]
entity Revise--><rect fill="#D6E6F5" height="36.2969" rx="2" ry="2" style="stroke: #3A6A9A; stroke-width: 1.5;" width="66" x="1561.5" y="169.9531"/><text fill="#111111" font-family="Helvetica" font-size="14" lengthAdjust="spacingAndGlyphs" textLength="46" x="1571.5" y="192.9482">Revise</text><!--MD5=[5a5d35bcfc46556bdff8e646cc6c81c2]
entity Doctor--><rect fill="#D6E6F5" height="36.2969" rx="2" ry="2" style="stroke: #3A6A9A; stroke-width: 1.5;" width="67" x="1948" y="224.9531"/><text fill="#111111" font-family="Helvetica" font-size="14" lengthAdjust="spacingAndGlyphs" textLength="47" x="1958" y="247.9482">Doctor</text><!--MD5=[e795410d1115affb2dc2318c56ac1958]
entity Prune--><rect fill="#D6E6F5" height="52.5938" rx="2" ry="2" style="stroke: #3A6A9A; stroke-width: 1.5;" width="67" x="1561" y="81.4531"/><text fill="#111111" font-family="Helvetica" font-size="14" lengthAdjust="spacingAndGlyphs" textLength="41" x="1571" y="104.4482">Prune</text><text fill="#111111" font-family="Helvetica" font-size="14" lengthAdjust="spacingAndGlyphs" textLength="47" x="1571" y="120.7451">History</text><!--MD5=[5b0af1a53dfe6ce9d6337a803daa3faf]
entity Spec--><path d="M760,240.4531 C760,230.4531 813.5,230.4531 813.5,230.4531 C813.5,230.4531 867,230.4531 867,240.4531 L867,265.75 C867,275.75 813.5,275.75 813.5,275.75 C813.5,275.75 760,275.75 760,265.75 L760,240.4531 " fill="#F5EAD5" style="stroke: #8A6B3A; stroke-width: 1.5;"/><path d="M760,240.4531 C760,250.4531 813.5,250.4531 813.5,250.4531 C813.5,250.4531 867,250.4531 867,240.4531 " fill="none" style="stroke: #8A6B3A; stroke-width: 1.5;"/><text fill="#111111" font-family="Helvetica" font-size="14" lengthAdjust="spacingAndGlyphs" textLength="87" x="770" y="267.4482">Specification</text><!--MD5=[4cc95f85745661d7fbe872bf21a1bbc7]
entity PCQueue--><path d="M1276.5,131.9531 C1276.5,121.9531 1320,121.9531 1320,121.9531 C1320,121.9531 1363.5,121.9531 1363.5,131.9531 L1363.5,173.5469 C1363.5,183.5469 1320,183.5469 1320,183.5469 C1320,183.5469 1276.5,183.5469 1276.5,173.5469 L1276.5,131.9531 " fill="#F5EAD5" style="stroke: #8A6B3A; stroke-width: 1.5;"/><path d="M1276.5,131.9531 C1276.5,141.9531 1320,141.9531 1320,141.9531 C1320,141.9531 1363.5,141.9531 1363.5,131.9531 " fill="none" style="stroke: #8A6B3A; stroke-width: 1.5;"/><text fill="#111111" font-family="Helvetica" font-size="14" lengthAdjust="spacingAndGlyphs" textLength="67" x="1286.5" y="158.9482">Proposed</text><text fill="#111111" font-family="Helvetica" font-size="14" lengthAdjust="spacingAndGlyphs" textLength="62" x="1286.5" y="175.2451">Changes</text><!--MD5=[99a8f7b7d62222417991320410ebdaf2]
entity History--><path d="M1780,154.9531 C1780,144.9531 1833.5,144.9531 1833.5,144.9531 C1833.5,144.9531 1887,144.9531 1887,154.9531 L1887,196.5469 C1887,206.5469 1833.5,206.5469 1833.5,206.5469 C1833.5,206.5469 1780,206.5469 1780,196.5469 L1780,154.9531 " fill="#F5EAD5" style="stroke: #8A6B3A; stroke-width: 1.5;"/><path d="M1780,154.9531 C1780,164.9531 1833.5,164.9531 1833.5,164.9531 C1833.5,164.9531 1887,164.9531 1887,154.9531 " fill="none" style="stroke: #8A6B3A; stroke-width: 1.5;"/><text fill="#111111" font-family="Helvetica" font-size="14" lengthAdjust="spacingAndGlyphs" textLength="87" x="1790" y="181.9482">Specification</text><text fill="#111111" font-family="Helvetica" font-size="14" lengthAdjust="spacingAndGlyphs" textLength="47" x="1790" y="198.2451">History</text><!--MD5=[df3ae4b75a11c19708516fa9f9246517]
entity CaptureImplDrift--><rect fill="#D6E6F5" height="52.5938" rx="2" ry="2" style="stroke: #3A6A9A; stroke-width: 1.5;" width="80" x="529" y="440.4531"/><text fill="#111111" font-family="Helvetica" font-size="14" lengthAdjust="spacingAndGlyphs" textLength="55" x="539" y="463.4482">Capture</text><text fill="#111111" font-family="Helvetica" font-size="14" lengthAdjust="spacingAndGlyphs" textLength="60" x="539" y="479.7451">Impl Drift</text><!--MD5=[74a2a13639c756e3324faac020ef6e7d]
entity Implement--><rect fill="#D6E6F5" height="36.2969" rx="2" ry="2" style="stroke: #3A6A9A; stroke-width: 1.5;" width="93" x="1026" y="474.9531"/><text fill="#111111" font-family="Helvetica" font-size="14" lengthAdjust="spacingAndGlyphs" textLength="73" x="1036" y="497.9482">Implement</text><!--MD5=[c1efa0f0c0c85b9a5e73fcadb364593e]
entity CaptureSpecDrift--><rect fill="#D6E6F5" height="52.5938" rx="2" ry="2" style="stroke: #3A6A9A; stroke-width: 1.5;" width="87" x="1551" y="386.4531"/><text fill="#111111" font-family="Helvetica" font-size="14" lengthAdjust="spacingAndGlyphs" textLength="55" x="1561" y="409.4482">Capture</text><text fill="#111111" font-family="Helvetica" font-size="14" lengthAdjust="spacingAndGlyphs" textLength="67" x="1561" y="425.7451">Spec Drift</text><!--MD5=[4d8b149103de154d2d36dbc14fb1ec50]
entity CaptureMemo--><rect fill="#D6E6F5" height="52.5938" rx="2" ry="2" style="stroke: #3A6A9A; stroke-width: 1.5;" width="75" x="186" y="520.4531"/><text fill="#111111" font-family="Helvetica" font-size="14" lengthAdjust="spacingAndGlyphs" textLength="55" x="196" y="543.4482">Capture</text><text fill="#111111" font-family="Helvetica" font-size="14" lengthAdjust="spacingAndGlyphs" textLength="43" x="196" y="559.7451">Memo</text><!--MD5=[68d9f8308b3234f377cb47a720a0d9e6]
entity ListMemos--><rect fill="#D6E6F5" height="52.5938" rx="2" ry="2" style="stroke: #3A6A9A; stroke-width: 1.5;" width="71" x="533.5" y="528.4531"/><text fill="#111111" font-family="Helvetica" font-size="14" lengthAdjust="spacingAndGlyphs" textLength="23" x="543.5" y="551.4482">List</text><text fill="#111111" font-family="Helvetica" font-size="14" lengthAdjust="spacingAndGlyphs" textLength="51" x="543.5" y="567.7451">Memos</text><!--MD5=[38c3dd3a596b244014464f502c88eff1]
entity ProcessMemos--><rect fill="#D6E6F5" height="52.5938" rx="2" ry="2" style="stroke: #3A6A9A; stroke-width: 1.5;" width="76" x="531" y="352.4531"/><text fill="#111111" font-family="Helvetica" font-size="14" lengthAdjust="spacingAndGlyphs" textLength="56" x="541" y="375.4482">Process</text><text fill="#111111" font-family="Helvetica" font-size="14" lengthAdjust="spacingAndGlyphs" textLength="51" x="541" y="391.7451">Memos</text><!--MD5=[d4fd7068178ba922b82960301783db7d]
entity Impl--><path d="M1245,475.9531 C1245,465.9531 1320,465.9531 1320,465.9531 C1320,465.9531 1395,465.9531 1395,475.9531 L1395,550.1406 C1395,560.1406 1320,560.1406 1320,560.1406 C1320,560.1406 1245,560.1406 1245,550.1406 L1245,475.9531 " fill="#F5EAD5" style="stroke: #8A6B3A; stroke-width: 1.5;"/><path d="M1245,475.9531 C1245,485.9531 1320,485.9531 1320,485.9531 C1320,485.9531 1395,485.9531 1395,475.9531 " fill="none" style="stroke: #8A6B3A; stroke-width: 1.5;"/><text fill="#111111" font-family="Helvetica" font-size="14" lengthAdjust="spacingAndGlyphs" textLength="107" x="1255" y="502.9482">Implementation</text><text fill="#111111" font-family="Helvetica" font-size="14" lengthAdjust="spacingAndGlyphs" textLength="87" x="1255" y="519.2451">(code, tests,</text><text fill="#111111" font-family="Helvetica" font-size="14" lengthAdjust="spacingAndGlyphs" textLength="83" x="1255" y="535.542">config, infra,</text><text fill="#111111" font-family="Helvetica" font-size="14" lengthAdjust="spacingAndGlyphs" textLength="130" x="1255" y="551.8389">agent instructions)</text><!--MD5=[fa81577849114cbf168f391a566a9b63]
entity WorkItems--><path d="M765,475.4531 C765,465.4531 813.5,465.4531 813.5,465.4531 C813.5,465.4531 862,465.4531 862,475.4531 L862,500.75 C862,510.75 813.5,510.75 813.5,510.75 C813.5,510.75 765,510.75 765,500.75 L765,475.4531 " fill="#F5EAD5" style="stroke: #8A6B3A; stroke-width: 1.5;"/><path d="M765,475.4531 C765,485.4531 813.5,485.4531 813.5,485.4531 C813.5,485.4531 862,485.4531 862,475.4531 " fill="none" style="stroke: #8A6B3A; stroke-width: 1.5;"/><text fill="#111111" font-family="Helvetica" font-size="14" lengthAdjust="spacingAndGlyphs" textLength="77" x="775" y="502.4482">Work Items</text><!--MD5=[1c5e44e491cf6497969a38cc571a845e]
entity Memos--><path d="M322,534.4531 C322,524.4531 357.5,524.4531 357.5,524.4531 C357.5,524.4531 393,524.4531 393,534.4531 L393,559.75 C393,569.75 357.5,569.75 357.5,569.75 C357.5,569.75 322,569.75 322,559.75 L322,534.4531 " fill="#F5EAD5" style="stroke: #8A6B3A; stroke-width: 1.5;"/><path d="M322,534.4531 C322,544.4531 357.5,544.4531 357.5,544.4531 C357.5,544.4531 393,544.4531 393,534.4531 " fill="none" style="stroke: #8A6B3A; stroke-width: 1.5;"/><text fill="#111111" font-family="Helvetica" font-size="14" lengthAdjust="spacingAndGlyphs" textLength="51" x="332" y="561.4482">Memos</text><!--MD5=[cd20a034834c6e5d1841e96140da69e2]
entity AgentKnowledge--><path d="M746,361.9531 C746,351.9531 813.5,351.9531 813.5,351.9531 C813.5,351.9531 881,351.9531 881,361.9531 L881,419.8438 C881,429.8438 813.5,429.8438 813.5,429.8438 C813.5,429.8438 746,429.8438 746,419.8438 L746,361.9531 " fill="#F5EAD5" style="stroke: #8A6B3A; stroke-width: 1.5;"/><path d="M746,361.9531 C746,371.9531 813.5,371.9531 813.5,371.9531 C813.5,371.9531 881,371.9531 881,361.9531 " fill="none" style="stroke: #8A6B3A; stroke-width: 1.5;"/><text fill="#111111" font-family="Helvetica" font-size="14" lengthAdjust="spacingAndGlyphs" textLength="115" x="756" y="388.9482">Persistent Agent</text><text fill="#111111" font-family="Helvetica" font-size="14" lengthAdjust="spacingAndGlyphs" textLength="77" x="756" y="405.2451">Knowledge</text><text fill="#111111" font-family="Helvetica" font-size="14" lengthAdjust="spacingAndGlyphs" textLength="63" x="756" y="421.542">(.ai/*.md)</text><!--MD5=[fee662a292a0353a69bd162820bae93b]
entity User--><ellipse cx="357.5" cy="68.4531" fill="#FFFFFF" rx="8" ry="8" style="stroke: #111111; stroke-width: 1.5;"/><path d="M357.5,76.4531 L357.5,103.4531 M344.5,84.4531 L370.5,84.4531 M357.5,103.4531 L344.5,118.4531 M357.5,103.4531 L370.5,118.4531 " fill="none" style="stroke: #111111; stroke-width: 1.5;"/><text fill="#111111" font-family="Helvetica" font-size="14" lengthAdjust="spacingAndGlyphs" textLength="32" x="341.5" y="133.9482">User</text><!--MD5=[9cb65aab968679016cabe6121c7526ca]
entity Agent--><ellipse cx="26.5" cy="517.4531" fill="#FFFFFF" rx="8" ry="8" style="stroke: #111111; stroke-width: 1.5;"/><path d="M26.5,525.4531 L26.5,552.4531 M13.5,533.4531 L39.5,533.4531 M26.5,552.4531 L13.5,567.4531 M26.5,552.4531 L39.5,567.4531 " fill="none" style="stroke: #111111; stroke-width: 1.5;"/><text fill="#111111" font-family="Helvetica" font-size="14" lengthAdjust="spacingAndGlyphs" textLength="41" x="6" y="582.9482">Agent</text><!--MD5=[5e95e166e00c9e068e13f58d56d13077]
link User to Seed--><path d="M373.7,103.8031 C386.65,108.6231 405.85,115.3931 423,119.9531 C461.3,130.1331 506.2,138.2231 535.78,143.0431 " fill="none" id="User-&gt;Seed" style="stroke: #333333; stroke-width: 1.0;"/><polygon fill="#333333" points="540.76,143.8431,532.5172,138.4528,535.8246,143.042,531.2354,146.3495,540.76,143.8431" style="stroke: #333333; stroke-width: 1.0;"/><text fill="#111111" font-family="Helvetica" font-size="13" lengthAdjust="spacingAndGlyphs" textLength="74" x="424" y="116.02">initial intent</text><!--MD5=[f97fcc04ce69ed847176b855b2ea6ea0]
link User to Propose--><path d="M373.81,97.4631 C444.65,95.3131 747.8,87.2731 996,98.9531 C1006.4,99.4431 1017.57,100.2931 1028.05,101.2431 " fill="none" id="User-&gt;Propose" style="stroke: #333333; stroke-width: 1.0;"/><polygon fill="#333333" points="1033.14,101.7131,1024.5441,96.9058,1028.161,101.2553,1023.8115,104.8722,1033.14,101.7131" style="stroke: #333333; stroke-width: 1.0;"/><text fill="#111111" font-family="Helvetica" font-size="13" lengthAdjust="spacingAndGlyphs" textLength="44" x="655.5" y="74.02">explicit</text><text fill="#111111" font-family="Helvetica" font-size="13" lengthAdjust="spacingAndGlyphs" textLength="47" x="654" y="89.1528">change</text><!--MD5=[0357b5824b0aed4978512d941c811c27]
link Agent to CaptureMemo--><path d="M47.27,546.9531 C78.38,546.9531 139.44,546.9531 180.61,546.9531 " fill="none" id="Agent-&gt;CaptureMemo" style="stroke: #333333; stroke-width: 1.0;"/><polygon fill="#333333" points="185.78,546.9531,176.78,542.9531,180.78,546.9531,176.78,550.9531,185.78,546.9531" style="stroke: #333333; stroke-width: 1.0;"/><text fill="#111111" font-family="Helvetica" font-size="13" lengthAdjust="spacingAndGlyphs" textLength="47" x="92" y="528.02">in-flight</text><text fill="#111111" font-family="Helvetica" font-size="13" lengthAdjust="spacingAndGlyphs" textLength="75" x="78" y="543.1528">observation</text><!--MD5=[79b56c54669e1e209294348a48d118fe]
link Seed to Spec--><path d="M597.35,159.7931 C635.51,176.3131 705.64,206.6831 755.45,228.2531 " fill="none" id="Seed-&gt;Spec" style="stroke: #333333; stroke-width: 1.0;"/><polygon fill="#333333" points="760.21,230.3131,753.5323,223.0737,755.6195,228.3315,750.3617,230.4186,760.21,230.3131" style="stroke: #333333; stroke-width: 1.0;"/><!--MD5=[6aed50f60f52d38e3c9589f0bac08744]
link Propose to PCQueue--><path d="M1111.78,111.0431 C1140.34,115.0431 1180.24,121.0831 1215,127.9531 C1233.57,131.6231 1253.83,136.3331 1271.5,140.6731 " fill="none" id="Propose-&gt;PCQueue" style="stroke: #333333; stroke-width: 1.0;"/><polygon fill="#333333" points="1276.42,141.8831,1268.6421,135.8413,1271.5659,140.6839,1266.7233,143.6077,1276.42,141.8831" style="stroke: #333333; stroke-width: 1.0;"/><!--MD5=[a69e2db2c58186bdfbdd2106032d7638]
link PCQueue to Revise--><path d="M1363.58,158.4231 C1416.55,165.2231 1506.12,176.7331 1556.4,183.1831 " fill="none" id="PCQueue-&gt;Revise" style="stroke: #333333; stroke-width: 1.0;"/><polygon fill="#333333" points="1561.44,183.8331,1553.0147,178.7328,1556.4797,183.2042,1552.0083,186.6692,1561.44,183.8331" style="stroke: #333333; stroke-width: 1.0;"/><!--MD5=[f8978627cb19ac31d7c0ec0d2ea4869c]
link Revise to Spec--><path d="M1561.34,190.6331 C1442.42,200.5631 1026.56,235.2631 872.5,248.1131 " fill="none" id="Revise-&gt;Spec" style="stroke: #333333; stroke-width: 1.0;"/><polygon fill="#333333" points="867.13,248.5631,876.4303,251.8041,872.1128,248.1491,875.7679,243.8316,867.13,248.5631" style="stroke: #333333; stroke-width: 1.0;"/><text fill="#111111" font-family="Helvetica" font-size="13" lengthAdjust="spacingAndGlyphs" textLength="45" x="1159.5" y="216.02">applies</text><!--MD5=[07bc2658038b75836dd6c06689447504]
link Revise to History--><path d="M1627.96,186.3131 C1665.55,184.4031 1728.22,181.2331 1774.31,178.9031 " fill="none" id="Revise-&gt;History" style="stroke: #333333; stroke-width: 1.0;"/><polygon fill="#333333" points="1779.56,178.6331,1770.3659,175.102,1774.5666,178.8907,1770.778,183.0914,1779.56,178.6331" style="stroke: #333333; stroke-width: 1.0;"/><text fill="#111111" font-family="Helvetica" font-size="13" lengthAdjust="spacingAndGlyphs" textLength="66" x="1677" y="177.02">snapshots</text><!--MD5=[2c995db2faed80d07edb84013ad27120]
link Spec to Critique--><path d="M867.13,239.2331 C915.63,226.5931 986.6,208.0831 1030.87,196.5431 " fill="none" id="Spec-&gt;Critique" style="stroke: #333333; stroke-width: 1.0; stroke-dasharray: 7.0,7.0;"/><polygon fill="#333333" points="1035.86,195.2431,1026.1393,193.6596,1031.0239,196.5128,1028.1707,201.3974,1035.86,195.2431" style="stroke: #333333; stroke-width: 1.0;"/><text fill="#111111" font-family="Helvetica" font-size="13" lengthAdjust="spacingAndGlyphs" textLength="58" x="924.5" y="202.02">observes</text><!--MD5=[18d5bc04b48706048bc504d5ed50186f]
link Critique to PCQueue--><path d="M1109.2,181.1531 C1151.93,175.4131 1223.65,165.7731 1271.15,159.3831 " fill="none" id="Critique-&gt;PCQueue" style="stroke: #333333; stroke-width: 1.0;"/><polygon fill="#333333" points="1276.24,158.7031,1266.7846,155.9473,1271.2852,159.3742,1267.8583,163.8749,1276.24,158.7031" style="stroke: #333333; stroke-width: 1.0;"/><text fill="#111111" font-family="Helvetica" font-size="13" lengthAdjust="spacingAndGlyphs" textLength="64" x="1150" y="149.02">findings ⇒</text><text fill="#111111" font-family="Helvetica" font-size="13" lengthAdjust="spacingAndGlyphs" textLength="62" x="1151" y="164.1528">proposals</text><!--MD5=[29c2b6ec2f05da293fae6f93ae2f3ebb]
link Spec to Doctor--><path d="M867.32,253.0931 C903.53,253.1531 952.67,253.1731 996,252.9531 C1364.79,251.0831 1811.26,245.2631 1942.51,243.4731 " fill="none" id="Spec-&gt;Doctor" style="stroke: #333333; stroke-width: 1.0; stroke-dasharray: 7.0,7.0;"/><polygon fill="#333333" points="1947.78,243.4031,1938.7238,239.5321,1942.7805,243.4745,1938.8381,247.5313,1947.78,243.4031" style="stroke: #333333; stroke-width: 1.0;"/><text fill="#111111" font-family="Helvetica" font-size="13" lengthAdjust="spacingAndGlyphs" textLength="58" x="1444" y="245.02">observes</text><!--MD5=[f0a82dc77730f883730a6bf29f010c28]
link History to Doctor--><path d="M1887.21,200.1431 C1905.73,208.6431 1926.13,218.0031 1943.13,225.8031 " fill="none" id="History-&gt;Doctor" style="stroke: #333333; stroke-width: 1.0; stroke-dasharray: 7.0,7.0;"/><polygon fill="#333333" points="1947.83,227.9631,1941.3198,220.5727,1943.286,225.8769,1937.9819,227.8431,1947.83,227.9631" style="stroke: #333333; stroke-width: 1.0;"/><!--MD5=[99cefe05050675266fb88a6170c30a72]
link Prune to History--><path d="M1628.45,117.4131 C1666.25,128.2531 1728.91,146.2331 1774.84,159.4131 " fill="none" id="Prune-&gt;History" style="stroke: #333333; stroke-width: 1.0;"/><polygon fill="#333333" points="1779.79,160.8331,1772.2526,154.4938,1774.9862,159.4463,1770.0337,162.1799,1779.79,160.8331" style="stroke: #333333; stroke-width: 1.0;"/><text fill="#111111" font-family="Helvetica" font-size="13" lengthAdjust="spacingAndGlyphs" textLength="78" x="1671" y="126.02">compresses</text><!--MD5=[72d9307b3c82660b77a8ab75c0a199d8]
link Spec to CaptureImplDrift--><path d="M759.75,268.8631 C721.56,282.8231 671.2,306.6531 639,342.9531 C613.8,371.3631 628.59,390.4231 609,422.9531 C606.26,427.5031 603.02,432.0231 599.6,436.3431 " fill="none" id="Spec-&gt;CaptureImplDrift" style="stroke: #333333; stroke-width: 2.0;"/><polygon fill="#333333" points="596.41,440.2431,605.1978,435.7963,599.57,436.3682,598.998,430.7404,596.41,440.2431" style="stroke: #333333; stroke-width: 2.0;"/><text fill="#111111" font-family="Helvetica" font-size="13" lengthAdjust="spacingAndGlyphs" textLength="75" x="640" y="284.02">prescription</text><!--MD5=[b49b6bab658ee75b4c6a650f7a074aa0]
link Impl to CaptureImplDrift--><path d="M1244.96,519.2531 C1207.28,522.2731 1160.72,525.7131 1119,527.9531 C953.46,536.8531 911.34,539.9731 746,527.9531 C698.22,524.4831 683.76,532.0231 639,514.9531 C627.43,510.5431 615.94,503.7731 605.76,496.7031 " fill="none" id="Impl-&gt;CaptureImplDrift" style="stroke: #333333; stroke-width: 1.0; stroke-dasharray: 7.0,7.0;"/><polygon fill="#333333" points="601.48,493.6631,606.4899,502.1426,605.5525,496.5639,611.1312,495.6265,601.48,493.6631" style="stroke: #333333; stroke-width: 1.0;"/><text fill="#111111" font-family="Helvetica" font-size="13" lengthAdjust="spacingAndGlyphs" textLength="83" x="912" y="531.02">current state</text><!--MD5=[720656fa03757a6dd551b9c09ee855cc]
link CaptureImplDrift to WorkItems--><path d="M609.34,490.1531 C618.75,494.6131 628.99,498.6231 639,500.9531 C678.82,510.2331 725.03,506.0631 759.74,500.0731 " fill="none" id="CaptureImplDrift-&gt;WorkItems" style="stroke: #333333; stroke-width: 1.0;"/><polygon fill="#333333" points="764.78,499.1831,755.221,496.8112,759.8564,500.0537,756.6139,504.689,764.78,499.1831" style="stroke: #333333; stroke-width: 1.0;"/><text fill="#111111" font-family="Helvetica" font-size="13" lengthAdjust="spacingAndGlyphs" textLength="65" x="645" y="497.02">files items</text><!--MD5=[2aab1c731a56da689dc18e63568dc023]
link WorkItems to Implement--><path d="M862.41,497.4931 C877.85,500.1331 895.09,502.6431 911,503.9531 C948.65,507.0531 958.32,506.6831 996,503.9531 C1003.99,503.3731 1012.41,502.4531 1020.62,501.3931 " fill="none" id="WorkItems-&gt;Implement" style="stroke: #333333; stroke-width: 1.0;"/><polygon fill="#333333" points="1025.7,500.7131,1016.2435,497.9609,1020.7455,501.3861,1017.3203,505.8881,1025.7,500.7131" style="stroke: #333333; stroke-width: 1.0;"/><!--MD5=[c017db10e1d74bf134a477058a6c34f9]
link Implement to WorkItems--><path d="M1025.75,492.0631 C981.32,491.2031 913.92,489.8831 867.25,488.9831 " fill="none" id="Implement-&gt;WorkItems" style="stroke: #333333; stroke-width: 1.0;"/><polygon fill="#333333" points="862.24,488.8831,871.1582,493.0623,867.239,488.9831,871.3182,485.0639,862.24,488.8831" style="stroke: #333333; stroke-width: 1.0;"/><text fill="#111111" font-family="Helvetica" font-size="13" lengthAdjust="spacingAndGlyphs" textLength="40" x="933.5" y="486.02">closes</text><!--MD5=[b2585690133698ee634fbdabdb866ddf]
link Implement to Impl--><path d="M1119.1,496.6631 C1152.81,499.4131 1199.57,503.2231 1239.39,506.4631 " fill="none" id="Implement-&gt;Impl" style="stroke: #333333; stroke-width: 1.0;"/><polygon fill="#333333" points="1244.71,506.9031,1236.0721,502.1716,1239.7272,506.4891,1235.4097,510.1441,1244.71,506.9031" style="stroke: #333333; stroke-width: 1.0;"/><text fill="#111111" font-family="Helvetica" font-size="13" lengthAdjust="spacingAndGlyphs" textLength="54" x="1155" y="496.02">changes</text><!--MD5=[b5d618f00e26d8a6affcaa8f88949f81]
link Impl to CaptureSpecDrift--><path d="M1395.24,496.6431 C1433.61,487.0131 1480.71,473.2931 1521,455.9531 C1529.96,452.0931 1539.17,447.3331 1547.89,442.3931 " fill="none" id="Impl-&gt;CaptureSpecDrift" style="stroke: #333333; stroke-width: 1.0; stroke-dasharray: 7.0,7.0;"/><polygon fill="#333333" points="1552.68,439.6431,1542.8845,440.6666,1548.3467,442.1376,1546.8757,447.5999,1552.68,439.6431" style="stroke: #333333; stroke-width: 1.0;"/><text fill="#111111" font-family="Helvetica" font-size="13" lengthAdjust="spacingAndGlyphs" textLength="94" x="1426" y="452.02">observed truth</text><!--MD5=[9ac5b994db1b2c9298cf648e6a8020e5]
link Spec to CaptureSpecDrift--><path d="M867.01,271.1631 C881.26,276.0431 896.7,281.2531 911,285.9531 C1016.37,320.5631 1040.55,337.7431 1149,360.9531 C1291.37,391.4231 1463.47,405.1531 1545.5,410.3131 " fill="none" id="Spec-&gt;CaptureSpecDrift" style="stroke: #333333; stroke-width: 1.0; stroke-dasharray: 7.0,7.0;"/><polygon fill="#333333" points="1550.78,410.6431,1542.0357,406.1113,1545.789,410.3437,1541.5566,414.0969,1550.78,410.6431" style="stroke: #333333; stroke-width: 1.0;"/><text fill="#111111" font-family="Helvetica" font-size="13" lengthAdjust="spacingAndGlyphs" textLength="57" x="1153.5" y="342.02">compare</text><text fill="#111111" font-family="Helvetica" font-size="13" lengthAdjust="spacingAndGlyphs" textLength="47" x="1158.5" y="357.1528">against</text><!--MD5=[6de597d6f2c3b5db7bb29adef1fe1ed9]
link CaptureMemo to Memos--><path d="M261.27,546.9531 C278.41,546.9531 298.86,546.9531 316.4,546.9531 " fill="none" id="CaptureMemo-&gt;Memos" style="stroke: #333333; stroke-width: 1.0;"/><polygon fill="#333333" points="321.74,546.9531,312.74,542.9531,316.74,546.9531,312.74,550.9531,321.74,546.9531" style="stroke: #333333; stroke-width: 1.0;"/><!--MD5=[9321152645a6befed91fdfb44d927bbb]
link Memos to ListMemos--><path d="M393.09,548.2731 C430.24,549.6931 489.18,551.9431 528.22,553.4331 " fill="none" id="Memos-&gt;ListMemos" style="stroke: #333333; stroke-width: 1.0;"/><polygon fill="#333333" points="533.35,553.6331,524.5051,549.3009,528.3535,553.447,524.2073,557.2953,533.35,553.6331" style="stroke: #333333; stroke-width: 1.0;"/><text fill="#111111" font-family="Helvetica" font-size="13" lengthAdjust="spacingAndGlyphs" textLength="51" x="435.5" y="531.02">search /</text><text fill="#111111" font-family="Helvetica" font-size="13" lengthAdjust="spacingAndGlyphs" textLength="34" x="444" y="546.1528">recall</text><!--MD5=[436c56898a2138351dd1a7842b69aa77]
link Memos to ProcessMemos--><path d="M386.75,524.2931 C423.97,494.4531 489.53,441.8831 530.76,408.8131 " fill="none" id="Memos-&gt;ProcessMemos" style="stroke: #333333; stroke-width: 1.0;"/><polygon fill="#333333" points="534.67,405.6731,525.1468,408.1847,530.7698,408.8018,530.1527,414.4249,534.67,405.6731" style="stroke: #333333; stroke-width: 1.0;"/><!--MD5=[f356670c5009cefe28fd37f9494e61d8]
link ProcessMemos to WorkItems--><path d="M607.14,396.9931 C617.42,401.9131 628.62,407.1931 639,411.9531 C679.32,430.4231 725.31,450.5231 759.81,465.4131 " fill="none" id="ProcessMemos-&gt;WorkItems" style="stroke: #333333; stroke-width: 1.0;"/><polygon fill="#333333" points="764.81,467.5731,758.1215,460.3437,760.2165,465.5983,754.9619,467.6933,764.81,467.5731" style="stroke: #333333; stroke-width: 1.0;"/><text fill="#111111" font-family="Helvetica" font-size="13" lengthAdjust="spacingAndGlyphs" textLength="72" x="641.5" y="408.02">impl-bound</text><!--MD5=[e81cbb5d45e320851ca1117dd08a4ab5]
link ProcessMemos to AgentKnowledge--><path d="M607.09,380.7931 C642.48,382.5431 696.74,385.2231 740.61,387.3931 " fill="none" id="ProcessMemos-&gt;AgentKnowledge" style="stroke: #333333; stroke-width: 1.0;"/><polygon fill="#333333" points="745.63,387.6431,736.848,383.1849,740.6366,387.3856,736.4359,391.1742,745.63,387.6431" style="stroke: #333333; stroke-width: 1.0;"/><text fill="#111111" font-family="Helvetica" font-size="13" lengthAdjust="spacingAndGlyphs" textLength="69" x="643" y="364.02">persistent-</text><text fill="#111111" font-family="Helvetica" font-size="13" lengthAdjust="spacingAndGlyphs" textLength="67" x="644" y="379.1528">knowledge</text><!--MD5=[bcae832c572b10c0086a5dbd5f75426b]
link ProcessMemos to Propose--><path d="M580.31,352.3831 C591.45,326.6531 611.38,287.9531 639,262.9531 C754,158.8531 943.39,122.3531 1028.14,110.7831 " fill="none" id="ProcessMemos-&gt;Propose" style="stroke: #333333; stroke-width: 2.0;"/><polygon fill="#333333" points="1033.33,110.0931,1023.8824,107.3106,1028.3734,110.7502,1024.9337,115.2412,1033.33,110.0931" style="stroke: #333333; stroke-width: 2.0;"/><text fill="#111111" font-family="Helvetica" font-size="13" lengthAdjust="spacingAndGlyphs" textLength="75" x="776" y="139.02">spec-bound</text><!--MD5=[9529e34aeb4698c65548104dd048aaa7]
link CaptureSpecDrift to Propose--><path d="M1550.64,397.3231 C1540.92,393.8531 1530.62,390.2331 1521,386.9531 C1356.55,330.9531 1268.03,393.4831 1149,266.9531 C1112.22,227.8531 1145.98,196.3631 1119,149.9531 C1116.29,145.2931 1112.96,140.8131 1109.33,136.6031 " fill="none" id="CaptureSpecDrift-&gt;Propose" style="stroke: #333333; stroke-width: 2.0;"/><polygon fill="#333333" points="1105.93,132.8131,1108.9775,142.1786,1109.2748,136.5296,1114.9239,136.8269,1105.93,132.8131" style="stroke: #333333; stroke-width: 2.0;"/><text fill="#111111" font-family="Helvetica" font-size="13" lengthAdjust="spacingAndGlyphs" textLength="25" x="1307.5" y="318.02">drift</text><text fill="#111111" font-family="Helvetica" font-size="13" lengthAdjust="spacingAndGlyphs" textLength="49" x="1295.5" y="333.1528">findings</text><!--MD5=[848550e741759d2ccc106633b5abdd27]
link Doctor to Memos--><path d="M1977.84,261.0731 C1966.05,338.1731 1915.38,634.9531 1834.5,634.9531 C568,634.9531 568,634.9531 568,634.9531 C502.91,634.9531 434.7,598.4031 394.43,572.4131 " fill="none" id="Doctor-&gt;Memos" style="stroke: #333333; stroke-width: 1.0; stroke-dasharray: 7.0,7.0;"/><polygon fill="#333333" points="390.14,569.6131,395.4951,577.8789,394.3286,572.3436,399.8639,571.1771,390.14,569.6131" style="stroke: #333333; stroke-width: 1.0;"/><text fill="#111111" font-family="Helvetica" font-size="13" lengthAdjust="spacingAndGlyphs" textLength="47" x="1158.5" y="616.02">queries</text><text fill="#111111" font-family="Helvetica" font-size="13" lengthAdjust="spacingAndGlyphs" textLength="61" x="1151.5" y="631.1528">untriaged</text><!--MD5=[9676cbba1fd8261d3062230e0990cb4b]
@startuml draft-tool-agnostic-workflow
title Tool-Agnostic Workflow — Spec / Implementation Lifecycle (DRAFT)


left to right direction


skinparam defaultFontName Helvetica
skinparam shadowing false
skinparam BackgroundColor #fafafa
skinparam ArrowColor #333
skinparam ArrowFontColor #111
skinparam ArrowThickness 1

skinparam package {
  FontColor #111
  FontSize 13
  FontStyle bold
  BorderColor #555
  BorderThickness 2
}

skinparam rectangle {
  BackgroundColor #d6e6f5
  BorderColor #3a6a9a
  FontColor #111
  RoundCorner 4
}

skinparam database {
  BackgroundColor #f5ead5
  BorderColor #8a6b3a
  FontColor #111
}

skinparam actor {
  BackgroundColor #ffffff
  BorderColor #111
  FontColor #111
}


actor "User" as User
actor "Agent" as Agent


package "SPEC SIDE  ▏prescriptive" as SpecPkg #fde8ec {

  rectangle "Seed" as Seed
  rectangle "Propose\nChange" as Propose
  rectangle "Critique" as Critique
  rectangle "Revise" as Revise
  rectangle "Doctor" as Doctor
  rectangle "Prune\nHistory" as Prune

  database "Specification" as Spec
  database "Proposed\nChanges" as PCQueue
  database "Specification\nHistory" as History
}


package "IMPLEMENTATION SIDE  ▏descriptive" as ImplPkg #e3f0e3 {

  rectangle "Capture\nImpl Drift" as CaptureImplDrift
  rectangle "Implement" as Implement
  rectangle "Capture\nSpec Drift" as CaptureSpecDrift
  rectangle "Capture\nMemo" as CaptureMemo
  rectangle "List\nMemos" as ListMemos
  rectangle "Process\nMemos" as ProcessMemos

  database "Implementation\n(code, tests,\nconfig, infra,\nagent instructions)" as Impl
  database "Work Items" as WorkItems
  database "Memos" as Memos
  database "Persistent Agent\nKnowledge\n(.ai/*.md)" as AgentKnowledge
}


User - -> Seed : initial intent
User - -> Propose : explicit\nchange
Agent - -> CaptureMemo : in-flight\nobservation


Seed - -> Spec
Propose - -> PCQueue
PCQueue - -> Revise
Revise - -> Spec : applies
Revise - -> History : snapshots
Spec ..> Critique : observes
Critique - -> PCQueue : findings ⇒\nproposals
Spec ..> Doctor : observes
History ..> Doctor
Prune - -> History : compresses


Spec ===> CaptureImplDrift : prescription


Impl ..> CaptureImplDrift : current state
CaptureImplDrift - -> WorkItems : files items
WorkItems - -> Implement
Implement - -> Impl : changes
Implement - -> WorkItems : closes


Impl ..> CaptureSpecDrift : observed truth
Spec ..> CaptureSpecDrift : compare\nagainst


CaptureMemo - -> Memos
Memos - -> ListMemos : search /\nrecall
Memos - -> ProcessMemos
ProcessMemos - -> WorkItems : impl-bound
ProcessMemos - -> AgentKnowledge : persistent-\nknowledge


ProcessMemos ===> Propose : spec-bound
CaptureSpecDrift ===> Propose : drift\nfindings


Doctor ..===> Memos : queries\nuntriaged

@enduml

PlantUML version 1.2020.02(Sun Mar 01 11:22:07 CET 2020)
(GPL source distribution)
Java Runtime: OpenJDK Runtime Environment
JVM: OpenJDK 64-Bit Server VM
Java Version: 21.0.10+7-Ubuntu-125.10
Operating System: Linux
Default Encoding: UTF-8
Language: en
Country: null
--></g></svg>