<?xml version="1.0" encoding="UTF-8" standalone="no"?><svg xmlns="http://www.w3.org/2000/svg" xmlns:xlink="http://www.w3.org/1999/xlink" contentScriptType="application/ecmascript" contentStyleType="text/css" height="1151px" preserveAspectRatio="none" style="width:855px;height:1151px;background:#FAFAFA;" version="1.1" viewBox="0 0 855 1151" width="855px" zoomAndPan="magnify"><defs/><g><text fill="#000000" font-family="Helvetica" font-size="18" lengthAdjust="spacingAndGlyphs" textLength="634" x="114" y="16.708">Tool-Agnostic Workflow — Spec / Implementation Lifecycle (DRAFT v4)</text><!--MD5=[fee662a292a0353a69bd162820bae93b]
entity User--><ellipse cx="204" cy="38.4531" fill="#FFFFFF" rx="8" ry="8" style="stroke: #111111; stroke-width: 1.5;"/><path d="M204,46.4531 L204,73.4531 M191,54.4531 L217,54.4531 M204,73.4531 L191,88.4531 M204,73.4531 L217,88.4531 " fill="none" style="stroke: #111111; stroke-width: 1.5;"/><text fill="#111111" font-family="Helvetica" font-size="14" lengthAdjust="spacingAndGlyphs" textLength="32" x="188" y="103.9482">User</text><!--MD5=[9cb65aab968679016cabe6121c7526ca]
entity Agent--><ellipse cx="823" cy="538.4531" fill="#FFFFFF" rx="8" ry="8" style="stroke: #111111; stroke-width: 1.5;"/><path d="M823,546.4531 L823,573.4531 M810,554.4531 L836,554.4531 M823,573.4531 L810,588.4531 M823,573.4531 L836,588.4531 " fill="none" style="stroke: #111111; stroke-width: 1.5;"/><text fill="#111111" font-family="Helvetica" font-size="14" lengthAdjust="spacingAndGlyphs" textLength="41" x="802.5" y="603.9482">Agent</text><!--MD5=[f014f3cce48beb876a741b08b32f99a0]
entity SpecLabel--><rect fill="#FDE8EC" height="52.5938" rx="4" ry="4" style="stroke: #3A6A9A; stroke-width: 1.5;" width="100" x="6" y="129.9531"/><text fill="#111111" font-family="Helvetica" font-size="14" font-weight="bold" lengthAdjust="spacingAndGlyphs" textLength="79" x="16" y="152.9482">SPEC SIDE</text><text fill="#111111" font-family="Helvetica" font-size="14" font-style="italic" lengthAdjust="spacingAndGlyphs" textLength="80" x="16" y="169.2451">prescriptive</text><!--MD5=[9a5cf7b5ccfe99a8a50c4f56868c7fc8]
entity Seed--><rect fill="#D6E6F5" height="36.2969" rx="4" ry="4" style="stroke: #3A6A9A; stroke-width: 1.5;" width="56" x="314" y="278.9531"/><text fill="#111111" font-family="Helvetica" font-size="14" lengthAdjust="spacingAndGlyphs" textLength="36" x="324" y="301.9482">Seed</text><!--MD5=[b162903c3f5aa45441033ef018a482dd]
entity Propose--><rect fill="#D6E6F5" height="52.5938" rx="4" ry="4" style="stroke: #3A6A9A; stroke-width: 1.5;" width="78" x="120" y="129.9531"/><text fill="#111111" font-family="Helvetica" font-size="14" lengthAdjust="spacingAndGlyphs" textLength="58" x="130" y="152.9482">Propose</text><text fill="#111111" font-family="Helvetica" font-size="14" lengthAdjust="spacingAndGlyphs" textLength="54" x="130" y="169.2451">Change</text><!--MD5=[5bd62c65b3bf6048be3cb32942b001e5]
entity Critique--><rect fill="#D6E6F5" height="36.2969" rx="4" ry="4" style="stroke: #3A6A9A; stroke-width: 1.5;" width="73" x="374.5" y="138.4531"/><text fill="#111111" font-family="Helvetica" font-size="14" lengthAdjust="spacingAndGlyphs" textLength="53" x="384.5" y="161.4482">Critique</text><!--MD5=[e9c1fb24a4cd81b1c7322b8f0a98f11d]
entity Revise--><rect fill="#D6E6F5" height="36.2969" rx="4" ry="4" style="stroke: #3A6A9A; stroke-width: 1.5;" width="66" x="245" y="325.9531"/><text fill="#111111" font-family="Helvetica" font-size="14" lengthAdjust="spacingAndGlyphs" textLength="46" x="255" y="348.9482">Revise</text><!--MD5=[5a5d35bcfc46556bdff8e646cc6c81c2]
entity Doctor--><rect fill="#D6E6F5" height="36.2969" rx="4" ry="4" style="stroke: #3A6A9A; stroke-width: 1.5;" width="67" x="234.5" y="469.9531"/><text fill="#111111" font-family="Helvetica" font-size="14" lengthAdjust="spacingAndGlyphs" textLength="47" x="244.5" y="492.9482">Doctor</text><!--MD5=[5b0af1a53dfe6ce9d6337a803daa3faf]
entity Spec--><path d="M335.5,403.4531 C335.5,393.4531 389,393.4531 389,393.4531 C389,393.4531 442.5,393.4531 442.5,403.4531 L442.5,428.75 C442.5,438.75 389,438.75 389,438.75 C389,438.75 335.5,438.75 335.5,428.75 L335.5,403.4531 " fill="#F5EAD5" style="stroke: #8A6B3A; stroke-width: 1.5;"/><path d="M335.5,403.4531 C335.5,413.4531 389,413.4531 389,413.4531 C389,413.4531 442.5,413.4531 442.5,403.4531 " fill="none" style="stroke: #8A6B3A; stroke-width: 1.5;"/><text fill="#111111" font-family="Helvetica" font-size="14" lengthAdjust="spacingAndGlyphs" textLength="87" x="345.5" y="430.4482">Specification</text><!--MD5=[4cc95f85745661d7fbe872bf21a1bbc7]
entity PCQueue--><path d="M242.5,215.9531 C242.5,205.9531 286,205.9531 286,205.9531 C286,205.9531 329.5,205.9531 329.5,215.9531 L329.5,257.5469 C329.5,267.5469 286,267.5469 286,267.5469 C286,267.5469 242.5,267.5469 242.5,257.5469 L242.5,215.9531 " fill="#F5EAD5" style="stroke: #8A6B3A; stroke-width: 1.5;"/><path d="M242.5,215.9531 C242.5,225.9531 286,225.9531 286,225.9531 C286,225.9531 329.5,225.9531 329.5,215.9531 " fill="none" style="stroke: #8A6B3A; stroke-width: 1.5;"/><text fill="#111111" font-family="Helvetica" font-size="14" lengthAdjust="spacingAndGlyphs" textLength="67" x="252.5" y="242.9482">Proposed</text><text fill="#111111" font-family="Helvetica" font-size="14" lengthAdjust="spacingAndGlyphs" textLength="62" x="252.5" y="259.2451">Changes</text><!--MD5=[99a8f7b7d62222417991320410ebdaf2]
entity History--><path d="M214.5,394.9531 C214.5,384.9531 268,384.9531 268,384.9531 C268,384.9531 321.5,384.9531 321.5,394.9531 L321.5,436.5469 C321.5,446.5469 268,446.5469 268,446.5469 C268,446.5469 214.5,446.5469 214.5,436.5469 L214.5,394.9531 " fill="#F5EAD5" style="stroke: #8A6B3A; stroke-width: 1.5;"/><path d="M214.5,394.9531 C214.5,404.9531 268,404.9531 268,404.9531 C268,404.9531 321.5,404.9531 321.5,394.9531 " fill="none" style="stroke: #8A6B3A; stroke-width: 1.5;"/><text fill="#111111" font-family="Helvetica" font-size="14" lengthAdjust="spacingAndGlyphs" textLength="87" x="224.5" y="421.9482">Specification</text><text fill="#111111" font-family="Helvetica" font-size="14" lengthAdjust="spacingAndGlyphs" textLength="47" x="224.5" y="438.2451">History</text><!--MD5=[42d2a5af43078df8fdfc99a12a66dd88]
entity Wall--><rect fill="#F5D76E" height="36.2969" rx="4" ry="4" style="stroke: #3A6A9A; stroke-width: 1.5;" width="558" x="200" y="549.9531"/><text fill="#111111" font-family="Helvetica" font-size="14" lengthAdjust="spacingAndGlyphs" textLength="538" x="210" y="572.9482">═════════════════════  SPEC  ▏  IMPLEMENTATION  ═════════════════════</text><!--MD5=[5a4ba14678f4491647413d065540e2cd]
entity ImplLabel--><rect fill="#E3F0E3" height="52.5938" rx="4" ry="4" style="stroke: #3A6A9A; stroke-width: 1.5;" width="195" x="381.5" y="642.9531"/><text fill="#111111" font-family="Helvetica" font-size="14" font-weight="bold" lengthAdjust="spacingAndGlyphs" textLength="175" x="391.5" y="665.9482">IMPLEMENTATION SIDE</text><text fill="#111111" font-family="Helvetica" font-size="14" font-style="italic" lengthAdjust="spacingAndGlyphs" textLength="75" x="391.5" y="682.2451">descriptive</text><!--MD5=[df3ae4b75a11c19708516fa9f9246517]
entity CaptureImplDrift--><rect fill="#D6E6F5" height="52.5938" rx="4" ry="4" style="stroke: #3A6A9A; stroke-width: 1.5;" width="80" x="515" y="786.9531"/><text fill="#111111" font-family="Helvetica" font-size="14" lengthAdjust="spacingAndGlyphs" textLength="55" x="525" y="809.9482">Capture</text><text fill="#111111" font-family="Helvetica" font-size="14" lengthAdjust="spacingAndGlyphs" textLength="60" x="525" y="826.2451">Impl Drift</text><!--MD5=[74a2a13639c756e3324faac020ef6e7d]
entity Implement--><rect fill="#D6E6F5" height="36.2969" rx="4" ry="4" style="stroke: #3A6A9A; stroke-width: 1.5;" width="93" x="475.5" y="960.9531"/><text fill="#111111" font-family="Helvetica" font-size="14" lengthAdjust="spacingAndGlyphs" textLength="73" x="485.5" y="983.9482">Implement</text><!--MD5=[c1efa0f0c0c85b9a5e73fcadb364593e]
entity CaptureSpecDrift--><rect fill="#D6E6F5" height="52.5938" rx="4" ry="4" style="stroke: #3A6A9A; stroke-width: 1.5;" width="87" x="478.5" y="1087.9531"/><text fill="#111111" font-family="Helvetica" font-size="14" lengthAdjust="spacingAndGlyphs" textLength="55" x="488.5" y="1110.9482">Capture</text><text fill="#111111" font-family="Helvetica" font-size="14" lengthAdjust="spacingAndGlyphs" textLength="67" x="488.5" y="1127.2451">Spec Drift</text><!--MD5=[4d8b149103de154d2d36dbc14fb1ec50]
entity CaptureMemo--><rect fill="#D6E6F5" height="52.5938" rx="4" ry="4" style="stroke: #3A6A9A; stroke-width: 1.5;" width="75" x="590.5" y="642.9531"/><text fill="#111111" font-family="Helvetica" font-size="14" lengthAdjust="spacingAndGlyphs" textLength="55" x="600.5" y="665.9482">Capture</text><text fill="#111111" font-family="Helvetica" font-size="14" lengthAdjust="spacingAndGlyphs" textLength="43" x="600.5" y="682.2451">Memo</text><!--MD5=[38c3dd3a596b244014464f502c88eff1]
entity ProcessMemos--><rect fill="#D6E6F5" height="52.5938" rx="4" ry="4" style="stroke: #3A6A9A; stroke-width: 1.5;" width="76" x="386" y="786.9531"/><text fill="#111111" font-family="Helvetica" font-size="14" lengthAdjust="spacingAndGlyphs" textLength="56" x="396" y="809.9482">Process</text><text fill="#111111" font-family="Helvetica" font-size="14" lengthAdjust="spacingAndGlyphs" textLength="51" x="396" y="826.2451">Memos</text><!--MD5=[d4fd7068178ba922b82960301783db7d]
entity Impl--><path d="M458.5,1029.9531 C458.5,1019.9531 522,1019.9531 522,1019.9531 C522,1019.9531 585.5,1019.9531 585.5,1029.9531 L585.5,1055.25 C585.5,1065.25 522,1065.25 522,1065.25 C522,1065.25 458.5,1065.25 458.5,1055.25 L458.5,1029.9531 " fill="#F5EAD5" style="stroke: #8A6B3A; stroke-width: 1.5;"/><path d="M458.5,1029.9531 C458.5,1039.9531 522,1039.9531 522,1039.9531 C522,1039.9531 585.5,1039.9531 585.5,1029.9531 " fill="none" style="stroke: #8A6B3A; stroke-width: 1.5;"/><text fill="#111111" font-family="Helvetica" font-size="14" lengthAdjust="spacingAndGlyphs" textLength="107" x="468.5" y="1056.9482">Implementation</text><!--MD5=[fa81577849114cbf168f391a566a9b63]
entity WorkItems--><path d="M473.5,894.4531 C473.5,884.4531 522,884.4531 522,884.4531 C522,884.4531 570.5,884.4531 570.5,894.4531 L570.5,919.75 C570.5,929.75 522,929.75 522,929.75 C522,929.75 473.5,929.75 473.5,919.75 L473.5,894.4531 " fill="#F5EAD5" style="stroke: #8A6B3A; stroke-width: 1.5;"/><path d="M473.5,894.4531 C473.5,904.4531 522,904.4531 522,904.4531 C522,904.4531 570.5,904.4531 570.5,894.4531 " fill="none" style="stroke: #8A6B3A; stroke-width: 1.5;"/><text fill="#111111" font-family="Helvetica" font-size="14" lengthAdjust="spacingAndGlyphs" textLength="77" x="483.5" y="921.4482">Work Items</text><!--MD5=[1c5e44e491cf6497969a38cc571a845e]
entity Memos--><path d="M349.5,728.9531 C349.5,718.9531 385,718.9531 385,718.9531 C385,718.9531 420.5,718.9531 420.5,728.9531 L420.5,754.25 C420.5,764.25 385,764.25 385,764.25 C385,764.25 349.5,764.25 349.5,754.25 L349.5,728.9531 " fill="#F5EAD5" style="stroke: #8A6B3A; stroke-width: 1.5;"/><path d="M349.5,728.9531 C349.5,738.9531 385,738.9531 385,738.9531 C385,738.9531 420.5,738.9531 420.5,728.9531 " fill="none" style="stroke: #8A6B3A; stroke-width: 1.5;"/><text fill="#111111" font-family="Helvetica" font-size="14" lengthAdjust="spacingAndGlyphs" textLength="51" x="359.5" y="755.9482">Memos</text><!--MD5=[cd20a034834c6e5d1841e96140da69e2]
entity AgentKnowledge--><path d="M310,885.9531 C310,875.9531 381,875.9531 381,875.9531 C381,875.9531 452,875.9531 452,885.9531 L452,927.5469 C452,937.5469 381,937.5469 381,937.5469 C381,937.5469 310,937.5469 310,927.5469 L310,885.9531 " fill="#F5EAD5" style="stroke: #8A6B3A; stroke-width: 1.5;"/><path d="M310,885.9531 C310,895.9531 381,895.9531 381,895.9531 C381,895.9531 452,895.9531 452,885.9531 " fill="none" style="stroke: #8A6B3A; stroke-width: 1.5;"/><text fill="#111111" font-family="Helvetica" font-size="14" lengthAdjust="spacingAndGlyphs" textLength="70" x="320" y="912.9482">Persistent</text><text fill="#111111" font-family="Helvetica" font-size="14" lengthAdjust="spacingAndGlyphs" textLength="122" x="320" y="929.2451">Agent Knowledge</text><!--MD5=[6fc590fd9dd6e603c2ca03995cd7b17e]
link User to SpecLabel--><!--MD5=[0ebedd8903289513799af5380fb9f3d9]
link SpecLabel to Seed--><!--MD5=[c1a4e4be981ab41175b92a9246219d1b]
link SpecLabel to Propose--><!--MD5=[4b7088b50206c39c71ad50e315c42573]
link Propose to Critique--><!--MD5=[79b56c54669e1e209294348a48d118fe]
link Seed to Spec--><!--MD5=[79b56c54669e1e209294348a48d118fe]
link Seed to Spec--><path d="M354.21,315.1931 C361.73,330.6131 370.86,353.8331 379,373.9531 C380.91,378.6631 382.96,383.6731 384.84,388.5131 " fill="none" id="Seed-&gt;Spec-1" style="stroke: #333333; stroke-width: 1.0;"/><polygon fill="#333333" points="386.65,393.2731,387.199,383.4396,384.8772,388.598,379.7188,386.2761,386.65,393.2731" style="stroke: #333333; stroke-width: 1.0;"/><!--MD5=[16354ffdec047c3bcd386d8a602390a5]
link Spec to PCQueue--><!--MD5=[a69e2db2c58186bdfbdd2106032d7638]
link PCQueue to Revise--><!--MD5=[a69e2db2c58186bdfbdd2106032d7638]
link PCQueue to Revise--><path d="M288.51,268.0431 C287.94,284.9231 286.22,305.6031 284.04,320.9531 " fill="none" id="PCQueue-&gt;Revise-1" style="stroke: #333333; stroke-width: 1.0;"/><polygon fill="#333333" points="283.29,325.9431,288.5796,317.6353,284.031,320.9983,280.668,316.4497,283.29,325.9431" style="stroke: #333333; stroke-width: 1.0;"/><!--MD5=[07bc2658038b75836dd6c06689447504]
link Revise to History--><!--MD5=[07bc2658038b75836dd6c06689447504]
link Revise to History--><path d="M280.13,362.2531 C279.8,367.5731 279.15,373.6231 278.29,379.6831 " fill="none" id="Revise-&gt;History-1" style="stroke: #333333; stroke-width: 1.0;"/><polygon fill="#333333" points="277.52,384.7631,282.8132,376.4576,278.2631,379.8187,274.902,375.2686,277.52,384.7631" style="stroke: #333333; stroke-width: 1.0;"/><!--MD5=[f0a82dc77730f883730a6bf29f010c28]
link History to Doctor--><!--MD5=[f0a82dc77730f883730a6bf29f010c28]
link History to Doctor--><path d="M273.2,447.0431 C273.31,452.8231 273.23,458.7931 272.95,464.2831 " fill="none" id="History-&gt;Doctor-1" style="stroke: #333333; stroke-width: 1.0;"/><polygon fill="#333333" points="272.6,469.6031,277.1832,460.8856,272.9288,464.6139,269.2005,460.3596,272.6,469.6031" style="stroke: #333333; stroke-width: 1.0;"/><!--MD5=[2d4f391ebc51c3c5b9cea9c50126b09d]
link Doctor to Wall--><!--MD5=[16e6f795d78d76f38b378f26197a8591]
link Wall to ImplLabel--><!--MD5=[5a435372bc15ff0290ad9418ab9f7198]
link ImplLabel to CaptureImplDrift--><!--MD5=[ed8390bd58d8fb31dbf6713a049bc616]
link ImplLabel to CaptureMemo--><!--MD5=[72728cc8dfe828bd646cc7397cf1982d]
link CaptureMemo to ProcessMemos--><!--MD5=[720656fa03757a6dd551b9c09ee855cc]
link CaptureImplDrift to WorkItems--><!--MD5=[720656fa03757a6dd551b9c09ee855cc]
link CaptureImplDrift to WorkItems--><path d="M550.42,840.4331 C546.62,852.6531 541.38,867.2031 536.36,879.4831 " fill="none" id="CaptureImplDrift-&gt;WorkItems-1" style="stroke: #333333; stroke-width: 1.0;"/><polygon fill="#333333" points="534.37,884.2431,541.5313,877.4818,536.2981,879.6299,534.15,874.3967,534.37,884.2431" style="stroke: #333333; stroke-width: 1.0;"/><!--MD5=[2aab1c731a56da689dc18e63568dc023]
link WorkItems to Implement--><!--MD5=[2aab1c731a56da689dc18e63568dc023]
link WorkItems to Implement--><path d="M522,929.7131 C522,937.9631 522,947.3531 522,955.6431 " fill="none" id="WorkItems-&gt;Implement-1" style="stroke: #333333; stroke-width: 1.0;"/><polygon fill="#333333" points="522,960.6431,526,951.6431,522,955.6431,518,951.6431,522,960.6431" style="stroke: #333333; stroke-width: 1.0;"/><!--MD5=[c017db10e1d74bf134a477058a6c34f9]
link Implement to WorkItems--><path d="M531.2,960.6431 C532.44,952.9031 532.79,943.6031 532.25,934.9831 " fill="none" id="Implement-&gt;WorkItems" style="stroke: #333333; stroke-width: 1.0;"/><polygon fill="#333333" points="531.8,929.7131,528.5878,939.0234,532.2294,934.6946,536.5582,938.3363,531.8,929.7131" style="stroke: #333333; stroke-width: 1.0;"/><!--MD5=[b2585690133698ee634fbdabdb866ddf]
link Implement to Impl--><!--MD5=[b2585690133698ee634fbdabdb866ddf]
link Implement to Impl--><path d="M526.76,997.0831 C527.17,1002.4131 527.32,1008.4331 527.22,1014.2831 " fill="none" id="Implement-&gt;Impl-1" style="stroke: #333333; stroke-width: 1.0;"/><polygon fill="#333333" points="527.05,1019.5731,531.3307,1010.7032,527.2071,1014.5756,523.3347,1010.4519,527.05,1019.5731" style="stroke: #333333; stroke-width: 1.0;"/><!--MD5=[b5d618f00e26d8a6affcaa8f88949f81]
link Impl to CaptureSpecDrift--><!--MD5=[b5d618f00e26d8a6affcaa8f88949f81]
link Impl to CaptureSpecDrift--><path d="M526.9,1065.2131 C527.2,1070.6231 527.31,1076.5331 527.22,1082.2931 " fill="none" id="Impl-&gt;CaptureSpecDrift-1" style="stroke: #333333; stroke-width: 1.0;"/><polygon fill="#333333" points="527.09,1087.5231,531.32,1078.6289,527.2185,1082.5248,523.3227,1078.4233,527.09,1087.5231" style="stroke: #333333; stroke-width: 1.0;"/><!--MD5=[d145e3db974cc12530e93e3e2830e988]
link Memos to AgentKnowledge--><!--MD5=[5e95e166e00c9e068e13f58d56d13077]
link User to Seed--><path d="M220.27,79.8031 C249.56,100.3931 310.47,148.2631 336,205.9531 C345.56,227.5531 345.94,254.9331 344.63,273.7931 " fill="none" id="User-&gt;Seed" style="stroke: #333333; stroke-width: 1.0;"/><polygon fill="#333333" points="344.23,278.8731,348.9369,270.2218,344.6299,273.8891,340.9626,269.5821,344.23,278.8731" style="stroke: #333333; stroke-width: 1.0;"/><!--MD5=[f97fcc04ce69ed847176b855b2ea6ea0]
link User to Propose--><path d="M187.75,100.1831 C183.58,108.1931 179.1,116.8131 174.95,124.7931 " fill="none" id="User-&gt;Propose" style="stroke: #333333; stroke-width: 1.0;"/><polygon fill="#333333" points="172.41,129.6731,180.1079,123.5297,174.7145,125.2359,173.0083,119.8425,172.41,129.6731" style="stroke: #333333; stroke-width: 1.0;"/><!--MD5=[6db319762a472eb47f21069fb06b4840]
link User to Revise--><path d="M205.8,106.9931 C208.67,147.8031 216.07,214.0131 235,267.9531 C241.76,287.2031 253.46,307.1631 262.96,321.6431 " fill="none" id="User-&gt;Revise" style="stroke: #333333; stroke-width: 1.0;"/><polygon fill="#333333" points="265.82,325.9531,264.179,316.2419,263.0564,321.7863,257.5121,320.6637,265.82,325.9531" style="stroke: #333333; stroke-width: 1.0;"/><!--MD5=[0357b5824b0aed4978512d941c811c27]
link Agent to CaptureMemo--><path d="M802.28,583.6731 C791.43,591.0831 777.78,599.9531 765,606.9531 C734.2,623.8231 697.88,639.9631 670.38,651.4731 " fill="none" id="Agent-&gt;CaptureMemo" style="stroke: #333333; stroke-width: 1.0;"/><polygon fill="#333333" points="665.69,653.4231,675.5358,653.6691,670.3083,651.5072,672.4702,646.2797,665.69,653.4231" style="stroke: #333333; stroke-width: 1.0;"/><!--MD5=[281bce53cd6bbbaf0233acd82bce6168]
link Agent to Implement--><path d="M822.44,607.2231 C822.21,625.7231 822,648.2431 822,668.4531 C822,668.4531 822,668.4531 822,907.9531 C822,958.3631 659.35,972.4831 573.58,976.4331 " fill="none" id="Agent-&gt;Implement" style="stroke: #333333; stroke-width: 1.0;"/><polygon fill="#333333" points="568.55,976.6531,577.7233,980.238,573.5448,976.4248,577.3579,972.2463,568.55,976.6531" style="stroke: #333333; stroke-width: 1.0;"/><!--MD5=[6aed50f60f52d38e3c9589f0bac08744]
link Propose to PCQueue--><path d="M198.14,181.6431 C210.71,189.4131 224.79,198.1131 237.92,206.2331 " fill="none" id="Propose-&gt;PCQueue" style="stroke: #333333; stroke-width: 1.0;"/><polygon fill="#333333" points="242.34,208.9631,236.8034,200.8178,238.092,206.326,232.5839,207.6146,242.34,208.9631" style="stroke: #333333; stroke-width: 1.0;"/><!--MD5=[f8978627cb19ac31d7c0ec0d2ea4869c]
link Revise to Spec--><path d="M305.15,362.0731 C318.65,370.5831 335.2,381.0231 350.02,390.3731 " fill="none" id="Revise-&gt;Spec" style="stroke: #333333; stroke-width: 1.0;"/><polygon fill="#333333" points="354.56,393.2331,349.0678,385.0578,350.3264,390.5729,344.8114,391.8315,354.56,393.2331" style="stroke: #333333; stroke-width: 1.0;"/><!--MD5=[2c995db2faed80d07edb84013ad27120]
link Spec to Critique--><path d="M396.46,393.0531 C398.25,386.9331 399.95,380.2431 401,373.9531 C412.71,303.8031 412.58,219.2231 411.71,179.7531 " fill="none" id="Spec-&gt;Critique" style="stroke: #333333; stroke-width: 1.0;"/><polygon fill="#333333" points="411.59,174.7231,407.8227,183.823,411.7185,179.7215,415.82,183.6173,411.59,174.7231" style="stroke: #333333; stroke-width: 1.0;"/><!--MD5=[18d5bc04b48706048bc504d5ed50186f]
link Critique to PCQueue--><path d="M383.88,174.4831 C369.31,183.6331 350.93,195.1731 334.04,205.7831 " fill="none" id="Critique-&gt;PCQueue" style="stroke: #333333; stroke-width: 1.0;"/><polygon fill="#333333" points="329.78,208.4631,339.5286,207.0615,334.0136,205.8029,335.2722,200.2878,329.78,208.4631" style="stroke: #333333; stroke-width: 1.0;"/><!--MD5=[29c2b6ec2f05da293fae6f93ae2f3ebb]
link Spec to Doctor--><path d="M351.71,438.5231 C335.98,447.6231 317.78,458.1531 302.37,467.0631 " fill="none" id="Spec-&gt;Doctor" style="stroke: #333333; stroke-width: 1.0;"/><polygon fill="#333333" points="297.69,469.7731,307.4841,468.7357,302.0197,467.2725,303.483,461.8081,297.69,469.7731" style="stroke: #333333; stroke-width: 1.0;"/><!--MD5=[72d9307b3c82660b77a8ab75c0a199d8]
link Spec to CaptureImplDrift--><path d="M442.55,421.0531 C549.63,429.9631 780,453.0731 780,486.9531 C780,486.9531 780,486.9531 780,742.4531 C780,779.7331 665.96,799.4131 600.26,807.6531 " fill="none" id="Spec-&gt;CaptureImplDrift" style="stroke: #A02020; stroke-width: 2.0;"/><polygon fill="#A02020" points="595.23,808.2731,604.6526,811.1393,600.1923,807.66,603.6715,803.1996,595.23,808.2731" style="stroke: #A02020; stroke-width: 2.0;"/><!--MD5=[b49b6bab658ee75b4c6a650f7a074aa0]
link Impl to CaptureImplDrift--><path d="M556.47,1019.7631 C563.87,1013.3731 570.74,1005.7031 575,996.9531 C598.9,947.8631 581.86,882.7531 567.97,845.0431 " fill="none" id="Impl-&gt;CaptureImplDrift" style="stroke: #333333; stroke-width: 1.0;"/><polygon fill="#333333" points="566.12,840.1331,565.5348,849.9646,567.8756,844.8148,573.0254,847.1556,566.12,840.1331" style="stroke: #333333; stroke-width: 1.0;"/><!--MD5=[9529e34aeb4698c65548104dd048aaa7]
link CaptureSpecDrift to Propose--><path d="M478.12,1110.5231 C372.35,1102.8631 112,1080.2831 112,1043.4531 C112,235.9531 112,235.9531 112,235.9531 C112,218.2431 120.91,201.0731 130.97,187.3331 " fill="none" id="CaptureSpecDrift-&gt;Propose" style="stroke: #A02020; stroke-width: 2.0;"/><polygon fill="#A02020" points="134.12,183.1831,125.49,187.929,131.0949,187.1642,131.8598,192.7691,134.12,183.1831" style="stroke: #A02020; stroke-width: 2.0;"/><!--MD5=[6de597d6f2c3b5db7bb29adef1fe1ed9]
link CaptureMemo to Memos--><path d="M590.33,692.8331 C587.89,693.9631 585.43,695.0131 583,695.9531 C530.62,716.1631 466.74,728.4531 425.96,734.8531 " fill="none" id="CaptureMemo-&gt;Memos" style="stroke: #333333; stroke-width: 1.0;"/><polygon fill="#333333" points="420.61,735.6831,430.1119,738.2743,425.5524,734.9261,428.9006,730.3665,420.61,735.6831" style="stroke: #333333; stroke-width: 1.0;"/><!--MD5=[436c56898a2138351dd1a7842b69aa77]
link Memos to ProcessMemos--><path d="M397.13,764.2131 C400.26,769.8431 403.7,776.0131 407.03,781.9931 " fill="none" id="Memos-&gt;ProcessMemos" style="stroke: #333333; stroke-width: 1.0;"/><polygon fill="#333333" points="409.55,786.5231,408.6514,776.7153,407.1109,782.1584,401.6678,780.6179,409.55,786.5231" style="stroke: #333333; stroke-width: 1.0;"/><!--MD5=[f356670c5009cefe28fd37f9494e61d8]
link ProcessMemos to WorkItems--><path d="M445.91,840.1431 C453.29,848.3431 461.76,857.2731 470,864.9531 C475.92,870.4731 482.52,876.0531 488.97,881.2431 " fill="none" id="ProcessMemos-&gt;WorkItems" style="stroke: #333333; stroke-width: 1.0;"/><polygon fill="#333333" points="492.96,884.4231,488.4076,875.6895,489.0473,881.3101,483.4267,881.9498,492.96,884.4231" style="stroke: #333333; stroke-width: 1.0;"/><text fill="#111111" font-family="Helvetica" font-size="11" lengthAdjust="spacingAndGlyphs" textLength="63" x="471" y="862.1636">impl-bound</text><!--MD5=[e81cbb5d45e320851ca1117dd08a4ab5]
link ProcessMemos to AgentKnowledge--><path d="M399.67,840.0831 C397.15,843.5631 394.84,847.2231 393,850.9531 C389.96,857.0931 387.69,864.0031 385.99,870.7831 " fill="none" id="ProcessMemos-&gt;AgentKnowledge" style="stroke: #333333; stroke-width: 1.0;"/><polygon fill="#333333" points="384.79,875.9431,390.718,868.0781,385.9185,871.0721,382.9245,866.2726,384.79,875.9431" style="stroke: #333333; stroke-width: 1.0;"/><text fill="#111111" font-family="Helvetica" font-size="11" lengthAdjust="spacingAndGlyphs" textLength="58" x="394" y="862.1636">persistent</text><!--MD5=[bcae832c572b10c0086a5dbd5f75426b]
link ProcessMemos to Propose--><path d="M385.91,810.7231 C310.2,806.2331 148,790.9631 148,742.4531 C148,235.9531 148,235.9531 148,235.9531 C148,220.1431 150.22,202.7131 152.66,188.3031 " fill="none" id="ProcessMemos-&gt;Propose" style="stroke: #A02020; stroke-width: 2.0;"/><polygon fill="#A02020" points="153.56,183.1331,148.0731,191.312,152.7009,188.0588,155.9541,192.6866,153.56,183.1331" style="stroke: #A02020; stroke-width: 2.0;"/><text fill="#111111" font-family="Helvetica" font-size="11" lengthAdjust="spacingAndGlyphs" textLength="66" x="149" y="492.1636">spec-bound</text><!--MD5=[4bd81d533c6cf9321431b9aefcac2dfd]
link Memos to Doctor--><path d="M349.38,727.7231 C303.55,709.1831 225.91,669.9231 193,606.9531 C176.94,576.2331 175.16,558.6831 193,528.9531 C197.4,521.6131 213.22,512.7131 229.19,505.1731 " fill="none" id="Memos-&gt;Doctor" style="stroke: #A02020; stroke-width: 2.0;"/><polygon fill="#A02020" points="234.14,502.8831,224.2922,503.0287,229.6015,504.9811,227.649,510.2904,234.14,502.8831" style="stroke: #A02020; stroke-width: 2.0;"/><text fill="#111111" font-family="Helvetica" font-size="11" lengthAdjust="spacingAndGlyphs" textLength="54" x="210" y="629.1636">untriaged</text><!--MD5=[49a675357da5ced484b39520e535d876]
@startuml draft-tool-agnostic-workflow
title Tool-Agnostic Workflow — Spec / Implementation Lifecycle (DRAFT v4)


skinparam defaultFontName Helvetica
skinparam shadowing false
skinparam BackgroundColor #fafafa
skinparam ArrowColor #333
skinparam ArrowFontColor #111
skinparam ArrowFontSize 11
skinparam nodesep 14
skinparam ranksep 22
hide stereotype

skinparam rectangle {
  BackgroundColor #d6e6f5
  BorderColor #3a6a9a
  FontColor #111
  RoundCorner 8
}

skinparam database {
  BackgroundColor #f5ead5
  BorderColor #8a6b3a
  FontColor #111
}

skinparam actor {
  BackgroundColor #ffffff
  BorderColor #111
  FontColor #111
}


actor "User" as User
actor "Agent" as Agent


rectangle "**SPEC SIDE**\n//prescriptive//" as SpecLabel #fde8ec
rectangle "Seed" as Seed
rectangle "Propose\nChange" as Propose
rectangle "Critique" as Critique
rectangle "Revise" as Revise
rectangle "Doctor" as Doctor
database "Specification" as Spec
database "Proposed\nChanges" as PCQueue
database "Specification\nHistory" as History


rectangle "═════════════════════  SPEC  ▏  IMPLEMENTATION  ═════════════════════" as Wall #f5d76e


rectangle "**IMPLEMENTATION SIDE**\n//descriptive//" as ImplLabel #e3f0e3
rectangle "Capture\nImpl Drift" as CaptureImplDrift
rectangle "Implement" as Implement
rectangle "Capture\nSpec Drift" as CaptureSpecDrift
rectangle "Capture\nMemo" as CaptureMemo
rectangle "Process\nMemos" as ProcessMemos
database "Implementation" as Impl
database "Work Items" as WorkItems
database "Memos" as Memos
database "Persistent\nAgent Knowledge" as AgentKnowledge


User -[hidden]down-> SpecLabel
SpecLabel -[hidden]down-> Seed
SpecLabel -[hidden]right-> Propose
Propose -[hidden]right-> Critique

Seed -[hidden]down-> Spec
Spec -[hidden]down-> PCQueue
PCQueue -[hidden]down-> Revise
Revise -[hidden]down-> History
History -[hidden]down-> Doctor

Doctor -[hidden]down-> Wall
Wall -[hidden]down-> ImplLabel

ImplLabel -[hidden]down-> CaptureImplDrift
ImplLabel -[hidden]right-> CaptureMemo
CaptureMemo -[hidden]right-> ProcessMemos

CaptureImplDrift -[hidden]down-> WorkItems
WorkItems -[hidden]down-> Implement
Implement -[hidden]down-> Impl
Impl -[hidden]down-> CaptureSpecDrift
Memos -[hidden]down-> AgentKnowledge


User - -> Seed
User - -> Propose
User - -> Revise
Agent - -> CaptureMemo
Agent - -> Implement

Seed - -> Spec
Propose - -> PCQueue
PCQueue - -> Revise
Revise - -> Spec
Revise - -> History
Spec - -> Critique
Critique - -> PCQueue
Spec - -> Doctor
History - -> Doctor

Spec -[#a02020,thickness=2]-> CaptureImplDrift

Impl - -> CaptureImplDrift
CaptureImplDrift - -> WorkItems
WorkItems - -> Implement
Implement - -> Impl
Implement - -> WorkItems

Impl - -> CaptureSpecDrift

CaptureSpecDrift -[#a02020,thickness=2]-> Propose

CaptureMemo - -> Memos
Memos - -> ProcessMemos
ProcessMemos - -> WorkItems : impl-bound
ProcessMemos - -> AgentKnowledge : persistent

ProcessMemos -[#a02020,thickness=2]-> Propose : spec-bound

Memos -[#a02020,thickness=2]-> Doctor : untriaged

@enduml

PlantUML version 1.2020.02(Sun Mar 01 11:22:07 CET 2020)
(GPL source distribution)
Java Runtime: OpenJDK Runtime Environment
JVM: OpenJDK 64-Bit Server VM
Java Version: 21.0.10+7-Ubuntu-125.10
Operating System: Linux
Default Encoding: UTF-8
Language: en
Country: null
--></g></svg>