<?xml version="1.0" encoding="UTF-8" standalone="no"?><svg xmlns="http://www.w3.org/2000/svg" xmlns:xlink="http://www.w3.org/1999/xlink" contentScriptType="application/ecmascript" contentStyleType="text/css" height="1043px" preserveAspectRatio="none" style="width:1343px;height:1043px;background:#FAFAFA;" version="1.1" viewBox="0 0 1343 1043" width="1343px" zoomAndPan="magnify"><defs/><g><text fill="#000000" font-family="Helvetica" font-size="18" lengthAdjust="spacingAndGlyphs" textLength="634" x="357.5" y="16.708">Tool-Agnostic Workflow — Spec / Implementation Lifecycle (DRAFT v7)</text><!--MD5=[9a5cf7b5ccfe99a8a50c4f56868c7fc8]
entity Seed--><rect fill="#D6E6F5" height="36.2969" rx="4" ry="4" style="stroke: #1F4768; stroke-width: 1.5;" width="56" x="368" y="137.9531"/><text fill="#111111" font-family="Helvetica" font-size="14" lengthAdjust="spacingAndGlyphs" textLength="36" x="378" y="160.9482">Seed</text><!--MD5=[b162903c3f5aa45441033ef018a482dd]
entity Propose--><rect fill="#D6E6F5" height="52.5938" rx="4" ry="4" style="stroke: #1F4768; stroke-width: 1.5;" width="78" x="530" y="129.4531"/><text fill="#111111" font-family="Helvetica" font-size="14" lengthAdjust="spacingAndGlyphs" textLength="58" x="540" y="152.4482">Propose</text><text fill="#111111" font-family="Helvetica" font-size="14" lengthAdjust="spacingAndGlyphs" textLength="54" x="540" y="168.7451">Change</text><!--MD5=[5bd62c65b3bf6048be3cb32942b001e5]
entity Critique--><rect fill="#D6E6F5" height="36.2969" rx="4" ry="4" style="stroke: #1F4768; stroke-width: 1.5;" width="73" x="440.5" y="137.9531"/><text fill="#111111" font-family="Helvetica" font-size="14" lengthAdjust="spacingAndGlyphs" textLength="53" x="450.5" y="160.9482">Critique</text><!--MD5=[e9c1fb24a4cd81b1c7322b8f0a98f11d]
entity Revise--><rect fill="#D6E6F5" height="36.2969" rx="4" ry="4" style="stroke: #1F4768; stroke-width: 1.5;" width="66" x="522" y="302.4531"/><text fill="#111111" font-family="Helvetica" font-size="14" lengthAdjust="spacingAndGlyphs" textLength="46" x="532" y="325.4482">Revise</text><!--MD5=[5a5d35bcfc46556bdff8e646cc6c81c2]
entity Doctor--><rect fill="#D6E6F5" height="36.2969" rx="4" ry="4" style="stroke: #1F4768; stroke-width: 1.5;" width="67" x="521.5" y="484.9531"/><text fill="#111111" font-family="Helvetica" font-size="14" lengthAdjust="spacingAndGlyphs" textLength="47" x="531.5" y="507.9482">Doctor</text><!--MD5=[5b0af1a53dfe6ce9d6337a803daa3faf]
entity Spec--><path d="M378.5,385.9531 C378.5,375.9531 432,375.9531 432,375.9531 C432,375.9531 485.5,375.9531 485.5,385.9531 L485.5,411.25 C485.5,421.25 432,421.25 432,421.25 C432,421.25 378.5,421.25 378.5,411.25 L378.5,385.9531 " fill="#F5EAD5" style="stroke: #5A4319; stroke-width: 1.5;"/><path d="M378.5,385.9531 C378.5,395.9531 432,395.9531 432,395.9531 C432,395.9531 485.5,395.9531 485.5,385.9531 " fill="none" style="stroke: #5A4319; stroke-width: 1.5;"/><text fill="#111111" font-family="Helvetica" font-size="14" lengthAdjust="spacingAndGlyphs" textLength="87" x="388.5" y="412.9482">Specification</text><!--MD5=[4cc95f85745661d7fbe872bf21a1bbc7]
entity PCQueue--><path d="M511.5,221.4531 C511.5,211.4531 555,211.4531 555,211.4531 C555,211.4531 598.5,211.4531 598.5,221.4531 L598.5,263.0469 C598.5,273.0469 555,273.0469 555,273.0469 C555,273.0469 511.5,273.0469 511.5,263.0469 L511.5,221.4531 " fill="#F5EAD5" style="stroke: #5A4319; stroke-width: 1.5;"/><path d="M511.5,221.4531 C511.5,231.4531 555,231.4531 555,231.4531 C555,231.4531 598.5,231.4531 598.5,221.4531 " fill="none" style="stroke: #5A4319; stroke-width: 1.5;"/><text fill="#111111" font-family="Helvetica" font-size="14" lengthAdjust="spacingAndGlyphs" textLength="67" x="521.5" y="248.4482">Proposed</text><text fill="#111111" font-family="Helvetica" font-size="14" lengthAdjust="spacingAndGlyphs" textLength="62" x="521.5" y="264.7451">Changes</text><!--MD5=[99a8f7b7d62222417991320410ebdaf2]
entity History--><path d="M501.5,377.4531 C501.5,367.4531 555,367.4531 555,367.4531 C555,367.4531 608.5,367.4531 608.5,377.4531 L608.5,419.0469 C608.5,429.0469 555,429.0469 555,429.0469 C555,429.0469 501.5,429.0469 501.5,419.0469 L501.5,377.4531 " fill="#F5EAD5" style="stroke: #5A4319; stroke-width: 1.5;"/><path d="M501.5,377.4531 C501.5,387.4531 555,387.4531 555,387.4531 C555,387.4531 608.5,387.4531 608.5,377.4531 " fill="none" style="stroke: #5A4319; stroke-width: 1.5;"/><text fill="#111111" font-family="Helvetica" font-size="14" lengthAdjust="spacingAndGlyphs" textLength="87" x="511.5" y="404.4482">Specification</text><text fill="#111111" font-family="Helvetica" font-size="14" lengthAdjust="spacingAndGlyphs" textLength="47" x="511.5" y="420.7451">History</text><!--MD5=[df3ae4b75a11c19708516fa9f9246517]
entity CaptureImplDrift--><rect fill="#D6E6F5" height="52.5938" rx="4" ry="4" style="stroke: #1F4768; stroke-width: 1.5;" width="80" x="106" y="476.4531"/><text fill="#111111" font-family="Helvetica" font-size="14" lengthAdjust="spacingAndGlyphs" textLength="55" x="116" y="499.4482">Capture</text><text fill="#111111" font-family="Helvetica" font-size="14" lengthAdjust="spacingAndGlyphs" textLength="60" x="116" y="515.7451">Impl Drift</text><!--MD5=[74a2a13639c756e3324faac020ef6e7d]
entity Implement--><rect fill="#D6E6F5" height="36.2969" rx="4" ry="4" style="stroke: #1F4768; stroke-width: 1.5;" width="93" x="82.5" y="840.9531"/><text fill="#111111" font-family="Helvetica" font-size="14" lengthAdjust="spacingAndGlyphs" textLength="73" x="92.5" y="863.9482">Implement</text><!--MD5=[c1efa0f0c0c85b9a5e73fcadb364593e]
entity CaptureSpecDrift--><rect fill="#D6E6F5" height="52.5938" rx="4" ry="4" style="stroke: #1F4768; stroke-width: 1.5;" width="87" x="224.5" y="979.9531"/><text fill="#111111" font-family="Helvetica" font-size="14" lengthAdjust="spacingAndGlyphs" textLength="55" x="234.5" y="1002.9482">Capture</text><text fill="#111111" font-family="Helvetica" font-size="14" lengthAdjust="spacingAndGlyphs" textLength="67" x="234.5" y="1019.2451">Spec Drift</text><!--MD5=[4d8b149103de154d2d36dbc14fb1ec50]
entity CaptureMemo--><rect fill="#D6E6F5" height="52.5938" rx="4" ry="4" style="stroke: #1F4768; stroke-width: 1.5;" width="75" x="236.5" y="476.4531"/><text fill="#111111" font-family="Helvetica" font-size="14" lengthAdjust="spacingAndGlyphs" textLength="55" x="246.5" y="499.4482">Capture</text><text fill="#111111" font-family="Helvetica" font-size="14" lengthAdjust="spacingAndGlyphs" textLength="43" x="246.5" y="515.7451">Memo</text><!--MD5=[38c3dd3a596b244014464f502c88eff1]
entity ProcessMemos--><rect fill="#D6E6F5" height="52.5938" rx="4" ry="4" style="stroke: #1F4768; stroke-width: 1.5;" width="76" x="236" y="654.9531"/><text fill="#111111" font-family="Helvetica" font-size="14" lengthAdjust="spacingAndGlyphs" textLength="56" x="246" y="677.9482">Process</text><text fill="#111111" font-family="Helvetica" font-size="14" lengthAdjust="spacingAndGlyphs" textLength="51" x="246" y="694.2451">Memos</text><!--MD5=[d4fd7068178ba922b82960301783db7d]
entity Impl--><path d="M116.5,915.9531 C116.5,905.9531 180,905.9531 180,905.9531 C180,905.9531 243.5,905.9531 243.5,915.9531 L243.5,941.25 C243.5,951.25 180,951.25 180,951.25 C180,951.25 116.5,951.25 116.5,941.25 L116.5,915.9531 " fill="#F5EAD5" style="stroke: #5A4319; stroke-width: 1.5;"/><path d="M116.5,915.9531 C116.5,925.9531 180,925.9531 180,925.9531 C180,925.9531 243.5,925.9531 243.5,915.9531 " fill="none" style="stroke: #5A4319; stroke-width: 1.5;"/><text fill="#111111" font-family="Helvetica" font-size="14" lengthAdjust="spacingAndGlyphs" textLength="107" x="126.5" y="942.9482">Implementation</text><!--MD5=[fa81577849114cbf168f391a566a9b63]
entity WorkItems--><path d="M56.5,768.4531 C56.5,758.4531 105,758.4531 105,758.4531 C105,758.4531 153.5,758.4531 153.5,768.4531 L153.5,793.75 C153.5,803.75 105,803.75 105,803.75 C105,803.75 56.5,803.75 56.5,793.75 L56.5,768.4531 " fill="#F5EAD5" style="stroke: #5A4319; stroke-width: 1.5;"/><path d="M56.5,768.4531 C56.5,778.4531 105,778.4531 105,778.4531 C105,778.4531 153.5,778.4531 153.5,768.4531 " fill="none" style="stroke: #5A4319; stroke-width: 1.5;"/><text fill="#111111" font-family="Helvetica" font-size="14" lengthAdjust="spacingAndGlyphs" textLength="77" x="66.5" y="795.4482">Work Items</text><!--MD5=[1c5e44e491cf6497969a38cc571a845e]
entity Memos--><path d="M238.5,590.9531 C238.5,580.9531 274,580.9531 274,580.9531 C274,580.9531 309.5,580.9531 309.5,590.9531 L309.5,616.25 C309.5,626.25 274,626.25 274,626.25 C274,626.25 238.5,626.25 238.5,616.25 L238.5,590.9531 " fill="#F5EAD5" style="stroke: #5A4319; stroke-width: 1.5;"/><path d="M238.5,590.9531 C238.5,600.9531 274,600.9531 274,600.9531 C274,600.9531 309.5,600.9531 309.5,590.9531 " fill="none" style="stroke: #5A4319; stroke-width: 1.5;"/><text fill="#111111" font-family="Helvetica" font-size="14" lengthAdjust="spacingAndGlyphs" textLength="51" x="248.5" y="617.9482">Memos</text><!--MD5=[cd20a034834c6e5d1841e96140da69e2]
entity AgentKnowledge--><path d="M170,759.9531 C170,749.9531 241,749.9531 241,749.9531 C241,749.9531 312,749.9531 312,759.9531 L312,801.5469 C312,811.5469 241,811.5469 241,811.5469 C241,811.5469 170,811.5469 170,801.5469 L170,759.9531 " fill="#F5EAD5" style="stroke: #5A4319; stroke-width: 1.5;"/><path d="M170,759.9531 C170,769.9531 241,769.9531 241,769.9531 C241,769.9531 312,769.9531 312,759.9531 " fill="none" style="stroke: #5A4319; stroke-width: 1.5;"/><text fill="#111111" font-family="Helvetica" font-size="14" lengthAdjust="spacingAndGlyphs" textLength="70" x="180" y="786.9482">Persistent</text><text fill="#111111" font-family="Helvetica" font-size="14" lengthAdjust="spacingAndGlyphs" textLength="122" x="180" y="803.2451">Agent Knowledge</text><!--MD5=[1e9204083aa66e691856924869ece9f5]
entity Input--><rect fill="#FFFACC" height="52.5938" rx="4" ry="4" style="stroke: #1F4768; stroke-width: 1.5;" width="204" x="294" y="29.4531"/><text fill="#111111" font-family="Helvetica" font-size="14" lengthAdjust="spacingAndGlyphs" textLength="87" x="304" y="52.4482">initial intent /</text><text fill="#111111" font-family="Helvetica" font-size="14" lengthAdjust="spacingAndGlyphs" textLength="184" x="304" y="68.7451">prompt / instruction / seed</text><!--MD5=[42d2a5af43078df8fdfc99a12a66dd88]
entity Wall--><rect fill="#F5D76E" height="36.2969" rx="4" ry="4" style="stroke: #1F4768; stroke-width: 1.5;" width="597" x="640.5" y="484.9531"/><text fill="#111111" font-family="Helvetica" font-size="14" lengthAdjust="spacingAndGlyphs" textLength="577" x="650.5" y="507.9482">═══════════  SPEC  (prescriptive)   ▏   IMPLEMENTATION  (descriptive)  ═══════════</text><!--MD5=[e38a78e35415c081adbe3d821d0b148b]
link Input to Seed--><!--MD5=[e38a78e35415c081adbe3d821d0b148b]
link Input to Seed--><path d="M401.35,82.7031 C402.28,98.1531 402.21,117.6331 401.14,132.4631 " fill="none" id="Input-&gt;Seed-1" style="stroke: #000000; stroke-width: 1.3;"/><polygon fill="#000000" points="400.7,137.7031,405.4315,129.0653,401.114,132.7203,397.459,128.4028,400.7,137.7031" style="stroke: #000000; stroke-width: 1.3;"/><!--MD5=[753688e9ea127a2cc1dc5f6f7f26d2ec]
link Seed to Wall--><!--MD5=[d926bdc6853d95b6d4dd2859c154efd9]
link Propose to Wall--><!--MD5=[d275db7c43bf4aa109fe61462e956e77]
link Critique to Wall--><!--MD5=[542ec8bbceaa41014e6e67185db3fa30]
link Revise to Wall--><!--MD5=[2d4f391ebc51c3c5b9cea9c50126b09d]
link Doctor to Wall--><!--MD5=[7262c2a99e12cda6ba34cf0a37ca4afd]
link Spec to Wall--><!--MD5=[b33c4623c17b319af0eb30d513257a19]
link PCQueue to Wall--><!--MD5=[8c6936dacc593da05f79d60bf74eab8a]
link History to Wall--><!--MD5=[30b1b23fe4b8847eaa6296869d74b93c]
link Wall to CaptureImplDrift--><!--MD5=[cf953b2d8ac17346daf70f6cd7f4bb72]
link Wall to Implement--><!--MD5=[64af85b199e427bb7fcb7a2347555cf2]
link Wall to CaptureSpecDrift--><!--MD5=[484ce1a2c136e00fa689b55aa5353e60]
link Wall to CaptureMemo--><!--MD5=[4af14fa99d7d0a651dd3a4c7e94ad725]
link Wall to ProcessMemos--><!--MD5=[f9382aea0f72ce57147dfa7d9b8bbb7b]
link Wall to Impl--><!--MD5=[f431459303bfda4cb6ea464b4f08d53f]
link Wall to WorkItems--><!--MD5=[6599c321d881ac2b28859c5cbda0e658]
link Wall to Memos--><!--MD5=[4db164b8cdbe5735f3f20147485402c4]
link Wall to AgentKnowledge--><!--MD5=[79b56c54669e1e209294348a48d118fe]
link Seed to Spec--><!--MD5=[79b56c54669e1e209294348a48d118fe]
link Seed to Spec--><path d="M401.88,174.2531 C411.47,215.7131 427.45,321.0131 431.94,370.7131 " fill="none" id="Seed-&gt;Spec-1" style="stroke: #000000; stroke-width: 1.3;"/><polygon fill="#000000" points="432.39,375.9131,435.6022,366.6028,431.9606,370.9316,427.6318,367.2899,432.39,375.9131" style="stroke: #000000; stroke-width: 1.3;"/><!--MD5=[16354ffdec047c3bcd386d8a602390a5]
link Spec to PCQueue--><!--MD5=[a69e2db2c58186bdfbdd2106032d7638]
link PCQueue to Revise--><!--MD5=[a69e2db2c58186bdfbdd2106032d7638]
link PCQueue to Revise--><path d="M560.88,273.4931 C561.12,281.2931 561,289.5631 560.54,296.9131 " fill="none" id="PCQueue-&gt;Revise-1" style="stroke: #000000; stroke-width: 1.3;"/><polygon fill="#000000" points="560.11,302.3231,564.7923,293.6585,560.4957,297.338,556.8161,293.0414,560.11,302.3231" style="stroke: #000000; stroke-width: 1.3;"/><!--MD5=[07bc2658038b75836dd6c06689447504]
link Revise to History--><!--MD5=[07bc2658038b75836dd6c06689447504]
link Revise to History--><path d="M560.12,338.7031 C560.79,345.7331 561.07,354.1431 560.98,362.3631 " fill="none" id="Revise-&gt;History-1" style="stroke: #000000; stroke-width: 1.3;"/><polygon fill="#000000" points="560.88,367.4431,565.0592,358.5249,560.98,362.4441,557.0608,358.3649,560.88,367.4431" style="stroke: #000000; stroke-width: 1.3;"/><!--MD5=[f0a82dc77730f883730a6bf29f010c28]
link History to Doctor--><!--MD5=[f0a82dc77730f883730a6bf29f010c28]
link History to Doctor--><path d="M560.53,429.6531 C561.29,445.6431 561.13,464.9331 560.06,479.5731 " fill="none" id="History-&gt;Doctor-1" style="stroke: #000000; stroke-width: 1.3;"/><polygon fill="#000000" points="559.62,484.7431,564.3515,476.1053,560.034,479.7603,556.379,475.4428,559.62,484.7431" style="stroke: #000000; stroke-width: 1.3;"/><!--MD5=[b3c0becafee6a151fb3879665cde06f2]
link Seed to Propose--><!--MD5=[4b7088b50206c39c71ad50e315c42573]
link Propose to Critique--><!--MD5=[720656fa03757a6dd551b9c09ee855cc]
link CaptureImplDrift to WorkItems--><!--MD5=[720656fa03757a6dd551b9c09ee855cc]
link CaptureImplDrift to WorkItems--><path d="M145.83,529.9231 C141.12,582.3031 123.62,700.1831 112.7,753.2131 " fill="none" id="CaptureImplDrift-&gt;WorkItems-1" style="stroke: #000000; stroke-width: 1.3;"/><polygon fill="#000000" points="111.67,758.1331,117.4336,750.1468,112.6972,753.2398,109.6042,748.5033,111.67,758.1331" style="stroke: #000000; stroke-width: 1.3;"/><!--MD5=[2aab1c731a56da689dc18e63568dc023]
link WorkItems to Implement--><!--MD5=[2aab1c731a56da689dc18e63568dc023]
link WorkItems to Implement--><path d="M103.4,803.5531 C105.08,810.9931 107.56,819.3631 110,826.9531 C110.94,829.8831 111.97,832.9431 113.09,835.9631 " fill="none" id="WorkItems-&gt;Implement-1" style="stroke: #000000; stroke-width: 1.3;"/><polygon fill="#000000" points="114.91,840.6331,115.3804,830.7955,113.0998,835.9723,107.923,833.6918,114.91,840.6331" style="stroke: #000000; stroke-width: 1.3;"/><!--MD5=[c017db10e1d74bf134a477058a6c34f9]
link Implement to WorkItems--><path d="M130.39,840.6331 C129.08,836.1931 127.43,831.4131 126,826.9531 C124.09,821.0231 122.17,814.6231 120.18,808.5531 " fill="none" id="Implement-&gt;WorkItems" style="stroke: #000000; stroke-width: 1.3;"/><polygon fill="#000000" points="118.51,803.5531,117.5702,813.357,120.0954,808.2951,125.1574,810.8204,118.51,803.5531" style="stroke: #000000; stroke-width: 1.3;"/><!--MD5=[b2585690133698ee634fbdabdb866ddf]
link Implement to Impl--><!--MD5=[b2585690133698ee634fbdabdb866ddf]
link Implement to Impl--><path d="M147.16,876.9831 C153.42,884.3631 160.27,893.1731 166.14,901.3531 " fill="none" id="Implement-&gt;Impl-1" style="stroke: #000000; stroke-width: 1.3;"/><polygon fill="#000000" points="169.3,905.8131,167.3751,896.1542,166.4155,901.7291,160.8406,900.7695,169.3,905.8131" style="stroke: #000000; stroke-width: 1.3;"/><!--MD5=[b5d618f00e26d8a6affcaa8f88949f81]
link Impl to CaptureSpecDrift--><!--MD5=[b5d618f00e26d8a6affcaa8f88949f81]
link Impl to CaptureSpecDrift--><path d="M210.45,951.0331 C220.06,958.8631 230.59,967.8531 240.02,976.2331 " fill="none" id="Impl-&gt;CaptureSpecDrift-1" style="stroke: #000000; stroke-width: 1.3;"/><polygon fill="#000000" points="243.99,979.7831,239.9591,970.7969,240.2672,976.4454,234.6187,976.7535,243.99,979.7831" style="stroke: #000000; stroke-width: 1.3;"/><!--MD5=[237e356c2c95219c0f1801b9c3b8259c]
link CaptureImplDrift to CaptureMemo--><!--MD5=[6de597d6f2c3b5db7bb29adef1fe1ed9]
link CaptureMemo to Memos--><!--MD5=[6de597d6f2c3b5db7bb29adef1fe1ed9]
link CaptureMemo to Memos--><path d="M279.34,529.5731 C280.19,543.6931 280.22,561.1931 279.42,575.5131 " fill="none" id="CaptureMemo-&gt;Memos-1" style="stroke: #000000; stroke-width: 1.3;"/><polygon fill="#000000" points="279.08,580.6331,283.6632,571.9156,279.4088,575.6439,275.6805,571.3896,279.08,580.6331" style="stroke: #000000; stroke-width: 1.3;"/><!--MD5=[436c56898a2138351dd1a7842b69aa77]
link Memos to ProcessMemos--><!--MD5=[436c56898a2138351dd1a7842b69aa77]
link Memos to ProcessMemos--><path d="M279.47,626.0331 C279.97,633.3031 280.12,641.5731 279.91,649.4231 " fill="none" id="Memos-&gt;ProcessMemos-1" style="stroke: #000000; stroke-width: 1.3;"/><polygon fill="#000000" points="279.71,654.7831,284.0422,645.9383,279.8961,649.7866,276.0478,645.6405,279.71,654.7831" style="stroke: #000000; stroke-width: 1.3;"/><!--MD5=[e81cbb5d45e320851ca1117dd08a4ab5]
link ProcessMemos to AgentKnowledge--><!--MD5=[e81cbb5d45e320851ca1117dd08a4ab5]
link ProcessMemos to AgentKnowledge--><path d="M265.33,708.0731 C261.52,719.3231 256.98,732.7231 252.87,744.8931 " fill="none" id="ProcessMemos-&gt;AgentKnowledge-1" style="stroke: #000000; stroke-width: 1.3;"/><polygon fill="#000000" points="251.25,749.6631,257.9236,742.42,252.8526,744.9269,250.3457,739.8559,251.25,749.6631" style="stroke: #000000; stroke-width: 1.3;"/><text fill="#000000" font-family="Helvetica" font-size="11" lengthAdjust="spacingAndGlyphs" textLength="58" x="262" y="733.1636">persistent</text><!--MD5=[6aed50f60f52d38e3c9589f0bac08744]
link Propose to PCQueue--><path d="M564.72,182.7631 C563.51,190.1031 562.16,198.2131 560.87,206.0131 " fill="none" id="Propose-&gt;PCQueue" style="stroke: #000000; stroke-width: 1.3;"/><polygon fill="#000000" points="559.99,211.3531,565.4036,203.1255,560.805,206.42,557.5106,201.8215,559.99,211.3531" style="stroke: #000000; stroke-width: 1.3;"/><!--MD5=[f8978627cb19ac31d7c0ec0d2ea4869c]
link Revise to Spec--><path d="M527.4,338.5131 C510.94,348.6731 489.78,361.7531 471.57,373.0031 " fill="none" id="Revise-&gt;Spec" style="stroke: #000000; stroke-width: 1.3;"/><polygon fill="#000000" points="467.01,375.8231,476.7693,374.4983,471.2644,373.1963,472.5664,367.6913,467.01,375.8231" style="stroke: #000000; stroke-width: 1.3;"/><!--MD5=[2c995db2faed80d07edb84013ad27120]
link Spec to Critique--><path d="M436.03,375.9131 C444.52,330.5231 464.19,225.4131 472.82,179.3131 " fill="none" id="Spec-&gt;Critique" style="stroke: #000000; stroke-width: 1.3;"/><polygon fill="#000000" points="473.76,174.2531,468.1813,182.3697,472.8455,179.1688,476.0463,183.8329,473.76,174.2531" style="stroke: #000000; stroke-width: 1.3;"/><!--MD5=[18d5bc04b48706048bc504d5ed50186f]
link Critique to PCQueue--><path d="M492.78,174.0531 C501.66,183.6731 513.07,196.0231 523.68,207.5231 " fill="none" id="Critique-&gt;PCQueue" style="stroke: #000000; stroke-width: 1.3;"/><polygon fill="#000000" points="527.24,211.3831,524.0792,202.0552,523.8504,207.7075,518.1982,207.4786,527.24,211.3831" style="stroke: #000000; stroke-width: 1.3;"/><!--MD5=[29c2b6ec2f05da293fae6f93ae2f3ebb]
link Spec to Doctor--><path d="M458.09,421.1931 C479.37,438.9331 509.25,463.8231 530.18,481.2731 " fill="none" id="Spec-&gt;Doctor" style="stroke: #000000; stroke-width: 1.3;"/><polygon fill="#000000" points="534.25,484.6631,529.8935,475.8302,530.4077,481.4636,524.7743,481.9778,534.25,484.6631" style="stroke: #000000; stroke-width: 1.3;"/><!--MD5=[72d9307b3c82660b77a8ab75c0a199d8]
link Spec to CaptureImplDrift--><path d="M378.21,409.0031 C336.26,417.4931 277.07,431.7831 228,452.4531 C214.35,458.2031 200.27,465.9431 187.72,473.5931 " fill="none" id="Spec-&gt;CaptureImplDrift" style="stroke: #A02020; stroke-width: 2.0;"/><polygon fill="#A02020" points="183.17,476.4031,192.9293,475.0783,187.4244,473.7763,188.7264,468.2713,183.17,476.4031" style="stroke: #A02020; stroke-width: 2.0;"/><!--MD5=[9ac5b994db1b2c9298cf648e6a8020e5]
link Spec to CaptureSpecDrift--><path d="M470.42,421.0931 C478.03,424.4931 486.1,427.5131 494,429.4531 C534.59,439.4131 1214.62,424.8431 1246,452.4531 C1281.99,484.1131 1263,511.0231 1263,558.9531 C1263,558.9531 1263,558.9531 1263,929.4531 C1263,977.4531 517.04,999.3131 316.91,1004.3131 " fill="none" id="Spec-&gt;CaptureSpecDrift" style="stroke: #A02020; stroke-width: 2.0;"/><polygon fill="#A02020" points="311.72,1004.4331,320.8198,1008.2005,316.7183,1004.3046,320.6142,1000.2031,311.72,1004.4331" style="stroke: #A02020; stroke-width: 2.0;"/><!--MD5=[b49b6bab658ee75b4c6a650f7a074aa0]
link Impl to CaptureImplDrift--><path d="M116.1,921.1931 C78.79,913.6031 39,896.8631 39,859.9531 C39,602.4531 39,602.4531 39,602.4531 C39,566.6231 71.88,540.2531 101.19,523.8531 " fill="none" id="Impl-&gt;CaptureImplDrift" style="stroke: #000000; stroke-width: 1.3;"/><polygon fill="#000000" points="105.85,521.3131,96.0326,522.1,101.4578,523.7024,99.8554,529.1275,105.85,521.3131" style="stroke: #000000; stroke-width: 1.3;"/><!--MD5=[9529e34aeb4698c65548104dd048aaa7]
link CaptureSpecDrift to Propose--><path d="M311.65,1004.6531 C511.68,1000.7231 1331,981.4331 1331,929.4531 C1331,241.4531 1331,241.4531 1331,241.4531 C1331,168.7431 775.88,158.5931 613.26,157.1831 " fill="none" id="CaptureSpecDrift-&gt;Propose" style="stroke: #A02020; stroke-width: 2.0;"/><polygon fill="#A02020" points="608.1,157.1331,617.0654,161.2101,613.0998,157.176,617.134,153.2104,608.1,157.1331" style="stroke: #A02020; stroke-width: 2.0;"/><!--MD5=[f356670c5009cefe28fd37f9494e61d8]
link ProcessMemos to WorkItems--><path d="M235.88,691.4931 C213.53,697.8631 185.39,707.8031 163,721.9531 C149.16,730.7031 136.05,743.2931 125.8,754.5131 " fill="none" id="ProcessMemos-&gt;WorkItems" style="stroke: #000000; stroke-width: 1.3;"/><polygon fill="#000000" points="122.44,758.2531,131.4262,754.2222,125.7777,754.5303,125.4696,748.8818,122.44,758.2531" style="stroke: #000000; stroke-width: 1.3;"/><text fill="#000000" font-family="Helvetica" font-size="11" lengthAdjust="spacingAndGlyphs" textLength="63" x="164" y="733.1636">impl-bound</text><!--MD5=[bcae832c572b10c0086a5dbd5f75426b]
link ProcessMemos to Propose--><path d="M312.25,678.2131 C487.85,667.5231 1211.1,619.2231 1276,544.9531 C1303.05,513.9931 1292.89,489.9331 1276,452.4531 C1269.66,438.3831 1260.98,440.2931 1250,429.4531 C1217.53,397.4031 1181,399.0731 1181,353.4531 C1181,241.4531 1181,241.4531 1181,241.4531 C1181,184.1331 754.33,163.6231 613.5,158.4131 " fill="none" id="ProcessMemos-&gt;Propose" style="stroke: #A02020; stroke-width: 2.0;"/><polygon fill="#A02020" points="608.21,158.2231,617.0677,162.5292,613.2071,158.3945,617.3418,154.5339,608.21,158.2231" style="stroke: #A02020; stroke-width: 2.0;"/><text fill="#000000" font-family="Helvetica" font-size="11" lengthAdjust="spacingAndGlyphs" textLength="66" x="1251" y="402.6636">spec-bound</text><!--MD5=[4bd81d533c6cf9321431b9aefcac2dfd]
link Memos to Doctor--><path d="M309.87,589.8831 C362.96,571.2731 462.04,536.5331 516.57,517.4231 " fill="none" id="Memos-&gt;Doctor" style="stroke: #A02020; stroke-width: 2.0;"/><polygon fill="#A02020" points="521.38,515.7331,511.565,514.9176,516.6585,517.3785,514.1976,522.472,521.38,515.7331" style="stroke: #A02020; stroke-width: 2.0;"/><text fill="#000000" font-family="Helvetica" font-size="11" lengthAdjust="spacingAndGlyphs" textLength="54" x="415" y="564.1636">untriaged</text><!--MD5=[d989111732680e087424dd1e188c9c1c]
@startuml draft-tool-agnostic-workflow
title Tool-Agnostic Workflow — Spec / Implementation Lifecycle (DRAFT v7)


skinparam defaultFontName Helvetica
skinparam shadowing false
skinparam BackgroundColor #fafafa
skinparam ArrowColor #000000
skinparam ArrowFontColor #000000
skinparam ArrowFontSize 11
skinparam ArrowThickness 1.3
skinparam nodesep 16
skinparam ranksep 28
hide stereotype

skinparam rectangle {
  BackgroundColor #d6e6f5
  BorderColor #1f4768
  FontColor #111
  RoundCorner 8
}

skinparam database {
  BackgroundColor #f5ead5
  BorderColor #5a4319
  FontColor #111
}


rectangle "initial intent /\nprompt / instruction / seed" as Input #fffacc


together {
  rectangle "Seed" as Seed
  rectangle "Propose\nChange" as Propose
  rectangle "Critique" as Critique
  rectangle "Revise" as Revise
  rectangle "Doctor" as Doctor

  database "Specification" as Spec
  database "Proposed\nChanges" as PCQueue
  database "Specification\nHistory" as History
}


rectangle "═══════════  SPEC  (prescriptive)   ▏   IMPLEMENTATION  (descriptive)  ═══════════" as Wall #f5d76e


together {
  rectangle "Capture\nImpl Drift" as CaptureImplDrift
  rectangle "Implement" as Implement
  rectangle "Capture\nSpec Drift" as CaptureSpecDrift
  rectangle "Capture\nMemo" as CaptureMemo
  rectangle "Process\nMemos" as ProcessMemos

  database "Implementation" as Impl
  database "Work Items" as WorkItems
  database "Memos" as Memos
  database "Persistent\nAgent Knowledge" as AgentKnowledge
}


Input -[hidden]down-> Seed

Seed     -[hidden]down-> Wall
Propose  -[hidden]down-> Wall
Critique -[hidden]down-> Wall
Revise   -[hidden]down-> Wall
Doctor   -[hidden]down-> Wall
Spec     -[hidden]down-> Wall
PCQueue  -[hidden]down-> Wall
History  -[hidden]down-> Wall

Wall -[hidden]down-> CaptureImplDrift
Wall -[hidden]down-> Implement
Wall -[hidden]down-> CaptureSpecDrift
Wall -[hidden]down-> CaptureMemo
Wall -[hidden]down-> ProcessMemos
Wall -[hidden]down-> Impl
Wall -[hidden]down-> WorkItems
Wall -[hidden]down-> Memos
Wall -[hidden]down-> AgentKnowledge

Seed -[hidden]down-> Spec
Spec -[hidden]down-> PCQueue
PCQueue -[hidden]down-> Revise
Revise -[hidden]down-> History
History -[hidden]down-> Doctor
Seed -[hidden]right-> Propose
Propose -[hidden]right-> Critique

CaptureImplDrift -[hidden]down-> WorkItems
WorkItems -[hidden]down-> Implement
Implement -[hidden]down-> Impl
Impl -[hidden]down-> CaptureSpecDrift
CaptureImplDrift -[hidden]right-> CaptureMemo
CaptureMemo -[hidden]down-> Memos
Memos -[hidden]down-> ProcessMemos
ProcessMemos -[hidden]down-> AgentKnowledge


Input - -> Seed

Seed - -> Spec
Propose - -> PCQueue
PCQueue - -> Revise
Revise - -> Spec
Revise - -> History
Spec - -> Critique
Critique - -> PCQueue
Spec - -> Doctor
History - -> Doctor

Spec -[#a02020,thickness=2]-> CaptureImplDrift
Spec -[#a02020,thickness=2]-> CaptureSpecDrift

Impl - -> CaptureImplDrift
CaptureImplDrift - -> WorkItems
WorkItems - -> Implement
Implement - -> Impl
Implement - -> WorkItems

Impl - -> CaptureSpecDrift

CaptureSpecDrift -[#a02020,thickness=2]-> Propose

CaptureMemo - -> Memos
Memos - -> ProcessMemos
ProcessMemos - -> WorkItems : impl-bound
ProcessMemos - -> AgentKnowledge : persistent

ProcessMemos -[#a02020,thickness=2]-> Propose : spec-bound
Memos -[#a02020,thickness=2]-> Doctor : untriaged

@enduml

PlantUML version 1.2020.02(Sun Mar 01 11:22:07 CET 2020)
(GPL source distribution)
Java Runtime: OpenJDK Runtime Environment
JVM: OpenJDK 64-Bit Server VM
Java Version: 21.0.10+7-Ubuntu-125.10
Operating System: Linux
Default Encoding: UTF-8
Language: en
Country: null
--></g></svg>