<?xml version="1.0" encoding="UTF-8" standalone="no"?><svg xmlns="http://www.w3.org/2000/svg" xmlns:xlink="http://www.w3.org/1999/xlink" contentScriptType="application/ecmascript" contentStyleType="text/css" height="773px" preserveAspectRatio="none" style="width:671px;height:773px;background:#FAFAFA;" version="1.1" viewBox="0 0 671 773" width="671px" zoomAndPan="magnify"><defs/><g><text fill="#000000" font-family="Helvetica" font-size="18" lengthAdjust="spacingAndGlyphs" textLength="634" x="22" y="16.708">Tool-Agnostic Workflow — Spec / Implementation Lifecycle (DRAFT v8)</text><!--MD5=[781fc4211f0f0711d3811412dad38fe1]
cluster SpecPkg--><polygon fill="#FDE8EC" points="22,161.9531,217,161.9531,224,183.0859,258,183.0859,258,761.9531,22,761.9531,22,161.9531" style="stroke: #444444; stroke-width: 1.5;"/><line style="stroke: #444444; stroke-width: 1.5;" x1="22" x2="224" y1="183.0859" y2="183.0859"/><text fill="#111111" font-family="Helvetica" font-size="13" font-weight="bold" lengthAdjust="spacingAndGlyphs" textLength="189" x="26" y="176.02">SPEC SIDE  ▏ prescriptive</text><!--MD5=[4d90c78b95395404f4d0684d2e298718]
cluster ImplPkg--><polygon fill="#E3F0E3" points="282,44.9531,562,44.9531,569,66.0859,588,66.0859,588,679.9531,282,679.9531,282,44.9531" style="stroke: #444444; stroke-width: 1.5;"/><line style="stroke: #444444; stroke-width: 1.5;" x1="282" x2="569" y1="66.0859" y2="66.0859"/><text fill="#111111" font-family="Helvetica" font-size="13" font-weight="bold" lengthAdjust="spacingAndGlyphs" textLength="274" x="286" y="59.02">IMPLEMENTATION SIDE  ▏ descriptive</text><!--MD5=[9a5cf7b5ccfe99a8a50c4f56868c7fc8]
entity Seed--><rect fill="#D6E6F5" height="36.2969" rx="4" ry="4" style="stroke: #1F4768; stroke-width: 1.5;" width="56" x="119" y="195.9531"/><text fill="#111111" font-family="Helvetica" font-size="14" lengthAdjust="spacingAndGlyphs" textLength="36" x="129" y="218.9482">Seed</text><!--MD5=[b162903c3f5aa45441033ef018a482dd]
entity Propose--><rect fill="#D6E6F5" height="52.5938" rx="4" ry="4" style="stroke: #1F4768; stroke-width: 1.5;" width="78" x="164" y="360.9531"/><text fill="#111111" font-family="Helvetica" font-size="14" lengthAdjust="spacingAndGlyphs" textLength="58" x="174" y="383.9482">Propose</text><text fill="#111111" font-family="Helvetica" font-size="14" lengthAdjust="spacingAndGlyphs" textLength="54" x="174" y="400.2451">Change</text><!--MD5=[5bd62c65b3bf6048be3cb32942b001e5]
entity Critique--><rect fill="#D6E6F5" height="36.2969" rx="4" ry="4" style="stroke: #1F4768; stroke-width: 1.5;" width="73" x="56.5" y="369.4531"/><text fill="#111111" font-family="Helvetica" font-size="14" lengthAdjust="spacingAndGlyphs" textLength="53" x="66.5" y="392.4482">Critique</text><!--MD5=[e9c1fb24a4cd81b1c7322b8f0a98f11d]
entity Revise--><rect fill="#D6E6F5" height="36.2969" rx="4" ry="4" style="stroke: #1F4768; stroke-width: 1.5;" width="66" x="58" y="538.9531"/><text fill="#111111" font-family="Helvetica" font-size="14" lengthAdjust="spacingAndGlyphs" textLength="46" x="68" y="561.9482">Revise</text><!--MD5=[5a5d35bcfc46556bdff8e646cc6c81c2]
entity Doctor--><rect fill="#D6E6F5" height="36.2969" rx="4" ry="4" style="stroke: #1F4768; stroke-width: 1.5;" width="67" x="128.5" y="709.9531"/><text fill="#111111" font-family="Helvetica" font-size="14" lengthAdjust="spacingAndGlyphs" textLength="47" x="138.5" y="732.9482">Doctor</text><!--MD5=[5b0af1a53dfe6ce9d6337a803daa3faf]
entity Spec--><path d="M93.5,277.4531 C93.5,267.4531 147,267.4531 147,267.4531 C147,267.4531 200.5,267.4531 200.5,277.4531 L200.5,302.75 C200.5,312.75 147,312.75 147,312.75 C147,312.75 93.5,312.75 93.5,302.75 L93.5,277.4531 " fill="#F5EAD5" style="stroke: #5A4319; stroke-width: 1.5;"/><path d="M93.5,277.4531 C93.5,287.4531 147,287.4531 147,287.4531 C147,287.4531 200.5,287.4531 200.5,277.4531 " fill="none" style="stroke: #5A4319; stroke-width: 1.5;"/><text fill="#111111" font-family="Helvetica" font-size="14" lengthAdjust="spacingAndGlyphs" textLength="87" x="103.5" y="304.4482">Specification</text><!--MD5=[4cc95f85745661d7fbe872bf21a1bbc7]
entity PCQueue--><path d="M56.5,455.4531 C56.5,445.4531 100,445.4531 100,445.4531 C100,445.4531 143.5,445.4531 143.5,455.4531 L143.5,497.0469 C143.5,507.0469 100,507.0469 100,507.0469 C100,507.0469 56.5,507.0469 56.5,497.0469 L56.5,455.4531 " fill="#F5EAD5" style="stroke: #5A4319; stroke-width: 1.5;"/><path d="M56.5,455.4531 C56.5,465.4531 100,465.4531 100,465.4531 C100,465.4531 143.5,465.4531 143.5,455.4531 " fill="none" style="stroke: #5A4319; stroke-width: 1.5;"/><text fill="#111111" font-family="Helvetica" font-size="14" lengthAdjust="spacingAndGlyphs" textLength="67" x="66.5" y="482.4482">Proposed</text><text fill="#111111" font-family="Helvetica" font-size="14" lengthAdjust="spacingAndGlyphs" textLength="62" x="66.5" y="498.7451">Changes</text><!--MD5=[99a8f7b7d62222417991320410ebdaf2]
entity History--><path d="M37.5,616.4531 C37.5,606.4531 91,606.4531 91,606.4531 C91,606.4531 144.5,606.4531 144.5,616.4531 L144.5,658.0469 C144.5,668.0469 91,668.0469 91,668.0469 C91,668.0469 37.5,668.0469 37.5,658.0469 L37.5,616.4531 " fill="#F5EAD5" style="stroke: #5A4319; stroke-width: 1.5;"/><path d="M37.5,616.4531 C37.5,626.4531 91,626.4531 91,626.4531 C91,626.4531 144.5,626.4531 144.5,616.4531 " fill="none" style="stroke: #5A4319; stroke-width: 1.5;"/><text fill="#111111" font-family="Helvetica" font-size="14" lengthAdjust="spacingAndGlyphs" textLength="87" x="47.5" y="643.4482">Specification</text><text fill="#111111" font-family="Helvetica" font-size="14" lengthAdjust="spacingAndGlyphs" textLength="47" x="47.5" y="659.7451">History</text><!--MD5=[df3ae4b75a11c19708516fa9f9246517]
entity CaptureImplDrift--><rect fill="#D6E6F5" height="52.5938" rx="4" ry="4" style="stroke: #1F4768; stroke-width: 1.5;" width="80" x="492" y="263.4531"/><text fill="#111111" font-family="Helvetica" font-size="14" lengthAdjust="spacingAndGlyphs" textLength="55" x="502" y="286.4482">Capture</text><text fill="#111111" font-family="Helvetica" font-size="14" lengthAdjust="spacingAndGlyphs" textLength="60" x="502" y="302.7451">Impl Drift</text><!--MD5=[74a2a13639c756e3324faac020ef6e7d]
entity Implement--><rect fill="#D6E6F5" height="36.2969" rx="4" ry="4" style="stroke: #1F4768; stroke-width: 1.5;" width="93" x="458.5" y="458.4531"/><text fill="#111111" font-family="Helvetica" font-size="14" lengthAdjust="spacingAndGlyphs" textLength="73" x="468.5" y="481.4482">Implement</text><!--MD5=[c1efa0f0c0c85b9a5e73fcadb364593e]
entity CaptureSpecDrift--><rect fill="#D6E6F5" height="52.5938" rx="4" ry="4" style="stroke: #1F4768; stroke-width: 1.5;" width="87" x="298.5" y="610.9531"/><text fill="#111111" font-family="Helvetica" font-size="14" lengthAdjust="spacingAndGlyphs" textLength="55" x="308.5" y="633.9482">Capture</text><text fill="#111111" font-family="Helvetica" font-size="14" lengthAdjust="spacingAndGlyphs" textLength="67" x="308.5" y="650.2451">Spec Drift</text><!--MD5=[4d8b149103de154d2d36dbc14fb1ec50]
entity CaptureMemo--><rect fill="#D6E6F5" height="52.5938" rx="4" ry="4" style="stroke: #1F4768; stroke-width: 1.5;" width="75" x="466.5" y="78.9531"/><text fill="#111111" font-family="Helvetica" font-size="14" lengthAdjust="spacingAndGlyphs" textLength="55" x="476.5" y="101.9482">Capture</text><text fill="#111111" font-family="Helvetica" font-size="14" lengthAdjust="spacingAndGlyphs" textLength="43" x="476.5" y="118.2451">Memo</text><!--MD5=[38c3dd3a596b244014464f502c88eff1]
entity ProcessMemos--><rect fill="#D6E6F5" height="52.5938" rx="4" ry="4" style="stroke: #1F4768; stroke-width: 1.5;" width="76" x="374" y="263.4531"/><text fill="#111111" font-family="Helvetica" font-size="14" lengthAdjust="spacingAndGlyphs" textLength="56" x="384" y="286.4482">Process</text><text fill="#111111" font-family="Helvetica" font-size="14" lengthAdjust="spacingAndGlyphs" textLength="51" x="384" y="302.7451">Memos</text><!--MD5=[d4fd7068178ba922b82960301783db7d]
entity Impl--><path d="M441.5,544.4531 C441.5,534.4531 505,534.4531 505,534.4531 C505,534.4531 568.5,534.4531 568.5,544.4531 L568.5,569.75 C568.5,579.75 505,579.75 505,579.75 C505,579.75 441.5,579.75 441.5,569.75 L441.5,544.4531 " fill="#F5EAD5" style="stroke: #5A4319; stroke-width: 1.5;"/><path d="M441.5,544.4531 C441.5,554.4531 505,554.4531 505,554.4531 C505,554.4531 568.5,554.4531 568.5,544.4531 " fill="none" style="stroke: #5A4319; stroke-width: 1.5;"/><text fill="#111111" font-family="Helvetica" font-size="14" lengthAdjust="spacingAndGlyphs" textLength="107" x="451.5" y="571.4482">Implementation</text><!--MD5=[fa81577849114cbf168f391a566a9b63]
entity WorkItems--><path d="M456.5,374.9531 C456.5,364.9531 505,364.9531 505,364.9531 C505,364.9531 553.5,364.9531 553.5,374.9531 L553.5,400.25 C553.5,410.25 505,410.25 505,410.25 C505,410.25 456.5,410.25 456.5,400.25 L456.5,374.9531 " fill="#F5EAD5" style="stroke: #5A4319; stroke-width: 1.5;"/><path d="M456.5,374.9531 C456.5,384.9531 505,384.9531 505,384.9531 C505,384.9531 553.5,384.9531 553.5,374.9531 " fill="none" style="stroke: #5A4319; stroke-width: 1.5;"/><text fill="#111111" font-family="Helvetica" font-size="14" lengthAdjust="spacingAndGlyphs" textLength="77" x="466.5" y="401.9482">Work Items</text><!--MD5=[1c5e44e491cf6497969a38cc571a845e]
entity Memos--><path d="M468.5,201.4531 C468.5,191.4531 504,191.4531 504,191.4531 C504,191.4531 539.5,191.4531 539.5,201.4531 L539.5,226.75 C539.5,236.75 504,236.75 504,236.75 C504,236.75 468.5,236.75 468.5,226.75 L468.5,201.4531 " fill="#F5EAD5" style="stroke: #5A4319; stroke-width: 1.5;"/><path d="M468.5,201.4531 C468.5,211.4531 504,211.4531 504,211.4531 C504,211.4531 539.5,211.4531 539.5,201.4531 " fill="none" style="stroke: #5A4319; stroke-width: 1.5;"/><text fill="#111111" font-family="Helvetica" font-size="14" lengthAdjust="spacingAndGlyphs" textLength="51" x="478.5" y="228.4482">Memos</text><!--MD5=[cd20a034834c6e5d1841e96140da69e2]
entity AgentKnowledge--><path d="M298,366.4531 C298,356.4531 369,356.4531 369,356.4531 C369,356.4531 440,356.4531 440,366.4531 L440,408.0469 C440,418.0469 369,418.0469 369,418.0469 C369,418.0469 298,418.0469 298,408.0469 L298,366.4531 " fill="#F5EAD5" style="stroke: #5A4319; stroke-width: 1.5;"/><path d="M298,366.4531 C298,376.4531 369,376.4531 369,376.4531 C369,376.4531 440,376.4531 440,366.4531 " fill="none" style="stroke: #5A4319; stroke-width: 1.5;"/><text fill="#111111" font-family="Helvetica" font-size="14" lengthAdjust="spacingAndGlyphs" textLength="70" x="308" y="393.4482">Persistent</text><text fill="#111111" font-family="Helvetica" font-size="14" lengthAdjust="spacingAndGlyphs" textLength="122" x="308" y="409.7451">Agent Knowledge</text><!--MD5=[1e9204083aa66e691856924869ece9f5]
entity Input--><rect fill="#FFFACC" height="52.5938" rx="4" ry="4" style="stroke: #1F4768; stroke-width: 1.5;" width="204" x="45" y="78.9531"/><text fill="#111111" font-family="Helvetica" font-size="14" lengthAdjust="spacingAndGlyphs" textLength="87" x="55" y="101.9482">initial intent /</text><text fill="#111111" font-family="Helvetica" font-size="14" lengthAdjust="spacingAndGlyphs" textLength="184" x="55" y="118.2451">prompt / instruction / seed</text><!--MD5=[e38a78e35415c081adbe3d821d0b148b]
link Input to Seed--><path d="M147,131.9631 C147,149.8131 147,173.4231 147,190.5431 " fill="none" id="Input-&gt;Seed" style="stroke: #000000; stroke-width: 1.3;"/><polygon fill="#000000" points="147,195.6331,151,186.6331,147,190.6331,143,186.6331,147,195.6331" style="stroke: #000000; stroke-width: 1.3;"/><!--MD5=[79b56c54669e1e209294348a48d118fe]
link Seed to Spec--><path d="M147,232.1131 C147,241.0631 147,252.2031 147,262.2431 " fill="none" id="Seed-&gt;Spec" style="stroke: #000000; stroke-width: 1.3;"/><polygon fill="#000000" points="147,267.3731,151,258.3731,147,262.3731,143,258.3731,147,267.3731" style="stroke: #000000; stroke-width: 1.3;"/><!--MD5=[6aed50f60f52d38e3c9589f0bac08744]
link Propose to PCQueue--><path d="M172.65,414.0831 C162.3,422.8331 150.55,432.7531 139.58,442.0231 " fill="none" id="Propose-&gt;PCQueue" style="stroke: #000000; stroke-width: 1.3;"/><polygon fill="#000000" points="135.57,445.4031,145.0238,442.6416,139.3864,442.1728,139.8552,436.5354,135.57,445.4031" style="stroke: #000000; stroke-width: 1.3;"/><!--MD5=[a69e2db2c58186bdfbdd2106032d7638]
link PCQueue to Revise--><path d="M96.55,507.5831 C95.56,516.1531 94.51,525.3331 93.59,533.3731 " fill="none" id="PCQueue-&gt;Revise" style="stroke: #000000; stroke-width: 1.3;"/><polygon fill="#000000" points="92.97,538.7331,97.9716,530.2488,93.541,533.7658,90.0239,529.3352,92.97,538.7331" style="stroke: #000000; stroke-width: 1.3;"/><!--MD5=[f8978627cb19ac31d7c0ec0d2ea4869c]
link Revise to Spec--><path d="M70.19,538.8131 C61.58,530.3731 52.55,519.4431 48,507.4531 C24.19,444.7031 16.23,415.5631 48,356.4531 C57.36,339.0331 73.62,325.4631 90.29,315.3131 " fill="none" id="Revise-&gt;Spec" style="stroke: #000000; stroke-width: 1.3;"/><polygon fill="#000000" points="94.99,312.5431,85.2043,313.6571,90.68,315.0776,89.2595,320.5532,94.99,312.5431" style="stroke: #000000; stroke-width: 1.3;"/><!--MD5=[07bc2658038b75836dd6c06689447504]
link Revise to History--><path d="M91,574.9831 C91,582.6731 91,592.0531 91,601.1431 " fill="none" id="Revise-&gt;History" style="stroke: #000000; stroke-width: 1.3;"/><polygon fill="#000000" points="91,606.1531,95,597.1531,91,601.1531,87,597.1531,91,606.1531" style="stroke: #000000; stroke-width: 1.3;"/><!--MD5=[2c995db2faed80d07edb84013ad27120]
link Spec to Critique--><path d="M134.75,312.6231 C125.95,328.1831 114.14,349.0731 105.32,364.6631 " fill="none" id="Spec-&gt;Critique" style="stroke: #000000; stroke-width: 1.3;"/><polygon fill="#000000" points="102.69,369.3131,110.6033,363.4497,105.1522,364.9614,103.6405,359.5102,102.69,369.3131" style="stroke: #000000; stroke-width: 1.3;"/><!--MD5=[18d5bc04b48706048bc504d5ed50186f]
link Critique to PCQueue--><path d="M94.38,405.6431 C95.18,415.5231 96.21,428.3031 97.17,440.2231 " fill="none" id="Critique-&gt;PCQueue" style="stroke: #000000; stroke-width: 1.3;"/><polygon fill="#000000" points="97.57,445.2631,100.8353,435.9713,97.169,440.2792,92.8611,436.6129,97.57,445.2631" style="stroke: #000000; stroke-width: 1.3;"/><!--MD5=[29c2b6ec2f05da293fae6f93ae2f3ebb]
link Spec to Doctor--><path d="M148.49,312.6231 C152.29,367.8331 162,510.1731 162,520.4531 C162,520.4531 162,520.4531 162,638.4531 C162,660.8731 162,686.4831 162,704.3631 " fill="none" id="Spec-&gt;Doctor" style="stroke: #000000; stroke-width: 1.3;"/><polygon fill="#000000" points="162,709.6531,166,700.6531,162,704.6531,158,700.6531,162,709.6531" style="stroke: #000000; stroke-width: 1.3;"/><!--MD5=[f0a82dc77730f883730a6bf29f010c28]
link History to Doctor--><path d="M115.43,668.9131 C125.22,681.1131 136.26,694.8631 145.13,705.9231 " fill="none" id="History-&gt;Doctor" style="stroke: #000000; stroke-width: 1.3;"/><polygon fill="#000000" points="148.29,709.8731,145.7785,700.3499,145.1613,705.973,139.5382,705.3558,148.29,709.8731" style="stroke: #000000; stroke-width: 1.3;"/><!--MD5=[72d9307b3c82660b77a8ab75c0a199d8]
link Spec to CaptureImplDrift--><path d="M200.64,271.4131 C261.64,252.9731 363.92,230.0731 450,249.9531 C462.53,252.8431 475.37,257.9331 487.05,263.5231 " fill="none" id="Spec-&gt;CaptureImplDrift" style="stroke: #A02020; stroke-width: 2.0;"/><polygon fill="#A02020" points="491.64,265.7731,485.3209,258.2188,487.1508,263.5714,481.7982,265.4014,491.64,265.7731" style="stroke: #A02020; stroke-width: 2.0;"/><!--MD5=[9ac5b994db1b2c9298cf648e6a8020e5]
link Spec to CaptureSpecDrift--><path d="M200.68,310.0331 C232.63,325.1931 267,349.9731 267,386.4531 C267,386.4531 267,386.4531 267,557.9531 C267,577.5931 279.43,594.2531 294.16,607.1031 " fill="none" id="Spec-&gt;CaptureSpecDrift" style="stroke: #A02020; stroke-width: 2.0;"/><polygon fill="#A02020" points="298.37,610.6231,294.0491,601.7727,294.5406,607.4082,288.9052,607.8997,298.37,610.6231" style="stroke: #A02020; stroke-width: 2.0;"/><!--MD5=[b49b6bab658ee75b4c6a650f7a074aa0]
link Impl to CaptureImplDrift--><path d="M538.29,534.3231 C546.94,526.9231 555.17,517.8431 560,507.4531 C562.11,502.9131 565.76,373.6931 562,356.4531 C559.36,344.3731 554.29,331.8531 549.05,321.0331 " fill="none" id="Impl-&gt;CaptureImplDrift" style="stroke: #000000; stroke-width: 1.3;"/><polygon fill="#000000" points="546.81,316.5031,547.2321,326.3429,549.0347,320.981,554.3966,322.7835,546.81,316.5031" style="stroke: #000000; stroke-width: 1.3;"/><!--MD5=[720656fa03757a6dd551b9c09ee855cc]
link CaptureImplDrift to WorkItems--><path d="M535.58,316.4731 C535.99,325.1831 535.54,334.8931 533,343.4531 C531.26,349.3231 528.43,355.1431 525.23,360.5131 " fill="none" id="CaptureImplDrift-&gt;WorkItems" style="stroke: #000000; stroke-width: 1.3;"/><polygon fill="#000000" points="522.47,364.9131,530.6503,359.4283,525.1341,360.682,523.8804,355.1658,522.47,364.9131" style="stroke: #000000; stroke-width: 1.3;"/><!--MD5=[2aab1c731a56da689dc18e63568dc023]
link WorkItems to Implement--><path d="M499.74,409.9631 C498.77,423.1031 498.75,439.8931 499.69,453.1831 " fill="none" id="WorkItems-&gt;Implement" style="stroke: #000000; stroke-width: 1.3;"/><polygon fill="#000000" points="500.11,458.2731,503.351,448.9728,499.696,453.2903,495.3785,449.6353,500.11,458.2731" style="stroke: #000000; stroke-width: 1.3;"/><!--MD5=[c017db10e1d74bf134a477058a6c34f9]
link Implement to WorkItems--><path d="M509.89,458.2731 C511.09,445.9331 511.32,429.0631 510.58,415.0031 " fill="none" id="Implement-&gt;WorkItems" style="stroke: #000000; stroke-width: 1.3;"/><polygon fill="#000000" points="510.26,409.9631,506.8341,419.1969,510.5746,414.9532,514.8183,418.6936,510.26,409.9631" style="stroke: #000000; stroke-width: 1.3;"/><!--MD5=[b2585690133698ee634fbdabdb866ddf]
link Implement to Impl--><path d="M505,494.4831 C505,504.5731 505,517.5831 505,529.0331 " fill="none" id="Implement-&gt;Impl" style="stroke: #000000; stroke-width: 1.3;"/><polygon fill="#000000" points="505,534.1731,509,525.1731,505,529.1731,501,525.1731,505,534.1731" style="stroke: #000000; stroke-width: 1.3;"/><!--MD5=[b5d618f00e26d8a6affcaa8f88949f81]
link Impl to CaptureSpecDrift--><path d="M460.03,579.6131 C438.39,590.0331 412.41,602.5431 390.35,613.1731 " fill="none" id="Impl-&gt;CaptureSpecDrift" style="stroke: #000000; stroke-width: 1.3;"/><polygon fill="#000000" points="385.7,615.4031,395.544,615.0943,390.2031,613.2302,392.0673,607.8893,385.7,615.4031" style="stroke: #000000; stroke-width: 1.3;"/><!--MD5=[9529e34aeb4698c65548104dd048aaa7]
link CaptureSpecDrift to Propose--><path d="M298.44,623.9031 C282.37,617.2531 265.33,607.4631 254,593.4531 C212.78,542.4831 204.26,462.7531 202.87,419.2731 " fill="none" id="CaptureSpecDrift-&gt;Propose" style="stroke: #A02020; stroke-width: 2.0;"/><polygon fill="#A02020" points="202.73,414.1531,198.9894,423.264,202.8732,419.1511,206.9861,423.0349,202.73,414.1531" style="stroke: #A02020; stroke-width: 2.0;"/><!--MD5=[6de597d6f2c3b5db7bb29adef1fe1ed9]
link CaptureMemo to Memos--><path d="M504,131.9631 C504,148.3631 504,169.6231 504,186.2431 " fill="none" id="CaptureMemo-&gt;Memos" style="stroke: #000000; stroke-width: 1.3;"/><polygon fill="#000000" points="504,191.2431,508,182.2431,504,186.2431,500,182.2431,504,191.2431" style="stroke: #000000; stroke-width: 1.3;"/><!--MD5=[436c56898a2138351dd1a7842b69aa77]
link Memos to ProcessMemos--><path d="M476.89,236.7531 C467.8,244.0631 457.52,252.3331 447.87,260.1031 " fill="none" id="Memos-&gt;ProcessMemos" style="stroke: #000000; stroke-width: 1.3;"/><polygon fill="#000000" points="443.77,263.3931,453.2831,260.8433,447.6576,260.2488,448.2521,254.6233,443.77,263.3931" style="stroke: #000000; stroke-width: 1.3;"/><!--MD5=[f356670c5009cefe28fd37f9494e61d8]
link ProcessMemos to WorkItems--><path d="M436.92,316.5431 C450.3,330.2831 466.74,347.1631 480.11,360.8931 " fill="none" id="ProcessMemos-&gt;WorkItems" style="stroke: #000000; stroke-width: 1.3;"/><polygon fill="#000000" points="483.8,364.6831,480.3948,355.4417,480.3148,361.098,474.6585,361.018,483.8,364.6831" style="stroke: #000000; stroke-width: 1.3;"/><text fill="#000000" font-family="Helvetica" font-size="11" lengthAdjust="spacingAndGlyphs" textLength="63" x="462" y="340.6636">impl-bound</text><!--MD5=[e81cbb5d45e320851ca1117dd08a4ab5]
link ProcessMemos to AgentKnowledge--><path d="M394.06,316.4931 C391.5,320.7131 389.04,325.1331 387,329.4531 C383.76,336.3131 380.9,343.9131 378.48,351.2531 " fill="none" id="ProcessMemos-&gt;AgentKnowledge" style="stroke: #000000; stroke-width: 1.3;"/><polygon fill="#000000" points="376.86,356.2931,383.4215,348.9483,378.3896,351.5328,375.805,346.5009,376.86,356.2931" style="stroke: #000000; stroke-width: 1.3;"/><text fill="#000000" font-family="Helvetica" font-size="11" lengthAdjust="spacingAndGlyphs" textLength="58" x="388" y="340.6636">persistent</text><!--MD5=[bcae832c572b10c0086a5dbd5f75426b]
link ProcessMemos to Propose--><path d="M373.83,303.8231 C354.2,310.7931 330.04,319.9131 309,329.4531 C288.12,338.9131 265.67,350.7331 246.83,361.1531 " fill="none" id="ProcessMemos-&gt;Propose" style="stroke: #A02020; stroke-width: 2.0;"/><polygon fill="#A02020" points="242.12,363.7731,251.93,362.899,246.4908,361.3449,248.0448,355.9057,242.12,363.7731" style="stroke: #A02020; stroke-width: 2.0;"/><text fill="#000000" font-family="Helvetica" font-size="11" lengthAdjust="spacingAndGlyphs" textLength="66" x="310" y="340.6636">spec-bound</text><!--MD5=[4bd81d533c6cf9321431b9aefcac2dfd]
link Memos to Doctor--><path d="M539.54,225.2031 C568.28,235.9331 604,255.9131 604,288.9531 C604,288.9531 604,288.9531 604,638.4531 C604,720.3231 308.78,727.4831 200.89,727.3731 " fill="none" id="Memos-&gt;Doctor" style="stroke: #A02020; stroke-width: 2.0;"/><polygon fill="#A02020" points="195.58,727.3531,204.5685,731.3788,200.58,727.3674,204.5914,723.3789,195.58,727.3531" style="stroke: #A02020; stroke-width: 2.0;"/><text fill="#000000" font-family="Helvetica" font-size="11" lengthAdjust="spacingAndGlyphs" textLength="54" x="605" y="480.6636">untriaged</text><!--MD5=[38ae94b8432c540a909bb84751e46ba6]
@startuml draft-tool-agnostic-workflow
title Tool-Agnostic Workflow — Spec / Implementation Lifecycle (DRAFT v8)


skinparam defaultFontName Helvetica
skinparam shadowing false
skinparam BackgroundColor #fafafa
skinparam ArrowColor #000000
skinparam ArrowFontColor #000000
skinparam ArrowFontSize 11
skinparam ArrowThickness 1.3
skinparam nodesep 16
skinparam ranksep 26
hide stereotype

skinparam package {
  FontColor #111
  FontSize 13
  FontStyle bold
  BorderColor #444
  BorderThickness 2
}

skinparam rectangle {
  BackgroundColor #d6e6f5
  BorderColor #1f4768
  FontColor #111
  RoundCorner 8
}

skinparam database {
  BackgroundColor #f5ead5
  BorderColor #5a4319
  FontColor #111
}


rectangle "initial intent /\nprompt / instruction / seed" as Input #fffacc


package "SPEC SIDE  ▏ prescriptive" as SpecPkg #fde8ec {
  rectangle "Seed" as Seed
  rectangle "Propose\nChange" as Propose
  rectangle "Critique" as Critique
  rectangle "Revise" as Revise
  rectangle "Doctor" as Doctor

  database "Specification" as Spec
  database "Proposed\nChanges" as PCQueue
  database "Specification\nHistory" as History
}


package "IMPLEMENTATION SIDE  ▏ descriptive" as ImplPkg #e3f0e3 {
  rectangle "Capture\nImpl Drift" as CaptureImplDrift
  rectangle "Implement" as Implement
  rectangle "Capture\nSpec Drift" as CaptureSpecDrift
  rectangle "Capture\nMemo" as CaptureMemo
  rectangle "Process\nMemos" as ProcessMemos

  database "Implementation" as Impl
  database "Work Items" as WorkItems
  database "Memos" as Memos
  database "Persistent\nAgent Knowledge" as AgentKnowledge
}


Input - -> Seed

Seed - -> Spec
Propose - -> PCQueue
PCQueue - -> Revise
Revise - -> Spec
Revise - -> History
Spec - -> Critique
Critique - -> PCQueue
Spec - -> Doctor
History - -> Doctor

Spec -[#a02020,thickness=2]-> CaptureImplDrift

Spec -[#a02020,thickness=2]-> CaptureSpecDrift

Impl - -> CaptureImplDrift
CaptureImplDrift - -> WorkItems
WorkItems - -> Implement
Implement - -> Impl
Implement - -> WorkItems

Impl - -> CaptureSpecDrift

CaptureSpecDrift -[#a02020,thickness=2]-> Propose

CaptureMemo - -> Memos
Memos - -> ProcessMemos
ProcessMemos - -> WorkItems : impl-bound
ProcessMemos - -> AgentKnowledge : persistent

ProcessMemos -[#a02020,thickness=2]-> Propose : spec-bound

Memos -[#a02020,thickness=2]-> Doctor : untriaged

@enduml

PlantUML version 1.2020.02(Sun Mar 01 11:22:07 CET 2020)
(GPL source distribution)
Java Runtime: OpenJDK Runtime Environment
JVM: OpenJDK 64-Bit Server VM
Java Version: 21.0.10+7-Ubuntu-125.10
Operating System: Linux
Default Encoding: UTF-8
Language: en
Country: null
--></g></svg>