<?xml version="1.0" encoding="UTF-8" standalone="no"?><svg xmlns="http://www.w3.org/2000/svg" xmlns:xlink="http://www.w3.org/1999/xlink" contentScriptType="application/ecmascript" contentStyleType="text/css" height="1101px" preserveAspectRatio="none" style="width:925px;height:1101px;background:#FAFAFA;" version="1.1" viewBox="0 0 925 1101" width="925px" zoomAndPan="magnify"><defs/><g><text fill="#000000" font-family="Helvetica" font-size="18" lengthAdjust="spacingAndGlyphs" textLength="634" x="149" y="16.708">Tool-Agnostic Workflow — Spec / Implementation Lifecycle (DRAFT v2)</text><!--MD5=[781fc4211f0f0711d3811412dad38fe1]
cluster SpecPkg--><polygon fill="#FDE8EC" points="22,300.4531,217,300.4531,224,321.5859,315,321.5859,315,1089.9531,22,1089.9531,22,300.4531" style="stroke: #555555; stroke-width: 1.5;"/><line style="stroke: #555555; stroke-width: 1.5;" x1="22" x2="224" y1="321.5859" y2="321.5859"/><text fill="#111111" font-family="Helvetica" font-size="13" font-weight="bold" lengthAdjust="spacingAndGlyphs" textLength="189" x="26" y="314.52">SPEC SIDE  ▏ prescriptive</text><!--MD5=[4d90c78b95395404f4d0684d2e298718]
cluster ImplPkg--><polygon fill="#E3F0E3" points="460,153.9531,740,153.9531,747,175.0859,804,175.0859,804,988.4531,460,988.4531,460,153.9531" style="stroke: #555555; stroke-width: 1.5;"/><line style="stroke: #555555; stroke-width: 1.5;" x1="460" x2="747" y1="175.0859" y2="175.0859"/><text fill="#111111" font-family="Helvetica" font-size="13" font-weight="bold" lengthAdjust="spacingAndGlyphs" textLength="274" x="464" y="168.02">IMPLEMENTATION SIDE  ▏ descriptive</text><!--MD5=[9a5cf7b5ccfe99a8a50c4f56868c7fc8]
entity Seed--><rect fill="#D6E6F5" height="36.2969" rx="4" ry="4" style="stroke: #3A6A9A; stroke-width: 1.5;" width="56" x="81" y="334.4531"/><text fill="#111111" font-family="Helvetica" font-size="14" lengthAdjust="spacingAndGlyphs" textLength="36" x="91" y="357.4482">Seed</text><!--MD5=[b162903c3f5aa45441033ef018a482dd]
entity Propose--><rect fill="#D6E6F5" height="52.5938" rx="4" ry="4" style="stroke: #3A6A9A; stroke-width: 1.5;" width="78" x="221" y="567.4531"/><text fill="#111111" font-family="Helvetica" font-size="14" lengthAdjust="spacingAndGlyphs" textLength="58" x="231" y="590.4482">Propose</text><text fill="#111111" font-family="Helvetica" font-size="14" lengthAdjust="spacingAndGlyphs" textLength="54" x="231" y="606.7451">Change</text><!--MD5=[5bd62c65b3bf6048be3cb32942b001e5]
entity Critique--><rect fill="#D6E6F5" height="36.2969" rx="4" ry="4" style="stroke: #3A6A9A; stroke-width: 1.5;" width="73" x="112.5" y="575.9531"/><text fill="#111111" font-family="Helvetica" font-size="14" lengthAdjust="spacingAndGlyphs" textLength="53" x="122.5" y="598.9482">Critique</text><!--MD5=[e9c1fb24a4cd81b1c7322b8f0a98f11d]
entity Revise--><rect fill="#D6E6F5" height="36.2969" rx="4" ry="4" style="stroke: #3A6A9A; stroke-width: 1.5;" width="66" x="166" y="813.4531"/><text fill="#111111" font-family="Helvetica" font-size="14" lengthAdjust="spacingAndGlyphs" textLength="46" x="176" y="836.4482">Revise</text><!--MD5=[5a5d35bcfc46556bdff8e646cc6c81c2]
entity Doctor--><rect fill="#D6E6F5" height="36.2969" rx="4" ry="4" style="stroke: #3A6A9A; stroke-width: 1.5;" width="67" x="165.5" y="1037.9531"/><text fill="#111111" font-family="Helvetica" font-size="14" lengthAdjust="spacingAndGlyphs" textLength="47" x="175.5" y="1060.9482">Doctor</text><!--MD5=[5b0af1a53dfe6ce9d6337a803daa3faf]
entity Spec--><path d="M42.5,449.9531 C42.5,439.9531 96,439.9531 96,439.9531 C96,439.9531 149.5,439.9531 149.5,449.9531 L149.5,475.25 C149.5,485.25 96,485.25 96,485.25 C96,485.25 42.5,485.25 42.5,475.25 L42.5,449.9531 " fill="#F5EAD5" style="stroke: #8A6B3A; stroke-width: 1.5;"/><path d="M42.5,449.9531 C42.5,459.9531 96,459.9531 96,459.9531 C96,459.9531 149.5,459.9531 149.5,449.9531 " fill="none" style="stroke: #8A6B3A; stroke-width: 1.5;"/><text fill="#111111" font-family="Helvetica" font-size="14" lengthAdjust="spacingAndGlyphs" textLength="87" x="52.5" y="476.9482">Specification</text><!--MD5=[4cc95f85745661d7fbe872bf21a1bbc7]
entity PCQueue--><path d="M155.5,695.9531 C155.5,685.9531 199,685.9531 199,685.9531 C199,685.9531 242.5,685.9531 242.5,695.9531 L242.5,737.5469 C242.5,747.5469 199,747.5469 199,747.5469 C199,747.5469 155.5,747.5469 155.5,737.5469 L155.5,695.9531 " fill="#F5EAD5" style="stroke: #8A6B3A; stroke-width: 1.5;"/><path d="M155.5,695.9531 C155.5,705.9531 199,705.9531 199,705.9531 C199,705.9531 242.5,705.9531 242.5,695.9531 " fill="none" style="stroke: #8A6B3A; stroke-width: 1.5;"/><text fill="#111111" font-family="Helvetica" font-size="14" lengthAdjust="spacingAndGlyphs" textLength="67" x="165.5" y="722.9482">Proposed</text><text fill="#111111" font-family="Helvetica" font-size="14" lengthAdjust="spacingAndGlyphs" textLength="62" x="165.5" y="739.2451">Changes</text><!--MD5=[99a8f7b7d62222417991320410ebdaf2]
entity History--><path d="M145.5,924.9531 C145.5,914.9531 199,914.9531 199,914.9531 C199,914.9531 252.5,914.9531 252.5,924.9531 L252.5,966.5469 C252.5,976.5469 199,976.5469 199,976.5469 C199,976.5469 145.5,976.5469 145.5,966.5469 L145.5,924.9531 " fill="#F5EAD5" style="stroke: #8A6B3A; stroke-width: 1.5;"/><path d="M145.5,924.9531 C145.5,934.9531 199,934.9531 199,934.9531 C199,934.9531 252.5,934.9531 252.5,924.9531 " fill="none" style="stroke: #8A6B3A; stroke-width: 1.5;"/><text fill="#111111" font-family="Helvetica" font-size="14" lengthAdjust="spacingAndGlyphs" textLength="87" x="155.5" y="951.9482">Specification</text><text fill="#111111" font-family="Helvetica" font-size="14" lengthAdjust="spacingAndGlyphs" textLength="47" x="155.5" y="968.2451">History</text><!--MD5=[df3ae4b75a11c19708516fa9f9246517]
entity CaptureImplDrift--><rect fill="#D6E6F5" height="52.5938" rx="4" ry="4" style="stroke: #3A6A9A; stroke-width: 1.5;" width="80" x="670" y="435.9531"/><text fill="#111111" font-family="Helvetica" font-size="14" lengthAdjust="spacingAndGlyphs" textLength="55" x="680" y="458.9482">Capture</text><text fill="#111111" font-family="Helvetica" font-size="14" lengthAdjust="spacingAndGlyphs" textLength="60" x="680" y="475.2451">Impl Drift</text><!--MD5=[74a2a13639c756e3324faac020ef6e7d]
entity Implement--><rect fill="#D6E6F5" height="36.2969" rx="4" ry="4" style="stroke: #3A6A9A; stroke-width: 1.5;" width="93" x="655.5" y="698.9531"/><text fill="#111111" font-family="Helvetica" font-size="14" lengthAdjust="spacingAndGlyphs" textLength="73" x="665.5" y="721.9482">Implement</text><!--MD5=[c1efa0f0c0c85b9a5e73fcadb364593e]
entity CaptureSpecDrift--><rect fill="#D6E6F5" height="52.5938" rx="4" ry="4" style="stroke: #3A6A9A; stroke-width: 1.5;" width="87" x="522.5" y="919.4531"/><text fill="#111111" font-family="Helvetica" font-size="14" lengthAdjust="spacingAndGlyphs" textLength="55" x="532.5" y="942.4482">Capture</text><text fill="#111111" font-family="Helvetica" font-size="14" lengthAdjust="spacingAndGlyphs" textLength="67" x="532.5" y="958.7451">Spec Drift</text><!--MD5=[4d8b149103de154d2d36dbc14fb1ec50]
entity CaptureMemo--><rect fill="#D6E6F5" height="52.5938" rx="4" ry="4" style="stroke: #3A6A9A; stroke-width: 1.5;" width="75" x="492.5" y="187.9531"/><text fill="#111111" font-family="Helvetica" font-size="14" lengthAdjust="spacingAndGlyphs" textLength="55" x="502.5" y="210.9482">Capture</text><text fill="#111111" font-family="Helvetica" font-size="14" lengthAdjust="spacingAndGlyphs" textLength="43" x="502.5" y="227.2451">Memo</text><!--MD5=[38c3dd3a596b244014464f502c88eff1]
entity ProcessMemos--><rect fill="#D6E6F5" height="52.5938" rx="4" ry="4" style="stroke: #3A6A9A; stroke-width: 1.5;" width="76" x="501" y="435.9531"/><text fill="#111111" font-family="Helvetica" font-size="14" lengthAdjust="spacingAndGlyphs" textLength="56" x="511" y="458.9482">Process</text><text fill="#111111" font-family="Helvetica" font-size="14" lengthAdjust="spacingAndGlyphs" textLength="51" x="511" y="475.2451">Memos</text><!--MD5=[d4fd7068178ba922b82960301783db7d]
entity Impl--><path d="M638.5,818.9531 C638.5,808.9531 702,808.9531 702,808.9531 C702,808.9531 765.5,808.9531 765.5,818.9531 L765.5,844.25 C765.5,854.25 702,854.25 702,854.25 C702,854.25 638.5,854.25 638.5,844.25 L638.5,818.9531 " fill="#F5EAD5" style="stroke: #8A6B3A; stroke-width: 1.5;"/><path d="M638.5,818.9531 C638.5,828.9531 702,828.9531 702,828.9531 C702,828.9531 765.5,828.9531 765.5,818.9531 " fill="none" style="stroke: #8A6B3A; stroke-width: 1.5;"/><text fill="#111111" font-family="Helvetica" font-size="14" lengthAdjust="spacingAndGlyphs" textLength="107" x="648.5" y="845.9482">Implementation</text><!--MD5=[fa81577849114cbf168f391a566a9b63]
entity WorkItems--><path d="M653.5,581.4531 C653.5,571.4531 702,571.4531 702,571.4531 C702,571.4531 750.5,571.4531 750.5,581.4531 L750.5,606.75 C750.5,616.75 702,616.75 702,616.75 C702,616.75 653.5,616.75 653.5,606.75 L653.5,581.4531 " fill="#F5EAD5" style="stroke: #8A6B3A; stroke-width: 1.5;"/><path d="M653.5,581.4531 C653.5,591.4531 702,591.4531 702,591.4531 C702,591.4531 750.5,591.4531 750.5,581.4531 " fill="none" style="stroke: #8A6B3A; stroke-width: 1.5;"/><text fill="#111111" font-family="Helvetica" font-size="14" lengthAdjust="spacingAndGlyphs" textLength="77" x="663.5" y="608.4482">Work Items</text><!--MD5=[1c5e44e491cf6497969a38cc571a845e]
entity Memos--><path d="M503.5,339.9531 C503.5,329.9531 539,329.9531 539,329.9531 C539,329.9531 574.5,329.9531 574.5,339.9531 L574.5,365.25 C574.5,375.25 539,375.25 539,375.25 C539,375.25 503.5,375.25 503.5,365.25 L503.5,339.9531 " fill="#F5EAD5" style="stroke: #8A6B3A; stroke-width: 1.5;"/><path d="M503.5,339.9531 C503.5,349.9531 539,349.9531 539,349.9531 C539,349.9531 574.5,349.9531 574.5,339.9531 " fill="none" style="stroke: #8A6B3A; stroke-width: 1.5;"/><text fill="#111111" font-family="Helvetica" font-size="14" lengthAdjust="spacingAndGlyphs" textLength="51" x="513.5" y="366.9482">Memos</text><!--MD5=[cd20a034834c6e5d1841e96140da69e2]
entity AgentKnowledge--><path d="M476,572.9531 C476,562.9531 547,562.9531 547,562.9531 C547,562.9531 618,562.9531 618,572.9531 L618,614.5469 C618,624.5469 547,624.5469 547,624.5469 C547,624.5469 476,624.5469 476,614.5469 L476,572.9531 " fill="#F5EAD5" style="stroke: #8A6B3A; stroke-width: 1.5;"/><path d="M476,572.9531 C476,582.9531 547,582.9531 547,582.9531 C547,582.9531 618,582.9531 618,572.9531 " fill="none" style="stroke: #8A6B3A; stroke-width: 1.5;"/><text fill="#111111" font-family="Helvetica" font-size="14" lengthAdjust="spacingAndGlyphs" textLength="70" x="486" y="599.9482">Persistent</text><text fill="#111111" font-family="Helvetica" font-size="14" lengthAdjust="spacingAndGlyphs" textLength="122" x="486" y="616.2451">Agent Knowledge</text><!--MD5=[fee662a292a0353a69bd162820bae93b]
entity User--><ellipse cx="203" cy="184.9531" fill="#FFFFFF" rx="8" ry="8" style="stroke: #111111; stroke-width: 1.5;"/><path d="M203,192.9531 L203,219.9531 M190,200.9531 L216,200.9531 M203,219.9531 L190,234.9531 M203,219.9531 L216,234.9531 " fill="none" style="stroke: #111111; stroke-width: 1.5;"/><text fill="#111111" font-family="Helvetica" font-size="14" lengthAdjust="spacingAndGlyphs" textLength="32" x="187" y="250.4482">User</text><!--MD5=[9cb65aab968679016cabe6121c7526ca]
entity Agent--><ellipse cx="443" cy="38.4531" fill="#FFFFFF" rx="8" ry="8" style="stroke: #111111; stroke-width: 1.5;"/><path d="M443,46.4531 L443,73.4531 M430,54.4531 L456,54.4531 M443,73.4531 L430,88.4531 M443,73.4531 L456,88.4531 " fill="none" style="stroke: #111111; stroke-width: 1.5;"/><text fill="#111111" font-family="Helvetica" font-size="14" lengthAdjust="spacingAndGlyphs" textLength="41" x="422.5" y="103.9482">Agent</text><!--MD5=[5e95e166e00c9e068e13f58d56d13077]
link User to Seed--><path d="M186.84,238.8331 C169.08,264.5331 140.79,305.4631 123.65,330.2631 " fill="none" id="User-&gt;Seed" style="stroke: #333333; stroke-width: 1.0;"/><polygon fill="#333333" points="120.79,334.3931,129.197,329.2626,123.6323,330.2796,122.6154,324.7149,120.79,334.3931" style="stroke: #333333; stroke-width: 1.0;"/><!--MD5=[f97fcc04ce69ed847176b855b2ea6ea0]
link User to Propose--><path d="M208.78,253.7231 C220.09,328.6231 244.94,493.2431 255.31,561.9131 " fill="none" id="User-&gt;Propose" style="stroke: #333333; stroke-width: 1.0;"/><polygon fill="#333333" points="256.09,567.0731,258.708,557.5786,255.3469,562.1287,250.7968,558.7676,256.09,567.0731" style="stroke: #333333; stroke-width: 1.0;"/><!--MD5=[6db319762a472eb47f21069fb06b4840]
link User to Revise--><path d="M219.23,221.2731 C257.85,236.2831 352,280.1831 352,351.4531 C352,351.4531 352,351.4531 352,526.9531 C352,644.3231 259.63,762.5331 218.43,809.4131 " fill="none" id="User-&gt;Revise" style="stroke: #333333; stroke-width: 1.0;"/><polygon fill="#333333" points="215.08,813.1931,224.0412,809.1069,218.3947,809.4498,218.0518,803.8033,215.08,813.1931" style="stroke: #333333; stroke-width: 1.0;"/><!--MD5=[0357b5824b0aed4978512d941c811c27]
link Agent to CaptureMemo--><path d="M463.62,103.1931 C478.22,127.4531 497.63,159.6931 511.69,183.0431 " fill="none" id="Agent-&gt;CaptureMemo" style="stroke: #333333; stroke-width: 1.0;"/><polygon fill="#333333" points="514.43,187.5931,513.2056,177.8207,511.847,183.312,506.3557,181.9534,514.43,187.5931" style="stroke: #333333; stroke-width: 1.0;"/><!--MD5=[281bce53cd6bbbaf0233acd82bce6168]
link Agent to Implement--><path d="M434.81,107.0931 C429.28,136.1031 423,177.1131 423,213.4531 C423,213.4531 423,213.4531 423,526.9531 C423,573.3531 426.29,592.0431 459,624.9531 C510.99,677.2631 595.87,699.8831 650.3,709.3931 " fill="none" id="Agent-&gt;Implement" style="stroke: #333333; stroke-width: 1.0;"/><polygon fill="#333333" points="655.47,710.2731,647.2731,704.8133,650.5415,709.4303,645.9245,712.6988,655.47,710.2731" style="stroke: #333333; stroke-width: 1.0;"/><!--MD5=[79b56c54669e1e209294348a48d118fe]
link Seed to Spec--><path d="M106.91,370.8031 C104.84,387.9931 101.64,414.5531 99.25,434.4931 " fill="none" id="Seed-&gt;Spec" style="stroke: #333333; stroke-width: 1.0;"/><polygon fill="#333333" points="98.62,439.6731,103.6696,431.2172,99.2191,434.7091,95.7272,430.2587,98.62,439.6731" style="stroke: #333333; stroke-width: 1.0;"/><!--MD5=[6aed50f60f52d38e3c9589f0bac08744]
link Propose to PCQueue--><path d="M247.06,620.6131 C238.23,638.1331 226.41,661.5731 216.71,680.8231 " fill="none" id="Propose-&gt;PCQueue" style="stroke: #333333; stroke-width: 1.0;"/><polygon fill="#333333" points="214.29,685.6231,221.9086,679.3816,216.5375,681.1567,214.7624,675.7856,214.29,685.6231" style="stroke: #333333; stroke-width: 1.0;"/><!--MD5=[a69e2db2c58186bdfbdd2106032d7638]
link PCQueue to Revise--><path d="M199,748.1031 C199,766.9731 199,790.8931 199,808.0731 " fill="none" id="PCQueue-&gt;Revise" style="stroke: #333333; stroke-width: 1.0;"/><polygon fill="#333333" points="199,813.1831,203,804.1831,199,808.1831,195,804.1831,199,813.1831" style="stroke: #333333; stroke-width: 1.0;"/><!--MD5=[f8978627cb19ac31d7c0ec0d2ea4869c]
link Revise to Spec--><path d="M183.77,813.1431 C170.29,797.1331 150.83,772.2031 138,747.9531 C110.92,696.7631 104.69,682.0431 95,624.9531 C90.39,597.7831 94.86,590.5131 95,562.9531 C95.12,538.3731 95.42,510.3831 95.66,490.3631 " fill="none" id="Revise-&gt;Spec" style="stroke: #333333; stroke-width: 1.0;"/><polygon fill="#333333" points="95.72,485.1931,91.6174,494.1468,95.6629,490.1928,99.6169,494.2382,95.72,485.1931" style="stroke: #333333; stroke-width: 1.0;"/><!--MD5=[07bc2658038b75836dd6c06689447504]
link Revise to History--><path d="M199,849.5431 C199,865.3431 199,889.3231 199,909.2931 " fill="none" id="Revise-&gt;History" style="stroke: #333333; stroke-width: 1.0;"/><polygon fill="#333333" points="199,914.5331,203,905.5331,199,909.5331,195,905.5331,199,914.5331" style="stroke: #333333; stroke-width: 1.0;"/><!--MD5=[2c995db2faed80d07edb84013ad27120]
link Spec to Critique--><path d="M104.87,485.1331 C114.61,508.9231 130.16,546.9231 139.97,570.8831 " fill="none" id="Spec-&gt;Critique" style="stroke: #333333; stroke-width: 1.0;"/><polygon fill="#333333" points="141.97,575.7631,142.2527,565.9183,140.0713,571.1377,134.8519,568.9563,141.97,575.7631" style="stroke: #333333; stroke-width: 1.0;"/><!--MD5=[18d5bc04b48706048bc504d5ed50186f]
link Critique to PCQueue--><path d="M156.06,612.0331 C163.45,629.9131 175.25,658.4931 184.62,681.1531 " fill="none" id="Critique-&gt;PCQueue" style="stroke: #333333; stroke-width: 1.0;"/><polygon fill="#333333" points="186.58,685.8931,186.8367,676.0476,184.6691,681.2727,179.444,679.1051,186.58,685.8931" style="stroke: #333333; stroke-width: 1.0;"/><!--MD5=[29c2b6ec2f05da293fae6f93ae2f3ebb]
link Spec to Doctor--><path d="M79.82,485.0931 C62.97,509.8331 39,552.1731 39,592.9531 C39,592.9531 39,592.9531 39,946.9531 C39,1005.3231 113.05,1034.2531 160.39,1046.7931 " fill="none" id="Spec-&gt;Doctor" style="stroke: #333333; stroke-width: 1.0;"/><polygon fill="#333333" points="165.46,1048.0931,157.7368,1041.9814,160.6169,1046.8502,155.7482,1049.7303,165.46,1048.0931" style="stroke: #333333; stroke-width: 1.0;"/><!--MD5=[f0a82dc77730f883730a6bf29f010c28]
link History to Doctor--><path d="M199,977.0331 C199,994.6431 199,1016.5031 199,1032.5831 " fill="none" id="History-&gt;Doctor" style="stroke: #333333; stroke-width: 1.0;"/><polygon fill="#333333" points="199,1037.8031,203,1028.8031,199,1032.8031,195,1028.8031,199,1037.8031" style="stroke: #333333; stroke-width: 1.0;"/><!--MD5=[72d9307b3c82660b77a8ab75c0a199d8]
link Spec to CaptureImplDrift--><path d="M149.56,445.0231 C238.96,418.3931 423.94,373.8231 577.5,405.4531 C608.09,411.7531 640.33,425.4431 665.35,437.8331 " fill="none" id="Spec-&gt;CaptureImplDrift" style="stroke: #A02020; stroke-width: 2.0;"/><polygon fill="#A02020" points="669.93,440.1331,663.6593,432.5385,665.455,437.9028,660.0907,439.6985,669.93,440.1331" style="stroke: #A02020; stroke-width: 2.0;"/><!--MD5=[b49b6bab658ee75b4c6a650f7a074aa0]
link Impl to CaptureImplDrift--><path d="M725.29,808.7331 C740.01,793.3631 757.76,771.3831 766,747.9531 C776.61,717.7831 774.91,588.5431 768,562.9531 C761.16,537.6531 746.12,512.1731 733.07,493.3331 " fill="none" id="Impl-&gt;CaptureImplDrift" style="stroke: #333333; stroke-width: 1.0;"/><polygon fill="#333333" points="730.15,489.1731,732.0749,498.832,733.0345,493.2572,738.6094,494.2168,730.15,489.1731" style="stroke: #333333; stroke-width: 1.0;"/><!--MD5=[720656fa03757a6dd551b9c09ee855cc]
link CaptureImplDrift to WorkItems--><path d="M708.42,489.0431 C707.05,511.2831 705.06,543.4131 703.66,566.0431 " fill="none" id="CaptureImplDrift-&gt;WorkItems" style="stroke: #333333; stroke-width: 1.0;"/><polygon fill="#333333" points="703.34,571.2931,707.8733,562.5496,703.6403,566.3022,699.8878,562.0691,703.34,571.2931" style="stroke: #333333; stroke-width: 1.0;"/><!--MD5=[2aab1c731a56da689dc18e63568dc023]
link WorkItems to Implement--><path d="M691.96,616.5831 C688.38,638.3631 688.35,671.7831 691.87,693.7531 " fill="none" id="WorkItems-&gt;Implement" style="stroke: #333333; stroke-width: 1.0;"/><polygon fill="#333333" points="692.78,698.8031,695.0933,689.2298,691.8793,693.8849,687.2241,690.6709,692.78,698.8031" style="stroke: #333333; stroke-width: 1.0;"/><!--MD5=[c017db10e1d74bf134a477058a6c34f9]
link Implement to WorkItems--><path d="M711.76,698.8031 C716.11,678.7331 716.66,645.2431 713.43,621.7431 " fill="none" id="Implement-&gt;WorkItems" style="stroke: #333333; stroke-width: 1.0;"/><polygon fill="#333333" points="712.63,616.5831,710.0388,626.085,713.3871,621.5255,717.9466,624.8737,712.63,616.5831" style="stroke: #333333; stroke-width: 1.0;"/><!--MD5=[b2585690133698ee634fbdabdb866ddf]
link Implement to Impl--><path d="M702,735.0431 C702,753.1731 702,782.0831 702,803.3331 " fill="none" id="Implement-&gt;Impl" style="stroke: #333333; stroke-width: 1.0;"/><polygon fill="#333333" points="702,808.5631,706,799.5631,702,803.5631,698,799.5631,702,808.5631" style="stroke: #333333; stroke-width: 1.0;"/><!--MD5=[b5d618f00e26d8a6affcaa8f88949f81]
link Impl to CaptureSpecDrift--><path d="M675.78,854.1431 C654.47,871.7731 624.23,896.7831 600.88,916.0931 " fill="none" id="Impl-&gt;CaptureSpecDrift" style="stroke: #333333; stroke-width: 1.0;"/><polygon fill="#333333" points="596.9,919.3931,606.3864,916.7459,600.7551,916.2091,601.292,910.5778,596.9,919.3931" style="stroke: #333333; stroke-width: 1.0;"/><!--MD5=[9529e34aeb4698c65548104dd048aaa7]
link CaptureSpecDrift to Propose--><path d="M543.47,919.1831 C487.95,855.6731 344.83,691.9731 285.92,624.6031 " fill="none" id="CaptureSpecDrift-&gt;Propose" style="stroke: #A02020; stroke-width: 2.0;"/><polygon fill="#A02020" points="282.5,620.6931,285.396,630.1066,285.7844,624.4631,291.4279,624.8515,282.5,620.6931" style="stroke: #A02020; stroke-width: 2.0;"/><!--MD5=[6de597d6f2c3b5db7bb29adef1fe1ed9]
link CaptureMemo to Memos--><path d="M531.69,241.0331 C533.27,264.8831 535.62,300.3231 537.22,324.5831 " fill="none" id="CaptureMemo-&gt;Memos" style="stroke: #333333; stroke-width: 1.0;"/><polygon fill="#333333" points="537.55,329.5831,540.9495,320.3396,537.2212,324.5939,532.9668,320.8656,537.55,329.5831" style="stroke: #333333; stroke-width: 1.0;"/><!--MD5=[436c56898a2138351dd1a7842b69aa77]
link Memos to ProcessMemos--><path d="M539,375.0531 C539,390.8931 539,412.6431 539,430.3531 " fill="none" id="Memos-&gt;ProcessMemos" style="stroke: #333333; stroke-width: 1.0;"/><polygon fill="#333333" points="539,435.7131,543,426.7131,539,430.7131,535,426.7131,539,435.7131" style="stroke: #333333; stroke-width: 1.0;"/><!--MD5=[f356670c5009cefe28fd37f9494e61d8]
link ProcessMemos to WorkItems--><path d="M571.2,489.0431 C600.03,511.9431 642.04,545.3131 670.62,568.0231 " fill="none" id="ProcessMemos-&gt;WorkItems" style="stroke: #333333; stroke-width: 1.0;"/><polygon fill="#333333" points="674.73,571.2931,670.1776,562.5595,670.8173,568.1801,665.1967,568.8198,674.73,571.2931" style="stroke: #333333; stroke-width: 1.0;"/><text fill="#111111" font-family="Helvetica" font-size="11" lengthAdjust="spacingAndGlyphs" textLength="63" x="626" y="530.1636">impl-bound</text><!--MD5=[e81cbb5d45e320851ca1117dd08a4ab5]
link ProcessMemos to AgentKnowledge--><path d="M537.32,489.1431 C536.79,498.5131 536.26,509.2131 536,518.9531 C535.83,525.1731 535.44,526.7531 536,532.9531 C536.74,541.0731 538.03,549.7431 539.47,557.8931 " fill="none" id="ProcessMemos-&gt;AgentKnowledge" style="stroke: #333333; stroke-width: 1.0;"/><polygon fill="#333333" points="540.38,562.8831,542.6982,553.311,539.4818,557.9645,534.8283,554.7481,540.38,562.8831" style="stroke: #333333; stroke-width: 1.0;"/><text fill="#111111" font-family="Helvetica" font-size="11" lengthAdjust="spacingAndGlyphs" textLength="58" x="537" y="530.1636">persistent</text><!--MD5=[bcae832c572b10c0086a5dbd5f75426b]
link ProcessMemos to Propose--><path d="M500.79,481.1831 C449.36,505.0631 358.09,547.4231 303.9,572.5831 " fill="none" id="ProcessMemos-&gt;Propose" style="stroke: #A02020; stroke-width: 2.0;"/><polygon fill="#A02020" points="299.09,574.8031,308.9374,574.6321,303.6231,572.6934,305.5618,567.3791,299.09,574.8031" style="stroke: #A02020; stroke-width: 2.0;"/><text fill="#111111" font-family="Helvetica" font-size="11" lengthAdjust="spacingAndGlyphs" textLength="66" x="417" y="530.1636">spec-bound</text><!--MD5=[4bd81d533c6cf9321431b9aefcac2dfd]
link Memos to Doctor--><path d="M574.66,357.8331 C657.91,369.0531 858,402.1831 858,461.4531 C858,461.4531 858,461.4531 858,946.9531 C858,1010.1931 379.27,1044.0931 237.87,1052.7231 " fill="none" id="Memos-&gt;Doctor" style="stroke: #A02020; stroke-width: 2.0;"/><polygon fill="#A02020" points="232.59,1053.0431,241.814,1056.4953,237.581,1052.7428,241.3335,1048.5098,232.59,1053.0431" style="stroke: #A02020; stroke-width: 2.0;"/><text fill="#111111" font-family="Helvetica" font-size="11" lengthAdjust="spacingAndGlyphs" textLength="54" x="859" y="721.1636">untriaged</text><!--MD5=[7ed0284e8381a38b1b9192123bd30dc5]
@startuml draft-tool-agnostic-workflow
title Tool-Agnostic Workflow — Spec / Implementation Lifecycle (DRAFT v2)


top to bottom direction


skinparam defaultFontName Helvetica
skinparam shadowing false
skinparam BackgroundColor #fafafa
skinparam ArrowColor #333
skinparam ArrowFontColor #111
skinparam ArrowFontSize 11

skinparam package {
  FontColor #111
  FontSize 13
  FontStyle bold
  BorderColor #555
  BorderThickness 2
}

skinparam rectangle {
  BackgroundColor #d6e6f5
  BorderColor #3a6a9a
  FontColor #111
  RoundCorner 8
}

skinparam database {
  BackgroundColor #f5ead5
  BorderColor #8a6b3a
  FontColor #111
}

skinparam actor {
  BackgroundColor #ffffff
  BorderColor #111
  FontColor #111
}


actor "User" as User
actor "Agent" as Agent


package "SPEC SIDE  ▏ prescriptive" as SpecPkg #fde8ec {

  rectangle "Seed" as Seed
  rectangle "Propose\nChange" as Propose
  rectangle "Critique" as Critique
  rectangle "Revise" as Revise
  rectangle "Doctor" as Doctor

  database "Specification" as Spec
  database "Proposed\nChanges" as PCQueue
  database "Specification\nHistory" as History
}


package "IMPLEMENTATION SIDE  ▏ descriptive" as ImplPkg #e3f0e3 {

  rectangle "Capture\nImpl Drift" as CaptureImplDrift
  rectangle "Implement" as Implement
  rectangle "Capture\nSpec Drift" as CaptureSpecDrift
  rectangle "Capture\nMemo" as CaptureMemo
  rectangle "Process\nMemos" as ProcessMemos

  database "Implementation" as Impl
  database "Work Items" as WorkItems
  database "Memos" as Memos
  database "Persistent\nAgent Knowledge" as AgentKnowledge
}


User - -> Seed
User - -> Propose
User - -> Revise
Agent - -> CaptureMemo
Agent - -> Implement


Seed - -> Spec
Propose - -> PCQueue
PCQueue - -> Revise
Revise - -> Spec
Revise - -> History
Spec - -> Critique
Critique - -> PCQueue
Spec - -> Doctor
History - -> Doctor


Spec -[#a02020,thickness=2]-> CaptureImplDrift


Impl - -> CaptureImplDrift
CaptureImplDrift - -> WorkItems
WorkItems - -> Implement
Implement - -> Impl
Implement - -> WorkItems


Impl - -> CaptureSpecDrift


CaptureSpecDrift -[#a02020,thickness=2]-> Propose


CaptureMemo - -> Memos
Memos - -> ProcessMemos
ProcessMemos - -> WorkItems : impl-bound
ProcessMemos - -> AgentKnowledge : persistent


ProcessMemos -[#a02020,thickness=2]-> Propose : spec-bound


Memos -[#a02020,thickness=2]-> Doctor : untriaged

@enduml

PlantUML version 1.2020.02(Sun Mar 01 11:22:07 CET 2020)
(GPL source distribution)
Java Runtime: OpenJDK Runtime Environment
JVM: OpenJDK 64-Bit Server VM
Java Version: 21.0.10+7-Ubuntu-125.10
Operating System: Linux
Default Encoding: UTF-8
Language: en
Country: null
--></g></svg>