<?xml version="1.0" encoding="UTF-8" standalone="no"?><svg xmlns="http://www.w3.org/2000/svg" xmlns:xlink="http://www.w3.org/1999/xlink" contentScriptType="application/ecmascript" contentStyleType="text/css" height="773px" preserveAspectRatio="none" style="width:675px;height:773px;background:#FAFAFA;" version="1.1" viewBox="0 0 675 773" width="675px" zoomAndPan="magnify"><defs/><g><text fill="#000000" font-family="Helvetica" font-size="18" lengthAdjust="spacingAndGlyphs" textLength="634" x="24" y="16.708">Tool-Agnostic Workflow — Spec / Implementation Lifecycle (DRAFT v8)</text><!--MD5=[781fc4211f0f0711d3811412dad38fe1]
cluster SpecPkg--><polygon fill="#FDE8EC" points="22,161.9531,217,161.9531,224,183.0859,258,183.0859,258,761.9531,22,761.9531,22,161.9531" style="stroke: #444444; stroke-width: 1.5;"/><line style="stroke: #444444; stroke-width: 1.5;" x1="22" x2="224" y1="183.0859" y2="183.0859"/><text fill="#111111" font-family="Helvetica" font-size="13" font-weight="bold" lengthAdjust="spacingAndGlyphs" textLength="189" x="26" y="176.02">SPEC SIDE  ▏ prescriptive</text><!--MD5=[4d90c78b95395404f4d0684d2e298718]
cluster ImplPkg--><polygon fill="#E3F0E3" points="282,44.9531,562,44.9531,569,66.0859,599,66.0859,599,679.9531,282,679.9531,282,44.9531" style="stroke: #444444; stroke-width: 1.5;"/><line style="stroke: #444444; stroke-width: 1.5;" x1="282" x2="569" y1="66.0859" y2="66.0859"/><text fill="#111111" font-family="Helvetica" font-size="13" font-weight="bold" lengthAdjust="spacingAndGlyphs" textLength="274" x="286" y="59.02">IMPLEMENTATION SIDE  ▏ descriptive</text><!--MD5=[9a5cf7b5ccfe99a8a50c4f56868c7fc8]
entity Seed--><rect fill="#D6E6F5" height="36.2969" rx="4" ry="4" style="stroke: #1F4768; stroke-width: 1.5;" width="56" x="83" y="195.9531"/><text fill="#111111" font-family="Helvetica" font-size="14" lengthAdjust="spacingAndGlyphs" textLength="36" x="93" y="218.9482">Seed</text><!--MD5=[b162903c3f5aa45441033ef018a482dd]
entity Propose--><rect fill="#D6E6F5" height="52.5938" rx="4" ry="4" style="stroke: #1F4768; stroke-width: 1.5;" width="78" x="164" y="360.9531"/><text fill="#111111" font-family="Helvetica" font-size="14" lengthAdjust="spacingAndGlyphs" textLength="58" x="174" y="383.9482">Propose</text><text fill="#111111" font-family="Helvetica" font-size="14" lengthAdjust="spacingAndGlyphs" textLength="54" x="174" y="400.2451">Change</text><!--MD5=[5bd62c65b3bf6048be3cb32942b001e5]
entity Critique--><rect fill="#D6E6F5" height="36.2969" rx="4" ry="4" style="stroke: #1F4768; stroke-width: 1.5;" width="73" x="74.5" y="369.4531"/><text fill="#111111" font-family="Helvetica" font-size="14" lengthAdjust="spacingAndGlyphs" textLength="53" x="84.5" y="392.4482">Critique</text><!--MD5=[e9c1fb24a4cd81b1c7322b8f0a98f11d]
entity Revise--><rect fill="#D6E6F5" height="36.2969" rx="4" ry="4" style="stroke: #1F4768; stroke-width: 1.5;" width="66" x="79" y="538.9531"/><text fill="#111111" font-family="Helvetica" font-size="14" lengthAdjust="spacingAndGlyphs" textLength="46" x="89" y="561.9482">Revise</text><!--MD5=[5a5d35bcfc46556bdff8e646cc6c81c2]
entity Doctor--><rect fill="#D6E6F5" height="36.2969" rx="4" ry="4" style="stroke: #1F4768; stroke-width: 1.5;" width="67" x="78.5" y="709.9531"/><text fill="#111111" font-family="Helvetica" font-size="14" lengthAdjust="spacingAndGlyphs" textLength="47" x="88.5" y="732.9482">Doctor</text><!--MD5=[5b0af1a53dfe6ce9d6337a803daa3faf]
entity Spec--><path d="M57.5,277.4531 C57.5,267.4531 111,267.4531 111,267.4531 C111,267.4531 164.5,267.4531 164.5,277.4531 L164.5,302.75 C164.5,312.75 111,312.75 111,312.75 C111,312.75 57.5,312.75 57.5,302.75 L57.5,277.4531 " fill="#F5D76E" style="stroke: #5A4319; stroke-width: 1.5;"/><path d="M57.5,277.4531 C57.5,287.4531 111,287.4531 111,287.4531 C111,287.4531 164.5,287.4531 164.5,277.4531 " fill="none" style="stroke: #5A4319; stroke-width: 1.5;"/><text fill="#111111" font-family="Helvetica" font-size="14" lengthAdjust="spacingAndGlyphs" textLength="87" x="67.5" y="304.4482">Specification</text><!--MD5=[4cc95f85745661d7fbe872bf21a1bbc7]
entity PCQueue--><path d="M74.5,455.4531 C74.5,445.4531 118,445.4531 118,445.4531 C118,445.4531 161.5,445.4531 161.5,455.4531 L161.5,497.0469 C161.5,507.0469 118,507.0469 118,507.0469 C118,507.0469 74.5,507.0469 74.5,497.0469 L74.5,455.4531 " fill="#F5EAD5" style="stroke: #5A4319; stroke-width: 1.5;"/><path d="M74.5,455.4531 C74.5,465.4531 118,465.4531 118,465.4531 C118,465.4531 161.5,465.4531 161.5,455.4531 " fill="none" style="stroke: #5A4319; stroke-width: 1.5;"/><text fill="#111111" font-family="Helvetica" font-size="14" lengthAdjust="spacingAndGlyphs" textLength="67" x="84.5" y="482.4482">Proposed</text><text fill="#111111" font-family="Helvetica" font-size="14" lengthAdjust="spacingAndGlyphs" textLength="62" x="84.5" y="498.7451">Changes</text><!--MD5=[99a8f7b7d62222417991320410ebdaf2]
entity History--><path d="M58.5,616.4531 C58.5,606.4531 112,606.4531 112,606.4531 C112,606.4531 165.5,606.4531 165.5,616.4531 L165.5,658.0469 C165.5,668.0469 112,668.0469 112,668.0469 C112,668.0469 58.5,668.0469 58.5,658.0469 L58.5,616.4531 " fill="#F5EAD5" style="stroke: #5A4319; stroke-width: 1.5;"/><path d="M58.5,616.4531 C58.5,626.4531 112,626.4531 112,626.4531 C112,626.4531 165.5,626.4531 165.5,616.4531 " fill="none" style="stroke: #5A4319; stroke-width: 1.5;"/><text fill="#111111" font-family="Helvetica" font-size="14" lengthAdjust="spacingAndGlyphs" textLength="87" x="68.5" y="643.4482">Specification</text><text fill="#111111" font-family="Helvetica" font-size="14" lengthAdjust="spacingAndGlyphs" textLength="47" x="68.5" y="659.7451">History</text><!--MD5=[6a9f75428dc2b6ef837c0907c1779616]
entity CaptureImplGaps--><rect fill="#D6E6F5" height="52.5938" rx="4" ry="4" style="stroke: #1F4768; stroke-width: 1.5;" width="88" x="495" y="263.4531"/><text fill="#111111" font-family="Helvetica" font-size="14" lengthAdjust="spacingAndGlyphs" textLength="55" x="505" y="286.4482">Capture</text><text fill="#111111" font-family="Helvetica" font-size="14" lengthAdjust="spacingAndGlyphs" textLength="68" x="505" y="302.7451">Impl Gaps</text><!--MD5=[e9a3c193e574dfa8de98f101b71d6a61]
entity CaptureWorkItem--><rect fill="#D6E6F5" height="52.5938" rx="4" ry="4" style="stroke: #1F4768; stroke-width: 1.5;" width="89" x="390.5" y="263.4531"/><text fill="#111111" font-family="Helvetica" font-size="14" lengthAdjust="spacingAndGlyphs" textLength="55" x="400.5" y="286.4482">Capture</text><text fill="#111111" font-family="Helvetica" font-size="14" lengthAdjust="spacingAndGlyphs" textLength="69" x="400.5" y="302.7451">Work Item</text><!--MD5=[74a2a13639c756e3324faac020ef6e7d]
entity Implement--><rect fill="#D6E6F5" height="36.2969" rx="4" ry="4" style="stroke: #1F4768; stroke-width: 1.5;" width="93" x="458.5" y="458.4531"/><text fill="#111111" font-family="Helvetica" font-size="14" lengthAdjust="spacingAndGlyphs" textLength="73" x="468.5" y="481.4482">Implement</text><!--MD5=[c1efa0f0c0c85b9a5e73fcadb364593e]
entity CaptureSpecDrift--><rect fill="#D6E6F5" height="52.5938" rx="4" ry="4" style="stroke: #1F4768; stroke-width: 1.5;" width="87" x="298.5" y="610.9531"/><text fill="#111111" font-family="Helvetica" font-size="14" lengthAdjust="spacingAndGlyphs" textLength="55" x="308.5" y="633.9482">Capture</text><text fill="#111111" font-family="Helvetica" font-size="14" lengthAdjust="spacingAndGlyphs" textLength="67" x="308.5" y="650.2451">Spec Drift</text><!--MD5=[4d8b149103de154d2d36dbc14fb1ec50]
entity CaptureMemo--><rect fill="#D6E6F5" height="52.5938" rx="4" ry="4" style="stroke: #1F4768; stroke-width: 1.5;" width="75" x="455.5" y="78.9531"/><text fill="#111111" font-family="Helvetica" font-size="14" lengthAdjust="spacingAndGlyphs" textLength="55" x="465.5" y="101.9482">Capture</text><text fill="#111111" font-family="Helvetica" font-size="14" lengthAdjust="spacingAndGlyphs" textLength="43" x="465.5" y="118.2451">Memo</text><!--MD5=[38c3dd3a596b244014464f502c88eff1]
entity ProcessMemos--><rect fill="#D6E6F5" height="52.5938" rx="4" ry="4" style="stroke: #1F4768; stroke-width: 1.5;" width="76" x="298" y="263.4531"/><text fill="#111111" font-family="Helvetica" font-size="14" lengthAdjust="spacingAndGlyphs" textLength="56" x="308" y="286.4482">Process</text><text fill="#111111" font-family="Helvetica" font-size="14" lengthAdjust="spacingAndGlyphs" textLength="51" x="308" y="302.7451">Memos</text><!--MD5=[d4fd7068178ba922b82960301783db7d]
entity Impl--><path d="M441.5,544.4531 C441.5,534.4531 505,534.4531 505,534.4531 C505,534.4531 568.5,534.4531 568.5,544.4531 L568.5,569.75 C568.5,579.75 505,579.75 505,579.75 C505,579.75 441.5,579.75 441.5,569.75 L441.5,544.4531 " fill="#F5D76E" style="stroke: #5A4319; stroke-width: 1.5;"/><path d="M441.5,544.4531 C441.5,554.4531 505,554.4531 505,554.4531 C505,554.4531 568.5,554.4531 568.5,544.4531 " fill="none" style="stroke: #5A4319; stroke-width: 1.5;"/><text fill="#111111" font-family="Helvetica" font-size="14" lengthAdjust="spacingAndGlyphs" textLength="107" x="451.5" y="571.4482">Implementation</text><!--MD5=[fa81577849114cbf168f391a566a9b63]
entity WorkItems--><path d="M456.5,374.9531 C456.5,364.9531 505,364.9531 505,364.9531 C505,364.9531 553.5,364.9531 553.5,374.9531 L553.5,400.25 C553.5,410.25 505,410.25 505,410.25 C505,410.25 456.5,410.25 456.5,400.25 L456.5,374.9531 " fill="#F5EAD5" style="stroke: #5A4319; stroke-width: 1.5;"/><path d="M456.5,374.9531 C456.5,384.9531 505,384.9531 505,384.9531 C505,384.9531 553.5,384.9531 553.5,374.9531 " fill="none" style="stroke: #5A4319; stroke-width: 1.5;"/><text fill="#111111" font-family="Helvetica" font-size="14" lengthAdjust="spacingAndGlyphs" textLength="77" x="466.5" y="401.9482">Work Items</text><!--MD5=[1c5e44e491cf6497969a38cc571a845e]
entity Memos--><path d="M457.5,201.4531 C457.5,191.4531 493,191.4531 493,191.4531 C493,191.4531 528.5,191.4531 528.5,201.4531 L528.5,226.75 C528.5,236.75 493,236.75 493,236.75 C493,236.75 457.5,236.75 457.5,226.75 L457.5,201.4531 " fill="#F5EAD5" style="stroke: #5A4319; stroke-width: 1.5;"/><path d="M457.5,201.4531 C457.5,211.4531 493,211.4531 493,211.4531 C493,211.4531 528.5,211.4531 528.5,201.4531 " fill="none" style="stroke: #5A4319; stroke-width: 1.5;"/><text fill="#111111" font-family="Helvetica" font-size="14" lengthAdjust="spacingAndGlyphs" textLength="51" x="467.5" y="228.4482">Memos</text><!--MD5=[cd20a034834c6e5d1841e96140da69e2]
entity AgentKnowledge--><path d="M298,366.4531 C298,356.4531 369,356.4531 369,356.4531 C369,356.4531 440,356.4531 440,366.4531 L440,408.0469 C440,418.0469 369,418.0469 369,418.0469 C369,418.0469 298,418.0469 298,408.0469 L298,366.4531 " fill="#F5D76E" style="stroke: #5A4319; stroke-width: 1.5;"/><path d="M298,366.4531 C298,376.4531 369,376.4531 369,376.4531 C369,376.4531 440,376.4531 440,366.4531 " fill="none" style="stroke: #5A4319; stroke-width: 1.5;"/><text fill="#111111" font-family="Helvetica" font-size="14" lengthAdjust="spacingAndGlyphs" textLength="70" x="308" y="393.4482">Persistent</text><text fill="#111111" font-family="Helvetica" font-size="14" lengthAdjust="spacingAndGlyphs" textLength="122" x="308" y="409.7451">Agent Knowledge</text><!--MD5=[1e9204083aa66e691856924869ece9f5]
entity Input--><rect fill="#FFFACC" height="52.5938" rx="4" ry="4" style="stroke: #1F4768; stroke-width: 1.5;" width="204" x="9" y="78.9531"/><text fill="#111111" font-family="Helvetica" font-size="14" lengthAdjust="spacingAndGlyphs" textLength="87" x="19" y="101.9482">initial intent /</text><text fill="#111111" font-family="Helvetica" font-size="14" lengthAdjust="spacingAndGlyphs" textLength="184" x="19" y="118.2451">prompt / instruction / seed</text><!--MD5=[e38a78e35415c081adbe3d821d0b148b]
link Input to Seed--><path d="M111,131.9631 C111,149.8131 111,173.4231 111,190.5431 " fill="none" id="Input-&gt;Seed" style="stroke: #000000; stroke-width: 1.3;"/><polygon fill="#000000" points="111,195.6331,115,186.6331,111,190.6331,107,186.6331,111,195.6331" style="stroke: #000000; stroke-width: 1.3;"/><!--MD5=[79b56c54669e1e209294348a48d118fe]
link Seed to Spec--><path d="M111,232.1131 C111,241.0631 111,252.2031 111,262.2431 " fill="none" id="Seed-&gt;Spec" style="stroke: #000000; stroke-width: 1.3;"/><polygon fill="#000000" points="111,267.3731,115,258.3731,111,262.3731,107,258.3731,111,267.3731" style="stroke: #000000; stroke-width: 1.3;"/><!--MD5=[6aed50f60f52d38e3c9589f0bac08744]
link Propose to PCQueue--><path d="M177.96,414.0831 C169.56,422.6831 160.06,432.4031 151.14,441.5331 " fill="none" id="Propose-&gt;PCQueue" style="stroke: #000000; stroke-width: 1.3;"/><polygon fill="#000000" points="147.36,445.4031,156.5162,441.7749,150.8596,441.8321,150.8025,436.1755,147.36,445.4031" style="stroke: #000000; stroke-width: 1.3;"/><!--MD5=[a69e2db2c58186bdfbdd2106032d7638]
link PCQueue to Revise--><path d="M115.7,507.5831 C115.04,516.1531 114.34,525.3331 113.73,533.3731 " fill="none" id="PCQueue-&gt;Revise" style="stroke: #000000; stroke-width: 1.3;"/><polygon fill="#000000" points="113.32,538.7331,117.9776,530.0552,113.6915,533.7469,109.9997,529.4608,113.32,538.7331" style="stroke: #000000; stroke-width: 1.3;"/><!--MD5=[f8978627cb19ac31d7c0ec0d2ea4869c]
link Revise to Spec--><path d="M89.28,538.6431 C80.22,530.3231 70.81,519.5231 66,507.4531 C41.14,445.1131 46.1,420.5431 66,356.4531 C70.48,342.0231 79.37,327.9431 88.07,316.5631 " fill="none" id="Revise-&gt;Spec" style="stroke: #000000; stroke-width: 1.3;"/><polygon fill="#000000" points="91.26,312.4931,82.5632,317.1154,88.1785,316.4307,88.8632,322.0459,91.26,312.4931" style="stroke: #000000; stroke-width: 1.3;"/><!--MD5=[07bc2658038b75836dd6c06689447504]
link Revise to History--><path d="M112,574.9831 C112,582.6731 112,592.0531 112,601.1431 " fill="none" id="Revise-&gt;History" style="stroke: #000000; stroke-width: 1.3;"/><polygon fill="#000000" points="112,606.1531,116,597.1531,112,601.1531,108,597.1531,112,606.1531" style="stroke: #000000; stroke-width: 1.3;"/><!--MD5=[2c995db2faed80d07edb84013ad27120]
link Spec to Critique--><path d="M111,312.6231 C111,328.0531 111,348.7131 111,364.2531 " fill="none" id="Spec-&gt;Critique" style="stroke: #000000; stroke-width: 1.3;"/><polygon fill="#000000" points="111,369.3131,115,360.3131,111,364.3131,107,360.3131,111,369.3131" style="stroke: #000000; stroke-width: 1.3;"/><!--MD5=[18d5bc04b48706048bc504d5ed50186f]
link Critique to PCQueue--><path d="M112.38,405.6431 C113.18,415.5231 114.21,428.3031 115.17,440.2231 " fill="none" id="Critique-&gt;PCQueue" style="stroke: #000000; stroke-width: 1.3;"/><polygon fill="#000000" points="115.57,445.2631,118.8353,435.9713,115.169,440.2792,110.8611,436.6129,115.57,445.2631" style="stroke: #000000; stroke-width: 1.3;"/><!--MD5=[29c2b6ec2f05da293fae6f93ae2f3ebb]
link Spec to Doctor--><path d="M81.71,312.6231 C61.78,330.0731 39,356.5531 39,386.4531 C39,386.4531 39,386.4531 39,638.4531 C39,661.0931 37.85,669.5231 51,687.9531 C56.96,696.3031 65.32,703.2931 73.95,708.9431 " fill="none" id="Spec-&gt;Doctor" style="stroke: #000000; stroke-width: 1.3;"/><polygon fill="#000000" points="78.2,711.6131,72.7078,703.4378,73.9664,708.9529,68.4514,710.2115,78.2,711.6131" style="stroke: #000000; stroke-width: 1.3;"/><!--MD5=[f0a82dc77730f883730a6bf29f010c28]
link History to Doctor--><path d="M112,668.9131 C112,680.6831 112,693.9031 112,704.7531 " fill="none" id="History-&gt;Doctor" style="stroke: #000000; stroke-width: 1.3;"/><polygon fill="#000000" points="112,709.8731,116.0257,700.8846,112.0143,704.8731,108.0257,700.8617,112,709.8731" style="stroke: #000000; stroke-width: 1.3;"/><!--MD5=[1f903a1e81b0c07b3f8a89d2f0780d59]
link Spec to CaptureImplGaps--><path d="M164.55,275.0631 C200.77,265.7731 249.87,254.7231 294,249.9531 C376.19,241.0731 400.97,225.6931 480,249.9531 C487.84,252.3631 495.57,256.2031 502.73,260.5731 " fill="none" id="Spec-&gt;CaptureImplGaps" style="stroke: #A02020; stroke-width: 2.0;"/><polygon fill="#A02020" points="507.1,263.3531,501.6401,255.1562,502.877,260.6762,497.357,261.913,507.1,263.3531" style="stroke: #A02020; stroke-width: 2.0;"/><!--MD5=[9ac5b994db1b2c9298cf648e6a8020e5]
link Spec to CaptureSpecDrift--><path d="M164.81,303.8531 C194.14,313.5831 228.7,329.9331 250,356.4531 C271.4,383.1031 267,397.2731 267,431.4531 C267,431.4531 267,431.4531 267,557.9531 C267,577.5931 279.43,594.2531 294.16,607.1031 " fill="none" id="Spec-&gt;CaptureSpecDrift" style="stroke: #A02020; stroke-width: 2.0;"/><polygon fill="#A02020" points="298.37,610.6231,294.0491,601.7727,294.5406,607.4082,288.9052,607.8997,298.37,610.6231" style="stroke: #A02020; stroke-width: 2.0;"/><!--MD5=[5960638c29276b056e2fb13f5f21c00f]
link Impl to CaptureImplGaps--><path d="M538.29,534.3231 C546.94,526.9231 555.17,517.8431 560,507.4531 C588.44,446.2931 566.97,365.0831 551.39,321.5731 " fill="none" id="Impl-&gt;CaptureImplGaps" style="stroke: #000000; stroke-width: 1.3;"/><polygon fill="#000000" points="549.62,316.7131,548.9461,326.5389,551.3333,321.4104,556.4618,323.7976,549.62,316.7131" style="stroke: #000000; stroke-width: 1.3;"/><!--MD5=[3d15f5400bfec243f8ab65edd28a9dbb]
link CaptureImplGaps to WorkItems--><path d="M533.78,316.6431 C531.73,325.2831 529.11,334.8931 526,343.4531 C524.04,348.8331 521.62,354.4331 519.12,359.7431 " fill="none" id="CaptureImplGaps-&gt;WorkItems" style="stroke: #000000; stroke-width: 1.3;"/><polygon fill="#000000" points="516.82,364.5231,524.3338,358.1558,518.9929,360.02,517.1288,354.6791,516.82,364.5231" style="stroke: #000000; stroke-width: 1.3;"/><!--MD5=[2aab1c731a56da689dc18e63568dc023]
link WorkItems to Implement--><path d="M499.74,409.9631 C498.77,423.1031 498.75,439.8931 499.69,453.1831 " fill="none" id="WorkItems-&gt;Implement" style="stroke: #000000; stroke-width: 1.3;"/><polygon fill="#000000" points="500.11,458.2731,503.351,448.9728,499.696,453.2903,495.3785,449.6353,500.11,458.2731" style="stroke: #000000; stroke-width: 1.3;"/><!--MD5=[c017db10e1d74bf134a477058a6c34f9]
link Implement to WorkItems--><path d="M509.89,458.2731 C511.09,445.9331 511.32,429.0631 510.58,415.0031 " fill="none" id="Implement-&gt;WorkItems" style="stroke: #000000; stroke-width: 1.3;"/><polygon fill="#000000" points="510.26,409.9631,506.8341,419.1969,510.5746,414.9532,514.8183,418.6936,510.26,409.9631" style="stroke: #000000; stroke-width: 1.3;"/><!--MD5=[b2585690133698ee634fbdabdb866ddf]
link Implement to Impl--><path d="M505,494.4831 C505,504.5731 505,517.5831 505,529.0331 " fill="none" id="Implement-&gt;Impl" style="stroke: #000000; stroke-width: 1.3;"/><polygon fill="#000000" points="505,534.1731,509,525.1731,505,529.1731,501,525.1731,505,534.1731" style="stroke: #000000; stroke-width: 1.3;"/><!--MD5=[de0551c742578638eead7a66382e9846]
link CaptureWorkItem to WorkItems--><path d="M479.77,313.0331 C482.21,314.1931 484.63,315.3431 487,316.4531 C499.79,322.4531 508.32,317.5931 516,329.4531 C521.79,338.3931 520.92,349.6731 517.91,359.8231 " fill="none" id="CaptureWorkItem-&gt;WorkItems" style="stroke: #000000; stroke-width: 1.3;"/><polygon fill="#000000" points="516.28,364.7131,522.9274,357.4459,517.8654,359.9711,515.3402,354.9092,516.28,364.7131" style="stroke: #000000; stroke-width: 1.3;"/><!--MD5=[b5d618f00e26d8a6affcaa8f88949f81]
link Impl to CaptureSpecDrift--><path d="M460.03,579.6131 C438.39,590.0331 412.41,602.5431 390.35,613.1731 " fill="none" id="Impl-&gt;CaptureSpecDrift" style="stroke: #000000; stroke-width: 1.3;"/><polygon fill="#000000" points="385.7,615.4031,395.544,615.0943,390.2031,613.2302,392.0673,607.8893,385.7,615.4031" style="stroke: #000000; stroke-width: 1.3;"/><!--MD5=[9529e34aeb4698c65548104dd048aaa7]
link CaptureSpecDrift to Propose--><path d="M298.44,623.9031 C282.37,617.2531 265.33,607.4631 254,593.4531 C212.78,542.4831 204.26,462.7531 202.87,419.2731 " fill="none" id="CaptureSpecDrift-&gt;Propose" style="stroke: #A02020; stroke-width: 2.0;"/><polygon fill="#A02020" points="202.73,414.1531,198.9894,423.264,202.8732,419.1511,206.9861,423.0349,202.73,414.1531" style="stroke: #A02020; stroke-width: 2.0;"/><!--MD5=[6de597d6f2c3b5db7bb29adef1fe1ed9]
link CaptureMemo to Memos--><path d="M493,131.9631 C493,148.3631 493,169.6231 493,186.2431 " fill="none" id="CaptureMemo-&gt;Memos" style="stroke: #000000; stroke-width: 1.3;"/><polygon fill="#000000" points="493,191.2431,497,182.2431,493,186.2431,489,182.2431,493,191.2431" style="stroke: #000000; stroke-width: 1.3;"/><!--MD5=[436c56898a2138351dd1a7842b69aa77]
link Memos to ProcessMemos--><path d="M457.49,229.7331 C435.77,238.9931 407.55,251.4131 383,263.4531 C381.54,264.1731 380.06,264.9031 378.57,265.6531 " fill="none" id="Memos-&gt;ProcessMemos" style="stroke: #000000; stroke-width: 1.3;"/><polygon fill="#000000" points="374.08,267.9531,383.9143,267.4177,378.5319,265.6771,380.2726,260.2947,374.08,267.9531" style="stroke: #000000; stroke-width: 1.3;"/><!--MD5=[f356670c5009cefe28fd37f9494e61d8]
link ProcessMemos to WorkItems--><path d="M374.01,312.1131 C377.02,313.6331 380.05,315.0931 383,316.4531 C397.7,323.2131 402.58,322.1231 417,329.4531 C435.39,338.7931 454.75,351.0431 470.61,361.7831 " fill="none" id="ProcessMemos-&gt;WorkItems" style="stroke: #000000; stroke-width: 1.3;"/><polygon fill="#000000" points="474.99,364.7731,469.8262,356.3865,470.8652,361.9471,465.3046,362.9862,474.99,364.7731" style="stroke: #000000; stroke-width: 1.3;"/><text fill="#000000" font-family="Helvetica" font-size="11" lengthAdjust="spacingAndGlyphs" textLength="63" x="440" y="340.6636">impl-bound</text><!--MD5=[e81cbb5d45e320851ca1117dd08a4ab5]
link ProcessMemos to AgentKnowledge--><path d="M344.84,316.5431 C348.55,327.2731 352.92,339.9331 356.92,351.5031 " fill="none" id="ProcessMemos-&gt;AgentKnowledge" style="stroke: #000000; stroke-width: 1.3;"/><polygon fill="#000000" points="358.61,356.3831,359.4612,346.5711,356.9818,351.6557,351.8973,349.1762,358.61,356.3831" style="stroke: #000000; stroke-width: 1.3;"/><text fill="#000000" font-family="Helvetica" font-size="11" lengthAdjust="spacingAndGlyphs" textLength="58" x="354" y="340.6636">persistent</text><!--MD5=[bcae832c572b10c0086a5dbd5f75426b]
link ProcessMemos to Propose--><path d="M297.94,315.1631 C290.91,319.8131 283.68,324.7131 277,329.4531 C264.41,338.3931 250.94,348.5731 239,357.8231 " fill="none" id="ProcessMemos-&gt;Propose" style="stroke: #A02020; stroke-width: 2.0;"/><polygon fill="#A02020" points="235.01,360.9231,244.5723,358.5646,238.9598,357.8574,239.6671,352.2449,235.01,360.9231" style="stroke: #A02020; stroke-width: 2.0;"/><text fill="#000000" font-family="Helvetica" font-size="11" lengthAdjust="spacingAndGlyphs" textLength="66" x="278" y="340.6636">spec-bound</text><!--MD5=[4bd81d533c6cf9321431b9aefcac2dfd]
link Memos to Doctor--><path d="M528.76,222.1731 C562.51,231.3131 608,250.7331 608,288.9531 C608,288.9531 608,288.9531 608,638.4531 C608,684.8331 267.54,715.1131 150.76,724.1331 " fill="none" id="Memos-&gt;Doctor" style="stroke: #A02020; stroke-width: 2.0;"/><polygon fill="#A02020" points="145.7,724.5131,154.9817,727.807,150.6851,724.1275,154.3647,719.8308,145.7,724.5131" style="stroke: #A02020; stroke-width: 2.0;"/><text fill="#000000" font-family="Helvetica" font-size="11" lengthAdjust="spacingAndGlyphs" textLength="54" x="609" y="480.6636">untriaged</text><!--MD5=[f027082432ba09febb987b0ad365a035]
@startuml draft-tool-agnostic-workflow
title Tool-Agnostic Workflow — Spec / Implementation Lifecycle (DRAFT v8)


skinparam defaultFontName Helvetica
skinparam shadowing false
skinparam BackgroundColor #fafafa
skinparam ArrowColor #000000
skinparam ArrowFontColor #000000
skinparam ArrowFontSize 11
skinparam ArrowThickness 1.3
skinparam nodesep 16
skinparam ranksep 26
hide stereotype

skinparam package {
  FontColor #111
  FontSize 13
  FontStyle bold
  BorderColor #444
  BorderThickness 2
}

skinparam rectangle {
  BackgroundColor #d6e6f5
  BorderColor #1f4768
  FontColor #111
  RoundCorner 8
}

skinparam database {
  BackgroundColor #f5ead5
  BorderColor #5a4319
  FontColor #111
}


rectangle "initial intent /\nprompt / instruction / seed" as Input #fffacc


package "SPEC SIDE  ▏ prescriptive" as SpecPkg #fde8ec {
  rectangle "Seed" as Seed
  rectangle "Propose\nChange" as Propose
  rectangle "Critique" as Critique
  rectangle "Revise" as Revise
  rectangle "Doctor" as Doctor

  database "Specification" as Spec #f5d76e
  database "Proposed\nChanges" as PCQueue
  database "Specification\nHistory" as History
}


package "IMPLEMENTATION SIDE  ▏ descriptive" as ImplPkg #e3f0e3 {
  rectangle "Capture\nImpl Gaps" as CaptureImplGaps
  rectangle "Capture\nWork Item" as CaptureWorkItem
  rectangle "Implement" as Implement
  rectangle "Capture\nSpec Drift" as CaptureSpecDrift
  rectangle "Capture\nMemo" as CaptureMemo
  rectangle "Process\nMemos" as ProcessMemos

  database "Implementation" as Impl #f5d76e
  database "Work Items" as WorkItems
  database "Memos" as Memos
  database "Persistent\nAgent Knowledge" as AgentKnowledge #f5d76e
}


Input - -> Seed

Seed - -> Spec
Propose - -> PCQueue
PCQueue - -> Revise
Revise - -> Spec
Revise - -> History
Spec - -> Critique
Critique - -> PCQueue
Spec - -> Doctor
History - -> Doctor

Spec -[#a02020,thickness=2]-> CaptureImplGaps

Spec -[#a02020,thickness=2]-> CaptureSpecDrift

Impl - -> CaptureImplGaps
CaptureImplGaps - -> WorkItems
WorkItems - -> Implement
Implement - -> Impl
Implement - -> WorkItems

CaptureWorkItem - -> WorkItems

Impl - -> CaptureSpecDrift

CaptureSpecDrift -[#a02020,thickness=2]-> Propose

CaptureMemo - -> Memos
Memos - -> ProcessMemos
ProcessMemos - -> WorkItems : impl-bound
ProcessMemos - -> AgentKnowledge : persistent

ProcessMemos -[#a02020,thickness=2]-> Propose : spec-bound

Memos -[#a02020,thickness=2]-> Doctor : untriaged

@enduml

PlantUML version 1.2020.02(Sun Mar 01 11:22:07 CET 2020)
(GPL source distribution)
Java Runtime: OpenJDK Runtime Environment
JVM: OpenJDK 64-Bit Server VM
Java Version: 21.0.10+7-Ubuntu-125.10
Operating System: Linux
Default Encoding: UTF-8
Language: en
Country: null
--></g></svg>