<?xml version="1.0" encoding="UTF-8" standalone="no"?><svg xmlns="http://www.w3.org/2000/svg" xmlns:xlink="http://www.w3.org/1999/xlink" contentScriptType="application/ecmascript" contentStyleType="text/css" height="1049px" preserveAspectRatio="none" style="width:902px;height:1049px;background:#FAFAFA;" version="1.1" viewBox="0 0 902 1049" width="902px" zoomAndPan="magnify"><defs/><g><text fill="#000000" font-family="Helvetica" font-size="18" lengthAdjust="spacingAndGlyphs" textLength="495" x="207" y="16.708">Implementation Plugin — Lifecycle (per livespec-impl-*)</text><!--MD5=[781fc4211f0f0711d3811412dad38fe1]
cluster SpecPkg--><polygon fill="#FDE8EC" points="139,44.9531,345,44.9531,352,66.0859,654,66.0859,654,139.9531,139,139.9531,139,44.9531" style="stroke: #444444; stroke-width: 1.5;"/><line style="stroke: #444444; stroke-width: 1.5;" x1="139" x2="352" y1="66.0859" y2="66.0859"/><text fill="#111111" font-family="Helvetica" font-size="13" font-weight="bold" lengthAdjust="spacingAndGlyphs" textLength="200" x="143" y="59.02">SPEC SIDE (read-only here)</text><!--MD5=[4d90c78b95395404f4d0684d2e298718]
cluster ImplPkg--><polygon fill="#E3F0E3" points="22,174.9531,195,174.9531,202,196.0859,398,196.0859,398,1029.9531,22,1029.9531,22,174.9531" style="stroke: #444444; stroke-width: 1.5;"/><line style="stroke: #444444; stroke-width: 1.5;" x1="22" x2="202" y1="196.0859" y2="196.0859"/><text fill="#111111" font-family="Helvetica" font-size="13" font-weight="bold" lengthAdjust="spacingAndGlyphs" textLength="167" x="26" y="189.02">IMPLEMENTATION SIDE</text><!--MD5=[5b0af1a53dfe6ce9d6337a803daa3faf]
entity Spec--><path d="M155,88.9531 C155,78.9531 219,78.9531 219,78.9531 C219,78.9531 283,78.9531 283,88.9531 L283,114.25 C283,124.25 219,124.25 219,124.25 C219,124.25 155,124.25 155,114.25 L155,88.9531 " fill="#F5D76E" style="stroke: #5A4319; stroke-width: 1.5;"/><path d="M155,88.9531 C155,98.9531 219,98.9531 219,98.9531 C219,98.9531 283,98.9531 283,88.9531 " fill="none" style="stroke: #5A4319; stroke-width: 1.5;"/><text fill="#111111" font-family="Helvetica" font-size="14" lengthAdjust="spacingAndGlyphs" textLength="108" x="165" y="115.9482">SPECIFICATION/</text><!--MD5=[99a8f7b7d62222417991320410ebdaf2]
entity History--><path d="M299.5,88.9531 C299.5,78.9531 356,78.9531 356,78.9531 C356,78.9531 412.5,78.9531 412.5,88.9531 L412.5,114.25 C412.5,124.25 356,124.25 356,124.25 C356,124.25 299.5,124.25 299.5,114.25 L299.5,88.9531 " fill="#F5EAD5" style="stroke: #5A4319; stroke-width: 1.5;"/><path d="M299.5,88.9531 C299.5,98.9531 356,98.9531 356,98.9531 C356,98.9531 412.5,98.9531 412.5,88.9531 " fill="none" style="stroke: #5A4319; stroke-width: 1.5;"/><text fill="#111111" font-family="Helvetica" font-size="14" lengthAdjust="spacingAndGlyphs" textLength="93" x="309.5" y="115.9482">history/vNNN/</text><!--MD5=[b162903c3f5aa45441033ef018a482dd]
entity Propose--><rect fill="#D6E6F5" height="36.2969" rx="4" ry="4" style="stroke: #1F4768; stroke-width: 1.5;" width="209" x="428.5" y="83.4531"/><text fill="#111111" font-family="Helvetica" font-size="14" lengthAdjust="spacingAndGlyphs" textLength="189" x="438.5" y="106.4482">/livespec:propose-changes</text><!--MD5=[6a9f75428dc2b6ef837c0907c1779616]
entity CaptureImplGaps--><rect fill="#D6E6F5" height="52.5938" rx="4" ry="4" style="stroke: #1F4768; stroke-width: 1.5;" width="145" x="56.5" y="359.4531"/><text fill="#111111" font-family="Helvetica" font-size="14" lengthAdjust="spacingAndGlyphs" textLength="111" x="66.5" y="382.4482">/livespec-impl-*:</text><text fill="#111111" font-family="Helvetica" font-size="14" lengthAdjust="spacingAndGlyphs" textLength="125" x="66.5" y="398.7451">capture-impl-gaps</text><!--MD5=[c1efa0f0c0c85b9a5e73fcadb364593e]
entity CaptureSpecDrift--><rect fill="#D6E6F5" height="52.5938" rx="4" ry="4" style="stroke: #1F4768; stroke-width: 1.5;" width="143" x="185.5" y="960.9531"/><text fill="#111111" font-family="Helvetica" font-size="14" lengthAdjust="spacingAndGlyphs" textLength="111" x="195.5" y="983.9482">/livespec-impl-*:</text><text fill="#111111" font-family="Helvetica" font-size="14" lengthAdjust="spacingAndGlyphs" textLength="123" x="195.5" y="1000.2451">capture-spec-drift</text><!--MD5=[e9a3c193e574dfa8de98f101b71d6a61]
entity CaptureWorkItem--><rect fill="#D6E6F5" height="52.5938" rx="4" ry="4" style="stroke: #1F4768; stroke-width: 1.5;" width="146" x="236" y="359.4531"/><text fill="#111111" font-family="Helvetica" font-size="14" lengthAdjust="spacingAndGlyphs" textLength="111" x="246" y="382.4482">/livespec-impl-*:</text><text fill="#111111" font-family="Helvetica" font-size="14" lengthAdjust="spacingAndGlyphs" textLength="126" x="246" y="398.7451">capture-work-item</text><!--MD5=[74a2a13639c756e3324faac020ef6e7d]
entity Implement--><rect fill="#D6E6F5" height="52.5938" rx="4" ry="4" style="stroke: #1F4768; stroke-width: 1.5;" width="131" x="137.5" y="640.9531"/><text fill="#111111" font-family="Helvetica" font-size="14" lengthAdjust="spacingAndGlyphs" textLength="111" x="147.5" y="663.9482">/livespec-impl-*:</text><text fill="#111111" font-family="Helvetica" font-size="14" lengthAdjust="spacingAndGlyphs" textLength="73" x="147.5" y="680.2451">implement</text><!--MD5=[77c2cd5fbd0db322139e34716aca4f0c]
entity SpecReader--><rect fill="#E0D4EC" height="52.5938" style="stroke: #5A3A72; stroke-width: 1.5;" width="162" x="138" y="208.9531"/><rect fill="#E0D4EC" height="5" style="stroke: #5A3A72; stroke-width: 1.5;" width="10" x="133" y="213.9531"/><rect fill="#E0D4EC" height="5" style="stroke: #5A3A72; stroke-width: 1.5;" width="10" x="133" y="251.5469"/><text fill="#111111" font-family="Helvetica" font-size="14" lengthAdjust="spacingAndGlyphs" textLength="89" x="148" y="231.9482">Spec Reader</text><text fill="#111111" font-family="Helvetica" font-size="14" lengthAdjust="spacingAndGlyphs" textLength="142" x="148" y="248.2451">(impl-plugin adapter)</text><!--MD5=[d4fd7068178ba922b82960301783db7d]
entity Impl--><path d="M124.5,792.9531 C124.5,782.9531 203,782.9531 203,782.9531 C203,782.9531 281.5,782.9531 281.5,792.9531 L281.5,850.8438 C281.5,860.8438 203,860.8438 203,860.8438 C203,860.8438 124.5,860.8438 124.5,850.8438 L124.5,792.9531 " fill="#F5D76E" style="stroke: #5A4319; stroke-width: 1.5;"/><path d="M124.5,792.9531 C124.5,802.9531 203,802.9531 203,802.9531 C203,802.9531 281.5,802.9531 281.5,792.9531 " fill="none" style="stroke: #5A4319; stroke-width: 1.5;"/><text fill="#111111" font-family="Helvetica" font-size="14" lengthAdjust="spacingAndGlyphs" textLength="107" x="134.5" y="819.9482">Implementation</text><text fill="#111111" font-family="Helvetica" font-size="14" lengthAdjust="spacingAndGlyphs" textLength="137" x="134.5" y="836.2451">(code, tests, config,</text><text fill="#111111" font-family="Helvetica" font-size="14" lengthAdjust="spacingAndGlyphs" textLength="92" x="134.5" y="852.542">infra, plugins)</text><!--MD5=[fa81577849114cbf168f391a566a9b63]
entity WorkItems--><path d="M168.5,519.9531 C168.5,509.9531 257,509.9531 257,509.9531 C257,509.9531 345.5,509.9531 345.5,519.9531 L345.5,577.8438 C345.5,587.8438 257,587.8438 257,587.8438 C257,587.8438 168.5,587.8438 168.5,577.8438 L168.5,519.9531 " fill="#F5EAD5" style="stroke: #5A4319; stroke-width: 1.5;"/><path d="M168.5,519.9531 C168.5,529.9531 257,529.9531 257,529.9531 C257,529.9531 345.5,529.9531 345.5,519.9531 " fill="none" style="stroke: #5A4319; stroke-width: 1.5;"/><text fill="#111111" font-family="Helvetica" font-size="14" lengthAdjust="spacingAndGlyphs" textLength="77" x="178.5" y="546.9482">Work Items</text><text fill="#111111" font-family="Helvetica" font-size="14" lengthAdjust="spacingAndGlyphs" textLength="109" x="178.5" y="563.2451">(plugin-specific:</text><text fill="#111111" font-family="Helvetica" font-size="14" lengthAdjust="spacingAndGlyphs" textLength="157" x="178.5" y="579.542">bd / JSONL / GitLab / ...)</text><path d="M414.5,327.9531 L414.5,443.8828 L711.5,443.8828 L711.5,337.9531 L701.5,327.9531 L414.5,327.9531 " fill="#FBFB77" style="stroke: #A80036; stroke-width: 1.0;"/><path d="M701.5,327.9531 L701.5,337.9531 L711.5,337.9531 L701.5,327.9531 " fill="#FBFB77" style="stroke: #A80036; stroke-width: 1.0;"/><text fill="#000000" font-family="Helvetica" font-size="13" lengthAdjust="spacingAndGlyphs" textLength="223" x="420.5" y="345.02">Mechanical: enumerate spec rules,</text><text fill="#000000" font-family="Helvetica" font-size="13" lengthAdjust="spacingAndGlyphs" textLength="208" x="420.5" y="360.1528">check impl for each. Detection is</text><text fill="#000000" font-family="Helvetica" font-size="13" lengthAdjust="spacingAndGlyphs" textLength="276" x="420.5" y="375.2856">in-memory and ephemeral — no persistent</text><text fill="#000000" font-family="Helvetica" font-size="13" lengthAdjust="spacingAndGlyphs" textLength="252" x="420.5" y="390.4185">intermediate artifact. Items it files carry</text><text fill="#000000" font-family="Helvetica" font-size="13" lengthAdjust="spacingAndGlyphs" textLength="270" x="420.5" y="405.5513">a gap-id:gap-NNNN label tying back to the</text><text fill="#000000" font-family="Helvetica" font-size="13" lengthAdjust="spacingAndGlyphs" textLength="269" x="420.5" y="420.6841">originating spec rule, which makes closure</text><text fill="#000000" font-family="Helvetica" font-size="13" lengthAdjust="spacingAndGlyphs" textLength="61" x="420.5" y="435.8169">verifiable.</text><path d="M413.5,936.9531 L413.5,983.4531 L328.65,987.4531 L413.5,991.4531 L413.5,1037.75 A0,0 0 0 0 413.5,1037.75 L738.5,1037.75 A0,0 0 0 0 738.5,1037.75 L738.5,946.9531 L728.5,936.9531 L413.5,936.9531 A0,0 0 0 0 413.5,936.9531 " fill="#FBFB77" style="stroke: #A80036; stroke-width: 1.0;"/><path d="M728.5,936.9531 L728.5,946.9531 L738.5,946.9531 L728.5,936.9531 " fill="#FBFB77" style="stroke: #A80036; stroke-width: 1.0;"/><text fill="#000000" font-family="Helvetica" font-size="13" lengthAdjust="spacingAndGlyphs" textLength="243" x="419.5" y="954.02">LLM-driven heuristic: every line of impl</text><text fill="#000000" font-family="Helvetica" font-size="13" lengthAdjust="spacingAndGlyphs" textLength="247" x="419.5" y="969.1528">is "doing something"; signal-to-noise is</text><text fill="#000000" font-family="Helvetica" font-size="13" lengthAdjust="spacingAndGlyphs" textLength="218" x="419.5" y="984.2856">brutal. Asymmetric counterpart to</text><text fill="#000000" font-family="Helvetica" font-size="13" lengthAdjust="spacingAndGlyphs" textLength="280" x="419.5" y="999.4185">capture-impl-gaps — separate skill because</text><text fill="#000000" font-family="Helvetica" font-size="13" lengthAdjust="spacingAndGlyphs" textLength="304" x="419.5" y="1014.5513">merging would hide the mechanical-vs-heuristic</text><text fill="#000000" font-family="Helvetica" font-size="13" lengthAdjust="spacingAndGlyphs" textLength="88" x="419.5" y="1029.6841">reliability gap.</text><path d="M414,733.9531 L414,910.4141 L716,910.4141 L716,743.9531 L706,733.9531 L414,733.9531 " fill="#FBFB77" style="stroke: #A80036; stroke-width: 1.0;"/><path d="M706,733.9531 L706,743.9531 L716,743.9531 L706,733.9531 " fill="#FBFB77" style="stroke: #A80036; stroke-width: 1.0;"/><text fill="#000000" font-family="Helvetica" font-size="13" lengthAdjust="spacingAndGlyphs" textLength="261" x="420" y="751.02">Closure branches on origin × disposition:</text><text fill="#000000" font-family="Helvetica" font-size="13" lengthAdjust="spacingAndGlyphs" textLength="217" x="420" y="766.1528">• gap-tied fix → verify via re-run of</text><text fill="#000000" font-family="Helvetica" font-size="13" lengthAdjust="spacingAndGlyphs" textLength="231" x="428" y="781.2856">capture-impl-gaps in dry-run; record</text><text fill="#000000" font-family="Helvetica" font-size="13" lengthAdjust="spacingAndGlyphs" textLength="199" x="428" y="796.4185">audit fields (resolution method,</text><text fill="#000000" font-family="Helvetica" font-size="13" lengthAdjust="spacingAndGlyphs" textLength="249" x="428" y="811.5513">verification timestamp, commits, files).</text><text fill="#000000" font-family="Helvetica" font-size="13" lengthAdjust="spacingAndGlyphs" textLength="248" x="420" y="826.6841">• freeform fix → close with --reason; no</text><text fill="#000000" font-family="Helvetica" font-size="13" lengthAdjust="spacingAndGlyphs" textLength="105" x="428" y="841.8169">verification step.</text><text fill="#000000" font-family="Helvetica" font-size="13" lengthAdjust="spacingAndGlyphs" textLength="259" x="420" y="856.9497">• non-fix (wontfix/duplicate/spec-revised/</text><text fill="#000000" font-family="Helvetica" font-size="13" lengthAdjust="spacingAndGlyphs" textLength="273" x="428" y="872.0825">no-longer-applicable/resolved-out-of-band)</text><text fill="#000000" font-family="Helvetica" font-size="13" lengthAdjust="spacingAndGlyphs" textLength="246" x="428" y="887.2153">→ close with reason; no verification, no</text><text fill="#000000" font-family="Helvetica" font-size="13" lengthAdjust="spacingAndGlyphs" textLength="73" x="428" y="902.3481">audit fields.</text><path d="M414.5,169.9531 L414.5,231.4531 L300.2,235.4531 L414.5,239.4531 L414.5,301.0156 A0,0 0 0 0 414.5,301.0156 L713.5,301.0156 A0,0 0 0 0 713.5,301.0156 L713.5,179.9531 L703.5,169.9531 L414.5,169.9531 A0,0 0 0 0 414.5,169.9531 " fill="#FBFB77" style="stroke: #A80036; stroke-width: 1.0;"/><path d="M703.5,169.9531 L703.5,179.9531 L713.5,179.9531 L703.5,169.9531 " fill="#FBFB77" style="stroke: #A80036; stroke-width: 1.0;"/><text fill="#000000" font-family="Helvetica" font-size="13" lengthAdjust="spacingAndGlyphs" textLength="255" x="420.5" y="187.02">Impl-side adapter. Required capabilities:</text><text fill="#000000" font-family="Helvetica" font-size="13" lengthAdjust="spacingAndGlyphs" textLength="176" x="420.5" y="202.1528">• read current Specification</text><text fill="#000000" font-family="Helvetica" font-size="13" lengthAdjust="spacingAndGlyphs" textLength="175" x="420.5" y="217.2856">• read Specification History</text><text fill="#000000" font-family="Helvetica" font-size="13" lengthAdjust="spacingAndGlyphs" textLength="236" x="420.5" y="232.4185">• report current spec version (vNNN)</text><text fill="#000000" font-family="Helvetica" font-size="13" lengthAdjust="spacingAndGlyphs" textLength="262" x="420.5" y="247.5513">• read/summarize diffs between versions</text><text fill="#000000" font-family="Helvetica" font-size="13" lengthAdjust="spacingAndGlyphs" textLength="206" x="420.5" y="262.6841">Internals are plugin-specific: thin</text><text fill="#000000" font-family="Helvetica" font-size="13" lengthAdjust="spacingAndGlyphs" textLength="278" x="420.5" y="277.8169">pass-through, cached, indexed, embedded,</text><text fill="#000000" font-family="Helvetica" font-size="13" lengthAdjust="spacingAndGlyphs" textLength="139" x="420.5" y="292.9497">or RAG-style retrieval.</text><!--MD5=[91940960ab9a8ef2543312077fc81051]
link Spec to SpecReader--><path d="M219,123.9531 C219,145.6431 219,179.3331 219,203.8131 " fill="none" id="Spec-&gt;SpecReader" style="stroke: #A02020; stroke-width: 2.0;"/><polygon fill="#A02020" points="219,208.8931,223,199.8931,219,203.8931,215,199.8931,219,208.8931" style="stroke: #A02020; stroke-width: 2.0;"/><!--MD5=[cc6e026262854799f1999c4ed6df1d11]
link History to SpecReader--><path d="M333.68,123.9531 C310.7,146.0931 274.74,180.7431 249.22,205.3331 " fill="none" id="History-&gt;SpecReader" style="stroke: #A02020; stroke-width: 2.0;"/><polygon fill="#A02020" points="245.53,208.8931,254.7851,205.5253,249.1292,205.4224,249.2321,199.7665,245.53,208.8931" style="stroke: #A02020; stroke-width: 2.0;"/><!--MD5=[87c5647e103f71076a1ac8e6026068d6]
link SpecReader to CaptureImplGaps--><path d="M203.53,261.9831 C187.95,287.6931 163.9,327.3631 147.36,354.6531 " fill="none" id="SpecReader-&gt;CaptureImplGaps" style="stroke: #000000; stroke-width: 1.3;"/><polygon fill="#000000" points="144.57,359.2631,152.6526,353.6354,147.1593,354.9858,145.8089,349.4925,144.57,359.2631" style="stroke: #000000; stroke-width: 1.3;"/><!--MD5=[1c9f500e8600a7e577be480fe54b4696]
link SpecReader to CaptureSpecDrift--><path d="M137.85,261.7531 C105,276.0531 69.75,297.3531 48,327.9531 C33.14,348.8531 39,359.3031 39,384.9531 C39,384.9531 39,384.9531 39,822.9531 C39,895.6931 117.63,940.0331 180.44,963.8531 " fill="none" id="SpecReader-&gt;CaptureSpecDrift" style="stroke: #000000; stroke-width: 1.3;"/><polygon fill="#000000" points="185.32,965.6731,178.2791,958.7865,180.6337,963.93,175.4901,966.2846,185.32,965.6731" style="stroke: #000000; stroke-width: 1.3;"/><!--MD5=[01b2663ddf8e9bf2d401aac47d4bd1b0]
link SpecReader to Implement--><path d="M220.25,262.1031 C223.05,324.2231 228.45,478.9731 214,496.9531 C198.54,516.1931 175.91,491.0731 160,509.9531 C133.88,540.9531 155.33,560.4431 154,600.9531 C153.61,612.9431 148.75,617.1631 154,627.9531 C155.49,631.0231 157.35,633.9131 159.48,636.6331 " fill="none" id="SpecReader-&gt;Implement" style="stroke: #000000; stroke-width: 1.3;"/><polygon fill="#000000" points="163.02,640.7531,160.1999,631.3167,159.766,636.9568,154.1259,636.523,163.02,640.7531" style="stroke: #000000; stroke-width: 1.3;"/><!--MD5=[5960638c29276b056e2fb13f5f21c00f]
link Impl to CaptureImplGaps--><path d="M174.07,782.9431 C157.51,758.8431 138.24,726.2131 129,693.9531 C101.06,596.4131 114.67,474.1831 123.49,417.9131 " fill="none" id="Impl-&gt;CaptureImplGaps" style="stroke: #000000; stroke-width: 1.3;"/><polygon fill="#000000" points="124.33,412.6831,118.963,420.9412,123.5428,417.6208,126.8632,422.2006,124.33,412.6831" style="stroke: #000000; stroke-width: 1.3;"/><!--MD5=[3d15f5400bfec243f8ab65edd28a9dbb]
link CaptureImplGaps to WorkItems--><path d="M125,412.6731 C122.69,436.7631 123.17,472.6331 141,496.9531 C147.2,505.4131 155.12,512.4931 163.9,518.4131 " fill="none" id="CaptureImplGaps-&gt;WorkItems" style="stroke: #000000; stroke-width: 1.3;"/><polygon fill="#000000" points="168.28,521.2231,162.8922,512.9786,164.0806,518.5092,158.55,519.6976,168.28,521.2231" style="stroke: #000000; stroke-width: 1.3;"/><text fill="#000000" font-family="Helvetica" font-size="11" lengthAdjust="spacingAndGlyphs" textLength="110" x="150.5" y="468.1636">files gap-tied items</text><text fill="#000000" font-family="Helvetica" font-size="11" lengthAdjust="spacingAndGlyphs" textLength="74" x="168.5" y="480.9683">(gap-id label,</text><text fill="#000000" font-family="Helvetica" font-size="11" lengthAdjust="spacingAndGlyphs" textLength="127" x="142" y="493.7729">per-gap user consent)</text><!--MD5=[b5d618f00e26d8a6affcaa8f88949f81]
link Impl to CaptureSpecDrift--><path d="M215.66,861.2831 C225.17,890.0731 238.02,928.9831 246.86,955.7431 " fill="none" id="Impl-&gt;CaptureSpecDrift" style="stroke: #000000; stroke-width: 1.3;"/><polygon fill="#000000" points="248.46,960.5931,249.4264,950.7918,246.8874,955.8469,241.8324,953.3079,248.46,960.5931" style="stroke: #000000; stroke-width: 1.3;"/><!--MD5=[9529e34aeb4698c65548104dd048aaa7]
link CaptureSpecDrift to Propose--><path d="M322.84,960.8631 C348.43,951.9031 378.23,942.6631 406,936.9531 C475.47,922.6731 671.21,957.3131 724,909.9531 C753.33,883.6431 741,862.3531 741,822.9531 C741,234.4531 741,234.4531 741,234.4531 C741,203.2831 743.43,189.5831 722,166.9531 C700.93,144.7031 671.88,130.1231 642.87,120.5831 " fill="none" id="CaptureSpecDrift-&gt;Propose" style="stroke: #A02020; stroke-width: 2.0;"/><polygon fill="#A02020" points="637.84,118.9731,645.2084,125.5082,642.6058,120.4856,647.6283,117.883,637.84,118.9731" style="stroke: #A02020; stroke-width: 2.0;"/><text fill="#000000" font-family="Helvetica" font-size="11" lengthAdjust="spacingAndGlyphs" textLength="72" x="780" y="546.6636">drift findings</text><text fill="#000000" font-family="Helvetica" font-size="11" lengthAdjust="spacingAndGlyphs" textLength="148" x="742" y="559.4683">(per-finding user consent)</text><!--MD5=[de0551c742578638eead7a66382e9846]
link CaptureWorkItem to WorkItems--><path d="M300.76,412.4631 C292.77,437.1931 280.51,475.1731 270.99,504.6431 " fill="none" id="CaptureWorkItem-&gt;WorkItems" style="stroke: #000000; stroke-width: 1.3;"/><polygon fill="#000000" points="269.37,509.6631,275.9315,502.3183,270.8996,504.9028,268.315,499.8709,269.37,509.6631" style="stroke: #000000; stroke-width: 1.3;"/><text fill="#000000" font-family="Helvetica" font-size="11" lengthAdjust="spacingAndGlyphs" textLength="107" x="288" y="474.6636">files freeform item</text><text fill="#000000" font-family="Helvetica" font-size="11" lengthAdjust="spacingAndGlyphs" textLength="61" x="311" y="487.4683">(no gap-id)</text><!--MD5=[2aab1c731a56da689dc18e63568dc023]
link WorkItems to Implement--><path d="M171.95,588.1531 C168.16,592.0331 164.79,596.2931 162,600.9531 C155.84,611.2531 157.23,616.9431 162,627.9531 C163.32,631.0131 165.02,633.9331 166.97,636.7131 " fill="none" id="WorkItems-&gt;Implement" style="stroke: #000000; stroke-width: 1.3;"/><polygon fill="#000000" points="170.23,640.9531,167.9314,631.3762,167.189,636.9842,161.5811,636.2418,170.23,640.9531" style="stroke: #000000; stroke-width: 1.3;"/><text fill="#000000" font-family="Helvetica" font-size="11" lengthAdjust="spacingAndGlyphs" textLength="77" x="163" y="618.6636">leaf-level pick</text><!--MD5=[c017db10e1d74bf134a477058a6c34f9]
link Implement to WorkItems--><path d="M232.18,640.7231 C235.54,636.7231 238.61,632.4231 241,627.9531 C246.7,617.2831 250.37,604.7931 252.74,592.9831 " fill="none" id="Implement-&gt;WorkItems" style="stroke: #000000; stroke-width: 1.3;"/><polygon fill="#000000" points="253.67,587.9631,248.0685,596.064,252.7417,592.8762,255.9294,597.5493,253.67,587.9631" style="stroke: #000000; stroke-width: 1.3;"/><text fill="#000000" font-family="Helvetica" font-size="11" lengthAdjust="spacingAndGlyphs" textLength="119" x="252" y="612.1636">close — branched by</text><text fill="#000000" font-family="Helvetica" font-size="11" lengthAdjust="spacingAndGlyphs" textLength="111" x="256" y="624.9683">origin × disposition</text><!--MD5=[b2585690133698ee634fbdabdb866ddf]
link Implement to Impl--><path d="M203,693.9831 C203,716.7131 203,750.4531 203,777.4431 " fill="none" id="Implement-&gt;Impl" style="stroke: #000000; stroke-width: 1.3;"/><polygon fill="#000000" points="203,782.7531,207,773.7531,203,777.7531,199,773.7531,203,782.7531" style="stroke: #000000; stroke-width: 1.3;"/><text fill="#000000" font-family="Helvetica" font-size="11" lengthAdjust="spacingAndGlyphs" textLength="136" x="204" y="718.1636">Red → Green code cycle</text><!--MD5=[a11297933612adff7dafa5ca7d51da66]
link CaptureImplGaps to GMN92--><path d="M158.32,359.3631 C178.54,342.9031 206.92,323.2731 236,314.4531 C300.79,294.8031 374.33,307.8431 435.24,327.8931 " fill="none" id="CaptureImplGaps-GMN92" style="stroke: #000000; stroke-width: 1.3; stroke-dasharray: 7.0,7.0;"/><!--MD5=[c628ce6f8cc93300948279474019e5be]
link Implement to GMN98--><path d="M268.62,683.1331 C292.98,689.3831 320.6,697.4531 345,706.9531 C367.75,715.8131 391.22,726.3431 413.98,737.3831 " fill="none" id="Implement-GMN98" style="stroke: #000000; stroke-width: 1.3; stroke-dasharray: 7.0,7.0;"/><!--MD5=[8cf210ff59d1565297b8d214c25a3318]
@startuml implementation-lifecycle
title Implementation Plugin — Lifecycle (per livespec-impl-*)
skinparam defaultFontName Helvetica
skinparam shadowing false
skinparam BackgroundColor #fafafa
skinparam ArrowColor #000000
skinparam ArrowFontColor #000000
skinparam ArrowFontSize 11
skinparam ArrowThickness 1.3
skinparam nodesep 16
skinparam ranksep 26
hide stereotype

skinparam rectangle {
  BackgroundColor #d6e6f5
  BorderColor #1f4768
  FontColor #111
  RoundCorner 8
}
skinparam database {
  BackgroundColor #f5ead5
  BorderColor #5a4319
  FontColor #111
}
skinparam component {
  BackgroundColor #e0d4ec
  BorderColor #5a3a72
  FontColor #111
}
skinparam package {
  FontColor #111
  FontSize 13
  FontStyle bold
  BorderColor #444
  BorderThickness 2
}

package "SPEC SIDE (read-only here)" as SpecPkg #fde8ec {
  database "SPECIFICATION/" as Spec #f5d76e
  database "history/vNNN/" as History
  rectangle "/livespec:propose-changes" as Propose
}

package "IMPLEMENTATION SIDE" as ImplPkg #e3f0e3 {
  rectangle "/livespec-impl-*:\ncapture-impl-gaps" as CaptureImplGaps
  rectangle "/livespec-impl-*:\ncapture-spec-drift" as CaptureSpecDrift
  rectangle "/livespec-impl-*:\ncapture-work-item" as CaptureWorkItem
  rectangle "/livespec-impl-*:\nimplement" as Implement

  component "Spec Reader\n(impl-plugin adapter)" as SpecReader

  database "Implementation\n(code, tests, config,\ninfra, plugins)" as Impl #f5d76e
  database "Work Items\n(plugin-specific:\nbd / JSONL / GitLab / ...)" as WorkItems
}

Spec -[#a02020,thickness=2]-> SpecReader
History -[#a02020,thickness=2]-> SpecReader

SpecReader - -> CaptureImplGaps
SpecReader - -> CaptureSpecDrift
SpecReader - -> Implement

Impl - -> CaptureImplGaps
CaptureImplGaps - -> WorkItems : files gap-tied items\n(gap-id label,\nper-gap user consent)

Impl - -> CaptureSpecDrift

CaptureSpecDrift -[#a02020,thickness=2]-> Propose : drift findings\n(per-finding user consent)

CaptureWorkItem - -> WorkItems : files freeform item\n(no gap-id)

WorkItems - -> Implement : leaf-level pick
Implement - -> Impl : Red → Green code cycle
Implement - -> WorkItems : close — branched by\norigin × disposition

note right of CaptureImplGaps : Mechanical: enumerate spec rules,\ncheck impl for each. Detection is\nin-memory and ephemeral — no persistent\nintermediate artifact. Items it files carry\na gap-id:gap-NNNN label tying back to the\noriginating spec rule, which makes closure\nverifiable.

note right of CaptureSpecDrift : LLM-driven heuristic: every line of impl\nis "doing something"; signal-to-noise is\nbrutal. Asymmetric counterpart to\ncapture-impl-gaps — separate skill because\nmerging would hide the mechanical-vs-heuristic\nreliability gap.

note bottom of Implement : Closure branches on origin × disposition:\n• gap-tied fix → verify via re-run of\n  capture-impl-gaps in dry-run; record\n  audit fields (resolution method,\n  verification timestamp, commits, files).\n• freeform fix → close with - -reason; no\n  verification step.\n• non-fix (wontfix/duplicate/spec-revised/\n  no-longer-applicable/resolved-out-of-band)\n  → close with reason; no verification, no\n  audit fields.

note left of SpecReader : Impl-side adapter. Required capabilities:\n• read current Specification\n• read Specification History\n• report current spec version (vNNN)\n• read/summarize diffs between versions\nInternals are plugin-specific: thin\npass-through, cached, indexed, embedded,\nor RAG-style retrieval.

@enduml

PlantUML version 1.2020.02(Sun Mar 01 11:22:07 CET 2020)
(GPL source distribution)
Java Runtime: OpenJDK Runtime Environment
JVM: OpenJDK 64-Bit Server VM
Java Version: 21.0.10+7-Ubuntu-125.10
Operating System: Linux
Default Encoding: UTF-8
Language: en
Country: null
--></g></svg>