<?xml version="1.0" encoding="UTF-8" standalone="no"?><svg xmlns="http://www.w3.org/2000/svg" xmlns:xlink="http://www.w3.org/1999/xlink" contentScriptType="application/ecmascript" contentStyleType="text/css" height="912px" preserveAspectRatio="none" style="width:1763px;height:912px;background:#FAFAFA;" version="1.1" viewBox="0 0 1763 912" width="1763px" zoomAndPan="magnify"><defs/><g><text fill="#000000" font-family="Helvetica" font-size="18" lengthAdjust="spacingAndGlyphs" textLength="495" x="637.5" y="16.708">Implementation Plugin — Lifecycle (per livespec-impl-*)</text><!--MD5=[781fc4211f0f0711d3811412dad38fe1]
cluster SpecPkg--><polygon fill="#FDE8EC" points="706,49.4531,912,49.4531,919,70.5859,1222,70.5859,1222,144.4531,706,144.4531,706,49.4531" style="stroke: #444444; stroke-width: 1.5;"/><line style="stroke: #444444; stroke-width: 1.5;" x1="706" x2="919" y1="70.5859" y2="70.5859"/><text fill="#111111" font-family="Helvetica" font-size="13" font-weight="bold" lengthAdjust="spacingAndGlyphs" textLength="200" x="710" y="63.52">SPEC SIDE (read-only here)</text><!--MD5=[4d90c78b95395404f4d0684d2e298718]
cluster ImplPkg--><polygon fill="#E3F0E3" points="22,45.4531,195,45.4531,202,66.5859,682,66.5859,682,884.9531,22,884.9531,22,45.4531" style="stroke: #444444; stroke-width: 1.5;"/><line style="stroke: #444444; stroke-width: 1.5;" x1="22" x2="202" y1="66.5859" y2="66.5859"/><text fill="#111111" font-family="Helvetica" font-size="13" font-weight="bold" lengthAdjust="spacingAndGlyphs" textLength="167" x="26" y="59.52">IMPLEMENTATION SIDE</text><!--MD5=[5b0af1a53dfe6ce9d6337a803daa3faf]
entity Spec--><path d="M852,93.4531 C852,83.4531 916,83.4531 916,83.4531 C916,83.4531 980,83.4531 980,93.4531 L980,118.75 C980,128.75 916,128.75 916,128.75 C916,128.75 852,128.75 852,118.75 L852,93.4531 " fill="#F5D76E" style="stroke: #5A4319; stroke-width: 1.5;"/><path d="M852,93.4531 C852,103.4531 916,103.4531 916,103.4531 C916,103.4531 980,103.4531 980,93.4531 " fill="none" style="stroke: #5A4319; stroke-width: 1.5;"/><text fill="#111111" font-family="Helvetica" font-size="14" lengthAdjust="spacingAndGlyphs" textLength="108" x="862" y="120.4482">SPECIFICATION/</text><!--MD5=[99a8f7b7d62222417991320410ebdaf2]
entity History--><path d="M722.5,93.4531 C722.5,83.4531 779,83.4531 779,83.4531 C779,83.4531 835.5,83.4531 835.5,93.4531 L835.5,118.75 C835.5,128.75 779,128.75 779,128.75 C779,128.75 722.5,128.75 722.5,118.75 L722.5,93.4531 " fill="#F5EAD5" style="stroke: #5A4319; stroke-width: 1.5;"/><path d="M722.5,93.4531 C722.5,103.4531 779,103.4531 779,103.4531 C779,103.4531 835.5,103.4531 835.5,93.4531 " fill="none" style="stroke: #5A4319; stroke-width: 1.5;"/><text fill="#111111" font-family="Helvetica" font-size="14" lengthAdjust="spacingAndGlyphs" textLength="93" x="732.5" y="120.4482">history/vNNN/</text><!--MD5=[b162903c3f5aa45441033ef018a482dd]
entity Propose--><rect fill="#D6E6F5" height="36.2969" rx="4" ry="4" style="stroke: #1F4768; stroke-width: 1.5;" width="209" x="996.5" y="87.9531"/><text fill="#111111" font-family="Helvetica" font-size="14" lengthAdjust="spacingAndGlyphs" textLength="189" x="1006.5" y="110.9482">/livespec:propose-changes</text><!--MD5=[6a9f75428dc2b6ef837c0907c1779616]
entity CaptureImplGaps--><rect fill="#D6E6F5" height="52.5938" rx="4" ry="4" style="stroke: #1F4768; stroke-width: 1.5;" width="145" x="361.5" y="815.9531"/><text fill="#111111" font-family="Helvetica" font-size="14" lengthAdjust="spacingAndGlyphs" textLength="111" x="371.5" y="838.9482">/livespec-impl-*:</text><text fill="#111111" font-family="Helvetica" font-size="14" lengthAdjust="spacingAndGlyphs" textLength="125" x="371.5" y="855.2451">capture-impl-gaps</text><!--MD5=[c1efa0f0c0c85b9a5e73fcadb364593e]
entity CaptureSpecDrift--><rect fill="#D6E6F5" height="52.5938" rx="4" ry="4" style="stroke: #1F4768; stroke-width: 1.5;" width="143" x="522.5" y="815.9531"/><text fill="#111111" font-family="Helvetica" font-size="14" lengthAdjust="spacingAndGlyphs" textLength="111" x="532.5" y="838.9482">/livespec-impl-*:</text><text fill="#111111" font-family="Helvetica" font-size="14" lengthAdjust="spacingAndGlyphs" textLength="123" x="532.5" y="855.2451">capture-spec-drift</text><!--MD5=[e9a3c193e574dfa8de98f101b71d6a61]
entity CaptureWorkItem--><rect fill="#D6E6F5" height="52.5938" rx="4" ry="4" style="stroke: #1F4768; stroke-width: 1.5;" width="146" x="268" y="79.4531"/><text fill="#111111" font-family="Helvetica" font-size="14" lengthAdjust="spacingAndGlyphs" textLength="111" x="278" y="102.4482">/livespec-impl-*:</text><text fill="#111111" font-family="Helvetica" font-size="14" lengthAdjust="spacingAndGlyphs" textLength="126" x="278" y="118.7451">capture-work-item</text><!--MD5=[74a2a13639c756e3324faac020ef6e7d]
entity Implement--><rect fill="#D6E6F5" height="52.5938" rx="4" ry="4" style="stroke: #1F4768; stroke-width: 1.5;" width="131" x="498.5" y="423.4531"/><text fill="#111111" font-family="Helvetica" font-size="14" lengthAdjust="spacingAndGlyphs" textLength="111" x="508.5" y="446.4482">/livespec-impl-*:</text><text fill="#111111" font-family="Helvetica" font-size="14" lengthAdjust="spacingAndGlyphs" textLength="73" x="508.5" y="462.7451">implement</text><!--MD5=[68d9f8308b3234f377cb47a720a0d9e6]
entity ListMemos--><rect fill="#CCDDEE" height="68.8906" rx="4" ry="4" style="stroke: #1F4768; stroke-width: 1.5;" width="131" x="38.5" y="415.4531"/><text fill="#111111" font-family="Helvetica" font-size="14" lengthAdjust="spacingAndGlyphs" textLength="111" x="48.5" y="438.4482">/livespec-impl-*:</text><text fill="#111111" font-family="Helvetica" font-size="14" lengthAdjust="spacingAndGlyphs" textLength="76" x="48.5" y="454.7451">list-memos</text><text fill="#111111" font-family="Helvetica" font-size="14" lengthAdjust="spacingAndGlyphs" textLength="103" x="48.5" y="471.042">(thin transport)</text><!--MD5=[d0e9e2e8bb402539bd8255e69b8f4ecd]
entity ListWorkItems--><rect fill="#CCDDEE" height="68.8906" rx="4" ry="4" style="stroke: #1F4768; stroke-width: 1.5;" width="131" x="351.5" y="415.4531"/><text fill="#111111" font-family="Helvetica" font-size="14" lengthAdjust="spacingAndGlyphs" textLength="111" x="361.5" y="438.4482">/livespec-impl-*:</text><text fill="#111111" font-family="Helvetica" font-size="14" lengthAdjust="spacingAndGlyphs" textLength="100" x="361.5" y="454.7451">list-work-items</text><text fill="#111111" font-family="Helvetica" font-size="14" lengthAdjust="spacingAndGlyphs" textLength="103" x="361.5" y="471.042">(thin transport)</text><!--MD5=[1489f3a1441c3024ab9e91f608595af7]
entity ImplNext--><rect fill="#CCDDEE" height="68.8906" rx="4" ry="4" style="stroke: #1F4768; stroke-width: 1.5;" width="131" x="185.5" y="415.4531"/><text fill="#111111" font-family="Helvetica" font-size="14" lengthAdjust="spacingAndGlyphs" textLength="111" x="195.5" y="438.4482">/livespec-impl-*:</text><text fill="#111111" font-family="Helvetica" font-size="14" lengthAdjust="spacingAndGlyphs" textLength="30" x="195.5" y="454.7451">next</text><text fill="#111111" font-family="Helvetica" font-size="14" lengthAdjust="spacingAndGlyphs" textLength="103" x="195.5" y="471.042">(thin transport)</text><!--MD5=[77c2cd5fbd0db322139e34716aca4f0c]
entity SpecReader--><rect fill="#E0D4EC" height="52.5938" style="stroke: #5A3A72; stroke-width: 1.5;" width="162" x="504" y="239.4531"/><rect fill="#E0D4EC" height="5" style="stroke: #5A3A72; stroke-width: 1.5;" width="10" x="499" y="244.4531"/><rect fill="#E0D4EC" height="5" style="stroke: #5A3A72; stroke-width: 1.5;" width="10" x="499" y="282.0469"/><text fill="#111111" font-family="Helvetica" font-size="14" lengthAdjust="spacingAndGlyphs" textLength="89" x="514" y="262.4482">Spec Reader</text><text fill="#111111" font-family="Helvetica" font-size="14" lengthAdjust="spacingAndGlyphs" textLength="142" x="514" y="278.7451">(impl-plugin adapter)</text><!--MD5=[d4fd7068178ba922b82960301783db7d]
entity Impl--><path d="M424.5,640.4531 C424.5,630.4531 503,630.4531 503,630.4531 C503,630.4531 581.5,630.4531 581.5,640.4531 L581.5,698.3438 C581.5,708.3438 503,708.3438 503,708.3438 C503,708.3438 424.5,708.3438 424.5,698.3438 L424.5,640.4531 " fill="#F5D76E" style="stroke: #5A4319; stroke-width: 1.5;"/><path d="M424.5,640.4531 C424.5,650.4531 503,650.4531 503,650.4531 C503,650.4531 581.5,650.4531 581.5,640.4531 " fill="none" style="stroke: #5A4319; stroke-width: 1.5;"/><text fill="#111111" font-family="Helvetica" font-size="14" lengthAdjust="spacingAndGlyphs" textLength="107" x="434.5" y="667.4482">Implementation</text><text fill="#111111" font-family="Helvetica" font-size="14" lengthAdjust="spacingAndGlyphs" textLength="137" x="434.5" y="683.7451">(code, tests, config,</text><text fill="#111111" font-family="Helvetica" font-size="14" lengthAdjust="spacingAndGlyphs" textLength="92" x="434.5" y="700.042">infra, plugins)</text><!--MD5=[fa81577849114cbf168f391a566a9b63]
entity WorkItems--><path d="M252.5,236.9531 C252.5,226.9531 341,226.9531 341,226.9531 C341,226.9531 429.5,226.9531 429.5,236.9531 L429.5,294.8438 C429.5,304.8438 341,304.8438 341,304.8438 C341,304.8438 252.5,304.8438 252.5,294.8438 L252.5,236.9531 " fill="#F5EAD5" style="stroke: #5A4319; stroke-width: 1.5;"/><path d="M252.5,236.9531 C252.5,246.9531 341,246.9531 341,246.9531 C341,246.9531 429.5,246.9531 429.5,236.9531 " fill="none" style="stroke: #5A4319; stroke-width: 1.5;"/><text fill="#111111" font-family="Helvetica" font-size="14" lengthAdjust="spacingAndGlyphs" textLength="77" x="262.5" y="263.9482">Work Items</text><text fill="#111111" font-family="Helvetica" font-size="14" lengthAdjust="spacingAndGlyphs" textLength="109" x="262.5" y="280.2451">(plugin-specific:</text><text fill="#111111" font-family="Helvetica" font-size="14" lengthAdjust="spacingAndGlyphs" textLength="157" x="262.5" y="296.542">bd / JSONL / GitLab / ...)</text><!--MD5=[1c5e44e491cf6497969a38cc571a845e]
entity Memos--><path d="M89.5,244.9531 C89.5,234.9531 154,234.9531 154,234.9531 C154,234.9531 218.5,234.9531 218.5,244.9531 L218.5,286.5469 C218.5,296.5469 154,296.5469 154,296.5469 C154,296.5469 89.5,296.5469 89.5,286.5469 L89.5,244.9531 " fill="#F5EAD5" style="stroke: #5A4319; stroke-width: 1.5;"/><path d="M89.5,244.9531 C89.5,254.9531 154,254.9531 154,254.9531 C154,254.9531 218.5,254.9531 218.5,244.9531 " fill="none" style="stroke: #5A4319; stroke-width: 1.5;"/><text fill="#111111" font-family="Helvetica" font-size="14" lengthAdjust="spacingAndGlyphs" textLength="51" x="99.5" y="271.9482">Memos</text><text fill="#111111" font-family="Helvetica" font-size="14" lengthAdjust="spacingAndGlyphs" textLength="109" x="99.5" y="288.2451">(plugin-specific)</text><path d="M1016,384.4531 L1016,515.5156 L1272,515.5156 L1272,394.4531 L1262,384.4531 L1016,384.4531 " fill="#FBFB77" style="stroke: #A80036; stroke-width: 1.0;"/><path d="M1262,384.4531 L1262,394.4531 L1272,394.4531 L1262,384.4531 " fill="#FBFB77" style="stroke: #A80036; stroke-width: 1.0;"/><text fill="#000000" font-family="Helvetica" font-size="13" lengthAdjust="spacingAndGlyphs" textLength="235" x="1022" y="401.52">Thin-transport ranking skill — returns</text><text fill="#000000" font-family="Helvetica" font-size="13" lengthAdjust="spacingAndGlyphs" textLength="205" x="1022" y="416.6528">the next ripe impl-side action as</text><text fill="#000000" font-family="Helvetica" font-size="13" lengthAdjust="spacingAndGlyphs" textLength="225" x="1022" y="431.7856">structured JSON. Each impl uses its</text><text fill="#000000" font-family="Helvetica" font-size="13" lengthAdjust="spacingAndGlyphs" textLength="217" x="1022" y="446.9185">native primitives (bd ready, JSONL</text><text fill="#000000" font-family="Helvetica" font-size="13" lengthAdjust="spacingAndGlyphs" textLength="209" x="1022" y="462.0513">traversal, GitLab API, ...). No LLM</text><text fill="#000000" font-family="Helvetica" font-size="13" lengthAdjust="spacingAndGlyphs" textLength="205" x="1022" y="477.1841">in the ranking path. Asymmetric</text><text fill="#000000" font-family="Helvetica" font-size="13" lengthAdjust="spacingAndGlyphs" textLength="203" x="1022" y="492.3169">counterpart to /livespec:next on</text><text fill="#000000" font-family="Helvetica" font-size="13" lengthAdjust="spacingAndGlyphs" textLength="89" x="1022" y="507.4497">the spec side.</text><path d="M698.5,406.9531 L698.5,492.6172 L999.5,492.6172 L999.5,416.9531 L989.5,406.9531 L698.5,406.9531 " fill="#FBFB77" style="stroke: #A80036; stroke-width: 1.0;"/><path d="M989.5,406.9531 L989.5,416.9531 L999.5,416.9531 L989.5,406.9531 " fill="#FBFB77" style="stroke: #A80036; stroke-width: 1.0;"/><text fill="#000000" font-family="Helvetica" font-size="13" lengthAdjust="spacingAndGlyphs" textLength="226" x="704.5" y="424.02">Required thin-transport skill. Doctor</text><text fill="#000000" font-family="Helvetica" font-size="13" lengthAdjust="spacingAndGlyphs" textLength="77" x="704.5" y="439.1528">invokes with</text><text fill="#000000" font-family="Helvetica" font-size="13" lengthAdjust="spacingAndGlyphs" text-decoration="line-through" textLength="100" x="785.5" y="439.1528">filter=untriaged</text><text fill="#000000" font-family="Helvetica" font-size="13" lengthAdjust="spacingAndGlyphs" textLength="26" x="889.5" y="439.1528">json</text><text fill="#000000" font-family="Helvetica" font-size="13" lengthAdjust="spacingAndGlyphs" textLength="206" x="704.5" y="454.2856">for the memo-hygiene invariant.</text><text fill="#000000" font-family="Helvetica" font-size="13" lengthAdjust="spacingAndGlyphs" textLength="220" x="704.5" y="469.4185">Users invoke for queue inspection.</text><text fill="#000000" font-family="Helvetica" font-size="13" lengthAdjust="spacingAndGlyphs" textLength="280" x="704.5" y="484.5513">Promoted from discretionary in 2026-05-18.</text><path d="M1288.5,399.4531 L1288.5,500.25 L1569.5,500.25 L1569.5,409.4531 L1559.5,399.4531 L1288.5,399.4531 " fill="#FBFB77" style="stroke: #A80036; stroke-width: 1.0;"/><path d="M1559.5,399.4531 L1559.5,409.4531 L1569.5,409.4531 L1559.5,399.4531 " fill="#FBFB77" style="stroke: #A80036; stroke-width: 1.0;"/><text fill="#000000" font-family="Helvetica" font-size="13" lengthAdjust="spacingAndGlyphs" textLength="226" x="1294.5" y="416.52">Required thin-transport skill. Doctor</text><text fill="#000000" font-family="Helvetica" font-size="13" lengthAdjust="spacingAndGlyphs" textLength="229" x="1294.5" y="431.6528">invokes for four structural invariants</text><text fill="#000000" font-family="Helvetica" font-size="13" lengthAdjust="spacingAndGlyphs" textLength="238" x="1294.5" y="446.7856">(1:1 gap-tracking, no-orphan-blocker,</text><text fill="#000000" font-family="Helvetica" font-size="13" lengthAdjust="spacingAndGlyphs" textLength="251" x="1294.5" y="461.9185">no-stale-gap-tied, no-duplicate-gap-id).</text><text fill="#000000" font-family="Helvetica" font-size="13" lengthAdjust="spacingAndGlyphs" textLength="260" x="1294.5" y="477.0513">Loop driver invokes for routing decisions.</text><text fill="#000000" font-family="Helvetica" font-size="13" lengthAdjust="spacingAndGlyphs" textLength="124" x="1294.5" y="492.1841">New in 2026-05-18.</text><path d="M698.5,784.4531 L698.5,900.3828 L995.5,900.3828 L995.5,794.4531 L985.5,784.4531 L698.5,784.4531 " fill="#FBFB77" style="stroke: #A80036; stroke-width: 1.0;"/><path d="M985.5,784.4531 L985.5,794.4531 L995.5,794.4531 L985.5,784.4531 " fill="#FBFB77" style="stroke: #A80036; stroke-width: 1.0;"/><text fill="#000000" font-family="Helvetica" font-size="13" lengthAdjust="spacingAndGlyphs" textLength="223" x="704.5" y="801.52">Mechanical: enumerate spec rules,</text><text fill="#000000" font-family="Helvetica" font-size="13" lengthAdjust="spacingAndGlyphs" textLength="208" x="704.5" y="816.6528">check impl for each. Detection is</text><text fill="#000000" font-family="Helvetica" font-size="13" lengthAdjust="spacingAndGlyphs" textLength="276" x="704.5" y="831.7856">in-memory and ephemeral — no persistent</text><text fill="#000000" font-family="Helvetica" font-size="13" lengthAdjust="spacingAndGlyphs" textLength="252" x="704.5" y="846.9185">intermediate artifact. Items it files carry</text><text fill="#000000" font-family="Helvetica" font-size="13" lengthAdjust="spacingAndGlyphs" textLength="270" x="704.5" y="862.0513">a gap-id:gap-NNNN label tying back to the</text><text fill="#000000" font-family="Helvetica" font-size="13" lengthAdjust="spacingAndGlyphs" textLength="269" x="704.5" y="877.1841">originating spec rule, which makes closure</text><text fill="#000000" font-family="Helvetica" font-size="13" lengthAdjust="spacingAndGlyphs" textLength="61" x="704.5" y="892.3169">verifiable.</text><path d="M1011.5,791.9531 L1011.5,892.75 L1336.5,892.75 L1336.5,801.9531 L1326.5,791.9531 L1011.5,791.9531 " fill="#FBFB77" style="stroke: #A80036; stroke-width: 1.0;"/><path d="M1326.5,791.9531 L1326.5,801.9531 L1336.5,801.9531 L1326.5,791.9531 " fill="#FBFB77" style="stroke: #A80036; stroke-width: 1.0;"/><text fill="#000000" font-family="Helvetica" font-size="13" lengthAdjust="spacingAndGlyphs" textLength="243" x="1017.5" y="809.02">LLM-driven heuristic: every line of impl</text><text fill="#000000" font-family="Helvetica" font-size="13" lengthAdjust="spacingAndGlyphs" textLength="247" x="1017.5" y="824.1528">is "doing something"; signal-to-noise is</text><text fill="#000000" font-family="Helvetica" font-size="13" lengthAdjust="spacingAndGlyphs" textLength="218" x="1017.5" y="839.2856">brutal. Asymmetric counterpart to</text><text fill="#000000" font-family="Helvetica" font-size="13" lengthAdjust="spacingAndGlyphs" textLength="280" x="1017.5" y="854.4185">capture-impl-gaps — separate skill because</text><text fill="#000000" font-family="Helvetica" font-size="13" lengthAdjust="spacingAndGlyphs" textLength="304" x="1017.5" y="869.5513">merging would hide the mechanical-vs-heuristic</text><text fill="#000000" font-family="Helvetica" font-size="13" lengthAdjust="spacingAndGlyphs" textLength="88" x="1017.5" y="884.6841">reliability gap.</text><path d="M698,581.4531 L698,757.9141 A0,0 0 0 0 698,757.9141 L1000,757.9141 A0,0 0 0 0 1000,757.9141 L1000,591.4531 L990,581.4531 L738.98,581.4531 L597.53,476.5431 L730.98,581.4531 L698,581.4531 A0,0 0 0 0 698,581.4531 " fill="#FBFB77" style="stroke: #A80036; stroke-width: 1.0;"/><path d="M990,581.4531 L990,591.4531 L1000,591.4531 L990,581.4531 " fill="#FBFB77" style="stroke: #A80036; stroke-width: 1.0;"/><text fill="#000000" font-family="Helvetica" font-size="13" lengthAdjust="spacingAndGlyphs" textLength="261" x="704" y="598.52">Closure branches on origin × disposition:</text><text fill="#000000" font-family="Helvetica" font-size="13" lengthAdjust="spacingAndGlyphs" textLength="217" x="704" y="613.6528">• gap-tied fix → verify via re-run of</text><text fill="#000000" font-family="Helvetica" font-size="13" lengthAdjust="spacingAndGlyphs" textLength="231" x="712" y="628.7856">capture-impl-gaps in dry-run; record</text><text fill="#000000" font-family="Helvetica" font-size="13" lengthAdjust="spacingAndGlyphs" textLength="199" x="712" y="643.9185">audit fields (resolution method,</text><text fill="#000000" font-family="Helvetica" font-size="13" lengthAdjust="spacingAndGlyphs" textLength="249" x="712" y="659.0513">verification timestamp, commits, files).</text><text fill="#000000" font-family="Helvetica" font-size="13" lengthAdjust="spacingAndGlyphs" textLength="248" x="704" y="674.1841">• freeform fix → close with --reason; no</text><text fill="#000000" font-family="Helvetica" font-size="13" lengthAdjust="spacingAndGlyphs" textLength="105" x="712" y="689.3169">verification step.</text><text fill="#000000" font-family="Helvetica" font-size="13" lengthAdjust="spacingAndGlyphs" textLength="259" x="704" y="704.4497">• non-fix (wontfix/duplicate/spec-revised/</text><text fill="#000000" font-family="Helvetica" font-size="13" lengthAdjust="spacingAndGlyphs" textLength="273" x="712" y="719.5825">no-longer-applicable/resolved-out-of-band)</text><text fill="#000000" font-family="Helvetica" font-size="13" lengthAdjust="spacingAndGlyphs" textLength="246" x="712" y="734.7153">→ close with reason; no verification, no</text><text fill="#000000" font-family="Helvetica" font-size="13" lengthAdjust="spacingAndGlyphs" textLength="73" x="712" y="749.8481">audit fields.</text><path d="M698.5,200.4531 L698.5,261.9531 L666.16,265.9531 L698.5,269.9531 L698.5,331.5156 A0,0 0 0 0 698.5,331.5156 L997.5,331.5156 A0,0 0 0 0 997.5,331.5156 L997.5,210.4531 L987.5,200.4531 L698.5,200.4531 A0,0 0 0 0 698.5,200.4531 " fill="#FBFB77" style="stroke: #A80036; stroke-width: 1.0;"/><path d="M987.5,200.4531 L987.5,210.4531 L997.5,210.4531 L987.5,200.4531 " fill="#FBFB77" style="stroke: #A80036; stroke-width: 1.0;"/><text fill="#000000" font-family="Helvetica" font-size="13" lengthAdjust="spacingAndGlyphs" textLength="255" x="704.5" y="217.52">Impl-side adapter. Required capabilities:</text><text fill="#000000" font-family="Helvetica" font-size="13" lengthAdjust="spacingAndGlyphs" textLength="176" x="704.5" y="232.6528">• read current Specification</text><text fill="#000000" font-family="Helvetica" font-size="13" lengthAdjust="spacingAndGlyphs" textLength="175" x="704.5" y="247.7856">• read Specification History</text><text fill="#000000" font-family="Helvetica" font-size="13" lengthAdjust="spacingAndGlyphs" textLength="236" x="704.5" y="262.9185">• report current spec version (vNNN)</text><text fill="#000000" font-family="Helvetica" font-size="13" lengthAdjust="spacingAndGlyphs" textLength="262" x="704.5" y="278.0513">• read/summarize diffs between versions</text><text fill="#000000" font-family="Helvetica" font-size="13" lengthAdjust="spacingAndGlyphs" textLength="206" x="704.5" y="293.1841">Internals are plugin-specific: thin</text><text fill="#000000" font-family="Helvetica" font-size="13" lengthAdjust="spacingAndGlyphs" textLength="278" x="704.5" y="308.3169">pass-through, cached, indexed, embedded,</text><text fill="#000000" font-family="Helvetica" font-size="13" lengthAdjust="spacingAndGlyphs" textLength="139" x="704.5" y="323.4497">or RAG-style retrieval.</text><!--MD5=[91940960ab9a8ef2543312077fc81051]
link Spec to SpecReader--><path d="M885.81,128.4931 C873.29,136.7631 858.36,145.8031 844,152.4531 C779.33,182.4031 755.92,171.0431 691,200.4531 C668.74,210.5331 645.4,224.3431 626.3,236.6031 " fill="none" id="Spec-&gt;SpecReader" style="stroke: #A02020; stroke-width: 2.0;"/><polygon fill="#A02020" points="622.05,239.3531,631.78,237.8276,626.2494,236.6392,627.4378,231.1086,622.05,239.3531" style="stroke: #A02020; stroke-width: 2.0;"/><!--MD5=[cc6e026262854799f1999c4ed6df1d11]
link History to SpecReader--><path d="M752.43,128.5931 C718.19,156.4831 658.54,205.0631 620.45,236.0731 " fill="none" id="History-&gt;SpecReader" style="stroke: #A02020; stroke-width: 2.0;"/><polygon fill="#A02020" points="616.38,239.3931,625.8827,236.8051,620.2549,236.2332,620.8268,230.6053,616.38,239.3931" style="stroke: #A02020; stroke-width: 2.0;"/><!--MD5=[87c5647e103f71076a1ac8e6026068d6]
link SpecReader to CaptureImplGaps--><path d="M600.11,292.5031 C612.9,315.6331 630.34,351.0831 638,384.4531 C656.31,464.1731 652.95,487.3931 642,568.4531 C630.34,654.7931 649.19,693.5231 590,757.4531 C565.93,783.4531 546.43,768.1131 515,784.4531 C499.65,792.4331 483.86,802.9431 470.34,812.7631 " fill="none" id="SpecReader-&gt;CaptureImplGaps" style="stroke: #000000; stroke-width: 1.3;"/><polygon fill="#000000" points="466.22,815.7831,475.8421,813.682,470.2507,812.8244,471.1082,807.233,466.22,815.7831" style="stroke: #000000; stroke-width: 1.3;"/><!--MD5=[1c9f500e8600a7e577be480fe54b4696]
link SpecReader to CaptureSpecDrift--><path d="M615.68,292.7431 C629.62,306.4731 644.61,324.6231 652,344.4531 C685.11,433.3731 684.18,682.1831 652,771.4531 C646.61,786.3931 636.5,800.4031 626.21,811.9031 " fill="none" id="SpecReader-&gt;CaptureSpecDrift" style="stroke: #000000; stroke-width: 1.3;"/><polygon fill="#000000" points="622.72,815.7131,631.7543,811.7911,626.1025,812.0309,625.8627,806.3791,622.72,815.7131" style="stroke: #000000; stroke-width: 1.3;"/><!--MD5=[01b2663ddf8e9bf2d401aac47d4bd1b0]
link SpecReader to Implement--><path d="M586.89,292.8431 C587.99,314.0731 588.54,344.8331 585,371.4531 C582.92,387.0831 578.58,404.0331 574.38,418.0831 " fill="none" id="SpecReader-&gt;Implement" style="stroke: #000000; stroke-width: 1.3;"/><polygon fill="#000000" points="572.84,423.1131,579.288,415.6685,574.2964,418.3299,571.6349,413.3383,572.84,423.1131" style="stroke: #000000; stroke-width: 1.3;"/><!--MD5=[5960638c29276b056e2fb13f5f21c00f]
link Impl to CaptureImplGaps--><path d="M487.52,708.8331 C475.04,739.7331 457.75,782.5831 446.24,811.1231 " fill="none" id="Impl-&gt;CaptureImplGaps" style="stroke: #000000; stroke-width: 1.3;"/><polygon fill="#000000" points="444.3,815.9231,451.3819,809.0787,446.1742,811.2877,443.9652,806.08,444.3,815.9231" style="stroke: #000000; stroke-width: 1.3;"/><!--MD5=[3d15f5400bfec243f8ab65edd28a9dbb]
link CaptureImplGaps to WorkItems--><path d="M424.48,815.7231 C404.86,761.2631 360.3,629.9131 343,515.4531 C333.43,452.1431 339.89,435.4731 339,371.4531 C338.72,351.3831 339.06,329.1531 339.53,310.3731 " fill="none" id="CaptureImplGaps-&gt;WorkItems" style="stroke: #000000; stroke-width: 1.3;"/><polygon fill="#000000" points="339.66,305.1731,335.43,314.0673,339.5315,310.1715,343.4273,314.273,339.66,305.1731" style="stroke: #000000; stroke-width: 1.3;"/><text fill="#000000" font-family="Helvetica" font-size="11" lengthAdjust="spacingAndGlyphs" textLength="110" x="362.5" y="539.6636">files gap-tied items</text><text fill="#000000" font-family="Helvetica" font-size="11" lengthAdjust="spacingAndGlyphs" textLength="74" x="380.5" y="552.4683">(gap-id label,</text><text fill="#000000" font-family="Helvetica" font-size="11" lengthAdjust="spacingAndGlyphs" textLength="127" x="354" y="565.2729">per-gap user consent)</text><!--MD5=[b5d618f00e26d8a6affcaa8f88949f81]
link Impl to CaptureSpecDrift--><path d="M523.42,708.8331 C539.94,739.8631 562.86,782.9331 578.05,811.4731 " fill="none" id="Impl-&gt;CaptureSpecDrift" style="stroke: #000000; stroke-width: 1.3;"/><polygon fill="#000000" points="580.41,815.9231,579.7239,806.0982,578.066,811.5066,572.6575,809.8486,580.41,815.9231" style="stroke: #000000; stroke-width: 1.3;"/><!--MD5=[9529e34aeb4698c65548104dd048aaa7]
link CaptureSpecDrift to Propose--><path d="M629.03,815.7131 C646.71,804.1031 669.04,791.4431 691,784.4531 C885.41,722.5831 1602,874.4731 1602,670.4531 C1602,264.9531 1602,264.9531 1602,264.9531 C1602,183.5531 1358.4,138.8531 1210.93,119.2431 " fill="none" id="CaptureSpecDrift-&gt;Propose" style="stroke: #A02020; stroke-width: 2.0;"/><polygon fill="#A02020" points="1205.72,118.5531,1214.1163,123.7012,1210.6766,119.2102,1215.1676,115.7706,1205.72,118.5531" style="stroke: #A02020; stroke-width: 2.0;"/><text fill="#000000" font-family="Helvetica" font-size="11" lengthAdjust="spacingAndGlyphs" textLength="72" x="1641" y="447.6636">drift findings</text><text fill="#000000" font-family="Helvetica" font-size="11" lengthAdjust="spacingAndGlyphs" textLength="148" x="1603" y="460.4683">(per-finding user consent)</text><!--MD5=[de0551c742578638eead7a66382e9846]
link CaptureWorkItem to WorkItems--><path d="M341,132.6931 C341,156.7231 341,193.0831 341,221.5931 " fill="none" id="CaptureWorkItem-&gt;WorkItems" style="stroke: #000000; stroke-width: 1.3;"/><polygon fill="#000000" points="341,226.8231,345,217.8231,341,221.8231,337,217.8231,341,226.8231" style="stroke: #000000; stroke-width: 1.3;"/><text fill="#000000" font-family="Helvetica" font-size="11" lengthAdjust="spacingAndGlyphs" textLength="107" x="342" y="171.6636">files freeform item</text><text fill="#000000" font-family="Helvetica" font-size="11" lengthAdjust="spacingAndGlyphs" textLength="61" x="365" y="184.4683">(no gap-id)</text><!--MD5=[2aab1c731a56da689dc18e63568dc023]
link WorkItems to Implement--><path d="M429.19,305.1231 C448.87,316.0731 468.71,329.2431 485,344.4531 C495.36,354.1331 493.78,359.9031 502,371.4531 C513.59,387.7531 527.42,405.2031 539.07,419.4131 " fill="none" id="WorkItems-&gt;Implement" style="stroke: #000000; stroke-width: 1.3;"/><polygon fill="#000000" points="542.3,423.3331,539.6738,413.8409,539.1245,419.471,533.4943,418.9217,542.3,423.3331" style="stroke: #000000; stroke-width: 1.3;"/><text fill="#000000" font-family="Helvetica" font-size="11" lengthAdjust="spacingAndGlyphs" textLength="77" x="503" y="362.1636">leaf-level pick</text><!--MD5=[c017db10e1d74bf134a477058a6c34f9]
link Implement to WorkItems--><path d="M542.38,423.1931 C529.09,409.2331 510.84,393.1031 491,384.4531 C464.19,372.7531 381.51,391.2831 360,371.4531 C343.43,356.1731 338.35,331.6731 337.57,310.2331 " fill="none" id="Implement-&gt;WorkItems" style="stroke: #000000; stroke-width: 1.3;"/><polygon fill="#000000" points="337.46,305.1431,333.6408,314.2213,337.56,310.1421,341.6392,314.0613,337.46,305.1431" style="stroke: #000000; stroke-width: 1.3;"/><text fill="#000000" font-family="Helvetica" font-size="11" lengthAdjust="spacingAndGlyphs" textLength="119" x="361" y="355.6636">close — branched by</text><text fill="#000000" font-family="Helvetica" font-size="11" lengthAdjust="spacingAndGlyphs" textLength="111" x="365" y="368.4683">origin × disposition</text><!--MD5=[b2585690133698ee634fbdabdb866ddf]
link Implement to Impl--><path d="M537.16,476.6431 C524.5,490.6131 510.73,508.9931 504,528.4531 C493.27,559.4831 493.58,596.7531 496.28,625.0331 " fill="none" id="Implement-&gt;Impl" style="stroke: #000000; stroke-width: 1.3;"/><polygon fill="#000000" points="496.8,630.2031,499.8793,620.848,496.2997,625.2282,491.9194,621.6486,496.8,630.2031" style="stroke: #000000; stroke-width: 1.3;"/><text fill="#000000" font-family="Helvetica" font-size="11" lengthAdjust="spacingAndGlyphs" textLength="136" x="505" y="552.6636">Red → Green code cycle</text><!--MD5=[9321152645a6befed91fdfb44d927bbb]
link Memos to ListMemos--><path d="M145.74,297.0031 C137.23,327.9931 123.92,376.4231 114.63,410.2631 " fill="none" id="Memos-&gt;ListMemos" style="stroke: #000000; stroke-width: 1.3;"/><polygon fill="#000000" points="113.29,415.1431,119.5401,407.5315,114.6201,410.3233,111.8283,405.4033,113.29,415.1431" style="stroke: #000000; stroke-width: 1.3;"/><!--MD5=[b9c01a323de574315323f51e9855b3ef]
link WorkItems to ListWorkItems--><path d="M336.71,305.0731 C335.9,325.4931 337.34,350.6631 346,371.4531 C352.12,386.1331 362.3,399.8031 373.06,411.4431 " fill="none" id="WorkItems-&gt;ListWorkItems" style="stroke: #000000; stroke-width: 1.3;"/><polygon fill="#000000" points="376.73,415.3131,373.437,406.0311,373.2885,411.686,367.6336,411.5375,376.73,415.3131" style="stroke: #000000; stroke-width: 1.3;"/><!--MD5=[cec1456efa14870729047e95b8c53250]
link WorkItems to ImplNext--><path d="M322.13,305.1031 C306.76,336.2031 285.15,379.8931 269.79,410.9531 " fill="none" id="WorkItems-&gt;ImplNext" style="stroke: #000000; stroke-width: 1.3;"/><polygon fill="#000000" points="267.57,415.4431,275.1405,409.1434,269.7832,410.9596,267.9669,405.6023,267.57,415.4431" style="stroke: #000000; stroke-width: 1.3;"/><!--MD5=[8d40a3f38b80e07a86ae4815c94e6dd7]
link Memos to ImplNext--><path d="M170.02,297.0031 C186.6,328.1231 212.56,376.8231 230.6,410.6731 " fill="none" id="Memos-&gt;ImplNext" style="stroke: #000000; stroke-width: 1.3;"/><polygon fill="#000000" points="232.98,415.1431,232.2692,405.32,230.6248,410.7325,225.2122,409.0882,232.98,415.1431" style="stroke: #000000; stroke-width: 1.3;"/><!--MD5=[63e7a7ff140a4ca85b171ff5870ad654]
link ImplNext to GMN97--><path d="M277.42,415.0131 C295.53,394.1031 321.55,369.4431 351,357.9531 C418.18,331.7531 930.78,337.7331 1000,357.9531 C1020.08,363.8231 1040.01,373.4331 1058.37,384.2831 " fill="none" id="ImplNext-GMN97" style="stroke: #000000; stroke-width: 1.3; stroke-dasharray: 7.0,7.0;"/><!--MD5=[cd1bb420007566e3583b367d67656870]
link ListMemos to GMN100--><path d="M123.95,415.1831 C138.04,394.3531 159.01,369.6931 185,357.9531 C234.11,335.7631 617.62,345.2831 670,357.9531 C709.9,367.6031 750.89,387.7831 783.55,406.7831 " fill="none" id="ListMemos-GMN100" style="stroke: #000000; stroke-width: 1.3; stroke-dasharray: 7.0,7.0;"/><!--MD5=[0398de5f0142ba63d426774e2ffc5175]
link ListWorkItems to GMN103--><path d="M437.29,415.1731 C451.6,394.3331 472.84,369.6831 499,357.9531 C577.37,322.8231 1189.11,335.4531 1272,357.9531 C1303.1,366.3931 1334.34,382.7131 1360.67,399.2931 " fill="none" id="ListWorkItems-GMN103" style="stroke: #000000; stroke-width: 1.3; stroke-dasharray: 7.0,7.0;"/><!--MD5=[37a9cd9f5f86f9eb4876c60e31d9f356]
link CaptureImplGaps to GMN106--><path d="M457.57,815.9531 C474.04,799.5231 497.57,779.9031 523,770.9531 C588.61,747.8631 664.41,762.4631 726.19,784.3331 " fill="none" id="CaptureImplGaps-GMN106" style="stroke: #000000; stroke-width: 1.3; stroke-dasharray: 7.0,7.0;"/><!--MD5=[7577238b0c67c1d0f45ec1ede38b91e4]
link CaptureSpecDrift to GMN109--><path d="M622.69,815.8731 C642.49,799.4131 670.34,779.7831 699,770.9531 C762.07,751.5131 931.2,758.4231 996,770.9531 C1019.54,775.5031 1043.92,783.1531 1066.81,791.7931 " fill="none" id="CaptureSpecDrift-GMN109" style="stroke: #000000; stroke-width: 1.3; stroke-dasharray: 7.0,7.0;"/><!--MD5=[c69766e6b229eab4945695a538124c82]
@startuml implementation-lifecycle
title Implementation Plugin — Lifecycle (per livespec-impl-*)
skinparam defaultFontName Helvetica
skinparam shadowing false
skinparam BackgroundColor #fafafa
skinparam ArrowColor #000000
skinparam ArrowFontColor #000000
skinparam ArrowFontSize 11
skinparam ArrowThickness 1.3
skinparam nodesep 16
skinparam ranksep 26
hide stereotype

skinparam rectangle {
  BackgroundColor #d6e6f5
  BorderColor #1f4768
  FontColor #111
  RoundCorner 8
}
skinparam database {
  BackgroundColor #f5ead5
  BorderColor #5a4319
  FontColor #111
}
skinparam component {
  BackgroundColor #e0d4ec
  BorderColor #5a3a72
  FontColor #111
}
skinparam package {
  FontColor #111
  FontSize 13
  FontStyle bold
  BorderColor #444
  BorderThickness 2
}

package "SPEC SIDE (read-only here)" as SpecPkg #fde8ec {
  database "SPECIFICATION/" as Spec #f5d76e
  database "history/vNNN/" as History
  rectangle "/livespec:propose-changes" as Propose
}

package "IMPLEMENTATION SIDE" as ImplPkg #e3f0e3 {
  rectangle "/livespec-impl-*:\ncapture-impl-gaps" as CaptureImplGaps
  rectangle "/livespec-impl-*:\ncapture-spec-drift" as CaptureSpecDrift
  rectangle "/livespec-impl-*:\ncapture-work-item" as CaptureWorkItem
  rectangle "/livespec-impl-*:\nimplement" as Implement
  rectangle "/livespec-impl-*:\nlist-memos\n(thin transport)" as ListMemos #ccddee
  rectangle "/livespec-impl-*:\nlist-work-items\n(thin transport)" as ListWorkItems #ccddee
  rectangle "/livespec-impl-*:\nnext\n(thin transport)" as ImplNext #ccddee

  component "Spec Reader\n(impl-plugin adapter)" as SpecReader

  database "Implementation\n(code, tests, config,\ninfra, plugins)" as Impl #f5d76e
  database "Work Items\n(plugin-specific:\nbd / JSONL / GitLab / ...)" as WorkItems
  database "Memos\n(plugin-specific)" as Memos
}

Spec -[#a02020,thickness=2]-> SpecReader
History -[#a02020,thickness=2]-> SpecReader

SpecReader - -> CaptureImplGaps
SpecReader - -> CaptureSpecDrift
SpecReader - -> Implement

Impl - -> CaptureImplGaps
CaptureImplGaps - -> WorkItems : files gap-tied items\n(gap-id label,\nper-gap user consent)

Impl - -> CaptureSpecDrift

CaptureSpecDrift -[#a02020,thickness=2]-> Propose : drift findings\n(per-finding user consent)

CaptureWorkItem - -> WorkItems : files freeform item\n(no gap-id)

WorkItems - -> Implement : leaf-level pick
Implement - -> Impl : Red → Green code cycle
Implement - -> WorkItems : close — branched by\norigin × disposition

Memos - -> ListMemos
WorkItems - -> ListWorkItems
WorkItems - -> ImplNext
Memos - -> ImplNext

note right of ImplNext : Thin-transport ranking skill — returns\nthe next ripe impl-side action as\nstructured JSON. Each impl uses its\nnative primitives (bd ready, JSONL\ntraversal, GitLab API, ...). No LLM\nin the ranking path. Asymmetric\ncounterpart to /livespec:next on\nthe spec side.

note right of ListMemos : Required thin-transport skill. Doctor\ninvokes with - -filter=untriaged - -json\nfor the memo-hygiene invariant.\nUsers invoke for queue inspection.\nPromoted from discretionary in 2026-05-18.

note right of ListWorkItems : Required thin-transport skill. Doctor\ninvokes for four structural invariants\n(1:1 gap-tracking, no-orphan-blocker,\nno-stale-gap-tied, no-duplicate-gap-id).\nLoop driver invokes for routing decisions.\nNew in 2026-05-18.

note right of CaptureImplGaps : Mechanical: enumerate spec rules,\ncheck impl for each. Detection is\nin-memory and ephemeral — no persistent\nintermediate artifact. Items it files carry\na gap-id:gap-NNNN label tying back to the\noriginating spec rule, which makes closure\nverifiable.

note right of CaptureSpecDrift : LLM-driven heuristic: every line of impl\nis "doing something"; signal-to-noise is\nbrutal. Asymmetric counterpart to\ncapture-impl-gaps — separate skill because\nmerging would hide the mechanical-vs-heuristic\nreliability gap.

note bottom of Implement : Closure branches on origin × disposition:\n• gap-tied fix → verify via re-run of\n  capture-impl-gaps in dry-run; record\n  audit fields (resolution method,\n  verification timestamp, commits, files).\n• freeform fix → close with - -reason; no\n  verification step.\n• non-fix (wontfix/duplicate/spec-revised/\n  no-longer-applicable/resolved-out-of-band)\n  → close with reason; no verification, no\n  audit fields.

note left of SpecReader : Impl-side adapter. Required capabilities:\n• read current Specification\n• read Specification History\n• report current spec version (vNNN)\n• read/summarize diffs between versions\nInternals are plugin-specific: thin\npass-through, cached, indexed, embedded,\nor RAG-style retrieval.

@enduml

PlantUML version 1.2020.02(Sun Mar 01 11:22:07 CET 2020)
(GPL source distribution)
Java Runtime: OpenJDK Runtime Environment
JVM: OpenJDK 64-Bit Server VM
Java Version: 21.0.10+7-Ubuntu-125.10
Operating System: Linux
Default Encoding: UTF-8
Language: en
Country: null
--></g></svg>