<?xml version="1.0" encoding="UTF-8" standalone="no"?><svg xmlns="http://www.w3.org/2000/svg" xmlns:xlink="http://www.w3.org/1999/xlink" contentScriptType="application/ecmascript" contentStyleType="text/css" height="205px" preserveAspectRatio="none" style="width:11145px;height:205px;background:#FAFAFA;" version="1.1" viewBox="0 0 11145 205" width="11145px" zoomAndPan="magnify"><defs/><g><text fill="#000000" font-family="Helvetica" font-size="18" lengthAdjust="spacingAndGlyphs" textLength="539" x="5306" y="16.708">Legend — Symbol Vocabulary (LiveSpec workflow diagrams)</text><!--MD5=[04b7339e8574659b7bfbe9bf91a2192a]
entity Skill--><rect fill="#D6E6F5" height="68.8906" rx="4" ry="4" style="stroke: #1F4768; stroke-width: 1.5;" width="129" x="787.5" y="33.4531"/><text fill="#111111" font-family="Helvetica" font-size="14" lengthAdjust="spacingAndGlyphs" textLength="34" x="797.5" y="56.4482">skill /</text><text fill="#111111" font-family="Helvetica" font-size="14" lengthAdjust="spacingAndGlyphs" textLength="109" x="797.5" y="72.7451">slash command</text><text fill="#111111" font-family="Helvetica" font-size="14" lengthAdjust="spacingAndGlyphs" textLength="96" x="797.5" y="89.042">(heavyweight)</text><!--MD5=[f71339e4c02691bf1c8adc067a8cd5a9]
entity ThinSkill--><rect fill="#CCDDEE" height="68.8906" rx="4" ry="4" style="stroke: #1F4768; stroke-width: 1.5;" width="129" x="3046.5" y="33.4531"/><text fill="#111111" font-family="Helvetica" font-size="14" lengthAdjust="spacingAndGlyphs" textLength="34" x="3056.5" y="56.4482">skill /</text><text fill="#111111" font-family="Helvetica" font-size="14" lengthAdjust="spacingAndGlyphs" textLength="109" x="3056.5" y="72.7451">slash command</text><text fill="#111111" font-family="Helvetica" font-size="14" lengthAdjust="spacingAndGlyphs" textLength="103" x="3056.5" y="89.042">(thin transport)</text><!--MD5=[1e9204083aa66e691856924869ece9f5]
entity Input--><rect fill="#FFFACC" height="68.8906" rx="4" ry="4" style="stroke: #1F4768; stroke-width: 1.5;" width="161" x="5014.5" y="33.4531"/><text fill="#111111" font-family="Helvetica" font-size="14" lengthAdjust="spacingAndGlyphs" textLength="94" x="5024.5" y="56.4482">external input</text><text fill="#111111" font-family="Helvetica" font-size="14" lengthAdjust="spacingAndGlyphs" textLength="92" x="5024.5" y="72.7451">(initial intent /</text><text fill="#111111" font-family="Helvetica" font-size="14" lengthAdjust="spacingAndGlyphs" textLength="141" x="5024.5" y="89.042">prompt / instruction)</text><!--MD5=[5ae79695dcaadcd84dbd6fcdb28f3d61]
entity Store--><path d="M6250.5,38.9531 C6250.5,28.9531 6335,28.9531 6335,28.9531 C6335,28.9531 6419.5,28.9531 6419.5,38.9531 L6419.5,96.8438 C6419.5,106.8438 6335,106.8438 6335,106.8438 C6335,106.8438 6250.5,106.8438 6250.5,96.8438 L6250.5,38.9531 " fill="#F5D76E" style="stroke: #5A4319; stroke-width: 1.5;"/><path d="M6250.5,38.9531 C6250.5,48.9531 6335,48.9531 6335,48.9531 C6335,48.9531 6419.5,48.9531 6419.5,38.9531 " fill="none" style="stroke: #5A4319; stroke-width: 1.5;"/><text fill="#111111" font-family="Helvetica" font-size="14" lengthAdjust="spacingAndGlyphs" textLength="36" x="6260.5" y="65.9482">store</text><text fill="#111111" font-family="Helvetica" font-size="14" lengthAdjust="spacingAndGlyphs" textLength="149" x="6260.5" y="82.2451">(canonical, monolithic</text><text fill="#111111" font-family="Helvetica" font-size="14" lengthAdjust="spacingAndGlyphs" textLength="141" x="6260.5" y="98.542">intent accumulation)</text><!--MD5=[30f0798213a7b74cc0804e90224a797b]
entity QueueArchive--><path d="M7617.5,38.9531 C7617.5,28.9531 7679,28.9531 7679,28.9531 C7679,28.9531 7740.5,28.9531 7740.5,38.9531 L7740.5,96.8438 C7740.5,106.8438 7679,106.8438 7679,106.8438 C7679,106.8438 7617.5,106.8438 7617.5,96.8438 L7617.5,38.9531 " fill="#F5EAD5" style="stroke: #5A4319; stroke-width: 1.5;"/><path d="M7617.5,38.9531 C7617.5,48.9531 7679,48.9531 7679,48.9531 C7679,48.9531 7740.5,48.9531 7740.5,38.9531 " fill="none" style="stroke: #5A4319; stroke-width: 1.5;"/><text fill="#111111" font-family="Helvetica" font-size="14" lengthAdjust="spacingAndGlyphs" textLength="99" x="7627.5" y="65.9482">queue/archive</text><text fill="#111111" font-family="Helvetica" font-size="14" lengthAdjust="spacingAndGlyphs" textLength="103" x="7627.5" y="82.2451">(discrete items</text><text fill="#111111" font-family="Helvetica" font-size="14" lengthAdjust="spacingAndGlyphs" textLength="91" x="7627.5" y="98.542">with lifecycle)</text><!--MD5=[fe0bae4af69ca8947a410fa6d457e8ef]
entity Adapter--><rect fill="#E0D4EC" height="68.8906" style="stroke: #5A3A72; stroke-width: 1.5;" width="119" x="9119.5" y="33.4531"/><rect fill="#E0D4EC" height="5" style="stroke: #5A3A72; stroke-width: 1.5;" width="10" x="9114.5" y="38.4531"/><rect fill="#E0D4EC" height="5" style="stroke: #5A3A72; stroke-width: 1.5;" width="10" x="9114.5" y="92.3438"/><text fill="#111111" font-family="Helvetica" font-size="14" lengthAdjust="spacingAndGlyphs" textLength="96" x="9129.5" y="56.4482">impl-side API /</text><text fill="#111111" font-family="Helvetica" font-size="14" lengthAdjust="spacingAndGlyphs" textLength="53" x="9129.5" y="72.7451">adapter</text><text fill="#111111" font-family="Helvetica" font-size="14" lengthAdjust="spacingAndGlyphs" textLength="99" x="9129.5" y="89.042">(Spec Reader)</text><!--MD5=[75a5da7bd47739f8b217b6945c41165a]
entity ArrowWithin--><rect fill="#D6E6F5" height="52.5938" rx="4" ry="4" style="stroke: #1F4768; stroke-width: 1.5;" width="94" x="9779" y="41.4531"/><text fill="#111111" font-family="Helvetica" font-size="14" lengthAdjust="spacingAndGlyphs" textLength="74" x="9789" y="64.4482">within-side</text><text fill="#111111" font-family="Helvetica" font-size="14" lengthAdjust="spacingAndGlyphs" textLength="61" x="9789" y="80.7451">data flow</text><!--MD5=[edce172098e86cfd753b61685c402766]
entity ArrowCross--><rect fill="#D6E6F5" height="68.8906" rx="4" ry="4" style="stroke: #1F4768; stroke-width: 1.5;" width="128" x="10504" y="33.4531"/><text fill="#111111" font-family="Helvetica" font-size="14" lengthAdjust="spacingAndGlyphs" textLength="108" x="10514" y="56.4482">cross-boundary</text><text fill="#111111" font-family="Helvetica" font-size="14" lengthAdjust="spacingAndGlyphs" textLength="57" x="10514" y="72.7451">contract</text><text fill="#111111" font-family="Helvetica" font-size="14" lengthAdjust="spacingAndGlyphs" textLength="92" x="10514" y="89.042">(spec ↔ impl)</text><path d="M6,167.9531 L6,193.0859 A0,0 0 0 0 6,193.0859 L1698,193.0859 A0,0 0 0 0 1698,193.0859 L1698,177.9531 L1688,167.9531 L856,167.9531 L852,102.7031 L848,167.9531 L6,167.9531 A0,0 0 0 0 6,167.9531 " fill="#FBFB77" style="stroke: #A80036; stroke-width: 1.0;"/><path d="M1688,167.9531 L1688,177.9531 L1698,177.9531 L1688,167.9531 " fill="#FBFB77" style="stroke: #A80036; stroke-width: 1.0;"/><text fill="#000000" font-family="Helvetica" font-size="13" lengthAdjust="spacingAndGlyphs" textLength="1671" x="12" y="185.02">Light-blue rounded rectangle — a heavyweight authored LiveSpec skill exposed as a slash command (e.g. /livespec:revise, /livespec-impl-*:capture-impl-gaps, /livespec-impl-*:implement). Carries dialogue, judgment calls, and detection logic in the SKILL.md body.</text><path d="M1733.5,167.9531 L1733.5,193.0859 A0,0 0 0 0 1733.5,193.0859 L4488.5,193.0859 A0,0 0 0 0 4488.5,193.0859 L4488.5,177.9531 L4478.5,167.9531 L3115,167.9531 L3111,102.7031 L3107,167.9531 L1733.5,167.9531 A0,0 0 0 0 1733.5,167.9531 " fill="#FBFB77" style="stroke: #A80036; stroke-width: 1.0;"/><path d="M4478.5,167.9531 L4478.5,177.9531 L4488.5,177.9531 L4478.5,167.9531 " fill="#FBFB77" style="stroke: #A80036; stroke-width: 1.0;"/><text fill="#000000" font-family="Helvetica" font-size="13" lengthAdjust="spacingAndGlyphs" textLength="2734" x="1739.5" y="185.02">Pale-blue rounded rectangle — a thin-transport skill (introduced 2026-05-18). Its SKILL.md is a pass-through wrapper around a deterministic CLI implementation under .claude-plugin/scripts/bin/. Used for contract-surface query operations (/livespec:next, /livespec-impl-*:list-memos, /livespec-impl-*:list-work-items, /livespec-impl-*:next). Renders the same shape as a heavyweight skill but is discipline-constrained to remain short.</text><path d="M4523.5,167.9531 L4523.5,193.0859 A0,0 0 0 0 4523.5,193.0859 L5666.5,193.0859 A0,0 0 0 0 5666.5,193.0859 L5666.5,177.9531 L5656.5,167.9531 L5099,167.9531 L5095,102.7031 L5091,167.9531 L4523.5,167.9531 A0,0 0 0 0 4523.5,167.9531 " fill="#FBFB77" style="stroke: #A80036; stroke-width: 1.0;"/><path d="M5656.5,167.9531 L5656.5,177.9531 L5666.5,177.9531 L5656.5,167.9531 " fill="#FBFB77" style="stroke: #A80036; stroke-width: 1.0;"/><text fill="#000000" font-family="Helvetica" font-size="13" lengthAdjust="spacingAndGlyphs" textLength="1122" x="4529.5" y="185.02">Yellow rectangle — the single external entry point. Any action can be taken by a human or an agent; the actor distinction isn't load-bearing, so there is no human-vs-agent split.</text><path d="M5702,167.9531 L5702,193.0859 A0,0 0 0 0 5702,193.0859 L6968,193.0859 A0,0 0 0 0 6968,193.0859 L6968,177.9531 L6958,167.9531 L6339,167.9531 L6335,106.9831 L6331,167.9531 L5702,167.9531 A0,0 0 0 0 5702,167.9531 " fill="#FBFB77" style="stroke: #A80036; stroke-width: 1.0;"/><path d="M6958,167.9531 L6958,177.9531 L6968,177.9531 L6958,167.9531 " fill="#FBFB77" style="stroke: #A80036; stroke-width: 1.0;"/><text fill="#000000" font-family="Helvetica" font-size="13" lengthAdjust="spacingAndGlyphs" textLength="1245" x="5708" y="185.02">Gold cylinder — a canonical, monolithic intent-accumulation store. The three stores in LiveSpec: SPECIFICATION/, the realized Implementation (code + tests + config), Persistent Agent Knowledge.</text><path d="M7003.5,167.9531 L7003.5,193.0859 A0,0 0 0 0 7003.5,193.0859 L8354.5,193.0859 A0,0 0 0 0 8354.5,193.0859 L8354.5,177.9531 L8344.5,167.9531 L7683,167.9531 L7679,106.9831 L7675,167.9531 L7003.5,167.9531 A0,0 0 0 0 7003.5,167.9531 " fill="#FBFB77" style="stroke: #A80036; stroke-width: 1.0;"/><path d="M8344.5,167.9531 L8344.5,177.9531 L8354.5,177.9531 L8344.5,167.9531 " fill="#FBFB77" style="stroke: #A80036; stroke-width: 1.0;"/><text fill="#000000" font-family="Helvetica" font-size="13" lengthAdjust="spacingAndGlyphs" textLength="1330" x="7009.5" y="185.02">Tan cylinder — a collection of discrete items with lifecycle state. The four queue/archives: proposed_changes/ (pure queue), history/vNNN/ (pure archive), Work Items (queue+archive), Memos (queue+archive).</text><path d="M8390,167.9531 L8390,193.0859 A0,0 0 0 0 8390,193.0859 L9968,193.0859 A0,0 0 0 0 9968,193.0859 L9968,177.9531 L9958,167.9531 L9183,167.9531 L9179,102.7031 L9175,167.9531 L8390,167.9531 A0,0 0 0 0 8390,167.9531 " fill="#FBFB77" style="stroke: #A80036; stroke-width: 1.0;"/><path d="M9958,167.9531 L9958,177.9531 L9968,177.9531 L9958,167.9531 " fill="#FBFB77" style="stroke: #A80036; stroke-width: 1.0;"/><text fill="#000000" font-family="Helvetica" font-size="13" lengthAdjust="spacingAndGlyphs" textLength="1557" x="8396" y="185.02">Pale-lavender component — an impl-side API/adapter that unifies a capability for impl-side operations. Currently: Spec Reader (presents Specification + Specification History to impl-side skills). Internals are implementation-dependent per plugin.</text><path d="M10003,167.9531 L10003,193.0859 A0,0 0 0 0 10003,193.0859 L11133,193.0859 A0,0 0 0 0 11133,193.0859 L11133,177.9531 L11123,167.9531 L10572,167.9531 L10568,102.7031 L10564,167.9531 L10003,167.9531 A0,0 0 0 0 10003,167.9531 " fill="#FBFB77" style="stroke: #A80036; stroke-width: 1.0;"/><path d="M11123,167.9531 L11123,177.9531 L11133,177.9531 L11123,167.9531 " fill="#FBFB77" style="stroke: #A80036; stroke-width: 1.0;"/><text fill="#000000" font-family="Helvetica" font-size="13" lengthAdjust="spacingAndGlyphs" textLength="1109" x="10009" y="185.02">Thick red arrow — a deliberate, audited cross-boundary handoff between SPEC SIDE and IMPLEMENTATION SIDE. These edges are the only sanctioned spec↔impl relationship.</text><!--MD5=[24d0a35f0d7bd4e4b96565a96f881b29]
link ArrowWithin to ArrowWithin--><path d="M9873.19,55.2831 C9892.11,54.5631 9908,58.7931 9908,67.9531 C9908,76.2531 9894.95,80.5031 9878.42,80.6931 " fill="none" id="ArrowWithin-&gt;ArrowWithin" style="stroke: #000000; stroke-width: 1.0;"/><polygon fill="#000000" points="9873.19,80.6231,9882.1319,84.7513,9878.1895,80.6945,9882.2462,76.7521,9873.19,80.6231" style="stroke: #000000; stroke-width: 1.0;"/><text fill="#000000" font-family="Helvetica" font-size="13" lengthAdjust="spacingAndGlyphs" textLength="61" x="9914" y="72.52">thin black</text><!--MD5=[936dd1363686a126172a13f7fa8ce971]
link ArrowCross to ArrowCross--><path d="M10632.27,55.2231 C10651.76,55.5431 10667,59.7831 10667,67.9531 C10667,75.3531 10654.49,79.5331 10637.63,80.4931 " fill="none" id="ArrowCross-&gt;ArrowCross" style="stroke: #A02020; stroke-width: 2.0;"/><polygon fill="#A02020" points="10632.27,80.6831,10641.4018,84.3724,10637.2671,80.5118,10641.1277,76.3771,10632.27,80.6831" style="stroke: #A02020; stroke-width: 2.0;"/><text fill="#000000" font-family="Helvetica" font-size="13" lengthAdjust="spacingAndGlyphs" textLength="55" x="10673" y="72.52">thick red</text><!--MD5=[901fec39fe7e0b0d36fc9b6969798732]
@startuml legend
title Legend — Symbol Vocabulary (LiveSpec workflow diagrams)
skinparam defaultFontName Helvetica
skinparam shadowing false
skinparam BackgroundColor #fafafa
skinparam ArrowColor #000000
skinparam ArrowFontColor #000000

skinparam rectangle {
  BackgroundColor #d6e6f5
  BorderColor #1f4768
  FontColor #111
  RoundCorner 8
}
skinparam database {
  BackgroundColor #f5ead5
  BorderColor #5a4319
  FontColor #111
}
skinparam component {
  BackgroundColor #e0d4ec
  BorderColor #5a3a72
  FontColor #111
}

rectangle "skill /\nslash command\n(heavyweight)" as Skill
rectangle "skill /\nslash command\n(thin transport)" as ThinSkill #ccddee
rectangle "external input\n(initial intent /\nprompt / instruction)" as Input #fffacc
database "store\n(canonical, monolithic\nintent accumulation)" as Store #f5d76e
database "queue/archive\n(discrete items\nwith lifecycle)" as QueueArchive
component "impl-side API /\nadapter\n(Spec Reader)" as Adapter

rectangle "within-side\ndata flow" as ArrowWithin
rectangle "cross-boundary\ncontract\n(spec ↔ impl)" as ArrowCross

ArrowWithin -[#000000]-> ArrowWithin : thin black
ArrowCross -[#a02020,thickness=2]-> ArrowCross : thick red

note bottom of Skill : Light-blue rounded rectangle — a heavyweight authored LiveSpec skill exposed as a slash command (e.g. /livespec:revise, /livespec-impl-*:capture-impl-gaps, /livespec-impl-*:implement). Carries dialogue, judgment calls, and detection logic in the SKILL.md body.
note bottom of ThinSkill : Pale-blue rounded rectangle — a thin-transport skill (introduced 2026-05-18). Its SKILL.md is a pass-through wrapper around a deterministic CLI implementation under .claude-plugin/scripts/bin/. Used for contract-surface query operations (/livespec:next, /livespec-impl-*:list-memos, /livespec-impl-*:list-work-items, /livespec-impl-*:next). Renders the same shape as a heavyweight skill but is discipline-constrained to remain short.
note bottom of Input : Yellow rectangle — the single external entry point. Any action can be taken by a human or an agent; the actor distinction isn't load-bearing, so there is no human-vs-agent split.
note bottom of Store : Gold cylinder — a canonical, monolithic intent-accumulation store. The three stores in LiveSpec: SPECIFICATION/, the realized Implementation (code + tests + config), Persistent Agent Knowledge.
note bottom of QueueArchive : Tan cylinder — a collection of discrete items with lifecycle state. The four queue/archives: proposed_changes/ (pure queue), history/vNNN/ (pure archive), Work Items (queue+archive), Memos (queue+archive).
note bottom of Adapter : Pale-lavender component — an impl-side API/adapter that unifies a capability for impl-side operations. Currently: Spec Reader (presents Specification + Specification History to impl-side skills). Internals are implementation-dependent per plugin.
note bottom of ArrowCross : Thick red arrow — a deliberate, audited cross-boundary handoff between SPEC SIDE and IMPLEMENTATION SIDE. These edges are the only sanctioned spec↔impl relationship.

@enduml

PlantUML version 1.2020.02(Sun Mar 01 11:22:07 CET 2020)
(GPL source distribution)
Java Runtime: OpenJDK Runtime Environment
JVM: OpenJDK 64-Bit Server VM
Java Version: 21.0.10+7-Ubuntu-125.10
Operating System: Linux
Default Encoding: UTF-8
Language: en
Country: null
--></g></svg>