<?xml version="1.0" encoding="UTF-8" standalone="no"?><svg xmlns="http://www.w3.org/2000/svg" xmlns:xlink="http://www.w3.org/1999/xlink" contentScriptType="application/ecmascript" contentStyleType="text/css" height="205px" preserveAspectRatio="none" style="width:7551px;height:205px;background:#FAFAFA;" version="1.1" viewBox="0 0 7551 205" width="7551px" zoomAndPan="magnify"><defs/><g><text fill="#000000" font-family="Helvetica" font-size="18" lengthAdjust="spacingAndGlyphs" textLength="539" x="3509" y="16.708">Legend — Symbol Vocabulary (LiveSpec workflow diagrams)</text><!--MD5=[04b7339e8574659b7bfbe9bf91a2192a]
entity Skill--><rect fill="#D6E6F5" height="52.5938" rx="4" ry="4" style="stroke: #1F4768; stroke-width: 1.5;" width="129" x="385.5" y="41.4531"/><text fill="#111111" font-family="Helvetica" font-size="14" lengthAdjust="spacingAndGlyphs" textLength="34" x="395.5" y="64.4482">skill /</text><text fill="#111111" font-family="Helvetica" font-size="14" lengthAdjust="spacingAndGlyphs" textLength="109" x="395.5" y="80.7451">slash command</text><!--MD5=[1e9204083aa66e691856924869ece9f5]
entity Input--><rect fill="#FFFACC" height="68.8906" rx="4" ry="4" style="stroke: #1F4768; stroke-width: 1.5;" width="161" x="1420.5" y="33.4531"/><text fill="#111111" font-family="Helvetica" font-size="14" lengthAdjust="spacingAndGlyphs" textLength="94" x="1430.5" y="56.4482">external input</text><text fill="#111111" font-family="Helvetica" font-size="14" lengthAdjust="spacingAndGlyphs" textLength="92" x="1430.5" y="72.7451">(initial intent /</text><text fill="#111111" font-family="Helvetica" font-size="14" lengthAdjust="spacingAndGlyphs" textLength="141" x="1430.5" y="89.042">prompt / instruction)</text><!--MD5=[5ae79695dcaadcd84dbd6fcdb28f3d61]
entity Store--><path d="M2656.5,38.9531 C2656.5,28.9531 2741,28.9531 2741,28.9531 C2741,28.9531 2825.5,28.9531 2825.5,38.9531 L2825.5,96.8438 C2825.5,106.8438 2741,106.8438 2741,106.8438 C2741,106.8438 2656.5,106.8438 2656.5,96.8438 L2656.5,38.9531 " fill="#F5D76E" style="stroke: #5A4319; stroke-width: 1.5;"/><path d="M2656.5,38.9531 C2656.5,48.9531 2741,48.9531 2741,48.9531 C2741,48.9531 2825.5,48.9531 2825.5,38.9531 " fill="none" style="stroke: #5A4319; stroke-width: 1.5;"/><text fill="#111111" font-family="Helvetica" font-size="14" lengthAdjust="spacingAndGlyphs" textLength="36" x="2666.5" y="65.9482">store</text><text fill="#111111" font-family="Helvetica" font-size="14" lengthAdjust="spacingAndGlyphs" textLength="149" x="2666.5" y="82.2451">(canonical, monolithic</text><text fill="#111111" font-family="Helvetica" font-size="14" lengthAdjust="spacingAndGlyphs" textLength="141" x="2666.5" y="98.542">intent accumulation)</text><!--MD5=[30f0798213a7b74cc0804e90224a797b]
entity QueueArchive--><path d="M4023.5,38.9531 C4023.5,28.9531 4085,28.9531 4085,28.9531 C4085,28.9531 4146.5,28.9531 4146.5,38.9531 L4146.5,96.8438 C4146.5,106.8438 4085,106.8438 4085,106.8438 C4085,106.8438 4023.5,106.8438 4023.5,96.8438 L4023.5,38.9531 " fill="#F5EAD5" style="stroke: #5A4319; stroke-width: 1.5;"/><path d="M4023.5,38.9531 C4023.5,48.9531 4085,48.9531 4085,48.9531 C4085,48.9531 4146.5,48.9531 4146.5,38.9531 " fill="none" style="stroke: #5A4319; stroke-width: 1.5;"/><text fill="#111111" font-family="Helvetica" font-size="14" lengthAdjust="spacingAndGlyphs" textLength="99" x="4033.5" y="65.9482">queue/archive</text><text fill="#111111" font-family="Helvetica" font-size="14" lengthAdjust="spacingAndGlyphs" textLength="103" x="4033.5" y="82.2451">(discrete items</text><text fill="#111111" font-family="Helvetica" font-size="14" lengthAdjust="spacingAndGlyphs" textLength="91" x="4033.5" y="98.542">with lifecycle)</text><!--MD5=[fe0bae4af69ca8947a410fa6d457e8ef]
entity Adapter--><rect fill="#E0D4EC" height="68.8906" style="stroke: #5A3A72; stroke-width: 1.5;" width="119" x="5525.5" y="33.4531"/><rect fill="#E0D4EC" height="5" style="stroke: #5A3A72; stroke-width: 1.5;" width="10" x="5520.5" y="38.4531"/><rect fill="#E0D4EC" height="5" style="stroke: #5A3A72; stroke-width: 1.5;" width="10" x="5520.5" y="92.3438"/><text fill="#111111" font-family="Helvetica" font-size="14" lengthAdjust="spacingAndGlyphs" textLength="96" x="5535.5" y="56.4482">impl-side API /</text><text fill="#111111" font-family="Helvetica" font-size="14" lengthAdjust="spacingAndGlyphs" textLength="53" x="5535.5" y="72.7451">adapter</text><text fill="#111111" font-family="Helvetica" font-size="14" lengthAdjust="spacingAndGlyphs" textLength="99" x="5535.5" y="89.042">(Spec Reader)</text><!--MD5=[75a5da7bd47739f8b217b6945c41165a]
entity ArrowWithin--><rect fill="#D6E6F5" height="52.5938" rx="4" ry="4" style="stroke: #1F4768; stroke-width: 1.5;" width="94" x="6185" y="41.4531"/><text fill="#111111" font-family="Helvetica" font-size="14" lengthAdjust="spacingAndGlyphs" textLength="74" x="6195" y="64.4482">within-side</text><text fill="#111111" font-family="Helvetica" font-size="14" lengthAdjust="spacingAndGlyphs" textLength="61" x="6195" y="80.7451">data flow</text><!--MD5=[edce172098e86cfd753b61685c402766]
entity ArrowCross--><rect fill="#D6E6F5" height="68.8906" rx="4" ry="4" style="stroke: #1F4768; stroke-width: 1.5;" width="128" x="6910" y="33.4531"/><text fill="#111111" font-family="Helvetica" font-size="14" lengthAdjust="spacingAndGlyphs" textLength="108" x="6920" y="56.4482">cross-boundary</text><text fill="#111111" font-family="Helvetica" font-size="14" lengthAdjust="spacingAndGlyphs" textLength="57" x="6920" y="72.7451">contract</text><text fill="#111111" font-family="Helvetica" font-size="14" lengthAdjust="spacingAndGlyphs" textLength="92" x="6920" y="89.042">(spec ↔ impl)</text><path d="M6,167.9531 L6,193.0859 A0,0 0 0 0 6,193.0859 L894,193.0859 A0,0 0 0 0 894,193.0859 L894,177.9531 L884,167.9531 L454,167.9531 L450,94.5831 L446,167.9531 L6,167.9531 A0,0 0 0 0 6,167.9531 " fill="#FBFB77" style="stroke: #A80036; stroke-width: 1.0;"/><path d="M884,167.9531 L884,177.9531 L894,177.9531 L884,167.9531 " fill="#FBFB77" style="stroke: #A80036; stroke-width: 1.0;"/><text fill="#000000" font-family="Helvetica" font-size="13" lengthAdjust="spacingAndGlyphs" textLength="867" x="12" y="185.02">Light-blue rounded rectangle — a LiveSpec skill exposed as a slash command (e.g. /livespec:revise, /livespec-impl-*:capture-impl-gaps).</text><path d="M929.5,167.9531 L929.5,193.0859 A0,0 0 0 0 929.5,193.0859 L2072.5,193.0859 A0,0 0 0 0 2072.5,193.0859 L2072.5,177.9531 L2062.5,167.9531 L1505,167.9531 L1501,102.7031 L1497,167.9531 L929.5,167.9531 A0,0 0 0 0 929.5,167.9531 " fill="#FBFB77" style="stroke: #A80036; stroke-width: 1.0;"/><path d="M2062.5,167.9531 L2062.5,177.9531 L2072.5,177.9531 L2062.5,167.9531 " fill="#FBFB77" style="stroke: #A80036; stroke-width: 1.0;"/><text fill="#000000" font-family="Helvetica" font-size="13" lengthAdjust="spacingAndGlyphs" textLength="1122" x="935.5" y="185.02">Yellow rectangle — the single external entry point. Any action can be taken by a human or an agent; the actor distinction isn't load-bearing, so there is no human-vs-agent split.</text><path d="M2108,167.9531 L2108,193.0859 A0,0 0 0 0 2108,193.0859 L3374,193.0859 A0,0 0 0 0 3374,193.0859 L3374,177.9531 L3364,167.9531 L2745,167.9531 L2741,106.9831 L2737,167.9531 L2108,167.9531 A0,0 0 0 0 2108,167.9531 " fill="#FBFB77" style="stroke: #A80036; stroke-width: 1.0;"/><path d="M3364,167.9531 L3364,177.9531 L3374,177.9531 L3364,167.9531 " fill="#FBFB77" style="stroke: #A80036; stroke-width: 1.0;"/><text fill="#000000" font-family="Helvetica" font-size="13" lengthAdjust="spacingAndGlyphs" textLength="1245" x="2114" y="185.02">Gold cylinder — a canonical, monolithic intent-accumulation store. The three stores in LiveSpec: SPECIFICATION/, the realized Implementation (code + tests + config), Persistent Agent Knowledge.</text><path d="M3409.5,167.9531 L3409.5,193.0859 A0,0 0 0 0 3409.5,193.0859 L4760.5,193.0859 A0,0 0 0 0 4760.5,193.0859 L4760.5,177.9531 L4750.5,167.9531 L4089,167.9531 L4085,106.9831 L4081,167.9531 L3409.5,167.9531 A0,0 0 0 0 3409.5,167.9531 " fill="#FBFB77" style="stroke: #A80036; stroke-width: 1.0;"/><path d="M4750.5,167.9531 L4750.5,177.9531 L4760.5,177.9531 L4750.5,167.9531 " fill="#FBFB77" style="stroke: #A80036; stroke-width: 1.0;"/><text fill="#000000" font-family="Helvetica" font-size="13" lengthAdjust="spacingAndGlyphs" textLength="1330" x="3415.5" y="185.02">Tan cylinder — a collection of discrete items with lifecycle state. The four queue/archives: proposed_changes/ (pure queue), history/vNNN/ (pure archive), Work Items (queue+archive), Memos (queue+archive).</text><path d="M4796,167.9531 L4796,193.0859 A0,0 0 0 0 4796,193.0859 L6374,193.0859 A0,0 0 0 0 6374,193.0859 L6374,177.9531 L6364,167.9531 L5589,167.9531 L5585,102.7031 L5581,167.9531 L4796,167.9531 A0,0 0 0 0 4796,167.9531 " fill="#FBFB77" style="stroke: #A80036; stroke-width: 1.0;"/><path d="M6364,167.9531 L6364,177.9531 L6374,177.9531 L6364,167.9531 " fill="#FBFB77" style="stroke: #A80036; stroke-width: 1.0;"/><text fill="#000000" font-family="Helvetica" font-size="13" lengthAdjust="spacingAndGlyphs" textLength="1557" x="4802" y="185.02">Pale-lavender component — an impl-side API/adapter that unifies a capability for impl-side operations. Currently: Spec Reader (presents Specification + Specification History to impl-side skills). Internals are implementation-dependent per plugin.</text><path d="M6409,167.9531 L6409,193.0859 A0,0 0 0 0 6409,193.0859 L7539,193.0859 A0,0 0 0 0 7539,193.0859 L7539,177.9531 L7529,167.9531 L6978,167.9531 L6974,102.7031 L6970,167.9531 L6409,167.9531 A0,0 0 0 0 6409,167.9531 " fill="#FBFB77" style="stroke: #A80036; stroke-width: 1.0;"/><path d="M7529,167.9531 L7529,177.9531 L7539,177.9531 L7529,167.9531 " fill="#FBFB77" style="stroke: #A80036; stroke-width: 1.0;"/><text fill="#000000" font-family="Helvetica" font-size="13" lengthAdjust="spacingAndGlyphs" textLength="1109" x="6415" y="185.02">Thick red arrow — a deliberate, audited cross-boundary handoff between SPEC SIDE and IMPLEMENTATION SIDE. These edges are the only sanctioned spec↔impl relationship.</text><!--MD5=[24d0a35f0d7bd4e4b96565a96f881b29]
link ArrowWithin to ArrowWithin--><path d="M6279.19,55.2831 C6298.11,54.5631 6314,58.7931 6314,67.9531 C6314,76.2531 6300.95,80.5031 6284.42,80.6931 " fill="none" id="ArrowWithin-&gt;ArrowWithin" style="stroke: #000000; stroke-width: 1.0;"/><polygon fill="#000000" points="6279.19,80.6231,6288.1319,84.7513,6284.1895,80.6945,6288.2462,76.7521,6279.19,80.6231" style="stroke: #000000; stroke-width: 1.0;"/><text fill="#000000" font-family="Helvetica" font-size="13" lengthAdjust="spacingAndGlyphs" textLength="61" x="6320" y="72.52">thin black</text><!--MD5=[936dd1363686a126172a13f7fa8ce971]
link ArrowCross to ArrowCross--><path d="M7038.27,55.2231 C7057.76,55.5431 7073,59.7831 7073,67.9531 C7073,75.3531 7060.49,79.5331 7043.63,80.4931 " fill="none" id="ArrowCross-&gt;ArrowCross" style="stroke: #A02020; stroke-width: 2.0;"/><polygon fill="#A02020" points="7038.27,80.6831,7047.4018,84.3724,7043.2671,80.5118,7047.1277,76.3771,7038.27,80.6831" style="stroke: #A02020; stroke-width: 2.0;"/><text fill="#000000" font-family="Helvetica" font-size="13" lengthAdjust="spacingAndGlyphs" textLength="55" x="7079" y="72.52">thick red</text><!--MD5=[e12e097ab9f4284010874118019cea9f]
@startuml legend
title Legend — Symbol Vocabulary (LiveSpec workflow diagrams)
skinparam defaultFontName Helvetica
skinparam shadowing false
skinparam BackgroundColor #fafafa
skinparam ArrowColor #000000
skinparam ArrowFontColor #000000

skinparam rectangle {
  BackgroundColor #d6e6f5
  BorderColor #1f4768
  FontColor #111
  RoundCorner 8
}
skinparam database {
  BackgroundColor #f5ead5
  BorderColor #5a4319
  FontColor #111
}
skinparam component {
  BackgroundColor #e0d4ec
  BorderColor #5a3a72
  FontColor #111
}

rectangle "skill /\nslash command" as Skill
rectangle "external input\n(initial intent /\nprompt / instruction)" as Input #fffacc
database "store\n(canonical, monolithic\nintent accumulation)" as Store #f5d76e
database "queue/archive\n(discrete items\nwith lifecycle)" as QueueArchive
component "impl-side API /\nadapter\n(Spec Reader)" as Adapter

rectangle "within-side\ndata flow" as ArrowWithin
rectangle "cross-boundary\ncontract\n(spec ↔ impl)" as ArrowCross

ArrowWithin -[#000000]-> ArrowWithin : thin black
ArrowCross -[#a02020,thickness=2]-> ArrowCross : thick red

note bottom of Skill : Light-blue rounded rectangle — a LiveSpec skill exposed as a slash command (e.g. /livespec:revise, /livespec-impl-*:capture-impl-gaps).
note bottom of Input : Yellow rectangle — the single external entry point. Any action can be taken by a human or an agent; the actor distinction isn't load-bearing, so there is no human-vs-agent split.
note bottom of Store : Gold cylinder — a canonical, monolithic intent-accumulation store. The three stores in LiveSpec: SPECIFICATION/, the realized Implementation (code + tests + config), Persistent Agent Knowledge.
note bottom of QueueArchive : Tan cylinder — a collection of discrete items with lifecycle state. The four queue/archives: proposed_changes/ (pure queue), history/vNNN/ (pure archive), Work Items (queue+archive), Memos (queue+archive).
note bottom of Adapter : Pale-lavender component — an impl-side API/adapter that unifies a capability for impl-side operations. Currently: Spec Reader (presents Specification + Specification History to impl-side skills). Internals are implementation-dependent per plugin.
note bottom of ArrowCross : Thick red arrow — a deliberate, audited cross-boundary handoff between SPEC SIDE and IMPLEMENTATION SIDE. These edges are the only sanctioned spec↔impl relationship.

@enduml

PlantUML version 1.2020.02(Sun Mar 01 11:22:07 CET 2020)
(GPL source distribution)
Java Runtime: OpenJDK Runtime Environment
JVM: OpenJDK 64-Bit Server VM
Java Version: 21.0.10+7-Ubuntu-125.10
Operating System: Linux
Default Encoding: UTF-8
Language: en
Country: null
--></g></svg>