<?xml version="1.0" encoding="UTF-8" standalone="no"?><svg xmlns="http://www.w3.org/2000/svg" xmlns:xlink="http://www.w3.org/1999/xlink" contentScriptType="application/ecmascript" contentStyleType="text/css" height="963px" preserveAspectRatio="none" style="width:1343px;height:963px;" version="1.1" viewBox="0 0 1343 963" width="1343px" zoomAndPan="magnify"><defs/><g><text fill="#000000" font-family="Helvetica" font-size="18" lengthAdjust="spacingAndGlyphs" textLength="283" x="533.5" y="16.708">LiveSpec Core — Spec Lifecycle</text><!--MD5=[11046a9c2aa2f840aede4832a203c50a]
entity HumanUser--><ellipse cx="550.5" cy="38.4531" fill="#FFFFFF" rx="8" ry="8" style="stroke: #111111; stroke-width: 1.5;"/><path d="M550.5,46.4531 L550.5,73.4531 M537.5,54.4531 L563.5,54.4531 M550.5,73.4531 L537.5,88.4531 M550.5,73.4531 L563.5,88.4531 " fill="none" style="stroke: #111111; stroke-width: 1.5;"/><text fill="#111111" font-family="Helvetica" font-size="14" lengthAdjust="spacingAndGlyphs" textLength="49" x="526" y="103.9482">Human</text><text fill="#111111" font-family="Helvetica" font-size="14" lengthAdjust="spacingAndGlyphs" textLength="31" x="526" y="120.2451">user</text><!--MD5=[9cb65aab968679016cabe6121c7526ca]
entity Agent--><ellipse cx="275.5" cy="221.9531" fill="#87CEFA" rx="8" ry="8" style="stroke: #111111; stroke-width: 1.5;"/><path d="M275.5,229.9531 L275.5,256.9531 M262.5,237.9531 L288.5,237.9531 M275.5,256.9531 L262.5,271.9531 M275.5,256.9531 L288.5,271.9531 " fill="none" style="stroke: #111111; stroke-width: 1.5;"/><text fill="#111111" font-family="Helvetica" font-size="14" lengthAdjust="spacingAndGlyphs" textLength="41" x="255" y="287.4482">Agent</text><!--MD5=[92574377400ced507409596176ec27d4]
entity SeedIntent--><rect fill="#FFFFFF" height="52.5938" style="stroke: #111111; stroke-width: 1.0; stroke-dasharray: 7.0,7.0;" width="93" x="6" y="224.9531"/><text fill="#111111" font-family="Helvetica" font-size="14" lengthAdjust="spacingAndGlyphs" textLength="73" x="16" y="247.9482">Initial seed</text><text fill="#111111" font-family="Helvetica" font-size="14" lengthAdjust="spacingAndGlyphs" textLength="57" x="16" y="264.2451">of intent</text><!--MD5=[b802ca002875960980854112a6b102bd]
entity SeedCmd--><rect fill="#FFFFE0" height="22.2969" style="stroke: #111111; stroke-width: 1.5;" width="121" x="109" y="413.9531"/><text fill="#111111" font-family="Helvetica" font-size="14" lengthAdjust="spacingAndGlyphs" textLength="101" x="119" y="429.9482">/livespec:seed</text><!--MD5=[5b0af1a53dfe6ce9d6337a803daa3faf]
entity Spec--><path d="M516.5,705.9531 C516.5,695.9531 640.5,695.9531 640.5,695.9531 C640.5,695.9531 764.5,695.9531 764.5,705.9531 L764.5,780.1406 C764.5,790.1406 640.5,790.1406 640.5,790.1406 C640.5,790.1406 516.5,790.1406 516.5,780.1406 L516.5,705.9531 " fill="#FFFFFF" style="stroke: #111111; stroke-width: 1.5;"/><path d="M516.5,705.9531 C516.5,715.9531 640.5,715.9531 640.5,715.9531 C640.5,715.9531 764.5,715.9531 764.5,705.9531 " fill="none" style="stroke: #111111; stroke-width: 1.5;"/><text fill="#111111" font-family="Helvetica" font-size="14" lengthAdjust="spacingAndGlyphs" textLength="108" x="526.5" y="732.9482">SPECIFICATION/</text><text fill="#111111" font-family="Helvetica" font-size="14" lengthAdjust="spacingAndGlyphs" textLength="168" x="526.5" y="749.2451">(spec.md, contracts.md,</text><text fill="#111111" font-family="Helvetica" font-size="14" lengthAdjust="spacingAndGlyphs" textLength="208" x="526.5" y="765.542">constraints.md, scenarios.md,</text><text fill="#111111" font-family="Helvetica" font-size="14" lengthAdjust="spacingAndGlyphs" textLength="228" x="526.5" y="781.8389">non-functional-requirements.md)</text><!--MD5=[99a8f7b7d62222417991320410ebdaf2]
entity History--><path d="M58,721.9531 C58,711.9531 114.5,711.9531 114.5,711.9531 C114.5,711.9531 171,711.9531 171,721.9531 L171,763.5469 C171,773.5469 114.5,773.5469 114.5,773.5469 C114.5,773.5469 58,773.5469 58,763.5469 L58,721.9531 " fill="#FFFFFF" style="stroke: #111111; stroke-width: 1.5;"/><path d="M58,721.9531 C58,731.9531 114.5,731.9531 114.5,731.9531 C114.5,731.9531 171,731.9531 171,721.9531 " fill="none" style="stroke: #111111; stroke-width: 1.5;"/><text fill="#111111" font-family="Helvetica" font-size="14" lengthAdjust="spacingAndGlyphs" textLength="93" x="68" y="748.9482">history/vNNN/</text><text fill="#111111" font-family="Helvetica" font-size="14" lengthAdjust="spacingAndGlyphs" textLength="73" x="68" y="765.2451">snapshots</text><!--MD5=[7ca372cbd3a2f19304f359205cdeb52a]
entity Proposed--><path d="M506,403.9531 C506,393.9531 585.5,393.9531 585.5,393.9531 C585.5,393.9531 665,393.9531 665,403.9531 L665,445.5469 C665,455.5469 585.5,455.5469 585.5,455.5469 C585.5,455.5469 506,455.5469 506,445.5469 L506,403.9531 " fill="#FFFFFF" style="stroke: #111111; stroke-width: 1.5;"/><path d="M506,403.9531 C506,413.9531 585.5,413.9531 585.5,413.9531 C585.5,413.9531 665,413.9531 665,403.9531 " fill="none" style="stroke: #111111; stroke-width: 1.5;"/><text fill="#111111" font-family="Helvetica" font-size="14" lengthAdjust="spacingAndGlyphs" textLength="139" x="516" y="430.9482">proposed_changes/</text><text fill="#111111" font-family="Helvetica" font-size="14" lengthAdjust="spacingAndGlyphs" textLength="67" x="516" y="447.2451">(pending)</text><!--MD5=[472d842df567ff3716f68c55e3b88905]
entity SpecObs--><rect fill="#FFFFFF" height="85.1875" style="stroke: #111111; stroke-width: 1.0; stroke-dasharray: 7.0,7.0;" width="188" x="836.5" y="866.9531"/><text fill="#111111" font-family="Helvetica" font-size="14" lengthAdjust="spacingAndGlyphs" textLength="83" x="846.5" y="889.9482">Observation</text><text fill="#111111" font-family="Helvetica" font-size="14" lengthAdjust="spacingAndGlyphs" textLength="100" x="846.5" y="906.2451">(spec-internal:</text><text fill="#111111" font-family="Helvetica" font-size="14" lengthAdjust="spacingAndGlyphs" textLength="168" x="846.5" y="922.542">ambiguity, contradiction,</text><text fill="#111111" font-family="Helvetica" font-size="14" lengthAdjust="spacingAndGlyphs" textLength="111" x="846.5" y="938.8389">undefined term)</text><!--MD5=[272f1508d0aa9753d64b43ac83d2e348]
entity CritiqueCmd--><rect fill="#FFFFE0" height="22.2969" style="stroke: #111111; stroke-width: 1.5;" width="137" x="741" y="240.4531"/><text fill="#111111" font-family="Helvetica" font-size="14" lengthAdjust="spacingAndGlyphs" textLength="117" x="751" y="256.4482">/livespec:critique</text><path d="M1111.5,200.9531 L1111.5,301.75 L1331.5,301.75 L1331.5,210.9531 L1321.5,200.9531 L1111.5,200.9531 " fill="#FBFB77" style="stroke: #A80036; stroke-width: 1.0;"/><path d="M1321.5,200.9531 L1321.5,210.9531 L1331.5,210.9531 L1321.5,200.9531 " fill="#FBFB77" style="stroke: #A80036; stroke-width: 1.0;"/><text fill="#000000" font-family="Helvetica" font-size="13" lengthAdjust="spacingAndGlyphs" textLength="168" x="1117.5" y="218.02">Role: surface observations</text><text fill="#000000" font-family="Helvetica" font-size="13" lengthAdjust="spacingAndGlyphs" textLength="150" x="1117.5" y="233.1528">based on observing the</text><text fill="#000000" font-family="Helvetica" font-size="13" lengthAdjust="spacingAndGlyphs" textLength="199" x="1117.5" y="248.2856">spec. NOT the implementation.</text><text fill="#000000" font-family="Helvetica" font-size="13" lengthAdjust="spacingAndGlyphs" textLength="164" x="1117.5" y="263.4185">Finds spec-internal issues</text><text fill="#000000" font-family="Helvetica" font-size="13" lengthAdjust="spacingAndGlyphs" textLength="163" x="1117.5" y="278.5513">(ambiguity, contradiction,</text><text fill="#000000" font-family="Helvetica" font-size="13" lengthAdjust="spacingAndGlyphs" textLength="91" x="1117.5" y="293.6841">dangling refs).</text><!--MD5=[c51724c2f4d7ca909fcd60c57646d935]
entity ProposeCmd--><rect fill="#FFFFE0" height="38.5938" style="stroke: #111111; stroke-width: 1.5;" width="209" x="331" y="231.9531"/><text fill="#111111" font-family="Helvetica" font-size="14" lengthAdjust="spacingAndGlyphs" textLength="189" x="341" y="247.9482">/livespec:propose-changes</text><text fill="#111111" font-family="Helvetica" font-size="14" lengthAdjust="spacingAndGlyphs" textLength="168" x="341" y="264.2451">(formal or quick-deposit)</text><!--MD5=[75e784151e5cd96d91460b70430cdfcd]
entity ReviseCmd--><rect fill="#FFFFE0" height="38.5938" style="stroke: #111111; stroke-width: 1.5;" width="182" x="167.5" y="563.9531"/><text fill="#111111" font-family="Helvetica" font-size="14" lengthAdjust="spacingAndGlyphs" textLength="107" x="177.5" y="579.9482">/livespec:revise</text><text fill="#111111" font-family="Helvetica" font-size="14" lengthAdjust="spacingAndGlyphs" textLength="162" x="177.5" y="596.2451">(selective per proposal)</text><ellipse cx="1030.6194" cy="251.2257" fill="#FFFFFF" rx="45.6194" ry="25.7725" style="stroke: #111111; stroke-width: 1.5;"/><text fill="#111111" font-family="Helvetica" font-size="14" lengthAdjust="spacingAndGlyphs" textLength="58" x="1001.6194" y="247.3348">Revision</text><text fill="#111111" font-family="Helvetica" font-size="14" lengthAdjust="spacingAndGlyphs" textLength="61" x="1000.1194" y="263.6317">needed?</text><!--MD5=[461c48d91e89ad1d3c276d51975c0cf3]
entity DoctorCmd--><rect fill="#FFFFE0" height="22.2969" style="stroke: #111111; stroke-width: 1.5;" width="131" x="575" y="240.4531"/><text fill="#111111" font-family="Helvetica" font-size="14" lengthAdjust="spacingAndGlyphs" textLength="111" x="585" y="256.4482">/livespec:doctor</text><!--MD5=[77b54a2a3c3e3533e6afb9c354ba9896]
entity PruneCmd--><rect fill="#FFFFE0" height="22.2969" style="stroke: #111111; stroke-width: 1.5;" width="178" x="25.5" y="898.4531"/><text fill="#111111" font-family="Helvetica" font-size="14" lengthAdjust="spacingAndGlyphs" textLength="158" x="35.5" y="914.4482">/livespec:prune-history</text><!--MD5=[50199faf504c2b7c3a08f041cedd89e5]
entity HelpCmd--><rect fill="#FFFFE0" height="22.2969" style="stroke: #111111; stroke-width: 1.5;" width="116" x="610.5" y="65.4531"/><text fill="#111111" font-family="Helvetica" font-size="14" lengthAdjust="spacingAndGlyphs" textLength="96" x="620.5" y="81.4482">/livespec:help</text><path d="M509,873.9531 L509,944.4844 A0,0 0 0 0 509,944.4844 L772,944.4844 A0,0 0 0 0 772,944.4844 L772,883.9531 L762,873.9531 L644.5,873.9531 L640.5,790.2131 L636.5,873.9531 L509,873.9531 A0,0 0 0 0 509,873.9531 " fill="#FBFB77" style="stroke: #A80036; stroke-width: 1.0;"/><path d="M762,873.9531 L762,883.9531 L772,883.9531 L762,873.9531 " fill="#FBFB77" style="stroke: #A80036; stroke-width: 1.0;"/><text fill="#000000" font-family="Helvetica" font-size="13" lengthAdjust="spacingAndGlyphs" textLength="145" x="515" y="891.02">Mutated ONLY through</text><text fill="#000000" font-family="Helvetica" font-size="13" lengthAdjust="spacingAndGlyphs" textLength="185" x="515" y="906.1528">/livespec:propose-changes →</text><text fill="#000000" font-family="Helvetica" font-size="13" lengthAdjust="spacingAndGlyphs" textLength="242" x="515" y="921.2856">/livespec:revise. Direct edits forbidden</text><text fill="#000000" font-family="Helvetica" font-size="13" lengthAdjust="spacingAndGlyphs" textLength="104" x="515" y="936.4185">after v001 seed.</text><path d="M385,547.9531 L385,579.4531 L349.59,583.4531 L385,587.4531 L385,618.4844 A0,0 0 0 0 385,618.4844 L556,618.4844 A0,0 0 0 0 556,618.4844 L556,557.9531 L546,547.9531 L385,547.9531 A0,0 0 0 0 385,547.9531 " fill="#FBFB77" style="stroke: #A80036; stroke-width: 1.0;"/><path d="M546,547.9531 L546,557.9531 L556,557.9531 L546,547.9531 " fill="#FBFB77" style="stroke: #A80036; stroke-width: 1.0;"/><text fill="#000000" font-family="Helvetica" font-size="13" lengthAdjust="spacingAndGlyphs" textLength="143" x="391" y="565.02">Selective per-proposal</text><text fill="#000000" font-family="Helvetica" font-size="13" lengthAdjust="spacingAndGlyphs" textLength="150" x="391" y="580.1528">accept / modify / reject.</text><text fill="#000000" font-family="Helvetica" font-size="13" lengthAdjust="spacingAndGlyphs" textLength="138" x="391" y="595.2856">Each revise pass cuts</text><text fill="#000000" font-family="Helvetica" font-size="13" lengthAdjust="spacingAndGlyphs" textLength="147" x="391" y="610.4185">exactly one new vNNN.</text><!--MD5=[78d8d76312cadcff7d9ce46116508b4b]
link CritiqueCmd to GMN11--><path d="M818.99,240.1731 C836.86,219.9231 877.79,178.0631 923,162.4531 C987.28,140.2531 1010.55,144.0231 1076,162.4531 C1104.08,170.3631 1132.09,185.3531 1155.93,200.8231 " fill="none" id="CritiqueCmd-GMN11" style="stroke: #111111; stroke-width: 1.0; stroke-dasharray: 7.0,7.0;"/><!--MD5=[ad5c93e8c3b029400db97bd4b6e3a663]
link HumanUser to SeedIntent--><path d="M525.83,76.9431 C459.6,76.6131 274.09,82.5631 143.5,153.9531 C114.33,169.9031 89.12,198.5531 72.68,220.5031 " fill="none" id="HumanUser-&gt;SeedIntent" style="stroke: #111111; stroke-width: 1.0;"/><polygon fill="#111111" points="69.51,224.8031,78.0796,219.9491,72.4848,220.7843,71.6495,215.1895,69.51,224.8031" style="stroke: #111111; stroke-width: 1.0;"/><!--MD5=[a450ce61bee63f4bdc2ec63fd3b50a77]
link HumanUser to SeedCmd--><path d="M525.97,77.3331 C459.04,78.4631 272.58,91.7131 187.5,200.9531 C138.59,263.7531 156.45,368.9031 165.52,408.3631 " fill="none" id="HumanUser-&gt;SeedCmd" style="stroke: #111111; stroke-width: 1.0;"/><polygon fill="#111111" points="166.79,413.6931,168.6018,404.0123,165.6345,408.8285,160.8183,405.8612,166.79,413.6931" style="stroke: #111111; stroke-width: 1.0;"/><text fill="#111111" font-family="Helvetica" font-size="13" lengthAdjust="spacingAndGlyphs" textLength="48" x="188.5" y="256.02">invokes</text><!--MD5=[adbfd3736b624bd88fdb221fc3e48efe]
link Agent to SeedCmd--><path d="M254.81,285.9231 C231.69,323.3431 195.29,382.2231 178.52,409.3631 " fill="none" id="Agent-&gt;SeedCmd" style="stroke: #111111; stroke-width: 1.0;"/><polygon fill="#111111" points="175.81,413.7431,183.9418,408.1868,178.4369,409.4888,177.1348,403.9838,175.81,413.7431" style="stroke: #111111; stroke-width: 1.0;"/><text fill="#111111" font-family="Helvetica" font-size="13" lengthAdjust="spacingAndGlyphs" textLength="38" x="226.5" y="352.52">drives</text><!--MD5=[4d58ae0df90156994b0c260e70f1d7ec]
link SeedIntent to SeedCmd--><path d="M70.02,278.1331 C94.95,314.6731 139.83,380.4631 159.65,409.5131 " fill="none" id="SeedIntent-&gt;SeedCmd" style="stroke: #111111; stroke-width: 1.0;"/><polygon fill="#111111" points="162.6,413.8431,160.8131,404.1577,159.774,409.7183,154.2134,408.6793,162.6,413.8431" style="stroke: #111111; stroke-width: 1.0;"/><!--MD5=[198e90d1496c6d890ebdc61985903c00]
link SeedCmd to Spec--><path d="M191.33,436.0131 C232.68,454.7031 325.61,494.9531 407.5,517.9531 C479.68,538.2231 516.57,499.1631 573.5,547.9531 C615.05,583.5631 630.86,646.2731 636.86,690.7431 " fill="none" id="SeedCmd-&gt;Spec" style="stroke: #111111; stroke-width: 1.0;"/><polygon fill="#111111" points="637.51,695.8031,640.3461,686.3714,636.881,690.8428,632.4096,687.3778,637.51,695.8031" style="stroke: #111111; stroke-width: 1.0;"/><text fill="#111111" font-family="Helvetica" font-size="13" lengthAdjust="spacingAndGlyphs" textLength="116" x="620.5" y="588.02">authors initial tree</text><!--MD5=[5b52ab6a36fce30ab475ed92798f5579]
link SeedCmd to History--><path d="M146.15,436.0231 C110.05,453.0431 42.02,491.2731 14.5,547.9531 C-13.08,604.7531 37.61,669.7931 76.36,708.2931 " fill="none" id="SeedCmd-&gt;History" style="stroke: #111111; stroke-width: 1.0;"/><polygon fill="#111111" points="80.07,711.9331,76.4418,702.7769,76.4989,708.4335,70.8424,708.4906,80.07,711.9331" style="stroke: #111111; stroke-width: 1.0;"/><text fill="#111111" font-family="Helvetica" font-size="13" lengthAdjust="spacingAndGlyphs" textLength="72" x="15.5" y="588.02">writes v001</text><!--MD5=[77ad48995f657def16ecc892da5eaf33]
link Spec to SpecObs--><path d="M721.67,789.9931 C762.73,813.2831 812.33,841.4231 852.89,864.4231 " fill="none" id="Spec-&gt;SpecObs" style="stroke: #111111; stroke-width: 1.0;"/><polygon fill="#111111" points="857.28,866.9231,851.4363,858.9953,852.9344,864.4501,847.4795,865.9482,857.28,866.9231" style="stroke: #111111; stroke-width: 1.0;"/><!--MD5=[9d5ed5bf8c21384868361eb4a85fccef]
link SpecObs to CritiqueCmd--><path d="M932.18,866.7531 C934.32,790.2231 934.54,622.6731 903.5,485.9531 C883.87,399.4931 836.31,303.4131 817.42,267.2731 " fill="none" id="SpecObs-&gt;CritiqueCmd" style="stroke: #111111; stroke-width: 1.0;"/><polygon fill="#111111" points="815.06,262.7731,815.7212,272.5998,817.3929,267.1955,822.7971,268.8672,815.06,262.7731" style="stroke: #111111; stroke-width: 1.0;"/><text fill="#111111" font-family="Helvetica" font-size="13" lengthAdjust="spacingAndGlyphs" textLength="76" x="924.5" y="588.02">analyzed by</text><!--MD5=[cf0399015ee02e1d9a7655ceafb76a69]
link CritiqueCmd to Proposed--><path d="M794.08,262.5831 C771.88,277.3031 729.81,305.7231 695.5,331.9531 C671.11,350.6031 644.69,372.6331 623.86,390.4631 " fill="none" id="CritiqueCmd-&gt;Proposed" style="stroke: #111111; stroke-width: 1.0;"/><polygon fill="#111111" points="620.04,393.7431,629.4765,390.923,623.8363,390.4892,624.2701,384.849,620.04,393.7431" style="stroke: #111111; stroke-width: 1.0;"/><text fill="#111111" font-family="Helvetica" font-size="13" lengthAdjust="spacingAndGlyphs" textLength="90" x="720" y="345.02">drafts findings</text><text fill="#111111" font-family="Helvetica" font-size="13" lengthAdjust="spacingAndGlyphs" textLength="137" x="696.5" y="360.1528">as proposed changes</text><!--MD5=[5d896c6b33b3f72f3cb124fb8e433d94]
link HumanUser to RevisionNeeded--><path d="M575.13,110.5531 C580.59,115.8631 586.78,120.6831 593.5,123.9531 C739.43,195.0531 815.26,75.7431 957.5,153.9531 C984.65,168.8831 1004.75,198.6431 1016.91,221.1931 " fill="none" id="HumanUser-&gt;RevisionNeeded" style="stroke: #111111; stroke-width: 1.0;"/><polygon fill="#111111" points="1019.38,225.8831,1018.7071,216.0573,1017.0419,221.4635,1011.6357,219.7983,1019.38,225.8831" style="stroke: #111111; stroke-width: 1.0;"/><!--MD5=[46bee49b54b1cc1ab045c75e1890434c]
link RevisionNeeded to ProposeCmd--><path d="M992.97,236.4731 C966.04,225.9531 928.79,211.8731 895.5,200.9531 C799.26,169.3831 770.26,153.5531 670,167.9531 C600.93,177.8731 525.71,208.4931 479.57,229.7531 " fill="none" id="RevisionNeeded-&gt;ProposeCmd" style="stroke: #111111; stroke-width: 1.0;"/><polygon fill="#111111" points="474.92,231.9131,484.7678,231.7675,479.4585,229.8151,481.411,224.5059,474.92,231.9131" style="stroke: #111111; stroke-width: 1.0;"/><text fill="#111111" font-family="Helvetica" font-size="13" lengthAdjust="spacingAndGlyphs" textLength="107" x="671" y="167.02">YES (user intent)</text><!--MD5=[93f0a01d291558270193fc1c86259114]
link ProposeCmd to Proposed--><path d="M439.25,271.0131 C444.87,294.8831 457.49,336.5431 481.5,363.9531 C490.61,374.3531 501.99,383.3931 513.84,391.0831 " fill="none" id="ProposeCmd-&gt;Proposed" style="stroke: #111111; stroke-width: 1.0;"/><polygon fill="#111111" points="518.23,393.8531,512.7576,385.6645,514.0029,391.1826,508.4848,392.4279,518.23,393.8531" style="stroke: #111111; stroke-width: 1.0;"/><text fill="#111111" font-family="Helvetica" font-size="13" lengthAdjust="spacingAndGlyphs" textLength="37" x="482.5" y="352.52">writes</text><!--MD5=[eec5f82555a8673e99ae65c4ce184434]
link Proposed to ReviseCmd--><path d="M583.62,456.0931 C580.68,476.5931 573.38,502.6731 555.5,517.9531 C491.16,572.9031 449.84,528.4631 367.5,547.9531 C350.78,551.9131 332.91,557.1331 316.58,562.3131 " fill="none" id="Proposed-&gt;ReviseCmd" style="stroke: #111111; stroke-width: 1.0;"/><polygon fill="#111111" points="311.56,563.9231,321.3493,565.0048,316.3244,562.4065,318.9227,557.3817,311.56,563.9231" style="stroke: #111111; stroke-width: 1.0;"/><text fill="#111111" font-family="Helvetica" font-size="13" lengthAdjust="spacingAndGlyphs" textLength="86" x="575.5" y="506.52">consumed by</text><!--MD5=[d45266b930d6d81936acd01f8204526f]
link HumanUser to ReviseCmd--><path d="M575.33,110.1731 C580.77,115.5131 586.9,120.4431 593.5,123.9531 C715.79,189.0131 819.57,85.1031 895.5,200.9531 C920.11,238.4931 911.05,259.8431 895.5,301.9531 C869.5,372.3831 729.29,492.0831 670.5,517.9531 C546.63,572.4531 500.06,520.7231 367.5,547.9531 C350.06,551.5331 331.45,556.8431 314.64,562.2331 " fill="none" id="HumanUser-&gt;ReviseCmd" style="stroke: #111111; stroke-width: 1.0;"/><polygon fill="#111111" points="309.49,563.9031,319.285,564.9315,314.2461,562.3606,316.817,557.3217,309.49,563.9031" style="stroke: #111111; stroke-width: 1.0;"/><text fill="#111111" font-family="Helvetica" font-size="13" lengthAdjust="spacingAndGlyphs" textLength="81" x="879.5" y="345.02">per-proposal</text><text fill="#111111" font-family="Helvetica" font-size="13" lengthAdjust="spacingAndGlyphs" textLength="48" x="896" y="360.1528">confirm</text><!--MD5=[e6bb30d3f38834d677998a79131c6d70]
link ReviseCmd to Spec--><path d="M303.44,602.9831 C357.29,625.1831 449.54,663.2231 523.94,693.8931 " fill="none" id="ReviseCmd-&gt;Spec" style="stroke: #111111; stroke-width: 1.0;"/><polygon fill="#111111" points="528.81,695.9031,522.0109,688.7777,524.1866,693.9994,518.9649,696.1751,528.81,695.9031" style="stroke: #111111; stroke-width: 1.0;"/><text fill="#111111" font-family="Helvetica" font-size="13" lengthAdjust="spacingAndGlyphs" textLength="54" x="450.5" y="662.02">mutates</text><!--MD5=[3840719a54a671c7b8df389f8e1863bf]
link ReviseCmd to History--><path d="M241.42,603.1431 C217.86,628.9031 175.01,675.7731 145.67,707.8631 " fill="none" id="ReviseCmd-&gt;History" style="stroke: #111111; stroke-width: 1.0;"/><polygon fill="#111111" points="142.16,711.7031,151.186,707.7621,145.5347,708.0138,145.2831,702.3625,142.16,711.7031" style="stroke: #111111; stroke-width: 1.0;"/><text fill="#111111" font-family="Helvetica" font-size="13" lengthAdjust="spacingAndGlyphs" textLength="97" x="199.5" y="662.02">cuts new vNNN</text><!--MD5=[9687de794a0971ab425d956e2a83df34]
link DoctorCmd to Spec--><path d="M657.65,262.5931 C691.61,282.7431 764.41,326.3731 767.5,331.9531 C774.39,344.3931 768.11,349.7431 767.5,363.9531 C762.61,477.6031 789.41,514.0131 745.5,618.9531 C734.17,646.0131 714.6,671.4831 695.4,692.1431 " fill="none" id="DoctorCmd-&gt;Spec" style="stroke: #111111; stroke-width: 1.0; stroke-dasharray: 7.0,7.0;"/><polygon fill="#111111" points="691.82,695.9431,700.9011,692.1308,695.2468,692.3021,695.0755,686.6479,691.82,695.9431" style="stroke: #111111; stroke-width: 1.0;"/><text fill="#111111" font-family="Helvetica" font-size="13" lengthAdjust="spacingAndGlyphs" textLength="123" x="771.5" y="499.02">static + LLM-driven</text><text fill="#111111" font-family="Helvetica" font-size="13" lengthAdjust="spacingAndGlyphs" textLength="62" x="802" y="514.1528">invariants</text><!--MD5=[a9ec5a10f2f9f25d2b47a4528ca743d0]
link DoctorCmd to Proposed--><path d="M622.88,262.7031 C594.86,279.4231 542.27,312.6331 532.5,331.9531 C522.6,351.5331 533.36,372.7831 547.71,389.9331 " fill="none" id="DoctorCmd-&gt;Proposed" style="stroke: #111111; stroke-width: 1.0; stroke-dasharray: 7.0,7.0;"/><polygon fill="#111111" points="551.02,393.7431,548.1443,384.3234,547.7437,389.9661,542.1011,389.5655,551.02,393.7431" style="stroke: #111111; stroke-width: 1.0;"/><text fill="#111111" font-family="Helvetica" font-size="13" lengthAdjust="spacingAndGlyphs" textLength="50" x="533.5" y="352.52">hygiene</text><!--MD5=[8d86e83a81729dd01245c33e1a7cd978]
link DoctorCmd to History--><path d="M623.67,262.5131 C537.71,313.9331 151.51,545.0431 149.5,547.9531 C116.61,595.6431 111.91,665.0731 112.5,706.6531 " fill="none" id="DoctorCmd-&gt;History" style="stroke: #111111; stroke-width: 1.0; stroke-dasharray: 7.0,7.0;"/><polygon fill="#111111" points="112.61,711.8331,116.4292,702.7549,112.51,706.8341,108.4308,702.9149,112.61,711.8331" style="stroke: #111111; stroke-width: 1.0;"/><text fill="#111111" font-family="Helvetica" font-size="13" lengthAdjust="spacingAndGlyphs" textLength="109" x="247.5" y="506.52">structural checks</text><!--MD5=[2b762836ba172c1bbf7151e3d7d35faa]
link History to PruneCmd--><path d="M132.51,774.0631 C141.17,792.0531 148.82,815.5031 144.5,836.9531 C140.35,857.5831 130.08,879.6831 122.71,893.7631 " fill="none" id="History-&gt;PruneCmd" style="stroke: #111111; stroke-width: 1.0;"/><polygon fill="#111111" points="120.34,898.2131,128.1078,892.1582,122.6952,893.8025,121.0508,888.39,120.34,898.2131" style="stroke: #111111; stroke-width: 1.0;"/><text fill="#111111" font-family="Helvetica" font-size="13" lengthAdjust="spacingAndGlyphs" textLength="103" x="147.5" y="833.02">oldest collapsed</text><!--MD5=[7a5fe2c1083cec6cd9483b29bdc063c7]
link PruneCmd to History--><path d="M94.24,898.3431 C67.31,883.3731 24.63,853.4431 38.5,819.9531 C45.1,804.0131 56.84,789.6831 69.15,777.8631 " fill="none" id="PruneCmd-&gt;History" style="stroke: #111111; stroke-width: 1.0;"/><polygon fill="#111111" points="72.99,774.2831,63.688,777.5192,69.3419,777.7024,69.1587,783.3562,72.99,774.2831" style="stroke: #111111; stroke-width: 1.0;"/><text fill="#111111" font-family="Helvetica" font-size="13" lengthAdjust="spacingAndGlyphs" textLength="96" x="39.5" y="833.02">pruned-marker</text><!--MD5=[b9956184cc02de1f02fa72e0f86fcf07]
@startuml spec-lifecycle
title LiveSpec Core — Spec Lifecycle
skinparam defaultFontName Helvetica
skinparam shadowing false
skinparam BackgroundColor white
skinparam ArrowColor #111
skinparam ArrowFontColor #111
skinparam rectangle {
  BorderColor #111
  BackgroundColor white
  FontColor #111
}
skinparam database {
  BorderColor #111
  BackgroundColor white
  FontColor #111
}
skinparam usecase {
  BorderColor #111
  BackgroundColor white
  FontColor #111
}
skinparam card {
  BorderColor #111
  BackgroundColor white
  FontColor #111
}
skinparam actor {
  BorderColor #111
  BackgroundColor white
  FontColor #111
}

actor "Human\nuser" as HumanUser
actor "Agent" as Agent #LightSkyBlue

rectangle "Initial seed\nof intent" as SeedIntent #FFFFFF;line.dashed
card "/livespec:seed" as SeedCmd #LightYellow

database "SPECIFICATION/\n(spec.md, contracts.md,\nconstraints.md, scenarios.md,\nnon-functional-requirements.md)" as Spec
database "history/vNNN/\nsnapshots" as History
database "proposed_changes/\n(pending)" as Proposed

rectangle "Observation\n(spec-internal:\nambiguity, contradiction,\nundefined term)" as SpecObs #FFFFFF;line.dashed

card "/livespec:critique" as CritiqueCmd #LightYellow
note right of CritiqueCmd : Role: surface observations\nbased on observing the\nspec. NOT the implementation.\nFinds spec-internal issues\n(ambiguity, contradiction,\ndangling refs).

card "/livespec:propose-changes\n(formal or quick-deposit)" as ProposeCmd #LightYellow
card "/livespec:revise\n(selective per proposal)" as ReviseCmd #LightYellow

usecase "Revision\nneeded?" as RevisionNeeded
card "/livespec:doctor" as DoctorCmd #LightYellow
card "/livespec:prune-history" as PruneCmd #LightYellow
card "/livespec:help" as HelpCmd #LightYellow

HumanUser - -> SeedIntent
HumanUser - -> SeedCmd : invokes
Agent - -> SeedCmd : drives
SeedIntent - -> SeedCmd
SeedCmd - -> Spec : authors initial tree
SeedCmd - -> History : writes v001

Spec - -> SpecObs
SpecObs - -> CritiqueCmd : analyzed by
CritiqueCmd - -> Proposed : drafts findings\nas proposed changes

HumanUser - -> RevisionNeeded
RevisionNeeded -right-> ProposeCmd : YES (user intent)
ProposeCmd - -> Proposed : writes
Proposed - -> ReviseCmd : consumed by
HumanUser - -> ReviseCmd : per-proposal\nconfirm
ReviseCmd - -> Spec : mutates
ReviseCmd - -> History : cuts new vNNN

DoctorCmd ..> Spec : static + LLM-driven\ninvariants
DoctorCmd ..> Proposed : hygiene
DoctorCmd ..> History : structural checks

History - -> PruneCmd : oldest collapsed
PruneCmd - -> History : pruned-marker

note bottom of Spec : Mutated ONLY through\n/livespec:propose-changes →\n/livespec:revise. Direct edits forbidden\nafter v001 seed.

note right of ReviseCmd : Selective per-proposal\naccept / modify / reject.\nEach revise pass cuts\nexactly one new vNNN.

@enduml

PlantUML version 1.2020.02(Sun Mar 01 11:22:07 CET 2020)
(GPL source distribution)
Java Runtime: OpenJDK Runtime Environment
JVM: OpenJDK 64-Bit Server VM
Java Version: 21.0.10+7-Ubuntu-125.10
Operating System: Linux
Default Encoding: UTF-8
Language: en
Country: null
--></g></svg>