<?xml version="1.0" encoding="UTF-8" standalone="no"?><svg xmlns="http://www.w3.org/2000/svg" xmlns:xlink="http://www.w3.org/1999/xlink" contentScriptType="application/ecmascript" contentStyleType="text/css" height="970px" preserveAspectRatio="none" style="width:763px;height:970px;background:#FAFAFA;" version="1.1" viewBox="0 0 763 970" width="763px" zoomAndPan="magnify"><defs/><g><text fill="#000000" font-family="Helvetica" font-size="18" lengthAdjust="spacingAndGlyphs" textLength="525" x="125" y="16.708">Tool-Agnostic Workflow — Spec / Implementation Lifecycle</text><!--MD5=[781fc4211f0f0711d3811412dad38fe1]
cluster SpecPkg--><polygon fill="#FDE8EC" points="22,111.9531,104,111.9531,111,133.0859,258,133.0859,258,859.9531,22,859.9531,22,111.9531" style="stroke: #444444; stroke-width: 1.5;"/><line style="stroke: #444444; stroke-width: 1.5;" x1="22" x2="111" y1="133.0859" y2="133.0859"/><text fill="#111111" font-family="Helvetica" font-size="13" font-weight="bold" lengthAdjust="spacingAndGlyphs" textLength="76" x="26" y="126.02">SPEC SIDE</text><!--MD5=[4d90c78b95395404f4d0684d2e298718]
cluster ImplPkg--><polygon fill="#E3F0E3" points="282,211.9531,455,211.9531,462,233.0859,741,233.0859,741,958.9531,282,958.9531,282,211.9531" style="stroke: #444444; stroke-width: 1.5;"/><line style="stroke: #444444; stroke-width: 1.5;" x1="282" x2="462" y1="233.0859" y2="233.0859"/><text fill="#111111" font-family="Helvetica" font-size="13" font-weight="bold" lengthAdjust="spacingAndGlyphs" textLength="167" x="286" y="226.02">IMPLEMENTATION SIDE</text><!--MD5=[9a5cf7b5ccfe99a8a50c4f56868c7fc8]
entity Seed--><rect fill="#D6E6F5" height="36.2969" rx="4" ry="4" style="stroke: #1F4768; stroke-width: 1.5;" width="56" x="161" y="145.9531"/><text fill="#111111" font-family="Helvetica" font-size="14" lengthAdjust="spacingAndGlyphs" textLength="36" x="171" y="168.9482">Seed</text><!--MD5=[b162903c3f5aa45441033ef018a482dd]
entity Propose--><rect fill="#D6E6F5" height="52.5938" rx="4" ry="4" style="stroke: #1F4768; stroke-width: 1.5;" width="78" x="128" y="325.9531"/><text fill="#111111" font-family="Helvetica" font-size="14" lengthAdjust="spacingAndGlyphs" textLength="58" x="138" y="348.9482">Propose</text><text fill="#111111" font-family="Helvetica" font-size="14" lengthAdjust="spacingAndGlyphs" textLength="54" x="138" y="365.2451">Change</text><!--MD5=[5bd62c65b3bf6048be3cb32942b001e5]
entity Critique--><rect fill="#D6E6F5" height="36.2969" rx="4" ry="4" style="stroke: #1F4768; stroke-width: 1.5;" width="73" x="38.5" y="334.4531"/><text fill="#111111" font-family="Helvetica" font-size="14" lengthAdjust="spacingAndGlyphs" textLength="53" x="48.5" y="357.4482">Critique</text><!--MD5=[e9c1fb24a4cd81b1c7322b8f0a98f11d]
entity Revise--><rect fill="#D6E6F5" height="36.2969" rx="4" ry="4" style="stroke: #1F4768; stroke-width: 1.5;" width="66" x="137" y="540.9531"/><text fill="#111111" font-family="Helvetica" font-size="14" lengthAdjust="spacingAndGlyphs" textLength="46" x="147" y="563.9482">Revise</text><!--MD5=[5a5d35bcfc46556bdff8e646cc6c81c2]
entity Doctor--><rect fill="#D6E6F5" height="36.2969" rx="4" ry="4" style="stroke: #1F4768; stroke-width: 1.5;" width="67" x="174.5" y="799.4531"/><text fill="#111111" font-family="Helvetica" font-size="14" lengthAdjust="spacingAndGlyphs" textLength="47" x="184.5" y="822.4482">Doctor</text><!--MD5=[9911d4b1a9481fe82d7d6733b79172d7]
entity SpecNext--><rect fill="#CCDDEE" height="52.5938" rx="4" ry="4" style="stroke: #1F4768; stroke-width: 1.5;" width="56" x="100" y="790.9531"/><text fill="#111111" font-family="Helvetica" font-size="14" lengthAdjust="spacingAndGlyphs" textLength="31" x="110" y="813.9482">Next</text><text fill="#111111" font-family="Helvetica" font-size="14" lengthAdjust="spacingAndGlyphs" textLength="36" x="110" y="830.2451">(thin)</text><!--MD5=[5b0af1a53dfe6ce9d6337a803daa3faf]
entity Spec--><path d="M135.5,259.9531 C135.5,249.9531 189,249.9531 189,249.9531 C189,249.9531 242.5,249.9531 242.5,259.9531 L242.5,285.25 C242.5,295.25 189,295.25 189,295.25 C189,295.25 135.5,295.25 135.5,285.25 L135.5,259.9531 " fill="#F5D76E" style="stroke: #5A4319; stroke-width: 1.5;"/><path d="M135.5,259.9531 C135.5,269.9531 189,269.9531 189,269.9531 C189,269.9531 242.5,269.9531 242.5,259.9531 " fill="none" style="stroke: #5A4319; stroke-width: 1.5;"/><text fill="#111111" font-family="Helvetica" font-size="14" lengthAdjust="spacingAndGlyphs" textLength="87" x="145.5" y="286.9482">Specification</text><!--MD5=[4cc95f85745661d7fbe872bf21a1bbc7]
entity PCQueue--><path d="M108.5,432.4531 C108.5,422.4531 152,422.4531 152,422.4531 C152,422.4531 195.5,422.4531 195.5,432.4531 L195.5,474.0469 C195.5,484.0469 152,484.0469 152,484.0469 C152,484.0469 108.5,484.0469 108.5,474.0469 L108.5,432.4531 " fill="#F5EAD5" style="stroke: #5A4319; stroke-width: 1.5;"/><path d="M108.5,432.4531 C108.5,442.4531 152,442.4531 152,442.4531 C152,442.4531 195.5,442.4531 195.5,432.4531 " fill="none" style="stroke: #5A4319; stroke-width: 1.5;"/><text fill="#111111" font-family="Helvetica" font-size="14" lengthAdjust="spacingAndGlyphs" textLength="67" x="118.5" y="459.4482">Proposed</text><text fill="#111111" font-family="Helvetica" font-size="14" lengthAdjust="spacingAndGlyphs" textLength="62" x="118.5" y="475.7451">Changes</text><!--MD5=[99a8f7b7d62222417991320410ebdaf2]
entity History--><path d="M116.5,656.4531 C116.5,646.4531 170,646.4531 170,646.4531 C170,646.4531 223.5,646.4531 223.5,656.4531 L223.5,698.0469 C223.5,708.0469 170,708.0469 170,708.0469 C170,708.0469 116.5,708.0469 116.5,698.0469 L116.5,656.4531 " fill="#F5EAD5" style="stroke: #5A4319; stroke-width: 1.5;"/><path d="M116.5,656.4531 C116.5,666.4531 170,666.4531 170,666.4531 C170,666.4531 223.5,666.4531 223.5,656.4531 " fill="none" style="stroke: #5A4319; stroke-width: 1.5;"/><text fill="#111111" font-family="Helvetica" font-size="14" lengthAdjust="spacingAndGlyphs" textLength="87" x="126.5" y="683.4482">Specification</text><text fill="#111111" font-family="Helvetica" font-size="14" lengthAdjust="spacingAndGlyphs" textLength="47" x="126.5" y="699.7451">History</text><!--MD5=[6a9f75428dc2b6ef837c0907c1779616]
entity CaptureImplGaps--><rect fill="#D6E6F5" height="52.5938" rx="4" ry="4" style="stroke: #1F4768; stroke-width: 1.5;" width="88" x="386" y="426.9531"/><text fill="#111111" font-family="Helvetica" font-size="14" lengthAdjust="spacingAndGlyphs" textLength="55" x="396" y="449.9482">Capture</text><text fill="#111111" font-family="Helvetica" font-size="14" lengthAdjust="spacingAndGlyphs" textLength="68" x="396" y="466.2451">Impl Gaps</text><!--MD5=[e9a3c193e574dfa8de98f101b71d6a61]
entity CaptureWorkItem--><rect fill="#D6E6F5" height="52.5938" rx="4" ry="4" style="stroke: #1F4768; stroke-width: 1.5;" width="89" x="489.5" y="426.9531"/><text fill="#111111" font-family="Helvetica" font-size="14" lengthAdjust="spacingAndGlyphs" textLength="55" x="499.5" y="449.9482">Capture</text><text fill="#111111" font-family="Helvetica" font-size="14" lengthAdjust="spacingAndGlyphs" textLength="69" x="499.5" y="466.2451">Work Item</text><!--MD5=[74a2a13639c756e3324faac020ef6e7d]
entity Implement--><rect fill="#D6E6F5" height="36.2969" rx="4" ry="4" style="stroke: #1F4768; stroke-width: 1.5;" width="93" x="528.5" y="659.4531"/><text fill="#111111" font-family="Helvetica" font-size="14" lengthAdjust="spacingAndGlyphs" textLength="73" x="538.5" y="682.4482">Implement</text><!--MD5=[c1efa0f0c0c85b9a5e73fcadb364593e]
entity CaptureSpecDrift--><rect fill="#D6E6F5" height="52.5938" rx="4" ry="4" style="stroke: #1F4768; stroke-width: 1.5;" width="87" x="455.5" y="889.9531"/><text fill="#111111" font-family="Helvetica" font-size="14" lengthAdjust="spacingAndGlyphs" textLength="55" x="465.5" y="912.9482">Capture</text><text fill="#111111" font-family="Helvetica" font-size="14" lengthAdjust="spacingAndGlyphs" textLength="67" x="465.5" y="929.2451">Spec Drift</text><!--MD5=[4d8b149103de154d2d36dbc14fb1ec50]
entity CaptureMemo--><rect fill="#D6E6F5" height="52.5938" rx="4" ry="4" style="stroke: #1F4768; stroke-width: 1.5;" width="75" x="650.5" y="245.9531"/><text fill="#111111" font-family="Helvetica" font-size="14" lengthAdjust="spacingAndGlyphs" textLength="55" x="660.5" y="268.9482">Capture</text><text fill="#111111" font-family="Helvetica" font-size="14" lengthAdjust="spacingAndGlyphs" textLength="43" x="660.5" y="285.2451">Memo</text><!--MD5=[38c3dd3a596b244014464f502c88eff1]
entity ProcessMemos--><rect fill="#D6E6F5" height="52.5938" rx="4" ry="4" style="stroke: #1F4768; stroke-width: 1.5;" width="76" x="595" y="426.9531"/><text fill="#111111" font-family="Helvetica" font-size="14" lengthAdjust="spacingAndGlyphs" textLength="56" x="605" y="449.9482">Process</text><text fill="#111111" font-family="Helvetica" font-size="14" lengthAdjust="spacingAndGlyphs" textLength="51" x="605" y="466.2451">Memos</text><!--MD5=[68d9f8308b3234f377cb47a720a0d9e6]
entity ListMemos--><rect fill="#CCDDEE" height="68.8906" rx="4" ry="4" style="stroke: #1F4768; stroke-width: 1.5;" width="71" x="298.5" y="418.9531"/><text fill="#111111" font-family="Helvetica" font-size="14" lengthAdjust="spacingAndGlyphs" textLength="23" x="308.5" y="441.9482">List</text><text fill="#111111" font-family="Helvetica" font-size="14" lengthAdjust="spacingAndGlyphs" textLength="51" x="308.5" y="458.2451">Memos</text><text fill="#111111" font-family="Helvetica" font-size="14" lengthAdjust="spacingAndGlyphs" textLength="36" x="308.5" y="474.542">(thin)</text><!--MD5=[d0e9e2e8bb402539bd8255e69b8f4ecd]
entity ListWorkItems--><rect fill="#CCDDEE" height="68.8906" rx="4" ry="4" style="stroke: #1F4768; stroke-width: 1.5;" width="97" x="415.5" y="642.9531"/><text fill="#111111" font-family="Helvetica" font-size="14" lengthAdjust="spacingAndGlyphs" textLength="23" x="425.5" y="665.9482">List</text><text fill="#111111" font-family="Helvetica" font-size="14" lengthAdjust="spacingAndGlyphs" textLength="77" x="425.5" y="682.2451">Work Items</text><text fill="#111111" font-family="Helvetica" font-size="14" lengthAdjust="spacingAndGlyphs" textLength="36" x="425.5" y="698.542">(thin)</text><!--MD5=[1489f3a1441c3024ab9e91f608595af7]
entity ImplNext--><rect fill="#CCDDEE" height="52.5938" rx="4" ry="4" style="stroke: #1F4768; stroke-width: 1.5;" width="56" x="669" y="650.9531"/><text fill="#111111" font-family="Helvetica" font-size="14" lengthAdjust="spacingAndGlyphs" textLength="31" x="679" y="673.9482">Next</text><text fill="#111111" font-family="Helvetica" font-size="14" lengthAdjust="spacingAndGlyphs" textLength="36" x="679" y="690.2451">(thin)</text><!--MD5=[77c2cd5fbd0db322139e34716aca4f0c]
entity SpecReader--><rect fill="#E0D4EC" height="52.5938" style="stroke: #5A3A72; stroke-width: 1.5;" width="70" x="472" y="325.9531"/><rect fill="#E0D4EC" height="5" style="stroke: #5A3A72; stroke-width: 1.5;" width="10" x="467" y="330.9531"/><rect fill="#E0D4EC" height="5" style="stroke: #5A3A72; stroke-width: 1.5;" width="10" x="467" y="368.5469"/><text fill="#111111" font-family="Helvetica" font-size="14" lengthAdjust="spacingAndGlyphs" textLength="35" x="482" y="348.9482">Spec</text><text fill="#111111" font-family="Helvetica" font-size="14" lengthAdjust="spacingAndGlyphs" textLength="50" x="482" y="365.2451">Reader</text><!--MD5=[d4fd7068178ba922b82960301783db7d]
entity Impl--><path d="M435.5,804.9531 C435.5,794.9531 499,794.9531 499,794.9531 C499,794.9531 562.5,794.9531 562.5,804.9531 L562.5,830.25 C562.5,840.25 499,840.25 499,840.25 C499,840.25 435.5,840.25 435.5,830.25 L435.5,804.9531 " fill="#F5D76E" style="stroke: #5A4319; stroke-width: 1.5;"/><path d="M435.5,804.9531 C435.5,814.9531 499,814.9531 499,814.9531 C499,814.9531 562.5,814.9531 562.5,804.9531 " fill="none" style="stroke: #5A4319; stroke-width: 1.5;"/><text fill="#111111" font-family="Helvetica" font-size="14" lengthAdjust="spacingAndGlyphs" textLength="107" x="445.5" y="831.9482">Implementation</text><!--MD5=[fa81577849114cbf168f391a566a9b63]
entity WorkItems--><path d="M415.5,546.4531 C415.5,536.4531 464,536.4531 464,536.4531 C464,536.4531 512.5,536.4531 512.5,546.4531 L512.5,571.75 C512.5,581.75 464,581.75 464,581.75 C464,581.75 415.5,581.75 415.5,571.75 L415.5,546.4531 " fill="#F5EAD5" style="stroke: #5A4319; stroke-width: 1.5;"/><path d="M415.5,546.4531 C415.5,556.4531 464,556.4531 464,556.4531 C464,556.4531 512.5,556.4531 512.5,546.4531 " fill="none" style="stroke: #5A4319; stroke-width: 1.5;"/><text fill="#111111" font-family="Helvetica" font-size="14" lengthAdjust="spacingAndGlyphs" textLength="77" x="425.5" y="573.4482">Work Items</text><!--MD5=[1c5e44e491cf6497969a38cc571a845e]
entity Memos--><path d="M653.5,339.9531 C653.5,329.9531 689,329.9531 689,329.9531 C689,329.9531 724.5,329.9531 724.5,339.9531 L724.5,365.25 C724.5,375.25 689,375.25 689,375.25 C689,375.25 653.5,375.25 653.5,365.25 L653.5,339.9531 " fill="#F5EAD5" style="stroke: #5A4319; stroke-width: 1.5;"/><path d="M653.5,339.9531 C653.5,349.9531 689,349.9531 689,349.9531 C689,349.9531 724.5,349.9531 724.5,339.9531 " fill="none" style="stroke: #5A4319; stroke-width: 1.5;"/><text fill="#111111" font-family="Helvetica" font-size="14" lengthAdjust="spacingAndGlyphs" textLength="51" x="663.5" y="366.9482">Memos</text><!--MD5=[cd20a034834c6e5d1841e96140da69e2]
entity AgentKnowledge--><path d="M529,537.9531 C529,527.9531 600,527.9531 600,527.9531 C600,527.9531 671,527.9531 671,537.9531 L671,579.5469 C671,589.5469 600,589.5469 600,589.5469 C600,589.5469 529,589.5469 529,579.5469 L529,537.9531 " fill="#F5D76E" style="stroke: #5A4319; stroke-width: 1.5;"/><path d="M529,537.9531 C529,547.9531 600,547.9531 600,547.9531 C600,547.9531 671,547.9531 671,537.9531 " fill="none" style="stroke: #5A4319; stroke-width: 1.5;"/><text fill="#111111" font-family="Helvetica" font-size="14" lengthAdjust="spacingAndGlyphs" textLength="70" x="539" y="564.9482">Persistent</text><text fill="#111111" font-family="Helvetica" font-size="14" lengthAdjust="spacingAndGlyphs" textLength="122" x="539" y="581.2451">Agent Knowledge</text><!--MD5=[1e9204083aa66e691856924869ece9f5]
entity Input--><rect fill="#FFFACC" height="52.5938" rx="4" ry="4" style="stroke: #1F4768; stroke-width: 1.5;" width="204" x="87" y="28.9531"/><text fill="#111111" font-family="Helvetica" font-size="14" lengthAdjust="spacingAndGlyphs" textLength="87" x="97" y="51.9482">initial intent /</text><text fill="#111111" font-family="Helvetica" font-size="14" lengthAdjust="spacingAndGlyphs" textLength="184" x="97" y="68.2451">prompt / instruction / seed</text><!--MD5=[e38a78e35415c081adbe3d821d0b148b]
link Input to Seed--><path d="M189,81.9631 C189,99.8131 189,123.4231 189,140.5431 " fill="none" id="Input-&gt;Seed" style="stroke: #000000; stroke-width: 1.3;"/><polygon fill="#000000" points="189,145.6331,193,136.6331,189,140.6331,185,136.6331,189,145.6331" style="stroke: #000000; stroke-width: 1.3;"/><!--MD5=[79b56c54669e1e209294348a48d118fe]
link Seed to Spec--><path d="M189,182.0631 C189,198.9031 189,224.8731 189,244.4931 " fill="none" id="Seed-&gt;Spec" style="stroke: #000000; stroke-width: 1.3;"/><polygon fill="#000000" points="189,249.5831,193,240.5831,189,244.5831,185,240.5831,189,249.5831" style="stroke: #000000; stroke-width: 1.3;"/><!--MD5=[6aed50f60f52d38e3c9589f0bac08744]
link Propose to PCQueue--><path d="M163.1,379.2031 C161.35,390.7331 159.26,404.5231 157.37,417.0031 " fill="none" id="Propose-&gt;PCQueue" style="stroke: #000000; stroke-width: 1.3;"/><polygon fill="#000000" points="156.57,422.2631,161.8866,413.9725,157.3271,417.3208,153.9788,412.7612,156.57,422.2631" style="stroke: #000000; stroke-width: 1.3;"/><!--MD5=[a69e2db2c58186bdfbdd2106032d7638]
link PCQueue to Revise--><path d="M157.25,484.6631 C160.08,500.9331 163.51,520.6431 166.1,535.5231 " fill="none" id="PCQueue-&gt;Revise" style="stroke: #000000; stroke-width: 1.3;"/><polygon fill="#000000" points="167.01,540.7731,169.4088,531.2209,166.1533,535.8471,161.5271,532.5916,167.01,540.7731" style="stroke: #000000; stroke-width: 1.3;"/><!--MD5=[f8978627cb19ac31d7c0ec0d2ea4869c]
link Revise to Spec--><path d="M180.5,540.8131 C188.39,527.0531 198.7,506.9531 204,487.9531 C205.13,483.8831 222.05,361.5731 214,325.9531 C212.01,317.1431 208.36,308.0831 204.45,300.0231 " fill="none" id="Revise-&gt;Spec" style="stroke: #000000; stroke-width: 1.3;"/><polygon fill="#000000" points="202,295.1431,202.4598,304.9812,204.2418,299.6124,209.6106,301.3944,202,295.1431" style="stroke: #000000; stroke-width: 1.3;"/><!--MD5=[07bc2658038b75836dd6c06689447504]
link Revise to History--><path d="M170,577.1431 C170,593.8331 170,619.6631 170,640.8031 " fill="none" id="Revise-&gt;History" style="stroke: #000000; stroke-width: 1.3;"/><polygon fill="#000000" points="170,646.0631,174,637.0631,170,641.0631,166,637.0631,170,646.0631" style="stroke: #000000; stroke-width: 1.3;"/><!--MD5=[2c995db2faed80d07edb84013ad27120]
link Spec to Critique--><path d="M157.55,294.9731 C140.92,306.3531 120.64,320.2231 104.34,331.3831 " fill="none" id="Spec-&gt;Critique" style="stroke: #000000; stroke-width: 1.3;"/><polygon fill="#000000" points="99.85,334.4531,109.5354,332.6662,103.9748,331.6271,105.0138,326.0665,99.85,334.4531" style="stroke: #000000; stroke-width: 1.3;"/><!--MD5=[18d5bc04b48706048bc504d5ed50186f]
link Critique to PCQueue--><path d="M88.41,370.6931 C98.58,383.7731 112.89,402.1631 125.35,418.1931 " fill="none" id="Critique-&gt;PCQueue" style="stroke: #000000; stroke-width: 1.3;"/><polygon fill="#000000" points="128.48,422.2131,126.1048,412.655,125.4073,418.2687,119.7936,417.5712,128.48,422.2131" style="stroke: #000000; stroke-width: 1.3;"/><!--MD5=[29c2b6ec2f05da293fae6f93ae2f3ebb]
link Spec to Doctor--><path d="M213.48,295.1831 C226.96,309.6031 241,329.8031 241,351.4531 C241,351.4531 241,351.4531 241,678.4531 C241,720.4231 226.38,767.6631 216.6,794.5631 " fill="none" id="Spec-&gt;Doctor" style="stroke: #000000; stroke-width: 1.3;"/><polygon fill="#000000" points="214.84,799.3431,221.7077,792.2838,216.5705,794.6521,214.2021,789.5149,214.84,799.3431" style="stroke: #000000; stroke-width: 1.3;"/><!--MD5=[f0a82dc77730f883730a6bf29f010c28]
link History to Doctor--><path d="M178.34,708.7331 C185.45,734.5531 195.5,771.0631 201.88,794.2431 " fill="none" id="History-&gt;Doctor" style="stroke: #000000; stroke-width: 1.3;"/><polygon fill="#000000" points="203.27,799.2631,204.7391,789.5244,201.9436,794.4423,197.0257,791.6468,203.27,799.2631" style="stroke: #000000; stroke-width: 1.3;"/><!--MD5=[91940960ab9a8ef2543312077fc81051]
link Spec to SpecReader--><path d="M242.56,287.7731 C256.67,291.4831 271.9,295.4231 286,298.9531 C348.99,314.7131 422.38,331.9131 466.73,342.1931 " fill="none" id="Spec-&gt;SpecReader" style="stroke: #A02020; stroke-width: 2.0;"/><polygon fill="#A02020" points="471.72,343.3431,463.855,337.4151,466.849,342.2147,462.0494,345.2087,471.72,343.3431" style="stroke: #A02020; stroke-width: 2.0;"/><!--MD5=[cc6e026262854799f1999c4ed6df1d11]
link History to SpecReader--><path d="M184.27,646.4431 C192.17,629.8131 202.15,608.7431 211,589.9531 C211.28,589.3631 290.5,419.3831 291,418.9531 C291.86,418.2131 404.63,384.2331 466.86,365.5131 " fill="none" id="History-&gt;SpecReader" style="stroke: #A02020; stroke-width: 2.0;"/><polygon fill="#A02020" points="471.99,363.9731,462.2229,362.7066,467.1977,365.3994,464.5049,370.3742,471.99,363.9731" style="stroke: #A02020; stroke-width: 2.0;"/><!--MD5=[87c5647e103f71076a1ac8e6026068d6]
link SpecReader to CaptureImplGaps--><path d="M486.97,379.2031 C476.63,392.4931 463.97,408.7831 453.2,422.6231 " fill="none" id="SpecReader-&gt;CaptureImplGaps" style="stroke: #000000; stroke-width: 1.3;"/><polygon fill="#000000" points="449.93,426.8331,458.6059,422.1716,452.9938,422.8817,452.2836,417.2696,449.93,426.8331" style="stroke: #000000; stroke-width: 1.3;"/><!--MD5=[1c9f500e8600a7e577be480fe54b4696]
link SpecReader to CaptureSpecDrift--><path d="M542.05,356.5731 C575.26,360.7531 625.61,370.3331 664,391.9531 C713.42,419.7831 701.01,458.3131 698,514.9531 C696.22,548.4331 700.02,557.9631 690,589.9531 C681.98,615.5731 672.45,618.6631 661,642.9531 C615.07,740.3731 639.06,784.4831 571,867.9531 C564.33,876.1331 555.88,883.4031 547.13,889.6531 " fill="none" id="SpecReader-&gt;CaptureSpecDrift" style="stroke: #000000; stroke-width: 1.3;"/><polygon fill="#000000" points="542.82,892.6431,552.4982,890.8177,546.9335,889.8008,547.9505,884.2361,542.82,892.6431" style="stroke: #000000; stroke-width: 1.3;"/><!--MD5=[01b2663ddf8e9bf2d401aac47d4bd1b0]
link SpecReader to Implement--><path d="M542.29,355.7331 C582.85,360.4431 647.81,374.8631 679,418.9531 C700.94,449.9731 695.59,555.7631 679,589.9531 C664.91,618.9931 635.97,641.7831 612.19,656.6631 " fill="none" id="SpecReader-&gt;Implement" style="stroke: #000000; stroke-width: 1.3;"/><polygon fill="#000000" points="607.81,659.3531,617.5725,658.052,612.0707,656.7366,613.3861,651.2348,607.81,659.3531" style="stroke: #000000; stroke-width: 1.3;"/><!--MD5=[bc5513d052cd97296c1e6cf2270d66af]
link SpecReader to ProcessMemos--><path d="M539.78,379.2031 C557.13,392.8431 578.49,409.6231 596.39,423.6931 " fill="none" id="SpecReader-&gt;ProcessMemos" style="stroke: #000000; stroke-width: 1.3;"/><polygon fill="#000000" points="600.39,426.8331,595.783,418.1282,596.4579,423.7446,590.8415,424.4195,600.39,426.8331" style="stroke: #000000; stroke-width: 1.3;"/><!--MD5=[5960638c29276b056e2fb13f5f21c00f]
link Impl to CaptureImplGaps--><path d="M481.19,794.5831 C465.68,775.7831 442.38,748.1131 421,724.9531 C415.46,718.9531 411.13,719.5031 408,711.9531 C376.21,635.2031 401.91,534.7831 418.57,485.0731 " fill="none" id="Impl-&gt;CaptureImplGaps" style="stroke: #000000; stroke-width: 1.3;"/><polygon fill="#000000" points="420.25,480.1331,413.5634,487.3643,418.639,484.8665,421.1368,489.942,420.25,480.1331" style="stroke: #000000; stroke-width: 1.3;"/><!--MD5=[3d15f5400bfec243f8ab65edd28a9dbb]
link CaptureImplGaps to WorkItems--><path d="M438.4,480.0331 C443.54,495.6631 450.09,515.6031 455.28,531.4031 " fill="none" id="CaptureImplGaps-&gt;WorkItems" style="stroke: #000000; stroke-width: 1.3;"/><polygon fill="#000000" points="456.84,536.1631,457.833,526.3645,455.2803,531.4126,450.2322,528.8599,456.84,536.1631" style="stroke: #000000; stroke-width: 1.3;"/><!--MD5=[2aab1c731a56da689dc18e63568dc023]
link WorkItems to Implement--><path d="M479.83,581.5931 C498.35,602.7431 528.83,634.7231 550.4,655.5931 " fill="none" id="WorkItems-&gt;Implement" style="stroke: #000000; stroke-width: 1.3;"/><polygon fill="#000000" points="554.05,659.1031,550.3299,649.9839,550.4439,655.6396,544.7882,655.7536,554.05,659.1031" style="stroke: #000000; stroke-width: 1.3;"/><!--MD5=[c017db10e1d74bf134a477058a6c34f9]
link Implement to WorkItems--><path d="M562.89,659.1031 C546.09,639.5031 515.74,607.4331 492.99,585.0931 " fill="none" id="Implement-&gt;WorkItems" style="stroke: #000000; stroke-width: 1.3;"/><polygon fill="#000000" points="489.41,581.5931,493.0565,590.7421,492.988,585.0856,498.6445,585.0172,489.41,581.5931" style="stroke: #000000; stroke-width: 1.3;"/><!--MD5=[b2585690133698ee634fbdabdb866ddf]
link Implement to Impl--><path d="M565.53,695.6531 C552.44,719.4231 528.7,762.5131 513.41,790.2931 " fill="none" id="Implement-&gt;Impl" style="stroke: #000000; stroke-width: 1.3;"/><polygon fill="#000000" points="510.84,794.9531,518.6844,788.9978,513.2512,790.5729,511.6761,785.1398,510.84,794.9531" style="stroke: #000000; stroke-width: 1.3;"/><!--MD5=[de0551c742578638eead7a66382e9846]
link CaptureWorkItem to WorkItems--><path d="M513.25,480.1131 C508.1,486.7831 502.72,494.0331 498,500.9531 C491.3,510.7831 484.48,521.9431 478.72,531.7731 " fill="none" id="CaptureWorkItem-&gt;WorkItems" style="stroke: #000000; stroke-width: 1.3;"/><polygon fill="#000000" points="476.15,536.1831,484.1376,530.4213,478.6676,531.8632,477.2257,526.3932,476.15,536.1831" style="stroke: #000000; stroke-width: 1.3;"/><!--MD5=[b5d618f00e26d8a6affcaa8f88949f81]
link Impl to CaptureSpecDrift--><path d="M499,839.9831 C499,853.1031 499,870.0931 499,884.6231 " fill="none" id="Impl-&gt;CaptureSpecDrift" style="stroke: #000000; stroke-width: 1.3;"/><polygon fill="#000000" points="499,889.8531,503,880.8531,499,884.8531,495,880.8531,499,889.8531" style="stroke: #000000; stroke-width: 1.3;"/><!--MD5=[9529e34aeb4698c65548104dd048aaa7]
link CaptureSpecDrift to Propose--><path d="M455.42,915.8931 C362.29,915.9731 147.84,911.3131 92,867.9531 C73.39,853.5031 73,842.0131 73,818.4531 C73,452.4531 73,452.4531 73,452.4531 C73,420.5231 99.03,394.7831 123.69,377.5631 " fill="none" id="CaptureSpecDrift-&gt;Propose" style="stroke: #A02020; stroke-width: 2.0;"/><polygon fill="#A02020" points="127.95,374.6631,118.2646,376.4501,123.8252,377.4891,122.7862,383.0497,127.95,374.6631" style="stroke: #A02020; stroke-width: 2.0;"/><!--MD5=[6de597d6f2c3b5db7bb29adef1fe1ed9]
link CaptureMemo to Memos--><path d="M688.33,298.9931 C688.43,307.2331 688.55,316.3931 688.66,324.7131 " fill="none" id="CaptureMemo-&gt;Memos" style="stroke: #000000; stroke-width: 1.3;"/><polygon fill="#000000" points="688.72,329.7731,692.591,320.7169,688.6486,324.7736,684.5918,320.8312,688.72,329.7731" style="stroke: #000000; stroke-width: 1.3;"/><!--MD5=[436c56898a2138351dd1a7842b69aa77]
link Memos to ProcessMemos--><path d="M680.67,375.1331 C676.67,384.7931 671.54,396.1631 666,405.9531 C662.95,411.3331 659.43,416.8631 655.84,422.1431 " fill="none" id="Memos-&gt;ProcessMemos" style="stroke: #000000; stroke-width: 1.3;"/><polygon fill="#000000" points="652.81,426.5131,661.217,421.3826,655.6523,422.3996,654.6354,416.8349,652.81,426.5131" style="stroke: #000000; stroke-width: 1.3;"/><!--MD5=[f356670c5009cefe28fd37f9494e61d8]
link ProcessMemos to WorkItems--><path d="M600.67,479.9831 C596.22,482.9031 591.59,485.6531 587,487.9531 C569.53,496.7131 562.54,492.3331 545,500.9531 C527.23,509.6831 509.05,522.1031 494.43,533.1131 " fill="none" id="ProcessMemos-&gt;WorkItems" style="stroke: #000000; stroke-width: 1.3;"/><polygon fill="#000000" points="490.41,536.1731,499.996,533.9129,494.3911,533.1481,495.1559,527.5432,490.41,536.1731" style="stroke: #000000; stroke-width: 1.3;"/><text fill="#000000" font-family="Helvetica" font-size="11" lengthAdjust="spacingAndGlyphs" textLength="63" x="546" y="512.1636">impl-bound</text><!--MD5=[e81cbb5d45e320851ca1117dd08a4ab5]
link ProcessMemos to AgentKnowledge--><path d="M624.84,480.0331 C620.73,492.9431 615.68,508.7831 611.2,522.8131 " fill="none" id="ProcessMemos-&gt;AgentKnowledge" style="stroke: #000000; stroke-width: 1.3;"/><polygon fill="#000000" points="609.59,527.8931,616.1314,520.5304,611.1066,523.1287,608.5083,518.1038,609.59,527.8931" style="stroke: #000000; stroke-width: 1.3;"/><text fill="#000000" font-family="Helvetica" font-size="11" lengthAdjust="spacingAndGlyphs" textLength="58" x="618" y="512.1636">persistent</text><!--MD5=[bcae832c572b10c0086a5dbd5f75426b]
link ProcessMemos to Propose--><path d="M602.05,426.8031 C597.23,423.7531 592.14,421.0031 587,418.9531 C544.95,402.2231 530.87,411.8731 486,405.9531 C397.07,394.2231 374.36,394.3631 286,378.9531 C261.13,374.6131 233.56,368.7731 211.22,363.7731 " fill="none" id="ProcessMemos-&gt;Propose" style="stroke: #A02020; stroke-width: 2.0;"/><polygon fill="#A02020" points="206.25,362.6531,214.1516,368.5323,211.1279,363.7514,215.9088,360.7276,206.25,362.6531" style="stroke: #A02020; stroke-width: 2.0;"/><text fill="#000000" font-family="Helvetica" font-size="11" lengthAdjust="spacingAndGlyphs" textLength="66" x="487" y="403.1636">spec-bound</text><!--MD5=[9321152645a6befed91fdfb44d927bbb]
link Memos to ListMemos--><path d="M653.32,360.0531 C577.04,374.2831 402.96,407.5331 378,418.9531 C376.69,419.5531 375.38,420.1931 374.08,420.8731 " fill="none" id="Memos-&gt;ListMemos" style="stroke: #000000; stroke-width: 1.3;"/><polygon fill="#000000" points="369.69,423.3331,379.5,422.459,374.0608,420.9049,375.6148,415.4657,369.69,423.3331" style="stroke: #000000; stroke-width: 1.3;"/><!--MD5=[895332cd60b771c1cf713f2748509f82]
link ListMemos to Doctor--><path d="M330.53,488.2731 C323.03,549.6431 301.31,681.8531 246,777.9531 C242.35,784.3031 237.39,790.3531 232.27,795.7031 " fill="none" id="ListMemos-&gt;Doctor" style="stroke: #A02020; stroke-width: 2.0;"/><polygon fill="#A02020" points="228.71,799.2931,237.888,795.7204,232.2312,795.7433,232.2083,790.0865,228.71,799.2931" style="stroke: #A02020; stroke-width: 2.0;"/><text fill="#000000" font-family="Helvetica" font-size="11" lengthAdjust="spacingAndGlyphs" textLength="54" x="310" y="614.1636">untriaged</text><text fill="#000000" font-family="Helvetica" font-size="11" lengthAdjust="spacingAndGlyphs" textLength="44" x="315" y="626.9683">hygiene</text><!--MD5=[b9c01a323de574315323f51e9855b3ef]
link WorkItems to ListWorkItems--><path d="M464,581.5931 C464,597.2331 464,618.7931 464,637.4031 " fill="none" id="WorkItems-&gt;ListWorkItems" style="stroke: #000000; stroke-width: 1.3;"/><polygon fill="#000000" points="464,642.5731,468,633.5731,464,637.5731,460,633.5731,464,642.5731" style="stroke: #000000; stroke-width: 1.3;"/><!--MD5=[3de037b2041f1e45a1896a933bbd990e]
link ListWorkItems to Doctor--><path d="M415.46,707.6131 C380.87,728.0331 333.08,755.5731 290,777.9531 C275.96,785.2531 260.28,792.7631 246.43,799.1831 " fill="none" id="ListWorkItems-&gt;Doctor" style="stroke: #A02020; stroke-width: 2.0;"/><polygon fill="#A02020" points="241.81,801.3231,251.6581,801.2031,246.354,799.2369,248.3202,793.9327,241.81,801.3231" style="stroke: #A02020; stroke-width: 2.0;"/><text fill="#000000" font-family="Helvetica" font-size="11" lengthAdjust="spacingAndGlyphs" textLength="96" x="392" y="736.1636">1:1 gap-tracking,</text><text fill="#000000" font-family="Helvetica" font-size="11" lengthAdjust="spacingAndGlyphs" textLength="107" x="386.5" y="748.9683">no-orphan-blocker,</text><text fill="#000000" font-family="Helvetica" font-size="11" lengthAdjust="spacingAndGlyphs" textLength="100" x="390" y="761.7729">no-stale-gap-tied,</text><text fill="#000000" font-family="Helvetica" font-size="11" lengthAdjust="spacingAndGlyphs" textLength="108" x="386" y="774.5776">no-duplicate-gap-id</text><!--MD5=[269dd98111a6ba6d038bb8cd8e366f18]
link PCQueue to SpecNext--><path d="M141.59,484.6031 C137.28,497.7931 132.5,513.5331 129,527.9531 C109.63,607.9031 101.61,630.0231 109,711.9531 C111.26,737.0131 116.51,765.0431 120.92,785.7631 " fill="none" id="PCQueue-&gt;SpecNext" style="stroke: #000000; stroke-width: 1.3;"/><polygon fill="#000000" points="122.02,790.8631,124.0262,781.2208,120.9626,785.9762,116.2071,782.9126,122.02,790.8631" style="stroke: #000000; stroke-width: 1.3;"/><!--MD5=[3183d3131e42768096f3fd2a33fb6083]
link History to SpecNext--><path d="M160.78,708.7331 C153.82,731.6031 144.31,762.8531 137.33,785.8131 " fill="none" id="History-&gt;SpecNext" style="stroke: #000000; stroke-width: 1.3;"/><polygon fill="#000000" points="135.79,790.8731,142.238,783.4285,137.2464,786.0899,134.5849,781.0983,135.79,790.8731" style="stroke: #000000; stroke-width: 1.3;"/><!--MD5=[cec1456efa14870729047e95b8c53250]
link WorkItems to ImplNext--><path d="M504.71,581.5831 C510.17,584.4231 515.71,587.2731 521,589.9531 C569.06,614.2831 581.69,619.1331 630,642.9531 C641.23,648.4931 653.48,654.5931 664.41,660.0631 " fill="none" id="WorkItems-&gt;ImplNext" style="stroke: #000000; stroke-width: 1.3;"/><polygon fill="#000000" points="669,662.3631,662.7293,654.7685,664.525,660.1328,659.1607,661.9285,669,662.3631" style="stroke: #000000; stroke-width: 1.3;"/><!--MD5=[8d40a3f38b80e07a86ae4815c94e6dd7]
link Memos to ImplNext--><path d="M703.88,374.9931 C706.81,380.3131 709.46,386.1531 711,391.9531 C733.59,477.0031 716.47,502.1231 711,589.9531 C709.83,608.6631 706.55,629.4131 703.45,645.8931 " fill="none" id="Memos-&gt;ImplNext" style="stroke: #000000; stroke-width: 1.3;"/><polygon fill="#000000" points="702.5,650.8631,708.1242,642.778,703.4421,645.9527,700.2675,641.2706,702.5,650.8631" style="stroke: #000000; stroke-width: 1.3;"/><!--MD5=[222ee2b6d58a2658a05e794676a044a0]
@startuml tool-agnostic-workflow
title Tool-Agnostic Workflow — Spec / Implementation Lifecycle


skinparam defaultFontName Helvetica
skinparam shadowing false
skinparam BackgroundColor #fafafa
skinparam ArrowColor #000000
skinparam ArrowFontColor #000000
skinparam ArrowFontSize 11
skinparam ArrowThickness 1.3
skinparam nodesep 16
skinparam ranksep 26
hide stereotype

skinparam package {
  FontColor #111
  FontSize 13
  FontStyle bold
  BorderColor #444
  BorderThickness 2
}

skinparam rectangle {
  BackgroundColor #d6e6f5
  BorderColor #1f4768
  FontColor #111
  RoundCorner 8
}

skinparam database {
  BackgroundColor #f5ead5
  BorderColor #5a4319
  FontColor #111
}

skinparam component {
  BackgroundColor #e0d4ec
  BorderColor #5a3a72
  FontColor #111
}


rectangle "initial intent /\nprompt / instruction / seed" as Input #fffacc


package "SPEC SIDE" as SpecPkg #fde8ec {
  rectangle "Seed" as Seed
  rectangle "Propose\nChange" as Propose
  rectangle "Critique" as Critique
  rectangle "Revise" as Revise
  rectangle "Doctor" as Doctor
  rectangle "Next\n(thin)" as SpecNext #ccddee

  database "Specification" as Spec #f5d76e
  database "Proposed\nChanges" as PCQueue
  database "Specification\nHistory" as History
}


package "IMPLEMENTATION SIDE" as ImplPkg #e3f0e3 {
  rectangle "Capture\nImpl Gaps" as CaptureImplGaps
  rectangle "Capture\nWork Item" as CaptureWorkItem
  rectangle "Implement" as Implement
  rectangle "Capture\nSpec Drift" as CaptureSpecDrift
  rectangle "Capture\nMemo" as CaptureMemo
  rectangle "Process\nMemos" as ProcessMemos
  rectangle "List\nMemos\n(thin)" as ListMemos #ccddee
  rectangle "List\nWork Items\n(thin)" as ListWorkItems #ccddee
  rectangle "Next\n(thin)" as ImplNext #ccddee

  component "Spec\nReader" as SpecReader

  database "Implementation" as Impl #f5d76e
  database "Work Items" as WorkItems
  database "Memos" as Memos
  database "Persistent\nAgent Knowledge" as AgentKnowledge #f5d76e
}


Input - -> Seed

Seed - -> Spec
Propose - -> PCQueue
PCQueue - -> Revise
Revise - -> Spec
Revise - -> History
Spec - -> Critique
Critique - -> PCQueue
Spec - -> Doctor
History - -> Doctor

Spec -[#a02020,thickness=2]-> SpecReader
History -[#a02020,thickness=2]-> SpecReader

SpecReader - -> CaptureImplGaps
SpecReader - -> CaptureSpecDrift
SpecReader - -> Implement
SpecReader - -> ProcessMemos

Impl - -> CaptureImplGaps
CaptureImplGaps - -> WorkItems
WorkItems - -> Implement
Implement - -> Impl
Implement - -> WorkItems

CaptureWorkItem - -> WorkItems

Impl - -> CaptureSpecDrift

CaptureSpecDrift -[#a02020,thickness=2]-> Propose

CaptureMemo - -> Memos
Memos - -> ProcessMemos
ProcessMemos - -> WorkItems : impl-bound
ProcessMemos - -> AgentKnowledge : persistent

ProcessMemos -[#a02020,thickness=2]-> Propose : spec-bound

Memos - -> ListMemos
ListMemos -[#a02020,thickness=2]-> Doctor : untriaged\nhygiene

WorkItems - -> ListWorkItems
ListWorkItems -[#a02020,thickness=2]-> Doctor : 1:1 gap-tracking,\nno-orphan-blocker,\nno-stale-gap-tied,\nno-duplicate-gap-id

PCQueue - -> SpecNext
History - -> SpecNext
WorkItems - -> ImplNext
Memos - -> ImplNext

@enduml

PlantUML version 1.2020.02(Sun Mar 01 11:22:07 CET 2020)
(GPL source distribution)
Java Runtime: OpenJDK Runtime Environment
JVM: OpenJDK 64-Bit Server VM
Java Version: 21.0.10+7-Ubuntu-125.10
Operating System: Linux
Default Encoding: UTF-8
Language: en
Country: null
--></g></svg>