<?xml version="1.0" encoding="UTF-8" standalone="no"?><svg xmlns="http://www.w3.org/2000/svg" xmlns:xlink="http://www.w3.org/1999/xlink" contentScriptType="application/ecmascript" contentStyleType="text/css" height="842px" preserveAspectRatio="none" style="width:3942px;height:842px;" version="1.1" viewBox="0 0 3942 842" width="3942px" zoomAndPan="magnify"><defs/><g><text fill="#000000" font-family="Helvetica" font-size="18" lengthAdjust="spacingAndGlyphs" textLength="465" x="1742" y="16.708">Core vs Implementation — API Surface and Contract</text><!--MD5=[eac0c7012e1d7a63ae67bde8db01838d]
cluster livespec-core (one plugin)--><polygon fill="#FFFFFF" points="22,61.9531,235,61.9531,242,84.25,1615,84.25,1615,619.9531,22,619.9531,22,61.9531" style="stroke: #000000; stroke-width: 1.5;"/><line style="stroke: #000000; stroke-width: 1.5;" x1="22" x2="242" y1="84.25" y2="84.25"/><text fill="#000000" font-family="Helvetica" font-size="14" font-weight="bold" lengthAdjust="spacingAndGlyphs" textLength="207" x="26" y="76.9482">livespec-core (one plugin)</text><!--MD5=[10c50e1e0d77b59d1ae4db5bb5a0deb2]
cluster CoreSkillsBox--><rect fill="#FFFFFF" height="427" style="stroke: #111111; stroke-width: 1.5;" width="933" x="193" y="160.9531"/><text fill="#111111" font-family="Helvetica" font-size="14" font-weight="bold" lengthAdjust="spacingAndGlyphs" textLength="118" x="600.5" y="175.9482">skills exposed:</text><!--MD5=[5d6988302283cebc7c2744ad02774017]
cluster PublishedContract--><rect fill="#FFFFFF" height="185" style="stroke: #111111; stroke-width: 1.5;" width="417" x="1166" y="112.9531"/><text fill="#111111" font-family="Helvetica" font-size="14" font-weight="bold" lengthAdjust="spacingAndGlyphs" textLength="191" x="1279" y="127.9482">contracts.md publishes:</text><!--MD5=[3bb876e22b11efd6d853e94f20cd95c4]
cluster implementation plugin (one of N)--><polygon fill="#FFFFFF" points="1639,399.9531,1903,399.9531,1910,422.25,3639,422.25,3639,667.9531,1639,667.9531,1639,399.9531" style="stroke: #000000; stroke-width: 1.5;"/><line style="stroke: #000000; stroke-width: 1.5;" x1="1639" x2="1910" y1="422.25" y2="422.25"/><text fill="#000000" font-family="Helvetica" font-size="14" font-weight="bold" lengthAdjust="spacingAndGlyphs" textLength="258" x="1643" y="414.9482">implementation plugin (one of N)</text><!--MD5=[42278c33cb8aadba0ca02a66537d68ae]
cluster ImplSkillsBox--><rect fill="#FFFFFF" height="89" style="stroke: #111111; stroke-width: 1.5;" width="1358" x="1836" y="498.9531"/><text fill="#111111" font-family="Helvetica" font-size="14" font-weight="bold" lengthAdjust="spacingAndGlyphs" textLength="157" x="2436.5" y="513.9482">skills MUST expose:</text><!--MD5=[3ce75a24ac5da721ea3aac1cbe010761]
cluster ImplContract--><rect fill="#FFFFFF" height="185" style="stroke: #111111; stroke-width: 1.5;" width="373" x="3234" y="450.9531"/><text fill="#111111" font-family="Helvetica" font-size="14" font-weight="bold" lengthAdjust="spacingAndGlyphs" textLength="244" x="3298.5" y="465.9482">additional contract obligations:</text><!--MD5=[779b44b21fb800824cc4cc4e7ca1cbdb]
entity SpecOwned--><path d="M38,193.9531 C38,183.9531 102,183.9531 102,183.9531 C102,183.9531 166,183.9531 166,193.9531 L166,235.5469 C166,245.5469 102,245.5469 102,245.5469 C102,245.5469 38,245.5469 38,235.5469 L38,193.9531 " fill="#FFFFFF" style="stroke: #111111; stroke-width: 1.5;"/><path d="M38,193.9531 C38,203.9531 102,203.9531 102,203.9531 C102,203.9531 166,203.9531 166,193.9531 " fill="none" style="stroke: #111111; stroke-width: 1.5;"/><text fill="#111111" font-family="Helvetica" font-size="14" lengthAdjust="spacingAndGlyphs" textLength="64" x="48" y="220.9482">manages</text><text fill="#111111" font-family="Helvetica" font-size="14" lengthAdjust="spacingAndGlyphs" textLength="108" x="48" y="237.2451">SPECIFICATION/</text><!--MD5=[9a5cf7b5ccfe99a8a50c4f56868c7fc8]
entity Seed--><rect fill="#FFFFE0" height="22.2969" style="stroke: #111111; stroke-width: 1.5;" width="121" x="236.5" y="203.9531"/><text fill="#111111" font-family="Helvetica" font-size="14" lengthAdjust="spacingAndGlyphs" textLength="101" x="246.5" y="219.9482">/livespec:seed</text><!--MD5=[b162903c3f5aa45441033ef018a482dd]
entity Propose--><rect fill="#FFFFE0" height="22.2969" style="stroke: #111111; stroke-width: 1.5;" width="209" x="892.5" y="203.9531"/><text fill="#111111" font-family="Helvetica" font-size="14" lengthAdjust="spacingAndGlyphs" textLength="189" x="902.5" y="219.9482">/livespec:propose-changes</text><!--MD5=[5bd62c65b3bf6048be3cb32942b001e5]
entity Critique--><rect fill="#FFFFE0" height="22.2969" style="stroke: #111111; stroke-width: 1.5;" width="137" x="392.5" y="203.9531"/><text fill="#111111" font-family="Helvetica" font-size="14" lengthAdjust="spacingAndGlyphs" textLength="117" x="402.5" y="219.9482">/livespec:critique</text><!--MD5=[e9c1fb24a4cd81b1c7322b8f0a98f11d]
entity Revise--><rect fill="#FFFFE0" height="22.2969" style="stroke: #111111; stroke-width: 1.5;" width="127" x="564.5" y="203.9531"/><text fill="#111111" font-family="Helvetica" font-size="14" lengthAdjust="spacingAndGlyphs" textLength="107" x="574.5" y="219.9482">/livespec:revise</text><!--MD5=[5a5d35bcfc46556bdff8e646cc6c81c2]
entity Doctor--><rect fill="#FFFFE0" height="22.2969" style="stroke: #111111; stroke-width: 1.5;" width="131" x="726.5" y="203.9531"/><text fill="#111111" font-family="Helvetica" font-size="14" lengthAdjust="spacingAndGlyphs" textLength="111" x="736.5" y="219.9482">/livespec:doctor</text><!--MD5=[e795410d1115affb2dc2318c56ac1958]
entity Prune--><rect fill="#FFFFE0" height="22.2969" style="stroke: #111111; stroke-width: 1.5;" width="178" x="236" y="541.9531"/><text fill="#111111" font-family="Helvetica" font-size="14" lengthAdjust="spacingAndGlyphs" textLength="158" x="246" y="557.9482">/livespec:prune-history</text><!--MD5=[f977bcedc2844d29f593c14dce37bdb1]
entity Help--><rect fill="#FFFFE0" height="22.2969" style="stroke: #111111; stroke-width: 1.5;" width="116" x="449" y="541.9531"/><text fill="#111111" font-family="Helvetica" font-size="14" lengthAdjust="spacingAndGlyphs" textLength="96" x="459" y="557.9482">/livespec:help</text><!--MD5=[1e2b6769de7215424acfa595bf307cef]
entity ContractItems--><rect fill="#E6E6FA" height="117.7813" style="stroke: #111111; stroke-width: 1.5;" width="349" x="1209.5" y="155.9531"/><text fill="#111111" font-family="Helvetica" font-size="14" lengthAdjust="spacingAndGlyphs" textLength="199" x="1219.5" y="178.9482">• SPECIFICATION/ tree shape</text><text fill="#111111" font-family="Helvetica" font-size="14" lengthAdjust="spacingAndGlyphs" textLength="329" x="1219.5" y="195.2451">• .livespec.jsonc core schema (open extension)</text><text fill="#111111" font-family="Helvetica" font-size="14" lengthAdjust="spacingAndGlyphs" textLength="290" x="1219.5" y="211.542">• impl-plugin contract (must-expose skills)</text><text fill="#111111" font-family="Helvetica" font-size="14" lengthAdjust="spacingAndGlyphs" textLength="197" x="1219.5" y="227.8389">• .ai/&lt;topic&gt;.md convention</text><text fill="#111111" font-family="Helvetica" font-size="14" lengthAdjust="spacingAndGlyphs" textLength="187" x="1219.5" y="244.1357">• secrets-out-of-config rule</text><text fill="#111111" font-family="Helvetica" font-size="14" lengthAdjust="spacingAndGlyphs" textLength="176" x="1219.5" y="260.4326">• shared spec-vocabulary</text><!--MD5=[d8fb9ded979231c85613d5d6cd0da841]
entity ImplOwned--><path d="M1655.5,523.9531 C1655.5,513.9531 1732,513.9531 1732,513.9531 C1732,513.9531 1808.5,513.9531 1808.5,523.9531 L1808.5,581.8438 C1808.5,591.8438 1732,591.8438 1732,591.8438 C1732,591.8438 1655.5,591.8438 1655.5,581.8438 L1655.5,523.9531 " fill="#FFFFFF" style="stroke: #111111; stroke-width: 1.5;"/><path d="M1655.5,523.9531 C1655.5,533.9531 1732,533.9531 1732,533.9531 C1732,533.9531 1808.5,533.9531 1808.5,523.9531 " fill="none" style="stroke: #111111; stroke-width: 1.5;"/><text fill="#111111" font-family="Helvetica" font-size="14" lengthAdjust="spacingAndGlyphs" textLength="84" x="1665.5" y="550.9482">manages its</text><text fill="#111111" font-family="Helvetica" font-size="14" lengthAdjust="spacingAndGlyphs" textLength="133" x="1665.5" y="567.2451">work-item queue +</text><text fill="#111111" font-family="Helvetica" font-size="14" lengthAdjust="spacingAndGlyphs" textLength="84" x="1665.5" y="583.542">memo store</text><!--MD5=[d644e660c2446626a48517bb8e656509]
entity CaptureGaps--><rect fill="#FFFFE0" height="22.2969" style="stroke: #111111; stroke-width: 1.5;" width="262" x="2629" y="541.9531"/><text fill="#111111" font-family="Helvetica" font-size="14" lengthAdjust="spacingAndGlyphs" textLength="242" x="2639" y="557.9482">/livespec-impl-*:capture-spec-gaps</text><!--MD5=[74a2a13639c756e3324faac020ef6e7d]
entity Implement--><rect fill="#FFFFE0" height="22.2969" style="stroke: #111111; stroke-width: 1.5;" width="204" x="2390" y="541.9531"/><text fill="#111111" font-family="Helvetica" font-size="14" lengthAdjust="spacingAndGlyphs" textLength="184" x="2400" y="557.9482">/livespec-impl-*:implement</text><!--MD5=[4d8b149103de154d2d36dbc14fb1ec50]
entity CaptureMemo--><rect fill="#FFFFE0" height="22.2969" style="stroke: #111111; stroke-width: 1.5;" width="233" x="2121.5" y="541.9531"/><text fill="#111111" font-family="Helvetica" font-size="14" lengthAdjust="spacingAndGlyphs" textLength="213" x="2131.5" y="557.9482">/livespec-impl-*:capture-memo</text><!--MD5=[68d9f8308b3234f377cb47a720a0d9e6]
entity ListMemos--><rect fill="#FFFFE0" height="22.2969" style="stroke: #111111; stroke-width: 1.5;" width="207" x="1879.5" y="541.9531"/><text fill="#111111" font-family="Helvetica" font-size="14" lengthAdjust="spacingAndGlyphs" textLength="187" x="1889.5" y="557.9482">/livespec-impl-*:list-memos</text><!--MD5=[38c3dd3a596b244014464f502c88eff1]
entity ProcessMemos--><rect fill="#FFFFE0" height="22.2969" style="stroke: #111111; stroke-width: 1.5;" width="244" x="2926" y="541.9531"/><text fill="#111111" font-family="Helvetica" font-size="14" lengthAdjust="spacingAndGlyphs" textLength="224" x="2936" y="557.9482">/livespec-impl-*:process-memos</text><!--MD5=[03e4ddad555bbfc1409772c09270541c]
entity ImplObligations--><rect fill="#E6E6FA" height="117.7813" style="stroke: #111111; stroke-width: 1.5;" width="306" x="3277" y="493.9531"/><text fill="#111111" font-family="Helvetica" font-size="14" lengthAdjust="spacingAndGlyphs" textLength="95" x="3287" y="516.9482">• `list-memos</text><text fill="#111111" font-family="Helvetica" font-size="14" lengthAdjust="spacingAndGlyphs" text-decoration="line-through" textLength="66" x="3386" y="516.9482">untriaged</text><text fill="#111111" font-family="Helvetica" font-size="14" lengthAdjust="spacingAndGlyphs" textLength="36" x="3456" y="516.9482">json`</text><text fill="#111111" font-family="Helvetica" font-size="14" lengthAdjust="spacingAndGlyphs" textLength="183" x="3287" y="533.2451">(machine query for doctor)</text><text fill="#111111" font-family="Helvetica" font-size="14" lengthAdjust="spacingAndGlyphs" textLength="283" x="3287" y="549.542">• process-memos honors .ai/ convention</text><text fill="#111111" font-family="Helvetica" font-size="14" lengthAdjust="spacingAndGlyphs" textLength="259" x="3287" y="565.8389">for persistent-knowledge graduations</text><text fill="#111111" font-family="Helvetica" font-size="14" lengthAdjust="spacingAndGlyphs" textLength="286" x="3287" y="582.1357">• reads its OWN section of .livespec.jsonc</text><text fill="#111111" font-family="Helvetica" font-size="14" lengthAdjust="spacingAndGlyphs" textLength="234" x="3287" y="598.4326">• tolerates other plugins' sections</text><path d="M1631.5,179.4531 L1631.5,249.9844 L1878.5,249.9844 L1878.5,189.4531 L1868.5,179.4531 L1631.5,179.4531 " fill="#FBFB77" style="stroke: #A80036; stroke-width: 1.0;"/><path d="M1868.5,179.4531 L1868.5,189.4531 L1878.5,189.4531 L1868.5,179.4531 " fill="#FBFB77" style="stroke: #A80036; stroke-width: 1.0;"/><text fill="#000000" font-family="Helvetica" font-size="13" lengthAdjust="spacingAndGlyphs" textLength="178" x="1637.5" y="196.52">Core knows NOTHING about</text><text fill="#000000" font-family="Helvetica" font-size="13" lengthAdjust="spacingAndGlyphs" textLength="214" x="1637.5" y="211.6528">implementation plugins by name.</text><text fill="#000000" font-family="Helvetica" font-size="13" lengthAdjust="spacingAndGlyphs" textLength="216" x="1637.5" y="226.7856">The published contract is uniform;</text><text fill="#000000" font-family="Helvetica" font-size="13" lengthAdjust="spacingAndGlyphs" textLength="226" x="1637.5" y="241.9185">any plugin honoring it is swappable.</text><path d="M3655.5,502.4531 L3655.5,603.25 L3930.5,603.25 L3930.5,512.4531 L3920.5,502.4531 L3655.5,502.4531 " fill="#FBFB77" style="stroke: #A80036; stroke-width: 1.0;"/><path d="M3920.5,502.4531 L3920.5,512.4531 L3930.5,512.4531 L3920.5,502.4531 " fill="#FBFB77" style="stroke: #A80036; stroke-width: 1.0;"/><text fill="#000000" font-family="Helvetica" font-size="13" lengthAdjust="spacingAndGlyphs" textLength="163" x="3661.5" y="519.52">Implementations differ in:</text><text fill="#000000" font-family="Helvetica" font-size="13" lengthAdjust="spacingAndGlyphs" textLength="254" x="3661.5" y="534.6528">• backend (bd vs JSONL vs GitLab vs ...)</text><text fill="#000000" font-family="Helvetica" font-size="13" lengthAdjust="spacingAndGlyphs" textLength="209" x="3661.5" y="549.7856">• which dispositions are practical</text><text fill="#000000" font-family="Helvetica" font-size="13" lengthAdjust="spacingAndGlyphs" textLength="184" x="3661.5" y="564.9185">• which format choices apply</text><text fill="#000000" font-family="Helvetica" font-size="13" lengthAdjust="spacingAndGlyphs" textLength="200" x="3661.5" y="580.0513">They AGREE on the skill surface</text><text fill="#000000" font-family="Helvetica" font-size="13" lengthAdjust="spacingAndGlyphs" textLength="183" x="3661.5" y="595.1841">and the contract obligations.</text><path d="M2337.5,714.9531 L2337.5,830.8828 A0,0 0 0 0 2337.5,830.8828 L2646.5,830.8828 A0,0 0 0 0 2646.5,830.8828 L2646.5,724.9531 L2636.5,714.9531 L2496,714.9531 L2492,564.1731 L2488,714.9531 L2337.5,714.9531 A0,0 0 0 0 2337.5,714.9531 " fill="#FBFB77" style="stroke: #A80036; stroke-width: 1.0;"/><path d="M2636.5,714.9531 L2636.5,724.9531 L2646.5,724.9531 L2636.5,714.9531 " fill="#FBFB77" style="stroke: #A80036; stroke-width: 1.0;"/><text fill="#000000" font-family="Helvetica" font-size="13" lengthAdjust="spacingAndGlyphs" textLength="152" x="2343.5" y="732.02">`implement` is generic.</text><text fill="#000000" font-family="Helvetica" font-size="13" lengthAdjust="spacingAndGlyphs" textLength="171" x="2343.5" y="747.1528">It consumes any work item</text><text fill="#000000" font-family="Helvetica" font-size="13" lengthAdjust="spacingAndGlyphs" textLength="126" x="2343.5" y="762.2856">regardless of origin:</text><text fill="#000000" font-family="Helvetica" font-size="13" lengthAdjust="spacingAndGlyphs" textLength="288" x="2343.5" y="777.4185">• capture-spec-gaps-derived (gap-id labeled)</text><text fill="#000000" font-family="Helvetica" font-size="13" lengthAdjust="spacingAndGlyphs" textLength="264" x="2343.5" y="792.5513">• process-memos impl-bound disposition</text><text fill="#000000" font-family="Helvetica" font-size="13" lengthAdjust="spacingAndGlyphs" textLength="124" x="2343.5" y="807.6841">• future direct-filing</text><text fill="#000000" font-family="Helvetica" font-size="13" lengthAdjust="spacingAndGlyphs" textLength="251" x="2343.5" y="822.8169">Closure differs only by gap-id presence.</text><!--MD5=[a14968f61e25ac63b3b0e9a6f93d259c]
link PublishedContract to ImplContract--><path d="M1180.5022,298.3602 C1181.1333,299.5417 1181.8017,300.7002 1182.5092,301.8324 C1185.3394,306.3614 1188.7962,310.4706 1193,313.9531 C1202.4,321.7431 2938.92,320.1631 2951,321.9531 C3058.8,337.9231 3107.14,316.7331 3186,391.9531 C3199.415,404.7506 3209.6188,420.9394 3217.3794,438.0752 C3221.2597,446.643 3224.5292,455.4477 3227.284,464.1836 C3228.6614,468.5515 3229.9101,472.9023 3231.0421,477.1976 C3231.6081,479.3453 3232.1449,481.4791 3232.654,483.5944 C3232.9086,484.652 3233.1563,485.7049 3233.3972,486.7526 C3233.5177,487.2765 3233.6365,487.799 3233.7536,488.3202 C3233.8121,488.5807 3233.8703,488.841 3233.928,489.1008 " fill="none" id="PublishedContract-&gt;ImplContract" style="stroke: #111111; stroke-width: 1.0;"/><polygon fill="#111111" points="3233.928,489.1008,3235.8809,479.4475,3232.8436,484.2198,3228.0713,481.1826,3233.928,489.1008" style="stroke: #111111; stroke-width: 1.0;"/><text fill="#000000" font-family="Helvetica" font-size="13" lengthAdjust="spacingAndGlyphs" textLength="108" x="3177" y="350.02">every impl plugin</text><text fill="#000000" font-family="Helvetica" font-size="13" lengthAdjust="spacingAndGlyphs" textLength="78" x="3192" y="365.1528">MUST honor</text><!--MD5=[c6d42fc7992ff4e0f872203d00f59c69]
link Doctor to ListMemos--><path d="M797.17,226.2131 C808.24,246.9331 836.36,293.5331 875,313.9531 C1007.16,383.7931 1394.83,374.3631 1544,383.9531 C1562.41,385.1331 1859.83,383.0631 1876,391.9531 C1934.37,424.0431 1966.71,503.1731 1978.17,536.6231 " fill="none" id="Doctor-&gt;ListMemos" style="stroke: #111111; stroke-width: 1.0;"/><polygon fill="#111111" points="1979.83,541.5831,1980.7698,531.7792,1978.2446,536.8411,1973.1826,534.3159,1979.83,541.5831" style="stroke: #111111; stroke-width: 1.0;"/><text fill="#000000" font-family="Helvetica" font-size="13" lengthAdjust="spacingAndGlyphs" textLength="47" x="1610" y="342.52">queries</text><text fill="#000000" font-family="Helvetica" font-size="13" lengthAdjust="spacingAndGlyphs" text-decoration="line-through" textLength="61" x="1588" y="357.6528">untriaged</text><text fill="#000000" font-family="Helvetica" font-size="13" lengthAdjust="spacingAndGlyphs" textLength="26" x="1653" y="357.6528">json</text><text fill="#000000" font-family="Helvetica" font-size="13" lengthAdjust="spacingAndGlyphs" textLength="177" x="1545" y="372.7856">for memo-hygiene invariant</text><!--MD5=[c10773b12f72404c90d09f5a9e1d7cf3]
reverse link Propose to ProcessMemos--><path d="M1012.55,229.4431 C1039.8,252.0831 1098.9,296.9331 1158,313.9531 C1188.38,322.7031 1695.41,320.7931 1727,321.9531 C2190.62,338.9931 2305.86,356.9431 2769,383.9531 C2784.55,384.8631 2895.01,385.0831 2909,391.9531 C2978.37,426.0031 3027.46,511.8531 3042.87,541.6131 " fill="none" id="Propose&lt;-ProcessMemos" style="stroke: #111111; stroke-width: 1.0;"/><polygon fill="#111111" points="1008.46,226.0031,1012.7971,234.8456,1012.2953,229.2111,1017.9298,228.7092,1008.46,226.0031" style="stroke: #111111; stroke-width: 1.0;"/><text fill="#000000" font-family="Helvetica" font-size="13" lengthAdjust="spacingAndGlyphs" textLength="120" x="2798" y="335.02">routes spec-bound</text><text fill="#000000" font-family="Helvetica" font-size="13" lengthAdjust="spacingAndGlyphs" textLength="71" x="2822.5" y="350.1528">memos via</text><text fill="#000000" font-family="Helvetica" font-size="13" lengthAdjust="spacingAndGlyphs" textLength="170" x="2773" y="365.2856">/livespec:propose-changes</text><text fill="#000000" font-family="Helvetica" font-size="13" lengthAdjust="spacingAndGlyphs" textLength="176" x="2770" y="380.4185">(cross-namespace handoff)</text><!--MD5=[bf21bf7591b08ab8c3ac04f95346a2d5]
link GMN30 to CoreSkillsBox--><path d="M1729.09,179.3931 C1695.28,136.3931 1631.59,66.3631 1557.5,38.9531 C1523.11,26.2331 271.89,26.2331 237.5,38.9531 C227.89,42.5031 224.82,44.9131 220,53.9531 C203.845,84.2531 198.7725,122.2381 197.8888,153.7019 C197.8335,155.6684 197.7946,157.6094 197.7705,159.5214 C197.7644,159.9995 197.7593,160.4757 197.755,160.95 " fill="none" id="GMN30-CoreSkillsBox" style="stroke: #111111; stroke-width: 1.0; stroke-dasharray: 7.0,7.0;"/><!--MD5=[9633ddcf9992ec45d69096f8e625096f]
link ImplSkillsBox to GMN33--><path d="M1845.4046,498.8876 C1845.5369,496.3289 1845.6815,493.7184 1845.8396,491.065 C1846.4718,480.4517 1847.3191,469.1538 1848.4538,457.7506 C1852.9925,412.1381 1862.13,364.8431 1880.5,352.9531 C1959.83,301.6031 3493.7,318.0131 3581.5,352.9531 C3656.63,382.8531 3720.46,453.5031 3757.77,502.2831 " fill="none" id="ImplSkillsBox-GMN33" style="stroke: #111111; stroke-width: 1.0; stroke-dasharray: 7.0,7.0;"/><!--MD5=[7e5181c480fb2571483fc1ae56020da7]
link Seed to Critique--><!--MD5=[8449d67c7bebbf15a238964e4fb589f1]
link Critique to Revise--><!--MD5=[fdb733279f93fee86f6331d83d8a6d26]
link Seed to Prune--><!--MD5=[1260d3276017c3ade71f9d3f01e7aed4]
link Prune to Help--><!--MD5=[b5b501130f6e913dd35ab74180a9d66f]
@startuml core-vs-impl-api-surface
title Core vs Implementation — API Surface and Contract
skinparam defaultFontName Helvetica
skinparam shadowing false
skinparam BackgroundColor white
skinparam ArrowColor #111
skinparam rectangle {
  BorderColor #111
  BackgroundColor white
  FontColor #111
}
skinparam database {
  BorderColor #111
  BackgroundColor white
  FontColor #111
}
skinparam card {
  BorderColor #111
  BackgroundColor white
  FontColor #111
}

package "livespec-core (one plugin)" {
  rectangle "skills exposed:" as CoreSkillsBox {
    card "/livespec:seed" as Seed #LightYellow
    card "/livespec:propose-changes" as Propose #LightYellow
    card "/livespec:critique" as Critique #LightYellow
    card "/livespec:revise" as Revise #LightYellow
    card "/livespec:doctor" as Doctor #LightYellow
    card "/livespec:prune-history" as Prune #LightYellow
    card "/livespec:help" as Help #LightYellow
  }
  rectangle "contracts.md publishes:" as PublishedContract {
    rectangle "• SPECIFICATION/ tree shape\n• .livespec.jsonc core schema (open extension)\n• impl-plugin contract (must-expose skills)\n• .ai/<topic>.md convention\n• secrets-out-of-config rule\n• shared spec-vocabulary" as ContractItems #Lavender
  }
  database "manages\nSPECIFICATION/" as SpecOwned
}

package "implementation plugin (one of N)" {
  rectangle "skills MUST expose:" as ImplSkillsBox {
    card "/livespec-impl-*:capture-spec-gaps" as CaptureGaps #LightYellow
    card "/livespec-impl-*:implement" as Implement #LightYellow
    card "/livespec-impl-*:capture-memo" as CaptureMemo #LightYellow
    card "/livespec-impl-*:list-memos" as ListMemos #LightYellow
    card "/livespec-impl-*:process-memos" as ProcessMemos #LightYellow
  }
  rectangle "additional contract obligations:" as ImplContract {
    rectangle "• `list-memos - -untriaged - -json`\n  (machine query for doctor)\n• process-memos honors .ai/ convention\n  for persistent-knowledge graduations\n• reads its OWN section of .livespec.jsonc\n• tolerates other plugins' sections" as ImplObligations #Lavender
  }
  database "manages its\nwork-item queue +\nmemo store" as ImplOwned
}

PublishedContract -down-> ImplContract : every impl plugin\nMUST honor
Doctor -right-> ListMemos : queries\n- -untriaged - -json\nfor memo-hygiene invariant
ProcessMemos -up-> Propose : routes spec-bound\nmemos via\n/livespec:propose-changes\n(cross-namespace handoff)

note left of CoreSkillsBox : Core knows NOTHING about\nimplementation plugins by name.\nThe published contract is uniform;\nany plugin honoring it is swappable.

note right of ImplSkillsBox : Implementations differ in:\n• backend (bd vs JSONL vs GitLab vs ...)\n• which dispositions are practical\n• which format choices apply\nThey AGREE on the skill surface\nand the contract obligations.

note bottom of Implement : `implement` is generic.\nIt consumes any work item\nregardless of origin:\n• capture-spec-gaps-derived (gap-id labeled)\n• process-memos impl-bound disposition\n• future direct-filing\nClosure differs only by gap-id presence.

@enduml

PlantUML version 1.2020.02(Sun Mar 01 11:22:07 CET 2020)
(GPL source distribution)
Java Runtime: OpenJDK Runtime Environment
JVM: OpenJDK 64-Bit Server VM
Java Version: 21.0.10+7-Ubuntu-125.10
Operating System: Linux
Default Encoding: UTF-8
Language: en
Country: null
--></g></svg>