<?xml version="1.0" encoding="UTF-8" standalone="no"?><svg xmlns="http://www.w3.org/2000/svg" xmlns:xlink="http://www.w3.org/1999/xlink" contentScriptType="application/ecmascript" contentStyleType="text/css" height="1684px" preserveAspectRatio="none" style="width:1442px;height:1684px;" version="1.1" viewBox="0 0 1442 1684" width="1442px" zoomAndPan="magnify"><defs/><g><text fill="#000000" font-family="Helvetica" font-size="18" lengthAdjust="spacingAndGlyphs" textLength="631" x="401" y="26.708">Sequence — /livespec-impl-*:process-memos (with all four dispositions)</text><rect fill="#FFFFFF" height="1027.5938" style="stroke: #444444; stroke-width: 1.0;" width="10" x="620" y="410.5781"/><rect fill="#FFFFFF" height="881.9297" style="stroke: #000000; stroke-width: 2.0;" width="1407" x="13" y="483.8438"/><rect fill="#FFFFFF" height="777.3984" style="stroke: #000000; stroke-width: 2.0;" width="1387" x="23" y="581.375"/><rect fill="#FFFFFF" height="227" style="stroke: none; stroke-width: 1.0;" width="1387" x="23" y="786.3047"/><rect fill="#FFFFFF" height="272.3984" style="stroke: none; stroke-width: 1.0;" width="1387" x="23" y="1013.3047"/><rect fill="#FFFFFF" height="73.0703" style="stroke: none; stroke-width: 1.0;" width="1387" x="23" y="1285.7031"/><line style="stroke: #444444; stroke-width: 1.0; stroke-dasharray: 5.0,5.0;" x1="78" x2="78" y1="117.25" y2="1597.2344"/><line style="stroke: #444444; stroke-width: 1.0; stroke-dasharray: 5.0,5.0;" x1="302.5" x2="302.5" y1="117.25" y2="1597.2344"/><line style="stroke: #444444; stroke-width: 1.0; stroke-dasharray: 5.0,5.0;" x1="398.5" x2="398.5" y1="117.25" y2="1597.2344"/><line style="stroke: #444444; stroke-width: 1.0; stroke-dasharray: 5.0,5.0;" x1="624.5" x2="624.5" y1="117.25" y2="1597.2344"/><line style="stroke: #444444; stroke-width: 1.0; stroke-dasharray: 5.0,5.0;" x1="821" x2="821" y1="117.25" y2="1597.2344"/><line style="stroke: #444444; stroke-width: 1.0; stroke-dasharray: 5.0,5.0;" x1="990" x2="990" y1="117.25" y2="1597.2344"/><line style="stroke: #444444; stroke-width: 1.0; stroke-dasharray: 5.0,5.0;" x1="1206" x2="1206" y1="117.25" y2="1597.2344"/><line style="stroke: #444444; stroke-width: 1.0; stroke-dasharray: 5.0,5.0;" x1="1341" x2="1341" y1="117.25" y2="1597.2344"/><text fill="#111111" font-family="Helvetica" font-size="14" lengthAdjust="spacingAndGlyphs" textLength="84" x="33" y="113.9482">Human user</text><ellipse cx="78" cy="47.9531" fill="#FFFFFF" rx="8" ry="8" style="stroke: #111111; stroke-width: 2.0;"/><path d="M78,55.9531 L78,82.9531 M65,63.9531 L91,63.9531 M78,82.9531 L65,97.9531 M78,82.9531 L91,97.9531 " fill="none" style="stroke: #111111; stroke-width: 2.0;"/><text fill="#111111" font-family="Helvetica" font-size="14" lengthAdjust="spacingAndGlyphs" textLength="84" x="33" y="1609.2295">Human user</text><ellipse cx="78" cy="1622.5313" fill="#FFFFFF" rx="8" ry="8" style="stroke: #111111; stroke-width: 2.0;"/><path d="M78,1630.5313 L78,1657.5313 M65,1638.5313 L91,1638.5313 M78,1657.5313 L65,1672.5313 M78,1657.5313 L91,1672.5313 " fill="none" style="stroke: #111111; stroke-width: 2.0;"/><text fill="#111111" font-family="Helvetica" font-size="14" lengthAdjust="spacingAndGlyphs" textLength="41" x="279.5" y="113.9482">Agent</text><ellipse cx="303" cy="47.9531" fill="#87CEFA" rx="8" ry="8" style="stroke: #111111; stroke-width: 2.0;"/><path d="M303,55.9531 L303,82.9531 M290,63.9531 L316,63.9531 M303,82.9531 L290,97.9531 M303,82.9531 L316,97.9531 " fill="none" style="stroke: #111111; stroke-width: 2.0;"/><text fill="#111111" font-family="Helvetica" font-size="14" lengthAdjust="spacingAndGlyphs" textLength="41" x="279.5" y="1609.2295">Agent</text><ellipse cx="303" cy="1622.5313" fill="#87CEFA" rx="8" ry="8" style="stroke: #111111; stroke-width: 2.0;"/><path d="M303,1630.5313 L303,1657.5313 M290,1638.5313 L316,1638.5313 M303,1657.5313 L290,1672.5313 M303,1657.5313 L316,1672.5313 " fill="none" style="stroke: #111111; stroke-width: 2.0;"/><rect fill="#FFFFE0" height="30.2969" style="stroke: #111111; stroke-width: 1.5;" width="125" x="336.5" y="85.9531"/><text fill="#111111" font-family="Helvetica" font-size="14" lengthAdjust="spacingAndGlyphs" textLength="111" x="343.5" y="105.9482">/livespec:doctor</text><rect fill="#FFFFE0" height="30.2969" style="stroke: #111111; stroke-width: 1.5;" width="125" x="336.5" y="1596.2344"/><text fill="#111111" font-family="Helvetica" font-size="14" lengthAdjust="spacingAndGlyphs" textLength="111" x="343.5" y="1616.2295">/livespec:doctor</text><rect fill="#FFFFE0" height="46.5938" style="stroke: #111111; stroke-width: 1.5;" width="127" x="561.5" y="69.6563"/><text fill="#111111" font-family="Helvetica" font-size="14" lengthAdjust="spacingAndGlyphs" textLength="111" x="569.5" y="89.6514">/livespec-impl-*:</text><text fill="#111111" font-family="Helvetica" font-size="14" lengthAdjust="spacingAndGlyphs" textLength="113" x="568.5" y="105.9482">process-memos</text><rect fill="#FFFFE0" height="46.5938" style="stroke: #111111; stroke-width: 1.5;" width="127" x="561.5" y="1596.2344"/><text fill="#111111" font-family="Helvetica" font-size="14" lengthAdjust="spacingAndGlyphs" textLength="111" x="569.5" y="1616.2295">/livespec-impl-*:</text><text fill="#111111" font-family="Helvetica" font-size="14" lengthAdjust="spacingAndGlyphs" textLength="113" x="568.5" y="1632.5264">process-memos</text><rect fill="#FFFFFF" height="46.5938" style="stroke: #111111; stroke-width: 1.5;" width="116" x="763" y="69.6563"/><text fill="#111111" font-family="Helvetica" font-size="14" lengthAdjust="spacingAndGlyphs" textLength="84" x="779" y="89.6514">memo store</text><text fill="#111111" font-family="Helvetica" font-size="14" lengthAdjust="spacingAndGlyphs" textLength="102" x="770" y="105.9482">(impl backend)</text><rect fill="#FFFFFF" height="46.5938" style="stroke: #111111; stroke-width: 1.5;" width="116" x="763" y="1596.2344"/><text fill="#111111" font-family="Helvetica" font-size="14" lengthAdjust="spacingAndGlyphs" textLength="84" x="779" y="1616.2295">memo store</text><text fill="#111111" font-family="Helvetica" font-size="14" lengthAdjust="spacingAndGlyphs" textLength="102" x="770" y="1632.5264">(impl backend)</text><rect fill="#FFFFE0" height="30.2969" style="stroke: #111111; stroke-width: 1.5;" width="203" x="889" y="85.9531"/><text fill="#111111" font-family="Helvetica" font-size="14" lengthAdjust="spacingAndGlyphs" textLength="189" x="896" y="105.9482">/livespec:propose-changes</text><rect fill="#FFFFE0" height="30.2969" style="stroke: #111111; stroke-width: 1.5;" width="203" x="889" y="1596.2344"/><text fill="#111111" font-family="Helvetica" font-size="14" lengthAdjust="spacingAndGlyphs" textLength="189" x="896" y="1616.2295">/livespec:propose-changes</text><rect fill="#FFFFFF" height="30.2969" style="stroke: #111111; stroke-width: 1.5;" width="131" x="1141" y="85.9531"/><text fill="#111111" font-family="Helvetica" font-size="14" lengthAdjust="spacingAndGlyphs" textLength="117" x="1148" y="105.9482">work-item queue</text><rect fill="#FFFFFF" height="30.2969" style="stroke: #111111; stroke-width: 1.5;" width="131" x="1141" y="1596.2344"/><text fill="#111111" font-family="Helvetica" font-size="14" lengthAdjust="spacingAndGlyphs" textLength="117" x="1148" y="1616.2295">work-item queue</text><rect fill="#FFFFFF" height="46.5938" style="stroke: #111111; stroke-width: 1.5;" width="118" x="1282" y="69.6563"/><text fill="#111111" font-family="Helvetica" font-size="14" lengthAdjust="spacingAndGlyphs" textLength="104" x="1289" y="89.6514">.ai/&lt;topic&gt;.md</text><text fill="#111111" font-family="Helvetica" font-size="14" lengthAdjust="spacingAndGlyphs" textLength="99" x="1291.5" y="105.9482">+ AGENTS.md</text><rect fill="#FFFFFF" height="46.5938" style="stroke: #111111; stroke-width: 1.5;" width="118" x="1282" y="1596.2344"/><text fill="#111111" font-family="Helvetica" font-size="14" lengthAdjust="spacingAndGlyphs" textLength="104" x="1289" y="1616.2295">.ai/&lt;topic&gt;.md</text><text fill="#111111" font-family="Helvetica" font-size="14" lengthAdjust="spacingAndGlyphs" textLength="99" x="1291.5" y="1632.5264">+ AGENTS.md</text><rect fill="#FFFFFF" height="1027.5938" style="stroke: #444444; stroke-width: 1.0;" width="10" x="620" y="410.5781"/><rect fill="#EEEEEE" height="3" style="stroke: #EEEEEE; stroke-width: 1.0;" width="1427" x="3" y="147.8164"/><line style="stroke: #000000; stroke-width: 1.0;" x1="3" x2="1430" y1="147.8164" y2="147.8164"/><line style="stroke: #000000; stroke-width: 1.0;" x1="3" x2="1430" y1="150.8164" y2="150.8164"/><rect fill="#EEEEEE" height="23.1328" style="stroke: #000000; stroke-width: 2.0;" width="310" x="561.5" y="137.25"/><text fill="#000000" font-family="Helvetica" font-size="13" font-weight="bold" lengthAdjust="spacingAndGlyphs" textLength="291" x="567.5" y="153.3169">Hygiene trigger (background invariant)</text><polygon fill="#111111" points="387,202.6484,397,206.6484,387,210.6484,391,206.6484" style="stroke: #111111; stroke-width: 1.0;"/><line style="stroke: #111111; stroke-width: 1.0;" x1="78" x2="393" y1="206.6484" y2="206.6484"/><text fill="#000000" font-family="Helvetica" font-size="13" lengthAdjust="spacingAndGlyphs" textLength="136" x="85" y="186.4497">invoke (routine check</text><text fill="#000000" font-family="Helvetica" font-size="13" lengthAdjust="spacingAndGlyphs" textLength="162" x="85" y="201.5825">or pre/post wrapper step)</text><polygon fill="#111111" points="809,231.7813,819,235.7813,809,239.7813,813,235.7813" style="stroke: #111111; stroke-width: 1.0;"/><line style="stroke: #111111; stroke-width: 1.0;" x1="399" x2="815" y1="235.7813" y2="235.7813"/><text fill="#000000" font-family="Helvetica" font-size="13" lengthAdjust="spacingAndGlyphs" textLength="72" x="406" y="230.7153">list-memos</text><text fill="#000000" font-family="Helvetica" font-size="13" lengthAdjust="spacingAndGlyphs" text-decoration="line-through" textLength="61" x="482" y="230.7153">untriaged</text><text fill="#000000" font-family="Helvetica" font-size="13" lengthAdjust="spacingAndGlyphs" textLength="26" x="547" y="230.7153">json</text><polygon fill="#111111" points="410,260.9141,400,264.9141,410,268.9141,406,264.9141" style="stroke: #111111; stroke-width: 1.0;"/><line style="stroke: #111111; stroke-width: 1.0; stroke-dasharray: 2.0,2.0;" x1="404" x2="820" y1="264.9141" y2="264.9141"/><text fill="#000000" font-family="Helvetica" font-size="13" lengthAdjust="spacingAndGlyphs" textLength="123" x="416" y="259.8481">N untriaged entries</text><polygon fill="#111111" points="89,305.1797,79,309.1797,89,313.1797,85,309.1797" style="stroke: #111111; stroke-width: 1.0;"/><line style="stroke: #111111; stroke-width: 1.0;" x1="83" x2="398" y1="309.1797" y2="309.1797"/><text fill="#000000" font-family="Helvetica" font-size="13" lengthAdjust="spacingAndGlyphs" textLength="165" x="95" y="288.981">warn: "N memos pending,</text><text fill="#000000" font-family="Helvetica" font-size="13" lengthAdjust="spacingAndGlyphs" textLength="134" x="95" y="304.1138">run process-memos"</text><rect fill="#EEEEEE" height="3" style="stroke: #EEEEEE; stroke-width: 1.0;" width="1427" x="3" y="337.7461"/><line style="stroke: #000000; stroke-width: 1.0;" x1="3" x2="1430" y1="337.7461" y2="337.7461"/><line style="stroke: #000000; stroke-width: 1.0;" x1="3" x2="1430" y1="340.7461" y2="340.7461"/><rect fill="#EEEEEE" height="23.1328" style="stroke: #000000; stroke-width: 2.0;" width="189" x="622" y="327.1797"/><text fill="#000000" font-family="Helvetica" font-size="13" font-weight="bold" lengthAdjust="spacingAndGlyphs" textLength="170" x="628" y="343.2466">Per-memo dispositions</text><polygon fill="#111111" points="291,377.4453,301,381.4453,291,385.4453,295,381.4453" style="stroke: #111111; stroke-width: 1.0;"/><line style="stroke: #111111; stroke-width: 1.0;" x1="78" x2="297" y1="381.4453" y2="381.4453"/><text fill="#000000" font-family="Helvetica" font-size="13" lengthAdjust="spacingAndGlyphs" textLength="139" x="85" y="376.3794">"run process-memos"</text><polygon fill="#111111" points="608,406.5781,618,410.5781,608,414.5781,612,410.5781" style="stroke: #111111; stroke-width: 1.0;"/><line style="stroke: #111111; stroke-width: 1.0;" x1="303" x2="614" y1="410.5781" y2="410.5781"/><text fill="#000000" font-family="Helvetica" font-size="13" lengthAdjust="spacingAndGlyphs" textLength="41" x="310" y="405.5122">invoke</text><polygon fill="#111111" points="809,435.7109,819,439.7109,809,443.7109,813,439.7109" style="stroke: #111111; stroke-width: 1.0;"/><line style="stroke: #111111; stroke-width: 1.0;" x1="630" x2="815" y1="439.7109" y2="439.7109"/><text fill="#000000" font-family="Helvetica" font-size="13" lengthAdjust="spacingAndGlyphs" textLength="72" x="637" y="434.645">list-memos</text><text fill="#000000" font-family="Helvetica" font-size="13" lengthAdjust="spacingAndGlyphs" text-decoration="line-through" textLength="61" x="713" y="434.645">untriaged</text><text fill="#000000" font-family="Helvetica" font-size="13" lengthAdjust="spacingAndGlyphs" textLength="26" x="778" y="434.645">json</text><polygon fill="#111111" points="641,464.8438,631,468.8438,641,472.8438,637,468.8438" style="stroke: #111111; stroke-width: 1.0;"/><line style="stroke: #111111; stroke-width: 1.0; stroke-dasharray: 2.0,2.0;" x1="635" x2="820" y1="468.8438" y2="468.8438"/><text fill="#000000" font-family="Helvetica" font-size="13" lengthAdjust="spacingAndGlyphs" textLength="129" x="647" y="463.7778">untriaged memo list</text><path d="M13,483.8438 L90,483.8438 L90,490.8438 L80,500.8438 L13,500.8438 L13,483.8438 " fill="#EEEEEE" style="stroke: #000000; stroke-width: 1.0;"/><rect fill="none" height="881.9297" style="stroke: #000000; stroke-width: 2.0;" width="1407" x="13" y="483.8438"/><text fill="#000000" font-family="Helvetica" font-size="13" font-weight="bold" lengthAdjust="spacingAndGlyphs" textLength="32" x="28" y="496.9106">loop</text><text fill="#000000" font-family="Helvetica" font-size="11" font-weight="bold" lengthAdjust="spacingAndGlyphs" textLength="171" x="105" y="496.0542">[for each untriaged memo]</text><polygon fill="#111111" points="314,518.1094,304,522.1094,314,526.1094,310,522.1094" style="stroke: #111111; stroke-width: 1.0;"/><line style="stroke: #111111; stroke-width: 1.0;" x1="308" x2="619" y1="522.1094" y2="522.1094"/><text fill="#000000" font-family="Helvetica" font-size="13" lengthAdjust="spacingAndGlyphs" textLength="293" x="320" y="517.0435">surface memo text + suggested classification</text><polygon fill="#111111" points="89,562.375,79,566.375,89,570.375,85,566.375" style="stroke: #111111; stroke-width: 1.0;"/><line style="stroke: #111111; stroke-width: 1.0;" x1="83" x2="302" y1="566.375" y2="566.375"/><text fill="#000000" font-family="Helvetica" font-size="13" lengthAdjust="spacingAndGlyphs" textLength="197" x="95" y="546.1763">ask: spec-bound / impl-bound /</text><text fill="#000000" font-family="Helvetica" font-size="13" lengthAdjust="spacingAndGlyphs" textLength="201" x="95" y="561.3091">persistent-knowledge / discard?</text><path d="M23,581.375 L87,581.375 L87,588.375 L77,598.375 L23,598.375 L23,581.375 " fill="#EEEEEE" style="stroke: #000000; stroke-width: 1.0;"/><rect fill="none" height="777.3984" style="stroke: #000000; stroke-width: 2.0;" width="1387" x="23" y="581.375"/><text fill="#000000" font-family="Helvetica" font-size="13" font-weight="bold" lengthAdjust="spacingAndGlyphs" textLength="19" x="38" y="594.4419">alt</text><text fill="#000000" font-family="Helvetica" font-size="11" font-weight="bold" lengthAdjust="spacingAndGlyphs" textLength="94" x="102" y="593.5854">[SPEC-BOUND]</text><polygon fill="#111111" points="291,615.6406,301,619.6406,291,623.6406,295,619.6406" style="stroke: #111111; stroke-width: 1.0;"/><line style="stroke: #111111; stroke-width: 1.0; stroke-dasharray: 2.0,2.0;" x1="78" x2="297" y1="619.6406" y2="619.6406"/><text fill="#000000" font-family="Helvetica" font-size="13" lengthAdjust="spacingAndGlyphs" textLength="134" x="85" y="614.5747">confirms spec-bound</text><polygon fill="#111111" points="978.5,644.7734,988.5,648.7734,978.5,652.7734,982.5,648.7734" style="stroke: #111111; stroke-width: 1.0;"/><line style="stroke: #111111; stroke-width: 1.0;" x1="303" x2="984.5" y1="648.7734" y2="648.7734"/><text fill="#000000" font-family="Helvetica" font-size="13" lengthAdjust="spacingAndGlyphs" textLength="200" x="310" y="643.7075">invoke with memo text as input</text><line style="stroke: #111111; stroke-width: 1.0;" x1="990.5" x2="1032.5" y1="677.9063" y2="677.9063"/><line style="stroke: #111111; stroke-width: 1.0;" x1="1032.5" x2="1032.5" y1="677.9063" y2="690.9063"/><line style="stroke: #111111; stroke-width: 1.0;" x1="991.5" x2="1032.5" y1="690.9063" y2="690.9063"/><polygon fill="#111111" points="1001.5,686.9063,991.5,690.9063,1001.5,694.9063,997.5,690.9063" style="stroke: #111111; stroke-width: 1.0;"/><text fill="#000000" font-family="Helvetica" font-size="13" lengthAdjust="spacingAndGlyphs" textLength="202" x="997.5" y="672.8403">interactive structured authoring</text><polygon fill="#111111" points="314,716.0391,304,720.0391,314,724.0391,310,720.0391" style="stroke: #111111; stroke-width: 1.0;"/><line style="stroke: #111111; stroke-width: 1.0; stroke-dasharray: 2.0,2.0;" x1="308" x2="989.5" y1="720.0391" y2="720.0391"/><text fill="#000000" font-family="Helvetica" font-size="13" lengthAdjust="spacingAndGlyphs" textLength="183" x="320" y="714.9731">proposed_change file written</text><polygon fill="#111111" points="608,745.1719,618,749.1719,608,753.1719,612,749.1719" style="stroke: #111111; stroke-width: 1.0;"/><line style="stroke: #111111; stroke-width: 1.0;" x1="303" x2="614" y1="749.1719" y2="749.1719"/><text fill="#000000" font-family="Helvetica" font-size="13" lengthAdjust="spacingAndGlyphs" textLength="104" x="310" y="744.106">disposition done</text><polygon fill="#111111" points="809,774.3047,819,778.3047,809,782.3047,813,778.3047" style="stroke: #111111; stroke-width: 1.0;"/><line style="stroke: #111111; stroke-width: 1.0;" x1="630" x2="815" y1="778.3047" y2="778.3047"/><text fill="#000000" font-family="Helvetica" font-size="13" lengthAdjust="spacingAndGlyphs" textLength="149" x="637" y="773.2388">mark memo processed</text><line style="stroke: #000000; stroke-width: 1.0; stroke-dasharray: 2.0,2.0;" x1="23" x2="1410" y1="787.3047" y2="787.3047"/><text fill="#000000" font-family="Helvetica" font-size="11" font-weight="bold" lengthAdjust="spacingAndGlyphs" textLength="91" x="28" y="797.5151">[IMPL-BOUND]</text><polygon fill="#111111" points="291,818.2422,301,822.2422,291,826.2422,295,822.2422" style="stroke: #111111; stroke-width: 1.0;"/><line style="stroke: #111111; stroke-width: 1.0; stroke-dasharray: 2.0,2.0;" x1="78" x2="297" y1="822.2422" y2="822.2422"/><text fill="#000000" font-family="Helvetica" font-size="13" lengthAdjust="spacingAndGlyphs" textLength="131" x="85" y="817.1763">confirms impl-bound</text><polygon fill="#111111" points="608,847.375,618,851.375,608,855.375,612,851.375" style="stroke: #111111; stroke-width: 1.0;"/><line style="stroke: #111111; stroke-width: 1.0;" x1="303" x2="614" y1="851.375" y2="851.375"/><text fill="#000000" font-family="Helvetica" font-size="13" lengthAdjust="spacingAndGlyphs" textLength="68" x="310" y="846.3091">disposition</text><polygon fill="#111111" points="1194.5,891.6406,1204.5,895.6406,1194.5,899.6406,1198.5,895.6406" style="stroke: #111111; stroke-width: 1.0;"/><line style="stroke: #111111; stroke-width: 1.0;" x1="630" x2="1200.5" y1="895.6406" y2="895.6406"/><text fill="#000000" font-family="Helvetica" font-size="13" lengthAdjust="spacingAndGlyphs" textLength="188" x="637" y="875.4419">file work item with memo text</text><text fill="#000000" font-family="Helvetica" font-size="13" lengthAdjust="spacingAndGlyphs" textLength="180" x="637" y="890.5747">(no gap-id label — freeform)</text><polygon fill="#111111" points="641,920.7734,631,924.7734,641,928.7734,637,924.7734" style="stroke: #111111; stroke-width: 1.0;"/><line style="stroke: #111111; stroke-width: 1.0; stroke-dasharray: 2.0,2.0;" x1="635" x2="1205.5" y1="924.7734" y2="924.7734"/><text fill="#000000" font-family="Helvetica" font-size="13" lengthAdjust="spacingAndGlyphs" textLength="77" x="647" y="919.7075">work item id</text><polygon fill="#111111" points="809,975.6055,819,979.6055,809,983.6055,813,979.6055" style="stroke: #111111; stroke-width: 1.0;"/><line style="stroke: #111111; stroke-width: 1.0;" x1="630" x2="815" y1="979.6055" y2="979.6055"/><text fill="#000000" font-family="Helvetica" font-size="13" lengthAdjust="spacingAndGlyphs" textLength="149" x="637" y="974.5396">mark memo processed</text><path d="M826,937.7734 L826,1007.7734 L1051,1007.7734 L1051,947.7734 L1041,937.7734 L826,937.7734 " fill="#FBFB77" style="stroke: #A80036; stroke-width: 1.0;"/><path d="M1041,937.7734 L1041,947.7734 L1051,947.7734 L1041,937.7734 " fill="#FBFB77" style="stroke: #A80036; stroke-width: 1.0;"/><text fill="#000000" font-family="Helvetica" font-size="13" lengthAdjust="spacingAndGlyphs" textLength="149" x="832" y="954.8403">This work item joins the</text><text fill="#000000" font-family="Helvetica" font-size="13" lengthAdjust="spacingAndGlyphs" textLength="204" x="832" y="969.9731">same queue capture-spec-gaps</text><text fill="#000000" font-family="Helvetica" font-size="13" lengthAdjust="spacingAndGlyphs" textLength="174" x="832" y="985.106">populates; /livespec-impl-*:</text><text fill="#000000" font-family="Helvetica" font-size="13" lengthAdjust="spacingAndGlyphs" textLength="174" x="832" y="1000.2388">implement picks it up later.</text><line style="stroke: #000000; stroke-width: 1.0; stroke-dasharray: 2.0,2.0;" x1="23" x2="1410" y1="1014.3047" y2="1014.3047"/><text fill="#000000" font-family="Helvetica" font-size="11" font-weight="bold" lengthAdjust="spacingAndGlyphs" textLength="174" x="28" y="1024.5151">[PERSISTENT-KNOWLEDGE]</text><polygon fill="#111111" points="291,1045.2422,301,1049.2422,291,1053.2422,295,1049.2422" style="stroke: #111111; stroke-width: 1.0;"/><line style="stroke: #111111; stroke-width: 1.0; stroke-dasharray: 2.0,2.0;" x1="78" x2="297" y1="1049.2422" y2="1049.2422"/><text fill="#000000" font-family="Helvetica" font-size="13" lengthAdjust="spacingAndGlyphs" textLength="192" x="85" y="1044.1763">confirms; chooses topic name</text><polygon fill="#111111" points="1329,1089.5078,1339,1093.5078,1329,1097.5078,1333,1093.5078" style="stroke: #111111; stroke-width: 1.0;"/><line style="stroke: #111111; stroke-width: 1.0;" x1="303" x2="1335" y1="1093.5078" y2="1093.5078"/><text fill="#000000" font-family="Helvetica" font-size="13" lengthAdjust="spacingAndGlyphs" textLength="131" x="310" y="1073.3091">write .ai/&lt;topic&gt;.md</text><text fill="#000000" font-family="Helvetica" font-size="13" lengthAdjust="spacingAndGlyphs" textLength="124" x="310" y="1088.4419">with memo content</text><polygon fill="#111111" points="1329,1148.9063,1339,1152.9063,1329,1156.9063,1333,1152.9063" style="stroke: #111111; stroke-width: 1.0;"/><line style="stroke: #111111; stroke-width: 1.0;" x1="303" x2="1335" y1="1152.9063" y2="1152.9063"/><text fill="#000000" font-family="Helvetica" font-size="13" lengthAdjust="spacingAndGlyphs" textLength="127" x="310" y="1117.5747">update AGENTS.md</text><text fill="#000000" font-family="Helvetica" font-size="13" lengthAdjust="spacingAndGlyphs" textLength="181" x="310" y="1132.7075">(and optionally CLAUDE.md)</text><text fill="#000000" font-family="Helvetica" font-size="13" lengthAdjust="spacingAndGlyphs" textLength="200" x="310" y="1147.8403">with progressive-load reference</text><polygon fill="#111111" points="314,1178.0391,304,1182.0391,314,1186.0391,310,1182.0391" style="stroke: #111111; stroke-width: 1.0;"/><line style="stroke: #111111; stroke-width: 1.0; stroke-dasharray: 2.0,2.0;" x1="308" x2="1340" y1="1182.0391" y2="1182.0391"/><text fill="#000000" font-family="Helvetica" font-size="13" lengthAdjust="spacingAndGlyphs" textLength="72" x="320" y="1176.9731">files written</text><polygon fill="#111111" points="809,1240.4375,819,1244.4375,809,1248.4375,813,1244.4375" style="stroke: #111111; stroke-width: 1.0;"/><line style="stroke: #111111; stroke-width: 1.0;" x1="630" x2="815" y1="1244.4375" y2="1244.4375"/><text fill="#000000" font-family="Helvetica" font-size="13" lengthAdjust="spacingAndGlyphs" textLength="149" x="637" y="1239.3716">mark memo processed</text><path d="M826,1195.0391 L826,1280.0391 L1025,1280.0391 L1025,1205.0391 L1015,1195.0391 L826,1195.0391 " fill="#FBFB77" style="stroke: #A80036; stroke-width: 1.0;"/><path d="M1015,1195.0391 L1015,1205.0391 L1025,1205.0391 L1015,1195.0391 " fill="#FBFB77" style="stroke: #A80036; stroke-width: 1.0;"/><text fill="#000000" font-family="Helvetica" font-size="13" lengthAdjust="spacingAndGlyphs" textLength="175" x="832" y="1212.106">Persistent-knowledge is the</text><text fill="#000000" font-family="Helvetica" font-size="13" lengthAdjust="spacingAndGlyphs" textLength="178" x="832" y="1227.2388">slot for content that doesn't</text><text fill="#000000" font-family="Helvetica" font-size="13" lengthAdjust="spacingAndGlyphs" textLength="155" x="832" y="1242.3716">rise to spec or impl work</text><text fill="#000000" font-family="Helvetica" font-size="13" lengthAdjust="spacingAndGlyphs" textLength="164" x="832" y="1257.5044">but must be reachable by</text><text fill="#000000" font-family="Helvetica" font-size="13" lengthAdjust="spacingAndGlyphs" textLength="90" x="832" y="1272.6372">future agents.</text><line style="stroke: #000000; stroke-width: 1.0; stroke-dasharray: 2.0,2.0;" x1="23" x2="1410" y1="1286.7031" y2="1286.7031"/><text fill="#000000" font-family="Helvetica" font-size="11" font-weight="bold" lengthAdjust="spacingAndGlyphs" textLength="65" x="28" y="1296.9136">[DISCARD]</text><polygon fill="#111111" points="291,1317.6406,301,1321.6406,291,1325.6406,295,1321.6406" style="stroke: #111111; stroke-width: 1.0;"/><line style="stroke: #111111; stroke-width: 1.0; stroke-dasharray: 2.0,2.0;" x1="78" x2="297" y1="1321.6406" y2="1321.6406"/><text fill="#000000" font-family="Helvetica" font-size="13" lengthAdjust="spacingAndGlyphs" textLength="105" x="85" y="1316.5747">confirms discard</text><polygon fill="#111111" points="809,1346.7734,819,1350.7734,809,1354.7734,813,1350.7734" style="stroke: #111111; stroke-width: 1.0;"/><line style="stroke: #111111; stroke-width: 1.0;" x1="630" x2="815" y1="1350.7734" y2="1350.7734"/><text fill="#000000" font-family="Helvetica" font-size="13" lengthAdjust="spacingAndGlyphs" textLength="86" x="637" y="1345.7075">delete memo</text><polygon fill="#111111" points="314,1405.0391,304,1409.0391,314,1413.0391,310,1409.0391" style="stroke: #111111; stroke-width: 1.0;"/><line style="stroke: #111111; stroke-width: 1.0; stroke-dasharray: 2.0,2.0;" x1="308" x2="619" y1="1409.0391" y2="1409.0391"/><text fill="#000000" font-family="Helvetica" font-size="13" lengthAdjust="spacingAndGlyphs" textLength="154" x="320" y="1388.8403">summary (N processed,</text><text fill="#000000" font-family="Helvetica" font-size="13" lengthAdjust="spacingAndGlyphs" textLength="165" x="320" y="1403.9731">breakdown by disposition)</text><polygon fill="#111111" points="89,1434.1719,79,1438.1719,89,1442.1719,85,1438.1719" style="stroke: #111111; stroke-width: 1.0;"/><line style="stroke: #111111; stroke-width: 1.0; stroke-dasharray: 2.0,2.0;" x1="83" x2="302" y1="1438.1719" y2="1438.1719"/><text fill="#000000" font-family="Helvetica" font-size="13" lengthAdjust="spacingAndGlyphs" textLength="39" x="95" y="1433.106">report</text><path d="M28,1451.1719 L28,1582.1719 L1390,1582.1719 L1390,1461.1719 L1380,1451.1719 L28,1451.1719 " fill="#FBFB77" style="stroke: #A80036; stroke-width: 1.0;"/><path d="M1380,1451.1719 L1380,1461.1719 L1390,1461.1719 L1380,1451.1719 " fill="#FBFB77" style="stroke: #A80036; stroke-width: 1.0;"/><text fill="#000000" font-family="Helvetica" font-size="13" lengthAdjust="spacingAndGlyphs" textLength="178" x="593" y="1468.2388">Note: livespec-core's doctor</text><text fill="#000000" font-family="Helvetica" font-size="13" lengthAdjust="spacingAndGlyphs" textLength="217" x="593" y="1483.3716">KNOWS that memos exist (via the</text><text fill="#000000" font-family="Helvetica" font-size="13" lengthAdjust="spacingAndGlyphs" textLength="189" x="593" y="1498.5044">untriaged-query contract) but</text><text fill="#000000" font-family="Helvetica" font-size="13" lengthAdjust="spacingAndGlyphs" textLength="196" x="593" y="1513.6372">NEVER routes them. Routing is</text><text fill="#000000" font-family="Helvetica" font-size="13" lengthAdjust="spacingAndGlyphs" textLength="189" x="593" y="1528.77">100% on the impl-plugin side.</text><text fill="#000000" font-family="Helvetica" font-size="13" lengthAdjust="spacingAndGlyphs" textLength="223" x="593" y="1543.9028">The only cross-namespace handoff</text><text fill="#000000" font-family="Helvetica" font-size="13" lengthAdjust="spacingAndGlyphs" textLength="199" x="593" y="1559.0356">is the SPEC-BOUND disposition</text><text fill="#000000" font-family="Helvetica" font-size="13" lengthAdjust="spacingAndGlyphs" textLength="218" x="593" y="1574.1685">calling /livespec:propose-changes.</text><!--MD5=[4015b9bd9aff43e6cb76eb378cee979d]
@startuml seq-process-memos
title Sequence — /livespec-impl-*:process-memos (with all four dispositions)
skinparam defaultFontName Helvetica
skinparam shadowing false
skinparam BackgroundColor white
skinparam ArrowColor #111
skinparam sequence {
  ParticipantBorderColor #111
  ParticipantBackgroundColor white
  ParticipantFontColor #111
  ActorBorderColor #111
  ActorBackgroundColor white
  ActorFontColor #111
  LifeLineBorderColor #444
}

actor "Human user" as User
actor "Agent" as Agent #LightSkyBlue
participant "/livespec:doctor" as Doctor #LightYellow
participant "/livespec-impl-*:\nprocess-memos" as Process #LightYellow
participant "memo store\n(impl backend)" as Memos
participant "/livespec:propose-changes" as Propose #LightYellow
participant "work-item queue" as Queue
participant ".ai/<topic>.md\n+ AGENTS.md" as AiFiles

== Hygiene trigger (background invariant) ==

User -> Doctor : invoke (routine check\nor pre/post wrapper step)
Doctor -> Memos : list-memos - -untriaged - -json
Memos - -> Doctor : N untriaged entries
Doctor -> User : warn: "N memos pending,\nrun process-memos"

== Per-memo dispositions ==

User -> Agent : "run process-memos"
Agent -> Process : invoke
activate Process

Process -> Memos : list-memos - -untriaged - -json
Memos - -> Process : untriaged memo list

loop for each untriaged memo
  Process -> Agent : surface memo text + suggested classification
  Agent -> User : ask: spec-bound / impl-bound /\npersistent-knowledge / discard?

  alt SPEC-BOUND
    User - -> Agent : confirms spec-bound
    Agent -> Propose : invoke with memo text as input
    Propose -> Propose : interactive structured authoring
    Propose - -> Agent : proposed_change file written
    Agent -> Process : disposition done
    Process -> Memos : mark memo processed
  else IMPL-BOUND
    User - -> Agent : confirms impl-bound
    Agent -> Process : disposition
    Process -> Queue : file work item with memo text\n(no gap-id label — freeform)
    Queue - -> Process : work item id
    Process -> Memos : mark memo processed
    note right : This work item joins the\nsame queue capture-spec-gaps\npopulates; /livespec-impl-*:\nimplement picks it up later.
  else PERSISTENT-KNOWLEDGE
    User - -> Agent : confirms; chooses topic name
    Agent -> AiFiles : write .ai/<topic>.md\nwith memo content
    Agent -> AiFiles : update AGENTS.md\n(and optionally CLAUDE.md)\nwith progressive-load reference
    AiFiles - -> Agent : files written
    Process -> Memos : mark memo processed
    note right : Persistent-knowledge is the\nslot for content that doesn't\nrise to spec or impl work\nbut must be reachable by\nfuture agents.
  else DISCARD
    User - -> Agent : confirms discard
    Process -> Memos : delete memo
  end
end

Process - -> Agent : summary (N processed,\nbreakdown by disposition)
Agent - -> User : report
deactivate Process

note over User, AiFiles : Note: livespec-core's doctor\nKNOWS that memos exist (via the\nuntriaged-query contract) but\nNEVER routes them. Routing is\n100% on the impl-plugin side.\nThe only cross-namespace handoff\nis the SPEC-BOUND disposition\ncalling /livespec:propose-changes.

@enduml

PlantUML version 1.2020.02(Sun Mar 01 11:22:07 CET 2020)
(GPL source distribution)
Java Runtime: OpenJDK Runtime Environment
JVM: OpenJDK 64-Bit Server VM
Java Version: 21.0.10+7-Ubuntu-125.10
Operating System: Linux
Default Encoding: UTF-8
Language: en
Country: null
--></g></svg>