<?xml version="1.0" encoding="UTF-8" standalone="no"?><svg xmlns="http://www.w3.org/2000/svg" xmlns:xlink="http://www.w3.org/1999/xlink" contentScriptType="application/ecmascript" contentStyleType="text/css" height="833px" preserveAspectRatio="none" style="width:1295px;height:833px;background:#FAFAFA;" version="1.1" viewBox="0 0 1295 833" width="1295px" zoomAndPan="magnify"><defs/><g><text fill="#000000" font-family="Helvetica" font-size="18" lengthAdjust="spacingAndGlyphs" textLength="406" x="447.5" y="16.708">Memo Lifecycle — Capture, Hygiene, Routing</text><!--MD5=[781fc4211f0f0711d3811412dad38fe1]
cluster SpecPkg--><polygon fill="#FDE8EC" points="402,556.4531,484,556.4531,491,577.5859,935,577.5859,935,802.4531,402,802.4531,402,556.4531" style="stroke: #444444; stroke-width: 1.5;"/><line style="stroke: #444444; stroke-width: 1.5;" x1="402" x2="491" y1="577.5859" y2="577.5859"/><text fill="#111111" font-family="Helvetica" font-size="13" font-weight="bold" lengthAdjust="spacingAndGlyphs" textLength="76" x="406" y="570.52">SPEC SIDE</text><!--MD5=[4d90c78b95395404f4d0684d2e298718]
cluster ImplPkg--><polygon fill="#E3F0E3" points="22,45.4531,195,45.4531,202,66.5859,378,66.5859,378,675.9531,22,675.9531,22,45.4531" style="stroke: #444444; stroke-width: 1.5;"/><line style="stroke: #444444; stroke-width: 1.5;" x1="22" x2="202" y1="66.5859" y2="66.5859"/><text fill="#111111" font-family="Helvetica" font-size="13" font-weight="bold" lengthAdjust="spacingAndGlyphs" textLength="167" x="26" y="59.52">IMPLEMENTATION SIDE</text><!--MD5=[5a5d35bcfc46556bdff8e646cc6c81c2]
entity Doctor--><rect fill="#D6E6F5" height="36.2969" rx="4" ry="4" style="stroke: #1F4768; stroke-width: 1.5;" width="131" x="643.5" y="594.9531"/><text fill="#111111" font-family="Helvetica" font-size="14" lengthAdjust="spacingAndGlyphs" textLength="111" x="653.5" y="617.9482">/livespec:doctor</text><!--MD5=[b162903c3f5aa45441033ef018a482dd]
entity Propose--><rect fill="#D6E6F5" height="36.2969" rx="4" ry="4" style="stroke: #1F4768; stroke-width: 1.5;" width="209" x="418.5" y="594.9531"/><text fill="#111111" font-family="Helvetica" font-size="14" lengthAdjust="spacingAndGlyphs" textLength="189" x="428.5" y="617.9482">/livespec:propose-changes</text><!--MD5=[5b0af1a53dfe6ce9d6337a803daa3faf]
entity Spec--><path d="M791,600.4531 C791,590.4531 855,590.4531 855,590.4531 C855,590.4531 919,590.4531 919,600.4531 L919,625.75 C919,635.75 855,635.75 855,635.75 C855,635.75 791,635.75 791,625.75 L791,600.4531 " fill="#F5D76E" style="stroke: #5A4319; stroke-width: 1.5;"/><path d="M791,600.4531 C791,610.4531 855,610.4531 855,610.4531 C855,610.4531 919,610.4531 919,600.4531 " fill="none" style="stroke: #5A4319; stroke-width: 1.5;"/><text fill="#111111" font-family="Helvetica" font-size="14" lengthAdjust="spacingAndGlyphs" textLength="108" x="801" y="627.4482">SPECIFICATION/</text><!--MD5=[4cc95f85745661d7fbe872bf21a1bbc7]
entity PCQueue--><path d="M443.5,751.4531 C443.5,741.4531 523,741.4531 523,741.4531 C523,741.4531 602.5,741.4531 602.5,751.4531 L602.5,776.75 C602.5,786.75 523,786.75 523,786.75 C523,786.75 443.5,786.75 443.5,776.75 L443.5,751.4531 " fill="#F5EAD5" style="stroke: #5A4319; stroke-width: 1.5;"/><path d="M443.5,751.4531 C443.5,761.4531 523,761.4531 523,761.4531 C523,761.4531 602.5,761.4531 602.5,751.4531 " fill="none" style="stroke: #5A4319; stroke-width: 1.5;"/><text fill="#111111" font-family="Helvetica" font-size="14" lengthAdjust="spacingAndGlyphs" textLength="139" x="453.5" y="778.4482">proposed_changes/</text><!--MD5=[4d8b149103de154d2d36dbc14fb1ec50]
entity CaptureMemo--><rect fill="#D6E6F5" height="52.5938" rx="4" ry="4" style="stroke: #1F4768; stroke-width: 1.5;" width="131" x="94.5" y="79.4531"/><text fill="#111111" font-family="Helvetica" font-size="14" lengthAdjust="spacingAndGlyphs" textLength="111" x="104.5" y="102.4482">/livespec-impl-*:</text><text fill="#111111" font-family="Helvetica" font-size="14" lengthAdjust="spacingAndGlyphs" textLength="102" x="104.5" y="118.7451">capture-memo</text><!--MD5=[38c3dd3a596b244014464f502c88eff1]
entity ProcessMemos--><rect fill="#D6E6F5" height="52.5938" rx="4" ry="4" style="stroke: #1F4768; stroke-width: 1.5;" width="133" x="81.5" y="402.9531"/><text fill="#111111" font-family="Helvetica" font-size="14" lengthAdjust="spacingAndGlyphs" textLength="111" x="91.5" y="425.9482">/livespec-impl-*:</text><text fill="#111111" font-family="Helvetica" font-size="14" lengthAdjust="spacingAndGlyphs" textLength="113" x="91.5" y="442.2451">process-memos</text><!--MD5=[68d9f8308b3234f377cb47a720a0d9e6]
entity ListMemos--><rect fill="#CCDDEE" height="68.8906" rx="4" ry="4" style="stroke: #1F4768; stroke-width: 1.5;" width="131" x="230.5" y="394.9531"/><text fill="#111111" font-family="Helvetica" font-size="14" lengthAdjust="spacingAndGlyphs" textLength="111" x="240.5" y="417.9482">/livespec-impl-*:</text><text fill="#111111" font-family="Helvetica" font-size="14" lengthAdjust="spacingAndGlyphs" textLength="76" x="240.5" y="434.2451">list-memos</text><text fill="#111111" font-family="Helvetica" font-size="14" lengthAdjust="spacingAndGlyphs" textLength="103" x="240.5" y="450.542">(thin transport)</text><!--MD5=[77c2cd5fbd0db322139e34716aca4f0c]
entity SpecReader--><rect fill="#E0D4EC" height="36.2969" style="stroke: #5A3A72; stroke-width: 1.5;" width="109" x="252.5" y="227.4531"/><rect fill="#E0D4EC" height="5" style="stroke: #5A3A72; stroke-width: 1.5;" width="10" x="247.5" y="232.4531"/><rect fill="#E0D4EC" height="5" style="stroke: #5A3A72; stroke-width: 1.5;" width="10" x="247.5" y="253.75"/><text fill="#111111" font-family="Helvetica" font-size="14" lengthAdjust="spacingAndGlyphs" textLength="89" x="262.5" y="250.4482">Spec Reader</text><!--MD5=[1c5e44e491cf6497969a38cc571a845e]
entity Memos--><path d="M83.5,216.4531 C83.5,206.4531 160,206.4531 160,206.4531 C160,206.4531 236.5,206.4531 236.5,216.4531 L236.5,274.3438 C236.5,284.3438 160,284.3438 160,284.3438 C160,284.3438 83.5,284.3438 83.5,274.3438 L83.5,216.4531 " fill="#F5EAD5" style="stroke: #5A4319; stroke-width: 1.5;"/><path d="M83.5,216.4531 C83.5,226.4531 160,226.4531 160,226.4531 C160,226.4531 236.5,226.4531 236.5,216.4531 " fill="none" style="stroke: #5A4319; stroke-width: 1.5;"/><text fill="#111111" font-family="Helvetica" font-size="14" lengthAdjust="spacingAndGlyphs" textLength="51" x="93.5" y="243.4482">Memos</text><text fill="#111111" font-family="Helvetica" font-size="14" lengthAdjust="spacingAndGlyphs" textLength="109" x="93.5" y="259.7451">(plugin-specific:</text><text fill="#111111" font-family="Helvetica" font-size="14" lengthAdjust="spacingAndGlyphs" textLength="133" x="93.5" y="276.042">bd Dolt / JSONL / ...)</text><!--MD5=[fa81577849114cbf168f391a566a9b63]
entity WorkItems--><path d="M37.5,600.4531 C37.5,590.4531 86,590.4531 86,590.4531 C86,590.4531 134.5,590.4531 134.5,600.4531 L134.5,625.75 C134.5,635.75 86,635.75 86,635.75 C86,635.75 37.5,635.75 37.5,625.75 L37.5,600.4531 " fill="#F5EAD5" style="stroke: #5A4319; stroke-width: 1.5;"/><path d="M37.5,600.4531 C37.5,610.4531 86,610.4531 86,610.4531 C86,610.4531 134.5,610.4531 134.5,600.4531 " fill="none" style="stroke: #5A4319; stroke-width: 1.5;"/><text fill="#111111" font-family="Helvetica" font-size="14" lengthAdjust="spacingAndGlyphs" textLength="77" x="47.5" y="627.4482">Work Items</text><!--MD5=[cd20a034834c6e5d1841e96140da69e2]
entity AgentKnowledge--><path d="M150.5,575.9531 C150.5,565.9531 256,565.9531 256,565.9531 C256,565.9531 361.5,565.9531 361.5,575.9531 L361.5,650.1406 C361.5,660.1406 256,660.1406 256,660.1406 C256,660.1406 150.5,660.1406 150.5,650.1406 L150.5,575.9531 " fill="#F5D76E" style="stroke: #5A4319; stroke-width: 1.5;"/><path d="M150.5,575.9531 C150.5,585.9531 256,585.9531 256,585.9531 C256,585.9531 361.5,585.9531 361.5,575.9531 " fill="none" style="stroke: #5A4319; stroke-width: 1.5;"/><text fill="#111111" font-family="Helvetica" font-size="14" lengthAdjust="spacingAndGlyphs" textLength="70" x="160.5" y="602.9482">Persistent</text><text fill="#111111" font-family="Helvetica" font-size="14" lengthAdjust="spacingAndGlyphs" textLength="122" x="160.5" y="619.2451">Agent Knowledge</text><text fill="#111111" font-family="Helvetica" font-size="14" lengthAdjust="spacingAndGlyphs" textLength="173" x="160.5" y="635.542">(harness instruction files,</text><text fill="#111111" font-family="Helvetica" font-size="14" lengthAdjust="spacingAndGlyphs" textLength="191" x="160.5" y="651.8389">long-lived memory store, ...)</text><path d="M394,172.4531 L394,318.6484 L680,318.6484 L680,182.4531 L670,172.4531 L394,172.4531 " fill="#FBFB77" style="stroke: #A80036; stroke-width: 1.0;"/><path d="M670,172.4531 L670,182.4531 L680,182.4531 L670,172.4531 " fill="#FBFB77" style="stroke: #A80036; stroke-width: 1.0;"/><text fill="#000000" font-family="Helvetica" font-size="13" lengthAdjust="spacingAndGlyphs" textLength="265" x="400" y="189.52">Queue + archive — dispositioned memos</text><text fill="#000000" font-family="Helvetica" font-size="13" lengthAdjust="spacingAndGlyphs" textLength="230" x="400" y="204.6528">remain with a state marker for audit</text><text fill="#000000" font-family="Helvetica" font-size="13" lengthAdjust="spacingAndGlyphs" textLength="164" x="400" y="219.7856">(spec-bound, impl-bound,</text><text fill="#000000" font-family="Helvetica" font-size="13" lengthAdjust="spacingAndGlyphs" textLength="262" x="400" y="234.9185">persistent-knowledge, discard). Transient</text><text fill="#000000" font-family="Helvetica" font-size="13" lengthAdjust="spacingAndGlyphs" textLength="228" x="400" y="250.0513">by construction: every memo MUST</text><text fill="#000000" font-family="Helvetica" font-size="13" lengthAdjust="spacingAndGlyphs" textLength="251" x="400" y="265.1841">eventually flow to spec, impl, persistent</text><text fill="#000000" font-family="Helvetica" font-size="13" lengthAdjust="spacingAndGlyphs" textLength="217" x="400" y="280.3169">knowledge, or discard. Rejects the</text><text fill="#000000" font-family="Helvetica" font-size="13" lengthAdjust="spacingAndGlyphs" textLength="253" x="400" y="295.4497">permanent-memory-store pattern from</text><text fill="#000000" font-family="Helvetica" font-size="13" lengthAdjust="spacingAndGlyphs" textLength="152" x="400" y="310.5825">tools like bd remember.</text><path d="M951,705.9531 L951,821.8828 L1283,821.8828 L1283,715.9531 L1273,705.9531 L951,705.9531 " fill="#FBFB77" style="stroke: #A80036; stroke-width: 1.0;"/><path d="M1273,705.9531 L1273,715.9531 L1283,715.9531 L1273,705.9531 " fill="#FBFB77" style="stroke: #A80036; stroke-width: 1.0;"/><text fill="#000000" font-family="Helvetica" font-size="13" lengthAdjust="spacingAndGlyphs" textLength="292" x="957" y="723.02">Hygiene invariant: "no untriaged memo MUST</text><text fill="#000000" font-family="Helvetica" font-size="13" lengthAdjust="spacingAndGlyphs" textLength="274" x="957" y="738.1528">remain unresolved beyond N days." Doctor</text><text fill="#000000" font-family="Helvetica" font-size="13" lengthAdjust="spacingAndGlyphs" textLength="232" x="957" y="753.2856">invokes the impl plugin's list-memos</text><text fill="#000000" font-family="Helvetica" font-size="13" lengthAdjust="spacingAndGlyphs" textLength="223" x="957" y="768.4185">thin-transport skill (the 2026-05-18</text><text fill="#000000" font-family="Helvetica" font-size="13" lengthAdjust="spacingAndGlyphs" textLength="228" x="957" y="783.5513">resolution to the prior machine-only</text><text fill="#000000" font-family="Helvetica" font-size="13" lengthAdjust="spacingAndGlyphs" textLength="274" x="957" y="798.6841">query surface). Doctor does NOT know how</text><text fill="#000000" font-family="Helvetica" font-size="13" lengthAdjust="spacingAndGlyphs" textLength="311" x="957" y="813.8169">memos get resolved — only that they should be.</text><path d="M394,371.4531 L394,487.3828 L728,487.3828 L728,381.4531 L718,371.4531 L394,371.4531 " fill="#FBFB77" style="stroke: #A80036; stroke-width: 1.0;"/><path d="M718,371.4531 L718,381.4531 L728,381.4531 L718,371.4531 " fill="#FBFB77" style="stroke: #A80036; stroke-width: 1.0;"/><text fill="#000000" font-family="Helvetica" font-size="13" lengthAdjust="spacingAndGlyphs" textLength="267" x="400" y="388.52">Per-memo handholding skill — walks each</text><text fill="#000000" font-family="Helvetica" font-size="13" lengthAdjust="spacingAndGlyphs" textLength="267" x="400" y="403.6528">pending memo via user dialogue with four</text><text fill="#000000" font-family="Helvetica" font-size="13" lengthAdjust="spacingAndGlyphs" textLength="245" x="400" y="418.7856">dispositions. The handholding principle</text><text fill="#000000" font-family="Helvetica" font-size="13" lengthAdjust="spacingAndGlyphs" textLength="244" x="400" y="433.9185">is load-bearing: users do not manually</text><text fill="#000000" font-family="Helvetica" font-size="13" lengthAdjust="spacingAndGlyphs" textLength="313" x="400" y="449.0513">invoke propose-changes for spec-bound memos;</text><text fill="#000000" font-family="Helvetica" font-size="13" lengthAdjust="spacingAndGlyphs" textLength="263" x="400" y="464.1841">process-memos drives them through the</text><text fill="#000000" font-family="Helvetica" font-size="13" lengthAdjust="spacingAndGlyphs" textLength="188" x="400" y="479.3169">appropriate downstream skill.</text><path d="M68.5,705.9531 L68.5,821.8828 A0,0 0 0 0 68.5,821.8828 L385.5,821.8828 A0,0 0 0 0 385.5,821.8828 L385.5,715.9531 L375.5,705.9531 L242.11,705.9531 L246.98,660.2831 L234.11,705.9531 L68.5,705.9531 A0,0 0 0 0 68.5,705.9531 " fill="#FBFB77" style="stroke: #A80036; stroke-width: 1.0;"/><path d="M375.5,705.9531 L375.5,715.9531 L385.5,715.9531 L375.5,705.9531 " fill="#FBFB77" style="stroke: #A80036; stroke-width: 1.0;"/><text fill="#000000" font-family="Helvetica" font-size="13" lengthAdjust="spacingAndGlyphs" textLength="276" x="74.5" y="723.02">Long-term agent knowledge that doesn't fit</text><text fill="#000000" font-family="Helvetica" font-size="13" lengthAdjust="spacingAndGlyphs" textLength="256" x="74.5" y="738.1528">as a spec requirement or as inline code.</text><text fill="#000000" font-family="Helvetica" font-size="13" lengthAdjust="spacingAndGlyphs" textLength="296" x="74.5" y="753.2856">Form is implementation-dependent: file-based</text><text fill="#000000" font-family="Helvetica" font-size="13" lengthAdjust="spacingAndGlyphs" textLength="255" x="74.5" y="768.4185">realizations use harness instruction files</text><text fill="#000000" font-family="Helvetica" font-size="13" lengthAdjust="spacingAndGlyphs" textLength="291" x="74.5" y="783.5513">(AGENTS.md / CLAUDE.md / .ai/&lt;topic&gt;.md);</text><text fill="#000000" font-family="Helvetica" font-size="13" lengthAdjust="spacingAndGlyphs" textLength="277" x="74.5" y="798.6841">other plugins may use a long-lived memory</text><text fill="#000000" font-family="Helvetica" font-size="13" lengthAdjust="spacingAndGlyphs" textLength="270" x="74.5" y="813.8169">store the agent queries at relevant points.</text><!--MD5=[6de597d6f2c3b5db7bb29adef1fe1ed9]
link CaptureMemo to Memos--><path d="M160,132.4931 C160,151.7731 160,178.6731 160,201.2731 " fill="none" id="CaptureMemo-&gt;Memos" style="stroke: #000000; stroke-width: 1.3;"/><polygon fill="#000000" points="160,206.3231,164,197.3231,160,201.3231,156,197.3231,160,206.3231" style="stroke: #000000; stroke-width: 1.3;"/><text fill="#000000" font-family="Helvetica" font-size="11" lengthAdjust="spacingAndGlyphs" textLength="124" x="161" y="156.6636">writes pending memo</text><!--MD5=[9321152645a6befed91fdfb44d927bbb]
link Memos to ListMemos--><path d="M188.51,284.6031 C211.84,315.8331 244.67,359.7531 267.89,390.8331 " fill="none" id="Memos-&gt;ListMemos" style="stroke: #000000; stroke-width: 1.3;"/><polygon fill="#000000" points="270.96,394.9431,268.7764,385.3394,267.9668,390.938,262.3682,390.1284,270.96,394.9431" style="stroke: #000000; stroke-width: 1.3;"/><text fill="#000000" font-family="Helvetica" font-size="11" lengthAdjust="spacingAndGlyphs" textLength="59" x="242" y="349.1636">read state</text><!--MD5=[895332cd60b771c1cf713f2748509f82]
link ListMemos to Doctor--><path d="M340.17,464.0231 C354.15,473.0731 370.12,481.8831 386,487.4531 C435.79,504.9031 452.62,488.4631 504,500.4531 C564.79,514.6431 582.21,516.7731 636,548.4531 C655.84,560.1431 675.37,577.5231 689.23,591.1531 " fill="none" id="ListMemos-&gt;Doctor" style="stroke: #A02020; stroke-width: 2.0;"/><polygon fill="#A02020" points="692.98,594.8831,689.4073,585.7051,689.4302,591.3619,683.7734,591.3848,692.98,594.8831" style="stroke: #A02020; stroke-width: 2.0;"/><text fill="#000000" font-family="Helvetica" font-size="11" lengthAdjust="spacingAndGlyphs" textLength="64" x="647.5" y="511.6636">list-memos</text><text fill="#000000" font-family="Helvetica" font-size="11" lengthAdjust="spacingAndGlyphs" text-decoration="line-through" textLength="89" x="621" y="524.4683">filter=untriaged</text><text fill="#000000" font-family="Helvetica" font-size="11" lengthAdjust="spacingAndGlyphs" textLength="24" x="714" y="524.4683">json</text><text fill="#000000" font-family="Helvetica" font-size="11" lengthAdjust="spacingAndGlyphs" textLength="105" x="627" y="537.2729">(hygiene invariant)</text><!--MD5=[91940960ab9a8ef2543312077fc81051]
link Spec to SpecReader--><path d="M851.21,590.3531 C841.55,542.2831 811.24,426.4031 736,371.4531 C608.95,278.6631 528.03,386.1331 386,318.4531 C361.14,306.6031 338.55,284.2931 323.95,267.6331 " fill="none" id="Spec-&gt;SpecReader" style="stroke: #A02020; stroke-width: 2.0;"/><polygon fill="#A02020" points="320.42,263.5331,323.2781,272.9582,323.6892,267.3163,329.3311,267.7274,320.42,263.5331" style="stroke: #A02020; stroke-width: 2.0;"/><!--MD5=[bc5513d052cd97296c1e6cf2270d66af]
link SpecReader to ProcessMemos--><path d="M310.88,263.8131 C315.23,288.2931 318.88,332.8531 295,358.4531 C272.52,382.5531 252.14,358.1231 222,371.4531 C206.54,378.2831 191.41,389.0031 178.89,399.3131 " fill="none" id="SpecReader-&gt;ProcessMemos" style="stroke: #000000; stroke-width: 1.3;"/><polygon fill="#000000" points="174.75,402.7831,184.2198,400.0771,178.5853,399.5752,179.0871,393.9406,174.75,402.7831" style="stroke: #000000; stroke-width: 1.3;"/><!--MD5=[436c56898a2138351dd1a7842b69aa77]
link Memos to ProcessMemos--><path d="M163.52,284.6531 C164.89,306.3531 165.59,333.9831 163,358.4531 C161.63,371.4331 158.85,385.5431 156.06,397.6631 " fill="none" id="Memos-&gt;ProcessMemos" style="stroke: #000000; stroke-width: 1.3;"/><polygon fill="#000000" points="154.87,402.7331,160.8199,394.8846,156.012,397.8653,153.0314,393.0574,154.87,402.7331" style="stroke: #000000; stroke-width: 1.3;"/><!--MD5=[3ca5e408ae862d252a52d07a152903d0]
link ProcessMemos to Memos--><path d="M108.67,402.7531 C85.95,384.4131 63.87,358.3231 75,331.4531 C81.66,315.3731 93,300.7531 105.26,288.3531 " fill="none" id="ProcessMemos-&gt;Memos" style="stroke: #000000; stroke-width: 1.3;"/><polygon fill="#000000" points="109.09,284.5731,99.8764,288.0529,105.5331,288.0872,105.4988,293.7439,109.09,284.5731" style="stroke: #000000; stroke-width: 1.3;"/><text fill="#000000" font-family="Helvetica" font-size="11" lengthAdjust="spacingAndGlyphs" textLength="42" x="96" y="342.6636">discard</text><text fill="#000000" font-family="Helvetica" font-size="11" lengthAdjust="spacingAndGlyphs" textLength="82" x="76" y="355.4683">(state marker)</text><!--MD5=[f356670c5009cefe28fd37f9494e61d8]
link ProcessMemos to WorkItems--><path d="M121.8,455.9731 C110.87,468.3131 99.28,483.9931 93,500.4531 C82.53,527.9131 82,561.9331 83.31,585.1231 " fill="none" id="ProcessMemos-&gt;WorkItems" style="stroke: #000000; stroke-width: 1.3;"/><polygon fill="#000000" points="83.64,590.1931,87.0675,580.9599,83.3263,585.203,79.0833,581.4618,83.64,590.1931" style="stroke: #000000; stroke-width: 1.3;"/><text fill="#000000" font-family="Helvetica" font-size="11" lengthAdjust="spacingAndGlyphs" textLength="63" x="121.5" y="518.1636">impl-bound</text><text fill="#000000" font-family="Helvetica" font-size="11" lengthAdjust="spacingAndGlyphs" textLength="118" x="94" y="530.9683">(freeform work item)</text><!--MD5=[e81cbb5d45e320851ca1117dd08a4ab5]
link ProcessMemos to AgentKnowledge--><path d="M176.24,456.0431 C188.76,468.5031 202.9,484.2731 213,500.4531 C224.6,519.0331 233.94,541.2431 240.92,560.9331 " fill="none" id="ProcessMemos-&gt;AgentKnowledge" style="stroke: #000000; stroke-width: 1.3;"/><polygon fill="#000000" points="242.64,565.8831,243.4555,556.0681,240.9946,561.1616,235.9011,558.7007,242.64,565.8831" style="stroke: #000000; stroke-width: 1.3;"/><text fill="#000000" font-family="Helvetica" font-size="11" lengthAdjust="spacingAndGlyphs" textLength="122" x="234" y="518.1636">persistent-knowledge</text><text fill="#000000" font-family="Helvetica" font-size="11" lengthAdjust="spacingAndGlyphs" textLength="121" x="234.5" y="530.9683">(graduate the memo)</text><!--MD5=[bcae832c572b10c0086a5dbd5f75426b]
link ProcessMemos to Propose--><path d="M173.8,456.1831 C187.08,467.7931 204.19,480.4431 222,487.4531 C279.74,510.1631 302.67,479.2931 361,500.4531 C416.9,520.7331 471.73,565.0331 501.06,591.2831 " fill="none" id="ProcessMemos-&gt;Propose" style="stroke: #A02020; stroke-width: 2.0;"/><polygon fill="#A02020" points="504.86,594.7031,500.8653,585.7008,501.1506,591.3504,495.501,591.6358,504.86,594.7031" style="stroke: #A02020; stroke-width: 2.0;"/><text fill="#000000" font-family="Helvetica" font-size="11" lengthAdjust="spacingAndGlyphs" textLength="66" x="433" y="524.6636">spec-bound</text><!--MD5=[6aed50f60f52d38e3c9589f0bac08744]
link Propose to PCQueue--><path d="M523,631.0431 C523,656.7731 523,705.6631 523,736.1531 " fill="none" id="Propose-&gt;PCQueue" style="stroke: #000000; stroke-width: 1.3;"/><polygon fill="#000000" points="523,741.2531,527,732.2531,523,736.2531,519,732.2531,523,741.2531" style="stroke: #000000; stroke-width: 1.3;"/><!--MD5=[d494ffc31d6adfc6270a92defaac3dc7]
link Memos to GMN174--><path d="M186.65,206.3931 C202.89,186.1731 225.59,163.4731 252,152.4531 C298.76,132.9331 316.9,139.9631 366,152.4531 C384.34,157.1131 402.84,164.1931 420.55,172.4031 " fill="none" id="Memos-GMN174" style="stroke: #000000; stroke-width: 1.3; stroke-dasharray: 7.0,7.0;"/><!--MD5=[ed7ab5dd47d78a92e080911d1eee4c6f]
link Doctor to GMN177--><path d="M721.93,631.1931 C735.29,647.6331 757.71,671.6531 783,683.9531 C842.8,713.0331 866.14,691.2831 931,705.9531 C937.51,707.4231 944.12,709.0131 950.77,710.6831 " fill="none" id="Doctor-GMN177" style="stroke: #000000; stroke-width: 1.3; stroke-dasharray: 7.0,7.0;"/><!--MD5=[888088fc19664dc4481884b9d9854125]
link ProcessMemos to GMN180--><path d="M164.89,402.9131 C179.4,382.7831 202.32,356.6631 230,344.9531 C304.97,313.2431 394.69,339.8231 461.8,371.3031 " fill="none" id="ProcessMemos-GMN180" style="stroke: #000000; stroke-width: 1.3; stroke-dasharray: 7.0,7.0;"/><!--MD5=[eb78f36a6b6ff52a5abce1022a1389ae]
@startuml memo-lifecycle
title Memo Lifecycle — Capture, Hygiene, Routing
skinparam defaultFontName Helvetica
skinparam shadowing false
skinparam BackgroundColor #fafafa
skinparam ArrowColor #000000
skinparam ArrowFontColor #000000
skinparam ArrowFontSize 11
skinparam ArrowThickness 1.3
skinparam nodesep 16
skinparam ranksep 26
hide stereotype

skinparam rectangle {
  BackgroundColor #d6e6f5
  BorderColor #1f4768
  FontColor #111
  RoundCorner 8
}
skinparam database {
  BackgroundColor #f5ead5
  BorderColor #5a4319
  FontColor #111
}
skinparam component {
  BackgroundColor #e0d4ec
  BorderColor #5a3a72
  FontColor #111
}
skinparam package {
  FontColor #111
  FontSize 13
  FontStyle bold
  BorderColor #444
  BorderThickness 2
}

package "SPEC SIDE" as SpecPkg #fde8ec {
  rectangle "/livespec:doctor" as Doctor
  rectangle "/livespec:propose-changes" as Propose
  database "SPECIFICATION/" as Spec #f5d76e
  database "proposed_changes/" as PCQueue
}

package "IMPLEMENTATION SIDE" as ImplPkg #e3f0e3 {
  rectangle "/livespec-impl-*:\ncapture-memo" as CaptureMemo
  rectangle "/livespec-impl-*:\nprocess-memos" as ProcessMemos
  rectangle "/livespec-impl-*:\nlist-memos\n(thin transport)" as ListMemos #ccddee
  component "Spec Reader" as SpecReader

  database "Memos\n(plugin-specific:\nbd Dolt / JSONL / ...)" as Memos
  database "Work Items" as WorkItems
  database "Persistent\nAgent Knowledge\n(harness instruction files,\nlong-lived memory store, ...)" as AgentKnowledge #f5d76e
}

CaptureMemo - -> Memos : writes pending memo

Memos - -> ListMemos : read state
ListMemos -[#a02020,thickness=2]-> Doctor : list-memos\n- -filter=untriaged - -json\n(hygiene invariant)

Spec -[#a02020,thickness=2]-> SpecReader
SpecReader - -> ProcessMemos

Memos - -> ProcessMemos
ProcessMemos - -> WorkItems : impl-bound\n(freeform work item)
ProcessMemos - -> AgentKnowledge : persistent-knowledge\n(graduate the memo)
ProcessMemos - -> Memos : discard\n(state marker)

ProcessMemos -[#a02020,thickness=2]-> Propose : spec-bound
Propose - -> PCQueue

note right of Memos : Queue + archive — dispositioned memos\nremain with a state marker for audit\n(spec-bound, impl-bound,\npersistent-knowledge, discard). Transient\nby construction: every memo MUST\neventually flow to spec, impl, persistent\nknowledge, or discard. Rejects the\npermanent-memory-store pattern from\ntools like bd remember.

note bottom of Doctor : Hygiene invariant: "no untriaged memo MUST\nremain unresolved beyond N days." Doctor\ninvokes the impl plugin's list-memos\nthin-transport skill (the 2026-05-18\nresolution to the prior machine-only\nquery surface). Doctor does NOT know how\nmemos get resolved — only that they should be.

note right of ProcessMemos : Per-memo handholding skill — walks each\npending memo via user dialogue with four\ndispositions. The handholding principle\nis load-bearing: users do not manually\ninvoke propose-changes for spec-bound memos;\nprocess-memos drives them through the\nappropriate downstream skill.

note bottom of AgentKnowledge : Long-term agent knowledge that doesn't fit\nas a spec requirement or as inline code.\nForm is implementation-dependent: file-based\nrealizations use harness instruction files\n(AGENTS.md / CLAUDE.md / .ai/<topic>.md);\nother plugins may use a long-lived memory\nstore the agent queries at relevant points.

@enduml

PlantUML version 1.2020.02(Sun Mar 01 11:22:07 CET 2020)
(GPL source distribution)
Java Runtime: OpenJDK Runtime Environment
JVM: OpenJDK 64-Bit Server VM
Java Version: 21.0.10+7-Ubuntu-125.10
Operating System: Linux
Default Encoding: UTF-8
Language: en
Country: null
--></g></svg>