<?xml version="1.0" encoding="UTF-8" standalone="no"?><svg xmlns="http://www.w3.org/2000/svg" xmlns:xlink="http://www.w3.org/1999/xlink" contentScriptType="application/ecmascript" contentStyleType="text/css" height="853px" preserveAspectRatio="none" style="width:5182px;height:853px;background:#FAFAFA;" version="1.1" viewBox="0 0 5182 853" width="5182px" zoomAndPan="magnify"><defs/><g><text fill="#000000" font-family="Helvetica" font-size="18" lengthAdjust="spacingAndGlyphs" textLength="266" x="2461.5" y="16.708">Multi-Repo Plugin Distribution</text><!--MD5=[2069c3c37ceb3264e7f2523a96eccf30]
cluster Plugin source repos (each a separate GitHub repo)--><polygon fill="#FAFAFA" points="342,459.9531,751,459.9531,758,482.25,2752,482.25,2752,841.9531,342,841.9531,342,459.9531" style="stroke: #000000; stroke-width: 1.5;"/><line style="stroke: #000000; stroke-width: 1.5;" x1="342" x2="758" y1="482.25" y2="482.25"/><text fill="#000000" font-family="Helvetica" font-size="14" font-weight="bold" lengthAdjust="spacingAndGlyphs" textLength="403" x="346" y="474.9482">Plugin source repos (each a separate GitHub repo)</text><!--MD5=[2c2e2644034c00788261e03c85b06837]
cluster Core--><rect fill="#FFFFE0" height="299" style="stroke: #111111; stroke-width: 1.5;" width="507" x="374" y="510.9531"/><text fill="#111111" font-family="Helvetica" font-size="14" font-weight="bold" lengthAdjust="spacingAndGlyphs" textLength="107" x="574" y="525.9482">livespec-core</text><!--MD5=[fed2c73ef599cdf2d2644d10704db68a]
cluster ImplPlain--><rect fill="#FFFFE0" height="168" style="stroke: #111111; stroke-width: 1.5;" width="502" x="921" y="568.4531"/><text fill="#111111" font-family="Helvetica" font-size="14" font-weight="bold" lengthAdjust="spacingAndGlyphs" textLength="177" x="1083.5" y="583.4482">livespec-impl-plaintext</text><text fill="#111111" font-family="Helvetica" font-size="14" font-weight="bold" lengthAdjust="spacingAndGlyphs" textLength="244" x="1050" y="599.7451">(IMMEDIATE FOCUS — dogfood)</text><!--MD5=[63ea166f98976442471960c54e405d98]
cluster ImplBeads--><rect fill="#FFFFE0" height="152" style="stroke: #111111; stroke-width: 1.0; stroke-dasharray: 7.0,7.0;" width="438" x="2040" y="559.9531"/><text fill="#111111" font-family="Helvetica" font-size="14" font-weight="bold" lengthAdjust="spacingAndGlyphs" textLength="157" x="2180.5" y="574.9482">livespec-impl-beads</text><text fill="#111111" font-family="Helvetica" font-size="14" font-weight="bold" lengthAdjust="spacingAndGlyphs" textLength="218" x="2150" y="591.2451">(DEFERRED — adopters with</text><text fill="#111111" font-family="Helvetica" font-size="14" font-weight="bold" lengthAdjust="spacingAndGlyphs" textLength="226" x="2146" y="607.542">concurrent multi-contributor</text><text fill="#111111" font-family="Helvetica" font-size="14" font-weight="bold" lengthAdjust="spacingAndGlyphs" textLength="57" x="2230.5" y="623.8389">profile)</text><!--MD5=[49b0fd6526d1033747c7ba520cfe12b9]
cluster ImplGitLab--><rect fill="#FFFFE0" height="136" style="stroke: #111111; stroke-width: 1.0; stroke-dasharray: 7.0,7.0;" width="537" x="1463" y="584.4531"/><text fill="#111111" font-family="Helvetica" font-size="14" font-weight="bold" lengthAdjust="spacingAndGlyphs" textLength="152" x="1655.5" y="599.4482">livespec-impl-gitlab</text><text fill="#111111" font-family="Helvetica" font-size="14" font-weight="bold" lengthAdjust="spacingAndGlyphs" textLength="61" x="1701" y="615.7451">(future)</text><!--MD5=[7a5f6013d50c9a6ad0eda64e71b40eca]
cluster ConsumerRepo--><rect fill="#FFFFFF" height="177" style="stroke: #111111; stroke-width: 1.5;" width="1330" x="321" y="210.9531"/><text fill="#111111" font-family="Helvetica" font-size="14" font-weight="bold" lengthAdjust="spacingAndGlyphs" textLength="142" x="915" y="225.9482">Consumer project</text><text fill="#111111" font-family="Helvetica" font-size="14" font-weight="bold" lengthAdjust="spacingAndGlyphs" textLength="82" x="945" y="242.2451">repository</text><!--MD5=[2e33a83c78490f4dc71b45219c2c70ae]
entity ImplOthers--><rect fill="#FFFFE0" height="68.8906" style="stroke: #111111; stroke-width: 1.0; stroke-dasharray: 7.0,7.0;" width="234" x="2502" y="635.4531"/><text fill="#111111" font-family="Helvetica" font-size="14" lengthAdjust="spacingAndGlyphs" textLength="146" x="2512" y="658.4482">livespec-impl-gascity,</text><text fill="#111111" font-family="Helvetica" font-size="14" lengthAdjust="spacingAndGlyphs" textLength="214" x="2512" y="674.7451">livespec-impl-darkfactory-kilroy,</text><text fill="#111111" font-family="Helvetica" font-size="14" lengthAdjust="spacingAndGlyphs" textLength="67" x="2512" y="691.042">... (future)</text><!--MD5=[9e12e1558ae8477273c0bd40fdbde7fa]
entity CoreSkills--><rect fill="#D6E6F5" height="22.2969" style="stroke: #1F4768; stroke-width: 1.5;" width="153" x="703.5" y="658.9531"/><text fill="#111111" font-family="Helvetica" font-size="14" lengthAdjust="spacingAndGlyphs" textLength="133" x="713.5" y="674.9482">/livespec:* skills (8)</text><!--MD5=[a8d31c1093619714d95f04583c71f074]
entity CoreContract--><rect fill="#E6E6FA" height="231.8594" style="stroke: #111111; stroke-width: 1.5;" width="251" x="417.5" y="553.9531"/><text fill="#111111" font-family="Helvetica" font-size="14" lengthAdjust="spacingAndGlyphs" textLength="72" x="427.5" y="576.9482">publishes:</text><text fill="#111111" font-family="Helvetica" font-size="14" lengthAdjust="spacingAndGlyphs" textLength="228" x="427.5" y="593.2451">• SPECIFICATION/ shape contract</text><text fill="#111111" font-family="Helvetica" font-size="14" lengthAdjust="spacingAndGlyphs" textLength="207" x="427.5" y="609.542">• .livespec.jsonc core schema</text><text fill="#111111" font-family="Helvetica" font-size="14" lengthAdjust="spacingAndGlyphs" textLength="207" x="427.5" y="625.8389">• impl-plugin contract (9 skills,</text><text fill="#111111" font-family="Helvetica" font-size="14" lengthAdjust="spacingAndGlyphs" textLength="231" x="427.5" y="642.1357">6 heavyweight + 3 thin-transport)</text><text fill="#111111" font-family="Helvetica" font-size="14" lengthAdjust="spacingAndGlyphs" textLength="181" x="427.5" y="658.4326">• Spec Reader API surface</text><text fill="#111111" font-family="Helvetica" font-size="14" lengthAdjust="spacingAndGlyphs" textLength="208" x="427.5" y="674.7295">• Persistent Agent Knowledge</text><text fill="#111111" font-family="Helvetica" font-size="14" lengthAdjust="spacingAndGlyphs" textLength="178" x="427.5" y="691.0264">conventions for file-based</text><text fill="#111111" font-family="Helvetica" font-size="14" lengthAdjust="spacingAndGlyphs" textLength="78" x="427.5" y="707.3232">realizations</text><text fill="#111111" font-family="Helvetica" font-size="14" lengthAdjust="spacingAndGlyphs" textLength="166" x="427.5" y="723.6201">• templates/impl-plugin/</text><text fill="#111111" font-family="Helvetica" font-size="14" lengthAdjust="spacingAndGlyphs" textLength="205" x="427.5" y="739.917">(copier scaffold for new impls)</text><text fill="#111111" font-family="Helvetica" font-size="14" lengthAdjust="spacingAndGlyphs" textLength="188" x="427.5" y="756.2139">• pin-and-bump cross-repo</text><text fill="#111111" font-family="Helvetica" font-size="14" lengthAdjust="spacingAndGlyphs" textLength="170" x="427.5" y="772.5107">coordination mechanism</text><!--MD5=[74d4a1abaf4cce97fc5a9cd960b221c0]
entity PlainSkills--><rect fill="#D6E6F5" height="38.5938" style="stroke: #1F4768; stroke-width: 1.5;" width="189" x="1209.5" y="650.4531"/><text fill="#111111" font-family="Helvetica" font-size="14" lengthAdjust="spacingAndGlyphs" textLength="169" x="1219.5" y="666.4482">/livespec-impl-plaintext:*</text><text fill="#111111" font-family="Helvetica" font-size="14" lengthAdjust="spacingAndGlyphs" textLength="56" x="1219.5" y="682.7451">skills (9)</text><!--MD5=[8ac0560bebd63ab545fd7fa16aa95bd0]
entity PlainBackend--><rect fill="#FFFFFF" height="85.1875" style="stroke: #111111; stroke-width: 1.0; stroke-dasharray: 7.0,7.0;" width="210" x="964" y="627.4531"/><text fill="#111111" font-family="Helvetica" font-size="14" lengthAdjust="spacingAndGlyphs" textLength="162" x="974" y="650.4482">JSONL / md / html / yaml</text><text fill="#111111" font-family="Helvetica" font-size="14" lengthAdjust="spacingAndGlyphs" textLength="60" x="974" y="666.7451">backend</text><text fill="#111111" font-family="Helvetica" font-size="14" lengthAdjust="spacingAndGlyphs" textLength="161" x="974" y="683.042">+ livespec.compat.json</text><text fill="#111111" font-family="Helvetica" font-size="14" lengthAdjust="spacingAndGlyphs" textLength="190" x="974" y="699.3389">(pins livespec-core release)</text><!--MD5=[ef9c57600f183559f3200d62b479cfc0]
entity BeadsSkills--><rect fill="#D6E6F5" height="22.2969" style="stroke: #1F4768; stroke-width: 1.5;" width="211" x="2242.5" y="658.9531"/><text fill="#111111" font-family="Helvetica" font-size="14" lengthAdjust="spacingAndGlyphs" textLength="191" x="2252.5" y="674.9482">/livespec-impl-beads:* skills</text><!--MD5=[ec3bfb71bbae807f19195b3009473243]
entity BeadsBackend--><rect fill="#FFFFFF" height="36.2969" style="stroke: #111111; stroke-width: 1.0; stroke-dasharray: 7.0,7.0;" width="124" x="2083" y="651.9531"/><text fill="#111111" font-family="Helvetica" font-size="14" lengthAdjust="spacingAndGlyphs" textLength="104" x="2093" y="674.9482">wraps bd / Dolt</text><!--MD5=[d7aaa957dc56d5cf0dc9460315633c2b]
entity GitLabSkills--><rect fill="#D6E6F5" height="22.2969" style="stroke: #1F4768; stroke-width: 1.5;" width="205" x="1771.5" y="658.9531"/><text fill="#111111" font-family="Helvetica" font-size="14" lengthAdjust="spacingAndGlyphs" textLength="185" x="1781.5" y="674.9482">/livespec-impl-gitlab:* skills</text><!--MD5=[1161b6aa87db580b4d4935ce805755bc]
entity GitLabBackend--><rect fill="#FFFFFF" height="52.5938" style="stroke: #111111; stroke-width: 1.0; stroke-dasharray: 7.0,7.0;" width="230" x="1506" y="643.4531"/><text fill="#111111" font-family="Helvetica" font-size="14" lengthAdjust="spacingAndGlyphs" textLength="113" x="1516" y="666.4482">wraps GitLab API</text><text fill="#111111" font-family="Helvetica" font-size="14" lengthAdjust="spacingAndGlyphs" textLength="210" x="1516" y="682.7451">(creds outside .livespec.jsonc)</text><!--MD5=[bc0454f76c761067c150a9682bc71416]
entity InstallCore--><rect fill="#D6E6F5" height="38.5938" style="stroke: #1F4768; stroke-width: 1.5;" width="138" x="1326" y="297.4531"/><text fill="#111111" font-family="Helvetica" font-size="14" lengthAdjust="spacingAndGlyphs" textLength="90" x="1336" y="313.4482">/plugin install</text><text fill="#111111" font-family="Helvetica" font-size="14" lengthAdjust="spacingAndGlyphs" textLength="118" x="1336" y="329.7451">livespec-core@...</text><!--MD5=[afafe76ced0885c749fa5b1e4044528b]
entity InstallImpl--><rect fill="#D6E6F5" height="38.5938" style="stroke: #1F4768; stroke-width: 1.5;" width="210" x="836" y="297.4531"/><text fill="#111111" font-family="Helvetica" font-size="14" lengthAdjust="spacingAndGlyphs" textLength="90" x="846" y="313.4482">/plugin install</text><text fill="#111111" font-family="Helvetica" font-size="14" lengthAdjust="spacingAndGlyphs" textLength="190" x="846" y="329.7451">livespec-impl-&lt;choice&gt;@...</text><!--MD5=[14cc08b5bd5ffdd7fb342e051ac2c09c]
entity LoopSkill--><rect fill="#D6E6F5" height="54.8906" style="stroke: #1F4768; stroke-width: 1.5;" width="209" x="1081.5" y="289.4531"/><text fill="#111111" font-family="Helvetica" font-size="14" lengthAdjust="spacingAndGlyphs" textLength="189" x="1091.5" y="305.4482">.claude/skills/loop/SKILL.md</text><text fill="#111111" font-family="Helvetica" font-size="14" lengthAdjust="spacingAndGlyphs" textLength="142" x="1091.5" y="321.7451">(project-local Layer 3</text><text fill="#111111" font-family="Helvetica" font-size="14" lengthAdjust="spacingAndGlyphs" textLength="139" x="1091.5" y="338.042">orchestration driver)</text><!--MD5=[2c8113cc364a23b9ee674e814acb7abf]
entity Config--><path d="M615,279.9531 C615,269.9531 708,269.9531 708,269.9531 C708,269.9531 801,269.9531 801,279.9531 L801,354.1406 C801,364.1406 708,364.1406 708,364.1406 C708,364.1406 615,364.1406 615,354.1406 L615,279.9531 " fill="#F5EAD5" style="stroke: #5A4319; stroke-width: 1.5;"/><path d="M615,279.9531 C615,289.9531 708,289.9531 708,289.9531 C708,289.9531 801,289.9531 801,279.9531 " fill="none" style="stroke: #5A4319; stroke-width: 1.5;"/><text fill="#111111" font-family="Helvetica" font-size="14" lengthAdjust="spacingAndGlyphs" textLength="81" x="625" y="306.9482">consumer's</text><text fill="#111111" font-family="Helvetica" font-size="14" lengthAdjust="spacingAndGlyphs" textLength="101" x="625" y="323.2451">.livespec.jsonc</text><text fill="#111111" font-family="Helvetica" font-size="14" lengthAdjust="spacingAndGlyphs" textLength="166" x="625" y="339.542">(+ livespec.compat.json</text><text fill="#111111" font-family="Helvetica" font-size="14" lengthAdjust="spacingAndGlyphs" textLength="146" x="625" y="355.8389">pinning core release)</text><!--MD5=[97aa225eff20683e21779a77bedb79b4]
entity SpecTree--><path d="M1499,295.9531 C1499,285.9531 1563,285.9531 1563,285.9531 C1563,285.9531 1627,285.9531 1627,295.9531 L1627,337.5469 C1627,347.5469 1563,347.5469 1563,347.5469 C1563,347.5469 1499,347.5469 1499,337.5469 L1499,295.9531 " fill="#F5D76E" style="stroke: #5A4319; stroke-width: 1.5;"/><path d="M1499,295.9531 C1499,305.9531 1563,305.9531 1563,305.9531 C1563,305.9531 1627,305.9531 1627,295.9531 " fill="none" style="stroke: #5A4319; stroke-width: 1.5;"/><text fill="#111111" font-family="Helvetica" font-size="14" lengthAdjust="spacingAndGlyphs" textLength="81" x="1509" y="322.9482">consumer's</text><text fill="#111111" font-family="Helvetica" font-size="14" lengthAdjust="spacingAndGlyphs" textLength="108" x="1509" y="339.2451">SPECIFICATION/</text><!--MD5=[cd20a034834c6e5d1841e96140da69e2]
entity AgentKnowledge--><path d="M364,279.9531 C364,269.9531 472,269.9531 472,269.9531 C472,269.9531 580,269.9531 580,279.9531 L580,354.1406 C580,364.1406 472,364.1406 472,364.1406 C472,364.1406 364,364.1406 364,354.1406 L364,279.9531 " fill="#F5D76E" style="stroke: #5A4319; stroke-width: 1.5;"/><path d="M364,279.9531 C364,289.9531 472,289.9531 472,289.9531 C472,289.9531 580,289.9531 580,279.9531 " fill="none" style="stroke: #5A4319; stroke-width: 1.5;"/><text fill="#111111" font-family="Helvetica" font-size="14" lengthAdjust="spacingAndGlyphs" textLength="81" x="374" y="306.9482">consumer's</text><text fill="#111111" font-family="Helvetica" font-size="14" lengthAdjust="spacingAndGlyphs" textLength="196" x="374" y="323.2451">Persistent Agent Knowledge</text><text fill="#111111" font-family="Helvetica" font-size="14" lengthAdjust="spacingAndGlyphs" textLength="173" x="374" y="339.542">(harness instruction files,</text><text fill="#111111" font-family="Helvetica" font-size="14" lengthAdjust="spacingAndGlyphs" textLength="191" x="374" y="355.8389">long-lived memory store, ...)</text><!--MD5=[b37611e18c6480adc8bd036fe8a5d03e]
entity Shared--><rect fill="#E6E6FA" height="117.7813" style="stroke: #111111; stroke-width: 1.5;" width="321" x="1675.5" y="257.9531"/><text fill="#111111" font-family="Helvetica" font-size="14" lengthAdjust="spacingAndGlyphs" textLength="106" x="1685.5" y="280.9482">shared content</text><text fill="#111111" font-family="Helvetica" font-size="14" lengthAdjust="spacingAndGlyphs" textLength="206" x="1685.5" y="297.2451">(non-functional-requirements,</text><text fill="#111111" font-family="Helvetica" font-size="14" lengthAdjust="spacingAndGlyphs" textLength="183" x="1685.5" y="313.542">CI conventions, TDD rules,</text><text fill="#111111" font-family="Helvetica" font-size="14" lengthAdjust="spacingAndGlyphs" textLength="167" x="1685.5" y="329.8389">lefthook, justfile recipes,</text><text fill="#111111" font-family="Helvetica" font-size="14" lengthAdjust="spacingAndGlyphs" textLength="113" x="1685.5" y="346.1357">starter loop skill)</text><text fill="#111111" font-family="Helvetica" font-size="14" lengthAdjust="spacingAndGlyphs" textLength="301" x="1685.5" y="362.4326">lives in livespec-core/templates/impl-plugin/</text><path d="M3173.5,657.4531 L3173.5,682.5859 L5170.5,682.5859 L5170.5,667.4531 L5160.5,657.4531 L3173.5,657.4531 " fill="#FBFB77" style="stroke: #A80036; stroke-width: 1.0;"/><path d="M5160.5,657.4531 L5160.5,667.4531 L5170.5,667.4531 L5160.5,657.4531 " fill="#FBFB77" style="stroke: #A80036; stroke-width: 1.0;"/><text fill="#000000" font-family="Helvetica" font-size="13" lengthAdjust="spacingAndGlyphs" textLength="1976" x="3179.5" y="674.52">Sync via `copier`. Each impl-plugin repo is generated from this template via `copier copy` and re-syncs via `copier update`. `.copier-answers.yml` per repo tracks template version. CI runs `copier update --dry-run` for drift detection (.claude/skills/loop/SKILL.md excluded — local divergence is expected there).</text><!--MD5=[4d65782647d64e21a92b473b2db819be]
entity Consumer--><ellipse cx="1167" cy="38.4531" fill="#FFFFFF" rx="8" ry="8" style="stroke: #111111; stroke-width: 1.5;"/><path d="M1167,46.4531 L1167,73.4531 M1154,54.4531 L1180,54.4531 M1167,73.4531 L1154,88.4531 M1167,73.4531 L1180,88.4531 " fill="none" style="stroke: #111111; stroke-width: 1.5;"/><text fill="#111111" font-family="Helvetica" font-size="14" lengthAdjust="spacingAndGlyphs" textLength="72" x="1131" y="103.9482">Consumer</text><text fill="#111111" font-family="Helvetica" font-size="14" lengthAdjust="spacingAndGlyphs" textLength="48" x="1131" y="120.2451">project</text><text fill="#111111" font-family="Helvetica" font-size="14" lengthAdjust="spacingAndGlyphs" textLength="72" x="1131" y="136.542">maintainer</text><path d="M2771.5,634.4531 L2771.5,704.9844 L3138.5,704.9844 L3138.5,644.4531 L3128.5,634.4531 L2771.5,634.4531 " fill="#FBFB77" style="stroke: #A80036; stroke-width: 1.0;"/><path d="M3128.5,634.4531 L3128.5,644.4531 L3138.5,644.4531 L3128.5,634.4531 " fill="#FBFB77" style="stroke: #A80036; stroke-width: 1.0;"/><text fill="#000000" font-family="Helvetica" font-size="13" lengthAdjust="spacingAndGlyphs" textLength="282" x="2777.5" y="651.52">LiveSpec Core is one peer among N plugins.</text><text fill="#000000" font-family="Helvetica" font-size="13" lengthAdjust="spacingAndGlyphs" textLength="298" x="2777.5" y="666.6528">It's not privileged in the marketplace structure;</text><text fill="#000000" font-family="Helvetica" font-size="13" lengthAdjust="spacingAndGlyphs" textLength="334" x="2777.5" y="681.7856">it governs the SPECIFICATION/ surface and publishes</text><text fill="#000000" font-family="Helvetica" font-size="13" lengthAdjust="spacingAndGlyphs" textLength="346" x="2777.5" y="696.9185">the contract that every implementation plugin honors.</text><path d="M2031.5,281.4531 L2031.5,351.9844 L2334.5,351.9844 L2334.5,291.4531 L2324.5,281.4531 L2031.5,281.4531 " fill="#FBFB77" style="stroke: #A80036; stroke-width: 1.0;"/><path d="M2324.5,281.4531 L2324.5,291.4531 L2334.5,291.4531 L2324.5,281.4531 " fill="#FBFB77" style="stroke: #A80036; stroke-width: 1.0;"/><text fill="#000000" font-family="Helvetica" font-size="13" lengthAdjust="spacingAndGlyphs" textLength="282" x="2037.5" y="298.52">Consumer project installs ONE livespec-core</text><text fill="#000000" font-family="Helvetica" font-size="13" lengthAdjust="spacingAndGlyphs" textLength="262" x="2037.5" y="313.6528">plus EXACTLY ONE livespec-impl-* plugin.</text><text fill="#000000" font-family="Helvetica" font-size="13" lengthAdjust="spacingAndGlyphs" textLength="264" x="2037.5" y="328.7856">The choice is recorded in .livespec.jsonc's</text><text fill="#000000" font-family="Helvetica" font-size="13" lengthAdjust="spacingAndGlyphs" textLength="187" x="2037.5" y="343.9185">`implementation.plugin` key.</text><path d="M6,611.9531 L6,727.8828 L326,727.8828 L326,621.9531 L316,611.9531 L6,611.9531 " fill="#FBFB77" style="stroke: #A80036; stroke-width: 1.0;"/><path d="M316,611.9531 L316,621.9531 L326,621.9531 L316,611.9531 " fill="#FBFB77" style="stroke: #A80036; stroke-width: 1.0;"/><text fill="#000000" font-family="Helvetica" font-size="13" lengthAdjust="spacingAndGlyphs" textLength="299" x="12" y="629.02">Persistent Agent Knowledge is one of the three</text><text fill="#000000" font-family="Helvetica" font-size="13" lengthAdjust="spacingAndGlyphs" textLength="266" x="12" y="644.1528">stores (alongside SPECIFICATION/ and the</text><text fill="#000000" font-family="Helvetica" font-size="13" lengthAdjust="spacingAndGlyphs" textLength="215" x="12" y="659.2856">realized Implementation). Form is</text><text fill="#000000" font-family="Helvetica" font-size="13" lengthAdjust="spacingAndGlyphs" textLength="258" x="12" y="674.4185">plugin-dependent: file-based plugins use</text><text fill="#000000" font-family="Helvetica" font-size="13" lengthAdjust="spacingAndGlyphs" textLength="246" x="12" y="689.5513">harness instruction files (AGENTS.md /</text><text fill="#000000" font-family="Helvetica" font-size="13" lengthAdjust="spacingAndGlyphs" textLength="283" x="12" y="704.6841">CLAUDE.md / .ai/&lt;topic&gt;.md); other plugins</text><text fill="#000000" font-family="Helvetica" font-size="13" lengthAdjust="spacingAndGlyphs" textLength="231" x="12" y="719.8169">may use a long-lived memory store.</text><!--MD5=[cc1018e2d381d2462d5e27da1044b733]
link Shared to GMN203--><path d="M1937.19,376.1131 C1961.6,387.5031 1988.12,397.8031 2014,403.9531 C2066.98,416.5331 2449.59,409.8431 2504,411.9531 C2794.1,423.2131 2868.35,412.6331 3156,451.9531 C3537.98,504.1631 3990.4,620.4731 4129.33,657.4431 " fill="none" id="Shared-GMN203" style="stroke: #000000; stroke-width: 1.0; stroke-dasharray: 7.0,7.0;"/><!--MD5=[8c7ccda94f09c6f7eea580de4e5aebe1]
link Consumer to InstallCore--><path d="M1203.21,109.2131 C1233.16,129.8531 1275.85,161.5931 1308,194.9531 C1337.7,225.7731 1365.35,267.2931 1381.19,292.8031 " fill="none" id="Consumer-&gt;InstallCore" style="stroke: #000000; stroke-width: 1.0;"/><polygon fill="#000000" points="1383.82,297.0731,1382.4952,287.3138,1381.1931,292.8188,1375.6882,291.5168,1383.82,297.0731" style="stroke: #000000; stroke-width: 1.0;"/><text fill="#000000" font-family="Helvetica" font-size="13" lengthAdjust="spacingAndGlyphs" textLength="79" x="1298" y="183.02">installs once</text><!--MD5=[18e91932285c1df302c512d85c5a7683]
link Consumer to InstallImpl--><path d="M1130.94,122.2331 C1083.61,170.5031 1002,253.7331 963,293.5131 " fill="none" id="Consumer-&gt;InstallImpl" style="stroke: #000000; stroke-width: 1.0;"/><polygon fill="#000000" points="959.36,297.2231,968.5162,293.5949,962.8596,293.6521,962.8025,287.9955,959.36,297.2231" style="stroke: #000000; stroke-width: 1.0;"/><text fill="#000000" font-family="Helvetica" font-size="13" lengthAdjust="spacingAndGlyphs" textLength="95" x="1081" y="183.02">picks ONE impl</text><!--MD5=[716fea8ee3a283adec0cd226654f5bb8]
link InstallCore to Core--><path d="M1382.9,336.5931 C1368.11,357.4931 1340.94,390.2431 1308,403.9531 C1263.68,422.4031 488.59,394.1831 444,411.9531 C440.97,413.1631 402.43,449.0231 401,451.9531 C395.7713,462.6569 391.5416,474.012 388.1442,485.6962 C386.4456,491.5383 384.955,497.4627 383.6517,503.429 C383.3259,504.9206 383.0117,506.4148 382.709,507.911 C382.5576,508.6591 382.4091,509.4077 382.2634,510.1567 " fill="none" id="InstallCore-&gt;Core" style="stroke: #000000; stroke-width: 1.0; stroke-dasharray: 7.0,7.0;"/><polygon fill="#000000" points="382.2634,510.1567,387.9085,502.0863,383.2182,505.2487,380.0558,500.5585,382.2634,510.1567" style="stroke: #000000; stroke-width: 1.0;"/><text fill="#000000" font-family="Helvetica" font-size="13" lengthAdjust="spacingAndGlyphs" textLength="121" x="445" y="432.52">marketplace install</text><!--MD5=[fb0bc230ed615eea325661de5750c971]
link InstallImpl to ImplPlain--><path d="M974.2,336.5331 C1015.12,361.6831 1075.38,407.6131 1042,443.9531 C1027.82,459.3931 962.84,437.1431 948,451.9531 C914.265,485.6081 909.135,538.7031 912.6238,583.9481 C913.4959,595.2594 914.9068,606.08 916.544,615.9836 C917.3627,620.9354 918.2379,625.6579 919.1307,630.0979 C919.5771,632.3179 920.0278,634.4673 920.4781,636.5393 C920.5907,637.0573 920.7032,637.5705 920.8157,638.0787 C920.8719,638.3329 920.9281,638.5857 920.9842,638.8374 " fill="none" id="InstallImpl-&gt;ImplPlain" style="stroke: #000000; stroke-width: 1.0; stroke-dasharray: 7.0,7.0;"/><polygon fill="#000000" points="920.9842,638.8374,922.928,629.1823,919.8953,633.9574,915.1201,630.9246,920.9842,638.8374" style="stroke: #000000; stroke-width: 1.0;"/><text fill="#000000" font-family="Helvetica" font-size="13" lengthAdjust="spacingAndGlyphs" textLength="18" x="1052" y="432.52">OR</text><!--MD5=[78fe76fc0f72bb67e925f3caaff01846]
link InstallImpl to ImplBeads--><path d="M959.84,336.6931 C982.38,357.6831 1022.34,390.5231 1064,403.9531 C1095.89,414.2331 1633.57,409.6831 1667,411.9531 C1669.27,412.1031 1990.29,450.4531 1992,451.9531 C2010.4225,468.1231 2023.1694,489.4763 2031.9183,512.4822 C2036.2927,523.9852 2039.6677,535.9013 2042.2529,547.7894 C2042.8992,550.7614 2043.4961,553.7317 2044.0469,556.6933 C2044.1847,557.4337 2044.3195,558.1736 2044.4515,558.9128 " fill="none" id="InstallImpl-&gt;ImplBeads" style="stroke: #000000; stroke-width: 1.0; stroke-dasharray: 7.0,7.0;"/><polygon fill="#000000" points="2044.4515,558.9128,2046.8071,549.3498,2043.5725,553.9907,2038.9317,550.7561,2044.4515,558.9128" style="stroke: #000000; stroke-width: 1.0;"/><text fill="#000000" font-family="Helvetica" font-size="13" lengthAdjust="spacingAndGlyphs" textLength="18" x="1930" y="432.52">OR</text><!--MD5=[8e2097967dacaaad34f67c5c4e98327d]
link InstallImpl to ImplGitLab--><path d="M959.87,336.6031 C982.44,357.5231 1022.41,390.2831 1064,403.9531 C1097.89,415.0931 1353.29,395.6031 1385,411.9531 C1437.69,439.1231 1459.3475,501.8056 1467.755,558.4606 C1468.8059,565.5425 1469.6498,572.5302 1470.3215,579.3426 C1470.4894,581.0457 1470.6465,582.7378 1470.7934,584.4177 " fill="none" id="InstallImpl-&gt;ImplGitLab" style="stroke: #000000; stroke-width: 1.0; stroke-dasharray: 7.0,7.0;"/><polygon fill="#000000" points="1470.7934,584.4177,1473.9941,575.1035,1470.3578,579.4367,1466.0246,575.8004,1470.7934,584.4177" style="stroke: #000000; stroke-width: 1.0;"/><text fill="#000000" font-family="Helvetica" font-size="13" lengthAdjust="spacingAndGlyphs" textLength="18" x="1423" y="432.52">OR</text><!--MD5=[a7ab84ecfed5f06fcfdd644cc63ec06d]
link InstallImpl to ImplOthers--><path d="M959.83,336.7231 C982.36,357.7531 1022.31,390.6231 1064,403.9531 C1112.37,419.4131 1928.71,399.7531 1978,411.9531 C2008.1,419.4031 2009.94,436.3531 2040,443.9531 C2063.16,449.8031 2448.96,440.6231 2470,451.9531 C2541.14,490.2531 2585.09,579.1531 2605.47,630.4931 " fill="none" id="InstallImpl-&gt;ImplOthers" style="stroke: #000000; stroke-width: 1.0; stroke-dasharray: 7.0,7.0;"/><polygon fill="#000000" points="2607.37,635.3331,2607.804,625.4938,2605.5426,630.679,2600.3574,628.4176,2607.37,635.3331" style="stroke: #000000; stroke-width: 1.0;"/><!--MD5=[e5211120e6c56b45eb86bfd90c541346]
link Shared to Core--><path d="M1726.38,376.0331 C1699.8,387.5031 1670.96,397.8631 1643,403.9531 C1597.83,413.7831 853.62,394.0631 811,411.9531 C792.45,419.7431 797.5,436.0631 779,443.9531 C759.68,452.1931 416.34,437.6031 401,451.9531 C366.21,484.5131 361.0625,537.5906 364.8063,583.1006 C365.7422,594.4781 367.2338,605.3827 368.9569,615.3754 C369.8185,620.3718 370.7379,625.1402 371.6747,629.6258 C372.143,631.8686 372.6158,634.0407 373.0877,636.1353 C373.3237,637.1825 373.5595,638.2104 373.7945,639.2181 C373.8533,639.47 373.912,639.7206 373.9706,639.97 " fill="none" id="Shared-&gt;Core" style="stroke: #000000; stroke-width: 1.0; stroke-dasharray: 7.0,7.0;"/><polygon fill="#000000" points="373.9706,639.97,375.8043,630.2933,372.8261,635.1027,368.0167,632.1245,373.9706,639.97" style="stroke: #000000; stroke-width: 1.0;"/><text fill="#000000" font-family="Helvetica" font-size="13" lengthAdjust="spacingAndGlyphs" textLength="45" x="812" y="432.52">synced</text><!--MD5=[3c79f14057fb266bc58d5d39f50772b7]
link Shared to ImplPlain--><path d="M1725.54,376.0431 C1699.17,387.3931 1670.64,397.7031 1643,403.9531 C1609.07,411.6231 1362.6,399.8131 1330,411.9531 C1308.99,419.7731 1312.02,436.1531 1291,443.9531 C1273.13,450.5831 961.9,438.9131 948,451.9531 C913.245,484.5531 908.1,537.6306 911.8363,583.1306 C912.7703,594.5056 914.2595,605.407 915.9798,615.3965 C916.84,620.3912 917.7579,625.1579 918.6932,629.6419 C919.1608,631.8839 919.6328,634.0552 920.104,636.1489 C920.3396,637.1958 920.5751,638.2233 920.8097,639.2305 C920.8684,639.4823 920.927,639.7328 920.9855,639.9821 " fill="none" id="Shared-&gt;ImplPlain" style="stroke: #000000; stroke-width: 1.0; stroke-dasharray: 7.0,7.0;"/><polygon fill="#000000" points="920.9855,639.9821,922.8218,630.306,919.8423,635.1146,915.0337,632.1351,920.9855,639.9821" style="stroke: #000000; stroke-width: 1.0;"/><text fill="#000000" font-family="Helvetica" font-size="13" lengthAdjust="spacingAndGlyphs" textLength="45" x="1331" y="432.52">synced</text><!--MD5=[f62fb5c5fa4319f90721d6baca769119]
link Shared to ImplBeads--><path d="M1922.23,376.1231 C1947.97,397.2831 1974.07,423.1631 1992,451.9531 C2017.91,493.5731 2031.88,546.7906 2039.3875,590.1069 C2039.5048,590.7837 2039.6205,591.4581 2039.7347,592.13 C2039.7918,592.4659 2039.8485,592.8013 2039.9048,593.136 " fill="none" id="Shared-&gt;ImplBeads" style="stroke: #000000; stroke-width: 1.0; stroke-dasharray: 7.0,7.0;"/><polygon fill="#000000" points="2039.9048,593.136,2042.3562,583.597,2039.0752,588.2053,2034.467,584.9243,2039.9048,593.136" style="stroke: #000000; stroke-width: 1.0;"/><text fill="#000000" font-family="Helvetica" font-size="13" lengthAdjust="spacingAndGlyphs" textLength="45" x="1986" y="432.52">synced</text><!--MD5=[aec85ed0499d2e7205d0c1d91bc3ec2e]
link Shared to ImplGitLab--><path d="M1711.25,376.0531 C1688.72,385.8231 1665.3,395.5131 1643,403.9531 C1576.34,429.1631 1534.65,396.4031 1490,451.9531 C1460.145,489.0931 1455.075,542.2406 1457.625,586.6419 C1458.2625,597.7422 1459.3763,608.2959 1460.698,617.9161 C1461.3589,622.7262 1462.0719,627.303 1462.8033,631.5981 C1462.849,631.8665 1462.8947,632.1339 1462.9406,632.4001 " fill="none" id="Shared-&gt;ImplGitLab" style="stroke: #000000; stroke-width: 1.0; stroke-dasharray: 7.0,7.0;"/><polygon fill="#000000" points="1462.9406,632.4001,1465.3551,622.8518,1462.092,627.4726,1457.4712,624.2095,1462.9406,632.4001" style="stroke: #000000; stroke-width: 1.0;"/><text fill="#000000" font-family="Helvetica" font-size="13" lengthAdjust="spacingAndGlyphs" textLength="45" x="1613" y="432.52">synced</text><!--MD5=[d03fdae9ec855cdd90bed47c7b1e58d5]
link Shared to ImplOthers--><path d="M1940.94,376.0031 C1964.4,386.8731 1989.57,396.9931 2014,403.9531 C2209.99,459.7731 2294.9,347.7031 2470,451.9531 C2539.04,493.0531 2583.53,580.0631 2604.63,630.5331 " fill="none" id="Shared-&gt;ImplOthers" style="stroke: #000000; stroke-width: 1.0; stroke-dasharray: 7.0,7.0;"/><polygon fill="#000000" points="2606.6,635.2931,2606.8459,625.4473,2604.684,630.6748,2599.4566,628.5129,2606.6,635.2931" style="stroke: #000000; stroke-width: 1.0;"/><text fill="#000000" font-family="Helvetica" font-size="13" lengthAdjust="spacingAndGlyphs" textLength="45" x="2450" y="432.52">synced</text><!--MD5=[5cb6599f385e35662224029970035d98]
link Core to Config--><path d="M379.4597,510.4443 C379.2329,509.7283 379.0018,509.0139 378.7663,508.3013 C378.2953,506.8762 377.8068,505.4584 377.3002,504.0486 C376.287,501.229 375.2016,498.4419 374.0399,495.6939 C371.7165,490.198 369.0878,484.8591 366.121,479.7321 C360.1873,469.4781 352.9013,460.0719 344,451.9531 C327.86,437.2331 260.81,460.0231 246,443.9531 C236.36,433.4931 236.06,422.1231 246,411.9531 C259.67,397.9631 579.58,410.5331 598,403.9531 C619.97,396.1031 640.96,382.0031 658.61,367.4631 " fill="none" id="Core-&gt;Config" style="stroke: #000000; stroke-width: 1.0; stroke-dasharray: 7.0,7.0;"/><polygon fill="#000000" points="662.55,364.1631,653.0792,366.8658,658.7136,367.3697,658.2097,373.004,662.55,364.1631" style="stroke: #000000; stroke-width: 1.0;"/><text fill="#000000" font-family="Helvetica" font-size="13" lengthAdjust="spacingAndGlyphs" textLength="156" x="247" y="432.52">reads core schema keys</text><!--MD5=[e245818356937bbf3dd3203df3427426]
link ImplPlain to Config--><path d="M929.5388,567.9506 C924.2925,514.2631 908.37,451.3881 866,411.9531 C850.49,397.5131 838.4,412.4731 819,403.9531 C798.35,394.8831 778.13,381.1431 760.73,367.2831 " fill="none" id="ImplPlain-&gt;Config" style="stroke: #000000; stroke-width: 1.0; stroke-dasharray: 7.0,7.0;"/><polygon fill="#000000" points="756.83,364.1431,761.3473,372.8949,760.7302,367.2718,766.3532,366.6547,756.83,364.1431" style="stroke: #000000; stroke-width: 1.0;"/><text fill="#000000" font-family="Helvetica" font-size="13" lengthAdjust="spacingAndGlyphs" textLength="134" x="889" y="425.02">reads its own section</text><text fill="#000000" font-family="Helvetica" font-size="13" lengthAdjust="spacingAndGlyphs" textLength="115" x="898.5" y="440.1528">(only when active)</text><!--MD5=[70e63a78f141e9b6fda057ce672167bb]
link Core to SpecTree--><path d="M373.9395,639.3666 C373.7089,638.3635 373.4774,637.3401 373.2458,636.2975 C372.7825,634.2121 372.3187,632.0494 371.8592,629.8159 C370.9401,625.349 370.0385,620.5995 369.1942,615.6215 C367.5057,605.6655 366.0466,594.7956 365.1363,583.4456 C361.495,538.0456 366.635,484.9631 401,451.9531 C414.64,438.8531 553.49,451.0831 571,443.9531 C590.83,435.8731 587.03,419.6531 607,411.9531 C652.36,394.4731 1437.46,423.4331 1482,403.9531 C1506.28,393.3331 1526.69,371.5231 1540.95,352.5231 " fill="none" id="Core-&gt;SpecTree" style="stroke: #000000; stroke-width: 1.0; stroke-dasharray: 7.0,7.0;"/><polygon fill="#000000" points="1544.08,348.2631,1535.5299,353.1514,1541.1213,352.2938,1541.9789,357.8853,1544.08,348.2631" style="stroke: #000000; stroke-width: 1.0;"/><text fill="#000000" font-family="Helvetica" font-size="13" lengthAdjust="spacingAndGlyphs" textLength="166" x="608" y="432.52">governs (writes via revise)</text><!--MD5=[efca68eac4913d18c5731b0e808b912a]
link ImplPlain to SpecTree--><path d="M920.8483,638.6939 C920.7911,638.4412 920.7339,638.1873 920.6766,637.9321 C920.5622,637.4218 920.4476,636.9065 920.333,636.3864 C919.8745,634.3059 919.4154,632.148 918.9607,629.9195 C918.0512,625.4624 917.1592,620.7227 916.3243,615.7542 C914.6545,605.8173 913.2128,594.9653 912.3163,583.6294 C908.73,538.2856 913.865,485.1981 948,451.9531 C958.45,441.7831 1064.57,446.0331 1079,443.9531 C1142.18,434.8631 1155.69,420.0731 1219,411.9531 C1248,408.2331 1455.34,415.9531 1482,403.9531 C1506.17,393.0731 1526.58,371.2631 1540.86,352.3331 " fill="none" id="ImplPlain-&gt;SpecTree" style="stroke: #000000; stroke-width: 1.0; stroke-dasharray: 7.0,7.0;"/><polygon fill="#000000" points="1544,348.0931,1535.4304,352.9471,1541.0252,352.1119,1541.8605,357.7068,1544,348.0931" style="stroke: #000000; stroke-width: 1.0;"/><text fill="#000000" font-family="Helvetica" font-size="13" lengthAdjust="spacingAndGlyphs" textLength="66" x="1220" y="432.52">reads only</text><!--MD5=[7a9f977bd447660c31c6058a60d80823]
link Core to GMN230--><path d="M373.845,638.0495 C373.7819,637.7607 373.7188,637.4703 373.6556,637.1785 C373.4029,636.011 373.1492,634.8193 372.8953,633.6045 C368.8331,614.1678 364.7188,588.8188 363.6475,562.3319 C361.505,509.3581 371.535,451.8331 418.5,427.9531 C475.85,398.7931 2675.65,401.9631 2734.5,427.9531 C2830.69,470.4431 2903.01,577.9031 2935.72,634.2431 " fill="none" id="Core-GMN230" style="stroke: #000000; stroke-width: 1.0; stroke-dasharray: 7.0,7.0;"/><!--MD5=[169031947fdd63fb0f4a3ea250f85f28]
link ConsumerRepo to GMN233--><path d="M332.2163,210.9527 C332.5336,209.9961 332.8628,209.0455 333.2041,208.1016 C333.8867,206.2138 334.6179,204.3526 335.4005,202.5233 C341.6613,187.8888 351.2125,175.2956 365.5,167.4531 C405.22,145.6531 1953.76,152.4331 1996.5,167.4531 C2060.51,189.9431 2118.83,244.6831 2152.62,281.3131 " fill="none" id="ConsumerRepo-GMN233" style="stroke: #000000; stroke-width: 1.0; stroke-dasharray: 7.0,7.0;"/><!--MD5=[b55c18e6e7a48c319e05adb4d65dd721]
link AgentKnowledge to GMN236--><path d="M425.19,364.0231 C406.45,379.5831 383.69,395.2131 360,403.9531 C343.92,409.8831 218.72,400.4731 206,411.9531 C151.19,461.4131 150.07,552.5231 156.43,611.9131 " fill="none" id="AgentKnowledge-GMN236" style="stroke: #000000; stroke-width: 1.0; stroke-dasharray: 7.0,7.0;"/><!--MD5=[716ec0e646caea392537f31988a44fea]
@startuml multi-repo-layout
title Multi-Repo Plugin Distribution
skinparam defaultFontName Helvetica
skinparam shadowing false
skinparam BackgroundColor #fafafa
skinparam ArrowColor #000000
skinparam ArrowFontColor #000000

skinparam rectangle {
  BorderColor #111
  BackgroundColor white
  FontColor #111
}
skinparam database {
  BackgroundColor #f5ead5
  BorderColor #5a4319
  FontColor #111
}
skinparam card {
  BorderColor #1f4768
  BackgroundColor #d6e6f5
  FontColor #111
}
skinparam actor {
  BorderColor #111
  BackgroundColor white
  FontColor #111
}

package "Plugin source repos (each a separate GitHub repo)" {
  rectangle "livespec-core" as Core #LightYellow {
    card "/livespec:* skills (8)" as CoreSkills
    rectangle "publishes:\n• SPECIFICATION/ shape contract\n• .livespec.jsonc core schema\n• impl-plugin contract (9 skills,\n  6 heavyweight + 3 thin-transport)\n• Spec Reader API surface\n• Persistent Agent Knowledge\n  conventions for file-based\n  realizations\n• templates/impl-plugin/\n  (copier scaffold for new impls)\n• pin-and-bump cross-repo\n  coordination mechanism" as CoreContract #Lavender
  }
  rectangle "livespec-impl-plaintext\n(IMMEDIATE FOCUS — dogfood)" as ImplPlain #LightYellow {
    card "/livespec-impl-plaintext:*\nskills (9)" as PlainSkills
    rectangle "JSONL / md / html / yaml\nbackend\n+ livespec.compat.json\n(pins livespec-core release)" as PlainBackend #FFFFFF;line.dashed
  }
  rectangle "livespec-impl-beads\n(DEFERRED — adopters with\nconcurrent multi-contributor\nprofile)" as ImplBeads #LightYellow;line.dashed {
    card "/livespec-impl-beads:* skills" as BeadsSkills
    rectangle "wraps bd / Dolt" as BeadsBackend #FFFFFF;line.dashed
  }
  rectangle "livespec-impl-gitlab\n(future)" as ImplGitLab #LightYellow;line.dashed {
    card "/livespec-impl-gitlab:* skills" as GitLabSkills
    rectangle "wraps GitLab API\n(creds outside .livespec.jsonc)" as GitLabBackend #FFFFFF;line.dashed
  }
  rectangle "livespec-impl-gascity,\nlivespec-impl-darkfactory-kilroy,\n... (future)" as ImplOthers #LightYellow;line.dashed
}

rectangle "shared content\n(non-functional-requirements,\nCI conventions, TDD rules,\nlefthook, justfile recipes,\nstarter loop skill)\nlives in livespec-core/templates/impl-plugin/" as Shared #Lavender
note bottom of Shared : Sync via `copier`. Each impl-plugin repo is generated from this template via `copier copy` and re-syncs via `copier update`. `.copier-answers.yml` per repo tracks template version. CI runs `copier update - -dry-run` for drift detection (.claude/skills/loop/SKILL.md excluded — local divergence is expected there).

actor "Consumer\nproject\nmaintainer" as Consumer
rectangle "Consumer project\nrepository" as ConsumerRepo {
  card "/plugin install\nlivespec-core@..." as InstallCore
  card "/plugin install\nlivespec-impl-<choice>@..." as InstallImpl
  card ".claude/skills/loop/SKILL.md\n(project-local Layer 3\norchestration driver)" as LoopSkill
  database "consumer's\n.livespec.jsonc\n(+ livespec.compat.json\npinning core release)" as Config
  database "consumer's\nSPECIFICATION/" as SpecTree #f5d76e
  database "consumer's\nPersistent Agent Knowledge\n(harness instruction files,\nlong-lived memory store, ...)" as AgentKnowledge #f5d76e
}

Consumer - -> InstallCore : installs once
Consumer - -> InstallImpl : picks ONE impl
InstallCore ..> Core : marketplace install
InstallImpl ..> ImplPlain : OR
InstallImpl ..> ImplBeads : OR
InstallImpl ..> ImplGitLab : OR
InstallImpl ..> ImplOthers

Shared ..> Core : synced
Shared ..> ImplPlain : synced
Shared ..> ImplBeads : synced
Shared ..> ImplGitLab : synced
Shared ..> ImplOthers : synced

Core ..> Config : reads core schema keys
ImplPlain ..> Config : reads its own section\n(only when active)
Core ..> SpecTree : governs (writes via revise)
ImplPlain ..> SpecTree : reads only

note right of Core : LiveSpec Core is one peer among N plugins.\nIt's not privileged in the marketplace structure;\nit governs the SPECIFICATION/ surface and publishes\nthe contract that every implementation plugin honors.

note right of ConsumerRepo : Consumer project installs ONE livespec-core\nplus EXACTLY ONE livespec-impl-* plugin.\nThe choice is recorded in .livespec.jsonc's\n`implementation.plugin` key.

note bottom of AgentKnowledge : Persistent Agent Knowledge is one of the three\nstores (alongside SPECIFICATION/ and the\nrealized Implementation). Form is\nplugin-dependent: file-based plugins use\nharness instruction files (AGENTS.md /\nCLAUDE.md / .ai/<topic>.md); other plugins\nmay use a long-lived memory store.

@enduml

PlantUML version 1.2020.02(Sun Mar 01 11:22:07 CET 2020)
(GPL source distribution)
Java Runtime: OpenJDK Runtime Environment
JVM: OpenJDK 64-Bit Server VM
Java Version: 21.0.10+7-Ubuntu-125.10
Operating System: Linux
Default Encoding: UTF-8
Language: en
Country: null
--></g></svg>