<?xml version="1.0" encoding="UTF-8" standalone="no"?><svg xmlns="http://www.w3.org/2000/svg" xmlns:xlink="http://www.w3.org/1999/xlink" contentScriptType="application/ecmascript" contentStyleType="text/css" height="1069px" preserveAspectRatio="none" style="width:1118px;height:1069px;background:#FAFAFA;" version="1.1" viewBox="0 0 1118 1069" width="1118px" zoomAndPan="magnify"><defs/><g><text fill="#000000" font-family="Helvetica" font-size="18" lengthAdjust="spacingAndGlyphs" textLength="283" x="421" y="16.708">LiveSpec Core — Spec Lifecycle</text><!--MD5=[781fc4211f0f0711d3811412dad38fe1]
cluster SpecPkg--><polygon fill="#FDE8EC" points="22,112.4531,104,112.4531,111,133.5859,551,133.5859,551,1041.9531,22,1041.9531,22,112.4531" style="stroke: #444444; stroke-width: 1.5;"/><line style="stroke: #444444; stroke-width: 1.5;" x1="22" x2="111" y1="133.5859" y2="133.5859"/><text fill="#111111" font-family="Helvetica" font-size="13" font-weight="bold" lengthAdjust="spacingAndGlyphs" textLength="76" x="26" y="126.52">SPEC SIDE</text><!--MD5=[9a5cf7b5ccfe99a8a50c4f56868c7fc8]
entity Seed--><rect fill="#D6E6F5" height="36.2969" rx="4" ry="4" style="stroke: #1F4768; stroke-width: 1.5;" width="121" x="349.5" y="146.4531"/><text fill="#111111" font-family="Helvetica" font-size="14" lengthAdjust="spacingAndGlyphs" textLength="101" x="359.5" y="169.4482">/livespec:seed</text><!--MD5=[b162903c3f5aa45441033ef018a482dd]
entity Propose--><rect fill="#D6E6F5" height="36.2969" rx="4" ry="4" style="stroke: #1F4768; stroke-width: 1.5;" width="209" x="56.5" y="343.4531"/><text fill="#111111" font-family="Helvetica" font-size="14" lengthAdjust="spacingAndGlyphs" textLength="189" x="66.5" y="366.4482">/livespec:propose-changes</text><!--MD5=[5bd62c65b3bf6048be3cb32942b001e5]
entity Critique--><rect fill="#D6E6F5" height="36.2969" rx="4" ry="4" style="stroke: #1F4768; stroke-width: 1.5;" width="137" x="281.5" y="343.4531"/><text fill="#111111" font-family="Helvetica" font-size="14" lengthAdjust="spacingAndGlyphs" textLength="117" x="291.5" y="366.4482">/livespec:critique</text><!--MD5=[e9c1fb24a4cd81b1c7322b8f0a98f11d]
entity Revise--><rect fill="#D6E6F5" height="36.2969" rx="4" ry="4" style="stroke: #1F4768; stroke-width: 1.5;" width="127" x="281.5" y="572.4531"/><text fill="#111111" font-family="Helvetica" font-size="14" lengthAdjust="spacingAndGlyphs" textLength="107" x="291.5" y="595.4482">/livespec:revise</text><!--MD5=[5a5d35bcfc46556bdff8e646cc6c81c2]
entity Doctor--><rect fill="#D6E6F5" height="36.2969" rx="4" ry="4" style="stroke: #1F4768; stroke-width: 1.5;" width="131" x="189.5" y="834.9531"/><text fill="#111111" font-family="Helvetica" font-size="14" lengthAdjust="spacingAndGlyphs" textLength="111" x="199.5" y="857.9482">/livespec:doctor</text><!--MD5=[e795410d1115affb2dc2318c56ac1958]
entity Prune--><rect fill="#D6E6F5" height="36.2969" rx="4" ry="4" style="stroke: #1F4768; stroke-width: 1.5;" width="178" x="337" y="834.9531"/><text fill="#111111" font-family="Helvetica" font-size="14" lengthAdjust="spacingAndGlyphs" textLength="158" x="347" y="857.9482">/livespec:prune-history</text><!--MD5=[5d5bd08e445b330b46749d080f546d09]
entity Next--><rect fill="#CCDDEE" height="52.5938" rx="4" ry="4" style="stroke: #1F4768; stroke-width: 1.5;" width="123" x="356.5" y="972.9531"/><text fill="#111111" font-family="Helvetica" font-size="14" lengthAdjust="spacingAndGlyphs" textLength="96" x="366.5" y="995.9482">/livespec:next</text><text fill="#111111" font-family="Helvetica" font-size="14" lengthAdjust="spacingAndGlyphs" textLength="103" x="366.5" y="1012.2451">(thin transport)</text><!--MD5=[5b0af1a53dfe6ce9d6337a803daa3faf]
entity Spec--><path d="M202,232.4531 C202,222.4531 326,222.4531 326,222.4531 C326,222.4531 450,222.4531 450,232.4531 L450,306.6406 C450,316.6406 326,316.6406 326,316.6406 C326,316.6406 202,316.6406 202,306.6406 L202,232.4531 " fill="#F5D76E" style="stroke: #5A4319; stroke-width: 1.5;"/><path d="M202,232.4531 C202,242.4531 326,242.4531 326,242.4531 C326,242.4531 450,242.4531 450,232.4531 " fill="none" style="stroke: #5A4319; stroke-width: 1.5;"/><text fill="#111111" font-family="Helvetica" font-size="14" lengthAdjust="spacingAndGlyphs" textLength="108" x="212" y="259.4482">SPECIFICATION/</text><text fill="#111111" font-family="Helvetica" font-size="14" lengthAdjust="spacingAndGlyphs" textLength="168" x="212" y="275.7451">(spec.md, contracts.md,</text><text fill="#111111" font-family="Helvetica" font-size="14" lengthAdjust="spacingAndGlyphs" textLength="208" x="212" y="292.042">constraints.md, scenarios.md,</text><text fill="#111111" font-family="Helvetica" font-size="14" lengthAdjust="spacingAndGlyphs" textLength="228" x="212" y="308.3389">non-functional-requirements.md)</text><!--MD5=[4cc95f85745661d7fbe872bf21a1bbc7]
entity PCQueue--><path d="M137.5,442.4531 C137.5,432.4531 217,432.4531 217,432.4531 C217,432.4531 296.5,432.4531 296.5,442.4531 L296.5,484.0469 C296.5,494.0469 217,494.0469 217,494.0469 C217,494.0469 137.5,494.0469 137.5,484.0469 L137.5,442.4531 " fill="#F5EAD5" style="stroke: #5A4319; stroke-width: 1.5;"/><path d="M137.5,442.4531 C137.5,452.4531 217,452.4531 217,452.4531 C217,452.4531 296.5,452.4531 296.5,442.4531 " fill="none" style="stroke: #5A4319; stroke-width: 1.5;"/><text fill="#111111" font-family="Helvetica" font-size="14" lengthAdjust="spacingAndGlyphs" textLength="139" x="147.5" y="469.4482">proposed_changes/</text><text fill="#111111" font-family="Helvetica" font-size="14" lengthAdjust="spacingAndGlyphs" textLength="67" x="147.5" y="485.7451">(pending)</text><!--MD5=[99a8f7b7d62222417991320410ebdaf2]
entity History--><path d="M363.5,709.4531 C363.5,699.4531 449,699.4531 449,699.4531 C449,699.4531 534.5,699.4531 534.5,709.4531 L534.5,767.3438 C534.5,777.3438 449,777.3438 449,777.3438 C449,777.3438 363.5,777.3438 363.5,767.3438 L363.5,709.4531 " fill="#F5EAD5" style="stroke: #5A4319; stroke-width: 1.5;"/><path d="M363.5,709.4531 C363.5,719.4531 449,719.4531 449,719.4531 C449,719.4531 534.5,719.4531 534.5,709.4531 " fill="none" style="stroke: #5A4319; stroke-width: 1.5;"/><text fill="#111111" font-family="Helvetica" font-size="14" lengthAdjust="spacingAndGlyphs" textLength="93" x="373.5" y="736.4482">history/vNNN/</text><text fill="#111111" font-family="Helvetica" font-size="14" lengthAdjust="spacingAndGlyphs" textLength="94" x="373.5" y="752.7451">(snapshots +</text><text fill="#111111" font-family="Helvetica" font-size="14" lengthAdjust="spacingAndGlyphs" textLength="151" x="373.5" y="769.042">processed proposals)</text><!--MD5=[1e9204083aa66e691856924869ece9f5]
entity Input--><rect fill="#FFFACC" height="52.5938" rx="4" ry="4" style="stroke: #1F4768; stroke-width: 1.5;" width="204" x="308" y="29.4531"/><text fill="#111111" font-family="Helvetica" font-size="14" lengthAdjust="spacingAndGlyphs" textLength="87" x="318" y="52.4482">initial intent /</text><text fill="#111111" font-family="Helvetica" font-size="14" lengthAdjust="spacingAndGlyphs" textLength="184" x="318" y="68.7451">prompt / instruction / seed</text><path d="M567,941.4531 L567,995.4531 L479.75,999.4531 L567,1003.4531 L567,1057.3828 A0,0 0 0 0 567,1057.3828 L877,1057.3828 A0,0 0 0 0 877,1057.3828 L877,951.4531 L867,941.4531 L567,941.4531 A0,0 0 0 0 567,941.4531 " fill="#FBFB77" style="stroke: #A80036; stroke-width: 1.0;"/><path d="M867,941.4531 L867,951.4531 L877,951.4531 L867,941.4531 " fill="#FBFB77" style="stroke: #A80036; stroke-width: 1.0;"/><text fill="#000000" font-family="Helvetica" font-size="13" lengthAdjust="spacingAndGlyphs" textLength="225" x="573" y="958.52">Thin-transport skill. Pure function of</text><text fill="#000000" font-family="Helvetica" font-size="13" lengthAdjust="spacingAndGlyphs" textLength="213" x="573" y="973.6528">spec-side file state. SKILL.md is a</text><text fill="#000000" font-family="Helvetica" font-size="13" lengthAdjust="spacingAndGlyphs" textLength="102" x="573" y="988.7856">pass-through to</text><text fill="#000000" font-family="Helvetica" font-size="13" lengthAdjust="spacingAndGlyphs" textLength="213" x="573" y="1003.9185">.claude-plugin/scripts/bin/next.py.</text><text fill="#000000" font-family="Helvetica" font-size="13" lengthAdjust="spacingAndGlyphs" textLength="289" x="573" y="1019.0513">Does NOT read impl-side stores — cross-side</text><text fill="#000000" font-family="Helvetica" font-size="13" lengthAdjust="spacingAndGlyphs" textLength="250" x="573" y="1034.1841">composition is the project-local Layer 3</text><text fill="#000000" font-family="Helvetica" font-size="13" lengthAdjust="spacingAndGlyphs" textLength="104" x="573" y="1049.3169">loop driver's job.</text><path d="M567.5,233.9531 L567.5,265.4531 L450.01,269.4531 L567.5,273.4531 L567.5,304.4844 A0,0 0 0 0 567.5,304.4844 L818.5,304.4844 A0,0 0 0 0 818.5,304.4844 L818.5,243.9531 L808.5,233.9531 L567.5,233.9531 A0,0 0 0 0 567.5,233.9531 " fill="#FBFB77" style="stroke: #A80036; stroke-width: 1.0;"/><path d="M808.5,233.9531 L808.5,243.9531 L818.5,243.9531 L808.5,233.9531 " fill="#FBFB77" style="stroke: #A80036; stroke-width: 1.0;"/><text fill="#000000" font-family="Helvetica" font-size="13" lengthAdjust="spacingAndGlyphs" textLength="145" x="573.5" y="251.02">Mutated ONLY through</text><text fill="#000000" font-family="Helvetica" font-size="13" lengthAdjust="spacingAndGlyphs" textLength="185" x="573.5" y="266.1528">/livespec:propose-changes →</text><text fill="#000000" font-family="Helvetica" font-size="13" lengthAdjust="spacingAndGlyphs" textLength="230" x="573.5" y="281.2856">/livespec:revise after the v001 seed.</text><text fill="#000000" font-family="Helvetica" font-size="13" lengthAdjust="spacingAndGlyphs" textLength="141" x="573.5" y="296.4185">Direct edits forbidden.</text><path d="M861.5,547.4531 L861.5,633.1172 L1106.5,633.1172 L1106.5,557.4531 L1096.5,547.4531 L861.5,547.4531 " fill="#FBFB77" style="stroke: #A80036; stroke-width: 1.0;"/><path d="M1096.5,547.4531 L1096.5,557.4531 L1106.5,557.4531 L1096.5,547.4531 " fill="#FBFB77" style="stroke: #A80036; stroke-width: 1.0;"/><text fill="#000000" font-family="Helvetica" font-size="13" lengthAdjust="spacingAndGlyphs" textLength="143" x="867.5" y="564.52">Selective per-proposal</text><text fill="#000000" font-family="Helvetica" font-size="13" lengthAdjust="spacingAndGlyphs" textLength="150" x="867.5" y="579.6528">accept / modify / reject.</text><text fill="#000000" font-family="Helvetica" font-size="13" lengthAdjust="spacingAndGlyphs" textLength="224" x="867.5" y="594.7856">Every successful revise — including</text><text fill="#000000" font-family="Helvetica" font-size="13" lengthAdjust="spacingAndGlyphs" textLength="209" x="867.5" y="609.9185">all-reject — cuts exactly one new</text><text fill="#000000" font-family="Helvetica" font-size="13" lengthAdjust="spacingAndGlyphs" textLength="205" x="867.5" y="625.0513">vNNN, preserving the audit trail.</text><path d="M567,547.4531 L567,633.1172 L845,633.1172 L845,557.4531 L835,547.4531 L567,547.4531 " fill="#FBFB77" style="stroke: #A80036; stroke-width: 1.0;"/><path d="M835,547.4531 L835,557.4531 L845,557.4531 L835,547.4531 " fill="#FBFB77" style="stroke: #A80036; stroke-width: 1.0;"/><text fill="#000000" font-family="Helvetica" font-size="13" lengthAdjust="spacingAndGlyphs" textLength="204" x="573" y="564.52">Pure queue — drains via Revise.</text><text fill="#000000" font-family="Helvetica" font-size="13" lengthAdjust="spacingAndGlyphs" textLength="216" x="573" y="579.6528">Processed proposals relocate into</text><text fill="#000000" font-family="Helvetica" font-size="13" lengthAdjust="spacingAndGlyphs" textLength="257" x="573" y="594.7856">history/vNNN/proposed_changes/ paired</text><text fill="#000000" font-family="Helvetica" font-size="13" lengthAdjust="spacingAndGlyphs" textLength="215" x="573" y="609.9185">with disposition revision files; they</text><text fill="#000000" font-family="Helvetica" font-size="13" lengthAdjust="spacingAndGlyphs" textLength="157" x="573" y="625.0513">do not accumulate here.</text><path d="M567.5,817.4531 L567.5,887.9844 A0,0 0 0 0 567.5,887.9844 L810.5,887.9844 A0,0 0 0 0 810.5,887.9844 L810.5,827.4531 L800.5,817.4531 L619.1,817.4531 L530.25,777.5431 L611.1,817.4531 L567.5,817.4531 A0,0 0 0 0 567.5,817.4531 " fill="#FBFB77" style="stroke: #A80036; stroke-width: 1.0;"/><path d="M800.5,817.4531 L800.5,827.4531 L810.5,827.4531 L800.5,817.4531 " fill="#FBFB77" style="stroke: #A80036; stroke-width: 1.0;"/><text fill="#000000" font-family="Helvetica" font-size="13" lengthAdjust="spacingAndGlyphs" textLength="204" x="573.5" y="834.52">Pure archive — items only enter</text><text fill="#000000" font-family="Helvetica" font-size="13" lengthAdjust="spacingAndGlyphs" textLength="222" x="573.5" y="849.6528">via Revise; never become pending,</text><text fill="#000000" font-family="Helvetica" font-size="13" lengthAdjust="spacingAndGlyphs" textLength="141" x="573.5" y="864.7856">never drain except via</text><text fill="#000000" font-family="Helvetica" font-size="13" lengthAdjust="spacingAndGlyphs" textLength="148" x="573.5" y="879.9185">/livespec:prune-history.</text><!--MD5=[e38a78e35415c081adbe3d821d0b148b]
link Input to Seed--><path d="M410,82.4631 C410,100.3131 410,123.9231 410,141.0431 " fill="none" id="Input-&gt;Seed" style="stroke: #000000; stroke-width: 1.3;"/><polygon fill="#000000" points="410,146.1331,414,137.1331,410,141.1331,406,137.1331,410,146.1331" style="stroke: #000000; stroke-width: 1.3;"/><!--MD5=[79b56c54669e1e209294348a48d118fe]
link Seed to Spec--><path d="M370.54,182.5131 C364.82,186.1831 359.4,190.4831 355,195.4531 C349.31,201.8831 344.66,209.5531 340.89,217.4831 " fill="none" id="Seed-&gt;Spec" style="stroke: #000000; stroke-width: 1.3;"/><polygon fill="#000000" points="338.66,222.4431,346.0087,215.8859,340.7172,217.8859,338.7171,212.5944,338.66,222.4431" style="stroke: #000000; stroke-width: 1.3;"/><text fill="#000000" font-family="Helvetica" font-size="11" lengthAdjust="spacingAndGlyphs" textLength="105" x="356" y="206.6636">authors initial tree</text><!--MD5=[e234211b21a33290f9c83c691cc53acc]
link Seed to History--><path d="M449.71,182.5131 C454.53,186.1331 458.85,190.4131 462,195.4531 C479.22,223.0431 467,235.9331 467,268.4531 C467,268.4531 467,268.4531 467,591.4531 C467,633.7331 468.36,644.6531 462,686.4531 C461.62,688.9231 461.18,691.4431 460.69,693.9731 " fill="none" id="Seed-&gt;History" style="stroke: #000000; stroke-width: 1.3;"/><polygon fill="#000000" points="459.61,699.1931,465.3289,691.1747,460.6098,694.2941,457.4904,689.575,459.61,699.1931" style="stroke: #000000; stroke-width: 1.3;"/><text fill="#000000" font-family="Helvetica" font-size="11" lengthAdjust="spacingAndGlyphs" textLength="66" x="468" y="410.1636">writes v001</text><!--MD5=[6aed50f60f52d38e3c9589f0bac08744]
link Propose to PCQueue--><path d="M75.42,379.6331 C70.32,383.1731 65.75,387.4031 62,392.4531 C54.85,402.0931 54.74,409.9031 62,419.4531 C71.31,431.6931 101.28,441.3531 132.42,448.4031 " fill="none" id="Propose-&gt;PCQueue" style="stroke: #000000; stroke-width: 1.3;"/><polygon fill="#000000" points="137.43,449.5031,129.512,443.646,132.5491,448.4185,127.7766,451.4555,137.43,449.5031" style="stroke: #000000; stroke-width: 1.3;"/><text fill="#000000" font-family="Helvetica" font-size="11" lengthAdjust="spacingAndGlyphs" textLength="84" x="81" y="403.6636">writes pending</text><text fill="#000000" font-family="Helvetica" font-size="11" lengthAdjust="spacingAndGlyphs" textLength="120" x="63" y="416.4683">proposed-change file</text><!--MD5=[2c995db2faed80d07edb84013ad27120]
link Spec to Critique--><path d="M338.28,316.5031 C340.3,324.0931 342.31,331.6331 344.09,338.2731 " fill="none" id="Spec-&gt;Critique" style="stroke: #000000; stroke-width: 1.3;"/><polygon fill="#000000" points="345.39,343.1631,346.9127,333.4327,344.0901,338.335,339.1878,335.5125,345.39,343.1631" style="stroke: #000000; stroke-width: 1.3;"/><!--MD5=[18d5bc04b48706048bc504d5ed50186f]
link Critique to PCQueue--><path d="M281.26,377.9431 C278.81,378.4531 276.38,378.9631 274,379.4531 C258.72,382.6031 214.96,380.4431 205,392.4531 C196.94,402.1731 197.25,415.3131 200.52,427.5931 " fill="none" id="Critique-&gt;PCQueue" style="stroke: #000000; stroke-width: 1.3;"/><polygon fill="#000000" points="201.97,432.4231,203.2286,422.655,200.5398,427.632,195.5628,424.9433,201.97,432.4231" style="stroke: #000000; stroke-width: 1.3;"/><text fill="#000000" font-family="Helvetica" font-size="11" lengthAdjust="spacingAndGlyphs" textLength="104" x="214.5" y="403.6636">promotes findings</text><text fill="#000000" font-family="Helvetica" font-size="11" lengthAdjust="spacingAndGlyphs" textLength="121" x="206" y="416.4683">to proposed changes</text><!--MD5=[a69e2db2c58186bdfbdd2106032d7638]
link PCQueue to Revise--><path d="M247.99,494.7131 C271.39,517.5631 302.9,548.3431 323.57,568.5331 " fill="none" id="PCQueue-&gt;Revise" style="stroke: #000000; stroke-width: 1.3;"/><polygon fill="#000000" points="327.3,572.1731,323.6535,563.0242,323.722,568.6806,318.0655,568.749,327.3,572.1731" style="stroke: #000000; stroke-width: 1.3;"/><!--MD5=[f8978627cb19ac31d7c0ec0d2ea4869c]
link Revise to Spec--><path d="M338.98,572.4431 C326.87,534.8831 304.36,444.0731 349,392.4531 C371.99,365.8731 404.28,406.2731 427,379.4531 C437.34,367.2431 434.28,357.7031 427,343.4531 C422.68,335.0031 416.87,327.3031 410.22,320.3431 " fill="none" id="Revise-&gt;Spec" style="stroke: #000000; stroke-width: 1.3;"/><polygon fill="#000000" points="406.44,316.5531,409.957,325.7526,409.9684,320.0958,415.6252,320.1072,406.44,316.5531" style="stroke: #000000; stroke-width: 1.3;"/><text fill="#000000" font-family="Helvetica" font-size="11" lengthAdjust="spacingAndGlyphs" textLength="96" x="350" y="403.6636">applies accepted</text><text fill="#000000" font-family="Helvetica" font-size="11" lengthAdjust="spacingAndGlyphs" textLength="80" x="358" y="416.4683">resulting_files</text><!--MD5=[07bc2658038b75836dd6c06689447504]
link Revise to History--><path d="M339.32,608.7331 C333.79,629.0131 328.16,662.8531 343,686.4531 C347.32,693.3231 352.85,699.2931 359.12,704.4731 " fill="none" id="Revise-&gt;History" style="stroke: #000000; stroke-width: 1.3;"/><polygon fill="#000000" points="363.11,707.5931,358.4681,698.9068,359.1655,704.5205,353.5519,705.2179,363.11,707.5931" style="stroke: #000000; stroke-width: 1.3;"/><text fill="#000000" font-family="Helvetica" font-size="11" lengthAdjust="spacingAndGlyphs" textLength="89" x="358" y="657.6636">cuts new vNNN,</text><text fill="#000000" font-family="Helvetica" font-size="11" lengthAdjust="spacingAndGlyphs" textLength="117" x="344" y="670.4683">relocates processed</text><text fill="#000000" font-family="Helvetica" font-size="11" lengthAdjust="spacingAndGlyphs" textLength="57" x="374" y="683.2729">proposals</text><!--MD5=[29c2b6ec2f05da293fae6f93ae2f3ebb]
link Spec to Doctor--><path d="M201.63,287.9831 C137,299.9131 67.5,318.1631 48,343.4531 C-78.1,506.9431 157.43,757.8531 232.86,831.1631 " fill="none" id="Spec-&gt;Doctor" style="stroke: #000000; stroke-width: 1.3; stroke-dasharray: 7.0,7.0;"/><polygon fill="#000000" points="236.76,834.9331,233.0579,825.8065,233.1608,831.4624,227.5049,831.5653,236.76,834.9331" style="stroke: #000000; stroke-width: 1.3;"/><text fill="#000000" font-family="Helvetica" font-size="11" lengthAdjust="spacingAndGlyphs" textLength="108" x="26" y="518.6636">static + LLM-driven</text><text fill="#000000" font-family="Helvetica" font-size="11" lengthAdjust="spacingAndGlyphs" textLength="56" x="52" y="531.4683">invariants</text><!--MD5=[f5921745b78d7af41c9fcc55811f74aa]
link PCQueue to Doctor--><path d="M219.95,494.5331 C227.29,569.4331 246.27,762.9531 252.78,829.2631 " fill="none" id="PCQueue-&gt;Doctor" style="stroke: #000000; stroke-width: 1.3; stroke-dasharray: 7.0,7.0;"/><polygon fill="#000000" points="253.29,834.5531,256.3985,825.2077,252.8052,829.5767,248.4362,825.9834,253.29,834.5531" style="stroke: #000000; stroke-width: 1.3;"/><text fill="#000000" font-family="Helvetica" font-size="11" lengthAdjust="spacingAndGlyphs" textLength="44" x="239" y="670.6636">hygiene</text><!--MD5=[f0a82dc77730f883730a6bf29f010c28]
link History to Doctor--><path d="M363.14,760.3231 C342.3,767.7831 320.89,777.6231 303,790.4531 C288.27,801.0231 275.82,817.3531 267.29,830.5331 " fill="none" id="History-&gt;Doctor" style="stroke: #000000; stroke-width: 1.3; stroke-dasharray: 7.0,7.0;"/><polygon fill="#000000" points="264.55,834.8631,272.7386,829.3907,267.2205,830.636,265.9752,825.1179,264.55,834.8631" style="stroke: #000000; stroke-width: 1.3;"/><text fill="#000000" font-family="Helvetica" font-size="11" lengthAdjust="spacingAndGlyphs" textLength="98" x="304" y="801.6636">structural checks</text><!--MD5=[512a23a9d0f291ed1fd003d9c5a90d11]
link History to Prune--><path d="M497.62,777.5231 C503.03,786.0331 505.02,795.2631 500,804.4531 C493.73,815.9231 483.38,825.0331 472.37,832.0831 " fill="none" id="History-&gt;Prune" style="stroke: #000000; stroke-width: 1.3;"/><polygon fill="#000000" points="467.96,834.7831,477.7225,833.482,472.2207,832.1666,473.5361,826.6648,467.96,834.7831" style="stroke: #000000; stroke-width: 1.3;"/><!--MD5=[99cefe05050675266fb88a6170c30a72]
link Prune to History--><path d="M415.7,834.8131 C409.58,822.3731 403.9,805.2131 409,790.4531 C409.94,787.7231 411.09,785.0331 412.41,782.4031 " fill="none" id="Prune-&gt;History" style="stroke: #000000; stroke-width: 1.3;"/><polygon fill="#000000" points="414.94,777.7231,407.1489,783.7479,412.5678,782.1246,414.1912,787.5435,414.94,777.7231" style="stroke: #000000; stroke-width: 1.3;"/><text fill="#000000" font-family="Helvetica" font-size="11" lengthAdjust="spacingAndGlyphs" textLength="85" x="410" y="801.6636">pruned-marker</text><!--MD5=[134cfe47b975d842b700b269ce0a4c63]
link PCQueue to Next--><path d="M199.47,494.7031 C186.84,519.3631 172,555.5431 172,589.4531 C172,589.4531 172,589.4531 172,853.9531 C172,937.2731 278.21,973.4831 351.06,988.5231 " fill="none" id="PCQueue-&gt;Next" style="stroke: #000000; stroke-width: 1.3;"/><polygon fill="#000000" points="356.24,989.5731,348.2216,983.8543,351.341,988.5733,346.6219,991.6927,356.24,989.5731" style="stroke: #000000; stroke-width: 1.3;"/><!--MD5=[d2cb7ac10a5550604c93d6178fd18a1c]
link History to Next--><path d="M494.06,777.5631 C498.26,781.7531 502.32,786.0931 506,790.4531 C534.53,824.2231 539.44,847.4231 523,888.4531 C509.87,921.2331 481.79,949.7931 457.97,969.5831 " fill="none" id="History-&gt;Next" style="stroke: #000000; stroke-width: 1.3;"/><polygon fill="#000000" points="453.89,972.9331,463.3927,970.3451,457.7649,969.7732,458.3368,964.1453,453.89,972.9331" style="stroke: #000000; stroke-width: 1.3;"/><!--MD5=[503e60b3ffea59f20272462030925408]
link Doctor to Next--><path d="M274.34,871.0931 C301.65,895.3031 351.88,939.8431 385.12,969.3031 " fill="none" id="Doctor-&gt;Next" style="stroke: #000000; stroke-width: 1.3; stroke-dasharray: 7.0,7.0;"/><polygon fill="#000000" points="389.08,972.8231,384.9938,963.862,385.3367,969.5084,379.6902,969.8513,389.08,972.8231" style="stroke: #000000; stroke-width: 1.3;"/><text fill="#000000" font-family="Helvetica" font-size="11" lengthAdjust="spacingAndGlyphs" textLength="63" x="337" y="912.6636">unresolved</text><text fill="#000000" font-family="Helvetica" font-size="11" lengthAdjust="spacingAndGlyphs" textLength="45" x="346" y="925.4683">findings</text><!--MD5=[90cd011b266263b10be70a61122e58af]
link Revise to GMN304--><path d="M388.71,572.4231 C432.82,555.2731 503.32,530.6831 567,520.9531 C689.14,502.2831 724.75,492.5631 845,520.9531 C868.37,526.4731 892.29,536.5531 913.55,547.3531 " fill="none" id="Revise-GMN304" style="stroke: #000000; stroke-width: 1.3; stroke-dasharray: 7.0,7.0;"/><!--MD5=[f214d75cb4269fc9c11f8ed25c69a838]
link PCQueue to GMN307--><path d="M296.75,484.2331 C363.63,500.8831 461.62,525.4431 547,547.4531 C553.5,549.1331 560.14,550.8531 566.85,552.5931 " fill="none" id="PCQueue-GMN307" style="stroke: #000000; stroke-width: 1.3; stroke-dasharray: 7.0,7.0;"/><!--MD5=[ec1e3b0a56e55c84c3583083292fcc57]
@startuml spec-lifecycle
title LiveSpec Core — Spec Lifecycle
skinparam defaultFontName Helvetica
skinparam shadowing false
skinparam BackgroundColor #fafafa
skinparam ArrowColor #000000
skinparam ArrowFontColor #000000
skinparam ArrowFontSize 11
skinparam ArrowThickness 1.3
skinparam nodesep 16
skinparam ranksep 26
hide stereotype

skinparam rectangle {
  BackgroundColor #d6e6f5
  BorderColor #1f4768
  FontColor #111
  RoundCorner 8
}
skinparam database {
  BackgroundColor #f5ead5
  BorderColor #5a4319
  FontColor #111
}
skinparam package {
  FontColor #111
  FontSize 13
  FontStyle bold
  BorderColor #444
  BorderThickness 2
}

rectangle "initial intent /\nprompt / instruction / seed" as Input #fffacc

package "SPEC SIDE" as SpecPkg #fde8ec {
  rectangle "/livespec:seed" as Seed
  rectangle "/livespec:propose-changes" as Propose
  rectangle "/livespec:critique" as Critique
  rectangle "/livespec:revise" as Revise
  rectangle "/livespec:doctor" as Doctor
  rectangle "/livespec:prune-history" as Prune
  rectangle "/livespec:next\n(thin transport)" as Next #ccddee

  database "SPECIFICATION/\n(spec.md, contracts.md,\nconstraints.md, scenarios.md,\nnon-functional-requirements.md)" as Spec #f5d76e
  database "proposed_changes/\n(pending)" as PCQueue
  database "history/vNNN/\n(snapshots +\nprocessed proposals)" as History
}

Input - -> Seed
Seed - -> Spec : authors initial tree
Seed - -> History : writes v001

Propose - -> PCQueue : writes pending\nproposed-change file

Spec - -> Critique
Critique - -> PCQueue : promotes findings\nto proposed changes

PCQueue - -> Revise
Revise - -> Spec : applies accepted\nresulting_files
Revise - -> History : cuts new vNNN,\nrelocates processed\nproposals

Spec ..> Doctor : static + LLM-driven\ninvariants
PCQueue ..> Doctor : hygiene
History ..> Doctor : structural checks

History - -> Prune
Prune - -> History : pruned-marker

PCQueue - -> Next
History - -> Next
Doctor ..> Next : unresolved\nfindings

note right of Next : Thin-transport skill. Pure function of\nspec-side file state. SKILL.md is a\npass-through to\n.claude-plugin/scripts/bin/next.py.\nDoes NOT read impl-side stores — cross-side\ncomposition is the project-local Layer 3\nloop driver's job.

note right of Spec : Mutated ONLY through\n/livespec:propose-changes →\n/livespec:revise after the v001 seed.\nDirect edits forbidden.

note right of Revise : Selective per-proposal\naccept / modify / reject.\nEvery successful revise — including\nall-reject — cuts exactly one new\nvNNN, preserving the audit trail.

note bottom of PCQueue : Pure queue — drains via Revise.\nProcessed proposals relocate into\nhistory/vNNN/proposed_changes/ paired\nwith disposition revision files; they\ndo not accumulate here.

note bottom of History : Pure archive — items only enter\nvia Revise; never become pending,\nnever drain except via\n/livespec:prune-history.

@enduml

PlantUML version 1.2020.02(Sun Mar 01 11:22:07 CET 2020)
(GPL source distribution)
Java Runtime: OpenJDK Runtime Environment
JVM: OpenJDK 64-Bit Server VM
Java Version: 21.0.10+7-Ubuntu-125.10
Operating System: Linux
Default Encoding: UTF-8
Language: en
Country: null
--></g></svg>