<?xml version="1.0" encoding="UTF-8" standalone="no"?><svg xmlns="http://www.w3.org/2000/svg" xmlns:xlink="http://www.w3.org/1999/xlink" contentScriptType="application/ecmascript" contentStyleType="text/css" height="812px" preserveAspectRatio="none" style="width:1297px;height:812px;background:#FAFAFA;" version="1.1" viewBox="0 0 1297 812" width="1297px" zoomAndPan="magnify"><defs/><g><text fill="#000000" font-family="Helvetica" font-size="18" lengthAdjust="spacingAndGlyphs" textLength="406" x="448.5" y="16.708">Memo Lifecycle — Capture, Hygiene, Routing</text><!--MD5=[781fc4211f0f0711d3811412dad38fe1]
cluster SpecPkg--><polygon fill="#FDE8EC" points="402,373.9531,484,373.9531,491,395.0859,935,395.0859,935,630.4531,402,630.4531,402,373.9531" style="stroke: #444444; stroke-width: 1.5;"/><line style="stroke: #444444; stroke-width: 1.5;" x1="402" x2="491" y1="395.0859" y2="395.0859"/><text fill="#111111" font-family="Helvetica" font-size="13" font-weight="bold" lengthAdjust="spacingAndGlyphs" textLength="76" x="406" y="388.02">SPEC SIDE</text><!--MD5=[4d90c78b95395404f4d0684d2e298718]
cluster ImplPkg--><polygon fill="#E3F0E3" points="22,44.9531,195,44.9531,202,66.0859,378,66.0859,378,654.9531,22,654.9531,22,44.9531" style="stroke: #444444; stroke-width: 1.5;"/><line style="stroke: #444444; stroke-width: 1.5;" x1="22" x2="202" y1="66.0859" y2="66.0859"/><text fill="#111111" font-family="Helvetica" font-size="13" font-weight="bold" lengthAdjust="spacingAndGlyphs" textLength="167" x="26" y="59.02">IMPLEMENTATION SIDE</text><!--MD5=[5a5d35bcfc46556bdff8e646cc6c81c2]
entity Doctor--><rect fill="#D6E6F5" height="36.2969" rx="4" ry="4" style="stroke: #1F4768; stroke-width: 1.5;" width="131" x="643.5" y="412.4531"/><text fill="#111111" font-family="Helvetica" font-size="14" lengthAdjust="spacingAndGlyphs" textLength="111" x="653.5" y="435.4482">/livespec:doctor</text><!--MD5=[b162903c3f5aa45441033ef018a482dd]
entity Propose--><rect fill="#D6E6F5" height="36.2969" rx="4" ry="4" style="stroke: #1F4768; stroke-width: 1.5;" width="209" x="418.5" y="412.4531"/><text fill="#111111" font-family="Helvetica" font-size="14" lengthAdjust="spacingAndGlyphs" textLength="189" x="428.5" y="435.4482">/livespec:propose-changes</text><!--MD5=[5b0af1a53dfe6ce9d6337a803daa3faf]
entity Spec--><path d="M791,417.9531 C791,407.9531 855,407.9531 855,407.9531 C855,407.9531 919,407.9531 919,417.9531 L919,443.25 C919,453.25 855,453.25 855,453.25 C855,453.25 791,453.25 791,443.25 L791,417.9531 " fill="#F5D76E" style="stroke: #5A4319; stroke-width: 1.5;"/><path d="M791,417.9531 C791,427.9531 855,427.9531 855,427.9531 C855,427.9531 919,427.9531 919,417.9531 " fill="none" style="stroke: #5A4319; stroke-width: 1.5;"/><text fill="#111111" font-family="Helvetica" font-size="14" lengthAdjust="spacingAndGlyphs" textLength="108" x="801" y="444.9482">SPECIFICATION/</text><!--MD5=[4cc95f85745661d7fbe872bf21a1bbc7]
entity PCQueue--><path d="M443.5,579.4531 C443.5,569.4531 523,569.4531 523,569.4531 C523,569.4531 602.5,569.4531 602.5,579.4531 L602.5,604.75 C602.5,614.75 523,614.75 523,614.75 C523,614.75 443.5,614.75 443.5,604.75 L443.5,579.4531 " fill="#F5EAD5" style="stroke: #5A4319; stroke-width: 1.5;"/><path d="M443.5,579.4531 C443.5,589.4531 523,589.4531 523,589.4531 C523,589.4531 602.5,589.4531 602.5,579.4531 " fill="none" style="stroke: #5A4319; stroke-width: 1.5;"/><text fill="#111111" font-family="Helvetica" font-size="14" lengthAdjust="spacingAndGlyphs" textLength="139" x="453.5" y="606.4482">proposed_changes/</text><!--MD5=[4d8b149103de154d2d36dbc14fb1ec50]
entity CaptureMemo--><rect fill="#D6E6F5" height="52.5938" rx="4" ry="4" style="stroke: #1F4768; stroke-width: 1.5;" width="131" x="94.5" y="78.9531"/><text fill="#111111" font-family="Helvetica" font-size="14" lengthAdjust="spacingAndGlyphs" textLength="111" x="104.5" y="101.9482">/livespec-impl-*:</text><text fill="#111111" font-family="Helvetica" font-size="14" lengthAdjust="spacingAndGlyphs" textLength="102" x="104.5" y="118.2451">capture-memo</text><!--MD5=[38c3dd3a596b244014464f502c88eff1]
entity ProcessMemos--><rect fill="#D6E6F5" height="52.5938" rx="4" ry="4" style="stroke: #1F4768; stroke-width: 1.5;" width="133" x="171.5" y="403.9531"/><text fill="#111111" font-family="Helvetica" font-size="14" lengthAdjust="spacingAndGlyphs" textLength="111" x="181.5" y="426.9482">/livespec-impl-*:</text><text fill="#111111" font-family="Helvetica" font-size="14" lengthAdjust="spacingAndGlyphs" textLength="113" x="181.5" y="443.2451">process-memos</text><!--MD5=[77c2cd5fbd0db322139e34716aca4f0c]
entity SpecReader--><rect fill="#E0D4EC" height="36.2969" style="stroke: #5A3A72; stroke-width: 1.5;" width="109" x="252.5" y="226.9531"/><rect fill="#E0D4EC" height="5" style="stroke: #5A3A72; stroke-width: 1.5;" width="10" x="247.5" y="231.9531"/><rect fill="#E0D4EC" height="5" style="stroke: #5A3A72; stroke-width: 1.5;" width="10" x="247.5" y="253.25"/><text fill="#111111" font-family="Helvetica" font-size="14" lengthAdjust="spacingAndGlyphs" textLength="89" x="262.5" y="249.9482">Spec Reader</text><!--MD5=[1c5e44e491cf6497969a38cc571a845e]
entity Memos--><path d="M83.5,215.9531 C83.5,205.9531 160,205.9531 160,205.9531 C160,205.9531 236.5,205.9531 236.5,215.9531 L236.5,273.8438 C236.5,283.8438 160,283.8438 160,283.8438 C160,283.8438 83.5,283.8438 83.5,273.8438 L83.5,215.9531 " fill="#F5EAD5" style="stroke: #5A4319; stroke-width: 1.5;"/><path d="M83.5,215.9531 C83.5,225.9531 160,225.9531 160,225.9531 C160,225.9531 236.5,225.9531 236.5,215.9531 " fill="none" style="stroke: #5A4319; stroke-width: 1.5;"/><text fill="#111111" font-family="Helvetica" font-size="14" lengthAdjust="spacingAndGlyphs" textLength="51" x="93.5" y="242.9482">Memos</text><text fill="#111111" font-family="Helvetica" font-size="14" lengthAdjust="spacingAndGlyphs" textLength="109" x="93.5" y="259.2451">(plugin-specific:</text><text fill="#111111" font-family="Helvetica" font-size="14" lengthAdjust="spacingAndGlyphs" textLength="133" x="93.5" y="275.542">bd Dolt / JSONL / ...)</text><!--MD5=[fa81577849114cbf168f391a566a9b63]
entity WorkItems--><path d="M37.5,579.4531 C37.5,569.4531 86,569.4531 86,569.4531 C86,569.4531 134.5,569.4531 134.5,579.4531 L134.5,604.75 C134.5,614.75 86,614.75 86,614.75 C86,614.75 37.5,614.75 37.5,604.75 L37.5,579.4531 " fill="#F5EAD5" style="stroke: #5A4319; stroke-width: 1.5;"/><path d="M37.5,579.4531 C37.5,589.4531 86,589.4531 86,589.4531 C86,589.4531 134.5,589.4531 134.5,579.4531 " fill="none" style="stroke: #5A4319; stroke-width: 1.5;"/><text fill="#111111" font-family="Helvetica" font-size="14" lengthAdjust="spacingAndGlyphs" textLength="77" x="47.5" y="606.4482">Work Items</text><!--MD5=[cd20a034834c6e5d1841e96140da69e2]
entity AgentKnowledge--><path d="M150.5,554.9531 C150.5,544.9531 256,544.9531 256,544.9531 C256,544.9531 361.5,544.9531 361.5,554.9531 L361.5,629.1406 C361.5,639.1406 256,639.1406 256,639.1406 C256,639.1406 150.5,639.1406 150.5,629.1406 L150.5,554.9531 " fill="#F5D76E" style="stroke: #5A4319; stroke-width: 1.5;"/><path d="M150.5,554.9531 C150.5,564.9531 256,564.9531 256,564.9531 C256,564.9531 361.5,564.9531 361.5,554.9531 " fill="none" style="stroke: #5A4319; stroke-width: 1.5;"/><text fill="#111111" font-family="Helvetica" font-size="14" lengthAdjust="spacingAndGlyphs" textLength="70" x="160.5" y="581.9482">Persistent</text><text fill="#111111" font-family="Helvetica" font-size="14" lengthAdjust="spacingAndGlyphs" textLength="122" x="160.5" y="598.2451">Agent Knowledge</text><text fill="#111111" font-family="Helvetica" font-size="14" lengthAdjust="spacingAndGlyphs" textLength="173" x="160.5" y="614.542">(harness instruction files,</text><text fill="#111111" font-family="Helvetica" font-size="14" lengthAdjust="spacingAndGlyphs" textLength="191" x="160.5" y="630.8389">long-lived memory store, ...)</text><path d="M394,171.9531 L394,318.1484 L680,318.1484 L680,181.9531 L670,171.9531 L394,171.9531 " fill="#FBFB77" style="stroke: #A80036; stroke-width: 1.0;"/><path d="M670,171.9531 L670,181.9531 L680,181.9531 L670,171.9531 " fill="#FBFB77" style="stroke: #A80036; stroke-width: 1.0;"/><text fill="#000000" font-family="Helvetica" font-size="13" lengthAdjust="spacingAndGlyphs" textLength="265" x="400" y="189.02">Queue + archive — dispositioned memos</text><text fill="#000000" font-family="Helvetica" font-size="13" lengthAdjust="spacingAndGlyphs" textLength="230" x="400" y="204.1528">remain with a state marker for audit</text><text fill="#000000" font-family="Helvetica" font-size="13" lengthAdjust="spacingAndGlyphs" textLength="164" x="400" y="219.2856">(spec-bound, impl-bound,</text><text fill="#000000" font-family="Helvetica" font-size="13" lengthAdjust="spacingAndGlyphs" textLength="262" x="400" y="234.4185">persistent-knowledge, discard). Transient</text><text fill="#000000" font-family="Helvetica" font-size="13" lengthAdjust="spacingAndGlyphs" textLength="228" x="400" y="249.5513">by construction: every memo MUST</text><text fill="#000000" font-family="Helvetica" font-size="13" lengthAdjust="spacingAndGlyphs" textLength="251" x="400" y="264.6841">eventually flow to spec, impl, persistent</text><text fill="#000000" font-family="Helvetica" font-size="13" lengthAdjust="spacingAndGlyphs" textLength="217" x="400" y="279.8169">knowledge, or discard. Rejects the</text><text fill="#000000" font-family="Helvetica" font-size="13" lengthAdjust="spacingAndGlyphs" textLength="253" x="400" y="294.9497">permanent-memory-store pattern from</text><text fill="#000000" font-family="Helvetica" font-size="13" lengthAdjust="spacingAndGlyphs" textLength="152" x="400" y="310.0825">tools like bd remember.</text><path d="M951.5,541.4531 L951.5,642.25 L1264.5,642.25 L1264.5,551.4531 L1254.5,541.4531 L951.5,541.4531 " fill="#FBFB77" style="stroke: #A80036; stroke-width: 1.0;"/><path d="M1254.5,541.4531 L1254.5,551.4531 L1264.5,551.4531 L1254.5,541.4531 " fill="#FBFB77" style="stroke: #A80036; stroke-width: 1.0;"/><text fill="#000000" font-family="Helvetica" font-size="13" lengthAdjust="spacingAndGlyphs" textLength="292" x="957.5" y="558.52">Hygiene invariant: "no untriaged memo MUST</text><text fill="#000000" font-family="Helvetica" font-size="13" lengthAdjust="spacingAndGlyphs" textLength="274" x="957.5" y="573.6528">remain unresolved beyond N days." Doctor</text><text fill="#000000" font-family="Helvetica" font-size="13" lengthAdjust="spacingAndGlyphs" textLength="234" x="957.5" y="588.7856">queries the active impl plugin via the</text><text fill="#000000" font-family="Helvetica" font-size="13" lengthAdjust="spacingAndGlyphs" textLength="255" x="957.5" y="603.9185">machine-readable contract; it does NOT</text><text fill="#000000" font-family="Helvetica" font-size="13" lengthAdjust="spacingAndGlyphs" textLength="274" x="957.5" y="619.0513">know how memos get resolved — only that</text><text fill="#000000" font-family="Helvetica" font-size="13" lengthAdjust="spacingAndGlyphs" textLength="98" x="957.5" y="634.1841">they should be.</text><path d="M951,372.4531 L951,488.3828 L1285,488.3828 L1285,382.4531 L1275,372.4531 L951,372.4531 " fill="#FBFB77" style="stroke: #A80036; stroke-width: 1.0;"/><path d="M1275,372.4531 L1275,382.4531 L1285,382.4531 L1275,372.4531 " fill="#FBFB77" style="stroke: #A80036; stroke-width: 1.0;"/><text fill="#000000" font-family="Helvetica" font-size="13" lengthAdjust="spacingAndGlyphs" textLength="267" x="957" y="389.52">Per-memo handholding skill — walks each</text><text fill="#000000" font-family="Helvetica" font-size="13" lengthAdjust="spacingAndGlyphs" textLength="267" x="957" y="404.6528">pending memo via user dialogue with four</text><text fill="#000000" font-family="Helvetica" font-size="13" lengthAdjust="spacingAndGlyphs" textLength="245" x="957" y="419.7856">dispositions. The handholding principle</text><text fill="#000000" font-family="Helvetica" font-size="13" lengthAdjust="spacingAndGlyphs" textLength="244" x="957" y="434.9185">is load-bearing: users do not manually</text><text fill="#000000" font-family="Helvetica" font-size="13" lengthAdjust="spacingAndGlyphs" textLength="313" x="957" y="450.0513">invoke propose-changes for spec-bound memos;</text><text fill="#000000" font-family="Helvetica" font-size="13" lengthAdjust="spacingAndGlyphs" textLength="263" x="957" y="465.1841">process-memos drives them through the</text><text fill="#000000" font-family="Helvetica" font-size="13" lengthAdjust="spacingAndGlyphs" textLength="188" x="957" y="480.3169">appropriate downstream skill.</text><path d="M97.5,684.9531 L97.5,800.8828 A0,0 0 0 0 97.5,800.8828 L414.5,800.8828 A0,0 0 0 0 414.5,800.8828 L414.5,694.9531 L404.5,684.9531 L260,684.9531 L256,639.2831 L252,684.9531 L97.5,684.9531 A0,0 0 0 0 97.5,684.9531 " fill="#FBFB77" style="stroke: #A80036; stroke-width: 1.0;"/><path d="M404.5,684.9531 L404.5,694.9531 L414.5,694.9531 L404.5,684.9531 " fill="#FBFB77" style="stroke: #A80036; stroke-width: 1.0;"/><text fill="#000000" font-family="Helvetica" font-size="13" lengthAdjust="spacingAndGlyphs" textLength="276" x="103.5" y="702.02">Long-term agent knowledge that doesn't fit</text><text fill="#000000" font-family="Helvetica" font-size="13" lengthAdjust="spacingAndGlyphs" textLength="256" x="103.5" y="717.1528">as a spec requirement or as inline code.</text><text fill="#000000" font-family="Helvetica" font-size="13" lengthAdjust="spacingAndGlyphs" textLength="296" x="103.5" y="732.2856">Form is implementation-dependent: file-based</text><text fill="#000000" font-family="Helvetica" font-size="13" lengthAdjust="spacingAndGlyphs" textLength="255" x="103.5" y="747.4185">realizations use harness instruction files</text><text fill="#000000" font-family="Helvetica" font-size="13" lengthAdjust="spacingAndGlyphs" textLength="291" x="103.5" y="762.5513">(AGENTS.md / CLAUDE.md / .ai/&lt;topic&gt;.md);</text><text fill="#000000" font-family="Helvetica" font-size="13" lengthAdjust="spacingAndGlyphs" textLength="277" x="103.5" y="777.6841">other plugins may use a long-lived memory</text><text fill="#000000" font-family="Helvetica" font-size="13" lengthAdjust="spacingAndGlyphs" textLength="270" x="103.5" y="792.8169">store the agent queries at relevant points.</text><!--MD5=[6de597d6f2c3b5db7bb29adef1fe1ed9]
link CaptureMemo to Memos--><path d="M160,131.9931 C160,151.2731 160,178.1731 160,200.7731 " fill="none" id="CaptureMemo-&gt;Memos" style="stroke: #000000; stroke-width: 1.3;"/><polygon fill="#000000" points="160,205.8231,164,196.8231,160,200.8231,156,196.8231,160,205.8231" style="stroke: #000000; stroke-width: 1.3;"/><text fill="#000000" font-family="Helvetica" font-size="11" lengthAdjust="spacingAndGlyphs" textLength="124" x="161" y="156.1636">writes pending memo</text><!--MD5=[4bd81d533c6cf9321431b9aefcac2dfd]
link Memos to Doctor--><path d="M195.26,283.9631 C209.21,296.7631 226.17,309.8431 244,317.9531 C272.01,330.6931 487.41,354.6831 518,357.9531 C544.13,360.7431 611.71,355.9131 636,365.9531 C658,375.0431 678,393.5231 691.49,408.2131 " fill="none" id="Memos-&gt;Doctor" style="stroke: #A02020; stroke-width: 2.0;"/><polygon fill="#A02020" points="695.11,412.2431,692.0625,402.8776,691.7652,408.5267,686.1161,408.2293,695.11,412.2431" style="stroke: #A02020; stroke-width: 2.0;"/><text fill="#000000" font-family="Helvetica" font-size="11" lengthAdjust="spacingAndGlyphs" textLength="110" x="519" y="342.1636">untriaged inventory</text><text fill="#000000" font-family="Helvetica" font-size="11" lengthAdjust="spacingAndGlyphs" textLength="92" x="528" y="354.9683">(machine query)</text><!--MD5=[91940960ab9a8ef2543312077fc81051]
link Spec to SpecReader--><path d="M835.94,407.8431 C822.48,393.8831 803.29,376.4331 783,365.9531 C722.56,334.7331 701.34,340.5531 634,330.9531 C579.37,323.1631 436.92,339.2231 386,317.9531 C360.43,307.2731 337.81,284.5531 323.4,267.4731 " fill="none" id="Spec-&gt;SpecReader" style="stroke: #A02020; stroke-width: 2.0;"/><polygon fill="#A02020" points="319.91,263.2631,322.5572,272.7496,323.094,267.1182,328.7254,267.6551,319.91,263.2631" style="stroke: #A02020; stroke-width: 2.0;"/><!--MD5=[bc5513d052cd97296c1e6cf2270d66af]
link SpecReader to ProcessMemos--><path d="M307.13,263.3331 C306.71,285.9631 303.99,326.3431 291,357.9531 C284.83,372.9731 274.79,387.7131 265.1,399.8731 " fill="none" id="SpecReader-&gt;ProcessMemos" style="stroke: #000000; stroke-width: 1.3;"/><polygon fill="#000000" points="261.83,403.8931,270.6098,399.4305,264.983,400.0126,264.4009,394.3857,261.83,403.8931" style="stroke: #000000; stroke-width: 1.3;"/><!--MD5=[436c56898a2138351dd1a7842b69aa77]
link Memos to ProcessMemos--><path d="M163.5,284.1031 C166.59,306.4131 172.35,334.6631 183,357.9531 C189.85,372.9231 200.35,387.6531 210.34,399.8231 " fill="none" id="Memos-&gt;ProcessMemos" style="stroke: #000000; stroke-width: 1.3;"/><polygon fill="#000000" points="213.71,403.8431,210.9866,394.3783,210.495,400.0138,204.8596,399.5222,213.71,403.8431" style="stroke: #000000; stroke-width: 1.3;"/><!--MD5=[3ca5e408ae862d252a52d07a152903d0]
link ProcessMemos to Memos--><path d="M224.81,403.8931 C218,390.3731 209.73,373.4131 203,357.9531 C193.22,335.5031 183.35,310.0531 175.54,289.0831 " fill="none" id="ProcessMemos-&gt;Memos" style="stroke: #000000; stroke-width: 1.3;"/><polygon fill="#000000" points="173.7,284.1331,173.0885,293.963,175.4431,288.8195,180.5866,291.174,173.7,284.1331" style="stroke: #000000; stroke-width: 1.3;"/><text fill="#000000" font-family="Helvetica" font-size="11" lengthAdjust="spacingAndGlyphs" textLength="42" x="224" y="342.1636">discard</text><text fill="#000000" font-family="Helvetica" font-size="11" lengthAdjust="spacingAndGlyphs" textLength="82" x="204" y="354.9683">(state marker)</text><!--MD5=[f356670c5009cefe28fd37f9494e61d8]
link ProcessMemos to WorkItems--><path d="M179.75,456.9731 C159.34,468.2131 137.63,483.0931 122,501.4531 C106.62,519.5231 97.24,545.0031 91.92,564.1631 " fill="none" id="ProcessMemos-&gt;WorkItems" style="stroke: #000000; stroke-width: 1.3;"/><polygon fill="#000000" points="90.53,569.3831,96.7111,561.7154,91.8165,564.5515,88.9804,559.6569,90.53,569.3831" style="stroke: #000000; stroke-width: 1.3;"/><text fill="#000000" font-family="Helvetica" font-size="11" lengthAdjust="spacingAndGlyphs" textLength="63" x="150.5" y="512.6636">impl-bound</text><text fill="#000000" font-family="Helvetica" font-size="11" lengthAdjust="spacingAndGlyphs" textLength="118" x="123" y="525.4683">(freeform work item)</text><!--MD5=[e81cbb5d45e320851ca1117dd08a4ab5]
link ProcessMemos to AgentKnowledge--><path d="M240.89,457.0831 C243.4,479.2931 247.1,512.1231 250.22,539.7131 " fill="none" id="ProcessMemos-&gt;AgentKnowledge" style="stroke: #000000; stroke-width: 1.3;"/><polygon fill="#000000" points="250.79,544.8031,253.7628,535.4136,250.2331,539.8342,245.8125,536.3046,250.79,544.8031" style="stroke: #000000; stroke-width: 1.3;"/><text fill="#000000" font-family="Helvetica" font-size="11" lengthAdjust="spacingAndGlyphs" textLength="122" x="250" y="512.6636">persistent-knowledge</text><text fill="#000000" font-family="Helvetica" font-size="11" lengthAdjust="spacingAndGlyphs" textLength="121" x="250.5" y="525.4683">(graduate the memo)</text><!--MD5=[bcae832c572b10c0086a5dbd5f75426b]
link ProcessMemos to Propose--><path d="M304.82,430.4531 C337.05,430.4531 376.54,430.4531 413.04,430.4531 " fill="none" id="ProcessMemos-&gt;Propose" style="stroke: #A02020; stroke-width: 2.0;"/><polygon fill="#A02020" points="418.4,430.4531,409.4,426.4531,413.4,430.4531,409.4,434.4531,418.4,430.4531" style="stroke: #A02020; stroke-width: 2.0;"/><text fill="#000000" font-family="Helvetica" font-size="11" lengthAdjust="spacingAndGlyphs" textLength="66" x="328.5" y="424.6636">spec-bound</text><!--MD5=[6aed50f60f52d38e3c9589f0bac08744]
link Propose to PCQueue--><path d="M523,448.5231 C523,476.2131 523,531.1431 523,564.1031 " fill="none" id="Propose-&gt;PCQueue" style="stroke: #000000; stroke-width: 1.3;"/><polygon fill="#000000" points="523,569.2031,527,560.2031,523,564.2031,519,560.2031,523,569.2031" style="stroke: #000000; stroke-width: 1.3;"/><!--MD5=[10a66968cb3b3044d7488d7275a3f66f]
link Memos to GMN127--><path d="M186.65,205.8931 C202.89,185.6731 225.59,162.9731 252,151.9531 C298.76,132.4331 316.9,139.4631 366,151.9531 C384.34,156.6131 402.84,163.6931 420.55,171.9031 " fill="none" id="Memos-GMN127" style="stroke: #000000; stroke-width: 1.3; stroke-dasharray: 7.0,7.0;"/><!--MD5=[8b976933c0863ff44b2397baf0a7fd64]
link Doctor to GMN130--><path d="M727.51,448.6931 C741.76,461.1931 762.44,477.7231 783,488.4531 C813.62,504.4331 883.91,527.1531 951.31,547.1431 " fill="none" id="Doctor-GMN130" style="stroke: #000000; stroke-width: 1.3; stroke-dasharray: 7.0,7.0;"/><!--MD5=[e3976084493b58379c5c4e777fe5815f]
link ProcessMemos to GMN133--><path d="M277.52,403.8031 C311.89,382.3331 363.92,353.8331 414,341.9531 C524.06,315.8431 812.45,318.0431 923,341.9531 C952.89,348.4131 983.7,359.8631 1011.76,372.4231 " fill="none" id="ProcessMemos-GMN133" style="stroke: #000000; stroke-width: 1.3; stroke-dasharray: 7.0,7.0;"/><!--MD5=[7b15bbfcddd6dfbad29ff78458910223]
@startuml memo-lifecycle
title Memo Lifecycle — Capture, Hygiene, Routing
skinparam defaultFontName Helvetica
skinparam shadowing false
skinparam BackgroundColor #fafafa
skinparam ArrowColor #000000
skinparam ArrowFontColor #000000
skinparam ArrowFontSize 11
skinparam ArrowThickness 1.3
skinparam nodesep 16
skinparam ranksep 26
hide stereotype

skinparam rectangle {
  BackgroundColor #d6e6f5
  BorderColor #1f4768
  FontColor #111
  RoundCorner 8
}
skinparam database {
  BackgroundColor #f5ead5
  BorderColor #5a4319
  FontColor #111
}
skinparam component {
  BackgroundColor #e0d4ec
  BorderColor #5a3a72
  FontColor #111
}
skinparam package {
  FontColor #111
  FontSize 13
  FontStyle bold
  BorderColor #444
  BorderThickness 2
}

package "SPEC SIDE" as SpecPkg #fde8ec {
  rectangle "/livespec:doctor" as Doctor
  rectangle "/livespec:propose-changes" as Propose
  database "SPECIFICATION/" as Spec #f5d76e
  database "proposed_changes/" as PCQueue
}

package "IMPLEMENTATION SIDE" as ImplPkg #e3f0e3 {
  rectangle "/livespec-impl-*:\ncapture-memo" as CaptureMemo
  rectangle "/livespec-impl-*:\nprocess-memos" as ProcessMemos
  component "Spec Reader" as SpecReader

  database "Memos\n(plugin-specific:\nbd Dolt / JSONL / ...)" as Memos
  database "Work Items" as WorkItems
  database "Persistent\nAgent Knowledge\n(harness instruction files,\nlong-lived memory store, ...)" as AgentKnowledge #f5d76e
}

CaptureMemo - -> Memos : writes pending memo

Memos -[#a02020,thickness=2]-> Doctor : untriaged inventory\n(machine query)

Spec -[#a02020,thickness=2]-> SpecReader
SpecReader - -> ProcessMemos

Memos - -> ProcessMemos
ProcessMemos - -> WorkItems : impl-bound\n(freeform work item)
ProcessMemos - -> AgentKnowledge : persistent-knowledge\n(graduate the memo)
ProcessMemos - -> Memos : discard\n(state marker)

ProcessMemos -[#a02020,thickness=2]-> Propose : spec-bound
Propose - -> PCQueue

note right of Memos : Queue + archive — dispositioned memos\nremain with a state marker for audit\n(spec-bound, impl-bound,\npersistent-knowledge, discard). Transient\nby construction: every memo MUST\neventually flow to spec, impl, persistent\nknowledge, or discard. Rejects the\npermanent-memory-store pattern from\ntools like bd remember.

note bottom of Doctor : Hygiene invariant: "no untriaged memo MUST\nremain unresolved beyond N days." Doctor\nqueries the active impl plugin via the\nmachine-readable contract; it does NOT\nknow how memos get resolved — only that\nthey should be.

note right of ProcessMemos : Per-memo handholding skill — walks each\npending memo via user dialogue with four\ndispositions. The handholding principle\nis load-bearing: users do not manually\ninvoke propose-changes for spec-bound memos;\nprocess-memos drives them through the\nappropriate downstream skill.

note bottom of AgentKnowledge : Long-term agent knowledge that doesn't fit\nas a spec requirement or as inline code.\nForm is implementation-dependent: file-based\nrealizations use harness instruction files\n(AGENTS.md / CLAUDE.md / .ai/<topic>.md);\nother plugins may use a long-lived memory\nstore the agent queries at relevant points.

@enduml

PlantUML version 1.2020.02(Sun Mar 01 11:22:07 CET 2020)
(GPL source distribution)
Java Runtime: OpenJDK Runtime Environment
JVM: OpenJDK 64-Bit Server VM
Java Version: 21.0.10+7-Ubuntu-125.10
Operating System: Linux
Default Encoding: UTF-8
Language: en
Country: null
--></g></svg>