<?xml version="1.0" encoding="UTF-8" standalone="no"?><svg xmlns="http://www.w3.org/2000/svg" xmlns:xlink="http://www.w3.org/1999/xlink" contentScriptType="application/ecmascript" contentStyleType="text/css" height="771px" preserveAspectRatio="none" style="width:4075px;height:771px;background:#FAFAFA;" version="1.1" viewBox="0 0 4075 771" width="4075px" zoomAndPan="magnify"><defs/><g><text fill="#000000" font-family="Helvetica" font-size="18" lengthAdjust="spacingAndGlyphs" textLength="266" x="1908" y="16.708">Multi-Repo Plugin Distribution</text><!--MD5=[2069c3c37ceb3264e7f2523a96eccf30]
cluster Plugin source repos (each a separate GitHub repo)--><polygon fill="#FAFAFA" points="342,459.9531,751,459.9531,758,482.25,2733,482.25,2733,759.9531,342,759.9531,342,459.9531" style="stroke: #000000; stroke-width: 1.5;"/><line style="stroke: #000000; stroke-width: 1.5;" x1="342" x2="758" y1="482.25" y2="482.25"/><text fill="#000000" font-family="Helvetica" font-size="14" font-weight="bold" lengthAdjust="spacingAndGlyphs" textLength="403" x="346" y="474.9482">Plugin source repos (each a separate GitHub repo)</text><!--MD5=[2c2e2644034c00788261e03c85b06837]
cluster Core--><rect fill="#FFFFE0" height="217" style="stroke: #111111; stroke-width: 1.5;" width="480" x="374" y="510.9531"/><text fill="#111111" font-family="Helvetica" font-size="14" font-weight="bold" lengthAdjust="spacingAndGlyphs" textLength="107" x="560.5" y="525.9482">livespec-core</text><!--MD5=[fed2c73ef599cdf2d2644d10704db68a]
cluster ImplPlain--><rect fill="#FFFFE0" height="120" style="stroke: #111111; stroke-width: 1.5;" width="510" x="894" y="559.4531"/><text fill="#111111" font-family="Helvetica" font-size="14" font-weight="bold" lengthAdjust="spacingAndGlyphs" textLength="177" x="1060.5" y="574.4482">livespec-impl-plaintext</text><!--MD5=[63ea166f98976442471960c54e405d98]
cluster ImplBeads--><rect fill="#FFFFE0" height="103" style="stroke: #111111; stroke-width: 1.5;" width="438" x="2021" y="567.9531"/><text fill="#111111" font-family="Helvetica" font-size="14" font-weight="bold" lengthAdjust="spacingAndGlyphs" textLength="157" x="2161.5" y="582.9482">livespec-impl-beads</text><!--MD5=[49b0fd6526d1033747c7ba520cfe12b9]
cluster ImplGitLab--><rect fill="#FFFFE0" height="120" style="stroke: #111111; stroke-width: 1.5;" width="537" x="1444" y="559.4531"/><text fill="#111111" font-family="Helvetica" font-size="14" font-weight="bold" lengthAdjust="spacingAndGlyphs" textLength="152" x="1636.5" y="574.4482">livespec-impl-gitlab</text><!--MD5=[7a5f6013d50c9a6ad0eda64e71b40eca]
cluster ConsumerRepo--><rect fill="#FFFFFF" height="177" style="stroke: #111111; stroke-width: 1.5;" width="1021" x="305" y="210.9531"/><text fill="#111111" font-family="Helvetica" font-size="14" font-weight="bold" lengthAdjust="spacingAndGlyphs" textLength="142" x="744.5" y="225.9482">Consumer project</text><text fill="#111111" font-family="Helvetica" font-size="14" font-weight="bold" lengthAdjust="spacingAndGlyphs" textLength="82" x="774.5" y="242.2451">repository</text><!--MD5=[2e33a83c78490f4dc71b45219c2c70ae]
entity ImplOthers--><rect fill="#FFFFE0" height="68.8906" style="stroke: #111111; stroke-width: 1.5;" width="234" x="2483" y="594.4531"/><text fill="#111111" font-family="Helvetica" font-size="14" lengthAdjust="spacingAndGlyphs" textLength="146" x="2493" y="617.4482">livespec-impl-gascity,</text><text fill="#111111" font-family="Helvetica" font-size="14" lengthAdjust="spacingAndGlyphs" textLength="214" x="2493" y="633.7451">livespec-impl-darkfactory-kilroy,</text><text fill="#111111" font-family="Helvetica" font-size="14" lengthAdjust="spacingAndGlyphs" textLength="12" x="2493" y="650.042">...</text><!--MD5=[9e12e1558ae8477273c0bd40fdbde7fa]
entity CoreSkills--><rect fill="#D6E6F5" height="22.2969" style="stroke: #1F4768; stroke-width: 1.5;" width="130" x="700" y="617.9531"/><text fill="#111111" font-family="Helvetica" font-size="14" lengthAdjust="spacingAndGlyphs" textLength="110" x="710" y="633.9482">/livespec:* skills</text><!--MD5=[a8d31c1093619714d95f04583c71f074]
entity CoreContract--><rect fill="#E6E6FA" height="150.375" style="stroke: #111111; stroke-width: 1.5;" width="248" x="417" y="553.9531"/><text fill="#111111" font-family="Helvetica" font-size="14" lengthAdjust="spacingAndGlyphs" textLength="72" x="427" y="576.9482">publishes:</text><text fill="#111111" font-family="Helvetica" font-size="14" lengthAdjust="spacingAndGlyphs" textLength="228" x="427" y="593.2451">• SPECIFICATION/ shape contract</text><text fill="#111111" font-family="Helvetica" font-size="14" lengthAdjust="spacingAndGlyphs" textLength="207" x="427" y="609.542">• .livespec.jsonc core schema</text><text fill="#111111" font-family="Helvetica" font-size="14" lengthAdjust="spacingAndGlyphs" textLength="148" x="427" y="625.8389">• impl-plugin contract</text><text fill="#111111" font-family="Helvetica" font-size="14" lengthAdjust="spacingAndGlyphs" textLength="181" x="427" y="642.1357">• Spec Reader API surface</text><text fill="#111111" font-family="Helvetica" font-size="14" lengthAdjust="spacingAndGlyphs" textLength="208" x="427" y="658.4326">• Persistent Agent Knowledge</text><text fill="#111111" font-family="Helvetica" font-size="14" lengthAdjust="spacingAndGlyphs" textLength="178" x="427" y="674.7295">conventions for file-based</text><text fill="#111111" font-family="Helvetica" font-size="14" lengthAdjust="spacingAndGlyphs" textLength="78" x="427" y="691.0264">realizations</text><!--MD5=[74d4a1abaf4cce97fc5a9cd960b221c0]
entity PlainSkills--><rect fill="#D6E6F5" height="22.2969" style="stroke: #1F4768; stroke-width: 1.5;" width="226" x="1154" y="617.9531"/><text fill="#111111" font-family="Helvetica" font-size="14" lengthAdjust="spacingAndGlyphs" textLength="206" x="1164" y="633.9482">/livespec-impl-plaintext:* skills</text><!--MD5=[8ac0560bebd63ab545fd7fa16aa95bd0]
entity PlainBackend--><rect fill="#FFFFFF" height="52.5938" style="stroke: #111111; stroke-width: 1.0; stroke-dasharray: 7.0,7.0;" width="182" x="937" y="602.4531"/><text fill="#111111" font-family="Helvetica" font-size="14" lengthAdjust="spacingAndGlyphs" textLength="162" x="947" y="625.4482">JSONL / md / html / yaml</text><text fill="#111111" font-family="Helvetica" font-size="14" lengthAdjust="spacingAndGlyphs" textLength="60" x="947" y="641.7451">backend</text><!--MD5=[ef9c57600f183559f3200d62b479cfc0]
entity BeadsSkills--><rect fill="#D6E6F5" height="22.2969" style="stroke: #1F4768; stroke-width: 1.5;" width="211" x="2223.5" y="617.9531"/><text fill="#111111" font-family="Helvetica" font-size="14" lengthAdjust="spacingAndGlyphs" textLength="191" x="2233.5" y="633.9482">/livespec-impl-beads:* skills</text><!--MD5=[ec3bfb71bbae807f19195b3009473243]
entity BeadsBackend--><rect fill="#FFFFFF" height="36.2969" style="stroke: #111111; stroke-width: 1.0; stroke-dasharray: 7.0,7.0;" width="124" x="2064" y="610.9531"/><text fill="#111111" font-family="Helvetica" font-size="14" lengthAdjust="spacingAndGlyphs" textLength="104" x="2074" y="633.9482">wraps bd / Dolt</text><!--MD5=[d7aaa957dc56d5cf0dc9460315633c2b]
entity GitLabSkills--><rect fill="#D6E6F5" height="22.2969" style="stroke: #1F4768; stroke-width: 1.5;" width="205" x="1752.5" y="617.9531"/><text fill="#111111" font-family="Helvetica" font-size="14" lengthAdjust="spacingAndGlyphs" textLength="185" x="1762.5" y="633.9482">/livespec-impl-gitlab:* skills</text><!--MD5=[1161b6aa87db580b4d4935ce805755bc]
entity GitLabBackend--><rect fill="#FFFFFF" height="52.5938" style="stroke: #111111; stroke-width: 1.0; stroke-dasharray: 7.0,7.0;" width="230" x="1487" y="602.4531"/><text fill="#111111" font-family="Helvetica" font-size="14" lengthAdjust="spacingAndGlyphs" textLength="113" x="1497" y="625.4482">wraps GitLab API</text><text fill="#111111" font-family="Helvetica" font-size="14" lengthAdjust="spacingAndGlyphs" textLength="210" x="1497" y="641.7451">(creds outside .livespec.jsonc)</text><!--MD5=[bc0454f76c761067c150a9682bc71416]
entity InstallCore--><rect fill="#D6E6F5" height="38.5938" style="stroke: #1F4768; stroke-width: 1.5;" width="138" x="599" y="297.4531"/><text fill="#111111" font-family="Helvetica" font-size="14" lengthAdjust="spacingAndGlyphs" textLength="90" x="609" y="313.4482">/plugin install</text><text fill="#111111" font-family="Helvetica" font-size="14" lengthAdjust="spacingAndGlyphs" textLength="118" x="609" y="329.7451">livespec-core@...</text><!--MD5=[afafe76ced0885c749fa5b1e4044528b]
entity InstallImpl--><rect fill="#D6E6F5" height="38.5938" style="stroke: #1F4768; stroke-width: 1.5;" width="210" x="1092" y="297.4531"/><text fill="#111111" font-family="Helvetica" font-size="14" lengthAdjust="spacingAndGlyphs" textLength="90" x="1102" y="313.4482">/plugin install</text><text fill="#111111" font-family="Helvetica" font-size="14" lengthAdjust="spacingAndGlyphs" textLength="190" x="1102" y="329.7451">livespec-impl-&lt;choice&gt;@...</text><!--MD5=[2c8113cc364a23b9ee674e814acb7abf]
entity Config--><path d="M935.5,295.9531 C935.5,285.9531 996,285.9531 996,285.9531 C996,285.9531 1056.5,285.9531 1056.5,295.9531 L1056.5,337.5469 C1056.5,347.5469 996,347.5469 996,347.5469 C996,347.5469 935.5,347.5469 935.5,337.5469 L935.5,295.9531 " fill="#F5EAD5" style="stroke: #5A4319; stroke-width: 1.5;"/><path d="M935.5,295.9531 C935.5,305.9531 996,305.9531 996,305.9531 C996,305.9531 1056.5,305.9531 1056.5,295.9531 " fill="none" style="stroke: #5A4319; stroke-width: 1.5;"/><text fill="#111111" font-family="Helvetica" font-size="14" lengthAdjust="spacingAndGlyphs" textLength="81" x="945.5" y="322.9482">consumer's</text><text fill="#111111" font-family="Helvetica" font-size="14" lengthAdjust="spacingAndGlyphs" textLength="101" x="945.5" y="339.2451">.livespec.jsonc</text><!--MD5=[97aa225eff20683e21779a77bedb79b4]
entity SpecTree--><path d="M772,295.9531 C772,285.9531 836,285.9531 836,285.9531 C836,285.9531 900,285.9531 900,295.9531 L900,337.5469 C900,347.5469 836,347.5469 836,347.5469 C836,347.5469 772,347.5469 772,337.5469 L772,295.9531 " fill="#F5D76E" style="stroke: #5A4319; stroke-width: 1.5;"/><path d="M772,295.9531 C772,305.9531 836,305.9531 836,305.9531 C836,305.9531 900,305.9531 900,295.9531 " fill="none" style="stroke: #5A4319; stroke-width: 1.5;"/><text fill="#111111" font-family="Helvetica" font-size="14" lengthAdjust="spacingAndGlyphs" textLength="81" x="782" y="322.9482">consumer's</text><text fill="#111111" font-family="Helvetica" font-size="14" lengthAdjust="spacingAndGlyphs" textLength="108" x="782" y="339.2451">SPECIFICATION/</text><!--MD5=[cd20a034834c6e5d1841e96140da69e2]
entity AgentKnowledge--><path d="M348,279.9531 C348,269.9531 456,269.9531 456,269.9531 C456,269.9531 564,269.9531 564,279.9531 L564,354.1406 C564,364.1406 456,364.1406 456,364.1406 C456,364.1406 348,364.1406 348,354.1406 L348,279.9531 " fill="#F5D76E" style="stroke: #5A4319; stroke-width: 1.5;"/><path d="M348,279.9531 C348,289.9531 456,289.9531 456,289.9531 C456,289.9531 564,289.9531 564,279.9531 " fill="none" style="stroke: #5A4319; stroke-width: 1.5;"/><text fill="#111111" font-family="Helvetica" font-size="14" lengthAdjust="spacingAndGlyphs" textLength="81" x="358" y="306.9482">consumer's</text><text fill="#111111" font-family="Helvetica" font-size="14" lengthAdjust="spacingAndGlyphs" textLength="196" x="358" y="323.2451">Persistent Agent Knowledge</text><text fill="#111111" font-family="Helvetica" font-size="14" lengthAdjust="spacingAndGlyphs" textLength="173" x="358" y="339.542">(harness instruction files,</text><text fill="#111111" font-family="Helvetica" font-size="14" lengthAdjust="spacingAndGlyphs" textLength="191" x="358" y="355.8389">long-lived memory store, ...)</text><!--MD5=[b37611e18c6480adc8bd036fe8a5d03e]
entity Shared--><rect fill="#E6E6FA" height="85.1875" style="stroke: #111111; stroke-width: 1.5;" width="226" x="1350" y="274.4531"/><text fill="#111111" font-family="Helvetica" font-size="14" lengthAdjust="spacingAndGlyphs" textLength="106" x="1360" y="297.4482">shared content</text><text fill="#111111" font-family="Helvetica" font-size="14" lengthAdjust="spacingAndGlyphs" textLength="206" x="1360" y="313.7451">(non-functional-requirements,</text><text fill="#111111" font-family="Helvetica" font-size="14" lengthAdjust="spacingAndGlyphs" textLength="183" x="1360" y="330.042">CI conventions, TDD rules,</text><text fill="#111111" font-family="Helvetica" font-size="14" lengthAdjust="spacingAndGlyphs" textLength="168" x="1360" y="346.3389">lefthook, justfile recipes)</text><path d="M3154.5,616.4531 L3154.5,641.5859 L4063.5,641.5859 L4063.5,626.4531 L4053.5,616.4531 L3154.5,616.4531 " fill="#FBFB77" style="stroke: #A80036; stroke-width: 1.0;"/><path d="M4053.5,616.4531 L4053.5,626.4531 L4063.5,626.4531 L4053.5,616.4531 " fill="#FBFB77" style="stroke: #A80036; stroke-width: 1.0;"/><text fill="#000000" font-family="Helvetica" font-size="13" lengthAdjust="spacingAndGlyphs" textLength="888" x="3160.5" y="633.52">Mechanical sync (subtree / generator / pinned package). Mechanism TBD; the existence of shared content survives the multi-repo decision.</text><!--MD5=[4d65782647d64e21a92b473b2db819be]
entity Consumer--><ellipse cx="932" cy="38.4531" fill="#FFFFFF" rx="8" ry="8" style="stroke: #111111; stroke-width: 1.5;"/><path d="M932,46.4531 L932,73.4531 M919,54.4531 L945,54.4531 M932,73.4531 L919,88.4531 M932,73.4531 L945,88.4531 " fill="none" style="stroke: #111111; stroke-width: 1.5;"/><text fill="#111111" font-family="Helvetica" font-size="14" lengthAdjust="spacingAndGlyphs" textLength="72" x="896" y="103.9482">Consumer</text><text fill="#111111" font-family="Helvetica" font-size="14" lengthAdjust="spacingAndGlyphs" textLength="48" x="896" y="120.2451">project</text><text fill="#111111" font-family="Helvetica" font-size="14" lengthAdjust="spacingAndGlyphs" textLength="72" x="896" y="136.542">maintainer</text><path d="M2752.5,593.4531 L2752.5,663.9844 L3119.5,663.9844 L3119.5,603.4531 L3109.5,593.4531 L2752.5,593.4531 " fill="#FBFB77" style="stroke: #A80036; stroke-width: 1.0;"/><path d="M3109.5,593.4531 L3109.5,603.4531 L3119.5,603.4531 L3109.5,593.4531 " fill="#FBFB77" style="stroke: #A80036; stroke-width: 1.0;"/><text fill="#000000" font-family="Helvetica" font-size="13" lengthAdjust="spacingAndGlyphs" textLength="282" x="2758.5" y="610.52">LiveSpec Core is one peer among N plugins.</text><text fill="#000000" font-family="Helvetica" font-size="13" lengthAdjust="spacingAndGlyphs" textLength="298" x="2758.5" y="625.6528">It's not privileged in the marketplace structure;</text><text fill="#000000" font-family="Helvetica" font-size="13" lengthAdjust="spacingAndGlyphs" textLength="334" x="2758.5" y="640.7856">it governs the SPECIFICATION/ surface and publishes</text><text fill="#000000" font-family="Helvetica" font-size="13" lengthAdjust="spacingAndGlyphs" textLength="346" x="2758.5" y="655.9185">the contract that every implementation plugin honors.</text><path d="M1611.5,281.4531 L1611.5,351.9844 L1914.5,351.9844 L1914.5,291.4531 L1904.5,281.4531 L1611.5,281.4531 " fill="#FBFB77" style="stroke: #A80036; stroke-width: 1.0;"/><path d="M1904.5,281.4531 L1904.5,291.4531 L1914.5,291.4531 L1904.5,281.4531 " fill="#FBFB77" style="stroke: #A80036; stroke-width: 1.0;"/><text fill="#000000" font-family="Helvetica" font-size="13" lengthAdjust="spacingAndGlyphs" textLength="282" x="1617.5" y="298.52">Consumer project installs ONE livespec-core</text><text fill="#000000" font-family="Helvetica" font-size="13" lengthAdjust="spacingAndGlyphs" textLength="262" x="1617.5" y="313.6528">plus EXACTLY ONE livespec-impl-* plugin.</text><text fill="#000000" font-family="Helvetica" font-size="13" lengthAdjust="spacingAndGlyphs" textLength="264" x="1617.5" y="328.7856">The choice is recorded in .livespec.jsonc's</text><text fill="#000000" font-family="Helvetica" font-size="13" lengthAdjust="spacingAndGlyphs" textLength="187" x="1617.5" y="343.9185">`implementation.plugin` key.</text><path d="M6,570.9531 L6,686.8828 L326,686.8828 L326,580.9531 L316,570.9531 L6,570.9531 " fill="#FBFB77" style="stroke: #A80036; stroke-width: 1.0;"/><path d="M316,570.9531 L316,580.9531 L326,580.9531 L316,570.9531 " fill="#FBFB77" style="stroke: #A80036; stroke-width: 1.0;"/><text fill="#000000" font-family="Helvetica" font-size="13" lengthAdjust="spacingAndGlyphs" textLength="299" x="12" y="588.02">Persistent Agent Knowledge is one of the three</text><text fill="#000000" font-family="Helvetica" font-size="13" lengthAdjust="spacingAndGlyphs" textLength="266" x="12" y="603.1528">stores (alongside SPECIFICATION/ and the</text><text fill="#000000" font-family="Helvetica" font-size="13" lengthAdjust="spacingAndGlyphs" textLength="215" x="12" y="618.2856">realized Implementation). Form is</text><text fill="#000000" font-family="Helvetica" font-size="13" lengthAdjust="spacingAndGlyphs" textLength="258" x="12" y="633.4185">plugin-dependent: file-based plugins use</text><text fill="#000000" font-family="Helvetica" font-size="13" lengthAdjust="spacingAndGlyphs" textLength="246" x="12" y="648.5513">harness instruction files (AGENTS.md /</text><text fill="#000000" font-family="Helvetica" font-size="13" lengthAdjust="spacingAndGlyphs" textLength="283" x="12" y="663.6841">CLAUDE.md / .ai/&lt;topic&gt;.md); other plugins</text><text fill="#000000" font-family="Helvetica" font-size="13" lengthAdjust="spacingAndGlyphs" textLength="231" x="12" y="678.8169">may use a long-lived memory store.</text><!--MD5=[bb57ed1bd13ddad8c4eb774c77161087]
link Shared to GMN156--><path d="M1511.81,359.6631 C1535.1,376.8931 1564.32,394.9331 1594,403.9531 C1617.76,411.1731 2463.18,411.0731 2488,411.9531 C2776.81,422.1431 2854.31,391.9231 3137,451.9531 C3316.22,490.0131 3518.21,583.6431 3585.68,616.4131 " fill="none" id="Shared-GMN156" style="stroke: #000000; stroke-width: 1.0; stroke-dasharray: 7.0,7.0;"/><!--MD5=[8c7ccda94f09c6f7eea580de4e5aebe1]
link Consumer to InstallCore--><path d="M895.95,102.4031 C858.05,121.3731 798.07,154.7731 755,194.9531 C723.35,224.4831 695.9,267.1031 680.69,293.0831 " fill="none" id="Consumer-&gt;InstallCore" style="stroke: #000000; stroke-width: 1.0;"/><polygon fill="#000000" points="678.18,297.4231,686.145,291.6301,680.6807,293.0934,679.2174,287.6291,678.18,297.4231" style="stroke: #000000; stroke-width: 1.0;"/><text fill="#000000" font-family="Helvetica" font-size="13" lengthAdjust="spacingAndGlyphs" textLength="79" x="781" y="183.02">installs once</text><!--MD5=[18e91932285c1df302c512d85c5a7683]
link Consumer to InstallImpl--><path d="M968.25,111.5231 C997.52,133.0231 1039.39,164.7731 1074,194.9531 C1111.29,227.4631 1151.66,268.3931 1175.62,293.3431 " fill="none" id="Consumer-&gt;InstallImpl" style="stroke: #000000; stroke-width: 1.0;"/><polygon fill="#000000" points="1179.32,297.2031,1175.9712,287.9411,1175.8567,293.5968,1170.201,293.4823,1179.32,297.2031" style="stroke: #000000; stroke-width: 1.0;"/><text fill="#000000" font-family="Helvetica" font-size="13" lengthAdjust="spacingAndGlyphs" textLength="95" x="1063" y="183.02">picks ONE impl</text><!--MD5=[716fea8ee3a283adec0cd226654f5bb8]
link InstallCore to Core--><path d="M656.06,336.5031 C641.46,357.3231 614.61,390.0031 582,403.9531 C564.32,411.5131 249.44,398.2031 236,411.9531 C226.06,422.1231 226.32,433.5331 236,443.9531 C252.38,461.5831 325.84,436.1531 344,451.9531 C358.8575,464.8806 368.7038,482.1044 375.1055,500.7269 C375.9057,503.0547 376.6521,505.4044 377.3477,507.7702 C377.5216,508.3617 377.6924,508.9542 377.86,509.5476 C377.9438,509.8443 378.0268,510.1412 378.109,510.4384 " fill="none" id="InstallCore-&gt;Core" style="stroke: #000000; stroke-width: 1.0; stroke-dasharray: 7.0,7.0;"/><polygon fill="#000000" points="378.109,510.4384,379.5632,500.6974,376.7752,505.6195,371.8531,502.8315,378.109,510.4384" style="stroke: #000000; stroke-width: 1.0;"/><text fill="#000000" font-family="Helvetica" font-size="13" lengthAdjust="spacingAndGlyphs" textLength="121" x="237" y="432.52">marketplace install</text><!--MD5=[fb0bc230ed615eea325661de5750c971]
link InstallImpl to ImplPlain--><path d="M1189.41,336.6731 C1176.53,365.6431 1147.38,420.4531 1103,443.9531 C1085.11,453.4231 935.76,438.1031 921,451.9531 C892.76,478.4481 887.715,521.4981 889.8738,558.3881 C890.4134,567.6106 891.4034,576.4481 892.5937,584.5457 C892.8912,586.5701 893.2013,588.5482 893.52,590.4746 C893.5997,590.9562 893.6799,591.4345 893.7606,591.9096 C893.801,592.1471 893.8414,592.3838 893.882,592.6196 " fill="none" id="InstallImpl-&gt;ImplPlain" style="stroke: #000000; stroke-width: 1.0; stroke-dasharray: 7.0,7.0;"/><polygon fill="#000000" points="893.882,592.6196,896.298,583.0717,893.0342,587.692,888.4138,584.4282,893.882,592.6196" style="stroke: #000000; stroke-width: 1.0;"/><text fill="#000000" font-family="Helvetica" font-size="13" lengthAdjust="spacingAndGlyphs" textLength="18" x="1143" y="432.52">OR</text><!--MD5=[78fe76fc0f72bb67e925f3caaff01846]
link InstallImpl to ImplBeads--><path d="M1218.29,336.4731 C1243.64,357.2531 1288.22,389.9031 1333,403.9531 C1371.42,416.0031 1474.13,406.3331 1514,411.9531 C1574.2,420.4431 1586.72,436.0531 1647,443.9531 C1664.96,446.3031 1958.51,441.0831 1973,451.9531 C2005.32,476.1981 2019.39,519.2131 2025.3463,556.6481 C2025.7185,558.9878 2026.0591,561.3057 2026.3704,563.5959 C2026.5261,564.7409 2026.6745,565.8791 2026.8159,567.0095 C2026.8512,567.2921 2026.8861,567.5743 2026.9206,567.8559 " fill="none" id="InstallImpl-&gt;ImplBeads" style="stroke: #000000; stroke-width: 1.0; stroke-dasharray: 7.0,7.0;"/><polygon fill="#000000" points="2026.9206,567.8559,2029.7975,558.4366,2026.3131,562.893,2021.8567,559.4086,2026.9206,567.8559" style="stroke: #000000; stroke-width: 1.0;"/><text fill="#000000" font-family="Helvetica" font-size="13" lengthAdjust="spacingAndGlyphs" textLength="18" x="1648" y="432.52">OR</text><!--MD5=[8e2097967dacaaad34f67c5c4e98327d]
link InstallImpl to ImplGitLab--><path d="M1227.08,336.6631 C1279.72,369.6331 1384.1,436.0831 1396,451.9531 C1420.23,484.2831 1434.175,527.4231 1442.0888,562.9006 C1442.5834,565.118 1443.0544,567.3054 1443.5029,569.4584 C1443.6151,569.9966 1443.7258,570.5327 1443.8351,571.0666 C1443.8898,571.3335 1443.9441,571.5999 1443.9981,571.8657 " fill="none" id="InstallImpl-&gt;ImplGitLab" style="stroke: #000000; stroke-width: 1.0; stroke-dasharray: 7.0,7.0;"/><polygon fill="#000000" points="1443.9981,571.8657,1446.1272,562.2497,1443.0031,566.9657,1438.2872,563.8416,1443.9981,571.8657" style="stroke: #000000; stroke-width: 1.0;"/><text fill="#000000" font-family="Helvetica" font-size="13" lengthAdjust="spacingAndGlyphs" textLength="18" x="1387" y="432.52">OR</text><!--MD5=[a7ab84ecfed5f06fcfdd644cc63ec06d]
link InstallImpl to ImplOthers--><path d="M1218.21,336.7331 C1243.49,357.7531 1288,390.6331 1333,403.9531 C1405.67,425.4631 1941.87,392.0731 2015,411.9531 C2042.66,419.4731 2043.37,436.3031 2071,443.9531 C2111.7,455.2231 2412.88,433.7831 2451,451.9531 C2511.5,480.7831 2556.59,547.1631 2580.55,589.6631 " fill="none" id="InstallImpl-&gt;ImplOthers" style="stroke: #000000; stroke-width: 1.0; stroke-dasharray: 7.0,7.0;"/><polygon fill="#000000" points="2583.09,594.2031,2582.2158,584.3931,2580.6618,589.8323,2575.2226,588.2783,2583.09,594.2031" style="stroke: #000000; stroke-width: 1.0;"/><!--MD5=[e5211120e6c56b45eb86bfd90c541346]
link Shared to Core--><path d="M1408.29,359.6031 C1382.37,376.8331 1350.11,394.8831 1318,403.9531 C1290.41,411.7531 828.49,400.9831 802,411.9531 C783.13,419.7731 787.85,436.0731 769,443.9531 C750.13,451.8431 416.07,438.1231 401,451.9531 C372.47,478.1331 367.4225,521.1781 369.6525,558.1444 C370.21,567.3859 371.2223,576.2476 372.4363,584.3708 C372.7398,586.4016 373.0559,588.3863 373.3807,590.3192 C373.543,591.2856 373.7076,592.2391 373.8738,593.179 C373.9153,593.414 373.957,593.6481 373.9987,593.8813 " fill="none" id="Shared-&gt;Core" style="stroke: #000000; stroke-width: 1.0; stroke-dasharray: 7.0,7.0;"/><polygon fill="#000000" points="373.9987,593.8813,376.3504,584.3174,373.1178,588.9596,368.4756,585.7269,373.9987,593.8813" style="stroke: #000000; stroke-width: 1.0;"/><text fill="#000000" font-family="Helvetica" font-size="13" lengthAdjust="spacingAndGlyphs" textLength="45" x="803" y="432.52">synced</text><!--MD5=[3c79f14057fb266bc58d5d39f50772b7]
link Shared to ImplPlain--><path d="M1401.43,359.4931 C1376.35,375.0631 1346.58,391.8831 1318,403.9531 C1314.08,405.6131 1174.21,443.3231 1170,443.9531 C1156.31,445.9931 931.15,442.5431 921,451.9531 C892.605,478.2831 887.5575,521.3306 889.7538,558.2606 C890.3028,567.4931 891.3046,576.3433 892.5075,584.4543 C892.8082,586.4821 893.1215,588.4636 893.4435,590.3934 C893.6044,591.3583 893.7676,592.3102 893.9324,593.2485 " fill="none" id="Shared-&gt;ImplPlain" style="stroke: #000000; stroke-width: 1.0; stroke-dasharray: 7.0,7.0;"/><polygon fill="#000000" points="893.9324,593.2485,896.3152,583.6923,893.0675,588.3239,888.4358,585.0762,893.9324,593.2485" style="stroke: #000000; stroke-width: 1.0;"/><text fill="#000000" font-family="Helvetica" font-size="13" lengthAdjust="spacingAndGlyphs" textLength="45" x="1289" y="432.52">synced</text><!--MD5=[f62fb5c5fa4319f90721d6baca769119]
link Shared to ImplBeads--><path d="M1513.76,359.5631 C1536.86,376.2331 1565.4,393.8431 1594,403.9531 C1628.11,416.0031 1639.07,407.7731 1675,411.9531 C1807.74,427.4131 1870.63,366.0631 1973,451.9531 C2003.95,477.9231 2018,520.9656 2024.2875,557.9831 C2024.6805,560.2967 2025.0431,562.5868 2025.3777,564.8477 C2025.4613,565.4129 2025.5432,565.9763 2025.6234,566.5378 C2025.6634,566.8185 2025.7031,567.0988 2025.7423,567.3786 " fill="none" id="Shared-&gt;ImplBeads" style="stroke: #000000; stroke-width: 1.0; stroke-dasharray: 7.0,7.0;"/><polygon fill="#000000" points="2025.7423,567.3786,2028.454,557.9103,2025.0481,562.427,2020.5315,559.0211,2025.7423,567.3786" style="stroke: #000000; stroke-width: 1.0;"/><text fill="#000000" font-family="Helvetica" font-size="13" lengthAdjust="spacingAndGlyphs" textLength="45" x="1961" y="432.52">synced</text><!--MD5=[aec85ed0499d2e7205d0c1d91bc3ec2e]
link Shared to ImplGitLab--><path d="M1461.52,359.7631 C1460.04,401.4081 1457.71,467.0281 1455.725,522.9344 C1455.4769,529.9227 1455.2341,536.7592 1454.9991,543.3781 C1454.8816,546.6876 1454.7661,549.9426 1454.6527,553.1351 C1454.596,554.7313 1454.5399,556.3119 1454.4844,557.8758 C1454.4705,558.2667 1454.4567,558.6567 1454.4428,559.0455 " fill="none" id="Shared-&gt;ImplGitLab" style="stroke: #000000; stroke-width: 1.0; stroke-dasharray: 7.0,7.0;"/><polygon fill="#000000" points="1454.4428,559.0455,1458.7597,550.1931,1454.6203,554.0487,1450.7647,549.9093,1454.4428,559.0455" style="stroke: #000000; stroke-width: 1.0;"/><text fill="#000000" font-family="Helvetica" font-size="13" lengthAdjust="spacingAndGlyphs" textLength="45" x="1460" y="432.52">synced</text><!--MD5=[d03fdae9ec855cdd90bed47c7b1e58d5]
link Shared to ImplOthers--><path d="M1511.84,359.5531 C1535.14,376.7731 1564.36,394.8231 1594,403.9531 C1619.54,411.8231 2048.32,410.3131 2075,411.9531 C2242.74,422.2531 2302.49,373.2831 2451,451.9531 C2509.88,483.1431 2555.18,548.1731 2579.67,589.8531 " fill="none" id="Shared-&gt;ImplOthers" style="stroke: #000000; stroke-width: 1.0; stroke-dasharray: 7.0,7.0;"/><polygon fill="#000000" points="2582.26,594.3131,2581.1843,584.5232,2579.7424,589.9932,2574.2724,588.5513,2582.26,594.3131" style="stroke: #000000; stroke-width: 1.0;"/><text fill="#000000" font-family="Helvetica" font-size="13" lengthAdjust="spacingAndGlyphs" textLength="45" x="2434" y="432.52">synced</text><!--MD5=[5cb6599f385e35662224029970035d98]
link Core to Config--><path d="M373.9041,592.6395 C373.8637,592.4038 373.8233,592.1672 373.7831,591.9298 C373.7026,591.455 373.6226,590.9769 373.5431,590.4955 C373.2252,588.5701 372.9159,586.5929 372.6191,584.5694 C371.432,576.4755 370.445,567.6416 369.9075,558.4219 C367.7575,521.5431 372.8,478.4931 401,451.9531 C414.77,438.9931 553.49,451.0831 571,443.9531 C590.83,435.8731 587.09,419.8131 607,411.9531 C639.15,399.2531 886.58,418.3631 918,403.9531 C941.68,393.0931 961.33,371.2831 974.98,352.3431 " fill="none" id="Core-&gt;Config" style="stroke: #000000; stroke-width: 1.0; stroke-dasharray: 7.0,7.0;"/><polygon fill="#000000" points="977.97,348.1031,969.5106,353.1468,975.0855,352.1872,976.0451,357.762,977.97,348.1031" style="stroke: #000000; stroke-width: 1.0;"/><text fill="#000000" font-family="Helvetica" font-size="13" lengthAdjust="spacingAndGlyphs" textLength="156" x="608" y="432.52">reads core schema keys</text><!--MD5=[e245818356937bbf3dd3203df3427426]
link ImplPlain to Config--><path d="M894.5799,559.1323 C894.5702,558.0055 894.5663,556.8719 894.5686,555.7321 C894.5732,553.4525 894.6026,551.1481 894.6596,548.8236 C894.7736,544.1744 894.9979,539.4445 895.3551,534.6707 C896.0695,525.123 897.3154,515.3996 899.273,505.7952 C903.1881,486.5863 909.95,467.8531 921,451.9531 C925.54,445.4231 931.45,449.6431 937,443.9531 C961.84,418.4631 977.63,380.5831 986.56,353.0131 " fill="none" id="ImplPlain-&gt;Config" style="stroke: #000000; stroke-width: 1.0; stroke-dasharray: 7.0,7.0;"/><polygon fill="#000000" points="988.15,347.9931,981.635,355.3793,986.6505,352.763,989.2668,357.7785,988.15,347.9931" style="stroke: #000000; stroke-width: 1.0;"/><text fill="#000000" font-family="Helvetica" font-size="13" lengthAdjust="spacingAndGlyphs" textLength="134" x="960" y="425.02">reads its own section</text><text fill="#000000" font-family="Helvetica" font-size="13" lengthAdjust="spacingAndGlyphs" textLength="115" x="969.5" y="440.1528">(only when active)</text><!--MD5=[70e63a78f141e9b6fda057ce672167bb]
link Core to SpecTree--><path d="M373.9026,599.8921 C373.7813,599.4016 373.6597,598.9059 373.5378,598.4051 C373.294,597.4037 373.0492,596.382 372.8041,595.3411 C372.3138,593.2593 371.8221,591.1004 371.3341,588.871 C370.358,584.4123 369.3967,579.6722 368.4911,574.705 C366.6799,564.7705 365.0916,553.9278 364.0538,542.6119 C359.9025,497.3481 364.56,444.5131 399,411.9531 C413.38,398.3631 736.93,412.0031 755,403.9531 C779.21,393.1731 799.62,371.3631 813.9,352.4031 " fill="none" id="Core-&gt;SpecTree" style="stroke: #000000; stroke-width: 1.0; stroke-dasharray: 7.0,7.0;"/><polygon fill="#000000" points="817.03,348.1531,808.4686,353.0217,814.0621,352.177,814.9068,357.7704,817.03,348.1531" style="stroke: #000000; stroke-width: 1.0;"/><text fill="#000000" font-family="Helvetica" font-size="13" lengthAdjust="spacingAndGlyphs" textLength="166" x="400" y="432.52">governs (writes via revise)</text><!--MD5=[efca68eac4913d18c5731b0e808b912a]
link ImplPlain to SpecTree--><path d="M893.8741,589.7781 C893.5995,588.488 893.3193,587.1723 893.034,585.832 C892.4632,583.1513 891.8715,580.3722 891.2608,577.5036 C890.0393,571.7665 888.7416,565.6713 887.3828,559.2894 C884.6652,546.5255 881.7034,532.6147 878.6188,518.1269 C866.28,460.1756 851.975,392.9931 843.47,353.0631 " fill="none" id="ImplPlain-&gt;SpecTree" style="stroke: #000000; stroke-width: 1.0; stroke-dasharray: 7.0,7.0;"/><polygon fill="#000000" points="842.39,347.9631,840.3569,357.5998,843.4337,352.853,848.1806,355.9299,842.39,347.9631" style="stroke: #000000; stroke-width: 1.0;"/><text fill="#000000" font-family="Helvetica" font-size="13" lengthAdjust="spacingAndGlyphs" textLength="66" x="862" y="432.52">reads only</text><!--MD5=[148a07753eafc00e697b84c9ddf2c44f]
link Core to GMN182--><path d="M373.9569,589.2308 C373.7893,588.1164 373.6239,586.9858 373.4613,585.8399 C372.811,581.2562 372.2057,576.4275 371.6831,571.4157 C370.6379,561.3921 369.9234,550.6359 369.8413,539.6419 C369.5125,495.6656 379.3,447.8831 418.5,427.9531 C475.38,399.0331 2656,404.9031 2715.5,427.9531 C2801.24,461.1631 2874.08,544.9531 2910.7,593.2131 " fill="none" id="Core-GMN182" style="stroke: #000000; stroke-width: 1.0; stroke-dasharray: 7.0,7.0;"/><!--MD5=[10c2429da2c56d236444f2699cf1c8f4]
link ConsumerRepo to GMN185--><path d="M316.2163,210.9527 C316.5336,209.9961 316.8628,209.0455 317.2041,208.1016 C317.8867,206.2138 318.6179,204.3526 319.4005,202.5233 C325.6613,187.8888 335.2125,175.2956 349.5,167.4531 C409.26,134.6531 1512.19,144.8531 1576.5,167.4531 C1640.51,189.9431 1698.83,244.6831 1732.62,281.3131 " fill="none" id="ConsumerRepo-GMN185" style="stroke: #000000; stroke-width: 1.0; stroke-dasharray: 7.0,7.0;"/><!--MD5=[495122f80040f85382189f2eec1c3f86]
link AgentKnowledge to GMN188--><path d="M408.86,364.0931 C390.16,379.5631 367.52,395.1131 344,403.9531 C318.15,413.6731 241.21,394.2631 220,411.9531 C174.28,450.0831 164.03,520.5031 163.11,570.5631 " fill="none" id="AgentKnowledge-GMN188" style="stroke: #000000; stroke-width: 1.0; stroke-dasharray: 7.0,7.0;"/><!--MD5=[e0a80ce69e6eddca0d0a11313df0e688]
@startuml multi-repo-layout
title Multi-Repo Plugin Distribution
skinparam defaultFontName Helvetica
skinparam shadowing false
skinparam BackgroundColor #fafafa
skinparam ArrowColor #000000
skinparam ArrowFontColor #000000

skinparam rectangle {
  BorderColor #111
  BackgroundColor white
  FontColor #111
}
skinparam database {
  BackgroundColor #f5ead5
  BorderColor #5a4319
  FontColor #111
}
skinparam card {
  BorderColor #1f4768
  BackgroundColor #d6e6f5
  FontColor #111
}
skinparam actor {
  BorderColor #111
  BackgroundColor white
  FontColor #111
}

package "Plugin source repos (each a separate GitHub repo)" {
  rectangle "livespec-core" as Core #LightYellow {
    card "/livespec:* skills" as CoreSkills
    rectangle "publishes:\n• SPECIFICATION/ shape contract\n• .livespec.jsonc core schema\n• impl-plugin contract\n• Spec Reader API surface\n• Persistent Agent Knowledge\n  conventions for file-based\n  realizations" as CoreContract #Lavender
  }
  rectangle "livespec-impl-plaintext" as ImplPlain #LightYellow {
    card "/livespec-impl-plaintext:* skills" as PlainSkills
    rectangle "JSONL / md / html / yaml\nbackend" as PlainBackend #FFFFFF;line.dashed
  }
  rectangle "livespec-impl-beads" as ImplBeads #LightYellow {
    card "/livespec-impl-beads:* skills" as BeadsSkills
    rectangle "wraps bd / Dolt" as BeadsBackend #FFFFFF;line.dashed
  }
  rectangle "livespec-impl-gitlab" as ImplGitLab #LightYellow {
    card "/livespec-impl-gitlab:* skills" as GitLabSkills
    rectangle "wraps GitLab API\n(creds outside .livespec.jsonc)" as GitLabBackend #FFFFFF;line.dashed
  }
  rectangle "livespec-impl-gascity,\nlivespec-impl-darkfactory-kilroy,\n..." as ImplOthers #LightYellow
}

rectangle "shared content\n(non-functional-requirements,\nCI conventions, TDD rules,\nlefthook, justfile recipes)" as Shared #Lavender
note bottom of Shared : Mechanical sync (subtree / generator / pinned package). Mechanism TBD; the existence of shared content survives the multi-repo decision.

actor "Consumer\nproject\nmaintainer" as Consumer
rectangle "Consumer project\nrepository" as ConsumerRepo {
  card "/plugin install\nlivespec-core@..." as InstallCore
  card "/plugin install\nlivespec-impl-<choice>@..." as InstallImpl
  database "consumer's\n.livespec.jsonc" as Config
  database "consumer's\nSPECIFICATION/" as SpecTree #f5d76e
  database "consumer's\nPersistent Agent Knowledge\n(harness instruction files,\nlong-lived memory store, ...)" as AgentKnowledge #f5d76e
}

Consumer - -> InstallCore : installs once
Consumer - -> InstallImpl : picks ONE impl
InstallCore ..> Core : marketplace install
InstallImpl ..> ImplPlain : OR
InstallImpl ..> ImplBeads : OR
InstallImpl ..> ImplGitLab : OR
InstallImpl ..> ImplOthers

Shared ..> Core : synced
Shared ..> ImplPlain : synced
Shared ..> ImplBeads : synced
Shared ..> ImplGitLab : synced
Shared ..> ImplOthers : synced

Core ..> Config : reads core schema keys
ImplPlain ..> Config : reads its own section\n(only when active)
Core ..> SpecTree : governs (writes via revise)
ImplPlain ..> SpecTree : reads only

note right of Core : LiveSpec Core is one peer among N plugins.\nIt's not privileged in the marketplace structure;\nit governs the SPECIFICATION/ surface and publishes\nthe contract that every implementation plugin honors.

note right of ConsumerRepo : Consumer project installs ONE livespec-core\nplus EXACTLY ONE livespec-impl-* plugin.\nThe choice is recorded in .livespec.jsonc's\n`implementation.plugin` key.

note bottom of AgentKnowledge : Persistent Agent Knowledge is one of the three\nstores (alongside SPECIFICATION/ and the\nrealized Implementation). Form is\nplugin-dependent: file-based plugins use\nharness instruction files (AGENTS.md /\nCLAUDE.md / .ai/<topic>.md); other plugins\nmay use a long-lived memory store.

@enduml

PlantUML version 1.2020.02(Sun Mar 01 11:22:07 CET 2020)
(GPL source distribution)
Java Runtime: OpenJDK Runtime Environment
JVM: OpenJDK 64-Bit Server VM
Java Version: 21.0.10+7-Ubuntu-125.10
Operating System: Linux
Default Encoding: UTF-8
Language: en
Country: null
--></g></svg>