<?xml version="1.0" encoding="UTF-8" standalone="no"?><svg xmlns="http://www.w3.org/2000/svg" xmlns:xlink="http://www.w3.org/1999/xlink" contentScriptType="application/ecmascript" contentStyleType="text/css" height="1322px" preserveAspectRatio="none" style="width:1353px;height:1322px;background:#FAFAFA;" version="1.1" viewBox="0 0 1353 1322" width="1353px" zoomAndPan="magnify"><defs/><g><text fill="#000000" font-family="Helvetica" font-size="18" lengthAdjust="spacingAndGlyphs" textLength="469" x="442.5" y="26.708">Sequence — /livespec:revise (selective per-proposal)</text><rect fill="#FFFFFF" height="918.6641" style="stroke: #444444; stroke-width: 1.0;" width="10" x="467" y="164.6797"/><rect fill="#FAFAFA" height="780.1328" style="stroke: #000000; stroke-width: 2.0;" width="1328" x="13" y="296.2109"/><rect fill="#FAFAFA" height="733.8672" style="stroke: none; stroke-width: 1.0;" width="1328" x="13" y="342.4766"/><rect fill="#FAFAFA" height="281.9375" style="stroke: #000000; stroke-width: 2.0;" width="674" x="23" y="437.6797"/><rect fill="#FAFAFA" height="206.5391" style="stroke: #000000; stroke-width: 2.0;" width="654" x="33" y="506.0781"/><rect fill="#FAFAFA" height="101.2031" style="stroke: none; stroke-width: 1.0;" width="654" x="33" y="552.3438"/><rect fill="#FAFAFA" height="59.0703" style="stroke: none; stroke-width: 1.0;" width="654" x="33" y="653.5469"/><line style="stroke: #444444; stroke-width: 1.0; stroke-dasharray: 5.0,5.0;" x1="106" x2="106" y1="133.5469" y2="1219.2734"/><line style="stroke: #444444; stroke-width: 1.0; stroke-dasharray: 5.0,5.0;" x1="471.5" x2="471.5" y1="133.5469" y2="1219.2734"/><line style="stroke: #444444; stroke-width: 1.0; stroke-dasharray: 5.0,5.0;" x1="686.5" x2="686.5" y1="133.5469" y2="1219.2734"/><line style="stroke: #444444; stroke-width: 1.0; stroke-dasharray: 5.0,5.0;" x1="835.5" x2="835.5" y1="133.5469" y2="1219.2734"/><line style="stroke: #444444; stroke-width: 1.0; stroke-dasharray: 5.0,5.0;" x1="983.5" x2="983.5" y1="133.5469" y2="1219.2734"/><line style="stroke: #444444; stroke-width: 1.0; stroke-dasharray: 5.0,5.0;" x1="1086.5" x2="1086.5" y1="133.5469" y2="1219.2734"/><line style="stroke: #444444; stroke-width: 1.0; stroke-dasharray: 5.0,5.0;" x1="1242" x2="1242" y1="133.5469" y2="1219.2734"/><text fill="#111111" font-family="Helvetica" font-size="14" lengthAdjust="spacingAndGlyphs" textLength="78" x="64" y="113.9482">Initial intent</text><text fill="#111111" font-family="Helvetica" font-size="14" lengthAdjust="spacingAndGlyphs" textLength="120" x="43" y="130.2451">(human or agent)</text><ellipse cx="106" cy="47.9531" fill="#FFFACC" rx="8" ry="8" style="stroke: #111111; stroke-width: 2.0;"/><path d="M106,55.9531 L106,82.9531 M93,63.9531 L119,63.9531 M106,82.9531 L93,97.9531 M106,82.9531 L119,97.9531 " fill="none" style="stroke: #111111; stroke-width: 2.0;"/><text fill="#111111" font-family="Helvetica" font-size="14" lengthAdjust="spacingAndGlyphs" textLength="78" x="64" y="1231.2686">Initial intent</text><text fill="#111111" font-family="Helvetica" font-size="14" lengthAdjust="spacingAndGlyphs" textLength="120" x="43" y="1247.5654">(human or agent)</text><ellipse cx="106" cy="1260.8672" fill="#FFFACC" rx="8" ry="8" style="stroke: #111111; stroke-width: 2.0;"/><path d="M106,1268.8672 L106,1295.8672 M93,1276.8672 L119,1276.8672 M106,1295.8672 L93,1310.8672 M106,1295.8672 L119,1310.8672 " fill="none" style="stroke: #111111; stroke-width: 2.0;"/><rect fill="#D6E6F5" height="30.2969" style="stroke: #1F4768; stroke-width: 1.5;" width="121" x="411.5" y="102.25"/><text fill="#111111" font-family="Helvetica" font-size="14" lengthAdjust="spacingAndGlyphs" textLength="107" x="418.5" y="122.2451">/livespec:revise</text><rect fill="#D6E6F5" height="30.2969" style="stroke: #1F4768; stroke-width: 1.5;" width="121" x="411.5" y="1218.2734"/><text fill="#111111" font-family="Helvetica" font-size="14" lengthAdjust="spacingAndGlyphs" textLength="107" x="418.5" y="1238.2686">/livespec:revise</text><rect fill="#D6E6F5" height="46.5938" style="stroke: #1F4768; stroke-width: 1.5;" width="125" x="624.5" y="85.9531"/><text fill="#111111" font-family="Helvetica" font-size="14" lengthAdjust="spacingAndGlyphs" textLength="111" x="631.5" y="105.9482">/livespec:doctor</text><text fill="#111111" font-family="Helvetica" font-size="14" lengthAdjust="spacingAndGlyphs" textLength="110" x="632" y="122.2451">(pre-step static)</text><rect fill="#D6E6F5" height="46.5938" style="stroke: #1F4768; stroke-width: 1.5;" width="125" x="624.5" y="1218.2734"/><text fill="#111111" font-family="Helvetica" font-size="14" lengthAdjust="spacingAndGlyphs" textLength="111" x="631.5" y="1238.2686">/livespec:doctor</text><text fill="#111111" font-family="Helvetica" font-size="14" lengthAdjust="spacingAndGlyphs" textLength="110" x="632" y="1254.5654">(pre-step static)</text><rect fill="#D6E6F5" height="30.2969" style="stroke: #1F4768; stroke-width: 1.5;" width="153" x="759.5" y="102.25"/><text fill="#111111" font-family="Helvetica" font-size="14" lengthAdjust="spacingAndGlyphs" textLength="139" x="766.5" y="122.2451">proposed_changes/</text><rect fill="#D6E6F5" height="30.2969" style="stroke: #1F4768; stroke-width: 1.5;" width="153" x="759.5" y="1218.2734"/><text fill="#111111" font-family="Helvetica" font-size="14" lengthAdjust="spacingAndGlyphs" textLength="139" x="766.5" y="1238.2686">proposed_changes/</text><rect fill="#D6E6F5" height="30.2969" style="stroke: #1F4768; stroke-width: 1.5;" width="122" x="922.5" y="102.25"/><text fill="#111111" font-family="Helvetica" font-size="14" lengthAdjust="spacingAndGlyphs" textLength="108" x="929.5" y="122.2451">SPECIFICATION/</text><rect fill="#D6E6F5" height="30.2969" style="stroke: #1F4768; stroke-width: 1.5;" width="122" x="922.5" y="1218.2734"/><text fill="#111111" font-family="Helvetica" font-size="14" lengthAdjust="spacingAndGlyphs" textLength="108" x="929.5" y="1238.2686">SPECIFICATION/</text><rect fill="#D6E6F5" height="30.2969" style="stroke: #1F4768; stroke-width: 1.5;" width="65" x="1054.5" y="102.25"/><text fill="#111111" font-family="Helvetica" font-size="14" lengthAdjust="spacingAndGlyphs" textLength="51" x="1061.5" y="122.2451">history/</text><rect fill="#D6E6F5" height="30.2969" style="stroke: #1F4768; stroke-width: 1.5;" width="65" x="1054.5" y="1218.2734"/><text fill="#111111" font-family="Helvetica" font-size="14" lengthAdjust="spacingAndGlyphs" textLength="51" x="1061.5" y="1238.2686">history/</text><rect fill="#D6E6F5" height="46.5938" style="stroke: #1F4768; stroke-width: 1.5;" width="178" x="1153" y="85.9531"/><text fill="#111111" font-family="Helvetica" font-size="14" lengthAdjust="spacingAndGlyphs" textLength="111" x="1186.5" y="105.9482">/livespec:doctor</text><text fill="#111111" font-family="Helvetica" font-size="14" lengthAdjust="spacingAndGlyphs" textLength="164" x="1160" y="122.2451">(post-step static + LLM)</text><rect fill="#D6E6F5" height="46.5938" style="stroke: #1F4768; stroke-width: 1.5;" width="178" x="1153" y="1218.2734"/><text fill="#111111" font-family="Helvetica" font-size="14" lengthAdjust="spacingAndGlyphs" textLength="111" x="1186.5" y="1238.2686">/livespec:doctor</text><text fill="#111111" font-family="Helvetica" font-size="14" lengthAdjust="spacingAndGlyphs" textLength="164" x="1160" y="1254.5654">(post-step static + LLM)</text><rect fill="#FFFFFF" height="918.6641" style="stroke: #444444; stroke-width: 1.0;" width="10" x="467" y="164.6797"/><polygon fill="#000000" points="455,160.6797,465,164.6797,455,168.6797,459,164.6797" style="stroke: #000000; stroke-width: 1.0;"/><line style="stroke: #000000; stroke-width: 1.0;" x1="106" x2="461" y1="164.6797" y2="164.6797"/><text fill="#000000" font-family="Helvetica" font-size="13" lengthAdjust="spacingAndGlyphs" textLength="41" x="113" y="159.6138">invoke</text><polygon fill="#000000" points="675,189.8125,685,193.8125,675,197.8125,679,193.8125" style="stroke: #000000; stroke-width: 1.0;"/><line style="stroke: #000000; stroke-width: 1.0;" x1="477" x2="681" y1="193.8125" y2="193.8125"/><text fill="#000000" font-family="Helvetica" font-size="13" lengthAdjust="spacingAndGlyphs" textLength="141" x="484" y="188.7466">pre-step static checks</text><polygon fill="#000000" points="971.5,218.9453,981.5,222.9453,971.5,226.9453,975.5,222.9453" style="stroke: #000000; stroke-width: 1.0;"/><line style="stroke: #000000; stroke-width: 1.0;" x1="687" x2="977.5" y1="222.9453" y2="222.9453"/><text fill="#000000" font-family="Helvetica" font-size="13" lengthAdjust="spacingAndGlyphs" textLength="62" x="694" y="217.8794">invariants</text><polygon fill="#000000" points="824,248.0781,834,252.0781,824,256.0781,828,252.0781" style="stroke: #000000; stroke-width: 1.0;"/><line style="stroke: #000000; stroke-width: 1.0;" x1="687" x2="830" y1="252.0781" y2="252.0781"/><text fill="#000000" font-family="Helvetica" font-size="13" lengthAdjust="spacingAndGlyphs" textLength="62" x="694" y="247.0122">invariants</text><polygon fill="#000000" points="488,277.2109,478,281.2109,488,285.2109,484,281.2109" style="stroke: #000000; stroke-width: 1.0;"/><line style="stroke: #000000; stroke-width: 1.0; stroke-dasharray: 2.0,2.0;" x1="482" x2="686" y1="281.2109" y2="281.2109"/><text fill="#000000" font-family="Helvetica" font-size="13" lengthAdjust="spacingAndGlyphs" textLength="123" x="494" y="276.145">findings (pass / fail)</text><path d="M13,296.2109 L77,296.2109 L77,303.2109 L67,313.2109 L13,313.2109 L13,296.2109 " fill="#EEEEEE" style="stroke: #000000; stroke-width: 1.0;"/><rect fill="none" height="780.1328" style="stroke: #000000; stroke-width: 2.0;" width="1328" x="13" y="296.2109"/><text fill="#000000" font-family="Helvetica" font-size="13" font-weight="bold" lengthAdjust="spacingAndGlyphs" textLength="19" x="28" y="309.2778">alt</text><text fill="#000000" font-family="Helvetica" font-size="11" font-weight="bold" lengthAdjust="spacingAndGlyphs" textLength="96" x="92" y="308.4214">[pre-step fails]</text><polygon fill="#000000" points="117,330.4766,107,334.4766,117,338.4766,113,334.4766" style="stroke: #000000; stroke-width: 1.0;"/><line style="stroke: #000000; stroke-width: 1.0; stroke-dasharray: 2.0,2.0;" x1="111" x2="466" y1="334.4766" y2="334.4766"/><text fill="#000000" font-family="Helvetica" font-size="13" lengthAdjust="spacingAndGlyphs" textLength="139" x="123" y="329.4106">surface failures; abort</text><line style="stroke: #000000; stroke-width: 1.0; stroke-dasharray: 2.0,2.0;" x1="13" x2="1341" y1="343.4766" y2="343.4766"/><text fill="#000000" font-family="Helvetica" font-size="11" font-weight="bold" lengthAdjust="spacingAndGlyphs" textLength="113" x="18" y="353.687">[pre-step passes]</text><polygon fill="#000000" points="824,389.5469,834,393.5469,824,397.5469,828,393.5469" style="stroke: #000000; stroke-width: 1.0;"/><line style="stroke: #000000; stroke-width: 1.0;" x1="477" x2="830" y1="393.5469" y2="393.5469"/><text fill="#000000" font-family="Helvetica" font-size="13" lengthAdjust="spacingAndGlyphs" textLength="263" x="484" y="373.3481">enumerate pending propose-change files</text><text fill="#000000" font-family="Helvetica" font-size="13" lengthAdjust="spacingAndGlyphs" textLength="241" x="484" y="388.481">(skip README.md, skip *-revision.md)</text><polygon fill="#000000" points="488,418.6797,478,422.6797,488,426.6797,484,422.6797" style="stroke: #000000; stroke-width: 1.0;"/><line style="stroke: #000000; stroke-width: 1.0; stroke-dasharray: 2.0,2.0;" x1="482" x2="835" y1="422.6797" y2="422.6797"/><text fill="#000000" font-family="Helvetica" font-size="13" lengthAdjust="spacingAndGlyphs" textLength="189" x="494" y="417.6138">N files, ordered by created_at</text><path d="M23,437.6797 L100,437.6797 L100,444.6797 L90,454.6797 L23,454.6797 L23,437.6797 " fill="#EEEEEE" style="stroke: #000000; stroke-width: 1.0;"/><rect fill="none" height="281.9375" style="stroke: #000000; stroke-width: 2.0;" width="674" x="23" y="437.6797"/><text fill="#000000" font-family="Helvetica" font-size="13" font-weight="bold" lengthAdjust="spacingAndGlyphs" textLength="32" x="38" y="450.7466">loop</text><text fill="#000000" font-family="Helvetica" font-size="11" font-weight="bold" lengthAdjust="spacingAndGlyphs" textLength="179" x="115" y="449.8901">[for each pending proposal]</text><polygon fill="#000000" points="117,487.0781,107,491.0781,117,495.0781,113,491.0781" style="stroke: #000000; stroke-width: 1.0;"/><line style="stroke: #000000; stroke-width: 1.0;" x1="111" x2="466" y1="491.0781" y2="491.0781"/><text fill="#000000" font-family="Helvetica" font-size="13" lengthAdjust="spacingAndGlyphs" textLength="185" x="123" y="470.8794">present LLM-drafted decision</text><text fill="#000000" font-family="Helvetica" font-size="13" lengthAdjust="spacingAndGlyphs" textLength="337" x="123" y="486.0122">(accept / modify / reject + rationale + resulting_files)</text><path d="M33,506.0781 L97,506.0781 L97,513.0781 L87,523.0781 L33,523.0781 L33,506.0781 " fill="#EEEEEE" style="stroke: #000000; stroke-width: 1.0;"/><rect fill="none" height="206.5391" style="stroke: #000000; stroke-width: 2.0;" width="654" x="33" y="506.0781"/><text fill="#000000" font-family="Helvetica" font-size="13" font-weight="bold" lengthAdjust="spacingAndGlyphs" textLength="19" x="48" y="519.145">alt</text><text fill="#000000" font-family="Helvetica" font-size="11" font-weight="bold" lengthAdjust="spacingAndGlyphs" textLength="97" x="112" y="518.2886">[user confirms]</text><polygon fill="#000000" points="455,540.3438,465,544.3438,455,548.3438,459,544.3438" style="stroke: #000000; stroke-width: 1.0;"/><line style="stroke: #000000; stroke-width: 1.0; stroke-dasharray: 2.0,2.0;" x1="106" x2="461" y1="544.3438" y2="544.3438"/><text fill="#000000" font-family="Helvetica" font-size="13" lengthAdjust="spacingAndGlyphs" textLength="52" x="113" y="539.2778">approve</text><line style="stroke: #000000; stroke-width: 1.0; stroke-dasharray: 2.0,2.0;" x1="33" x2="687" y1="553.3438" y2="553.3438"/><text fill="#000000" font-family="Helvetica" font-size="11" font-weight="bold" lengthAdjust="spacingAndGlyphs" textLength="145" x="38" y="563.5542">[user requests modify]</text><polygon fill="#000000" points="455,584.2813,465,588.2813,455,592.2813,459,588.2813" style="stroke: #000000; stroke-width: 1.0;"/><line style="stroke: #000000; stroke-width: 1.0; stroke-dasharray: 2.0,2.0;" x1="106" x2="461" y1="588.2813" y2="588.2813"/><text fill="#000000" font-family="Helvetica" font-size="13" lengthAdjust="spacingAndGlyphs" textLength="33" x="113" y="583.2153">steer</text><line style="stroke: #000000; stroke-width: 1.0;" x1="477" x2="519" y1="632.5469" y2="632.5469"/><line style="stroke: #000000; stroke-width: 1.0;" x1="519" x2="519" y1="632.5469" y2="645.5469"/><line style="stroke: #000000; stroke-width: 1.0;" x1="478" x2="519" y1="645.5469" y2="645.5469"/><polygon fill="#000000" points="488,641.5469,478,645.5469,488,649.5469,484,645.5469" style="stroke: #000000; stroke-width: 1.0;"/><text fill="#000000" font-family="Helvetica" font-size="13" lengthAdjust="spacingAndGlyphs" textLength="191" x="484" y="612.3481">redraft modification iteratively</text><text fill="#000000" font-family="Helvetica" font-size="13" lengthAdjust="spacingAndGlyphs" textLength="129" x="484" y="627.481">until user converges</text><line style="stroke: #000000; stroke-width: 1.0; stroke-dasharray: 2.0,2.0;" x1="33" x2="687" y1="654.5469" y2="654.5469"/><text fill="#000000" font-family="Helvetica" font-size="11" font-weight="bold" lengthAdjust="spacingAndGlyphs" textLength="83" x="38" y="664.7573">[user defers]</text><polygon fill="#000000" points="455,700.6172,465,704.6172,455,708.6172,459,704.6172" style="stroke: #000000; stroke-width: 1.0;"/><line style="stroke: #000000; stroke-width: 1.0; stroke-dasharray: 2.0,2.0;" x1="106" x2="461" y1="704.6172" y2="704.6172"/><text fill="#000000" font-family="Helvetica" font-size="13" lengthAdjust="spacingAndGlyphs" textLength="123" x="113" y="684.4185">skip (leave pending</text><text fill="#000000" font-family="Helvetica" font-size="13" lengthAdjust="spacingAndGlyphs" textLength="152" x="113" y="699.5513">for a future revise pass)</text><line style="stroke: #000000; stroke-width: 1.0;" x1="477" x2="519" y1="747.75" y2="747.75"/><line style="stroke: #000000; stroke-width: 1.0;" x1="519" x2="519" y1="747.75" y2="760.75"/><line style="stroke: #000000; stroke-width: 1.0;" x1="478" x2="519" y1="760.75" y2="760.75"/><polygon fill="#000000" points="488,756.75,478,760.75,488,764.75,484,760.75" style="stroke: #000000; stroke-width: 1.0;"/><text fill="#000000" font-family="Helvetica" font-size="13" lengthAdjust="spacingAndGlyphs" textLength="189" x="484" y="742.6841">assemble revise-json payload</text><polygon fill="#000000" points="971.5,801.0156,981.5,805.0156,971.5,809.0156,975.5,805.0156" style="stroke: #000000; stroke-width: 1.0;"/><line style="stroke: #000000; stroke-width: 1.0;" x1="477" x2="977.5" y1="805.0156" y2="805.0156"/><text fill="#000000" font-family="Helvetica" font-size="13" lengthAdjust="spacingAndGlyphs" textLength="181" x="484" y="784.8169">apply resulting_files updates</text><text fill="#000000" font-family="Helvetica" font-size="13" lengthAdjust="spacingAndGlyphs" textLength="169" x="484" y="799.9497">(from accepted proposals)</text><polygon fill="#000000" points="1075,830.1484,1085,834.1484,1075,838.1484,1079,834.1484" style="stroke: #000000; stroke-width: 1.0;"/><line style="stroke: #000000; stroke-width: 1.0;" x1="477" x2="1081" y1="834.1484" y2="834.1484"/><text fill="#000000" font-family="Helvetica" font-size="13" lengthAdjust="spacingAndGlyphs" textLength="157" x="484" y="829.0825">cut new vNNN/ snapshot</text><polygon fill="#000000" points="1075,874.4141,1085,878.4141,1075,882.4141,1079,878.4141" style="stroke: #000000; stroke-width: 1.0;"/><line style="stroke: #000000; stroke-width: 1.0;" x1="477" x2="1081" y1="878.4141" y2="878.4141"/><text fill="#000000" font-family="Helvetica" font-size="13" lengthAdjust="spacingAndGlyphs" textLength="229" x="484" y="858.2153">move processed proposed-changes</text><text fill="#000000" font-family="Helvetica" font-size="13" lengthAdjust="spacingAndGlyphs" textLength="201" x="484" y="873.3481">+ write paired -revision.md files</text><polygon fill="#000000" points="824,918.6797,834,922.6797,824,926.6797,828,922.6797" style="stroke: #000000; stroke-width: 1.0;"/><line style="stroke: #000000; stroke-width: 1.0;" x1="477" x2="830" y1="922.6797" y2="922.6797"/><text fill="#000000" font-family="Helvetica" font-size="13" lengthAdjust="spacingAndGlyphs" textLength="163" x="484" y="902.481">pending queue drained of</text><text fill="#000000" font-family="Helvetica" font-size="13" lengthAdjust="spacingAndGlyphs" textLength="107" x="484" y="917.6138">addressed items</text><polygon fill="#000000" points="1230,947.8125,1240,951.8125,1230,955.8125,1234,951.8125" style="stroke: #000000; stroke-width: 1.0;"/><line style="stroke: #000000; stroke-width: 1.0;" x1="477" x2="1236" y1="951.8125" y2="951.8125"/><text fill="#000000" font-family="Helvetica" font-size="13" lengthAdjust="spacingAndGlyphs" textLength="238" x="484" y="946.7466">post-step static + LLM-driven phases</text><polygon fill="#000000" points="994.5,976.9453,984.5,980.9453,994.5,984.9453,990.5,980.9453" style="stroke: #000000; stroke-width: 1.0;"/><line style="stroke: #000000; stroke-width: 1.0;" x1="988.5" x2="1241" y1="980.9453" y2="980.9453"/><text fill="#000000" font-family="Helvetica" font-size="13" lengthAdjust="spacingAndGlyphs" textLength="148" x="1000.5" y="975.8794">invariants on new state</text><polygon fill="#000000" points="1098,1006.0781,1088,1010.0781,1098,1014.0781,1094,1010.0781" style="stroke: #000000; stroke-width: 1.0;"/><line style="stroke: #000000; stroke-width: 1.0;" x1="1092" x2="1241" y1="1010.0781" y2="1010.0781"/><text fill="#000000" font-family="Helvetica" font-size="13" lengthAdjust="spacingAndGlyphs" textLength="131" x="1104" y="1005.0122">versioning invariants</text><polygon fill="#000000" points="488,1035.2109,478,1039.2109,488,1043.2109,484,1039.2109" style="stroke: #000000; stroke-width: 1.0;"/><line style="stroke: #000000; stroke-width: 1.0; stroke-dasharray: 2.0,2.0;" x1="482" x2="1241" y1="1039.2109" y2="1039.2109"/><text fill="#000000" font-family="Helvetica" font-size="13" lengthAdjust="spacingAndGlyphs" textLength="49" x="494" y="1034.145">findings</text><polygon fill="#000000" points="117,1064.3438,107,1068.3438,117,1072.3438,113,1068.3438" style="stroke: #000000; stroke-width: 1.0;"/><line style="stroke: #000000; stroke-width: 1.0; stroke-dasharray: 2.0,2.0;" x1="111" x2="466" y1="1068.3438" y2="1068.3438"/><text fill="#000000" font-family="Helvetica" font-size="13" lengthAdjust="spacingAndGlyphs" textLength="112" x="123" y="1063.2778">final report; exit 0</text><path d="M32,1088.3438 L32,1203.3438 L1315,1203.3438 L1315,1098.3438 L1305,1088.3438 L32,1088.3438 " fill="#FBFB77" style="stroke: #A80036; stroke-width: 1.0;"/><path d="M1305,1088.3438 L1305,1098.3438 L1315,1098.3438 L1305,1088.3438 " fill="#FBFB77" style="stroke: #A80036; stroke-width: 1.0;"/><text fill="#000000" font-family="Helvetica" font-size="13" lengthAdjust="spacingAndGlyphs" textLength="248" x="523" y="1105.4106">Selective per-proposal — the user MAY</text><text fill="#000000" font-family="Helvetica" font-size="13" lengthAdjust="spacingAndGlyphs" textLength="281" x="523" y="1120.5435">accept some proposals in the current revise</text><text fill="#000000" font-family="Helvetica" font-size="13" lengthAdjust="spacingAndGlyphs" textLength="223" x="523" y="1135.6763">pass and leave others for the next.</text><text fill="#000000" font-family="Helvetica" font-size="13" lengthAdjust="spacingAndGlyphs" textLength="292" x="523" y="1150.8091">Every successful pass — including all-reject —</text><text fill="#000000" font-family="Helvetica" font-size="13" lengthAdjust="spacingAndGlyphs" textLength="274" x="523" y="1165.9419">cuts exactly one new vNNN, preserving the</text><text fill="#000000" font-family="Helvetica" font-size="13" lengthAdjust="spacingAndGlyphs" textLength="235" x="523" y="1181.0747">decision audit trail with byte-identical</text><text fill="#000000" font-family="Helvetica" font-size="13" lengthAdjust="spacingAndGlyphs" textLength="230" x="523" y="1196.2075">spec files when nothing was applied.</text><!--MD5=[4fff989773f9c162014001d7256dc6aa]
@startuml seq-revise
title Sequence — /livespec:revise (selective per-proposal)
skinparam defaultFontName Helvetica
skinparam shadowing false
skinparam BackgroundColor #fafafa
skinparam ArrowColor #000000
skinparam sequence {
  ParticipantBorderColor #1f4768
  ParticipantBackgroundColor #d6e6f5
  ParticipantFontColor #111
  ActorBorderColor #111
  ActorBackgroundColor #fffacc
  ActorFontColor #111
  LifeLineBorderColor #444
}

actor "Initial intent\n(human or agent)" as User
participant "/livespec:revise" as Revise
participant "/livespec:doctor\n(pre-step static)" as DoctorPre
participant "proposed_changes/" as Proposed
participant "SPECIFICATION/" as Spec
participant "history/" as History
participant "/livespec:doctor\n(post-step static + LLM)" as DoctorPost

User -> Revise : invoke
activate Revise

Revise -> DoctorPre : pre-step static checks
DoctorPre -> Spec : invariants
DoctorPre -> Proposed : invariants
DoctorPre - -> Revise : findings (pass / fail)

alt pre-step fails
  Revise - -> User : surface failures; abort
else pre-step passes
  Revise -> Proposed : enumerate pending propose-change files\n(skip README.md, skip *-revision.md)
  Proposed - -> Revise : N files, ordered by created_at

  loop for each pending proposal
    Revise -> User : present LLM-drafted decision\n(accept / modify / reject + rationale + resulting_files)
    alt user confirms
      User - -> Revise : approve
    else user requests modify
      User - -> Revise : steer
      Revise -> Revise : redraft modification iteratively\nuntil user converges
    else user defers
      User - -> Revise : skip (leave pending\nfor a future revise pass)
    end
  end

  Revise -> Revise : assemble revise-json payload
  Revise -> Spec : apply resulting_files updates\n(from accepted proposals)
  Revise -> History : cut new vNNN/ snapshot
  Revise -> History : move processed proposed-changes\n+ write paired -revision.md files
  Revise -> Proposed : pending queue drained of\naddressed items

  Revise -> DoctorPost : post-step static + LLM-driven phases
  DoctorPost -> Spec : invariants on new state
  DoctorPost -> History : versioning invariants
  DoctorPost - -> Revise : findings

  Revise - -> User : final report; exit 0
end
deactivate Revise

note over User, DoctorPost : Selective per-proposal — the user MAY\naccept some proposals in the current revise\npass and leave others for the next.\nEvery successful pass — including all-reject —\ncuts exactly one new vNNN, preserving the\ndecision audit trail with byte-identical\nspec files when nothing was applied.

@enduml

PlantUML version 1.2020.02(Sun Mar 01 11:22:07 CET 2020)
(GPL source distribution)
Java Runtime: OpenJDK Runtime Environment
JVM: OpenJDK 64-Bit Server VM
Java Version: 21.0.10+7-Ubuntu-125.10
Operating System: Linux
Default Encoding: UTF-8
Language: en
Country: null
--></g></svg>