<?xml version="1.0" encoding="UTF-8" standalone="no"?><svg xmlns="http://www.w3.org/2000/svg" xmlns:xlink="http://www.w3.org/1999/xlink" contentScriptType="application/ecmascript" contentStyleType="text/css" height="1615px" preserveAspectRatio="none" style="width:1380px;height:1615px;background:#FAFAFA;" version="1.1" viewBox="0 0 1380 1615" width="1380px" zoomAndPan="magnify"><defs/><g><text fill="#000000" font-family="Helvetica" font-size="18" lengthAdjust="spacingAndGlyphs" textLength="560" x="405.5" y="26.708">Sequence — /livespec-impl-*:process-memos (four dispositions)</text><rect fill="#FFFFFF" height="955.3281" style="stroke: #444444; stroke-width: 1.0;" width="10" x="416" y="412.875"/><rect fill="#FAFAFA" height="765.3984" style="stroke: #000000; stroke-width: 2.0;" width="1345" x="13" y="559.5391"/><rect fill="#FAFAFA" height="690" style="stroke: #000000; stroke-width: 2.0;" width="1325" x="23" y="627.9375"/><rect fill="#FAFAFA" height="197.8672" style="stroke: none; stroke-width: 1.0;" width="1325" x="23" y="803.7344"/><rect fill="#FAFAFA" height="243.2656" style="stroke: none; stroke-width: 1.0;" width="1325" x="23" y="1001.6016"/><rect fill="#FAFAFA" height="73.0703" style="stroke: none; stroke-width: 1.0;" width="1325" x="23" y="1244.8672"/><line style="stroke: #444444; stroke-width: 1.0; stroke-dasharray: 5.0,5.0;" x1="96" x2="96" y1="133.5469" y2="1512.1328"/><line style="stroke: #444444; stroke-width: 1.0; stroke-dasharray: 5.0,5.0;" x1="284.5" x2="284.5" y1="133.5469" y2="1512.1328"/><line style="stroke: #444444; stroke-width: 1.0; stroke-dasharray: 5.0,5.0;" x1="420.5" x2="420.5" y1="133.5469" y2="1512.1328"/><line style="stroke: #444444; stroke-width: 1.0; stroke-dasharray: 5.0,5.0;" x1="615.5" x2="615.5" y1="133.5469" y2="1512.1328"/><line style="stroke: #444444; stroke-width: 1.0; stroke-dasharray: 5.0,5.0;" x1="766" x2="766" y1="133.5469" y2="1512.1328"/><line style="stroke: #444444; stroke-width: 1.0; stroke-dasharray: 5.0,5.0;" x1="930" x2="930" y1="133.5469" y2="1512.1328"/><line style="stroke: #444444; stroke-width: 1.0; stroke-dasharray: 5.0,5.0;" x1="1146" x2="1146" y1="133.5469" y2="1512.1328"/><line style="stroke: #444444; stroke-width: 1.0; stroke-dasharray: 5.0,5.0;" x1="1270" x2="1270" y1="133.5469" y2="1512.1328"/><text fill="#111111" font-family="Helvetica" font-size="14" lengthAdjust="spacingAndGlyphs" textLength="78" x="54" y="113.9482">Initial intent</text><text fill="#111111" font-family="Helvetica" font-size="14" lengthAdjust="spacingAndGlyphs" textLength="120" x="33" y="130.2451">(human or agent)</text><ellipse cx="96" cy="47.9531" fill="#FFFACC" rx="8" ry="8" style="stroke: #111111; stroke-width: 2.0;"/><path d="M96,55.9531 L96,82.9531 M83,63.9531 L109,63.9531 M96,82.9531 L83,97.9531 M96,82.9531 L109,97.9531 " fill="none" style="stroke: #111111; stroke-width: 2.0;"/><text fill="#111111" font-family="Helvetica" font-size="14" lengthAdjust="spacingAndGlyphs" textLength="78" x="54" y="1524.1279">Initial intent</text><text fill="#111111" font-family="Helvetica" font-size="14" lengthAdjust="spacingAndGlyphs" textLength="120" x="33" y="1540.4248">(human or agent)</text><ellipse cx="96" cy="1553.7266" fill="#FFFACC" rx="8" ry="8" style="stroke: #111111; stroke-width: 2.0;"/><path d="M96,1561.7266 L96,1588.7266 M83,1569.7266 L109,1569.7266 M96,1588.7266 L83,1603.7266 M96,1588.7266 L109,1603.7266 " fill="none" style="stroke: #111111; stroke-width: 2.0;"/><rect fill="#D6E6F5" height="30.2969" style="stroke: #1F4768; stroke-width: 1.5;" width="125" x="222.5" y="102.25"/><text fill="#111111" font-family="Helvetica" font-size="14" lengthAdjust="spacingAndGlyphs" textLength="111" x="229.5" y="122.2451">/livespec:doctor</text><rect fill="#D6E6F5" height="30.2969" style="stroke: #1F4768; stroke-width: 1.5;" width="125" x="222.5" y="1511.1328"/><text fill="#111111" font-family="Helvetica" font-size="14" lengthAdjust="spacingAndGlyphs" textLength="111" x="229.5" y="1531.1279">/livespec:doctor</text><rect fill="#D6E6F5" height="46.5938" style="stroke: #1F4768; stroke-width: 1.5;" width="127" x="357.5" y="85.9531"/><text fill="#111111" font-family="Helvetica" font-size="14" lengthAdjust="spacingAndGlyphs" textLength="111" x="365.5" y="105.9482">/livespec-impl-*:</text><text fill="#111111" font-family="Helvetica" font-size="14" lengthAdjust="spacingAndGlyphs" textLength="113" x="364.5" y="122.2451">process-memos</text><rect fill="#D6E6F5" height="46.5938" style="stroke: #1F4768; stroke-width: 1.5;" width="127" x="357.5" y="1511.1328"/><text fill="#111111" font-family="Helvetica" font-size="14" lengthAdjust="spacingAndGlyphs" textLength="111" x="365.5" y="1531.1279">/livespec-impl-*:</text><text fill="#111111" font-family="Helvetica" font-size="14" lengthAdjust="spacingAndGlyphs" textLength="113" x="364.5" y="1547.4248">process-memos</text><rect fill="#D6E6F5" height="30.2969" style="stroke: #1F4768; stroke-width: 1.5;" width="103" x="564.5" y="102.25"/><text fill="#111111" font-family="Helvetica" font-size="14" lengthAdjust="spacingAndGlyphs" textLength="89" x="571.5" y="122.2451">Spec Reader</text><rect fill="#D6E6F5" height="30.2969" style="stroke: #1F4768; stroke-width: 1.5;" width="103" x="564.5" y="1511.1328"/><text fill="#111111" font-family="Helvetica" font-size="14" lengthAdjust="spacingAndGlyphs" textLength="89" x="571.5" y="1531.1279">Spec Reader</text><rect fill="#D6E6F5" height="46.5938" style="stroke: #1F4768; stroke-width: 1.5;" width="106" x="713" y="85.9531"/><text fill="#111111" font-family="Helvetica" font-size="14" lengthAdjust="spacingAndGlyphs" textLength="51" x="740.5" y="105.9482">Memos</text><text fill="#111111" font-family="Helvetica" font-size="14" lengthAdjust="spacingAndGlyphs" textLength="92" x="720" y="122.2451">(plugin store)</text><rect fill="#D6E6F5" height="46.5938" style="stroke: #1F4768; stroke-width: 1.5;" width="106" x="713" y="1511.1328"/><text fill="#111111" font-family="Helvetica" font-size="14" lengthAdjust="spacingAndGlyphs" textLength="51" x="740.5" y="1531.1279">Memos</text><text fill="#111111" font-family="Helvetica" font-size="14" lengthAdjust="spacingAndGlyphs" textLength="92" x="720" y="1547.4248">(plugin store)</text><rect fill="#D6E6F5" height="30.2969" style="stroke: #1F4768; stroke-width: 1.5;" width="203" x="829" y="102.25"/><text fill="#111111" font-family="Helvetica" font-size="14" lengthAdjust="spacingAndGlyphs" textLength="189" x="836" y="122.2451">/livespec:propose-changes</text><rect fill="#D6E6F5" height="30.2969" style="stroke: #1F4768; stroke-width: 1.5;" width="203" x="829" y="1511.1328"/><text fill="#111111" font-family="Helvetica" font-size="14" lengthAdjust="spacingAndGlyphs" textLength="189" x="836" y="1531.1279">/livespec:propose-changes</text><rect fill="#D6E6F5" height="30.2969" style="stroke: #1F4768; stroke-width: 1.5;" width="91" x="1101" y="102.25"/><text fill="#111111" font-family="Helvetica" font-size="14" lengthAdjust="spacingAndGlyphs" textLength="77" x="1108" y="122.2451">Work Items</text><rect fill="#D6E6F5" height="30.2969" style="stroke: #1F4768; stroke-width: 1.5;" width="91" x="1101" y="1511.1328"/><text fill="#111111" font-family="Helvetica" font-size="14" lengthAdjust="spacingAndGlyphs" textLength="77" x="1108" y="1531.1279">Work Items</text><rect fill="#D6E6F5" height="46.5938" style="stroke: #1F4768; stroke-width: 1.5;" width="136" x="1202" y="85.9531"/><text fill="#111111" font-family="Helvetica" font-size="14" lengthAdjust="spacingAndGlyphs" textLength="70" x="1235" y="105.9482">Persistent</text><text fill="#111111" font-family="Helvetica" font-size="14" lengthAdjust="spacingAndGlyphs" textLength="122" x="1209" y="122.2451">Agent Knowledge</text><rect fill="#D6E6F5" height="46.5938" style="stroke: #1F4768; stroke-width: 1.5;" width="136" x="1202" y="1511.1328"/><text fill="#111111" font-family="Helvetica" font-size="14" lengthAdjust="spacingAndGlyphs" textLength="70" x="1235" y="1531.1279">Persistent</text><text fill="#111111" font-family="Helvetica" font-size="14" lengthAdjust="spacingAndGlyphs" textLength="122" x="1209" y="1547.4248">Agent Knowledge</text><rect fill="#FFFFFF" height="955.3281" style="stroke: #444444; stroke-width: 1.0;" width="10" x="416" y="412.875"/><rect fill="#EEEEEE" height="3" style="stroke: #EEEEEE; stroke-width: 1.0;" width="1365" x="3" y="164.1133"/><line style="stroke: #000000; stroke-width: 1.0;" x1="3" x2="1368" y1="164.1133" y2="164.1133"/><line style="stroke: #000000; stroke-width: 1.0;" x1="3" x2="1368" y1="167.1133" y2="167.1133"/><rect fill="#EEEEEE" height="23.1328" style="stroke: #000000; stroke-width: 2.0;" width="310" x="530.5" y="153.5469"/><text fill="#000000" font-family="Helvetica" font-size="13" font-weight="bold" lengthAdjust="spacingAndGlyphs" textLength="291" x="536.5" y="169.6138">Hygiene trigger (background invariant)</text><polygon fill="#000000" points="273,218.9453,283,222.9453,273,226.9453,277,222.9453" style="stroke: #000000; stroke-width: 1.0;"/><line style="stroke: #000000; stroke-width: 1.0;" x1="96" x2="279" y1="222.9453" y2="222.9453"/><text fill="#000000" font-family="Helvetica" font-size="13" lengthAdjust="spacingAndGlyphs" textLength="136" x="103" y="202.7466">invoke (routine check</text><text fill="#000000" font-family="Helvetica" font-size="13" lengthAdjust="spacingAndGlyphs" textLength="163" x="103" y="217.8794">or pre/post-step wrapper)</text><polygon fill="#000000" points="754,263.2109,764,267.2109,754,271.2109,758,267.2109" style="stroke: #000000; stroke-width: 1.0;"/><line style="stroke: #000000; stroke-width: 1.0;" x1="285" x2="760" y1="267.2109" y2="267.2109"/><text fill="#000000" font-family="Helvetica" font-size="13" lengthAdjust="spacingAndGlyphs" textLength="148" x="292" y="247.0122">untriaged-memo query</text><text fill="#000000" font-family="Helvetica" font-size="13" lengthAdjust="spacingAndGlyphs" textLength="122" x="292" y="262.145">(machine contract)</text><polygon fill="#000000" points="296,292.3438,286,296.3438,296,300.3438,292,296.3438" style="stroke: #000000; stroke-width: 1.0;"/><line style="stroke: #000000; stroke-width: 1.0; stroke-dasharray: 2.0,2.0;" x1="290" x2="765" y1="296.3438" y2="296.3438"/><text fill="#000000" font-family="Helvetica" font-size="13" lengthAdjust="spacingAndGlyphs" textLength="123" x="302" y="291.2778">N untriaged entries</text><polygon fill="#000000" points="107,336.6094,97,340.6094,107,344.6094,103,340.6094" style="stroke: #000000; stroke-width: 1.0;"/><line style="stroke: #000000; stroke-width: 1.0;" x1="101" x2="284" y1="340.6094" y2="340.6094"/><text fill="#000000" font-family="Helvetica" font-size="13" lengthAdjust="spacingAndGlyphs" textLength="165" x="113" y="320.4106">warn: "N memos pending,</text><text fill="#000000" font-family="Helvetica" font-size="13" lengthAdjust="spacingAndGlyphs" textLength="134" x="113" y="335.5435">run process-memos"</text><rect fill="#EEEEEE" height="3" style="stroke: #EEEEEE; stroke-width: 1.0;" width="1365" x="3" y="369.1758"/><line style="stroke: #000000; stroke-width: 1.0;" x1="3" x2="1368" y1="369.1758" y2="369.1758"/><line style="stroke: #000000; stroke-width: 1.0;" x1="3" x2="1368" y1="372.1758" y2="372.1758"/><rect fill="#EEEEEE" height="23.1328" style="stroke: #000000; stroke-width: 2.0;" width="189" x="591" y="358.6094"/><text fill="#000000" font-family="Helvetica" font-size="13" font-weight="bold" lengthAdjust="spacingAndGlyphs" textLength="170" x="597" y="374.6763">Per-memo dispositions</text><polygon fill="#000000" points="404,408.875,414,412.875,404,416.875,408,412.875" style="stroke: #000000; stroke-width: 1.0;"/><line style="stroke: #000000; stroke-width: 1.0;" x1="96" x2="410" y1="412.875" y2="412.875"/><text fill="#000000" font-family="Helvetica" font-size="13" lengthAdjust="spacingAndGlyphs" textLength="41" x="103" y="407.8091">invoke</text><polygon fill="#000000" points="754,438.0078,764,442.0078,754,446.0078,758,442.0078" style="stroke: #000000; stroke-width: 1.0;"/><line style="stroke: #000000; stroke-width: 1.0;" x1="426" x2="760" y1="442.0078" y2="442.0078"/><text fill="#000000" font-family="Helvetica" font-size="13" lengthAdjust="spacingAndGlyphs" textLength="189" x="433" y="436.9419">enumerate untriaged memos</text><polygon fill="#000000" points="437,467.1406,427,471.1406,437,475.1406,433,471.1406" style="stroke: #000000; stroke-width: 1.0;"/><line style="stroke: #000000; stroke-width: 1.0; stroke-dasharray: 2.0,2.0;" x1="431" x2="765" y1="471.1406" y2="471.1406"/><text fill="#000000" font-family="Helvetica" font-size="13" lengthAdjust="spacingAndGlyphs" textLength="129" x="443" y="466.0747">untriaged memo list</text><polygon fill="#000000" points="604,511.4063,614,515.4063,604,519.4063,608,515.4063" style="stroke: #000000; stroke-width: 1.0;"/><line style="stroke: #000000; stroke-width: 1.0;" x1="426" x2="610" y1="515.4063" y2="515.4063"/><text fill="#000000" font-family="Helvetica" font-size="13" lengthAdjust="spacingAndGlyphs" textLength="166" x="433" y="495.2075">read current spec content</text><text fill="#000000" font-family="Helvetica" font-size="13" lengthAdjust="spacingAndGlyphs" textLength="162" x="433" y="510.3403">(for disposition decisions)</text><polygon fill="#000000" points="437,540.5391,427,544.5391,437,548.5391,433,544.5391" style="stroke: #000000; stroke-width: 1.0;"/><line style="stroke: #000000; stroke-width: 1.0; stroke-dasharray: 2.0,2.0;" x1="431" x2="615" y1="544.5391" y2="544.5391"/><text fill="#000000" font-family="Helvetica" font-size="13" lengthAdjust="spacingAndGlyphs" textLength="83" x="443" y="539.4731">spec content</text><path d="M13,559.5391 L90,559.5391 L90,566.5391 L80,576.5391 L13,576.5391 L13,559.5391 " fill="#EEEEEE" style="stroke: #000000; stroke-width: 1.0;"/><rect fill="none" height="765.3984" style="stroke: #000000; stroke-width: 2.0;" width="1345" x="13" y="559.5391"/><text fill="#000000" font-family="Helvetica" font-size="13" font-weight="bold" lengthAdjust="spacingAndGlyphs" textLength="32" x="28" y="572.606">loop</text><text fill="#000000" font-family="Helvetica" font-size="11" font-weight="bold" lengthAdjust="spacingAndGlyphs" textLength="171" x="105" y="571.7495">[for each untriaged memo]</text><polygon fill="#000000" points="107,608.9375,97,612.9375,107,616.9375,103,612.9375" style="stroke: #000000; stroke-width: 1.0;"/><line style="stroke: #000000; stroke-width: 1.0;" x1="101" x2="415" y1="612.9375" y2="612.9375"/><text fill="#000000" font-family="Helvetica" font-size="13" lengthAdjust="spacingAndGlyphs" textLength="122" x="113" y="592.7388">surface memo text</text><text fill="#000000" font-family="Helvetica" font-size="13" lengthAdjust="spacingAndGlyphs" textLength="167" x="113" y="607.8716">+ suggested classification</text><path d="M23,627.9375 L87,627.9375 L87,634.9375 L77,644.9375 L23,644.9375 L23,627.9375 " fill="#EEEEEE" style="stroke: #000000; stroke-width: 1.0;"/><rect fill="none" height="690" style="stroke: #000000; stroke-width: 2.0;" width="1325" x="23" y="627.9375"/><text fill="#000000" font-family="Helvetica" font-size="13" font-weight="bold" lengthAdjust="spacingAndGlyphs" textLength="19" x="38" y="641.0044">alt</text><text fill="#000000" font-family="Helvetica" font-size="11" font-weight="bold" lengthAdjust="spacingAndGlyphs" textLength="94" x="102" y="640.1479">[SPEC-BOUND]</text><polygon fill="#000000" points="404,662.2031,414,666.2031,404,670.2031,408,666.2031" style="stroke: #000000; stroke-width: 1.0;"/><line style="stroke: #000000; stroke-width: 1.0; stroke-dasharray: 2.0,2.0;" x1="96" x2="410" y1="666.2031" y2="666.2031"/><text fill="#000000" font-family="Helvetica" font-size="13" lengthAdjust="spacingAndGlyphs" textLength="134" x="103" y="661.1372">confirms spec-bound</text><polygon fill="#000000" points="918.5,691.3359,928.5,695.3359,918.5,699.3359,922.5,695.3359" style="stroke: #000000; stroke-width: 1.0;"/><line style="stroke: #000000; stroke-width: 1.0;" x1="426" x2="924.5" y1="695.3359" y2="695.3359"/><text fill="#000000" font-family="Helvetica" font-size="13" lengthAdjust="spacingAndGlyphs" textLength="200" x="433" y="690.27">invoke with memo text as input</text><line style="stroke: #000000; stroke-width: 1.0;" x1="930.5" x2="972.5" y1="724.4688" y2="724.4688"/><line style="stroke: #000000; stroke-width: 1.0;" x1="972.5" x2="972.5" y1="724.4688" y2="737.4688"/><line style="stroke: #000000; stroke-width: 1.0;" x1="931.5" x2="972.5" y1="737.4688" y2="737.4688"/><polygon fill="#000000" points="941.5,733.4688,931.5,737.4688,941.5,741.4688,937.5,737.4688" style="stroke: #000000; stroke-width: 1.0;"/><text fill="#000000" font-family="Helvetica" font-size="13" lengthAdjust="spacingAndGlyphs" textLength="202" x="937.5" y="719.4028">interactive structured authoring</text><polygon fill="#000000" points="437,762.6016,427,766.6016,437,770.6016,433,766.6016" style="stroke: #000000; stroke-width: 1.0;"/><line style="stroke: #000000; stroke-width: 1.0; stroke-dasharray: 2.0,2.0;" x1="431" x2="929.5" y1="766.6016" y2="766.6016"/><text fill="#000000" font-family="Helvetica" font-size="13" lengthAdjust="spacingAndGlyphs" textLength="183" x="443" y="761.5356">proposed_change file written</text><polygon fill="#000000" points="754,791.7344,764,795.7344,754,799.7344,758,795.7344" style="stroke: #000000; stroke-width: 1.0;"/><line style="stroke: #000000; stroke-width: 1.0;" x1="426" x2="760" y1="795.7344" y2="795.7344"/><text fill="#000000" font-family="Helvetica" font-size="13" lengthAdjust="spacingAndGlyphs" textLength="255" x="433" y="790.6685">mark memo spec-bound (state marker)</text><line style="stroke: #000000; stroke-width: 1.0; stroke-dasharray: 2.0,2.0;" x1="23" x2="1348" y1="804.7344" y2="804.7344"/><text fill="#000000" font-family="Helvetica" font-size="11" font-weight="bold" lengthAdjust="spacingAndGlyphs" textLength="91" x="28" y="814.9448">[IMPL-BOUND]</text><polygon fill="#000000" points="404,835.6719,414,839.6719,404,843.6719,408,839.6719" style="stroke: #000000; stroke-width: 1.0;"/><line style="stroke: #000000; stroke-width: 1.0; stroke-dasharray: 2.0,2.0;" x1="96" x2="410" y1="839.6719" y2="839.6719"/><text fill="#000000" font-family="Helvetica" font-size="13" lengthAdjust="spacingAndGlyphs" textLength="131" x="103" y="834.606">confirms impl-bound</text><polygon fill="#000000" points="1134.5,879.9375,1144.5,883.9375,1134.5,887.9375,1138.5,883.9375" style="stroke: #000000; stroke-width: 1.0;"/><line style="stroke: #000000; stroke-width: 1.0;" x1="426" x2="1140.5" y1="883.9375" y2="883.9375"/><text fill="#000000" font-family="Helvetica" font-size="13" lengthAdjust="spacingAndGlyphs" textLength="143" x="433" y="863.7388">file freeform work item</text><text fill="#000000" font-family="Helvetica" font-size="13" lengthAdjust="spacingAndGlyphs" textLength="104" x="433" y="878.8716">(no gap-id label)</text><polygon fill="#000000" points="437,909.0703,427,913.0703,437,917.0703,433,913.0703" style="stroke: #000000; stroke-width: 1.0;"/><line style="stroke: #000000; stroke-width: 1.0; stroke-dasharray: 2.0,2.0;" x1="431" x2="1145.5" y1="913.0703" y2="913.0703"/><text fill="#000000" font-family="Helvetica" font-size="13" lengthAdjust="spacingAndGlyphs" textLength="77" x="443" y="908.0044">work item id</text><polygon fill="#000000" points="754,963.9023,764,967.9023,754,971.9023,758,967.9023" style="stroke: #000000; stroke-width: 1.0;"/><line style="stroke: #000000; stroke-width: 1.0;" x1="426" x2="760" y1="967.9023" y2="967.9023"/><text fill="#000000" font-family="Helvetica" font-size="13" lengthAdjust="spacingAndGlyphs" textLength="252" x="433" y="962.8364">mark memo impl-bound (state marker)</text><path d="M771,926.0703 L771,996.0703 L1058,996.0703 L1058,936.0703 L1048,926.0703 L771,926.0703 " fill="#FBFB77" style="stroke: #A80036; stroke-width: 1.0;"/><path d="M1048,926.0703 L1048,936.0703 L1058,936.0703 L1048,926.0703 " fill="#FBFB77" style="stroke: #A80036; stroke-width: 1.0;"/><text fill="#000000" font-family="Helvetica" font-size="13" lengthAdjust="spacingAndGlyphs" textLength="217" x="777" y="943.1372">Freeform — joins the same queue</text><text fill="#000000" font-family="Helvetica" font-size="13" lengthAdjust="spacingAndGlyphs" textLength="266" x="777" y="958.27">capture-impl-gaps and capture-work-item</text><text fill="#000000" font-family="Helvetica" font-size="13" lengthAdjust="spacingAndGlyphs" textLength="234" x="777" y="973.4028">populate; implement picks it up later</text><text fill="#000000" font-family="Helvetica" font-size="13" lengthAdjust="spacingAndGlyphs" textLength="229" x="777" y="988.5356">and closes via the freeform fix path.</text><line style="stroke: #000000; stroke-width: 1.0; stroke-dasharray: 2.0,2.0;" x1="23" x2="1348" y1="1002.6016" y2="1002.6016"/><text fill="#000000" font-family="Helvetica" font-size="11" font-weight="bold" lengthAdjust="spacingAndGlyphs" textLength="174" x="28" y="1012.812">[PERSISTENT-KNOWLEDGE]</text><polygon fill="#000000" points="404,1048.6719,414,1052.6719,404,1056.6719,408,1052.6719" style="stroke: #000000; stroke-width: 1.0;"/><line style="stroke: #000000; stroke-width: 1.0; stroke-dasharray: 2.0,2.0;" x1="96" x2="410" y1="1052.6719" y2="1052.6719"/><text fill="#000000" font-family="Helvetica" font-size="13" lengthAdjust="spacingAndGlyphs" textLength="59" x="103" y="1032.4731">confirms;</text><text fill="#000000" font-family="Helvetica" font-size="13" lengthAdjust="spacingAndGlyphs" textLength="168" x="103" y="1047.606">chooses topic / placement</text><polygon fill="#000000" points="1258,1123.2031,1268,1127.2031,1258,1131.2031,1262,1127.2031" style="stroke: #000000; stroke-width: 1.0;"/><line style="stroke: #000000; stroke-width: 1.0;" x1="426" x2="1264" y1="1127.2031" y2="1127.2031"/><text fill="#000000" font-family="Helvetica" font-size="13" lengthAdjust="spacingAndGlyphs" textLength="169" x="433" y="1076.7388">graduate memo into store</text><text fill="#000000" font-family="Helvetica" font-size="13" lengthAdjust="spacingAndGlyphs" textLength="182" x="433" y="1091.8716">(form is plugin-dependent —</text><text fill="#000000" font-family="Helvetica" font-size="13" lengthAdjust="spacingAndGlyphs" textLength="148" x="433" y="1107.0044">harness instruction file,</text><text fill="#000000" font-family="Helvetica" font-size="13" lengthAdjust="spacingAndGlyphs" textLength="193" x="433" y="1122.1372">long-lived memory entry, etc.)</text><polygon fill="#000000" points="437,1152.3359,427,1156.3359,437,1160.3359,433,1156.3359" style="stroke: #000000; stroke-width: 1.0;"/><line style="stroke: #000000; stroke-width: 1.0; stroke-dasharray: 2.0,2.0;" x1="431" x2="1269" y1="1156.3359" y2="1156.3359"/><text fill="#000000" font-family="Helvetica" font-size="13" lengthAdjust="spacingAndGlyphs" textLength="80" x="443" y="1151.27">entry written</text><polygon fill="#000000" points="754,1207.168,764,1211.168,754,1215.168,758,1211.168" style="stroke: #000000; stroke-width: 1.0;"/><line style="stroke: #000000; stroke-width: 1.0;" x1="426" x2="760" y1="1211.168" y2="1211.168"/><text fill="#000000" font-family="Helvetica" font-size="13" lengthAdjust="spacingAndGlyphs" textLength="316" x="433" y="1206.1021">mark memo persistent-knowledge (state marker)</text><path d="M771,1169.3359 L771,1239.3359 L1055,1239.3359 L1055,1179.3359 L1045,1169.3359 L771,1169.3359 " fill="#FBFB77" style="stroke: #A80036; stroke-width: 1.0;"/><path d="M1045,1169.3359 L1045,1179.3359 L1055,1179.3359 L1045,1169.3359 " fill="#FBFB77" style="stroke: #A80036; stroke-width: 1.0;"/><text fill="#000000" font-family="Helvetica" font-size="13" lengthAdjust="spacingAndGlyphs" textLength="211" x="777" y="1186.4028">Each entry is named, retrievable,</text><text fill="#000000" font-family="Helvetica" font-size="13" lengthAdjust="spacingAndGlyphs" textLength="242" x="777" y="1201.5356">and explicitly graduated. Replaces the</text><text fill="#000000" font-family="Helvetica" font-size="13" lengthAdjust="spacingAndGlyphs" textLength="263" x="777" y="1216.6685">junk-drawer-by-default pattern from tools</text><text fill="#000000" font-family="Helvetica" font-size="13" lengthAdjust="spacingAndGlyphs" textLength="117" x="777" y="1231.8013">like bd remember.</text><line style="stroke: #000000; stroke-width: 1.0; stroke-dasharray: 2.0,2.0;" x1="23" x2="1348" y1="1245.8672" y2="1245.8672"/><text fill="#000000" font-family="Helvetica" font-size="11" font-weight="bold" lengthAdjust="spacingAndGlyphs" textLength="65" x="28" y="1256.0776">[DISCARD]</text><polygon fill="#000000" points="404,1276.8047,414,1280.8047,404,1284.8047,408,1280.8047" style="stroke: #000000; stroke-width: 1.0;"/><line style="stroke: #000000; stroke-width: 1.0; stroke-dasharray: 2.0,2.0;" x1="96" x2="410" y1="1280.8047" y2="1280.8047"/><text fill="#000000" font-family="Helvetica" font-size="13" lengthAdjust="spacingAndGlyphs" textLength="105" x="103" y="1275.7388">confirms discard</text><polygon fill="#000000" points="754,1305.9375,764,1309.9375,754,1313.9375,758,1309.9375" style="stroke: #000000; stroke-width: 1.0;"/><line style="stroke: #000000; stroke-width: 1.0;" x1="426" x2="760" y1="1309.9375" y2="1309.9375"/><text fill="#000000" font-family="Helvetica" font-size="13" lengthAdjust="spacingAndGlyphs" textLength="242" x="433" y="1304.8716">mark memo discarded (state marker)</text><polygon fill="#000000" points="107,1364.2031,97,1368.2031,107,1372.2031,103,1368.2031" style="stroke: #000000; stroke-width: 1.0;"/><line style="stroke: #000000; stroke-width: 1.0; stroke-dasharray: 2.0,2.0;" x1="101" x2="420" y1="1368.2031" y2="1368.2031"/><text fill="#000000" font-family="Helvetica" font-size="13" lengthAdjust="spacingAndGlyphs" textLength="154" x="113" y="1348.0044">summary (N processed,</text><text fill="#000000" font-family="Helvetica" font-size="13" lengthAdjust="spacingAndGlyphs" textLength="165" x="113" y="1363.1372">breakdown by disposition)</text><path d="M33,1381.2031 L33,1496.2031 L1333,1496.2031 L1333,1391.2031 L1323,1381.2031 L33,1381.2031 " fill="#FBFB77" style="stroke: #A80036; stroke-width: 1.0;"/><path d="M1323,1381.2031 L1323,1391.2031 L1333,1391.2031 L1323,1381.2031 " fill="#FBFB77" style="stroke: #A80036; stroke-width: 1.0;"/><text fill="#000000" font-family="Helvetica" font-size="13" lengthAdjust="spacingAndGlyphs" textLength="281" x="538" y="1398.27">LiveSpec Core's doctor KNOWS that memos</text><text fill="#000000" font-family="Helvetica" font-size="13" lengthAdjust="spacingAndGlyphs" textLength="250" x="538" y="1413.4028">exist (via the untriaged-query contract)</text><text fill="#000000" font-family="Helvetica" font-size="13" lengthAdjust="spacingAndGlyphs" textLength="261" x="538" y="1428.5356">but NEVER routes them. Routing is 100%</text><text fill="#000000" font-family="Helvetica" font-size="13" lengthAdjust="spacingAndGlyphs" textLength="206" x="538" y="1443.6685">on the impl-plugin side. The only</text><text fill="#000000" font-family="Helvetica" font-size="13" lengthAdjust="spacingAndGlyphs" textLength="205" x="538" y="1458.8013">cross-namespace handoff is the</text><text fill="#000000" font-family="Helvetica" font-size="13" lengthAdjust="spacingAndGlyphs" textLength="204" x="538" y="1473.9341">SPEC-BOUND disposition calling</text><text fill="#000000" font-family="Helvetica" font-size="13" lengthAdjust="spacingAndGlyphs" textLength="174" x="538" y="1489.0669">/livespec:propose-changes.</text><!--MD5=[a21f5cccb6ff05dec9ecc90a2d3762a6]
@startuml seq-process-memos
title Sequence — /livespec-impl-*:process-memos (four dispositions)
skinparam defaultFontName Helvetica
skinparam shadowing false
skinparam BackgroundColor #fafafa
skinparam ArrowColor #000000
skinparam sequence {
  ParticipantBorderColor #1f4768
  ParticipantBackgroundColor #d6e6f5
  ParticipantFontColor #111
  ActorBorderColor #111
  ActorBackgroundColor #fffacc
  ActorFontColor #111
  LifeLineBorderColor #444
}

actor "Initial intent\n(human or agent)" as User
participant "/livespec:doctor" as Doctor
participant "/livespec-impl-*:\nprocess-memos" as Process
participant "Spec Reader" as SpecReader
participant "Memos\n(plugin store)" as Memos
participant "/livespec:propose-changes" as Propose
participant "Work Items" as Queue
participant "Persistent\nAgent Knowledge" as AgentKnowledge

== Hygiene trigger (background invariant) ==

User -> Doctor : invoke (routine check\nor pre/post-step wrapper)
Doctor -> Memos : untriaged-memo query\n(machine contract)
Memos - -> Doctor : N untriaged entries
Doctor -> User : warn: "N memos pending,\nrun process-memos"

== Per-memo dispositions ==

User -> Process : invoke
activate Process

Process -> Memos : enumerate untriaged memos
Memos - -> Process : untriaged memo list

Process -> SpecReader : read current spec content\n(for disposition decisions)
SpecReader - -> Process : spec content

loop for each untriaged memo
  Process -> User : surface memo text\n+ suggested classification

  alt SPEC-BOUND
    User - -> Process : confirms spec-bound
    Process -> Propose : invoke with memo text as input
    Propose -> Propose : interactive structured authoring
    Propose - -> Process : proposed_change file written
    Process -> Memos : mark memo spec-bound (state marker)
  else IMPL-BOUND
    User - -> Process : confirms impl-bound
    Process -> Queue : file freeform work item\n(no gap-id label)
    Queue - -> Process : work item id
    Process -> Memos : mark memo impl-bound (state marker)
    note right : Freeform — joins the same queue\ncapture-impl-gaps and capture-work-item\npopulate; implement picks it up later\nand closes via the freeform fix path.
  else PERSISTENT-KNOWLEDGE
    User - -> Process : confirms;\nchooses topic / placement
    Process -> AgentKnowledge : graduate memo into store\n(form is plugin-dependent —\nharness instruction file,\nlong-lived memory entry, etc.)
    AgentKnowledge - -> Process : entry written
    Process -> Memos : mark memo persistent-knowledge (state marker)
    note right : Each entry is named, retrievable,\nand explicitly graduated. Replaces the\njunk-drawer-by-default pattern from tools\nlike bd remember.
  else DISCARD
    User - -> Process : confirms discard
    Process -> Memos : mark memo discarded (state marker)
  end
end

Process - -> User : summary (N processed,\nbreakdown by disposition)
deactivate Process

note over User, AgentKnowledge : LiveSpec Core's doctor KNOWS that memos\nexist (via the untriaged-query contract)\nbut NEVER routes them. Routing is 100%\non the impl-plugin side. The only\ncross-namespace handoff is the\nSPEC-BOUND disposition calling\n/livespec:propose-changes.

@enduml

PlantUML version 1.2020.02(Sun Mar 01 11:22:07 CET 2020)
(GPL source distribution)
Java Runtime: OpenJDK Runtime Environment
JVM: OpenJDK 64-Bit Server VM
Java Version: 21.0.10+7-Ubuntu-125.10
Operating System: Linux
Default Encoding: UTF-8
Language: en
Country: null
--></g></svg>