<?xml version="1.0" encoding="UTF-8" standalone="no"?><svg xmlns="http://www.w3.org/2000/svg" xmlns:xlink="http://www.w3.org/1999/xlink" contentScriptType="application/ecmascript" contentStyleType="text/css" height="1480px" preserveAspectRatio="none" style="width:1393px;height:1480px;background:#FAFAFA;" version="1.1" viewBox="0 0 1393 1480" width="1393px" zoomAndPan="magnify"><defs/><g><text fill="#000000" font-family="Helvetica" font-size="18" lengthAdjust="spacingAndGlyphs" textLength="419" x="488" y="26.708">Sequence — /livespec-impl-*:capture-impl-gaps</text><rect fill="#FFFFFF" height="1068.0547" style="stroke: #444444; stroke-width: 1.0;" width="10" x="393" y="164.6797"/><rect fill="#FAFAFA" height="254.1328" style="stroke: #000000; stroke-width: 2.0;" width="1369" x="13" y="711.4688"/><rect fill="#FAFAFA" height="178.7344" style="stroke: #000000; stroke-width: 2.0;" width="1349" x="23" y="779.8672"/><rect fill="#FAFAFA" height="43.9375" style="stroke: none; stroke-width: 1.0;" width="1349" x="23" y="914.6641"/><rect fill="#FAFAFA" height="225" style="stroke: #000000; stroke-width: 2.0;" width="1369" x="13" y="979.6016"/><rect fill="#FAFAFA" height="134.4688" style="stroke: #000000; stroke-width: 2.0;" width="1349" x="23" y="1063.1328"/><rect fill="#FAFAFA" height="43.9375" style="stroke: none; stroke-width: 1.0;" width="1349" x="23" y="1153.6641"/><line style="stroke: #444444; stroke-width: 1.0; stroke-dasharray: 5.0,5.0;" x1="96" x2="96" y1="133.5469" y2="1376.6641"/><line style="stroke: #444444; stroke-width: 1.0; stroke-dasharray: 5.0,5.0;" x1="397.5" x2="397.5" y1="133.5469" y2="1376.6641"/><line style="stroke: #444444; stroke-width: 1.0; stroke-dasharray: 5.0,5.0;" x1="734.5" x2="734.5" y1="133.5469" y2="1376.6641"/><line style="stroke: #444444; stroke-width: 1.0; stroke-dasharray: 5.0,5.0;" x1="939" x2="939" y1="133.5469" y2="1376.6641"/><line style="stroke: #444444; stroke-width: 1.0; stroke-dasharray: 5.0,5.0;" x1="1042" x2="1042" y1="133.5469" y2="1376.6641"/><line style="stroke: #444444; stroke-width: 1.0; stroke-dasharray: 5.0,5.0;" x1="1161" x2="1161" y1="133.5469" y2="1376.6641"/><line style="stroke: #444444; stroke-width: 1.0; stroke-dasharray: 5.0,5.0;" x1="1304" x2="1304" y1="133.5469" y2="1376.6641"/><text fill="#111111" font-family="Helvetica" font-size="14" lengthAdjust="spacingAndGlyphs" textLength="78" x="54" y="113.9482">Initial intent</text><text fill="#111111" font-family="Helvetica" font-size="14" lengthAdjust="spacingAndGlyphs" textLength="120" x="33" y="130.2451">(human or agent)</text><ellipse cx="96" cy="47.9531" fill="#FFFACC" rx="8" ry="8" style="stroke: #111111; stroke-width: 2.0;"/><path d="M96,55.9531 L96,82.9531 M83,63.9531 L109,63.9531 M96,82.9531 L83,97.9531 M96,82.9531 L109,97.9531 " fill="none" style="stroke: #111111; stroke-width: 2.0;"/><text fill="#111111" font-family="Helvetica" font-size="14" lengthAdjust="spacingAndGlyphs" textLength="78" x="54" y="1388.6592">Initial intent</text><text fill="#111111" font-family="Helvetica" font-size="14" lengthAdjust="spacingAndGlyphs" textLength="120" x="33" y="1404.9561">(human or agent)</text><ellipse cx="96" cy="1418.2578" fill="#FFFACC" rx="8" ry="8" style="stroke: #111111; stroke-width: 2.0;"/><path d="M96,1426.2578 L96,1453.2578 M83,1434.2578 L109,1434.2578 M96,1453.2578 L83,1468.2578 M96,1453.2578 L109,1468.2578 " fill="none" style="stroke: #111111; stroke-width: 2.0;"/><rect fill="#D6E6F5" height="46.5938" style="stroke: #1F4768; stroke-width: 1.5;" width="139" x="328.5" y="85.9531"/><text fill="#111111" font-family="Helvetica" font-size="14" lengthAdjust="spacingAndGlyphs" textLength="111" x="342.5" y="105.9482">/livespec-impl-*:</text><text fill="#111111" font-family="Helvetica" font-size="14" lengthAdjust="spacingAndGlyphs" textLength="125" x="335.5" y="122.2451">capture-impl-gaps</text><rect fill="#D6E6F5" height="46.5938" style="stroke: #1F4768; stroke-width: 1.5;" width="139" x="328.5" y="1375.6641"/><text fill="#111111" font-family="Helvetica" font-size="14" lengthAdjust="spacingAndGlyphs" textLength="111" x="342.5" y="1395.6592">/livespec-impl-*:</text><text fill="#111111" font-family="Helvetica" font-size="14" lengthAdjust="spacingAndGlyphs" textLength="125" x="335.5" y="1411.9561">capture-impl-gaps</text><rect fill="#D6E6F5" height="46.5938" style="stroke: #1F4768; stroke-width: 1.5;" width="143" x="663.5" y="85.9531"/><text fill="#111111" font-family="Helvetica" font-size="14" lengthAdjust="spacingAndGlyphs" textLength="89" x="690.5" y="105.9482">Spec Reader</text><text fill="#111111" font-family="Helvetica" font-size="14" lengthAdjust="spacingAndGlyphs" textLength="129" x="670.5" y="122.2451">(impl-side adapter)</text><rect fill="#D6E6F5" height="46.5938" style="stroke: #1F4768; stroke-width: 1.5;" width="143" x="663.5" y="1375.6641"/><text fill="#111111" font-family="Helvetica" font-size="14" lengthAdjust="spacingAndGlyphs" textLength="89" x="690.5" y="1395.6592">Spec Reader</text><text fill="#111111" font-family="Helvetica" font-size="14" lengthAdjust="spacingAndGlyphs" textLength="129" x="670.5" y="1411.9561">(impl-side adapter)</text><rect fill="#D6E6F5" height="30.2969" style="stroke: #1F4768; stroke-width: 1.5;" width="122" x="878" y="102.25"/><text fill="#111111" font-family="Helvetica" font-size="14" lengthAdjust="spacingAndGlyphs" textLength="108" x="885" y="122.2451">SPECIFICATION/</text><rect fill="#D6E6F5" height="30.2969" style="stroke: #1F4768; stroke-width: 1.5;" width="122" x="878" y="1375.6641"/><text fill="#111111" font-family="Helvetica" font-size="14" lengthAdjust="spacingAndGlyphs" textLength="108" x="885" y="1395.6592">SPECIFICATION/</text><rect fill="#D6E6F5" height="30.2969" style="stroke: #1F4768; stroke-width: 1.5;" width="65" x="1010" y="102.25"/><text fill="#111111" font-family="Helvetica" font-size="14" lengthAdjust="spacingAndGlyphs" textLength="51" x="1017" y="122.2451">history/</text><rect fill="#D6E6F5" height="30.2969" style="stroke: #1F4768; stroke-width: 1.5;" width="65" x="1010" y="1375.6641"/><text fill="#111111" font-family="Helvetica" font-size="14" lengthAdjust="spacingAndGlyphs" textLength="51" x="1017" y="1395.6592">history/</text><rect fill="#D6E6F5" height="46.5938" style="stroke: #1F4768; stroke-width: 1.5;" width="152" x="1085" y="85.9531"/><text fill="#111111" font-family="Helvetica" font-size="14" lengthAdjust="spacingAndGlyphs" textLength="107" x="1107.5" y="105.9482">Implementation</text><text fill="#111111" font-family="Helvetica" font-size="14" lengthAdjust="spacingAndGlyphs" textLength="138" x="1092" y="122.2451">(code, tests, config)</text><rect fill="#D6E6F5" height="46.5938" style="stroke: #1F4768; stroke-width: 1.5;" width="152" x="1085" y="1375.6641"/><text fill="#111111" font-family="Helvetica" font-size="14" lengthAdjust="spacingAndGlyphs" textLength="107" x="1107.5" y="1395.6592">Implementation</text><text fill="#111111" font-family="Helvetica" font-size="14" lengthAdjust="spacingAndGlyphs" textLength="138" x="1092" y="1411.9561">(code, tests, config)</text><rect fill="#D6E6F5" height="46.5938" style="stroke: #1F4768; stroke-width: 1.5;" width="115" x="1247" y="85.9531"/><text fill="#111111" font-family="Helvetica" font-size="14" lengthAdjust="spacingAndGlyphs" textLength="77" x="1266" y="105.9482">Work Items</text><text fill="#111111" font-family="Helvetica" font-size="14" lengthAdjust="spacingAndGlyphs" textLength="101" x="1254" y="122.2451">(plugin queue)</text><rect fill="#D6E6F5" height="46.5938" style="stroke: #1F4768; stroke-width: 1.5;" width="115" x="1247" y="1375.6641"/><text fill="#111111" font-family="Helvetica" font-size="14" lengthAdjust="spacingAndGlyphs" textLength="77" x="1266" y="1395.6592">Work Items</text><text fill="#111111" font-family="Helvetica" font-size="14" lengthAdjust="spacingAndGlyphs" textLength="101" x="1254" y="1411.9561">(plugin queue)</text><rect fill="#FFFFFF" height="1068.0547" style="stroke: #444444; stroke-width: 1.0;" width="10" x="393" y="164.6797"/><polygon fill="#000000" points="381,160.6797,391,164.6797,381,168.6797,385,164.6797" style="stroke: #000000; stroke-width: 1.0;"/><line style="stroke: #000000; stroke-width: 1.0;" x1="96" x2="387" y1="164.6797" y2="164.6797"/><text fill="#000000" font-family="Helvetica" font-size="13" lengthAdjust="spacingAndGlyphs" textLength="41" x="103" y="159.6138">invoke</text><polygon fill="#000000" points="723,204.9453,733,208.9453,723,212.9453,727,208.9453" style="stroke: #000000; stroke-width: 1.0;"/><line style="stroke: #000000; stroke-width: 1.0;" x1="403" x2="729" y1="208.9453" y2="208.9453"/><text fill="#000000" font-family="Helvetica" font-size="13" lengthAdjust="spacingAndGlyphs" textLength="166" x="410" y="188.7466">read current spec content</text><text fill="#000000" font-family="Helvetica" font-size="13" lengthAdjust="spacingAndGlyphs" textLength="145" x="410" y="203.8794">+ current spec version</text><polygon fill="#000000" points="927,234.0781,937,238.0781,927,242.0781,931,238.0781" style="stroke: #000000; stroke-width: 1.0;"/><line style="stroke: #000000; stroke-width: 1.0;" x1="735" x2="933" y1="238.0781" y2="238.0781"/><text fill="#000000" font-family="Helvetica" font-size="13" lengthAdjust="spacingAndGlyphs" textLength="180" x="742" y="233.0122">read template-declared files</text><polygon fill="#000000" points="746,263.2109,736,267.2109,746,271.2109,742,267.2109" style="stroke: #000000; stroke-width: 1.0;"/><line style="stroke: #000000; stroke-width: 1.0; stroke-dasharray: 2.0,2.0;" x1="740" x2="938" y1="267.2109" y2="267.2109"/><text fill="#000000" font-family="Helvetica" font-size="13" lengthAdjust="spacingAndGlyphs" textLength="133" x="752" y="262.145">current spec content</text><polygon fill="#000000" points="1030.5,292.3438,1040.5,296.3438,1030.5,300.3438,1034.5,296.3438" style="stroke: #000000; stroke-width: 1.0;"/><line style="stroke: #000000; stroke-width: 1.0;" x1="735" x2="1036.5" y1="296.3438" y2="296.3438"/><text fill="#000000" font-family="Helvetica" font-size="13" lengthAdjust="spacingAndGlyphs" textLength="181" x="742" y="291.2778">current spec version (vNNN)</text><polygon fill="#000000" points="746,321.4766,736,325.4766,746,329.4766,742,325.4766" style="stroke: #000000; stroke-width: 1.0;"/><line style="stroke: #000000; stroke-width: 1.0; stroke-dasharray: 2.0,2.0;" x1="740" x2="1041.5" y1="325.4766" y2="325.4766"/><text fill="#000000" font-family="Helvetica" font-size="13" lengthAdjust="spacingAndGlyphs" textLength="37" x="752" y="320.4106">vNNN</text><polygon fill="#000000" points="414,350.6094,404,354.6094,414,358.6094,410,354.6094" style="stroke: #000000; stroke-width: 1.0;"/><line style="stroke: #000000; stroke-width: 1.0; stroke-dasharray: 2.0,2.0;" x1="408" x2="734" y1="354.6094" y2="354.6094"/><text fill="#000000" font-family="Helvetica" font-size="13" lengthAdjust="spacingAndGlyphs" textLength="148" x="420" y="349.5435">spec content + version</text><line style="stroke: #000000; stroke-width: 1.0;" x1="403" x2="445" y1="414.0078" y2="414.0078"/><line style="stroke: #000000; stroke-width: 1.0;" x1="445" x2="445" y1="414.0078" y2="427.0078"/><line style="stroke: #000000; stroke-width: 1.0;" x1="404" x2="445" y1="427.0078" y2="427.0078"/><polygon fill="#000000" points="414,423.0078,404,427.0078,414,431.0078,410,427.0078" style="stroke: #000000; stroke-width: 1.0;"/><text fill="#000000" font-family="Helvetica" font-size="13" lengthAdjust="spacingAndGlyphs" textLength="151" x="410" y="378.6763">check own last-checked</text><text fill="#000000" font-family="Helvetica" font-size="13" lengthAdjust="spacingAndGlyphs" textLength="100" x="410" y="393.8091">version marker;</text><text fill="#000000" font-family="Helvetica" font-size="13" lengthAdjust="spacingAndGlyphs" textLength="193" x="410" y="408.9419">if unchanged, can short-circuit</text><polygon fill="#000000" points="1149,452.1406,1159,456.1406,1149,460.1406,1153,456.1406" style="stroke: #000000; stroke-width: 1.0;"/><line style="stroke: #000000; stroke-width: 1.0;" x1="403" x2="1155" y1="456.1406" y2="456.1406"/><text fill="#000000" font-family="Helvetica" font-size="13" lengthAdjust="spacingAndGlyphs" textLength="216" x="410" y="451.0747">walk per gap-detection predicates</text><polygon fill="#000000" points="414,481.2734,404,485.2734,414,489.2734,410,485.2734" style="stroke: #000000; stroke-width: 1.0;"/><line style="stroke: #000000; stroke-width: 1.0; stroke-dasharray: 2.0,2.0;" x1="408" x2="1160" y1="485.2734" y2="485.2734"/><text fill="#000000" font-family="Helvetica" font-size="13" lengthAdjust="spacingAndGlyphs" textLength="188" x="420" y="480.2075">current implementation state</text><path d="M408,498.2734 L408,553.2734 L606,553.2734 L606,508.2734 L596,498.2734 L408,498.2734 " fill="#FBFB77" style="stroke: #A80036; stroke-width: 1.0;"/><path d="M596,498.2734 L596,508.2734 L606,508.2734 L596,498.2734 " fill="#FBFB77" style="stroke: #A80036; stroke-width: 1.0;"/><text fill="#000000" font-family="Helvetica" font-size="13" lengthAdjust="spacingAndGlyphs" textLength="177" x="414" y="515.3403">Detection is ephemeral and</text><text fill="#000000" font-family="Helvetica" font-size="13" lengthAdjust="spacingAndGlyphs" textLength="164" x="414" y="530.4731">in-memory. No persistent</text><text fill="#000000" font-family="Helvetica" font-size="13" lengthAdjust="spacingAndGlyphs" textLength="135" x="414" y="545.606">intermediate artifact.</text><line style="stroke: #000000; stroke-width: 1.0;" x1="403" x2="445" y1="625.2031" y2="625.2031"/><line style="stroke: #000000; stroke-width: 1.0;" x1="445" x2="445" y1="625.2031" y2="638.2031"/><line style="stroke: #000000; stroke-width: 1.0;" x1="404" x2="445" y1="638.2031" y2="638.2031"/><polygon fill="#000000" points="414,634.2031,404,638.2031,414,642.2031,410,638.2031" style="stroke: #000000; stroke-width: 1.0;"/><text fill="#000000" font-family="Helvetica" font-size="13" lengthAdjust="spacingAndGlyphs" textLength="273" x="410" y="574.7388">compute 3-way diff vs. existing work items:</text><text fill="#000000" font-family="Helvetica" font-size="13" lengthAdjust="spacingAndGlyphs" textLength="241" x="410" y="589.8716">• predicted-but-untracked (new gaps)</text><text fill="#000000" font-family="Helvetica" font-size="13" lengthAdjust="spacingAndGlyphs" textLength="313" x="410" y="605.0044">• tracked-but-no-longer-predicted (stale gap-ids)</text><text fill="#000000" font-family="Helvetica" font-size="13" lengthAdjust="spacingAndGlyphs" textLength="192" x="410" y="620.1372">• both (still-open known gaps)</text><polygon fill="#000000" points="1292.5,663.3359,1302.5,667.3359,1292.5,671.3359,1296.5,667.3359" style="stroke: #000000; stroke-width: 1.0;"/><line style="stroke: #000000; stroke-width: 1.0;" x1="403" x2="1298.5" y1="667.3359" y2="667.3359"/><text fill="#000000" font-family="Helvetica" font-size="13" lengthAdjust="spacingAndGlyphs" textLength="201" x="410" y="662.27">list existing gap-tied work items</text><polygon fill="#000000" points="414,692.4688,404,696.4688,414,700.4688,410,696.4688" style="stroke: #000000; stroke-width: 1.0;"/><line style="stroke: #000000; stroke-width: 1.0; stroke-dasharray: 2.0,2.0;" x1="408" x2="1303.5" y1="696.4688" y2="696.4688"/><text fill="#000000" font-family="Helvetica" font-size="13" lengthAdjust="spacingAndGlyphs" textLength="190" x="420" y="691.4028">current gap-id labels in queue</text><path d="M13,711.4688 L90,711.4688 L90,718.4688 L80,728.4688 L13,728.4688 L13,711.4688 " fill="#EEEEEE" style="stroke: #000000; stroke-width: 1.0;"/><rect fill="none" height="254.1328" style="stroke: #000000; stroke-width: 2.0;" width="1369" x="13" y="711.4688"/><text fill="#000000" font-family="Helvetica" font-size="13" font-weight="bold" lengthAdjust="spacingAndGlyphs" textLength="32" x="28" y="724.5356">loop</text><text fill="#000000" font-family="Helvetica" font-size="11" font-weight="bold" lengthAdjust="spacingAndGlyphs" textLength="263" x="105" y="723.6792">[for each newly-detected untracked gap]</text><polygon fill="#000000" points="107,760.8672,97,764.8672,107,768.8672,103,764.8672" style="stroke: #000000; stroke-width: 1.0;"/><line style="stroke: #000000; stroke-width: 1.0;" x1="101" x2="392" y1="764.8672" y2="764.8672"/><text fill="#000000" font-family="Helvetica" font-size="13" lengthAdjust="spacingAndGlyphs" textLength="189" x="113" y="744.6685">surface gap (id, title, severity,</text><text fill="#000000" font-family="Helvetica" font-size="13" lengthAdjust="spacingAndGlyphs" textLength="205" x="113" y="759.8013">spec_refs, fix_hint, depends_on)</text><path d="M23,779.8672 L87,779.8672 L87,786.8672 L77,796.8672 L23,796.8672 L23,779.8672 " fill="#EEEEEE" style="stroke: #000000; stroke-width: 1.0;"/><rect fill="none" height="178.7344" style="stroke: #000000; stroke-width: 2.0;" width="1349" x="23" y="779.8672"/><text fill="#000000" font-family="Helvetica" font-size="13" font-weight="bold" lengthAdjust="spacingAndGlyphs" textLength="19" x="38" y="792.9341">alt</text><text fill="#000000" font-family="Helvetica" font-size="11" font-weight="bold" lengthAdjust="spacingAndGlyphs" textLength="97" x="102" y="792.0776">[user confirms]</text><polygon fill="#000000" points="381,814.1328,391,818.1328,381,822.1328,385,818.1328" style="stroke: #000000; stroke-width: 1.0;"/><line style="stroke: #000000; stroke-width: 1.0; stroke-dasharray: 2.0,2.0;" x1="96" x2="387" y1="818.1328" y2="818.1328"/><text fill="#000000" font-family="Helvetica" font-size="13" lengthAdjust="spacingAndGlyphs" textLength="85" x="103" y="813.0669">approve filing</text><polygon fill="#000000" points="1292.5,873.5313,1302.5,877.5313,1292.5,881.5313,1296.5,877.5313" style="stroke: #000000; stroke-width: 1.0;"/><line style="stroke: #000000; stroke-width: 1.0;" x1="403" x2="1298.5" y1="877.5313" y2="877.5313"/><text fill="#000000" font-family="Helvetica" font-size="13" lengthAdjust="spacingAndGlyphs" textLength="141" x="410" y="842.1997">file gap-tied work item</text><text fill="#000000" font-family="Helvetica" font-size="13" lengthAdjust="spacingAndGlyphs" textLength="156" x="410" y="857.3325">(gap-id:gap-NNNN label,</text><text fill="#000000" font-family="Helvetica" font-size="13" lengthAdjust="spacingAndGlyphs" textLength="112" x="410" y="872.4653">severity, area, ...)</text><polygon fill="#000000" points="414,902.6641,404,906.6641,414,910.6641,410,906.6641" style="stroke: #000000; stroke-width: 1.0;"/><line style="stroke: #000000; stroke-width: 1.0; stroke-dasharray: 2.0,2.0;" x1="408" x2="1303.5" y1="906.6641" y2="906.6641"/><text fill="#000000" font-family="Helvetica" font-size="13" lengthAdjust="spacingAndGlyphs" textLength="77" x="420" y="901.5981">work item id</text><line style="stroke: #000000; stroke-width: 1.0; stroke-dasharray: 2.0,2.0;" x1="23" x2="1372" y1="915.6641" y2="915.6641"/><text fill="#000000" font-family="Helvetica" font-size="11" font-weight="bold" lengthAdjust="spacingAndGlyphs" textLength="141" x="28" y="925.8745">[user skips / declines]</text><polygon fill="#000000" points="381,946.6016,391,950.6016,381,954.6016,385,950.6016" style="stroke: #000000; stroke-width: 1.0;"/><line style="stroke: #000000; stroke-width: 1.0; stroke-dasharray: 2.0,2.0;" x1="96" x2="387" y1="950.6016" y2="950.6016"/><text fill="#000000" font-family="Helvetica" font-size="13" lengthAdjust="spacingAndGlyphs" textLength="25" x="103" y="945.5356">skip</text><path d="M13,979.6016 L90,979.6016 L90,986.6016 L80,996.6016 L13,996.6016 L13,979.6016 " fill="#EEEEEE" style="stroke: #000000; stroke-width: 1.0;"/><rect fill="none" height="225" style="stroke: #000000; stroke-width: 2.0;" width="1369" x="13" y="979.6016"/><text fill="#000000" font-family="Helvetica" font-size="13" font-weight="bold" lengthAdjust="spacingAndGlyphs" textLength="32" x="28" y="992.6685">loop</text><text fill="#000000" font-family="Helvetica" font-size="11" font-weight="bold" lengthAdjust="spacingAndGlyphs" textLength="361" x="105" y="991.812">[for each stale gap-id (tracked but no longer predicted)]</text><polygon fill="#000000" points="107,1044.1328,97,1048.1328,107,1052.1328,103,1048.1328" style="stroke: #000000; stroke-width: 1.0;"/><line style="stroke: #000000; stroke-width: 1.0;" x1="101" x2="392" y1="1048.1328" y2="1048.1328"/><text fill="#000000" font-family="Helvetica" font-size="13" lengthAdjust="spacingAndGlyphs" textLength="113" x="113" y="1012.8013">surface for triage:</text><text fill="#000000" font-family="Helvetica" font-size="13" lengthAdjust="spacingAndGlyphs" textLength="192" x="113" y="1027.9341">"this gap-id no longer detects;</text><text fill="#000000" font-family="Helvetica" font-size="13" lengthAdjust="spacingAndGlyphs" textLength="92" x="113" y="1043.0669">is it resolved?"</text><path d="M23,1063.1328 L87,1063.1328 L87,1070.1328 L77,1080.1328 L23,1080.1328 L23,1063.1328 " fill="#EEEEEE" style="stroke: #000000; stroke-width: 1.0;"/><rect fill="none" height="134.4688" style="stroke: #000000; stroke-width: 2.0;" width="1349" x="23" y="1063.1328"/><text fill="#000000" font-family="Helvetica" font-size="13" font-weight="bold" lengthAdjust="spacingAndGlyphs" textLength="19" x="38" y="1076.1997">alt</text><text fill="#000000" font-family="Helvetica" font-size="11" font-weight="bold" lengthAdjust="spacingAndGlyphs" textLength="135" x="102" y="1075.3433">[user confirms close]</text><polygon fill="#000000" points="381,1097.3984,391,1101.3984,381,1105.3984,385,1101.3984" style="stroke: #000000; stroke-width: 1.0;"/><line style="stroke: #000000; stroke-width: 1.0; stroke-dasharray: 2.0,2.0;" x1="96" x2="387" y1="1101.3984" y2="1101.3984"/><text fill="#000000" font-family="Helvetica" font-size="13" lengthAdjust="spacingAndGlyphs" textLength="89" x="103" y="1096.3325">approve close</text><polygon fill="#000000" points="1292.5,1141.6641,1302.5,1145.6641,1292.5,1149.6641,1296.5,1145.6641" style="stroke: #000000; stroke-width: 1.0;"/><line style="stroke: #000000; stroke-width: 1.0;" x1="403" x2="1298.5" y1="1145.6641" y2="1145.6641"/><text fill="#000000" font-family="Helvetica" font-size="13" lengthAdjust="spacingAndGlyphs" textLength="99" x="410" y="1125.4653">close work item</text><text fill="#000000" font-family="Helvetica" font-size="13" lengthAdjust="spacingAndGlyphs" textLength="207" x="410" y="1140.5981">(resolution:no-longer-applicable)</text><line style="stroke: #000000; stroke-width: 1.0; stroke-dasharray: 2.0,2.0;" x1="23" x2="1372" y1="1154.6641" y2="1154.6641"/><text fill="#000000" font-family="Helvetica" font-size="11" font-weight="bold" lengthAdjust="spacingAndGlyphs" textLength="120" x="28" y="1164.8745">[user leaves open]</text><polygon fill="#000000" points="381,1185.6016,391,1189.6016,381,1193.6016,385,1189.6016" style="stroke: #000000; stroke-width: 1.0;"/><line style="stroke: #000000; stroke-width: 1.0; stroke-dasharray: 2.0,2.0;" x1="96" x2="387" y1="1189.6016" y2="1189.6016"/><text fill="#000000" font-family="Helvetica" font-size="13" lengthAdjust="spacingAndGlyphs" textLength="136" x="103" y="1184.5356">skip; investigate later</text><polygon fill="#000000" points="107,1228.7344,97,1232.7344,107,1236.7344,103,1232.7344" style="stroke: #000000; stroke-width: 1.0;"/><line style="stroke: #000000; stroke-width: 1.0; stroke-dasharray: 2.0,2.0;" x1="101" x2="397" y1="1232.7344" y2="1232.7344"/><text fill="#000000" font-family="Helvetica" font-size="13" lengthAdjust="spacingAndGlyphs" textLength="273" x="113" y="1227.6685">run summary (N filed, M closed, K skipped)</text><path d="M38,1245.7344 L38,1360.7344 L1362,1360.7344 L1362,1255.7344 L1352,1245.7344 L38,1245.7344 " fill="#FBFB77" style="stroke: #A80036; stroke-width: 1.0;"/><path d="M1352,1245.7344 L1352,1255.7344 L1362,1255.7344 L1352,1245.7344 " fill="#FBFB77" style="stroke: #A80036; stroke-width: 1.0;"/><text fill="#000000" font-family="Helvetica" font-size="13" lengthAdjust="spacingAndGlyphs" textLength="254" x="567" y="1262.8013">Detection state is discarded at skill exit.</text><text fill="#000000" font-family="Helvetica" font-size="13" lengthAdjust="spacingAndGlyphs" textLength="174" x="567" y="1277.9341">Closure-time verification by</text><text fill="#000000" font-family="Helvetica" font-size="13" lengthAdjust="spacingAndGlyphs" textLength="222" x="567" y="1293.0669">/livespec-impl-*:implement re-runs</text><text fill="#000000" font-family="Helvetica" font-size="13" lengthAdjust="spacingAndGlyphs" textLength="223" x="567" y="1308.1997">capture-impl-gaps in dry-run mode</text><text fill="#000000" font-family="Helvetica" font-size="13" lengthAdjust="spacingAndGlyphs" textLength="219" x="567" y="1323.3325">and checks the gap-id is no longer</text><text fill="#000000" font-family="Helvetica" font-size="13" lengthAdjust="spacingAndGlyphs" textLength="257" x="567" y="1338.4653">detected — that completes the gap-tied</text><text fill="#000000" font-family="Helvetica" font-size="13" lengthAdjust="spacingAndGlyphs" textLength="83" x="567" y="1353.5981">closure path.</text><!--MD5=[d071472c4c8234dc930b4d6bf159ae94]
@startuml seq-capture-impl-gaps
title Sequence — /livespec-impl-*:capture-impl-gaps
skinparam defaultFontName Helvetica
skinparam shadowing false
skinparam BackgroundColor #fafafa
skinparam ArrowColor #000000
skinparam sequence {
  ParticipantBorderColor #1f4768
  ParticipantBackgroundColor #d6e6f5
  ParticipantFontColor #111
  ActorBorderColor #111
  ActorBackgroundColor #fffacc
  ActorFontColor #111
  LifeLineBorderColor #444
}

actor "Initial intent\n(human or agent)" as User
participant "/livespec-impl-*:\ncapture-impl-gaps" as Skill
participant "Spec Reader\n(impl-side adapter)" as SpecReader
participant "SPECIFICATION/" as Spec
participant "history/" as History
participant "Implementation\n(code, tests, config)" as Impl
participant "Work Items\n(plugin queue)" as Queue

User -> Skill : invoke
activate Skill

Skill -> SpecReader : read current spec content\n+ current spec version
SpecReader -> Spec : read template-declared files
Spec - -> SpecReader : current spec content
SpecReader -> History : current spec version (vNNN)
History - -> SpecReader : vNNN
SpecReader - -> Skill : spec content + version

Skill -> Skill : check own last-checked\nversion marker;\nif unchanged, can short-circuit
Skill -> Impl : walk per gap-detection predicates
Impl - -> Skill : current implementation state

note right of Skill : Detection is ephemeral and\nin-memory. No persistent\nintermediate artifact.

Skill -> Skill : compute 3-way diff vs. existing work items:\n• predicted-but-untracked (new gaps)\n• tracked-but-no-longer-predicted (stale gap-ids)\n• both (still-open known gaps)
Skill -> Queue : list existing gap-tied work items
Queue - -> Skill : current gap-id labels in queue

loop for each newly-detected untracked gap
  Skill -> User : surface gap (id, title, severity,\nspec_refs, fix_hint, depends_on)
  alt user confirms
    User - -> Skill : approve filing
    Skill -> Queue : file gap-tied work item\n(gap-id:gap-NNNN label,\nseverity, area, ...)
    Queue - -> Skill : work item id
  else user skips / declines
    User - -> Skill : skip
  end
end

loop for each stale gap-id (tracked but no longer predicted)
  Skill -> User : surface for triage:\n"this gap-id no longer detects;\nis it resolved?"
  alt user confirms close
    User - -> Skill : approve close
    Skill -> Queue : close work item\n(resolution:no-longer-applicable)
  else user leaves open
    User - -> Skill : skip; investigate later
  end
end

Skill - -> User : run summary (N filed, M closed, K skipped)
deactivate Skill

note over User, Queue : Detection state is discarded at skill exit.\nClosure-time verification by\n/livespec-impl-*:implement re-runs\ncapture-impl-gaps in dry-run mode\nand checks the gap-id is no longer\ndetected — that completes the gap-tied\nclosure path.

@enduml

PlantUML version 1.2020.02(Sun Mar 01 11:22:07 CET 2020)
(GPL source distribution)
Java Runtime: OpenJDK Runtime Environment
JVM: OpenJDK 64-Bit Server VM
Java Version: 21.0.10+7-Ubuntu-125.10
Operating System: Linux
Default Encoding: UTF-8
Language: en
Country: null
--></g></svg>