<?xml version="1.0" encoding="UTF-8" standalone="no"?><svg xmlns="http://www.w3.org/2000/svg" xmlns:xlink="http://www.w3.org/1999/xlink" contentScriptType="application/ecmascript" contentStyleType="text/css" height="1273px" preserveAspectRatio="none" style="width:1380px;height:1273px;" version="1.1" viewBox="0 0 1380 1273" width="1380px" zoomAndPan="magnify"><defs/><g><text fill="#000000" font-family="Helvetica" font-size="18" lengthAdjust="spacingAndGlyphs" textLength="495" x="446" y="16.708">Implementation Plugin — Lifecycle (per livespec-impl-*)</text><!--MD5=[11046a9c2aa2f840aede4832a203c50a]
entity HumanUser--><ellipse cx="121" cy="218.4531" fill="#FFFFFF" rx="8" ry="8" style="stroke: #111111; stroke-width: 1.5;"/><path d="M121,226.4531 L121,253.4531 M108,234.4531 L134,234.4531 M121,253.4531 L108,268.4531 M121,253.4531 L134,268.4531 " fill="none" style="stroke: #111111; stroke-width: 1.5;"/><text fill="#111111" font-family="Helvetica" font-size="14" lengthAdjust="spacingAndGlyphs" textLength="49" x="96.5" y="283.9482">Human</text><text fill="#111111" font-family="Helvetica" font-size="14" lengthAdjust="spacingAndGlyphs" textLength="31" x="96.5" y="300.2451">user</text><!--MD5=[9cb65aab968679016cabe6121c7526ca]
entity Agent--><ellipse cx="444" cy="226.9531" fill="#87CEFA" rx="8" ry="8" style="stroke: #111111; stroke-width: 1.5;"/><path d="M444,234.9531 L444,261.9531 M431,242.9531 L457,242.9531 M444,261.9531 L431,276.9531 M444,261.9531 L457,276.9531 " fill="none" style="stroke: #111111; stroke-width: 1.5;"/><text fill="#111111" font-family="Helvetica" font-size="14" lengthAdjust="spacingAndGlyphs" textLength="41" x="423.5" y="292.4482">Agent</text><!--MD5=[5b0af1a53dfe6ce9d6337a803daa3faf]
entity Spec--><path d="M174.5,792.4531 C174.5,782.4531 241,782.4531 241,782.4531 C241,782.4531 307.5,782.4531 307.5,792.4531 L307.5,834.0469 C307.5,844.0469 241,844.0469 241,844.0469 C241,844.0469 174.5,844.0469 174.5,834.0469 L174.5,792.4531 " fill="#FFFFFF" style="stroke: #111111; stroke-width: 1.5;"/><path d="M174.5,792.4531 C174.5,802.4531 241,802.4531 241,802.4531 C241,802.4531 307.5,802.4531 307.5,792.4531 " fill="none" style="stroke: #111111; stroke-width: 1.5;"/><text fill="#111111" font-family="Helvetica" font-size="14" lengthAdjust="spacingAndGlyphs" textLength="108" x="184.5" y="819.4482">SPECIFICATION/</text><text fill="#111111" font-family="Helvetica" font-size="14" lengthAdjust="spacingAndGlyphs" textLength="113" x="184.5" y="835.7451">(read-only input)</text><!--MD5=[b9043c2a9c0284b5105a937d12c4195f]
entity Repo--><path d="M414.5,784.4531 C414.5,774.4531 477,774.4531 477,774.4531 C477,774.4531 539.5,774.4531 539.5,784.4531 L539.5,842.3438 C539.5,852.3438 477,852.3438 477,852.3438 C477,852.3438 414.5,852.3438 414.5,842.3438 L414.5,784.4531 " fill="#FFFFFF" style="stroke: #111111; stroke-width: 1.5;"/><path d="M414.5,784.4531 C414.5,794.4531 477,794.4531 477,794.4531 C477,794.4531 539.5,794.4531 539.5,784.4531 " fill="none" style="stroke: #111111; stroke-width: 1.5;"/><text fill="#111111" font-family="Helvetica" font-size="14" lengthAdjust="spacingAndGlyphs" textLength="74" x="424.5" y="811.4482">Repository</text><text fill="#111111" font-family="Helvetica" font-size="14" lengthAdjust="spacingAndGlyphs" textLength="87" x="424.5" y="827.7451">(code, tests,</text><text fill="#111111" font-family="Helvetica" font-size="14" lengthAdjust="spacingAndGlyphs" textLength="105" x="424.5" y="844.042">config, plugins)</text><!--MD5=[d644e660c2446626a48517bb8e656509]
entity CaptureGaps--><rect fill="#FFFFE0" height="38.5938" style="stroke: #111111; stroke-width: 1.5;" width="151" x="285.5" y="947.9531"/><text fill="#111111" font-family="Helvetica" font-size="14" lengthAdjust="spacingAndGlyphs" textLength="111" x="295.5" y="963.9482">/livespec-impl-*:</text><text fill="#111111" font-family="Helvetica" font-size="14" lengthAdjust="spacingAndGlyphs" textLength="131" x="295.5" y="980.2451">capture-spec-gaps</text><!--MD5=[d43915ae0c4c99dccecbf1122ec37022]
entity DetectGaps--><rect fill="#90EE90" height="85.1875" style="stroke: #111111; stroke-width: 1.0; stroke-dasharray: 7.0,7.0;" width="120" x="425" y="1048.4531"/><text fill="#111111" font-family="Helvetica" font-size="14" lengthAdjust="spacingAndGlyphs" textLength="85" x="435" y="1071.4482">Detect gaps</text><text fill="#111111" font-family="Helvetica" font-size="14" lengthAdjust="spacingAndGlyphs" textLength="73" x="435" y="1087.7451">in-memory</text><text fill="#111111" font-family="Helvetica" font-size="14" lengthAdjust="spacingAndGlyphs" textLength="100" x="435" y="1104.042">(NO persistent</text><text fill="#111111" font-family="Helvetica" font-size="14" lengthAdjust="spacingAndGlyphs" textLength="88" x="435" y="1120.3389">current.json)</text><ellipse cx="485.2283" cy="1228.5874" fill="#FFFFFF" rx="43.7283" ry="33.6343" style="stroke: #111111; stroke-width: 1.5;"/><text fill="#111111" font-family="Helvetica" font-size="14" lengthAdjust="spacingAndGlyphs" textLength="32" x="469.2283" y="1213.2129">User</text><text fill="#111111" font-family="Helvetica" font-size="14" lengthAdjust="spacingAndGlyphs" textLength="65" x="452.7283" y="1229.5098">consents</text><text fill="#111111" font-family="Helvetica" font-size="14" lengthAdjust="spacingAndGlyphs" textLength="60" x="455.2283" y="1245.8066">per gap?</text><!--MD5=[cf6f536b29ffbf8311693ce00a20793f]
entity WorkQueue--><path d="M690.5,227.4531 C690.5,217.4531 779,217.4531 779,217.4531 C779,217.4531 867.5,217.4531 867.5,227.4531 L867.5,285.3438 C867.5,295.3438 779,295.3438 779,295.3438 C779,295.3438 690.5,295.3438 690.5,285.3438 L690.5,227.4531 " fill="#FFFFFF" style="stroke: #111111; stroke-width: 1.5;"/><path d="M690.5,227.4531 C690.5,237.4531 779,237.4531 779,237.4531 C779,237.4531 867.5,237.4531 867.5,227.4531 " fill="none" style="stroke: #111111; stroke-width: 1.5;"/><text fill="#111111" font-family="Helvetica" font-size="14" lengthAdjust="spacingAndGlyphs" textLength="119" x="700.5" y="254.4482">Work-item queue</text><text fill="#111111" font-family="Helvetica" font-size="14" lengthAdjust="spacingAndGlyphs" textLength="142" x="700.5" y="270.7451">(impl-plugin-specific:</text><text fill="#111111" font-family="Helvetica" font-size="14" lengthAdjust="spacingAndGlyphs" textLength="157" x="700.5" y="287.042">bd / JSONL / GitLab / ...)</text><!--MD5=[954fbc6e32b2d909d881b2c9ea0c4c99]
entity ImplementCmd--><rect fill="#FFFFE0" height="38.5938" style="stroke: #111111; stroke-width: 1.5;" width="131" x="414.5" y="380.9531"/><text fill="#111111" font-family="Helvetica" font-size="14" lengthAdjust="spacingAndGlyphs" textLength="111" x="424.5" y="396.9482">/livespec-impl-*:</text><text fill="#111111" font-family="Helvetica" font-size="14" lengthAdjust="spacingAndGlyphs" textLength="73" x="424.5" y="413.2451">implement</text><!--MD5=[77729484e14004000e618c8589f99f26]
entity RedCommit--><rect fill="#90EE90" height="52.5938" style="stroke: #111111; stroke-width: 1.0; stroke-dasharray: 7.0,7.0;" width="108" x="426" y="480.9531"/><text fill="#111111" font-family="Helvetica" font-size="14" lengthAdjust="spacingAndGlyphs" textLength="88" x="436" y="503.9482">Red commit:</text><text fill="#111111" font-family="Helvetica" font-size="14" lengthAdjust="spacingAndGlyphs" textLength="59" x="436" y="520.2451">test only</text><!--MD5=[f5611830d024c532e6de0cc09b18fa33]
entity GreenCommit--><rect fill="#90EE90" height="52.5938" style="stroke: #111111; stroke-width: 1.0; stroke-dasharray: 7.0,7.0;" width="132" x="414" y="610.9531"/><text fill="#111111" font-family="Helvetica" font-size="14" lengthAdjust="spacingAndGlyphs" textLength="100" x="424" y="633.9482">Green amend:</text><text fill="#111111" font-family="Helvetica" font-size="14" lengthAdjust="spacingAndGlyphs" textLength="112" x="424" y="650.2451">impl + test pass</text><!--MD5=[04a589c3b8175f9f8316b3c2ac0032cb]
entity Verify--><rect fill="#90EE90" height="85.1875" style="stroke: #111111; stroke-width: 1.0; stroke-dasharray: 7.0,7.0;" width="151" x="574.5" y="770.9531"/><text fill="#111111" font-family="Helvetica" font-size="14" lengthAdjust="spacingAndGlyphs" textLength="59" x="584.5" y="793.9482">Verify via</text><text fill="#111111" font-family="Helvetica" font-size="14" lengthAdjust="spacingAndGlyphs" textLength="131" x="584.5" y="810.2451">capture-spec-gaps</text><text fill="#111111" font-family="Helvetica" font-size="14" lengthAdjust="spacingAndGlyphs" textLength="59" x="584.5" y="826.542">--dry-run</text><text fill="#111111" font-family="Helvetica" font-size="14" lengthAdjust="spacingAndGlyphs" textLength="83" x="584.5" y="842.8389">(in-memory)</text><ellipse cx="540.7938" cy="65.2444" fill="#FFFFFF" rx="56.7938" ry="36.2913" style="stroke: #111111; stroke-width: 1.5;"/><text fill="#111111" font-family="Helvetica" font-size="14" lengthAdjust="spacingAndGlyphs" textLength="79" x="501.2938" y="55.4418">gap-id label</text><text fill="#111111" font-family="Helvetica" font-size="14" lengthAdjust="spacingAndGlyphs" textLength="76" x="502.7938" y="71.7387">present on</text><text fill="#111111" font-family="Helvetica" font-size="14" lengthAdjust="spacingAndGlyphs" textLength="66" x="507.7938" y="88.0356">this item?</text><!--MD5=[11034b15a04ad20b85fecaa000d09c21]
entity CloseFix--><rect fill="#FFFFE0" height="54.8906" style="stroke: #111111; stroke-width: 1.5;" width="117" x="213.5" y="37.9531"/><text fill="#111111" font-family="Helvetica" font-size="14" lengthAdjust="spacingAndGlyphs" textLength="59" x="223.5" y="53.9482">bd close</text><text fill="#111111" font-family="Helvetica" font-size="14" lengthAdjust="spacingAndGlyphs" textLength="97" x="223.5" y="70.2451">--resolution fix</text><text fill="#111111" font-family="Helvetica" font-size="14" lengthAdjust="spacingAndGlyphs" textLength="90" x="223.5" y="86.542">+ audit fields</text><!--MD5=[4cfaad4512cb8468b4ba5304646aec9e]
entity CloseFreeform--><rect fill="#FFFFE0" height="54.8906" style="stroke: #111111; stroke-width: 1.5;" width="169" x="808.5" y="37.9531"/><text fill="#111111" font-family="Helvetica" font-size="14" lengthAdjust="spacingAndGlyphs" textLength="59" x="818.5" y="53.9482">bd close</text><text fill="#111111" font-family="Helvetica" font-size="14" lengthAdjust="spacingAndGlyphs" textLength="149" x="818.5" y="70.2451">--reason &lt;summary&gt;</text><text fill="#111111" font-family="Helvetica" font-size="14" lengthAdjust="spacingAndGlyphs" textLength="68" x="818.5" y="86.542">(freeform)</text><!--MD5=[3c7c66776d353251f9d2a153a964579f]
entity MemoCapture--><rect fill="#FFFFFF" height="68.8906" style="stroke: #111111; stroke-width: 1.0; stroke-dasharray: 7.0,7.0;" width="158" x="1012" y="30.9531"/><text fill="#111111" font-family="Helvetica" font-size="14" lengthAdjust="spacingAndGlyphs" textLength="100" x="1022" y="53.9482">Memo capture</text><text fill="#111111" font-family="Helvetica" font-size="14" lengthAdjust="spacingAndGlyphs" textLength="138" x="1022" y="70.2451">(see memo-lifecycle</text><text fill="#111111" font-family="Helvetica" font-size="14" lengthAdjust="spacingAndGlyphs" textLength="60" x="1022" y="86.542">diagram)</text><path d="M1205.5,37.9531 L1205.5,61.4531 L1170.24,65.4531 L1205.5,69.4531 L1205.5,93.3516 A0,0 0 0 0 1205.5,93.3516 L1368.5,93.3516 A0,0 0 0 0 1368.5,93.3516 L1368.5,47.9531 L1358.5,37.9531 L1205.5,37.9531 A0,0 0 0 0 1205.5,37.9531 " fill="#FBFB77" style="stroke: #A80036; stroke-width: 1.0;"/><path d="M1358.5,37.9531 L1358.5,47.9531 L1368.5,47.9531 L1358.5,37.9531 " fill="#FBFB77" style="stroke: #A80036; stroke-width: 1.0;"/><text fill="#000000" font-family="Helvetica" font-size="13" lengthAdjust="spacingAndGlyphs" textLength="126" x="1211.5" y="55.02">Memo's impl-bound</text><text fill="#000000" font-family="Helvetica" font-size="13" lengthAdjust="spacingAndGlyphs" textLength="107" x="1211.5" y="70.1528">disposition feeds</text><text fill="#000000" font-family="Helvetica" font-size="13" lengthAdjust="spacingAndGlyphs" textLength="142" x="1211.5" y="85.2856">the same work queue.</text><path d="M122,1047.9531 L122,1133.6172 A0,0 0 0 0 122,1133.6172 L390,1133.6172 A0,0 0 0 0 390,1133.6172 L390,1057.9531 L380,1047.9531 L296.44,1047.9531 L344.82,987.1731 L288.44,1047.9531 L122,1047.9531 A0,0 0 0 0 122,1047.9531 " fill="#FBFB77" style="stroke: #A80036; stroke-width: 1.0;"/><path d="M380,1047.9531 L380,1057.9531 L390,1057.9531 L380,1047.9531 " fill="#FBFB77" style="stroke: #A80036; stroke-width: 1.0;"/><text fill="#000000" font-family="Helvetica" font-size="13" lengthAdjust="spacingAndGlyphs" textLength="202" x="128" y="1065.02">Detects gaps + files work items</text><text fill="#000000" font-family="Helvetica" font-size="13" lengthAdjust="spacingAndGlyphs" textLength="219" x="128" y="1080.1528">in one operation. Replaces today's</text><text fill="#000000" font-family="Helvetica" font-size="13" lengthAdjust="spacingAndGlyphs" textLength="159" x="128" y="1095.2856">refresh-gaps + plan pair.</text><text fill="#000000" font-family="Helvetica" font-size="13" lengthAdjust="spacingAndGlyphs" textLength="237" x="128" y="1110.4185">Detection is ephemeral (in-memory),</text><text fill="#000000" font-family="Helvetica" font-size="13" lengthAdjust="spacingAndGlyphs" textLength="247" x="128" y="1125.5513">eliminating the persistent current.json.</text><path d="M184,213.4531 L184,299.1172 A0,0 0 0 0 184,299.1172 L360,299.1172 A0,0 0 0 0 360,299.1172 L360,223.4531 L350,213.4531 L276,213.4531 L272,93.1331 L268,213.4531 L184,213.4531 A0,0 0 0 0 184,213.4531 " fill="#FBFB77" style="stroke: #A80036; stroke-width: 1.0;"/><path d="M350,213.4531 L350,223.4531 L360,223.4531 L350,213.4531 " fill="#FBFB77" style="stroke: #A80036; stroke-width: 1.0;"/><text fill="#000000" font-family="Helvetica" font-size="13" lengthAdjust="spacingAndGlyphs" textLength="74" x="190" y="230.52">Audit fields:</text><text fill="#000000" font-family="Helvetica" font-size="13" lengthAdjust="spacingAndGlyphs" textLength="135" x="190" y="245.6528">• gap-id at filing time</text><text fill="#000000" font-family="Helvetica" font-size="13" lengthAdjust="spacingAndGlyphs" textLength="103" x="190" y="260.7856">• evidence of fix</text><text fill="#000000" font-family="Helvetica" font-size="13" lengthAdjust="spacingAndGlyphs" textLength="155" x="190" y="275.9185">• verification timestamp</text><text fill="#000000" font-family="Helvetica" font-size="13" lengthAdjust="spacingAndGlyphs" textLength="96" x="190" y="291.0513">• files changed</text><!--MD5=[a6781a74970e78952839e18df8d685cc]
link HumanUser to CaptureGaps--><path d="M121,304.1431 C121,331.8431 121,367.6531 121,399.4531 C121,399.4531 121,399.4531 121,814.4531 C121,891.6331 210.69,931.2531 280.41,950.3931 " fill="none" id="HumanUser-&gt;CaptureGaps" style="stroke: #111111; stroke-width: 1.0;"/><polygon fill="#111111" points="285.39,951.7331,277.7394,945.5309,280.5619,950.4333,275.6596,953.2558,285.39,951.7331" style="stroke: #111111; stroke-width: 1.0;"/><text fill="#111111" font-family="Helvetica" font-size="13" lengthAdjust="spacingAndGlyphs" textLength="48" x="122" y="577.02">invokes</text><!--MD5=[55f8c9e77e7ebe0e8585a2545a2aafde]
link Agent to CaptureGaps--><path d="M423.48,276.9731 C398.9,302.5731 361,350.0531 361,399.4531 C361,399.4531 361,399.4531 361,814.4531 C361,859.6631 361,912.4431 361,942.4131 " fill="none" id="Agent-&gt;CaptureGaps" style="stroke: #111111; stroke-width: 1.0;"/><polygon fill="#111111" points="361,947.7331,365,938.7331,361,942.7331,357,938.7331,361,947.7331" style="stroke: #111111; stroke-width: 1.0;"/><text fill="#111111" font-family="Helvetica" font-size="13" lengthAdjust="spacingAndGlyphs" textLength="38" x="362" y="577.02">drives</text><!--MD5=[087ae2f498bfd6824c18a6b861afffa5]
link Spec to CaptureGaps--><path d="M264.71,844.4831 C287.66,873.5531 321.96,917.0031 342.83,943.4331 " fill="none" id="Spec-&gt;CaptureGaps" style="stroke: #111111; stroke-width: 1.0;"/><polygon fill="#111111" points="346.06,947.5231,343.6081,937.9844,342.9558,943.6035,337.3366,942.9512,346.06,947.5231" style="stroke: #111111; stroke-width: 1.0;"/><!--MD5=[741195d3e7f45159dfec569cb563ff0b]
link Repo to CaptureGaps--><path d="M447.73,852.8131 C425.9,881.4131 396.82,919.5231 378.5,943.5231 " fill="none" id="Repo-&gt;CaptureGaps" style="stroke: #111111; stroke-width: 1.0;"/><polygon fill="#111111" points="375.43,947.5431,384.0682,942.8122,378.4619,943.5673,377.7068,937.9611,375.43,947.5431" style="stroke: #111111; stroke-width: 1.0;"/><!--MD5=[994cc9c8dab81af0bef3ea71b0b38bce]
link CaptureGaps to DetectGaps--><path d="M380.1,987.1731 C395.71,1002.4631 418.42,1024.7231 438.73,1044.6131 " fill="none" id="CaptureGaps-&gt;DetectGaps" style="stroke: #111111; stroke-width: 1.0;"/><polygon fill="#111111" points="442.49,1048.3031,438.8431,1039.1544,438.9118,1044.8108,433.2554,1044.8795,442.49,1048.3031" style="stroke: #111111; stroke-width: 1.0;"/><!--MD5=[25c1ea1efceefa6a98c31df541624eb9]
link DetectGaps to PerGapConsent--><path d="M485,1133.7131 C485,1151.4731 485,1172.0331 485,1189.3731 " fill="none" id="DetectGaps-&gt;PerGapConsent" style="stroke: #111111; stroke-width: 1.0;"/><polygon fill="#111111" points="485,1194.6431,489,1185.6431,485,1189.6431,481,1185.6431,485,1194.6431" style="stroke: #111111; stroke-width: 1.0;"/><!--MD5=[107473ea011c55206d757ee079af343a]
link HumanUser to PerGapConsent--><path d="M96.33,272.6631 C62.54,295.6031 6,342.5131 6,399.4531 C6,399.4531 6,399.4531 6,1091.9531 C6,1180.7331 314.5,1214.2831 436.34,1224.0731 " fill="none" id="HumanUser-&gt;PerGapConsent" style="stroke: #111111; stroke-width: 1.0;"/><polygon fill="#111111" points="441.65,1224.4931,432.9987,1219.7862,436.666,1224.0933,432.3589,1227.7606,441.65,1224.4931" style="stroke: #111111; stroke-width: 1.0;"/><text fill="#111111" font-family="Helvetica" font-size="13" lengthAdjust="spacingAndGlyphs" textLength="90" x="7" y="722.02">confirms each</text><!--MD5=[4f256df0db4c09edec502ef748be1faa]
link PerGapConsent to WorkQueue--><path d="M528.7,1226.6331 C610.6,1222.5231 779,1200.8431 779,1091.9531 C779,399.4531 779,399.4531 779,399.4531 C779,366.3831 779,328.9731 779,300.8631 " fill="none" id="PerGapConsent-&gt;WorkQueue" style="stroke: #111111; stroke-width: 1.0;"/><polygon fill="#111111" points="779,295.7231,775,304.7231,779,300.7231,783,304.7231,779,295.7231" style="stroke: #111111; stroke-width: 1.0;"/><text fill="#111111" font-family="Helvetica" font-size="13" lengthAdjust="spacingAndGlyphs" textLength="83" x="788.5" y="707.02">on each YES,</text><text fill="#111111" font-family="Helvetica" font-size="13" lengthAdjust="spacingAndGlyphs" textLength="84" x="788" y="722.1528">file work item</text><text fill="#111111" font-family="Helvetica" font-size="13" lengthAdjust="spacingAndGlyphs" textLength="100" x="780" y="737.2856">(gap-id labeled)</text><!--MD5=[ea9c453632b4176ceedf95bf83218155]
link MemoCapture to WorkQueue--><path d="M1035.58,100.0231 C982.67,132.0731 902.86,180.4231 846.32,214.6731 " fill="none" id="MemoCapture-&gt;WorkQueue" style="stroke: #111111; stroke-width: 1.0;"/><polygon fill="#111111" points="841.95,217.3231,851.7206,216.0843,846.2273,214.7338,847.5778,209.2405,841.95,217.3231" style="stroke: #111111; stroke-width: 1.0;"/><text fill="#111111" font-family="Helvetica" font-size="13" lengthAdjust="spacingAndGlyphs" textLength="144" x="982" y="145.02">impl-bound disposition</text><text fill="#111111" font-family="Helvetica" font-size="13" lengthAdjust="spacingAndGlyphs" textLength="91" x="1008.5" y="160.1528">files work item</text><text fill="#111111" font-family="Helvetica" font-size="13" lengthAdjust="spacingAndGlyphs" textLength="70" x="1019" y="175.2856">(no gap-id)</text><!--MD5=[650936dc3835a60a4fc8cc8b16b8dbc0]
link WorkQueue to ImplementCmd--><path d="M699.87,295.6331 C664.47,312.6531 622.18,332.8931 584,350.9531 C564.57,360.1431 543.06,370.1931 524.66,378.7531 " fill="none" id="WorkQueue-&gt;ImplementCmd" style="stroke: #111111; stroke-width: 1.0;"/><polygon fill="#111111" points="520.05,380.9031,529.8976,380.7457,524.586,378.7997,526.5321,373.4881,520.05,380.9031" style="stroke: #111111; stroke-width: 1.0;"/><text fill="#111111" font-family="Helvetica" font-size="13" lengthAdjust="spacingAndGlyphs" textLength="86" x="616" y="347.02">leaf-level pick</text><!--MD5=[5a841254b233818850b59677fa8bc40b]
link HumanUser to ImplementCmd--><path d="M145.65,287.4931 C151.79,293.5931 158.71,299.5031 166,303.9531 C242.17,350.5031 342.71,375.8431 409.27,388.5031 " fill="none" id="HumanUser-&gt;ImplementCmd" style="stroke: #111111; stroke-width: 1.0;"/><polygon fill="#111111" points="414.4,389.4631,406.2992,383.8617,409.4869,388.5348,404.8138,391.7226,414.4,389.4631" style="stroke: #111111; stroke-width: 1.0;"/><text fill="#111111" font-family="Helvetica" font-size="13" lengthAdjust="spacingAndGlyphs" textLength="48" x="265" y="347.02">invokes</text><!--MD5=[bf91f9909ebc062790a81f3d8864a8b7]
link Agent to ImplementCmd--><path d="M447.31,295.7331 C449.4,312.8631 452.75,333.1631 458,350.9531 C460.47,359.3231 464.11,368.1131 467.72,375.8831 " fill="none" id="Agent-&gt;ImplementCmd" style="stroke: #111111; stroke-width: 1.0;"/><polygon fill="#111111" points="469.96,380.5731,469.6887,370.728,467.8042,376.0617,462.4705,374.1772,469.96,380.5731" style="stroke: #111111; stroke-width: 1.0;"/><text fill="#111111" font-family="Helvetica" font-size="13" lengthAdjust="spacingAndGlyphs" textLength="116" x="459" y="347.02">drives Red→Green</text><!--MD5=[ecf6157cbe441979cb31ee17ae62e71c]
link ImplementCmd to RedCommit--><path d="M480,420.2231 C480,435.5131 480,457.4231 480,475.3231 " fill="none" id="ImplementCmd-&gt;RedCommit" style="stroke: #111111; stroke-width: 1.0;"/><polygon fill="#111111" points="480,480.7431,484,471.7431,480,475.7431,476,471.7431,480,480.7431" style="stroke: #111111; stroke-width: 1.0;"/><!--MD5=[e55039c4e8bdf76e5a6cd70e0a8f698d]
link RedCommit to GreenCommit--><path d="M480,534.0531 C480,554.7131 480,583.8631 480,605.7831 " fill="none" id="RedCommit-&gt;GreenCommit" style="stroke: #111111; stroke-width: 1.0;"/><polygon fill="#111111" points="480,610.9031,484,601.9031,480,605.9031,476,601.9031,480,610.9031" style="stroke: #111111; stroke-width: 1.0;"/><!--MD5=[1f477e038895e54be133e4debfcab78e]
link GreenCommit to Repo--><path d="M479.56,664.1231 C479.08,691.7631 478.31,736.2031 477.75,769.2431 " fill="none" id="GreenCommit-&gt;Repo" style="stroke: #111111; stroke-width: 1.0;"/><polygon fill="#111111" points="477.66,774.4431,481.8137,765.513,477.7457,769.4439,473.8149,765.3759,477.66,774.4431" style="stroke: #111111; stroke-width: 1.0;"/><!--MD5=[49bcda3228b0e3f04514211c367c6982]
link GreenCommit to Verify--><path d="M503.32,664.0631 C522.55,685.0031 550.68,715.2431 576,740.9531 C584.44,749.5331 593.57,758.5431 602.43,767.1731 " fill="none" id="GreenCommit-&gt;Verify" style="stroke: #111111; stroke-width: 1.0;"/><polygon fill="#111111" points="606.21,770.8431,602.5261,761.7092,602.6177,767.3653,596.9616,767.4569,606.21,770.8431" style="stroke: #111111; stroke-width: 1.0;"/><!--MD5=[743722ad1e0aa42b577e47030fafec2c]
link Verify to CaptureGaps--><path d="M574.45,854.1931 C518.82,883.4431 445.4,922.0631 400.77,945.5331 " fill="none" id="Verify-&gt;CaptureGaps" style="stroke: #111111; stroke-width: 1.0;"/><polygon fill="#111111" points="396.28,947.8931,406.1075,947.245,400.7055,945.5662,402.3844,940.1642,396.28,947.8931" style="stroke: #111111; stroke-width: 1.0;"/><text fill="#111111" font-family="Helvetica" font-size="13" lengthAdjust="spacingAndGlyphs" textLength="56" x="512.5" y="899.02">--dry-run</text><text fill="#111111" font-family="Helvetica" font-size="13" lengthAdjust="spacingAndGlyphs" textLength="69" x="506" y="914.1528">(re-detect)</text><!--MD5=[0b93453f7a1be482cbf50a227db7229d]
link Verify to GapTied--><path d="M631.72,770.7931 C618.15,736.0831 602,684.9831 602,638.4531 C602,255.4531 602,255.4531 602,255.4531 C602,201.3331 579.07,142.5331 561.33,105.1331 " fill="none" id="Verify-&gt;GapTied" style="stroke: #111111; stroke-width: 1.0;"/><polygon fill="#111111" points="558.97,100.2331,559.2788,110.0771,561.1429,104.7363,566.4838,106.6004,558.97,100.2331" style="stroke: #111111; stroke-width: 1.0;"/><!--MD5=[7f86ba926d205dc563bffab4243bc48e]
reverse link CloseFix to GapTied--><path d="M335.83,65.4531 C380.77,65.4531 440.42,65.4531 483.81,65.4531 " fill="none" id="CloseFix&lt;-GapTied" style="stroke: #111111; stroke-width: 1.0;"/><polygon fill="#111111" points="330.7,65.4531,339.7,69.4531,335.7,65.4531,339.7,61.4531,330.7,65.4531" style="stroke: #111111; stroke-width: 1.0;"/><text fill="#111111" font-family="Helvetica" font-size="13" lengthAdjust="spacingAndGlyphs" textLength="116" x="349.25" y="43.52">YES — must verify</text><text fill="#111111" font-family="Helvetica" font-size="13" lengthAdjust="spacingAndGlyphs" textLength="117" x="348.75" y="58.6528">gap-id absent now</text><!--MD5=[e569a6137abbb0aca4c219b84c250aea]
link GapTied to CloseFreeform--><path d="M598.34,65.4531 C653.76,65.4531 738.57,65.4531 803,65.4531 " fill="none" id="GapTied-&gt;CloseFreeform" style="stroke: #111111; stroke-width: 1.0;"/><polygon fill="#111111" points="808.38,65.4531,799.38,61.4531,803.38,65.4531,799.38,69.4531,808.38,65.4531" style="stroke: #111111; stroke-width: 1.0;"/><text fill="#111111" font-family="Helvetica" font-size="13" lengthAdjust="spacingAndGlyphs" textLength="174" x="616.25" y="58.52">NO — close on user reason</text><!--MD5=[367cd5c63d2474c6d49faa6c5a432b13]
link CloseFix to WorkQueue--><path d="M330.65,88.3231 C417.64,120.7431 581.69,181.9031 685.4,220.5631 " fill="none" id="CloseFix-&gt;WorkQueue" style="stroke: #111111; stroke-width: 1.0;"/><polygon fill="#111111" points="690.29,222.3831,683.2491,215.4965,685.6037,220.64,680.4601,222.9946,690.29,222.3831" style="stroke: #111111; stroke-width: 1.0;"/><!--MD5=[fc59ef5fd418441797de2db1f666129e]
link CloseFreeform to WorkQueue--><path d="M876.91,93.1331 C858.15,124.2231 826.91,176.0231 804.77,212.7331 " fill="none" id="CloseFreeform-&gt;WorkQueue" style="stroke: #111111; stroke-width: 1.0;"/><polygon fill="#111111" points="802.11,217.1331,810.1926,211.5054,804.6993,212.8558,803.3489,207.3625,802.11,217.1331" style="stroke: #111111; stroke-width: 1.0;"/><!--MD5=[5de342e578dbc6848778bd2c7ef126a0]
@startuml implementation-lifecycle
title Implementation Plugin — Lifecycle (per livespec-impl-*)
skinparam defaultFontName Helvetica
skinparam shadowing false
skinparam BackgroundColor white
skinparam ArrowColor #111
skinparam ArrowFontColor #111
skinparam rectangle {
  BorderColor #111
  BackgroundColor white
  FontColor #111
}
skinparam database {
  BorderColor #111
  BackgroundColor white
  FontColor #111
}
skinparam usecase {
  BorderColor #111
  BackgroundColor white
  FontColor #111
}
skinparam card {
  BorderColor #111
  BackgroundColor white
  FontColor #111
}
skinparam actor {
  BorderColor #111
  BackgroundColor white
  FontColor #111
}

actor "Human\nuser" as HumanUser
actor "Agent" as Agent #LightSkyBlue

database "SPECIFICATION/\n(read-only input)" as Spec
database "Repository\n(code, tests,\nconfig, plugins)" as Repo

card "/livespec-impl-*:\ncapture-spec-gaps" as CaptureGaps #LightYellow
rectangle "Detect gaps\nin-memory\n(NO persistent\ncurrent.json)" as DetectGaps #LightGreen;line.dashed

usecase "User\nconsents\nper gap?" as PerGapConsent
database "Work-item queue\n(impl-plugin-specific:\nbd / JSONL / GitLab / ...)" as WorkQueue

card "/livespec-impl-*:\nimplement" as ImplementCmd #LightYellow
rectangle "Red commit:\ntest only" as RedCommit #LightGreen;line.dashed
rectangle "Green amend:\nimpl + test pass" as GreenCommit #LightGreen;line.dashed
rectangle "Verify via\ncapture-spec-gaps\n- -dry-run\n(in-memory)" as Verify #LightGreen;line.dashed

usecase "gap-id label\npresent on\nthis item?" as GapTied
card "bd close\n- -resolution fix\n+ audit fields" as CloseFix #LightYellow
card "bd close\n- -reason <summary>\n(freeform)" as CloseFreeform #LightYellow

rectangle "Memo capture\n(see memo-lifecycle\ndiagram)" as MemoCapture #FFFFFF;line.dashed
note right of MemoCapture : Memo's impl-bound\ndisposition feeds\nthe same work queue.

HumanUser - -> CaptureGaps : invokes
Agent - -> CaptureGaps : drives
Spec - -> CaptureGaps
Repo - -> CaptureGaps
CaptureGaps - -> DetectGaps
DetectGaps - -> PerGapConsent
HumanUser - -> PerGapConsent : confirms each
PerGapConsent - -> WorkQueue : on each YES,\nfile work item\n(gap-id labeled)
MemoCapture - -> WorkQueue : impl-bound disposition\nfiles work item\n(no gap-id)

WorkQueue - -> ImplementCmd : leaf-level pick
HumanUser - -> ImplementCmd : invokes
Agent - -> ImplementCmd : drives Red→Green
ImplementCmd - -> RedCommit
RedCommit - -> GreenCommit
GreenCommit - -> Repo
GreenCommit - -> Verify
Verify - -> CaptureGaps : - -dry-run\n(re-detect)

Verify - -> GapTied
GapTied -left-> CloseFix : YES — must verify\ngap-id absent now
GapTied -right-> CloseFreeform : NO — close on user reason
CloseFix - -> WorkQueue
CloseFreeform - -> WorkQueue

note bottom of CaptureGaps : Detects gaps + files work items\nin one operation. Replaces today's\nrefresh-gaps + plan pair.\nDetection is ephemeral (in-memory),\neliminating the persistent current.json.

note bottom of CloseFix : Audit fields:\n• gap-id at filing time\n• evidence of fix\n• verification timestamp\n• files changed

@enduml

PlantUML version 1.2020.02(Sun Mar 01 11:22:07 CET 2020)
(GPL source distribution)
Java Runtime: OpenJDK Runtime Environment
JVM: OpenJDK 64-Bit Server VM
Java Version: 21.0.10+7-Ubuntu-125.10
Operating System: Linux
Default Encoding: UTF-8
Language: en
Country: null
--></g></svg>