<?xml version="1.0" encoding="UTF-8" standalone="no"?><svg xmlns="http://www.w3.org/2000/svg" xmlns:xlink="http://www.w3.org/1999/xlink" contentScriptType="application/ecmascript" contentStyleType="text/css" height="1084px" preserveAspectRatio="none" style="width:1312px;height:1084px;" version="1.1" viewBox="0 0 1312 1084" width="1312px" zoomAndPan="magnify"><defs/><g><text fill="#000000" font-family="Helvetica" font-size="18" lengthAdjust="spacingAndGlyphs" textLength="406" x="456.5" y="16.708">Memo Lifecycle — Capture, Hygiene, Routing</text><!--MD5=[11046a9c2aa2f840aede4832a203c50a]
entity HumanUser--><ellipse cx="467.5" cy="363.4531" fill="#FFFFFF" rx="8" ry="8" style="stroke: #111111; stroke-width: 1.5;"/><path d="M467.5,371.4531 L467.5,398.4531 M454.5,379.4531 L480.5,379.4531 M467.5,398.4531 L454.5,413.4531 M467.5,398.4531 L480.5,413.4531 " fill="none" style="stroke: #111111; stroke-width: 1.5;"/><text fill="#111111" font-family="Helvetica" font-size="14" lengthAdjust="spacingAndGlyphs" textLength="49" x="443" y="428.9482">Human</text><text fill="#111111" font-family="Helvetica" font-size="14" lengthAdjust="spacingAndGlyphs" textLength="31" x="443" y="445.2451">user</text><!--MD5=[9cb65aab968679016cabe6121c7526ca]
entity Agent--><ellipse cx="384.5" cy="371.9531" fill="#87CEFA" rx="8" ry="8" style="stroke: #111111; stroke-width: 1.5;"/><path d="M384.5,379.9531 L384.5,406.9531 M371.5,387.9531 L397.5,387.9531 M384.5,406.9531 L371.5,421.9531 M384.5,406.9531 L397.5,421.9531 " fill="none" style="stroke: #111111; stroke-width: 1.5;"/><text fill="#111111" font-family="Helvetica" font-size="14" lengthAdjust="spacingAndGlyphs" textLength="41" x="364" y="437.4482">Agent</text><!--MD5=[06280fec19e7873d39095490d7edbb71]
entity Observation--><rect fill="#FFFFFF" height="68.8906" style="stroke: #111111; stroke-width: 1.0; stroke-dasharray: 7.0,7.0;" width="110" x="533.5" y="559.9531"/><text fill="#111111" font-family="Helvetica" font-size="14" lengthAdjust="spacingAndGlyphs" textLength="89" x="543.5" y="582.9482">Mid-workflow</text><text fill="#111111" font-family="Helvetica" font-size="14" lengthAdjust="spacingAndGlyphs" textLength="90" x="543.5" y="599.2451">observation /</text><text fill="#111111" font-family="Helvetica" font-size="14" lengthAdjust="spacingAndGlyphs" textLength="84" x="543.5" y="615.542">idea / TODO</text><!--MD5=[4d8b149103de154d2d36dbc14fb1ec50]
entity CaptureMemo--><rect fill="#FFFFE0" height="38.5938" style="stroke: #111111; stroke-width: 1.5;" width="131" x="315" y="696.9531"/><text fill="#111111" font-family="Helvetica" font-size="14" lengthAdjust="spacingAndGlyphs" textLength="111" x="325" y="712.9482">/livespec-impl-*:</text><text fill="#111111" font-family="Helvetica" font-size="14" lengthAdjust="spacingAndGlyphs" textLength="102" x="325" y="729.2451">capture-memo</text><!--MD5=[92c31d82c26ac30746b8648b3f718aa3]
entity MemoStore--><path d="M793.5,42.9531 C793.5,32.9531 874.5,32.9531 874.5,32.9531 C874.5,32.9531 955.5,32.9531 955.5,42.9531 L955.5,100.8438 C955.5,110.8438 874.5,110.8438 874.5,110.8438 C874.5,110.8438 793.5,110.8438 793.5,100.8438 L793.5,42.9531 " fill="#FFFFFF" style="stroke: #111111; stroke-width: 1.5;"/><path d="M793.5,42.9531 C793.5,52.9531 874.5,52.9531 874.5,52.9531 C874.5,52.9531 955.5,52.9531 955.5,42.9531 " fill="none" style="stroke: #111111; stroke-width: 1.5;"/><text fill="#111111" font-family="Helvetica" font-size="14" lengthAdjust="spacingAndGlyphs" textLength="84" x="803.5" y="69.9482">memo store</text><text fill="#111111" font-family="Helvetica" font-size="14" lengthAdjust="spacingAndGlyphs" textLength="142" x="803.5" y="86.2451">(impl-plugin-specific:</text><text fill="#111111" font-family="Helvetica" font-size="14" lengthAdjust="spacingAndGlyphs" textLength="133" x="803.5" y="102.542">bd Dolt / JSONL / ...)</text><!--MD5=[5a5d35bcfc46556bdff8e646cc6c81c2]
entity Doctor--><rect fill="#FFFFE0" height="22.2969" style="stroke: #111111; stroke-width: 1.5;" width="131" x="567" y="206.9531"/><text fill="#111111" font-family="Helvetica" font-size="14" lengthAdjust="spacingAndGlyphs" textLength="111" x="577" y="222.9482">/livespec:doctor</text><!--MD5=[68d9f8308b3234f377cb47a720a0d9e6]
entity ListMemos--><rect fill="#FFFFE0" height="71.1875" style="stroke: #111111; stroke-width: 1.5;" width="131" x="1035" y="558.9531"/><text fill="#111111" font-family="Helvetica" font-size="14" lengthAdjust="spacingAndGlyphs" textLength="111" x="1045" y="574.9482">/livespec-impl-*:</text><text fill="#111111" font-family="Helvetica" font-size="14" lengthAdjust="spacingAndGlyphs" textLength="76" x="1045" y="591.2451">list-memos</text><text fill="#111111" font-family="Helvetica" font-size="14" lengthAdjust="spacingAndGlyphs" textLength="78" x="1045" y="607.542">[--keyword]</text><text fill="#111111" font-family="Helvetica" font-size="14" lengthAdjust="spacingAndGlyphs" textLength="5" x="1045" y="623.8389">[</text><text fill="#111111" font-family="Helvetica" font-size="14" lengthAdjust="spacingAndGlyphs" text-decoration="line-through" textLength="66" x="1050" y="623.8389">untriaged</text><text fill="#111111" font-family="Helvetica" font-size="14" lengthAdjust="spacingAndGlyphs" textLength="34" x="1120" y="623.8389">json]</text><!--MD5=[38c3dd3a596b244014464f502c88eff1]
entity ProcessMemos--><rect fill="#FFFFE0" height="54.8906" style="stroke: #111111; stroke-width: 1.5;" width="165" x="694" y="566.9531"/><text fill="#111111" font-family="Helvetica" font-size="14" lengthAdjust="spacingAndGlyphs" textLength="111" x="704" y="582.9482">/livespec-impl-*:</text><text fill="#111111" font-family="Helvetica" font-size="14" lengthAdjust="spacingAndGlyphs" textLength="113" x="704" y="599.2451">process-memos</text><text fill="#111111" font-family="Helvetica" font-size="14" lengthAdjust="spacingAndGlyphs" textLength="145" x="704" y="615.542">(per-memo dialogue)</text><ellipse cx="776.3472" cy="716.3503" fill="#FFFFFF" rx="59.3472" ry="25.3972" style="stroke: #111111; stroke-width: 1.5;"/><text fill="#111111" font-family="Helvetica" font-size="14" lengthAdjust="spacingAndGlyphs" textLength="72" x="740.3472" y="711.9172">Per-memo</text><text fill="#111111" font-family="Helvetica" font-size="14" lengthAdjust="spacingAndGlyphs" textLength="82" x="735.3472" y="728.214">disposition?</text><!--MD5=[2f79eab865eafeda9f44c248052cf60d]
entity ProposeChanges--><rect fill="#FFFFE0" height="38.5938" style="stroke: #111111; stroke-width: 1.5;" width="210" x="490.5" y="879.9531"/><text fill="#111111" font-family="Helvetica" font-size="14" lengthAdjust="spacingAndGlyphs" textLength="189" x="500.5" y="895.9482">/livespec:propose-changes</text><text fill="#111111" font-family="Helvetica" font-size="14" lengthAdjust="spacingAndGlyphs" textLength="190" x="500.5" y="912.2451">(cross-namespace handoff)</text><!--MD5=[7ca372cbd3a2f19304f359205cdeb52a]
entity Proposed--><path d="M516,1020.9531 C516,1010.9531 595.5,1010.9531 595.5,1010.9531 C595.5,1010.9531 675,1010.9531 675,1020.9531 L675,1062.5469 C675,1072.5469 595.5,1072.5469 595.5,1072.5469 C595.5,1072.5469 516,1072.5469 516,1062.5469 L516,1020.9531 " fill="#FFFFFF" style="stroke: #111111; stroke-width: 1.5;"/><path d="M516,1020.9531 C516,1030.9531 595.5,1030.9531 595.5,1030.9531 C595.5,1030.9531 675,1030.9531 675,1020.9531 " fill="none" style="stroke: #111111; stroke-width: 1.5;"/><text fill="#111111" font-family="Helvetica" font-size="14" lengthAdjust="spacingAndGlyphs" textLength="139" x="526" y="1047.9482">proposed_changes/</text><text fill="#111111" font-family="Helvetica" font-size="14" lengthAdjust="spacingAndGlyphs" textLength="102" x="526" y="1064.2451">(livespec-core)</text><!--MD5=[cf6f536b29ffbf8311693ce00a20793f]
entity WorkQueue--><path d="M736,870.4531 C736,860.4531 804.5,860.4531 804.5,860.4531 C804.5,860.4531 873,860.4531 873,870.4531 L873,928.3438 C873,938.3438 804.5,938.3438 804.5,938.3438 C804.5,938.3438 736,938.3438 736,928.3438 L736,870.4531 " fill="#FFFFFF" style="stroke: #111111; stroke-width: 1.5;"/><path d="M736,870.4531 C736,880.4531 804.5,880.4531 804.5,880.4531 C804.5,880.4531 873,880.4531 873,870.4531 " fill="none" style="stroke: #111111; stroke-width: 1.5;"/><text fill="#111111" font-family="Helvetica" font-size="14" lengthAdjust="spacingAndGlyphs" textLength="117" x="746" y="897.4482">work-item queue</text><text fill="#111111" font-family="Helvetica" font-size="14" lengthAdjust="spacingAndGlyphs" textLength="114" x="746" y="913.7451">(joins implement</text><text fill="#111111" font-family="Helvetica" font-size="14" lengthAdjust="spacingAndGlyphs" textLength="50" x="746" y="930.042">queue)</text><!--MD5=[8d5264a06900110091f430494b0b197f]
entity AiTree--><rect fill="#E6E6FA" height="68.8906" style="stroke: #111111; stroke-width: 1.5;" width="173" x="6" y="864.9531"/><text fill="#111111" font-family="Helvetica" font-size="14" lengthAdjust="spacingAndGlyphs" textLength="104" x="16" y="887.9482">.ai/&lt;topic&gt;.md</text><text fill="#111111" font-family="Helvetica" font-size="14" lengthAdjust="spacingAndGlyphs" textLength="108" x="16" y="904.2451">+ AGENTS.md /</text><text fill="#111111" font-family="Helvetica" font-size="14" lengthAdjust="spacingAndGlyphs" textLength="153" x="16" y="920.542">CLAUDE.md reference</text><!--MD5=[43e5ab4d5e40e64f035709e06c45eab5]
entity Discarded--><rect fill="#FFFFFF" height="36.2969" style="stroke: #111111; stroke-width: 1.0; stroke-dasharray: 7.0,7.0;" width="83" x="935" y="881.4531"/><text fill="#111111" font-family="Helvetica" font-size="14" lengthAdjust="spacingAndGlyphs" textLength="63" x="945" y="904.4482">(deleted)</text><path d="M990.5,28.9531 L990.5,67.9531 L955.75,71.9531 L990.5,75.9531 L990.5,114.6172 A0,0 0 0 0 990.5,114.6172 L1300.5,114.6172 A0,0 0 0 0 1300.5,114.6172 L1300.5,38.9531 L1290.5,28.9531 L990.5,28.9531 A0,0 0 0 0 990.5,28.9531 " fill="#FBFB77" style="stroke: #A80036; stroke-width: 1.0;"/><path d="M1290.5,28.9531 L1290.5,38.9531 L1300.5,38.9531 L1290.5,28.9531 " fill="#FBFB77" style="stroke: #A80036; stroke-width: 1.0;"/><text fill="#000000" font-family="Helvetica" font-size="13" lengthAdjust="spacingAndGlyphs" textLength="253" x="996.5" y="46.02">Storage backend is impl-plugin-specific.</text><text fill="#000000" font-family="Helvetica" font-size="13" lengthAdjust="spacingAndGlyphs" textLength="202" x="996.5" y="61.1528">bd Dolt for livespec-impl-beads.</text><text fill="#000000" font-family="Helvetica" font-size="13" lengthAdjust="spacingAndGlyphs" textLength="211" x="996.5" y="76.2856">JSONL for livespec-impl-plaintext.</text><text fill="#000000" font-family="Helvetica" font-size="13" lengthAdjust="spacingAndGlyphs" textLength="226" x="996.5" y="91.4185">GitLab note for livespec-impl-gitlab.</text><text fill="#000000" font-family="Helvetica" font-size="13" lengthAdjust="spacingAndGlyphs" textLength="289" x="996.5" y="106.5513">User-facing semantics are uniform across all.</text><path d="M527.5,335.9531 L527.5,467.0156 A0,0 0 0 0 527.5,467.0156 L737.5,467.0156 A0,0 0 0 0 737.5,467.0156 L737.5,345.9531 L727.5,335.9531 L636.5,335.9531 L632.5,228.9731 L628.5,335.9531 L527.5,335.9531 A0,0 0 0 0 527.5,335.9531 " fill="#FBFB77" style="stroke: #A80036; stroke-width: 1.0;"/><path d="M727.5,335.9531 L727.5,345.9531 L737.5,345.9531 L727.5,335.9531 " fill="#FBFB77" style="stroke: #A80036; stroke-width: 1.0;"/><text fill="#000000" font-family="Helvetica" font-size="13" lengthAdjust="spacingAndGlyphs" textLength="116" x="533.5" y="353.02">Doctor's invariant:</text><text fill="#000000" font-family="Helvetica" font-size="13" lengthAdjust="spacingAndGlyphs" textLength="157" x="533.5" y="368.1528">"no memo MUST remain</text><text fill="#000000" font-family="Helvetica" font-size="13" lengthAdjust="spacingAndGlyphs" textLength="169" x="533.5" y="383.2856">untriaged beyond N days."</text><text fill="#000000" font-family="Helvetica" font-size="13" lengthAdjust="spacingAndGlyphs" textLength="189" x="533.5" y="398.4185">Queries the active impl plugin</text><text fill="#000000" font-family="Helvetica" font-size="13" lengthAdjust="spacingAndGlyphs" textLength="18" x="533.5" y="413.5513">via</text><text fill="#000000" font-family="Helvetica" font-size="13" lengthAdjust="spacingAndGlyphs" text-decoration="line-through" textLength="61" x="555.5" y="413.5513">untriaged</text><text fill="#000000" font-family="Helvetica" font-size="13" lengthAdjust="spacingAndGlyphs" textLength="77" x="620.5" y="413.5513">json. Doctor</text><text fill="#000000" font-family="Helvetica" font-size="13" lengthAdjust="spacingAndGlyphs" textLength="188" x="533.5" y="428.6841">knows about memos ONLY to</text><text fill="#000000" font-family="Helvetica" font-size="13" lengthAdjust="spacingAndGlyphs" textLength="176" x="533.5" y="443.8169">detect-and-warn; resolution</text><text fill="#000000" font-family="Helvetica" font-size="13" lengthAdjust="spacingAndGlyphs" textLength="94" x="533.5" y="458.9497">lives impl-side.</text><path d="M214,848.9531 L214,895.4531 L179.47,899.4531 L214,903.4531 L214,949.75 A0,0 0 0 0 214,949.75 L455,949.75 A0,0 0 0 0 455,949.75 L455,858.9531 L445,848.9531 L214,848.9531 A0,0 0 0 0 214,848.9531 " fill="#FBFB77" style="stroke: #A80036; stroke-width: 1.0;"/><path d="M445,848.9531 L445,858.9531 L455,858.9531 L445,848.9531 " fill="#FBFB77" style="stroke: #A80036; stroke-width: 1.0;"/><text fill="#000000" font-family="Helvetica" font-size="13" lengthAdjust="spacingAndGlyphs" textLength="162" x="220" y="866.02">Persistent-knowledge file:</text><text fill="#000000" font-family="Helvetica" font-size="13" lengthAdjust="spacingAndGlyphs" textLength="197" x="220" y="881.1528">named per topic, progressively</text><text fill="#000000" font-family="Helvetica" font-size="13" lengthAdjust="spacingAndGlyphs" textLength="155" x="220" y="896.2856">loaded via AGENTS.md /</text><text fill="#000000" font-family="Helvetica" font-size="13" lengthAdjust="spacingAndGlyphs" textLength="220" x="220" y="911.4185">CLAUDE.md reference. NOT a junk</text><text fill="#000000" font-family="Helvetica" font-size="13" lengthAdjust="spacingAndGlyphs" textLength="210" x="220" y="926.5513">drawer — each file has a focused</text><text fill="#000000" font-family="Helvetica" font-size="13" lengthAdjust="spacingAndGlyphs" textLength="166" x="220" y="941.6841">subject and explicit reach.</text><path d="M1053.5,856.4531 L1053.5,942.1172 L1253.5,942.1172 L1253.5,866.4531 L1243.5,856.4531 L1053.5,856.4531 " fill="#FBFB77" style="stroke: #A80036; stroke-width: 1.0;"/><path d="M1243.5,856.4531 L1243.5,866.4531 L1253.5,866.4531 L1243.5,856.4531 " fill="#FBFB77" style="stroke: #A80036; stroke-width: 1.0;"/><text fill="#000000" font-family="Helvetica" font-size="13" lengthAdjust="spacingAndGlyphs" textLength="158" x="1059.5" y="873.52">Four dispositions encode</text><text fill="#000000" font-family="Helvetica" font-size="13" lengthAdjust="spacingAndGlyphs" textLength="152" x="1059.5" y="888.6528">the livespec philosophy:</text><text fill="#000000" font-family="Helvetica" font-size="13" lengthAdjust="spacingAndGlyphs" textLength="179" x="1059.5" y="903.7856">everything resolves to spec,</text><text fill="#000000" font-family="Helvetica" font-size="13" lengthAdjust="spacingAndGlyphs" textLength="173" x="1059.5" y="918.9185">implementation, persistent</text><text fill="#000000" font-family="Helvetica" font-size="13" lengthAdjust="spacingAndGlyphs" textLength="144" x="1059.5" y="934.0513">knowledge, or oblivion.</text><!--MD5=[185fba0a9994d2f430834aeec5821ab8]
link HumanUser to Observation--><path d="M492.13,448.5431 C497.21,455.3531 503.02,461.7931 509.5,466.9531 C539.87,491.1131 569.27,465.1431 591.5,496.9531 C603,513.4031 603.08,535.5731 599.92,554.5231 " fill="none" id="HumanUser-&gt;Observation" style="stroke: #111111; stroke-width: 1.0;"/><polygon fill="#111111" points="598.94,559.7731,604.5145,551.6537,599.852,554.857,596.6487,550.1945,598.94,559.7731" style="stroke: #111111; stroke-width: 1.0;"/><!--MD5=[b7c9d559e23c0cb8324140ff78d97751]
link Observation to CaptureMemo--><path d="M533.31,627.2931 C496.6,648.4731 449.4,675.7031 417.23,694.2631 " fill="none" id="Observation-&gt;CaptureMemo" style="stroke: #111111; stroke-width: 1.0;"/><polygon fill="#111111" points="412.6,696.9331,422.3941,695.8957,416.9297,694.4325,418.393,688.9681,412.6,696.9331" style="stroke: #111111; stroke-width: 1.0;"/><!--MD5=[0357b5824b0aed4978512d941c811c27]
link Agent to CaptureMemo--><path d="M384.01,440.5231 C383.18,505.8831 381.49,637.6331 380.8,691.5931 " fill="none" id="Agent-&gt;CaptureMemo" style="stroke: #111111; stroke-width: 1.0;"/><polygon fill="#111111" points="380.74,696.8731,384.8682,687.9312,380.8114,691.8736,376.869,687.8169,380.74,696.8731" style="stroke: #111111; stroke-width: 1.0;"/><text fill="#111111" font-family="Helvetica" font-size="13" lengthAdjust="spacingAndGlyphs" textLength="91" x="383.5" y="599.02">drives capture</text><!--MD5=[7ea21914432ea6560c522db4b7401d96]
link CaptureMemo to MemoStore--><path d="M355.05,696.9031 C329.06,675.6131 292.5,638.0831 292.5,595.4531 C292.5,216.9531 292.5,216.9531 292.5,216.9531 C292.5,116.1031 625.94,85.4231 788.05,76.4631 " fill="none" id="CaptureMemo-&gt;MemoStore" style="stroke: #111111; stroke-width: 1.0;"/><polygon fill="#111111" points="793.27,76.1831,784.0664,72.6769,788.2774,76.4542,784.5001,80.6651,793.27,76.1831" style="stroke: #111111; stroke-width: 1.0;"/><!--MD5=[9f480ea288f270a23070b2e5912b39e3]
link MemoStore to Doctor--><path d="M793.5,85.4531 C751.47,95.4931 701.69,113.3631 666.5,144.9531 C649.59,160.1331 640.37,185.5131 635.95,201.7331 " fill="none" id="MemoStore-&gt;Doctor" style="stroke: #888888; stroke-width: 1.0; stroke-dasharray: 7.0,7.0;"/><polygon fill="#888888" points="634.62,206.8531,640.7317,199.13,635.8629,202.0101,632.9828,197.1413,634.62,206.8531" style="stroke: #888888; stroke-width: 1.0;"/><text fill="#111111" font-family="Helvetica" font-size="13" lengthAdjust="spacingAndGlyphs" text-decoration="line-through" textLength="61" x="667.5" y="158.02">untriaged</text><text fill="#111111" font-family="Helvetica" font-size="13" lengthAdjust="spacingAndGlyphs" textLength="26" x="732.5" y="158.02">json</text><text fill="#111111" font-family="Helvetica" font-size="13" lengthAdjust="spacingAndGlyphs" textLength="36" x="695" y="173.1528">query</text><!--MD5=[9cec9bdc6ab146bb294241512aa1e5db]
link Doctor to HumanUser--><path d="M566.74,227.6731 C545.73,233.4531 523.94,243.0431 508.5,258.9531 C485.35,282.8131 475.14,318.9231 470.69,348.6931 " fill="none" id="Doctor-&gt;HumanUser" style="stroke: #111111; stroke-width: 1.0;"/><polygon fill="#111111" points="469.98,353.7831,475.1991,345.4308,470.6791,348.8322,467.2777,344.3122,469.98,353.7831" style="stroke: #111111; stroke-width: 1.0;"/><text fill="#111111" font-family="Helvetica" font-size="13" lengthAdjust="spacingAndGlyphs" textLength="78" x="527.5" y="272.02">warns about</text><text fill="#111111" font-family="Helvetica" font-size="13" lengthAdjust="spacingAndGlyphs" textLength="114" x="509.5" y="287.1528">untriaged memos</text><text fill="#111111" font-family="Helvetica" font-size="13" lengthAdjust="spacingAndGlyphs" textLength="95" x="519" y="302.2856">beyond N days</text><!--MD5=[cb13c0c11a46f9e9fe34168c439b8eac]
link HumanUser to ListMemos--><path d="M490.41,448.9631 C495.77,455.9831 502.11,462.3831 509.5,466.9531 C559.54,497.8831 714.85,485.2731 772.5,496.9531 C862.65,515.2131 963.85,546.7231 1029.68,568.7531 " fill="none" id="HumanUser-&gt;ListMemos" style="stroke: #111111; stroke-width: 1.0;"/><polygon fill="#111111" points="1034.75,570.4631,1027.4888,563.8092,1030.0095,568.8734,1024.9452,571.394,1034.75,570.4631" style="stroke: #111111; stroke-width: 1.0;"/><text fill="#111111" font-family="Helvetica" font-size="13" lengthAdjust="spacingAndGlyphs" textLength="76" x="900.5" y="510.02">(user-facing</text><text fill="#111111" font-family="Helvetica" font-size="13" lengthAdjust="spacingAndGlyphs" textLength="48" x="914.5" y="525.1528">search)</text><!--MD5=[8232518ef16188b39e2fb872876e96fb]
link ListMemos to MemoStore--><path d="M1116.58,558.8531 C1152.18,476.5531 1226.86,266.9031 1126.5,144.9531 C1082.47,91.4431 1039.75,135.2631 973.5,114.9531 C969.17,113.6231 964.78,112.1731 960.37,110.6331 " fill="none" id="ListMemos-&gt;MemoStore" style="stroke: #111111; stroke-width: 1.0;"/><polygon fill="#111111" points="955.58,108.9331,962.7077,115.7299,960.2881,110.6166,965.4013,108.197,955.58,108.9331" style="stroke: #111111; stroke-width: 1.0;"/><text fill="#111111" font-family="Helvetica" font-size="13" lengthAdjust="spacingAndGlyphs" textLength="36" x="1177.5" y="287.02">reads</text><!--MD5=[3a8093cb4038d24a839571b26ab810ce]
link MemoStore to ListMemos--><path d="M928.12,111.0331 C971.05,144.7031 1028.81,197.8831 1058.5,258.9531 C1105.91,356.4931 1106.69,488.0731 1103.51,553.3131 " fill="none" id="MemoStore-&gt;ListMemos" style="stroke: #111111; stroke-width: 1.0;"/><polygon fill="#111111" points="1103.23,558.6631,1107.687,549.8804,1103.4868,553.6697,1099.6975,549.4696,1103.23,558.6631" style="stroke: #111111; stroke-width: 1.0;"/><!--MD5=[853f35fe66d745dae491161eb8dd7fdb]
link HumanUser to ProcessMemos--><path d="M491.74,449.0631 C496.86,455.8031 502.79,462.0931 509.5,466.9531 C551.59,497.4231 575.35,475.1231 622.5,496.9531 C645.1,507.4131 647.57,515.4531 668.5,528.9531 C686.94,540.8531 707.54,553.3431 725.77,564.1331 " fill="none" id="HumanUser-&gt;ProcessMemos" style="stroke: #111111; stroke-width: 1.0;"/><polygon fill="#111111" points="730.35,566.8431,724.6393,558.8189,726.0462,564.298,720.5671,565.705,730.35,566.8431" style="stroke: #111111; stroke-width: 1.0;"/><text fill="#111111" font-family="Helvetica" font-size="13" lengthAdjust="spacingAndGlyphs" textLength="82" x="675.5" y="510.02">invokes after</text><text fill="#111111" font-family="Helvetica" font-size="13" lengthAdjust="spacingAndGlyphs" textLength="94" x="669.5" y="525.1528">doctor warning</text><!--MD5=[91473e75d2d76d3833c4f665042b363c]
link Agent to ProcessMemos--><path d="M397.8,440.6431 C409.99,469.6931 430.97,508.1031 462.5,528.9531 C536.74,578.0531 573.64,539.5531 660.5,558.9531 C669.75,561.0231 679.35,563.4331 688.88,566.0031 " fill="none" id="Agent-&gt;ProcessMemos" style="stroke: #111111; stroke-width: 1.0;"/><polygon fill="#111111" points="693.86,567.3531,686.2265,561.1298,689.0355,566.04,684.1254,568.849,693.86,567.3531" style="stroke: #111111; stroke-width: 1.0;"/><text fill="#111111" font-family="Helvetica" font-size="13" lengthAdjust="spacingAndGlyphs" textLength="150" x="463.5" y="517.52">per-memo handholding</text><!--MD5=[0d83c5f6b42d1191dc2ad2d45929f802]
link ProcessMemos to MemoStore--><path d="M775.48,566.8131 C773.09,498.2531 768.36,317.0831 782.5,258.9531 C795.22,206.6431 824.44,152.0331 846.56,115.6231 " fill="none" id="ProcessMemos-&gt;MemoStore" style="stroke: #111111; stroke-width: 1.0;"/><polygon fill="#111111" points="849.22,111.2731,841.1017,116.8493,846.6035,115.5339,847.9189,121.0357,849.22,111.2731" style="stroke: #111111; stroke-width: 1.0;"/><text fill="#111111" font-family="Helvetica" font-size="13" lengthAdjust="spacingAndGlyphs" textLength="136" x="783.5" y="287.02">reads each untriaged</text><!--MD5=[0d83c5f6b42d1191dc2ad2d45929f802]
link ProcessMemos to MemoStore--><path d="M859.4,581.2131 C890.48,572.1531 922.77,556.3831 941.5,528.9531 C987.09,462.1831 918.95,216.6631 888.23,116.2231 " fill="none" id="ProcessMemos-&gt;MemoStore-1" style="stroke: #111111; stroke-width: 1.0;"/><polygon fill="#111111" points="886.71,111.2631,885.5316,121.0412,888.1794,116.0423,893.1783,118.6901,886.71,111.2631" style="stroke: #111111; stroke-width: 1.0;"/><text fill="#111111" font-family="Helvetica" font-size="13" lengthAdjust="spacingAndGlyphs" textLength="75" x="956" y="279.52">marks each</text><text fill="#111111" font-family="Helvetica" font-size="13" lengthAdjust="spacingAndGlyphs" textLength="112" x="937.5" y="294.6528">memo processed</text><!--MD5=[450fc40cd7462ba0fec502841e43a6b1]
link ProcessMemos to Disposition--><path d="M776.5,622.0831 C776.5,640.8931 776.5,666.1131 776.5,685.6031 " fill="none" id="ProcessMemos-&gt;Disposition" style="stroke: #111111; stroke-width: 1.0;"/><polygon fill="#111111" points="776.5,690.9431,780.5,681.9431,776.5,685.9431,772.5,681.9431,776.5,690.9431" style="stroke: #111111; stroke-width: 1.0;"/><!--MD5=[ba382a905d9ccd0f5343e04bbd6bab91]
link Disposition to ProposeChanges--><path d="M726.89,730.6231 C702.62,739.1231 674.43,752.3531 654.5,771.9531 C625.23,800.7531 608.86,846.8531 601.13,874.7331 " fill="none" id="Disposition-&gt;ProposeChanges" style="stroke: #111111; stroke-width: 1.0;"/><polygon fill="#111111" points="599.79,879.7131,605.9922,872.0625,601.0899,874.885,598.2673,869.9827,599.79,879.7131" style="stroke: #111111; stroke-width: 1.0;"/><text fill="#111111" font-family="Helvetica" font-size="13" lengthAdjust="spacingAndGlyphs" textLength="88" x="665" y="792.52">SPEC-BOUND</text><text fill="#111111" font-family="Helvetica" font-size="13" lengthAdjust="spacingAndGlyphs" textLength="107" x="655.5" y="807.6528">(handoff to core)</text><!--MD5=[4a39d6adf493c9f63bc8b1dd30a0fafe]
link ProposeChanges to Proposed--><path d="M595.5,919.1131 C595.5,941.1731 595.5,978.3731 595.5,1005.8831 " fill="none" id="ProposeChanges-&gt;Proposed" style="stroke: #111111; stroke-width: 1.0;"/><polygon fill="#111111" points="595.5,1010.8931,599.5,1001.8931,595.5,1005.8931,591.5,1001.8931,595.5,1010.8931" style="stroke: #111111; stroke-width: 1.0;"/><!--MD5=[77afc67be240e843e212f69c334165ed]
link Disposition to WorkQueue--><path d="M774.85,742.1331 C774.31,751.4731 773.77,762.1931 773.5,771.9531 C772.93,792.8331 769.64,798.4231 773.5,818.9531 C775.78,831.0531 779.84,843.6831 784.3,855.2131 " fill="none" id="Disposition-&gt;WorkQueue" style="stroke: #111111; stroke-width: 1.0;"/><polygon fill="#111111" points="786.23,860.0831,786.6275,850.2423,784.3854,855.4358,779.1918,853.1937,786.23,860.0831" style="stroke: #111111; stroke-width: 1.0;"/><text fill="#111111" font-family="Helvetica" font-size="13" lengthAdjust="spacingAndGlyphs" textLength="83" x="812" y="785.02">IMPL-BOUND</text><text fill="#111111" font-family="Helvetica" font-size="13" lengthAdjust="spacingAndGlyphs" textLength="93" x="807" y="800.1528">(file work item;</text><text fill="#111111" font-family="Helvetica" font-size="13" lengthAdjust="spacingAndGlyphs" textLength="158" x="774.5" y="815.2856">picked up by implement)</text><!--MD5=[30a2229d656c0747721505dec81b348b]
link Disposition to AiTree--><path d="M718.93,723.4031 C649.09,731.3031 528.08,747.2331 426.5,771.9531 C321.76,797.4431 296.46,808.6031 196.5,848.9531 C186.03,853.1731 175.13,857.9431 164.49,862.8131 " fill="none" id="Disposition-&gt;AiTree" style="stroke: #111111; stroke-width: 1.0;"/><polygon fill="#111111" points="159.94,864.9031,169.7878,864.7575,164.4785,862.8051,166.431,857.4959,159.94,864.9031" style="stroke: #111111; stroke-width: 1.0;"/><text fill="#111111" font-family="Helvetica" font-size="13" lengthAdjust="spacingAndGlyphs" textLength="164" x="438.5" y="785.02">PERSISTENT-KNOWLEDGE</text><text fill="#111111" font-family="Helvetica" font-size="13" lengthAdjust="spacingAndGlyphs" textLength="121" x="460" y="800.1528">(write file + update</text><text fill="#111111" font-family="Helvetica" font-size="13" lengthAdjust="spacingAndGlyphs" textLength="186" x="427.5" y="815.2856">AGENTS.md/CLAUDE.md ref)</text><!--MD5=[4307c753bc96ae7e90ea37be2054f228]
link Disposition to Discarded--><path d="M833.72,723.7031 C868.06,730.3131 910.23,743.9331 937.5,771.9531 C965.15,800.3631 973.24,847.9231 975.58,875.9231 " fill="none" id="Disposition-&gt;Discarded" style="stroke: #111111; stroke-width: 1.0;"/><polygon fill="#111111" points="975.98,881.2531,979.3267,871.9903,975.6227,876.2659,971.3472,872.5619,975.98,881.2531" style="stroke: #111111; stroke-width: 1.0;"/><text fill="#111111" font-family="Helvetica" font-size="13" lengthAdjust="spacingAndGlyphs" textLength="58" x="996" y="792.52">DISCARD</text><text fill="#111111" font-family="Helvetica" font-size="13" lengthAdjust="spacingAndGlyphs" textLength="121" x="964.5" y="807.6528">(delete from store)</text><!--MD5=[4f9aaffd61b97afd09b61c0ab8dc27ed]
link Disposition to GMN44--><path d="M835.36,721.0731 C915.84,727.0931 1054.76,741.6131 1094.5,771.9531 C1121.37,792.4631 1136.47,828.1831 1144.66,856.4531 " fill="none" id="Disposition-GMN44" style="stroke: #111111; stroke-width: 1.0; stroke-dasharray: 7.0,7.0;"/><!--MD5=[28bc89a481bde6b3ec7c416ba559cb05]
@startuml memo-lifecycle
title Memo Lifecycle — Capture, Hygiene, Routing
skinparam defaultFontName Helvetica
skinparam shadowing false
skinparam BackgroundColor white
skinparam ArrowColor #111
skinparam ArrowFontColor #111
skinparam rectangle {
  BorderColor #111
  BackgroundColor white
  FontColor #111
}
skinparam database {
  BorderColor #111
  BackgroundColor white
  FontColor #111
}
skinparam usecase {
  BorderColor #111
  BackgroundColor white
  FontColor #111
}
skinparam card {
  BorderColor #111
  BackgroundColor white
  FontColor #111
}
skinparam actor {
  BorderColor #111
  BackgroundColor white
  FontColor #111
}

actor "Human\nuser" as HumanUser
actor "Agent" as Agent #LightSkyBlue

rectangle "Mid-workflow\nobservation /\nidea / TODO" as Observation #FFFFFF;line.dashed

card "/livespec-impl-*:\ncapture-memo" as CaptureMemo #LightYellow
database "memo store\n(impl-plugin-specific:\nbd Dolt / JSONL / ...)" as MemoStore

card "/livespec:doctor" as Doctor #LightYellow
card "/livespec-impl-*:\nlist-memos\n[- -keyword]\n[- -untriaged - -json]" as ListMemos #LightYellow

card "/livespec-impl-*:\nprocess-memos\n(per-memo dialogue)" as ProcessMemos #LightYellow
usecase "Per-memo\ndisposition?" as Disposition

card "/livespec:propose-changes\n(cross-namespace handoff)" as ProposeChanges #LightYellow
database "proposed_changes/\n(livespec-core)" as Proposed
database "work-item queue\n(joins implement\nqueue)" as WorkQueue
rectangle ".ai/<topic>.md\n+ AGENTS.md /\nCLAUDE.md reference" as AiTree #Lavender
rectangle "(deleted)" as Discarded #FFFFFF;line.dashed

HumanUser - -> Observation
Observation - -> CaptureMemo
Agent - -> CaptureMemo : drives capture
CaptureMemo - -> MemoStore

MemoStore -[#888,dashed]-> Doctor : - -untriaged - -json\nquery
Doctor - -> HumanUser : warns about\nuntriaged memos\nbeyond N days
HumanUser - -> ListMemos : (user-facing\nsearch)
ListMemos - -> MemoStore : reads
MemoStore - -> ListMemos

HumanUser - -> ProcessMemos : invokes after\ndoctor warning
Agent - -> ProcessMemos : per-memo handholding
ProcessMemos - -> MemoStore : reads each untriaged
ProcessMemos - -> Disposition

Disposition - -> ProposeChanges : SPEC-BOUND\n(handoff to core)
ProposeChanges - -> Proposed
Disposition - -> WorkQueue : IMPL-BOUND\n(file work item;\npicked up by implement)
Disposition - -> AiTree : PERSISTENT-KNOWLEDGE\n(write file + update\nAGENTS.md/CLAUDE.md ref)
Disposition - -> Discarded : DISCARD\n(delete from store)

ProcessMemos - -> MemoStore : marks each\nmemo processed

note right of MemoStore : Storage backend is impl-plugin-specific.\nbd Dolt for livespec-impl-beads.\nJSONL for livespec-impl-plaintext.\nGitLab note for livespec-impl-gitlab.\nUser-facing semantics are uniform across all.

note bottom of Doctor : Doctor's invariant:\n"no memo MUST remain\nuntriaged beyond N days."\nQueries the active impl plugin\nvia - -untriaged - -json. Doctor\nknows about memos ONLY to\ndetect-and-warn; resolution\nlives impl-side.

note right of AiTree : Persistent-knowledge file:\nnamed per topic, progressively\nloaded via AGENTS.md /\nCLAUDE.md reference. NOT a junk\ndrawer — each file has a focused\nsubject and explicit reach.

note bottom of Disposition : Four dispositions encode\nthe livespec philosophy:\neverything resolves to spec,\nimplementation, persistent\nknowledge, or oblivion.

@enduml

PlantUML version 1.2020.02(Sun Mar 01 11:22:07 CET 2020)
(GPL source distribution)
Java Runtime: OpenJDK Runtime Environment
JVM: OpenJDK 64-Bit Server VM
Java Version: 21.0.10+7-Ubuntu-125.10
Operating System: Linux
Default Encoding: UTF-8
Language: en
Country: null
--></g></svg>