<?xml version="1.0" encoding="UTF-8" standalone="no"?><svg xmlns="http://www.w3.org/2000/svg" xmlns:xlink="http://www.w3.org/1999/xlink" contentScriptType="application/ecmascript" contentStyleType="text/css" height="690px" preserveAspectRatio="none" style="width:3784px;height:690px;" version="1.1" viewBox="0 0 3784 690" width="3784px" zoomAndPan="magnify"><defs/><g><text fill="#000000" font-family="Helvetica" font-size="18" lengthAdjust="spacingAndGlyphs" textLength="266" x="1762" y="16.708">Multi-Repo Plugin Distribution</text><!--MD5=[2069c3c37ceb3264e7f2523a96eccf30]
cluster Plugin source repos (each a separate GitHub repo)--><polygon fill="#FFFFFF" points="115.73,427.9531,524.73,427.9531,531.73,450.25,2444.73,450.25,2444.73,678.9531,115.73,678.9531,115.73,427.9531" style="stroke: #000000; stroke-width: 1.5;"/><line style="stroke: #000000; stroke-width: 1.5;" x1="115.73" x2="531.73" y1="450.25" y2="450.25"/><text fill="#000000" font-family="Helvetica" font-size="14" font-weight="bold" lengthAdjust="spacingAndGlyphs" textLength="403" x="119.73" y="442.9482">Plugin source repos (each a separate GitHub repo)</text><!--MD5=[2c2e2644034c00788261e03c85b06837]
cluster Core--><rect fill="#FFFFE0" height="168" style="stroke: #111111; stroke-width: 1.5;" width="480" x="147.73" y="478.9531"/><text fill="#111111" font-family="Helvetica" font-size="14" font-weight="bold" lengthAdjust="spacingAndGlyphs" textLength="107" x="334.23" y="493.9482">livespec-core</text><!--MD5=[fed2c73ef599cdf2d2644d10704db68a]
cluster ImplPlain--><rect fill="#FFFFE0" height="120" style="stroke: #111111; stroke-width: 1.5;" width="510" x="667.73" y="502.9531"/><text fill="#111111" font-family="Helvetica" font-size="14" font-weight="bold" lengthAdjust="spacingAndGlyphs" textLength="177" x="834.23" y="517.9482">livespec-impl-plaintext</text><!--MD5=[63ea166f98976442471960c54e405d98]
cluster ImplBeads--><rect fill="#FFFFE0" height="103" style="stroke: #111111; stroke-width: 1.5;" width="438" x="1397.73" y="511.4531"/><text fill="#111111" font-family="Helvetica" font-size="14" font-weight="bold" lengthAdjust="spacingAndGlyphs" textLength="157" x="1538.23" y="526.4482">livespec-impl-beads</text><!--MD5=[49b0fd6526d1033747c7ba520cfe12b9]
cluster ImplGitLab--><rect fill="#FFFFE0" height="120" style="stroke: #111111; stroke-width: 1.5;" width="537" x="1875.73" y="502.9531"/><text fill="#111111" font-family="Helvetica" font-size="14" font-weight="bold" lengthAdjust="spacingAndGlyphs" textLength="152" x="2068.23" y="517.9482">livespec-impl-gitlab</text><!--MD5=[7a5f6013d50c9a6ad0eda64e71b40eca]
cluster ConsumerRepo--><rect fill="#FFFFFF" height="145" style="stroke: #111111; stroke-width: 1.5;" width="1029" x="103.73" y="210.9531"/><text fill="#111111" font-family="Helvetica" font-size="14" font-weight="bold" lengthAdjust="spacingAndGlyphs" textLength="142" x="547.23" y="225.9482">Consumer project</text><text fill="#111111" font-family="Helvetica" font-size="14" font-weight="bold" lengthAdjust="spacingAndGlyphs" textLength="82" x="577.23" y="242.2451">repository</text><!--MD5=[2e33a83c78490f4dc71b45219c2c70ae]
entity ImplOthers--><rect fill="#FFFFE0" height="52.5938" style="stroke: #111111; stroke-width: 1.5;" width="169" x="1201.23" y="545.9531"/><text fill="#111111" font-family="Helvetica" font-size="14" lengthAdjust="spacingAndGlyphs" textLength="146" x="1211.23" y="568.9482">livespec-impl-gascity,</text><text fill="#111111" font-family="Helvetica" font-size="14" lengthAdjust="spacingAndGlyphs" textLength="149" x="1211.23" y="585.2451">livespec-impl-kilroy, ...</text><!--MD5=[9e12e1558ae8477273c0bd40fdbde7fa]
entity CoreSkills--><rect fill="#FFFFFF" height="22.2969" style="stroke: #111111; stroke-width: 1.5;" width="130" x="473.73" y="561.4531"/><text fill="#111111" font-family="Helvetica" font-size="14" lengthAdjust="spacingAndGlyphs" textLength="110" x="483.73" y="577.4482">/livespec:* skills</text><!--MD5=[a8d31c1093619714d95f04583c71f074]
entity CoreContract--><rect fill="#E6E6FA" height="101.4844" style="stroke: #111111; stroke-width: 1.5;" width="248" x="190.73" y="521.9531"/><text fill="#111111" font-family="Helvetica" font-size="14" lengthAdjust="spacingAndGlyphs" textLength="72" x="200.73" y="544.9482">publishes:</text><text fill="#111111" font-family="Helvetica" font-size="14" lengthAdjust="spacingAndGlyphs" textLength="228" x="200.73" y="561.2451">• SPECIFICATION/ shape contract</text><text fill="#111111" font-family="Helvetica" font-size="14" lengthAdjust="spacingAndGlyphs" textLength="207" x="200.73" y="577.542">• .livespec.jsonc core schema</text><text fill="#111111" font-family="Helvetica" font-size="14" lengthAdjust="spacingAndGlyphs" textLength="148" x="200.73" y="593.8389">• impl-plugin contract</text><text fill="#111111" font-family="Helvetica" font-size="14" lengthAdjust="spacingAndGlyphs" textLength="197" x="200.73" y="610.1357">• .ai/&lt;topic&gt;.md convention</text><!--MD5=[74d4a1abaf4cce97fc5a9cd960b221c0]
entity PlainSkills--><rect fill="#FFFFFF" height="22.2969" style="stroke: #111111; stroke-width: 1.5;" width="226" x="927.73" y="561.4531"/><text fill="#111111" font-family="Helvetica" font-size="14" lengthAdjust="spacingAndGlyphs" textLength="206" x="937.73" y="577.4482">/livespec-impl-plaintext:* skills</text><!--MD5=[8ac0560bebd63ab545fd7fa16aa95bd0]
entity PlainBackend--><rect fill="#FFFFFF" height="52.5938" style="stroke: #111111; stroke-width: 1.0; stroke-dasharray: 7.0,7.0;" width="182" x="710.73" y="545.9531"/><text fill="#111111" font-family="Helvetica" font-size="14" lengthAdjust="spacingAndGlyphs" textLength="162" x="720.73" y="568.9482">JSONL / md / html / yaml</text><text fill="#111111" font-family="Helvetica" font-size="14" lengthAdjust="spacingAndGlyphs" textLength="60" x="720.73" y="585.2451">backend</text><!--MD5=[ef9c57600f183559f3200d62b479cfc0]
entity BeadsSkills--><rect fill="#FFFFFF" height="22.2969" style="stroke: #111111; stroke-width: 1.5;" width="211" x="1600.23" y="561.4531"/><text fill="#111111" font-family="Helvetica" font-size="14" lengthAdjust="spacingAndGlyphs" textLength="191" x="1610.23" y="577.4482">/livespec-impl-beads:* skills</text><!--MD5=[ec3bfb71bbae807f19195b3009473243]
entity BeadsBackend--><rect fill="#FFFFFF" height="36.2969" style="stroke: #111111; stroke-width: 1.0; stroke-dasharray: 7.0,7.0;" width="124" x="1440.73" y="554.4531"/><text fill="#111111" font-family="Helvetica" font-size="14" lengthAdjust="spacingAndGlyphs" textLength="104" x="1450.73" y="577.4482">wraps bd / Dolt</text><!--MD5=[d7aaa957dc56d5cf0dc9460315633c2b]
entity GitLabSkills--><rect fill="#FFFFFF" height="22.2969" style="stroke: #111111; stroke-width: 1.5;" width="205" x="2184.23" y="561.4531"/><text fill="#111111" font-family="Helvetica" font-size="14" lengthAdjust="spacingAndGlyphs" textLength="185" x="2194.23" y="577.4482">/livespec-impl-gitlab:* skills</text><!--MD5=[1161b6aa87db580b4d4935ce805755bc]
entity GitLabBackend--><rect fill="#FFFFFF" height="52.5938" style="stroke: #111111; stroke-width: 1.0; stroke-dasharray: 7.0,7.0;" width="230" x="1918.73" y="545.9531"/><text fill="#111111" font-family="Helvetica" font-size="14" lengthAdjust="spacingAndGlyphs" textLength="113" x="1928.73" y="568.9482">wraps GitLab API</text><text fill="#111111" font-family="Helvetica" font-size="14" lengthAdjust="spacingAndGlyphs" textLength="210" x="1928.73" y="585.2451">(creds outside .livespec.jsonc)</text><!--MD5=[bc0454f76c761067c150a9682bc71416]
entity InstallCore--><rect fill="#FFFFFF" height="38.5938" style="stroke: #111111; stroke-width: 1.5;" width="138" x="405.73" y="281.4531"/><text fill="#111111" font-family="Helvetica" font-size="14" lengthAdjust="spacingAndGlyphs" textLength="90" x="415.73" y="297.4482">/plugin install</text><text fill="#111111" font-family="Helvetica" font-size="14" lengthAdjust="spacingAndGlyphs" textLength="118" x="415.73" y="313.7451">livespec-core@...</text><!--MD5=[afafe76ced0885c749fa5b1e4044528b]
entity InstallImpl--><rect fill="#FFFFFF" height="38.5938" style="stroke: #111111; stroke-width: 1.5;" width="210" x="898.73" y="281.4531"/><text fill="#111111" font-family="Helvetica" font-size="14" lengthAdjust="spacingAndGlyphs" textLength="90" x="908.73" y="297.4482">/plugin install</text><text fill="#111111" font-family="Helvetica" font-size="14" lengthAdjust="spacingAndGlyphs" textLength="190" x="908.73" y="313.7451">livespec-impl-&lt;choice&gt;@...</text><!--MD5=[2c8113cc364a23b9ee674e814acb7abf]
entity Config--><path d="M742.23,279.9531 C742.23,269.9531 802.73,269.9531 802.73,269.9531 C802.73,269.9531 863.23,269.9531 863.23,279.9531 L863.23,321.5469 C863.23,331.5469 802.73,331.5469 802.73,331.5469 C802.73,331.5469 742.23,331.5469 742.23,321.5469 L742.23,279.9531 " fill="#FFFFFF" style="stroke: #111111; stroke-width: 1.5;"/><path d="M742.23,279.9531 C742.23,289.9531 802.73,289.9531 802.73,289.9531 C802.73,289.9531 863.23,289.9531 863.23,279.9531 " fill="none" style="stroke: #111111; stroke-width: 1.5;"/><text fill="#111111" font-family="Helvetica" font-size="14" lengthAdjust="spacingAndGlyphs" textLength="81" x="752.23" y="306.9482">consumer's</text><text fill="#111111" font-family="Helvetica" font-size="14" lengthAdjust="spacingAndGlyphs" textLength="101" x="752.23" y="323.2451">.livespec.jsonc</text><!--MD5=[97aa225eff20683e21779a77bedb79b4]
entity SpecTree--><path d="M578.73,279.9531 C578.73,269.9531 642.73,269.9531 642.73,269.9531 C642.73,269.9531 706.73,269.9531 706.73,279.9531 L706.73,321.5469 C706.73,331.5469 642.73,331.5469 642.73,331.5469 C642.73,331.5469 578.73,331.5469 578.73,321.5469 L578.73,279.9531 " fill="#FFFFFF" style="stroke: #111111; stroke-width: 1.5;"/><path d="M578.73,279.9531 C578.73,289.9531 642.73,289.9531 642.73,289.9531 C642.73,289.9531 706.73,289.9531 706.73,279.9531 " fill="none" style="stroke: #111111; stroke-width: 1.5;"/><text fill="#111111" font-family="Helvetica" font-size="14" lengthAdjust="spacingAndGlyphs" textLength="81" x="588.73" y="306.9482">consumer's</text><text fill="#111111" font-family="Helvetica" font-size="14" lengthAdjust="spacingAndGlyphs" textLength="108" x="588.73" y="323.2451">SPECIFICATION/</text><!--MD5=[8d5264a06900110091f430494b0b197f]
entity AiTree--><rect fill="#E6E6FA" height="52.5938" style="stroke: #111111; stroke-width: 1.5;" width="224" x="146.73" y="274.4531"/><text fill="#111111" font-family="Helvetica" font-size="14" lengthAdjust="spacingAndGlyphs" textLength="104" x="156.73" y="297.4482">.ai/&lt;topic&gt;.md</text><text fill="#111111" font-family="Helvetica" font-size="14" lengthAdjust="spacingAndGlyphs" textLength="204" x="156.73" y="313.7451">(persistent agent knowledge)</text><!--MD5=[b37611e18c6480adc8bd036fe8a5d03e]
entity Shared--><rect fill="#E6E6FA" height="85.1875" style="stroke: #111111; stroke-width: 1.5;" width="167" x="1175.23" y="258.4531"/><text fill="#111111" font-family="Helvetica" font-size="14" lengthAdjust="spacingAndGlyphs" textLength="106" x="1185.23" y="281.4482">shared content</text><text fill="#111111" font-family="Helvetica" font-size="14" lengthAdjust="spacingAndGlyphs" textLength="147" x="1185.23" y="297.7451">(NFR, CI conventions,</text><text fill="#111111" font-family="Helvetica" font-size="14" lengthAdjust="spacingAndGlyphs" textLength="137" x="1185.23" y="314.042">TDD rules, lefthook,</text><text fill="#111111" font-family="Helvetica" font-size="14" lengthAdjust="spacingAndGlyphs" textLength="104" x="1185.23" y="330.3389">justfile recipes)</text><path d="M2863.23,559.9531 L2863.23,585.0859 L3772.23,585.0859 L3772.23,569.9531 L3762.23,559.9531 L2863.23,559.9531 " fill="#FBFB77" style="stroke: #A80036; stroke-width: 1.0;"/><path d="M3762.23,559.9531 L3762.23,569.9531 L3772.23,569.9531 L3762.23,559.9531 " fill="#FBFB77" style="stroke: #A80036; stroke-width: 1.0;"/><text fill="#000000" font-family="Helvetica" font-size="13" lengthAdjust="spacingAndGlyphs" textLength="888" x="2869.23" y="577.02">Mechanical sync (subtree / generator / pinned package). Mechanism TBD; the existence of shared content survives the multi-repo decision.</text><!--MD5=[4d65782647d64e21a92b473b2db819be]
entity Consumer--><ellipse cx="738.73" cy="38.4531" fill="#FFFFFF" rx="8" ry="8" style="stroke: #111111; stroke-width: 1.5;"/><path d="M738.73,46.4531 L738.73,73.4531 M725.73,54.4531 L751.73,54.4531 M738.73,73.4531 L725.73,88.4531 M738.73,73.4531 L751.73,88.4531 " fill="none" style="stroke: #111111; stroke-width: 1.5;"/><text fill="#111111" font-family="Helvetica" font-size="14" lengthAdjust="spacingAndGlyphs" textLength="72" x="702.73" y="103.9482">Consumer</text><text fill="#111111" font-family="Helvetica" font-size="14" lengthAdjust="spacingAndGlyphs" textLength="48" x="702.73" y="120.2451">project</text><text fill="#111111" font-family="Helvetica" font-size="14" lengthAdjust="spacingAndGlyphs" textLength="72" x="702.73" y="136.542">maintainer</text><path d="M2461.23,536.9531 L2461.23,607.4844 L2828.23,607.4844 L2828.23,546.9531 L2818.23,536.9531 L2461.23,536.9531 " fill="#FBFB77" style="stroke: #A80036; stroke-width: 1.0;"/><path d="M2818.23,536.9531 L2818.23,546.9531 L2828.23,546.9531 L2818.23,536.9531 " fill="#FBFB77" style="stroke: #A80036; stroke-width: 1.0;"/><text fill="#000000" font-family="Helvetica" font-size="13" lengthAdjust="spacingAndGlyphs" textLength="282" x="2467.23" y="554.02">LiveSpec Core is one peer among N plugins.</text><text fill="#000000" font-family="Helvetica" font-size="13" lengthAdjust="spacingAndGlyphs" textLength="298" x="2467.23" y="569.1528">It's not privileged in the marketplace structure;</text><text fill="#000000" font-family="Helvetica" font-size="13" lengthAdjust="spacingAndGlyphs" textLength="334" x="2467.23" y="584.2856">it governs the SPECIFICATION/ surface and publishes</text><text fill="#000000" font-family="Helvetica" font-size="13" lengthAdjust="spacingAndGlyphs" textLength="346" x="2467.23" y="599.4185">the contract that every implementation plugin honors.</text><path d="M1377.23,265.4531 L1377.23,335.9844 L1680.23,335.9844 L1680.23,275.4531 L1670.23,265.4531 L1377.23,265.4531 " fill="#FBFB77" style="stroke: #A80036; stroke-width: 1.0;"/><path d="M1670.23,265.4531 L1670.23,275.4531 L1680.23,275.4531 L1670.23,265.4531 " fill="#FBFB77" style="stroke: #A80036; stroke-width: 1.0;"/><text fill="#000000" font-family="Helvetica" font-size="13" lengthAdjust="spacingAndGlyphs" textLength="282" x="1383.23" y="282.52">Consumer project installs ONE livespec-core</text><text fill="#000000" font-family="Helvetica" font-size="13" lengthAdjust="spacingAndGlyphs" textLength="262" x="1383.23" y="297.6528">plus EXACTLY ONE livespec-impl-* plugin.</text><text fill="#000000" font-family="Helvetica" font-size="13" lengthAdjust="spacingAndGlyphs" textLength="264" x="1383.23" y="312.7856">The choice is recorded in .livespec.jsonc's</text><text fill="#000000" font-family="Helvetica" font-size="13" lengthAdjust="spacingAndGlyphs" textLength="187" x="1383.23" y="327.9185">`implementation.plugin` key.</text><!--MD5=[163df4aecaa5ade084fd5768a57fd033]
link Shared to GMN19--><path d="M1306.45,343.5731 C1322.35,354.9831 1340.84,365.8831 1359.73,371.9531 C1386.66,380.6031 1840.46,379.1531 1868.73,379.9531 C2303.14,392.2531 2417.84,343.9631 2845.73,419.9531 C3020.29,450.9531 3219.55,530.1631 3290.72,559.9231 " fill="none" id="Shared-GMN19" style="stroke: #111111; stroke-width: 1.0; stroke-dasharray: 7.0,7.0;"/><!--MD5=[8c7ccda94f09c6f7eea580de4e5aebe1]
link Consumer to InstallCore--><path d="M702.61,103.0831 C664.88,122.5031 605.13,156.1631 560.73,194.9531 C532.45,219.6631 506.05,254.3031 490.15,276.9331 " fill="none" id="Consumer-&gt;InstallCore" style="stroke: #111111; stroke-width: 1.0;"/><polygon fill="#111111" points="487.11,281.2831,495.529,276.1724,489.962,277.1763,488.9581,271.6092,487.11,281.2831" style="stroke: #111111; stroke-width: 1.0;"/><text fill="#000000" font-family="Helvetica" font-size="13" lengthAdjust="spacingAndGlyphs" textLength="79" x="593.73" y="183.02">installs once</text><!--MD5=[18e91932285c1df302c512d85c5a7683]
link Consumer to InstallImpl--><path d="M775.01,112.6431 C803.93,134.5031 845.32,166.2131 880.73,194.9531 C915.29,223.0031 954.21,256.5731 978.84,278.0731 " fill="none" id="Consumer-&gt;InstallImpl" style="stroke: #111111; stroke-width: 1.0;"/><polygon fill="#111111" points="982.67,281.4231,978.5284,272.4874,978.9062,278.1316,973.262,278.5094,982.67,281.4231" style="stroke: #111111; stroke-width: 1.0;"/><text fill="#000000" font-family="Helvetica" font-size="13" lengthAdjust="spacingAndGlyphs" textLength="95" x="870.73" y="183.02">picks ONE impl</text><!--MD5=[716fea8ee3a283adec0cd226654f5bb8]
link InstallCore to Core--><path d="M458.59,320.5831 C442.57,337.5631 416.32,361.5231 387.73,371.9531 C368.62,378.9231 35.95,365.4131 21.73,379.9531 C-14.025,416.4981 17.8775,463.4606 59.4988,501.7319 C80.3094,520.8675 103.5497,537.8303 121.9773,550.2317 C131.1912,556.4324 139.2018,561.4928 145.104,565.1142 C145.8418,565.5669 146.5467,565.9971 147.2168,566.4042 C147.3843,566.506 147.5497,566.6063 147.7128,566.7052 " fill="none" id="InstallCore-&gt;Core" style="stroke: #111111; stroke-width: 1.0; stroke-dasharray: 7.0,7.0;"/><polygon fill="#111111" points="147.7128,566.7052,142.0894,558.6196,143.4369,564.1136,137.9429,565.4612,147.7128,566.7052" style="stroke: #111111; stroke-width: 1.0;"/><text fill="#000000" font-family="Helvetica" font-size="13" lengthAdjust="spacingAndGlyphs" textLength="121" x="22.73" y="400.52">marketplace install</text><!--MD5=[fb0bc230ed615eea325661de5750c971]
link InstallImpl to ImplPlain--><path d="M993.86,320.5231 C978.92,346.4231 947.91,392.4231 906.73,411.9531 C885.43,422.0531 712.11,404.0231 694.73,419.9531 C670.105,442.5231 665.1175,479.5756 666.4025,511.3869 C666.5631,515.3633 666.8218,519.2578 667.1523,523.0319 C667.3176,524.9189 667.5008,526.7759 667.6988,528.5979 " fill="none" id="InstallImpl-&gt;ImplPlain" style="stroke: #111111; stroke-width: 1.0; stroke-dasharray: 7.0,7.0;"/><polygon fill="#111111" points="667.6988,528.5979,670.7033,519.2185,667.1587,523.6272,662.7501,520.0826,667.6988,528.5979" style="stroke: #111111; stroke-width: 1.0;"/><text fill="#000000" font-family="Helvetica" font-size="13" lengthAdjust="spacingAndGlyphs" textLength="18" x="949.73" y="400.52">OR</text><!--MD5=[78fe76fc0f72bb67e925f3caaff01846]
link InstallImpl to ImplBeads--><path d="M1035.21,320.5031 C1065.47,337.2931 1113.09,361.0231 1157.73,371.9531 C1189.94,379.8431 1276.25,366.9031 1306.73,379.9531 C1325.81,388.1131 1321.98,403.0631 1340.73,411.9531 C1353.08,417.8131 1392.58,409.7931 1401.73,419.9531 C1412.825,432.2681 1418.7013,447.6969 1421.2555,463.9611 C1422.5326,472.0932 1422.9792,480.4342 1422.8324,488.6992 C1422.759,492.8318 1422.5372,496.9453 1422.1967,501.0043 C1422.0265,503.0338 1421.8266,505.0496 1421.6007,507.0474 C1421.4877,508.0462 1421.3683,509.0406 1421.2428,510.0299 C1421.2114,510.2772 1421.1797,510.5242 1421.1476,510.7709 " fill="none" id="InstallImpl-&gt;ImplBeads" style="stroke: #111111; stroke-width: 1.0; stroke-dasharray: 7.0,7.0;"/><polygon fill="#111111" points="1421.1476,510.7709,1426.276,502.3626,1421.7931,505.8127,1418.343,501.3298,1421.1476,510.7709" style="stroke: #111111; stroke-width: 1.0;"/><text fill="#000000" font-family="Helvetica" font-size="13" lengthAdjust="spacingAndGlyphs" textLength="18" x="1341.73" y="400.52">OR</text><!--MD5=[8e2097967dacaaad34f67c5c4e98327d]
link InstallImpl to ImplGitLab--><path d="M1034.85,320.6131 C1065.06,337.6031 1112.8,361.5831 1157.73,371.9531 C1221.41,386.6531 1387.01,370.8431 1451.73,379.9531 C1508.09,387.8931 1519.39,403.8931 1575.73,411.9531 C1589.6,413.9331 1816.36,411.7631 1827.73,419.9531 C1842.065,430.2781 1852.7363,444.6962 1860.6788,460.5677 C1864.65,468.5034 1867.9391,476.8024 1870.6628,485.1347 C1872.0247,489.3009 1873.2452,493.4754 1874.3391,497.617 C1874.6125,498.6524 1874.8781,499.6858 1875.1359,500.7164 C1875.2648,501.2318 1875.3918,501.7464 1875.5169,502.2603 C1875.5795,502.5172 1875.6416,502.774 1875.7032,503.0306 " fill="none" id="InstallImpl-&gt;ImplGitLab" style="stroke: #111111; stroke-width: 1.0; stroke-dasharray: 7.0,7.0;"/><polygon fill="#111111" points="1875.7032,503.0306,1877.4911,493.3453,1874.5357,498.1688,1869.7122,495.2133,1875.7032,503.0306" style="stroke: #111111; stroke-width: 1.0;"/><text fill="#000000" font-family="Helvetica" font-size="13" lengthAdjust="spacingAndGlyphs" textLength="18" x="1576.73" y="400.52">OR</text><!--MD5=[a7ab84ecfed5f06fcfdd644cc63ec06d]
link InstallImpl to ImplOthers--><path d="M1042.62,320.5431 C1070.16,334.7131 1107.13,355.8631 1135.73,379.9531 C1192.76,427.9931 1242.48,500.8631 1267.84,541.4531 " fill="none" id="InstallImpl-&gt;ImplOthers" style="stroke: #111111; stroke-width: 1.0; stroke-dasharray: 7.0,7.0;"/><polygon fill="#111111" points="1270.51,545.7631,1269.1468,536.0091,1267.8664,541.5191,1262.3564,540.2388,1270.51,545.7631" style="stroke: #111111; stroke-width: 1.0;"/><!--MD5=[e5211120e6c56b45eb86bfd90c541346]
link Shared to Core--><path d="M1194.05,343.4731 C1172.8,354.9631 1148.52,365.9231 1124.73,371.9531 C1067.96,386.3431 653.18,361.1131 597.73,379.9531 C575.17,387.6131 577.26,404.2231 554.73,411.9531 C534.76,418.8031 190.41,405.8131 174.73,419.9531 C149.92,442.3131 144.93,479.3631 146.26,511.2256 C146.4262,515.2084 146.6913,519.1102 147.0286,522.8921 C147.1973,524.783 147.3841,526.644 147.5857,528.4701 C147.6109,528.6984 147.6363,528.9261 147.662,529.1533 " fill="none" id="Shared-&gt;Core" style="stroke: #111111; stroke-width: 1.0; stroke-dasharray: 7.0,7.0;"/><polygon fill="#111111" points="147.662,529.1533,150.6268,519.7613,147.1009,524.1849,142.6773,520.659,147.662,529.1533" style="stroke: #111111; stroke-width: 1.0;"/><text fill="#000000" font-family="Helvetica" font-size="13" lengthAdjust="spacingAndGlyphs" textLength="45" x="598.73" y="400.52">synced</text><!--MD5=[3c79f14057fb266bc58d5d39f50772b7]
link Shared to ImplPlain--><path d="M1186,343.6031 C1166.49,353.7531 1145.14,363.9731 1124.73,371.9531 C1061.27,396.7631 1044.14,402.0331 976.73,411.9531 C961.22,414.2331 706.33,409.4131 694.73,419.9531 C670,442.4031 665.01,479.4556 666.32,511.2969 C666.4837,515.277 666.7459,519.1758 667.0803,522.9544 C667.2475,524.8437 667.4327,526.7029 667.6327,528.5273 C667.6577,528.7554 667.683,528.9829 667.7084,529.2099 " fill="none" id="Shared-&gt;ImplPlain" style="stroke: #111111; stroke-width: 1.0; stroke-dasharray: 7.0,7.0;"/><polygon fill="#111111" points="667.7084,529.2099,670.6803,519.8201,667.1511,524.241,662.7302,520.7118,667.7084,529.2099" style="stroke: #111111; stroke-width: 1.0;"/><text fill="#000000" font-family="Helvetica" font-size="13" lengthAdjust="spacingAndGlyphs" textLength="45" x="1104.73" y="400.52">synced</text><!--MD5=[f62fb5c5fa4319f90721d6baca769119]
link Shared to ImplBeads--><path d="M1320.65,343.6931 C1355.64,368.9431 1393.94,400.0131 1401.73,419.9531 C1407.765,435.3906 1411.0719,452.405 1412.6278,469.2853 C1413.4058,477.7255 1413.746,486.1321 1413.7707,494.2914 C1413.783,498.371 1413.7164,502.3888 1413.5862,506.318 C1413.5537,507.3003 1413.5171,508.277 1413.4769,509.2479 C1413.4567,509.7333 1413.4357,510.2172 1413.4137,510.6996 C1413.4027,510.9407 1413.3915,511.1816 1413.3801,511.422 " fill="none" id="Shared-&gt;ImplBeads" style="stroke: #111111; stroke-width: 1.0; stroke-dasharray: 7.0,7.0;"/><polygon fill="#111111" points="1413.3801,511.422,1417.8031,502.6222,1413.6176,506.4276,1409.8122,502.2421,1413.3801,511.422" style="stroke: #111111; stroke-width: 1.0;"/><text fill="#000000" font-family="Helvetica" font-size="13" lengthAdjust="spacingAndGlyphs" textLength="45" x="1397.73" y="400.52">synced</text><!--MD5=[aec85ed0499d2e7205d0c1d91bc3ec2e]
link Shared to ImplGitLab--><path d="M1306.77,343.5531 C1322.61,354.9031 1340.99,365.7531 1359.73,371.9531 C1385.48,380.4731 1576.75,377.1131 1603.73,379.9531 C1704.31,390.5231 1750.17,355.0531 1827.73,419.9531 C1841.28,431.2906 1851.5525,446.2231 1859.34,462.2945 C1863.2337,470.3302 1866.5063,478.6507 1869.2566,486.9488 C1870.6317,491.0979 1871.8763,495.2414 1873.0028,499.3409 C1873.566,501.3907 1874.0997,503.4295 1874.6054,505.4525 C1874.8582,506.464 1875.1041,507.4716 1875.3431,508.4746 C1875.4626,508.9761 1875.5804,509.4765 1875.6966,509.9756 " fill="none" id="Shared-&gt;ImplGitLab" style="stroke: #111111; stroke-width: 1.0; stroke-dasharray: 7.0,7.0;"/><polygon fill="#111111" points="1875.6966,509.9756,1877.5529,500.3033,1874.5635,505.1057,1869.761,502.1163,1875.6966,509.9756" style="stroke: #111111; stroke-width: 1.0;"/><text fill="#000000" font-family="Helvetica" font-size="13" lengthAdjust="spacingAndGlyphs" textLength="45" x="1814.73" y="400.52">synced</text><!--MD5=[d03fdae9ec855cdd90bed47c7b1e58d5]
link Shared to ImplOthers--><path d="M1256.83,343.6431 C1256.38,355.3831 1255.96,368.1631 1255.73,379.9531 C1255.46,394.1731 1254.41,397.7931 1255.73,411.9531 C1259.95,457.2231 1270.77,508.7931 1278.19,540.7431 " fill="none" id="Shared-&gt;ImplOthers" style="stroke: #111111; stroke-width: 1.0; stroke-dasharray: 7.0,7.0;"/><polygon fill="#111111" points="1279.35,545.6931,1281.1886,536.0174,1278.208,540.8253,1273.4001,537.8446,1279.35,545.6931" style="stroke: #111111; stroke-width: 1.0;"/><text fill="#000000" font-family="Helvetica" font-size="13" lengthAdjust="spacingAndGlyphs" textLength="45" x="1256.73" y="400.52">synced</text><!--MD5=[5cb6599f385e35662224029970035d98]
link Core to Config--><path d="M147.6669,527.9619 C147.6428,527.7333 147.6189,527.5041 147.5953,527.2744 C147.548,526.8149 147.5018,526.3534 147.4565,525.8898 C147.366,524.9626 147.2795,524.0273 147.1975,523.0845 C146.8696,519.3131 146.6134,515.4211 146.455,511.4469 C145.1875,479.6531 150.175,442.5981 174.73,419.9531 C189.61,406.2331 337.97,419.5631 356.73,411.9531 C376.57,403.9031 372.81,387.8031 392.73,379.9531 C426.96,366.4631 689.49,385.4131 723.73,371.9531 C743.06,364.3531 760.76,349.7631 774.48,335.8531 " fill="none" id="Core-&gt;Config" style="stroke: #111111; stroke-width: 1.0; stroke-dasharray: 7.0,7.0;"/><polygon fill="#111111" points="778.25,331.9631,769.1234,335.6652,774.7793,335.5623,774.8822,341.2183,778.25,331.9631" style="stroke: #111111; stroke-width: 1.0;"/><text fill="#000000" font-family="Helvetica" font-size="13" lengthAdjust="spacingAndGlyphs" textLength="156" x="393.73" y="400.52">reads core schema keys</text><!--MD5=[e245818356937bbf3dd3203df3427426]
link ImplPlain to Config--><path d="M667.9681,502.5279 C667.9776,502.0223 667.9889,501.5158 668.002,501.0084 C668.1065,496.9496 668.3239,492.8361 668.6773,488.7036 C669.384,480.4387 670.6348,472.0977 672.6148,463.9653 C676.575,447.7006 683.4525,432.2706 694.73,419.9531 C706.09,407.5431 717.89,421.5231 731.73,411.9531 C758.28,393.5831 777.22,361.7431 788.83,337.0231 " fill="none" id="ImplPlain-&gt;Config" style="stroke: #111111; stroke-width: 1.0; stroke-dasharray: 7.0,7.0;"/><polygon fill="#111111" points="791.05,332.1831,783.6674,338.7021,788.9692,336.7296,790.9417,342.0314,791.05,332.1831" style="stroke: #111111; stroke-width: 1.0;"/><text fill="#000000" font-family="Helvetica" font-size="13" lengthAdjust="spacingAndGlyphs" textLength="134" x="763.73" y="393.02">reads its own section</text><text fill="#000000" font-family="Helvetica" font-size="13" lengthAdjust="spacingAndGlyphs" textLength="115" x="773.23" y="408.1528">(only when active)</text><!--MD5=[70e63a78f141e9b6fda057ce672167bb]
link Core to SpecTree--><path d="M147.7188,529.4885 C147.4396,527.3427 147.1724,525.1408 146.9213,522.8894 C145.917,513.8835 145.1709,504.0841 144.9513,493.9044 C144.0725,453.1856 151.615,406.3831 184.73,379.9531 C201.06,366.9231 541.2,379.3931 560.73,371.9531 C580.72,364.3331 599.21,349.5631 613.55,335.5431 " fill="none" id="Core-&gt;SpecTree" style="stroke: #111111; stroke-width: 1.0; stroke-dasharray: 7.0,7.0;"/><polygon fill="#111111" points="617.11,332.0031,607.9105,335.5201,613.5673,335.5315,613.5559,341.1884,617.11,332.0031" style="stroke: #111111; stroke-width: 1.0;"/><text fill="#000000" font-family="Helvetica" font-size="13" lengthAdjust="spacingAndGlyphs" textLength="166" x="185.73" y="400.52">governs (writes via revise)</text><!--MD5=[efca68eac4913d18c5731b0e808b912a]
link ImplPlain to SpecTree--><path d="M667.6808,505.736 C667.3381,502.9378 666.9889,500.0852 666.6338,497.1855 C665.9237,491.386 665.1905,485.398 664.4413,479.2794 C658.4475,430.3306 651.43,373.0281 647.03,337.1031 " fill="none" id="ImplPlain-&gt;SpecTree" style="stroke: #111111; stroke-width: 1.0; stroke-dasharray: 7.0,7.0;"/><polygon fill="#111111" points="646.42,332.0831,643.5572,341.5067,647.0349,337.0452,651.4964,340.5229,646.42,332.0831" style="stroke: #111111; stroke-width: 1.0;"/><text fill="#000000" font-family="Helvetica" font-size="13" lengthAdjust="spacingAndGlyphs" textLength="66" x="656.73" y="400.52">reads only</text><!--MD5=[00935e7aeacc98500b53ec0218c2961a]
link Core to GMN45--><path d="M147.7068,516.1177 C147.6903,515.8347 147.6742,515.5512 147.6584,515.2671 C147.5322,512.9947 147.4289,510.6887 147.3526,508.3561 C147.1999,503.6909 147.1548,498.9189 147.2488,494.0944 C148,455.4981 157.645,413.5381 192.23,395.9531 C246.58,368.3231 2328.99,377.9131 2387.23,395.9531 C2476.28,423.5431 2561.91,493.7331 2608.51,536.8231 " fill="none" id="Core-GMN45" style="stroke: #111111; stroke-width: 1.0; stroke-dasharray: 7.0,7.0;"/><!--MD5=[7c336be18c0e539bff60e4f7d8c31caf]
link ConsumerRepo to GMN48--><path d="M116.0613,210.9194 C116.1295,210.7016 116.1982,210.484 116.2676,210.2668 C116.4064,209.8322 116.5476,209.3988 116.6913,208.9665 C117.8409,205.5085 119.1498,202.1257 120.6369,198.8559 C126.585,185.7769 135.3825,174.5056 148.23,167.4531 C206.38,135.5331 1279.07,147.1731 1342.23,167.4531 C1401.94,186.6231 1458.77,232.7331 1493.67,265.3831 " fill="none" id="ConsumerRepo-GMN48" style="stroke: #111111; stroke-width: 1.0; stroke-dasharray: 7.0,7.0;"/><!--MD5=[31d3e388e716b19ba0c41cb629547ccb]
@startuml multi-repo-layout
title Multi-Repo Plugin Distribution
skinparam defaultFontName Helvetica
skinparam shadowing false
skinparam BackgroundColor white
skinparam ArrowColor #111
skinparam rectangle {
  BorderColor #111
  BackgroundColor white
  FontColor #111
}
skinparam database {
  BorderColor #111
  BackgroundColor white
  FontColor #111
}
skinparam card {
  BorderColor #111
  BackgroundColor white
  FontColor #111
}
skinparam actor {
  BorderColor #111
  BackgroundColor white
  FontColor #111
}

package "Plugin source repos (each a separate GitHub repo)" {
  rectangle "livespec-core" as Core #LightYellow {
    card "/livespec:* skills" as CoreSkills
    rectangle "publishes:\n• SPECIFICATION/ shape contract\n• .livespec.jsonc core schema\n• impl-plugin contract\n• .ai/<topic>.md convention" as CoreContract #Lavender
  }
  rectangle "livespec-impl-plaintext" as ImplPlain #LightYellow {
    card "/livespec-impl-plaintext:* skills" as PlainSkills
    rectangle "JSONL / md / html / yaml\nbackend" as PlainBackend #FFFFFF;line.dashed
  }
  rectangle "livespec-impl-beads" as ImplBeads #LightYellow {
    card "/livespec-impl-beads:* skills" as BeadsSkills
    rectangle "wraps bd / Dolt" as BeadsBackend #FFFFFF;line.dashed
  }
  rectangle "livespec-impl-gitlab" as ImplGitLab #LightYellow {
    card "/livespec-impl-gitlab:* skills" as GitLabSkills
    rectangle "wraps GitLab API\n(creds outside .livespec.jsonc)" as GitLabBackend #FFFFFF;line.dashed
  }
  rectangle "livespec-impl-gascity,\nlivespec-impl-kilroy, ..." as ImplOthers #LightYellow
}

rectangle "shared content\n(NFR, CI conventions,\nTDD rules, lefthook,\njustfile recipes)" as Shared #Lavender
note bottom of Shared : Mechanical sync (subtree / generator / pinned package). Mechanism TBD; the existence of shared content survives the multi-repo decision.

actor "Consumer\nproject\nmaintainer" as Consumer
rectangle "Consumer project\nrepository" as ConsumerRepo {
  card "/plugin install\nlivespec-core@..." as InstallCore
  card "/plugin install\nlivespec-impl-<choice>@..." as InstallImpl
  database "consumer's\n.livespec.jsonc" as Config
  database "consumer's\nSPECIFICATION/" as SpecTree
  rectangle ".ai/<topic>.md\n(persistent agent knowledge)" as AiTree #Lavender
}

Consumer - -> InstallCore : installs once
Consumer - -> InstallImpl : picks ONE impl
InstallCore ..> Core : marketplace install
InstallImpl ..> ImplPlain : OR
InstallImpl ..> ImplBeads : OR
InstallImpl ..> ImplGitLab : OR
InstallImpl ..> ImplOthers

Shared ..> Core : synced
Shared ..> ImplPlain : synced
Shared ..> ImplBeads : synced
Shared ..> ImplGitLab : synced
Shared ..> ImplOthers : synced

Core ..> Config : reads core schema keys
ImplPlain ..> Config : reads its own section\n(only when active)
Core ..> SpecTree : governs (writes via revise)
ImplPlain ..> SpecTree : reads only

note right of Core : LiveSpec Core is one peer among N plugins.\nIt's not privileged in the marketplace structure;\nit governs the SPECIFICATION/ surface and publishes\nthe contract that every implementation plugin honors.

note right of ConsumerRepo : Consumer project installs ONE livespec-core\nplus EXACTLY ONE livespec-impl-* plugin.\nThe choice is recorded in .livespec.jsonc's\n`implementation.plugin` key.

@enduml

PlantUML version 1.2020.02(Sun Mar 01 11:22:07 CET 2020)
(GPL source distribution)
Java Runtime: OpenJDK Runtime Environment
JVM: OpenJDK 64-Bit Server VM
Java Version: 21.0.10+7-Ubuntu-125.10
Operating System: Linux
Default Encoding: UTF-8
Language: en
Country: null
--></g></svg>