<?xml version="1.0" encoding="UTF-8" standalone="no"?><svg xmlns="http://www.w3.org/2000/svg" xmlns:xlink="http://www.w3.org/1999/xlink" contentScriptType="application/ecmascript" contentStyleType="text/css" height="1688px" preserveAspectRatio="none" style="width:1648px;height:1688px;" version="1.1" viewBox="0 0 1648 1688" width="1648px" zoomAndPan="magnify"><defs/><g><text fill="#000000" font-family="Helvetica" font-size="18" lengthAdjust="spacingAndGlyphs" textLength="469" x="590" y="26.708">Sequence — /livespec:revise (selective per-proposal)</text><rect fill="#FFFFFF" height="1155.9219" style="stroke: #444444; stroke-width: 1.0;" width="10" x="609" y="177.5156"/><rect fill="#FFFFFF" height="1148.9219" style="stroke: #000000; stroke-width: 2.0;" width="1623" x="13" y="309.0469"/><rect fill="#FFFFFF" height="1073.5234" style="stroke: none; stroke-width: 1.0;" width="1623" x="13" y="384.4453"/><rect fill="#FFFFFF" height="345.5313" style="stroke: #000000; stroke-width: 2.0;" width="596" x="23" y="580.0469"/><rect fill="#FFFFFF" height="147.4688" style="stroke: #000000; stroke-width: 2.0;" width="500" x="33" y="690.5781"/><rect fill="#FFFFFF" height="101.2031" style="stroke: none; stroke-width: 1.0;" width="500" x="33" y="736.8438"/><rect fill="#FFFFFF" height="75.3984" style="stroke: #000000; stroke-width: 2.0;" width="651.5" x="33" y="1229.9063"/><line style="stroke: #444444; stroke-width: 1.0; stroke-dasharray: 5.0,5.0;" x1="88" x2="88" y1="117.25" y2="1600.8984"/><line style="stroke: #444444; stroke-width: 1.0; stroke-dasharray: 5.0,5.0;" x1="322.5" x2="322.5" y1="117.25" y2="1600.8984"/><line style="stroke: #444444; stroke-width: 1.0; stroke-dasharray: 5.0,5.0;" x1="613.5" x2="613.5" y1="117.25" y2="1600.8984"/><line style="stroke: #444444; stroke-width: 1.0; stroke-dasharray: 5.0,5.0;" x1="826.5" x2="826.5" y1="117.25" y2="1600.8984"/><line style="stroke: #444444; stroke-width: 1.0; stroke-dasharray: 5.0,5.0;" x1="975.5" x2="975.5" y1="117.25" y2="1600.8984"/><line style="stroke: #444444; stroke-width: 1.0; stroke-dasharray: 5.0,5.0;" x1="1123.5" x2="1123.5" y1="117.25" y2="1600.8984"/><line style="stroke: #444444; stroke-width: 1.0; stroke-dasharray: 5.0,5.0;" x1="1226.5" x2="1226.5" y1="117.25" y2="1600.8984"/><line style="stroke: #444444; stroke-width: 1.0; stroke-dasharray: 5.0,5.0;" x1="1382" x2="1382" y1="117.25" y2="1600.8984"/><line style="stroke: #444444; stroke-width: 1.0; stroke-dasharray: 5.0,5.0;" x1="1542" x2="1542" y1="117.25" y2="1600.8984"/><text fill="#111111" font-family="Helvetica" font-size="14" lengthAdjust="spacingAndGlyphs" textLength="84" x="43" y="113.9482">Human user</text><ellipse cx="88" cy="47.9531" fill="#FFFFFF" rx="8" ry="8" style="stroke: #111111; stroke-width: 2.0;"/><path d="M88,55.9531 L88,82.9531 M75,63.9531 L101,63.9531 M88,82.9531 L75,97.9531 M88,82.9531 L101,97.9531 " fill="none" style="stroke: #111111; stroke-width: 2.0;"/><text fill="#111111" font-family="Helvetica" font-size="14" lengthAdjust="spacingAndGlyphs" textLength="84" x="43" y="1612.8936">Human user</text><ellipse cx="88" cy="1626.1953" fill="#FFFFFF" rx="8" ry="8" style="stroke: #111111; stroke-width: 2.0;"/><path d="M88,1634.1953 L88,1661.1953 M75,1642.1953 L101,1642.1953 M88,1661.1953 L75,1676.1953 M88,1661.1953 L101,1676.1953 " fill="none" style="stroke: #111111; stroke-width: 2.0;"/><text fill="#111111" font-family="Helvetica" font-size="14" lengthAdjust="spacingAndGlyphs" textLength="41" x="299.5" y="113.9482">Agent</text><ellipse cx="323" cy="47.9531" fill="#87CEFA" rx="8" ry="8" style="stroke: #111111; stroke-width: 2.0;"/><path d="M323,55.9531 L323,82.9531 M310,63.9531 L336,63.9531 M323,82.9531 L310,97.9531 M323,82.9531 L336,97.9531 " fill="none" style="stroke: #111111; stroke-width: 2.0;"/><text fill="#111111" font-family="Helvetica" font-size="14" lengthAdjust="spacingAndGlyphs" textLength="41" x="299.5" y="1612.8936">Agent</text><ellipse cx="323" cy="1626.1953" fill="#87CEFA" rx="8" ry="8" style="stroke: #111111; stroke-width: 2.0;"/><path d="M323,1634.1953 L323,1661.1953 M310,1642.1953 L336,1642.1953 M323,1661.1953 L310,1676.1953 M323,1661.1953 L336,1676.1953 " fill="none" style="stroke: #111111; stroke-width: 2.0;"/><rect fill="#FFFFE0" height="30.2969" style="stroke: #111111; stroke-width: 1.5;" width="121" x="553.5" y="85.9531"/><text fill="#111111" font-family="Helvetica" font-size="14" lengthAdjust="spacingAndGlyphs" textLength="107" x="560.5" y="105.9482">/livespec:revise</text><rect fill="#FFFFE0" height="30.2969" style="stroke: #111111; stroke-width: 1.5;" width="121" x="553.5" y="1599.8984"/><text fill="#111111" font-family="Helvetica" font-size="14" lengthAdjust="spacingAndGlyphs" textLength="107" x="560.5" y="1619.8936">/livespec:revise</text><rect fill="#FFFFE0" height="46.5938" style="stroke: #111111; stroke-width: 1.5;" width="125" x="764.5" y="69.6563"/><text fill="#111111" font-family="Helvetica" font-size="14" lengthAdjust="spacingAndGlyphs" textLength="111" x="771.5" y="89.6514">/livespec:doctor</text><text fill="#111111" font-family="Helvetica" font-size="14" lengthAdjust="spacingAndGlyphs" textLength="110" x="772" y="105.9482">(pre-step static)</text><rect fill="#FFFFE0" height="46.5938" style="stroke: #111111; stroke-width: 1.5;" width="125" x="764.5" y="1599.8984"/><text fill="#111111" font-family="Helvetica" font-size="14" lengthAdjust="spacingAndGlyphs" textLength="111" x="771.5" y="1619.8936">/livespec:doctor</text><text fill="#111111" font-family="Helvetica" font-size="14" lengthAdjust="spacingAndGlyphs" textLength="110" x="772" y="1636.1904">(pre-step static)</text><rect fill="#FFFFFF" height="30.2969" style="stroke: #111111; stroke-width: 1.5;" width="153" x="899.5" y="85.9531"/><text fill="#111111" font-family="Helvetica" font-size="14" lengthAdjust="spacingAndGlyphs" textLength="139" x="906.5" y="105.9482">proposed_changes/</text><rect fill="#FFFFFF" height="30.2969" style="stroke: #111111; stroke-width: 1.5;" width="153" x="899.5" y="1599.8984"/><text fill="#111111" font-family="Helvetica" font-size="14" lengthAdjust="spacingAndGlyphs" textLength="139" x="906.5" y="1619.8936">proposed_changes/</text><rect fill="#FFFFFF" height="30.2969" style="stroke: #111111; stroke-width: 1.5;" width="122" x="1062.5" y="85.9531"/><text fill="#111111" font-family="Helvetica" font-size="14" lengthAdjust="spacingAndGlyphs" textLength="108" x="1069.5" y="105.9482">SPECIFICATION/</text><rect fill="#FFFFFF" height="30.2969" style="stroke: #111111; stroke-width: 1.5;" width="122" x="1062.5" y="1599.8984"/><text fill="#111111" font-family="Helvetica" font-size="14" lengthAdjust="spacingAndGlyphs" textLength="108" x="1069.5" y="1619.8936">SPECIFICATION/</text><rect fill="#FFFFFF" height="30.2969" style="stroke: #111111; stroke-width: 1.5;" width="65" x="1194.5" y="85.9531"/><text fill="#111111" font-family="Helvetica" font-size="14" lengthAdjust="spacingAndGlyphs" textLength="51" x="1201.5" y="105.9482">history/</text><rect fill="#FFFFFF" height="30.2969" style="stroke: #111111; stroke-width: 1.5;" width="65" x="1194.5" y="1599.8984"/><text fill="#111111" font-family="Helvetica" font-size="14" lengthAdjust="spacingAndGlyphs" textLength="51" x="1201.5" y="1619.8936">history/</text><rect fill="#FFFFE0" height="46.5938" style="stroke: #111111; stroke-width: 1.5;" width="132" x="1316" y="69.6563"/><text fill="#111111" font-family="Helvetica" font-size="14" lengthAdjust="spacingAndGlyphs" textLength="111" x="1326.5" y="89.6514">/livespec:doctor</text><text fill="#111111" font-family="Helvetica" font-size="14" lengthAdjust="spacingAndGlyphs" textLength="118" x="1323" y="105.9482">(post-step static)</text><rect fill="#FFFFE0" height="46.5938" style="stroke: #111111; stroke-width: 1.5;" width="132" x="1316" y="1599.8984"/><text fill="#111111" font-family="Helvetica" font-size="14" lengthAdjust="spacingAndGlyphs" textLength="111" x="1326.5" y="1619.8936">/livespec:doctor</text><text fill="#111111" font-family="Helvetica" font-size="14" lengthAdjust="spacingAndGlyphs" textLength="118" x="1323" y="1636.1904">(post-step static)</text><rect fill="#FFFFE0" height="46.5938" style="stroke: #111111; stroke-width: 1.5;" width="168" x="1458" y="69.6563"/><text fill="#111111" font-family="Helvetica" font-size="14" lengthAdjust="spacingAndGlyphs" textLength="111" x="1486.5" y="89.6514">/livespec:doctor</text><text fill="#111111" font-family="Helvetica" font-size="14" lengthAdjust="spacingAndGlyphs" textLength="154" x="1465" y="105.9482">(post-step LLM-driven)</text><rect fill="#FFFFE0" height="46.5938" style="stroke: #111111; stroke-width: 1.5;" width="168" x="1458" y="1599.8984"/><text fill="#111111" font-family="Helvetica" font-size="14" lengthAdjust="spacingAndGlyphs" textLength="111" x="1486.5" y="1619.8936">/livespec:doctor</text><text fill="#111111" font-family="Helvetica" font-size="14" lengthAdjust="spacingAndGlyphs" textLength="154" x="1465" y="1636.1904">(post-step LLM-driven)</text><rect fill="#FFFFFF" height="1155.9219" style="stroke: #444444; stroke-width: 1.0;" width="10" x="609" y="177.5156"/><polygon fill="#111111" points="311,144.3828,321,148.3828,311,152.3828,315,148.3828" style="stroke: #111111; stroke-width: 1.0;"/><line style="stroke: #111111; stroke-width: 1.0;" x1="88" x2="317" y1="148.3828" y2="148.3828"/><text fill="#000000" font-family="Helvetica" font-size="13" lengthAdjust="spacingAndGlyphs" textLength="73" x="95" y="143.3169">"run revise"</text><polygon fill="#111111" points="597,173.5156,607,177.5156,597,181.5156,601,177.5156" style="stroke: #111111; stroke-width: 1.0;"/><line style="stroke: #111111; stroke-width: 1.0;" x1="323" x2="603" y1="177.5156" y2="177.5156"/><text fill="#000000" font-family="Helvetica" font-size="13" lengthAdjust="spacingAndGlyphs" textLength="41" x="330" y="172.4497">invoke</text><polygon fill="#111111" points="815,202.6484,825,206.6484,815,210.6484,819,206.6484" style="stroke: #111111; stroke-width: 1.0;"/><line style="stroke: #111111; stroke-width: 1.0;" x1="619" x2="821" y1="206.6484" y2="206.6484"/><text fill="#000000" font-family="Helvetica" font-size="13" lengthAdjust="spacingAndGlyphs" textLength="141" x="626" y="201.5825">pre-step static checks</text><polygon fill="#111111" points="1111.5,231.7813,1121.5,235.7813,1111.5,239.7813,1115.5,235.7813" style="stroke: #111111; stroke-width: 1.0;"/><line style="stroke: #111111; stroke-width: 1.0;" x1="827" x2="1117.5" y1="235.7813" y2="235.7813"/><text fill="#000000" font-family="Helvetica" font-size="13" lengthAdjust="spacingAndGlyphs" textLength="62" x="834" y="230.7153">invariants</text><polygon fill="#111111" points="964,260.9141,974,264.9141,964,268.9141,968,264.9141" style="stroke: #111111; stroke-width: 1.0;"/><line style="stroke: #111111; stroke-width: 1.0;" x1="827" x2="970" y1="264.9141" y2="264.9141"/><text fill="#000000" font-family="Helvetica" font-size="13" lengthAdjust="spacingAndGlyphs" textLength="62" x="834" y="259.8481">invariants</text><polygon fill="#111111" points="630,290.0469,620,294.0469,630,298.0469,626,294.0469" style="stroke: #111111; stroke-width: 1.0;"/><line style="stroke: #111111; stroke-width: 1.0; stroke-dasharray: 2.0,2.0;" x1="624" x2="826" y1="294.0469" y2="294.0469"/><text fill="#000000" font-family="Helvetica" font-size="13" lengthAdjust="spacingAndGlyphs" textLength="123" x="636" y="288.981">findings (pass / fail)</text><path d="M13,309.0469 L77,309.0469 L77,316.0469 L67,326.0469 L13,326.0469 L13,309.0469 " fill="#EEEEEE" style="stroke: #000000; stroke-width: 1.0;"/><rect fill="none" height="1148.9219" style="stroke: #000000; stroke-width: 2.0;" width="1623" x="13" y="309.0469"/><text fill="#000000" font-family="Helvetica" font-size="13" font-weight="bold" lengthAdjust="spacingAndGlyphs" textLength="19" x="28" y="322.1138">alt</text><text fill="#000000" font-family="Helvetica" font-size="11" font-weight="bold" lengthAdjust="spacingAndGlyphs" textLength="96" x="92" y="321.2573">[pre-step fails]</text><polygon fill="#111111" points="334,343.3125,324,347.3125,334,351.3125,330,347.3125" style="stroke: #111111; stroke-width: 1.0;"/><line style="stroke: #111111; stroke-width: 1.0; stroke-dasharray: 2.0,2.0;" x1="328" x2="608" y1="347.3125" y2="347.3125"/><text fill="#000000" font-family="Helvetica" font-size="13" lengthAdjust="spacingAndGlyphs" textLength="139" x="340" y="342.2466">surface failures; abort</text><polygon fill="#111111" points="99,372.4453,89,376.4453,99,380.4453,95,376.4453" style="stroke: #111111; stroke-width: 1.0;"/><line style="stroke: #111111; stroke-width: 1.0; stroke-dasharray: 2.0,2.0;" x1="93" x2="322" y1="376.4453" y2="376.4453"/><text fill="#000000" font-family="Helvetica" font-size="13" lengthAdjust="spacingAndGlyphs" textLength="144" x="105" y="371.3794">report; do not proceed</text><line style="stroke: #000000; stroke-width: 1.0; stroke-dasharray: 2.0,2.0;" x1="13" x2="1636" y1="385.4453" y2="385.4453"/><text fill="#000000" font-family="Helvetica" font-size="11" font-weight="bold" lengthAdjust="spacingAndGlyphs" textLength="113" x="18" y="395.6558">[pre-step passes]</text><polygon fill="#111111" points="964,431.5156,974,435.5156,964,439.5156,968,435.5156" style="stroke: #111111; stroke-width: 1.0;"/><line style="stroke: #111111; stroke-width: 1.0;" x1="619" x2="970" y1="435.5156" y2="435.5156"/><text fill="#000000" font-family="Helvetica" font-size="13" lengthAdjust="spacingAndGlyphs" textLength="263" x="626" y="415.3169">enumerate pending propose-change files</text><text fill="#000000" font-family="Helvetica" font-size="13" lengthAdjust="spacingAndGlyphs" textLength="241" x="626" y="430.4497">(skip README.md, skip *-revision.md)</text><polygon fill="#111111" points="630,460.6484,620,464.6484,630,468.6484,626,464.6484" style="stroke: #111111; stroke-width: 1.0;"/><line style="stroke: #111111; stroke-width: 1.0; stroke-dasharray: 2.0,2.0;" x1="624" x2="975" y1="464.6484" y2="464.6484"/><text fill="#000000" font-family="Helvetica" font-size="13" lengthAdjust="spacingAndGlyphs" textLength="189" x="636" y="459.5825">N files, ordered by created_at</text><polygon fill="#111111" points="334,489.7813,324,493.7813,334,497.7813,330,493.7813" style="stroke: #111111; stroke-width: 1.0;"/><line style="stroke: #111111; stroke-width: 1.0;" x1="328" x2="608" y1="493.7813" y2="493.7813"/><text fill="#000000" font-family="Helvetica" font-size="13" lengthAdjust="spacingAndGlyphs" textLength="145" x="340" y="488.7153">narrate count + oldest</text><line style="stroke: #111111; stroke-width: 1.0;" x1="323" x2="365" y1="522.9141" y2="522.9141"/><line style="stroke: #111111; stroke-width: 1.0;" x1="365" x2="365" y1="522.9141" y2="535.9141"/><line style="stroke: #111111; stroke-width: 1.0;" x1="324" x2="365" y1="535.9141" y2="535.9141"/><polygon fill="#111111" points="334,531.9141,324,535.9141,334,539.9141,330,535.9141" style="stroke: #111111; stroke-width: 1.0;"/><text fill="#000000" font-family="Helvetica" font-size="13" lengthAdjust="spacingAndGlyphs" textLength="200" x="330" y="517.8481">optional steering-intent prompt</text><polygon fill="#111111" points="99,561.0469,89,565.0469,99,569.0469,95,565.0469" style="stroke: #111111; stroke-width: 1.0;"/><line style="stroke: #111111; stroke-width: 1.0;" x1="93" x2="322" y1="565.0469" y2="565.0469"/><text fill="#000000" font-family="Helvetica" font-size="13" lengthAdjust="spacingAndGlyphs" textLength="211" x="105" y="559.981">capture steering intent (optional)</text><path d="M23,580.0469 L100,580.0469 L100,587.0469 L90,597.0469 L23,597.0469 L23,580.0469 " fill="#EEEEEE" style="stroke: #000000; stroke-width: 1.0;"/><rect fill="none" height="345.5313" style="stroke: #000000; stroke-width: 2.0;" width="596" x="23" y="580.0469"/><text fill="#000000" font-family="Helvetica" font-size="13" font-weight="bold" lengthAdjust="spacingAndGlyphs" textLength="32" x="38" y="593.1138">loop</text><text fill="#000000" font-family="Helvetica" font-size="11" font-weight="bold" lengthAdjust="spacingAndGlyphs" textLength="179" x="115" y="592.2573">[for each pending proposal]</text><line style="stroke: #111111; stroke-width: 1.0;" x1="323" x2="365" y1="633.4453" y2="633.4453"/><line style="stroke: #111111; stroke-width: 1.0;" x1="365" x2="365" y1="633.4453" y2="646.4453"/><line style="stroke: #111111; stroke-width: 1.0;" x1="324" x2="365" y1="646.4453" y2="646.4453"/><polygon fill="#111111" points="334,642.4453,324,646.4453,334,650.4453,330,646.4453" style="stroke: #111111; stroke-width: 1.0;"/><text fill="#000000" font-family="Helvetica" font-size="13" lengthAdjust="spacingAndGlyphs" textLength="277" x="330" y="613.2466">LLM drafts decision (accept / modify / reject</text><text fill="#000000" font-family="Helvetica" font-size="13" lengthAdjust="spacingAndGlyphs" textLength="182" x="330" y="628.3794">+ rationale + resulting_files)</text><polygon fill="#111111" points="99,671.5781,89,675.5781,99,679.5781,95,675.5781" style="stroke: #111111; stroke-width: 1.0;"/><line style="stroke: #111111; stroke-width: 1.0;" x1="93" x2="322" y1="675.5781" y2="675.5781"/><text fill="#000000" font-family="Helvetica" font-size="13" lengthAdjust="spacingAndGlyphs" textLength="210" x="105" y="670.5122">present decision for confirmation</text><path d="M33,690.5781 L97,690.5781 L97,697.5781 L87,707.5781 L33,707.5781 L33,690.5781 " fill="#EEEEEE" style="stroke: #000000; stroke-width: 1.0;"/><rect fill="none" height="147.4688" style="stroke: #000000; stroke-width: 2.0;" width="500" x="33" y="690.5781"/><text fill="#000000" font-family="Helvetica" font-size="13" font-weight="bold" lengthAdjust="spacingAndGlyphs" textLength="19" x="48" y="703.645">alt</text><text fill="#000000" font-family="Helvetica" font-size="11" font-weight="bold" lengthAdjust="spacingAndGlyphs" textLength="97" x="112" y="702.7886">[user confirms]</text><polygon fill="#111111" points="311,724.8438,321,728.8438,311,732.8438,315,728.8438" style="stroke: #111111; stroke-width: 1.0;"/><line style="stroke: #111111; stroke-width: 1.0; stroke-dasharray: 2.0,2.0;" x1="88" x2="317" y1="728.8438" y2="728.8438"/><text fill="#000000" font-family="Helvetica" font-size="13" lengthAdjust="spacingAndGlyphs" textLength="52" x="95" y="723.7778">approve</text><line style="stroke: #000000; stroke-width: 1.0; stroke-dasharray: 2.0,2.0;" x1="33" x2="533" y1="737.8438" y2="737.8438"/><text fill="#000000" font-family="Helvetica" font-size="11" font-weight="bold" lengthAdjust="spacingAndGlyphs" textLength="145" x="38" y="748.0542">[user requests modify]</text><polygon fill="#111111" points="311,768.7813,321,772.7813,311,776.7813,315,772.7813" style="stroke: #111111; stroke-width: 1.0;"/><line style="stroke: #111111; stroke-width: 1.0; stroke-dasharray: 2.0,2.0;" x1="88" x2="317" y1="772.7813" y2="772.7813"/><text fill="#000000" font-family="Helvetica" font-size="13" lengthAdjust="spacingAndGlyphs" textLength="33" x="95" y="767.7153">steer</text><line style="stroke: #111111; stroke-width: 1.0;" x1="323" x2="365" y1="817.0469" y2="817.0469"/><line style="stroke: #111111; stroke-width: 1.0;" x1="365" x2="365" y1="817.0469" y2="830.0469"/><line style="stroke: #111111; stroke-width: 1.0;" x1="324" x2="365" y1="830.0469" y2="830.0469"/><polygon fill="#111111" points="334,826.0469,324,830.0469,334,834.0469,330,830.0469" style="stroke: #111111; stroke-width: 1.0;"/><text fill="#000000" font-family="Helvetica" font-size="13" lengthAdjust="spacingAndGlyphs" textLength="191" x="330" y="796.8481">redraft modification iteratively</text><text fill="#000000" font-family="Helvetica" font-size="13" lengthAdjust="spacingAndGlyphs" textLength="129" x="330" y="811.981">until user converges</text><path d="M328,850.0469 L328,920.0469 L514,920.0469 L514,860.0469 L504,850.0469 L328,850.0469 " fill="#FBFB77" style="stroke: #A80036; stroke-width: 1.0;"/><path d="M504,850.0469 L504,860.0469 L514,860.0469 L504,850.0469 " fill="#FBFB77" style="stroke: #A80036; stroke-width: 1.0;"/><text fill="#000000" font-family="Helvetica" font-size="13" lengthAdjust="spacingAndGlyphs" textLength="106" x="334" y="867.1138">User may toggle</text><text fill="#000000" font-family="Helvetica" font-size="13" lengthAdjust="spacingAndGlyphs" textLength="129" x="334" y="882.2466">"delegate remaining</text><text fill="#000000" font-family="Helvetica" font-size="13" lengthAdjust="spacingAndGlyphs" textLength="116" x="334" y="897.3794">to the LLM" at any</text><text fill="#000000" font-family="Helvetica" font-size="13" lengthAdjust="spacingAndGlyphs" textLength="165" x="334" y="912.5122">turn (whole-revise scope).</text><line style="stroke: #111111; stroke-width: 1.0;" x1="619" x2="661" y1="953.7109" y2="953.7109"/><line style="stroke: #111111; stroke-width: 1.0;" x1="661" x2="661" y1="953.7109" y2="966.7109"/><line style="stroke: #111111; stroke-width: 1.0;" x1="620" x2="661" y1="966.7109" y2="966.7109"/><polygon fill="#111111" points="630,962.7109,620,966.7109,630,970.7109,626,966.7109" style="stroke: #111111; stroke-width: 1.0;"/><text fill="#000000" font-family="Helvetica" font-size="13" lengthAdjust="spacingAndGlyphs" textLength="189" x="626" y="948.645">assemble revise-json payload</text><polygon fill="#111111" points="1111.5,991.8438,1121.5,995.8438,1111.5,999.8438,1115.5,995.8438" style="stroke: #111111; stroke-width: 1.0;"/><line style="stroke: #111111; stroke-width: 1.0;" x1="619" x2="1117.5" y1="995.8438" y2="995.8438"/><text fill="#000000" font-family="Helvetica" font-size="13" lengthAdjust="spacingAndGlyphs" textLength="181" x="626" y="990.7778">apply resulting_files updates</text><polygon fill="#111111" points="1215,1020.9766,1225,1024.9766,1215,1028.9766,1219,1024.9766" style="stroke: #111111; stroke-width: 1.0;"/><line style="stroke: #111111; stroke-width: 1.0;" x1="619" x2="1221" y1="1024.9766" y2="1024.9766"/><text fill="#000000" font-family="Helvetica" font-size="13" lengthAdjust="spacingAndGlyphs" textLength="157" x="626" y="1019.9106">cut new vNNN/ snapshot</text><polygon fill="#111111" points="1215,1065.2422,1225,1069.2422,1215,1073.2422,1219,1069.2422" style="stroke: #111111; stroke-width: 1.0;"/><line style="stroke: #111111; stroke-width: 1.0;" x1="619" x2="1221" y1="1069.2422" y2="1069.2422"/><text fill="#000000" font-family="Helvetica" font-size="13" lengthAdjust="spacingAndGlyphs" textLength="229" x="626" y="1049.0435">move processed proposed-changes</text><text fill="#000000" font-family="Helvetica" font-size="13" lengthAdjust="spacingAndGlyphs" textLength="201" x="626" y="1064.1763">+ write paired -revision.md files</text><polygon fill="#111111" points="964,1094.375,974,1098.375,964,1102.375,968,1098.375" style="stroke: #111111; stroke-width: 1.0;"/><line style="stroke: #111111; stroke-width: 1.0;" x1="619" x2="970" y1="1098.375" y2="1098.375"/><text fill="#000000" font-family="Helvetica" font-size="13" lengthAdjust="spacingAndGlyphs" textLength="233" x="626" y="1093.3091">in-flight pile now drained of accepted</text><polygon fill="#111111" points="1370,1123.5078,1380,1127.5078,1370,1131.5078,1374,1127.5078" style="stroke: #111111; stroke-width: 1.0;"/><line style="stroke: #111111; stroke-width: 1.0;" x1="619" x2="1376" y1="1127.5078" y2="1127.5078"/><text fill="#000000" font-family="Helvetica" font-size="13" lengthAdjust="spacingAndGlyphs" textLength="148" x="626" y="1122.4419">post-step static checks</text><polygon fill="#111111" points="1134.5,1152.6406,1124.5,1156.6406,1134.5,1160.6406,1130.5,1156.6406" style="stroke: #111111; stroke-width: 1.0;"/><line style="stroke: #111111; stroke-width: 1.0;" x1="1128.5" x2="1381" y1="1156.6406" y2="1156.6406"/><text fill="#000000" font-family="Helvetica" font-size="13" lengthAdjust="spacingAndGlyphs" textLength="148" x="1140.5" y="1151.5747">invariants on new state</text><polygon fill="#111111" points="1238,1181.7734,1228,1185.7734,1238,1189.7734,1234,1185.7734" style="stroke: #111111; stroke-width: 1.0;"/><line style="stroke: #111111; stroke-width: 1.0;" x1="1232" x2="1381" y1="1185.7734" y2="1185.7734"/><text fill="#000000" font-family="Helvetica" font-size="13" lengthAdjust="spacingAndGlyphs" textLength="131" x="1244" y="1180.7075">versioning invariants</text><polygon fill="#111111" points="630,1210.9063,620,1214.9063,630,1218.9063,626,1214.9063" style="stroke: #111111; stroke-width: 1.0;"/><line style="stroke: #111111; stroke-width: 1.0; stroke-dasharray: 2.0,2.0;" x1="624" x2="1381" y1="1214.9063" y2="1214.9063"/><text fill="#000000" font-family="Helvetica" font-size="13" lengthAdjust="spacingAndGlyphs" textLength="49" x="636" y="1209.8403">findings</text><path d="M33,1229.9063 L97,1229.9063 L97,1236.9063 L87,1246.9063 L33,1246.9063 L33,1229.9063 " fill="#EEEEEE" style="stroke: #000000; stroke-width: 1.0;"/><rect fill="none" height="75.3984" style="stroke: #000000; stroke-width: 2.0;" width="651.5" x="33" y="1229.9063"/><text fill="#000000" font-family="Helvetica" font-size="13" font-weight="bold" lengthAdjust="spacingAndGlyphs" textLength="19" x="48" y="1242.9731">alt</text><text fill="#000000" font-family="Helvetica" font-size="11" font-weight="bold" lengthAdjust="spacingAndGlyphs" textLength="103" x="112" y="1242.1167">[post-step fails]</text><polygon fill="#111111" points="334,1264.1719,324,1268.1719,334,1272.1719,330,1268.1719" style="stroke: #111111; stroke-width: 1.0;"/><line style="stroke: #111111; stroke-width: 1.0; stroke-dasharray: 2.0,2.0;" x1="328" x2="608" y1="1268.1719" y2="1268.1719"/><text fill="#000000" font-family="Helvetica" font-size="13" lengthAdjust="spacingAndGlyphs" textLength="191" x="340" y="1263.106">surface failures; vNNN still cut</text><polygon fill="#111111" points="99,1293.3047,89,1297.3047,99,1301.3047,95,1297.3047" style="stroke: #111111; stroke-width: 1.0;"/><line style="stroke: #111111; stroke-width: 1.0; stroke-dasharray: 2.0,2.0;" x1="93" x2="322" y1="1297.3047" y2="1297.3047"/><text fill="#000000" font-family="Helvetica" font-size="13" lengthAdjust="spacingAndGlyphs" textLength="39" x="105" y="1292.2388">report</text><polygon fill="#111111" points="334,1329.4375,324,1333.4375,334,1337.4375,330,1333.4375" style="stroke: #111111; stroke-width: 1.0;"/><line style="stroke: #111111; stroke-width: 1.0; stroke-dasharray: 2.0,2.0;" x1="328" x2="613" y1="1333.4375" y2="1333.4375"/><text fill="#000000" font-family="Helvetica" font-size="13" lengthAdjust="spacingAndGlyphs" textLength="35" x="340" y="1328.3716">exit 0</text><polygon fill="#111111" points="1530,1358.5703,1540,1362.5703,1530,1366.5703,1534,1362.5703" style="stroke: #111111; stroke-width: 1.0;"/><line style="stroke: #111111; stroke-width: 1.0;" x1="323" x2="1536" y1="1362.5703" y2="1362.5703"/><text fill="#000000" font-family="Helvetica" font-size="13" lengthAdjust="spacingAndGlyphs" textLength="255" x="330" y="1357.5044">post-step LLM-driven phase (skill-prose)</text><polygon fill="#111111" points="1134.5,1387.7031,1124.5,1391.7031,1134.5,1395.7031,1130.5,1391.7031" style="stroke: #111111; stroke-width: 1.0;"/><line style="stroke: #111111; stroke-width: 1.0;" x1="1128.5" x2="1541" y1="1391.7031" y2="1391.7031"/><text fill="#000000" font-family="Helvetica" font-size="13" lengthAdjust="spacingAndGlyphs" textLength="189" x="1140.5" y="1386.6372">objective + subjective passes</text><polygon fill="#111111" points="334,1416.8359,324,1420.8359,334,1424.8359,330,1420.8359" style="stroke: #111111; stroke-width: 1.0;"/><line style="stroke: #111111; stroke-width: 1.0; stroke-dasharray: 2.0,2.0;" x1="328" x2="1541" y1="1420.8359" y2="1420.8359"/><text fill="#000000" font-family="Helvetica" font-size="13" lengthAdjust="spacingAndGlyphs" textLength="97" x="340" y="1415.77">findings (if any)</text><polygon fill="#111111" points="99,1445.9688,89,1449.9688,99,1453.9688,95,1449.9688" style="stroke: #111111; stroke-width: 1.0;"/><line style="stroke: #111111; stroke-width: 1.0; stroke-dasharray: 2.0,2.0;" x1="93" x2="322" y1="1449.9688" y2="1449.9688"/><text fill="#000000" font-family="Helvetica" font-size="13" lengthAdjust="spacingAndGlyphs" textLength="69" x="105" y="1444.9028">final report</text><path d="M26,1469.9688 L26,1584.9688 L1604,1584.9688 L1604,1479.9688 L1594,1469.9688 L26,1469.9688 " fill="#FBFB77" style="stroke: #A80036; stroke-width: 1.0;"/><path d="M1594,1469.9688 L1594,1479.9688 L1604,1479.9688 L1594,1469.9688 " fill="#FBFB77" style="stroke: #A80036; stroke-width: 1.0;"/><text fill="#000000" font-family="Helvetica" font-size="13" lengthAdjust="spacingAndGlyphs" textLength="226" x="678.5" y="1487.0356">Note: Selective revise per (v052) —</text><text fill="#000000" font-family="Helvetica" font-size="13" lengthAdjust="spacingAndGlyphs" textLength="237" x="678.5" y="1502.1685">the user MAY accept some proposals</text><text fill="#000000" font-family="Helvetica" font-size="13" lengthAdjust="spacingAndGlyphs" textLength="228" x="678.5" y="1517.3013">in the current revise pass and leave</text><text fill="#000000" font-family="Helvetica" font-size="13" lengthAdjust="spacingAndGlyphs" textLength="262" x="678.5" y="1532.4341">others for the next. revise's deterministic</text><text fill="#000000" font-family="Helvetica" font-size="13" lengthAdjust="spacingAndGlyphs" textLength="234" x="678.5" y="1547.5669">file-shaping is in the Python wrapper;</text><text fill="#000000" font-family="Helvetica" font-size="13" lengthAdjust="spacingAndGlyphs" textLength="264" x="678.5" y="1562.6997">LLM-driven per-proposal acceptance lives</text><text fill="#000000" font-family="Helvetica" font-size="13" lengthAdjust="spacingAndGlyphs" textLength="143" x="678.5" y="1577.8325">in the SKILL.md prose.</text><!--MD5=[86fe730edf3b54c7fc95d427722a21f4]
@startuml seq-revise
title Sequence — /livespec:revise (selective per-proposal)
skinparam defaultFontName Helvetica
skinparam shadowing false
skinparam BackgroundColor white
skinparam ArrowColor #111
skinparam sequence {
  ParticipantBorderColor #111
  ParticipantBackgroundColor white
  ParticipantFontColor #111
  ActorBorderColor #111
  ActorBackgroundColor white
  ActorFontColor #111
  LifeLineBorderColor #444
}

actor "Human user" as User
actor "Agent" as Agent #LightSkyBlue
participant "/livespec:revise" as Revise #LightYellow
participant "/livespec:doctor\n(pre-step static)" as DoctorPre #LightYellow
participant "proposed_changes/" as Proposed
participant "SPECIFICATION/" as Spec
participant "history/" as History
participant "/livespec:doctor\n(post-step static)" as DoctorPost #LightYellow
participant "/livespec:doctor\n(post-step LLM-driven)" as DoctorLLM #LightYellow

User -> Agent : "run revise"
Agent -> Revise : invoke
activate Revise

Revise -> DoctorPre : pre-step static checks
DoctorPre -> Spec : invariants
DoctorPre -> Proposed : invariants
DoctorPre - -> Revise : findings (pass / fail)

alt pre-step fails
  Revise - -> Agent : surface failures; abort
  Agent - -> User : report; do not proceed
else pre-step passes
  Revise -> Proposed : enumerate pending propose-change files\n(skip README.md, skip *-revision.md)
  Proposed - -> Revise : N files, ordered by created_at
  Revise -> Agent : narrate count + oldest

  Agent -> Agent : optional steering-intent prompt
  Agent -> User : capture steering intent (optional)

  loop for each pending proposal
    Agent -> Agent : LLM drafts decision (accept / modify / reject\n+ rationale + resulting_files)
    Agent -> User : present decision for confirmation
    alt user confirms
      User - -> Agent : approve
    else user requests modify
      User - -> Agent : steer
      Agent -> Agent : redraft modification iteratively\nuntil user converges
    end
    note right of Agent : User may toggle\n"delegate remaining\nto the LLM" at any\nturn (whole-revise scope).
  end

  Revise -> Revise : assemble revise-json payload
  Revise -> Spec : apply resulting_files updates
  Revise -> History : cut new vNNN/ snapshot
  Revise -> History : move processed proposed-changes\n+ write paired -revision.md files
  Revise -> Proposed : in-flight pile now drained of accepted

  Revise -> DoctorPost : post-step static checks
  DoctorPost -> Spec : invariants on new state
  DoctorPost -> History : versioning invariants
  DoctorPost - -> Revise : findings

  alt post-step fails
    Revise - -> Agent : surface failures; vNNN still cut
    Agent - -> User : report
  end

  Revise - -> Agent : exit 0
  deactivate Revise

  Agent -> DoctorLLM : post-step LLM-driven phase (skill-prose)
  DoctorLLM -> Spec : objective + subjective passes
  DoctorLLM - -> Agent : findings (if any)
  Agent - -> User : final report
end

note over User, DoctorLLM : Note: Selective revise per (v052) —\nthe user MAY accept some proposals\nin the current revise pass and leave\nothers for the next. revise's deterministic\nfile-shaping is in the Python wrapper;\nLLM-driven per-proposal acceptance lives\nin the SKILL.md prose.

@enduml

PlantUML version 1.2020.02(Sun Mar 01 11:22:07 CET 2020)
(GPL source distribution)
Java Runtime: OpenJDK Runtime Environment
JVM: OpenJDK 64-Bit Server VM
Java Version: 21.0.10+7-Ubuntu-125.10
Operating System: Linux
Default Encoding: UTF-8
Language: en
Country: null
--></g></svg>