<?xml version="1.0" encoding="UTF-8" standalone="no"?><svg xmlns="http://www.w3.org/2000/svg" xmlns:xlink="http://www.w3.org/1999/xlink" contentScriptType="application/ecmascript" contentStyleType="text/css" height="1403px" preserveAspectRatio="none" style="width:1223px;height:1403px;" version="1.1" viewBox="0 0 1223 1403" width="1223px" zoomAndPan="magnify"><defs/><g><text fill="#000000" font-family="Helvetica" font-size="18" lengthAdjust="spacingAndGlyphs" textLength="420" x="402.5" y="26.708">Sequence — /livespec-impl-*:capture-spec-gaps</text><rect fill="#FFFFFF" height="994.8516" style="stroke: #444444; stroke-width: 1.0;" width="10" x="638" y="177.5156"/><rect fill="#FFFFFF" height="341.5313" style="stroke: #000000; stroke-width: 2.0;" width="1199" x="13" y="520.2422"/><rect fill="#FFFFFF" height="207.8672" style="stroke: #000000; stroke-width: 2.0;" width="894.5" x="307.5" y="646.9063"/><rect fill="#FFFFFF" height="43.9375" style="stroke: none; stroke-width: 1.0;" width="894.5" x="307.5" y="810.8359"/><rect fill="#FFFFFF" height="239.3281" style="stroke: #000000; stroke-width: 2.0;" width="1199" x="13" y="875.7734"/><rect fill="#FFFFFF" height="90.5313" style="stroke: #000000; stroke-width: 2.0;" width="894.5" x="307.5" y="1017.5703"/><line style="stroke: #444444; stroke-width: 1.0; stroke-dasharray: 5.0,5.0;" x1="68" x2="68" y1="117.25" y2="1316.2969"/><line style="stroke: #444444; stroke-width: 1.0; stroke-dasharray: 5.0,5.0;" x1="340.5" x2="340.5" y1="117.25" y2="1316.2969"/><line style="stroke: #444444; stroke-width: 1.0; stroke-dasharray: 5.0,5.0;" x1="642.5" x2="642.5" y1="117.25" y2="1316.2969"/><line style="stroke: #444444; stroke-width: 1.0; stroke-dasharray: 5.0,5.0;" x1="884" x2="884" y1="117.25" y2="1316.2969"/><line style="stroke: #444444; stroke-width: 1.0; stroke-dasharray: 5.0,5.0;" x1="999" x2="999" y1="117.25" y2="1316.2969"/><line style="stroke: #444444; stroke-width: 1.0; stroke-dasharray: 5.0,5.0;" x1="1122" x2="1122" y1="117.25" y2="1316.2969"/><text fill="#111111" font-family="Helvetica" font-size="14" lengthAdjust="spacingAndGlyphs" textLength="84" x="23" y="113.9482">Human user</text><ellipse cx="68" cy="47.9531" fill="#FFFFFF" rx="8" ry="8" style="stroke: #111111; stroke-width: 2.0;"/><path d="M68,55.9531 L68,82.9531 M55,63.9531 L81,63.9531 M68,82.9531 L55,97.9531 M68,82.9531 L81,97.9531 " fill="none" style="stroke: #111111; stroke-width: 2.0;"/><text fill="#111111" font-family="Helvetica" font-size="14" lengthAdjust="spacingAndGlyphs" textLength="84" x="23" y="1328.292">Human user</text><ellipse cx="68" cy="1341.5938" fill="#FFFFFF" rx="8" ry="8" style="stroke: #111111; stroke-width: 2.0;"/><path d="M68,1349.5938 L68,1376.5938 M55,1357.5938 L81,1357.5938 M68,1376.5938 L55,1391.5938 M68,1376.5938 L81,1391.5938 " fill="none" style="stroke: #111111; stroke-width: 2.0;"/><text fill="#111111" font-family="Helvetica" font-size="14" lengthAdjust="spacingAndGlyphs" textLength="41" x="317.5" y="113.9482">Agent</text><ellipse cx="341" cy="47.9531" fill="#87CEFA" rx="8" ry="8" style="stroke: #111111; stroke-width: 2.0;"/><path d="M341,55.9531 L341,82.9531 M328,63.9531 L354,63.9531 M341,82.9531 L328,97.9531 M341,82.9531 L354,97.9531 " fill="none" style="stroke: #111111; stroke-width: 2.0;"/><text fill="#111111" font-family="Helvetica" font-size="14" lengthAdjust="spacingAndGlyphs" textLength="41" x="317.5" y="1328.292">Agent</text><ellipse cx="341" cy="1341.5938" fill="#87CEFA" rx="8" ry="8" style="stroke: #111111; stroke-width: 2.0;"/><path d="M341,1349.5938 L341,1376.5938 M328,1357.5938 L354,1357.5938 M341,1376.5938 L328,1391.5938 M341,1376.5938 L354,1391.5938 " fill="none" style="stroke: #111111; stroke-width: 2.0;"/><rect fill="#FFFFE0" height="46.5938" style="stroke: #111111; stroke-width: 1.5;" width="145" x="570.5" y="69.6563"/><text fill="#111111" font-family="Helvetica" font-size="14" lengthAdjust="spacingAndGlyphs" textLength="111" x="587.5" y="89.6514">/livespec-impl-*:</text><text fill="#111111" font-family="Helvetica" font-size="14" lengthAdjust="spacingAndGlyphs" textLength="131" x="577.5" y="105.9482">capture-spec-gaps</text><rect fill="#FFFFE0" height="46.5938" style="stroke: #111111; stroke-width: 1.5;" width="145" x="570.5" y="1315.2969"/><text fill="#111111" font-family="Helvetica" font-size="14" lengthAdjust="spacingAndGlyphs" textLength="111" x="587.5" y="1335.292">/livespec-impl-*:</text><text fill="#111111" font-family="Helvetica" font-size="14" lengthAdjust="spacingAndGlyphs" textLength="131" x="577.5" y="1351.5889">capture-spec-gaps</text><rect fill="#FFFFFF" height="46.5938" style="stroke: #111111; stroke-width: 1.5;" width="122" x="823" y="69.6563"/><text fill="#111111" font-family="Helvetica" font-size="14" lengthAdjust="spacingAndGlyphs" textLength="108" x="830" y="89.6514">SPECIFICATION/</text><text fill="#111111" font-family="Helvetica" font-size="14" lengthAdjust="spacingAndGlyphs" textLength="41" x="863.5" y="105.9482">(read)</text><rect fill="#FFFFFF" height="46.5938" style="stroke: #111111; stroke-width: 1.5;" width="122" x="823" y="1315.2969"/><text fill="#111111" font-family="Helvetica" font-size="14" lengthAdjust="spacingAndGlyphs" textLength="108" x="830" y="1335.292">SPECIFICATION/</text><text fill="#111111" font-family="Helvetica" font-size="14" lengthAdjust="spacingAndGlyphs" textLength="41" x="863.5" y="1351.5889">(read)</text><rect fill="#FFFFFF" height="46.5938" style="stroke: #111111; stroke-width: 1.5;" width="88" x="955" y="69.6563"/><text fill="#111111" font-family="Helvetica" font-size="14" lengthAdjust="spacingAndGlyphs" textLength="74" x="962" y="89.6514">Repository</text><text fill="#111111" font-family="Helvetica" font-size="14" lengthAdjust="spacingAndGlyphs" textLength="41" x="978.5" y="105.9482">(read)</text><rect fill="#FFFFFF" height="46.5938" style="stroke: #111111; stroke-width: 1.5;" width="88" x="955" y="1315.2969"/><text fill="#111111" font-family="Helvetica" font-size="14" lengthAdjust="spacingAndGlyphs" textLength="74" x="962" y="1335.292">Repository</text><text fill="#111111" font-family="Helvetica" font-size="14" lengthAdjust="spacingAndGlyphs" textLength="41" x="978.5" y="1351.5889">(read)</text><rect fill="#FFFFFF" height="46.5938" style="stroke: #111111; stroke-width: 1.5;" width="139" x="1053" y="69.6563"/><text fill="#111111" font-family="Helvetica" font-size="14" lengthAdjust="spacingAndGlyphs" textLength="119" x="1063" y="89.6514">Work-item queue</text><text fill="#111111" font-family="Helvetica" font-size="14" lengthAdjust="spacingAndGlyphs" textLength="125" x="1060" y="105.9482">(impl-plugin store)</text><rect fill="#FFFFFF" height="46.5938" style="stroke: #111111; stroke-width: 1.5;" width="139" x="1053" y="1315.2969"/><text fill="#111111" font-family="Helvetica" font-size="14" lengthAdjust="spacingAndGlyphs" textLength="119" x="1063" y="1335.292">Work-item queue</text><text fill="#111111" font-family="Helvetica" font-size="14" lengthAdjust="spacingAndGlyphs" textLength="125" x="1060" y="1351.5889">(impl-plugin store)</text><rect fill="#FFFFFF" height="994.8516" style="stroke: #444444; stroke-width: 1.0;" width="10" x="638" y="177.5156"/><polygon fill="#111111" points="329,144.3828,339,148.3828,329,152.3828,333,148.3828" style="stroke: #111111; stroke-width: 1.0;"/><line style="stroke: #111111; stroke-width: 1.0;" x1="68" x2="335" y1="148.3828" y2="148.3828"/><text fill="#000000" font-family="Helvetica" font-size="13" lengthAdjust="spacingAndGlyphs" textLength="155" x="75" y="143.3169">"run capture-spec-gaps"</text><polygon fill="#111111" points="626,173.5156,636,177.5156,626,181.5156,630,177.5156" style="stroke: #111111; stroke-width: 1.0;"/><line style="stroke: #111111; stroke-width: 1.0;" x1="341" x2="632" y1="177.5156" y2="177.5156"/><text fill="#000000" font-family="Helvetica" font-size="13" lengthAdjust="spacingAndGlyphs" textLength="41" x="348" y="172.4497">invoke</text><polygon fill="#111111" points="872,202.6484,882,206.6484,872,210.6484,876,206.6484" style="stroke: #111111; stroke-width: 1.0;"/><line style="stroke: #111111; stroke-width: 1.0;" x1="648" x2="878" y1="206.6484" y2="206.6484"/><text fill="#000000" font-family="Helvetica" font-size="13" lengthAdjust="spacingAndGlyphs" textLength="180" x="655" y="201.5825">read template-declared files</text><polygon fill="#111111" points="659,231.7813,649,235.7813,659,239.7813,655,235.7813" style="stroke: #111111; stroke-width: 1.0;"/><line style="stroke: #111111; stroke-width: 1.0; stroke-dasharray: 2.0,2.0;" x1="653" x2="883" y1="235.7813" y2="235.7813"/><text fill="#000000" font-family="Helvetica" font-size="13" lengthAdjust="spacingAndGlyphs" textLength="133" x="665" y="230.7153">current spec content</text><polygon fill="#111111" points="987,260.9141,997,264.9141,987,268.9141,991,264.9141" style="stroke: #111111; stroke-width: 1.0;"/><line style="stroke: #111111; stroke-width: 1.0;" x1="648" x2="993" y1="264.9141" y2="264.9141"/><text fill="#000000" font-family="Helvetica" font-size="13" lengthAdjust="spacingAndGlyphs" textLength="249" x="655" y="259.8481">walk repo per gap-detection predicates</text><polygon fill="#111111" points="659,290.0469,649,294.0469,659,298.0469,655,294.0469" style="stroke: #111111; stroke-width: 1.0;"/><line style="stroke: #111111; stroke-width: 1.0; stroke-dasharray: 2.0,2.0;" x1="653" x2="998" y1="294.0469" y2="294.0469"/><text fill="#000000" font-family="Helvetica" font-size="13" lengthAdjust="spacingAndGlyphs" textLength="188" x="665" y="288.981">current implementation state</text><path d="M653,307.0469 L653,362.0469 L846,362.0469 L846,317.0469 L836,307.0469 L653,307.0469 " fill="#FBFB77" style="stroke: #A80036; stroke-width: 1.0;"/><path d="M836,307.0469 L836,317.0469 L846,317.0469 L836,307.0469 " fill="#FBFB77" style="stroke: #A80036; stroke-width: 1.0;"/><text fill="#000000" font-family="Helvetica" font-size="13" lengthAdjust="spacingAndGlyphs" textLength="172" x="659" y="324.1138">Detection happens entirely</text><text fill="#000000" font-family="Helvetica" font-size="13" lengthAdjust="spacingAndGlyphs" textLength="164" x="659" y="339.2466">in-memory. No persistent</text><text fill="#000000" font-family="Helvetica" font-size="13" lengthAdjust="spacingAndGlyphs" textLength="129" x="659" y="354.3794">current.json artifact.</text><line style="stroke: #111111; stroke-width: 1.0;" x1="648" x2="690" y1="433.9766" y2="433.9766"/><line style="stroke: #111111; stroke-width: 1.0;" x1="690" x2="690" y1="433.9766" y2="446.9766"/><line style="stroke: #111111; stroke-width: 1.0;" x1="649" x2="690" y1="446.9766" y2="446.9766"/><polygon fill="#111111" points="659,442.9766,649,446.9766,659,450.9766,655,446.9766" style="stroke: #111111; stroke-width: 1.0;"/><text fill="#000000" font-family="Helvetica" font-size="13" lengthAdjust="spacingAndGlyphs" textLength="125" x="655" y="383.5122">compute 3-way diff:</text><text fill="#000000" font-family="Helvetica" font-size="13" lengthAdjust="spacingAndGlyphs" textLength="167" x="655" y="398.645">• predicted-but-untracked</text><text fill="#000000" font-family="Helvetica" font-size="13" lengthAdjust="spacingAndGlyphs" textLength="217" x="655" y="413.7778">• tracked-but-no-longer-predicted</text><text fill="#000000" font-family="Helvetica" font-size="13" lengthAdjust="spacingAndGlyphs" textLength="41" x="655" y="428.9106">• both</text><polygon fill="#111111" points="1110.5,472.1094,1120.5,476.1094,1110.5,480.1094,1114.5,476.1094" style="stroke: #111111; stroke-width: 1.0;"/><line style="stroke: #111111; stroke-width: 1.0;" x1="648" x2="1116.5" y1="476.1094" y2="476.1094"/><text fill="#000000" font-family="Helvetica" font-size="13" lengthAdjust="spacingAndGlyphs" textLength="194" x="655" y="471.0435">list existing labeled work items</text><polygon fill="#111111" points="659,501.2422,649,505.2422,659,509.2422,655,505.2422" style="stroke: #111111; stroke-width: 1.0;"/><line style="stroke: #111111; stroke-width: 1.0; stroke-dasharray: 2.0,2.0;" x1="653" x2="1121.5" y1="505.2422" y2="505.2422"/><text fill="#000000" font-family="Helvetica" font-size="13" lengthAdjust="spacingAndGlyphs" textLength="190" x="665" y="500.1763">current gap-id labels in queue</text><path d="M13,520.2422 L90,520.2422 L90,527.2422 L80,537.2422 L13,537.2422 L13,520.2422 " fill="#EEEEEE" style="stroke: #000000; stroke-width: 1.0;"/><rect fill="none" height="341.5313" style="stroke: #000000; stroke-width: 2.0;" width="1199" x="13" y="520.2422"/><text fill="#000000" font-family="Helvetica" font-size="13" font-weight="bold" lengthAdjust="spacingAndGlyphs" textLength="32" x="28" y="533.3091">loop</text><text fill="#000000" font-family="Helvetica" font-size="11" font-weight="bold" lengthAdjust="spacingAndGlyphs" textLength="263" x="105" y="532.4526">[for each newly-detected untracked gap]</text><polygon fill="#111111" points="352,569.6406,342,573.6406,352,577.6406,348,573.6406" style="stroke: #111111; stroke-width: 1.0;"/><line style="stroke: #111111; stroke-width: 1.0;" x1="346" x2="637" y1="573.6406" y2="573.6406"/><text fill="#000000" font-family="Helvetica" font-size="13" lengthAdjust="spacingAndGlyphs" textLength="189" x="358" y="553.4419">surface gap (id, title, severity,</text><text fill="#000000" font-family="Helvetica" font-size="13" lengthAdjust="spacingAndGlyphs" textLength="205" x="358" y="568.5747">spec_refs, fix_hint, depends_on)</text><polygon fill="#111111" points="79,598.7734,69,602.7734,79,606.7734,75,602.7734" style="stroke: #111111; stroke-width: 1.0;"/><line style="stroke: #111111; stroke-width: 1.0;" x1="73" x2="340" y1="602.7734" y2="602.7734"/><text fill="#000000" font-family="Helvetica" font-size="13" lengthAdjust="spacingAndGlyphs" textLength="213" x="85" y="597.7075">present gap + propose file action</text><polygon fill="#111111" points="329,627.9063,339,631.9063,329,635.9063,333,631.9063" style="stroke: #111111; stroke-width: 1.0;"/><line style="stroke: #111111; stroke-width: 1.0; stroke-dasharray: 2.0,2.0;" x1="68" x2="335" y1="631.9063" y2="631.9063"/><text fill="#000000" font-family="Helvetica" font-size="13" lengthAdjust="spacingAndGlyphs" textLength="188" x="75" y="626.8403">confirm / skip / edit metadata</text><path d="M307.5,646.9063 L371.5,646.9063 L371.5,653.9063 L361.5,663.9063 L307.5,663.9063 L307.5,646.9063 " fill="#EEEEEE" style="stroke: #000000; stroke-width: 1.0;"/><rect fill="none" height="207.8672" style="stroke: #000000; stroke-width: 2.0;" width="894.5" x="307.5" y="646.9063"/><text fill="#000000" font-family="Helvetica" font-size="13" font-weight="bold" lengthAdjust="spacingAndGlyphs" textLength="19" x="322.5" y="659.9731">alt</text><text fill="#000000" font-family="Helvetica" font-size="11" font-weight="bold" lengthAdjust="spacingAndGlyphs" textLength="97" x="386.5" y="659.1167">[user confirms]</text><polygon fill="#111111" points="626,681.1719,636,685.1719,626,689.1719,630,685.1719" style="stroke: #111111; stroke-width: 1.0;"/><line style="stroke: #111111; stroke-width: 1.0;" x1="341" x2="632" y1="685.1719" y2="685.1719"/><text fill="#000000" font-family="Helvetica" font-size="13" lengthAdjust="spacingAndGlyphs" textLength="60" x="348" y="680.106">approved</text><polygon fill="#111111" points="1110.5,740.5703,1120.5,744.5703,1110.5,748.5703,1114.5,744.5703" style="stroke: #111111; stroke-width: 1.0;"/><line style="stroke: #111111; stroke-width: 1.0;" x1="648" x2="1116.5" y1="744.5703" y2="744.5703"/><text fill="#000000" font-family="Helvetica" font-size="13" lengthAdjust="spacingAndGlyphs" textLength="84" x="655" y="709.2388">file work item</text><text fill="#000000" font-family="Helvetica" font-size="13" lengthAdjust="spacingAndGlyphs" textLength="175" x="655" y="724.3716">(gap-id label, severity label,</text><text fill="#000000" font-family="Helvetica" font-size="13" lengthAdjust="spacingAndGlyphs" textLength="88" x="655" y="739.5044">area label, ...)</text><polygon fill="#111111" points="659,769.7031,649,773.7031,659,777.7031,655,773.7031" style="stroke: #111111; stroke-width: 1.0;"/><line style="stroke: #111111; stroke-width: 1.0; stroke-dasharray: 2.0,2.0;" x1="653" x2="1121.5" y1="773.7031" y2="773.7031"/><text fill="#000000" font-family="Helvetica" font-size="13" lengthAdjust="spacingAndGlyphs" textLength="77" x="665" y="768.6372">work item id</text><polygon fill="#111111" points="352,798.8359,342,802.8359,352,806.8359,348,802.8359" style="stroke: #111111; stroke-width: 1.0;"/><line style="stroke: #111111; stroke-width: 1.0;" x1="346" x2="637" y1="802.8359" y2="802.8359"/><text fill="#000000" font-family="Helvetica" font-size="13" lengthAdjust="spacingAndGlyphs" textLength="176" x="358" y="797.77">confirmed; queued as &lt;id&gt;</text><line style="stroke: #000000; stroke-width: 1.0; stroke-dasharray: 2.0,2.0;" x1="307.5" x2="1202" y1="811.8359" y2="811.8359"/><text fill="#000000" font-family="Helvetica" font-size="11" font-weight="bold" lengthAdjust="spacingAndGlyphs" textLength="141" x="312.5" y="822.0464">[user skips / declines]</text><polygon fill="#111111" points="352,842.7734,342,846.7734,352,850.7734,348,846.7734" style="stroke: #111111; stroke-width: 1.0;"/><line style="stroke: #111111; stroke-width: 1.0;" x1="346" x2="637" y1="846.7734" y2="846.7734"/><text fill="#000000" font-family="Helvetica" font-size="13" lengthAdjust="spacingAndGlyphs" textLength="49" x="358" y="841.7075">skipped</text><path d="M13,875.7734 L90,875.7734 L90,882.7734 L80,892.7734 L13,892.7734 L13,875.7734 " fill="#EEEEEE" style="stroke: #000000; stroke-width: 1.0;"/><rect fill="none" height="239.3281" style="stroke: #000000; stroke-width: 2.0;" width="1199" x="13" y="875.7734"/><text fill="#000000" font-family="Helvetica" font-size="13" font-weight="bold" lengthAdjust="spacingAndGlyphs" textLength="32" x="28" y="888.8403">loop</text><text fill="#000000" font-family="Helvetica" font-size="11" font-weight="bold" lengthAdjust="spacingAndGlyphs" textLength="361" x="105" y="887.9839">[for each stale gap-id (tracked but no longer predicted)]</text><polygon fill="#111111" points="352,940.3047,342,944.3047,352,948.3047,348,944.3047" style="stroke: #111111; stroke-width: 1.0;"/><line style="stroke: #111111; stroke-width: 1.0;" x1="346" x2="637" y1="944.3047" y2="944.3047"/><text fill="#000000" font-family="Helvetica" font-size="13" lengthAdjust="spacingAndGlyphs" textLength="113" x="358" y="908.9731">surface for triage:</text><text fill="#000000" font-family="Helvetica" font-size="13" lengthAdjust="spacingAndGlyphs" textLength="188" x="358" y="924.106">"this gap-id no longer detects</text><text fill="#000000" font-family="Helvetica" font-size="13" lengthAdjust="spacingAndGlyphs" textLength="92" x="358" y="939.2388">is it resolved?"</text><polygon fill="#111111" points="79,969.4375,69,973.4375,79,977.4375,75,973.4375" style="stroke: #111111; stroke-width: 1.0;"/><line style="stroke: #111111; stroke-width: 1.0;" x1="73" x2="340" y1="973.4375" y2="973.4375"/><text fill="#000000" font-family="Helvetica" font-size="13" lengthAdjust="spacingAndGlyphs" textLength="200" x="85" y="968.3716">present + propose close action</text><polygon fill="#111111" points="329,998.5703,339,1002.5703,329,1006.5703,333,1002.5703" style="stroke: #111111; stroke-width: 1.0;"/><line style="stroke: #111111; stroke-width: 1.0; stroke-dasharray: 2.0,2.0;" x1="68" x2="335" y1="1002.5703" y2="1002.5703"/><text fill="#000000" font-family="Helvetica" font-size="13" lengthAdjust="spacingAndGlyphs" textLength="249" x="75" y="997.5044">confirm close / leave open / investigate</text><path d="M307.5,1017.5703 L371.5,1017.5703 L371.5,1024.5703 L361.5,1034.5703 L307.5,1034.5703 L307.5,1017.5703 " fill="#EEEEEE" style="stroke: #000000; stroke-width: 1.0;"/><rect fill="none" height="90.5313" style="stroke: #000000; stroke-width: 2.0;" width="894.5" x="307.5" y="1017.5703"/><text fill="#000000" font-family="Helvetica" font-size="13" font-weight="bold" lengthAdjust="spacingAndGlyphs" textLength="19" x="322.5" y="1030.6372">alt</text><text fill="#000000" font-family="Helvetica" font-size="11" font-weight="bold" lengthAdjust="spacingAndGlyphs" textLength="135" x="386.5" y="1029.7808">[user confirms close]</text><polygon fill="#111111" points="626,1051.8359,636,1055.8359,626,1059.8359,630,1055.8359" style="stroke: #111111; stroke-width: 1.0;"/><line style="stroke: #111111; stroke-width: 1.0;" x1="341" x2="632" y1="1055.8359" y2="1055.8359"/><text fill="#000000" font-family="Helvetica" font-size="13" lengthAdjust="spacingAndGlyphs" textLength="60" x="348" y="1050.77">approved</text><polygon fill="#111111" points="1110.5,1096.1016,1120.5,1100.1016,1110.5,1104.1016,1114.5,1100.1016" style="stroke: #111111; stroke-width: 1.0;"/><line style="stroke: #111111; stroke-width: 1.0;" x1="648" x2="1116.5" y1="1100.1016" y2="1100.1016"/><text fill="#000000" font-family="Helvetica" font-size="13" lengthAdjust="spacingAndGlyphs" textLength="99" x="655" y="1079.9028">close work item</text><text fill="#000000" font-family="Helvetica" font-size="13" lengthAdjust="spacingAndGlyphs" textLength="207" x="655" y="1095.0356">(resolution:no-longer-applicable)</text><polygon fill="#111111" points="352,1139.2344,342,1143.2344,352,1147.2344,348,1143.2344" style="stroke: #111111; stroke-width: 1.0;"/><line style="stroke: #111111; stroke-width: 1.0; stroke-dasharray: 2.0,2.0;" x1="346" x2="637" y1="1143.2344" y2="1143.2344"/><text fill="#000000" font-family="Helvetica" font-size="13" lengthAdjust="spacingAndGlyphs" textLength="273" x="358" y="1138.1685">run summary (N filed, M closed, K skipped)</text><polygon fill="#111111" points="79,1168.3672,69,1172.3672,79,1176.3672,75,1172.3672" style="stroke: #111111; stroke-width: 1.0;"/><line style="stroke: #111111; stroke-width: 1.0; stroke-dasharray: 2.0,2.0;" x1="73" x2="340" y1="1172.3672" y2="1172.3672"/><text fill="#000000" font-family="Helvetica" font-size="13" lengthAdjust="spacingAndGlyphs" textLength="39" x="85" y="1167.3013">report</text><path d="M13,1185.3672 L13,1300.3672 L1177,1300.3672 L1177,1195.3672 L1167,1185.3672 L13,1185.3672 " fill="#FBFB77" style="stroke: #A80036; stroke-width: 1.0;"/><path d="M1167,1185.3672 L1167,1195.3672 L1177,1195.3672 L1167,1185.3672 " fill="#FBFB77" style="stroke: #A80036; stroke-width: 1.0;"/><text fill="#000000" font-family="Helvetica" font-size="13" lengthAdjust="spacingAndGlyphs" textLength="136" x="473.5" y="1202.4341">Note: detection state</text><text fill="#000000" font-family="Helvetica" font-size="13" lengthAdjust="spacingAndGlyphs" textLength="162" x="473.5" y="1217.5669">is ephemeral throughout.</text><text fill="#000000" font-family="Helvetica" font-size="13" lengthAdjust="spacingAndGlyphs" textLength="134" x="473.5" y="1232.6997">The in-memory diff is</text><text fill="#000000" font-family="Helvetica" font-size="13" lengthAdjust="spacingAndGlyphs" textLength="137" x="473.5" y="1247.8325">discarded at skill exit.</text><text fill="#000000" font-family="Helvetica" font-size="13" lengthAdjust="spacingAndGlyphs" textLength="128" x="473.5" y="1262.9653">Verification on close</text><text fill="#000000" font-family="Helvetica" font-size="13" lengthAdjust="spacingAndGlyphs" textLength="201" x="473.5" y="1278.0981">(by /livespec-impl-*:implement)</text><text fill="#000000" font-family="Helvetica" font-size="13" lengthAdjust="spacingAndGlyphs" textLength="234" x="473.5" y="1293.231">re-runs capture-spec-gaps --dry-run.</text><!--MD5=[9170de77034487efece867dcd32fffcd]
@startuml seq-capture-spec-gaps
title Sequence — /livespec-impl-*:capture-spec-gaps
skinparam defaultFontName Helvetica
skinparam shadowing false
skinparam BackgroundColor white
skinparam ArrowColor #111
skinparam sequence {
  ParticipantBorderColor #111
  ParticipantBackgroundColor white
  ParticipantFontColor #111
  ActorBorderColor #111
  ActorBackgroundColor white
  ActorFontColor #111
  LifeLineBorderColor #444
}

actor "Human user" as User
actor "Agent" as Agent #LightSkyBlue
participant "/livespec-impl-*:\ncapture-spec-gaps" as Skill #LightYellow
participant "SPECIFICATION/\n(read)" as Spec
participant "Repository\n(read)" as Repo
participant "Work-item queue\n(impl-plugin store)" as Queue

User -> Agent : "run capture-spec-gaps"
Agent -> Skill : invoke
activate Skill

Skill -> Spec : read template-declared files
Spec - -> Skill : current spec content
Skill -> Repo : walk repo per gap-detection predicates
Repo - -> Skill : current implementation state

note right of Skill : Detection happens entirely\nin-memory. No persistent\ncurrent.json artifact.

Skill -> Skill : compute 3-way diff:\n• predicted-but-untracked\n• tracked-but-no-longer-predicted\n• both
Skill -> Queue : list existing labeled work items
Queue - -> Skill : current gap-id labels in queue

loop for each newly-detected untracked gap
  Skill -> Agent : surface gap (id, title, severity,\nspec_refs, fix_hint, depends_on)
  Agent -> User : present gap + propose file action
  User - -> Agent : confirm / skip / edit metadata
  alt user confirms
    Agent -> Skill : approved
    Skill -> Queue : file work item\n(gap-id label, severity label,\narea label, ...)
    Queue - -> Skill : work item id
    Skill -> Agent : confirmed; queued as <id>
  else user skips / declines
    Skill -> Agent : skipped
  end
end

loop for each stale gap-id (tracked but no longer predicted)
  Skill -> Agent : surface for triage:\n"this gap-id no longer detects\nis it resolved?"
  Agent -> User : present + propose close action
  User - -> Agent : confirm close / leave open / investigate
  alt user confirms close
    Agent -> Skill : approved
    Skill -> Queue : close work item\n(resolution:no-longer-applicable)
  end
end

Skill - -> Agent : run summary (N filed, M closed, K skipped)
Agent - -> User : report
deactivate Skill

note over User, Queue : Note: detection state\nis ephemeral throughout.\nThe in-memory diff is\ndiscarded at skill exit.\nVerification on close\n(by /livespec-impl-*:implement)\nre-runs capture-spec-gaps - -dry-run.

@enduml

PlantUML version 1.2020.02(Sun Mar 01 11:22:07 CET 2020)
(GPL source distribution)
Java Runtime: OpenJDK Runtime Environment
JVM: OpenJDK 64-Bit Server VM
Java Version: 21.0.10+7-Ubuntu-125.10
Operating System: Linux
Default Encoding: UTF-8
Language: en
Country: null
--></g></svg>